<?xml version="1.0" encoding="utf-8" standalone="no"?>
<!DOCTYPE svg PUBLIC "-//W3C//DTD SVG 1.1//EN"
  "http://www.w3.org/Graphics/SVG/1.1/DTD/svg11.dtd">
<!-- Created with matplotlib (https://matplotlib.org/) -->
<svg height="524.16pt" version="1.1" viewBox="0 0 889.2 524.16" width="889.2pt" xmlns="http://www.w3.org/2000/svg" xmlns:xlink="http://www.w3.org/1999/xlink">
 <metadata>
  <rdf:RDF xmlns:cc="http://creativecommons.org/ns#" xmlns:dc="http://purl.org/dc/elements/1.1/" xmlns:rdf="http://www.w3.org/1999/02/22-rdf-syntax-ns#">
   <cc:Work>
    <dc:type rdf:resource="http://purl.org/dc/dcmitype/StillImage"/>
    <dc:date>2022-03-05T22:14:53.057058</dc:date>
    <dc:format>image/svg+xml</dc:format>
    <dc:creator>
     <cc:Agent>
      <dc:title>Matplotlib v3.3.4, https://matplotlib.org/</dc:title>
     </cc:Agent>
    </dc:creator>
   </cc:Work>
  </rdf:RDF>
 </metadata>
 <defs>
  <style type="text/css">*{stroke-linecap:butt;stroke-linejoin:round;}</style>
 </defs>
 <g id="figure_1">
  <g id="patch_1">
   <path d="M 0 524.16 
L 889.2 524.16 
L 889.2 0 
L 0 0 
z
" style="fill:#ffffff;"/>
  </g>
  <g id="axes_1">
   <g id="patch_2">
    <path d="M 111.15 466.5024 
L 800.28 466.5024 
L 800.28 62.8992 
L 111.15 62.8992 
z
" style="fill:#ffffff;"/>
   </g>
   <g id="matplotlib.axis_1">
    <g id="xtick_1">
     <g id="line2d_1">
      <defs>
       <path d="M 0 0 
L 0 3.5 
" id="m62ba0d5be5" style="stroke:#000000;stroke-width:0.8;"/>
      </defs>
      <g>
       <use style="stroke:#000000;stroke-width:0.8;" x="142.474091" xlink:href="#m62ba0d5be5" y="466.5024"/>
      </g>
     </g>
     <g id="text_1">
      <!-- 0 -->
      <g transform="translate(139.292841 481.100838)scale(0.1 -0.1)">
       <defs>
        <path d="M 31.78125 66.40625 
Q 24.171875 66.40625 20.328125 58.90625 
Q 16.5 51.421875 16.5 36.375 
Q 16.5 21.390625 20.328125 13.890625 
Q 24.171875 6.390625 31.78125 6.390625 
Q 39.453125 6.390625 43.28125 13.890625 
Q 47.125 21.390625 47.125 36.375 
Q 47.125 51.421875 43.28125 58.90625 
Q 39.453125 66.40625 31.78125 66.40625 
z
M 31.78125 74.21875 
Q 44.046875 74.21875 50.515625 64.515625 
Q 56.984375 54.828125 56.984375 36.375 
Q 56.984375 17.96875 50.515625 8.265625 
Q 44.046875 -1.421875 31.78125 -1.421875 
Q 19.53125 -1.421875 13.0625 8.265625 
Q 6.59375 17.96875 6.59375 36.375 
Q 6.59375 54.828125 13.0625 64.515625 
Q 19.53125 74.21875 31.78125 74.21875 
z
" id="DejaVuSans-48"/>
       </defs>
       <use xlink:href="#DejaVuSans-48"/>
      </g>
     </g>
    </g>
    <g id="xtick_2">
     <g id="line2d_2">
      <g>
       <use style="stroke:#000000;stroke-width:0.8;" x="223.672033" xlink:href="#m62ba0d5be5" y="466.5024"/>
      </g>
     </g>
     <g id="text_2">
      <!-- 20 -->
      <g transform="translate(217.309533 481.100838)scale(0.1 -0.1)">
       <defs>
        <path d="M 19.1875 8.296875 
L 53.609375 8.296875 
L 53.609375 0 
L 7.328125 0 
L 7.328125 8.296875 
Q 12.9375 14.109375 22.625 23.890625 
Q 32.328125 33.6875 34.8125 36.53125 
Q 39.546875 41.84375 41.421875 45.53125 
Q 43.3125 49.21875 43.3125 52.78125 
Q 43.3125 58.59375 39.234375 62.25 
Q 35.15625 65.921875 28.609375 65.921875 
Q 23.96875 65.921875 18.8125 64.3125 
Q 13.671875 62.703125 7.8125 59.421875 
L 7.8125 69.390625 
Q 13.765625 71.78125 18.9375 73 
Q 24.125 74.21875 28.421875 74.21875 
Q 39.75 74.21875 46.484375 68.546875 
Q 53.21875 62.890625 53.21875 53.421875 
Q 53.21875 48.921875 51.53125 44.890625 
Q 49.859375 40.875 45.40625 35.40625 
Q 44.1875 33.984375 37.640625 27.21875 
Q 31.109375 20.453125 19.1875 8.296875 
z
" id="DejaVuSans-50"/>
       </defs>
       <use xlink:href="#DejaVuSans-50"/>
       <use x="63.623047" xlink:href="#DejaVuSans-48"/>
      </g>
     </g>
    </g>
    <g id="xtick_3">
     <g id="line2d_3">
      <g>
       <use style="stroke:#000000;stroke-width:0.8;" x="304.869975" xlink:href="#m62ba0d5be5" y="466.5024"/>
      </g>
     </g>
     <g id="text_3">
      <!-- 40 -->
      <g transform="translate(298.507475 481.100838)scale(0.1 -0.1)">
       <defs>
        <path d="M 37.796875 64.3125 
L 12.890625 25.390625 
L 37.796875 25.390625 
z
M 35.203125 72.90625 
L 47.609375 72.90625 
L 47.609375 25.390625 
L 58.015625 25.390625 
L 58.015625 17.1875 
L 47.609375 17.1875 
L 47.609375 0 
L 37.796875 0 
L 37.796875 17.1875 
L 4.890625 17.1875 
L 4.890625 26.703125 
z
" id="DejaVuSans-52"/>
       </defs>
       <use xlink:href="#DejaVuSans-52"/>
       <use x="63.623047" xlink:href="#DejaVuSans-48"/>
      </g>
     </g>
    </g>
    <g id="xtick_4">
     <g id="line2d_4">
      <g>
       <use style="stroke:#000000;stroke-width:0.8;" x="386.067917" xlink:href="#m62ba0d5be5" y="466.5024"/>
      </g>
     </g>
     <g id="text_4">
      <!-- 60 -->
      <g transform="translate(379.705417 481.100838)scale(0.1 -0.1)">
       <defs>
        <path d="M 33.015625 40.375 
Q 26.375 40.375 22.484375 35.828125 
Q 18.609375 31.296875 18.609375 23.390625 
Q 18.609375 15.53125 22.484375 10.953125 
Q 26.375 6.390625 33.015625 6.390625 
Q 39.65625 6.390625 43.53125 10.953125 
Q 47.40625 15.53125 47.40625 23.390625 
Q 47.40625 31.296875 43.53125 35.828125 
Q 39.65625 40.375 33.015625 40.375 
z
M 52.59375 71.296875 
L 52.59375 62.3125 
Q 48.875 64.0625 45.09375 64.984375 
Q 41.3125 65.921875 37.59375 65.921875 
Q 27.828125 65.921875 22.671875 59.328125 
Q 17.53125 52.734375 16.796875 39.40625 
Q 19.671875 43.65625 24.015625 45.921875 
Q 28.375 48.1875 33.59375 48.1875 
Q 44.578125 48.1875 50.953125 41.515625 
Q 57.328125 34.859375 57.328125 23.390625 
Q 57.328125 12.15625 50.6875 5.359375 
Q 44.046875 -1.421875 33.015625 -1.421875 
Q 20.359375 -1.421875 13.671875 8.265625 
Q 6.984375 17.96875 6.984375 36.375 
Q 6.984375 53.65625 15.1875 63.9375 
Q 23.390625 74.21875 37.203125 74.21875 
Q 40.921875 74.21875 44.703125 73.484375 
Q 48.484375 72.75 52.59375 71.296875 
z
" id="DejaVuSans-54"/>
       </defs>
       <use xlink:href="#DejaVuSans-54"/>
       <use x="63.623047" xlink:href="#DejaVuSans-48"/>
      </g>
     </g>
    </g>
    <g id="xtick_5">
     <g id="line2d_5">
      <g>
       <use style="stroke:#000000;stroke-width:0.8;" x="467.265859" xlink:href="#m62ba0d5be5" y="466.5024"/>
      </g>
     </g>
     <g id="text_5">
      <!-- 80 -->
      <g transform="translate(460.903359 481.100838)scale(0.1 -0.1)">
       <defs>
        <path d="M 31.78125 34.625 
Q 24.75 34.625 20.71875 30.859375 
Q 16.703125 27.09375 16.703125 20.515625 
Q 16.703125 13.921875 20.71875 10.15625 
Q 24.75 6.390625 31.78125 6.390625 
Q 38.8125 6.390625 42.859375 10.171875 
Q 46.921875 13.96875 46.921875 20.515625 
Q 46.921875 27.09375 42.890625 30.859375 
Q 38.875 34.625 31.78125 34.625 
z
M 21.921875 38.8125 
Q 15.578125 40.375 12.03125 44.71875 
Q 8.5 49.078125 8.5 55.328125 
Q 8.5 64.0625 14.71875 69.140625 
Q 20.953125 74.21875 31.78125 74.21875 
Q 42.671875 74.21875 48.875 69.140625 
Q 55.078125 64.0625 55.078125 55.328125 
Q 55.078125 49.078125 51.53125 44.71875 
Q 48 40.375 41.703125 38.8125 
Q 48.828125 37.15625 52.796875 32.3125 
Q 56.78125 27.484375 56.78125 20.515625 
Q 56.78125 9.90625 50.3125 4.234375 
Q 43.84375 -1.421875 31.78125 -1.421875 
Q 19.734375 -1.421875 13.25 4.234375 
Q 6.78125 9.90625 6.78125 20.515625 
Q 6.78125 27.484375 10.78125 32.3125 
Q 14.796875 37.15625 21.921875 38.8125 
z
M 18.3125 54.390625 
Q 18.3125 48.734375 21.84375 45.5625 
Q 25.390625 42.390625 31.78125 42.390625 
Q 38.140625 42.390625 41.71875 45.5625 
Q 45.3125 48.734375 45.3125 54.390625 
Q 45.3125 60.0625 41.71875 63.234375 
Q 38.140625 66.40625 31.78125 66.40625 
Q 25.390625 66.40625 21.84375 63.234375 
Q 18.3125 60.0625 18.3125 54.390625 
z
" id="DejaVuSans-56"/>
       </defs>
       <use xlink:href="#DejaVuSans-56"/>
       <use x="63.623047" xlink:href="#DejaVuSans-48"/>
      </g>
     </g>
    </g>
    <g id="xtick_6">
     <g id="line2d_6">
      <g>
       <use style="stroke:#000000;stroke-width:0.8;" x="548.463801" xlink:href="#m62ba0d5be5" y="466.5024"/>
      </g>
     </g>
     <g id="text_6">
      <!-- 100 -->
      <g transform="translate(538.920051 481.100838)scale(0.1 -0.1)">
       <defs>
        <path d="M 12.40625 8.296875 
L 28.515625 8.296875 
L 28.515625 63.921875 
L 10.984375 60.40625 
L 10.984375 69.390625 
L 28.421875 72.90625 
L 38.28125 72.90625 
L 38.28125 8.296875 
L 54.390625 8.296875 
L 54.390625 0 
L 12.40625 0 
z
" id="DejaVuSans-49"/>
       </defs>
       <use xlink:href="#DejaVuSans-49"/>
       <use x="63.623047" xlink:href="#DejaVuSans-48"/>
       <use x="127.246094" xlink:href="#DejaVuSans-48"/>
      </g>
     </g>
    </g>
    <g id="xtick_7">
     <g id="line2d_7">
      <g>
       <use style="stroke:#000000;stroke-width:0.8;" x="629.661743" xlink:href="#m62ba0d5be5" y="466.5024"/>
      </g>
     </g>
     <g id="text_7">
      <!-- 120 -->
      <g transform="translate(620.117993 481.100838)scale(0.1 -0.1)">
       <use xlink:href="#DejaVuSans-49"/>
       <use x="63.623047" xlink:href="#DejaVuSans-50"/>
       <use x="127.246094" xlink:href="#DejaVuSans-48"/>
      </g>
     </g>
    </g>
    <g id="xtick_8">
     <g id="line2d_8">
      <g>
       <use style="stroke:#000000;stroke-width:0.8;" x="710.859685" xlink:href="#m62ba0d5be5" y="466.5024"/>
      </g>
     </g>
     <g id="text_8">
      <!-- 140 -->
      <g transform="translate(701.315935 481.100838)scale(0.1 -0.1)">
       <use xlink:href="#DejaVuSans-49"/>
       <use x="63.623047" xlink:href="#DejaVuSans-52"/>
       <use x="127.246094" xlink:href="#DejaVuSans-48"/>
      </g>
     </g>
    </g>
    <g id="xtick_9">
     <g id="line2d_9">
      <g>
       <use style="stroke:#000000;stroke-width:0.8;" x="792.057628" xlink:href="#m62ba0d5be5" y="466.5024"/>
      </g>
     </g>
     <g id="text_9">
      <!-- 160 -->
      <g transform="translate(782.513878 481.100838)scale(0.1 -0.1)">
       <use xlink:href="#DejaVuSans-49"/>
       <use x="63.623047" xlink:href="#DejaVuSans-54"/>
       <use x="127.246094" xlink:href="#DejaVuSans-48"/>
      </g>
     </g>
    </g>
   </g>
   <g id="matplotlib.axis_2">
    <g id="ytick_1">
     <g id="line2d_10">
      <defs>
       <path d="M 0 0 
L -3.5 0 
" id="ma9ff5b50c9" style="stroke:#000000;stroke-width:0.8;"/>
      </defs>
      <g>
       <use style="stroke:#000000;stroke-width:0.8;" x="111.15" xlink:href="#ma9ff5b50c9" y="448.1568"/>
      </g>
     </g>
     <g id="text_10">
      <!-- 0.0000 -->
      <g transform="translate(69.159375 451.956019)scale(0.1 -0.1)">
       <defs>
        <path d="M 10.6875 12.40625 
L 21 12.40625 
L 21 0 
L 10.6875 0 
z
" id="DejaVuSans-46"/>
       </defs>
       <use xlink:href="#DejaVuSans-48"/>
       <use x="63.623047" xlink:href="#DejaVuSans-46"/>
       <use x="95.410156" xlink:href="#DejaVuSans-48"/>
       <use x="159.033203" xlink:href="#DejaVuSans-48"/>
       <use x="222.65625" xlink:href="#DejaVuSans-48"/>
       <use x="286.279297" xlink:href="#DejaVuSans-48"/>
      </g>
     </g>
    </g>
    <g id="ytick_2">
     <g id="line2d_11">
      <g>
       <use style="stroke:#000000;stroke-width:0.8;" x="111.15" xlink:href="#ma9ff5b50c9" y="392.248259"/>
      </g>
     </g>
     <g id="text_11">
      <!-- 0.0025 -->
      <g transform="translate(69.159375 396.047477)scale(0.1 -0.1)">
       <defs>
        <path d="M 10.796875 72.90625 
L 49.515625 72.90625 
L 49.515625 64.59375 
L 19.828125 64.59375 
L 19.828125 46.734375 
Q 21.96875 47.46875 24.109375 47.828125 
Q 26.265625 48.1875 28.421875 48.1875 
Q 40.625 48.1875 47.75 41.5 
Q 54.890625 34.8125 54.890625 23.390625 
Q 54.890625 11.625 47.5625 5.09375 
Q 40.234375 -1.421875 26.90625 -1.421875 
Q 22.3125 -1.421875 17.546875 -0.640625 
Q 12.796875 0.140625 7.71875 1.703125 
L 7.71875 11.625 
Q 12.109375 9.234375 16.796875 8.0625 
Q 21.484375 6.890625 26.703125 6.890625 
Q 35.15625 6.890625 40.078125 11.328125 
Q 45.015625 15.765625 45.015625 23.390625 
Q 45.015625 31 40.078125 35.4375 
Q 35.15625 39.890625 26.703125 39.890625 
Q 22.75 39.890625 18.8125 39.015625 
Q 14.890625 38.140625 10.796875 36.28125 
z
" id="DejaVuSans-53"/>
       </defs>
       <use xlink:href="#DejaVuSans-48"/>
       <use x="63.623047" xlink:href="#DejaVuSans-46"/>
       <use x="95.410156" xlink:href="#DejaVuSans-48"/>
       <use x="159.033203" xlink:href="#DejaVuSans-48"/>
       <use x="222.65625" xlink:href="#DejaVuSans-50"/>
       <use x="286.279297" xlink:href="#DejaVuSans-53"/>
      </g>
     </g>
    </g>
    <g id="ytick_3">
     <g id="line2d_12">
      <g>
       <use style="stroke:#000000;stroke-width:0.8;" x="111.15" xlink:href="#ma9ff5b50c9" y="336.339717"/>
      </g>
     </g>
     <g id="text_12">
      <!-- 0.0050 -->
      <g transform="translate(69.159375 340.138936)scale(0.1 -0.1)">
       <use xlink:href="#DejaVuSans-48"/>
       <use x="63.623047" xlink:href="#DejaVuSans-46"/>
       <use x="95.410156" xlink:href="#DejaVuSans-48"/>
       <use x="159.033203" xlink:href="#DejaVuSans-48"/>
       <use x="222.65625" xlink:href="#DejaVuSans-53"/>
       <use x="286.279297" xlink:href="#DejaVuSans-48"/>
      </g>
     </g>
    </g>
    <g id="ytick_4">
     <g id="line2d_13">
      <g>
       <use style="stroke:#000000;stroke-width:0.8;" x="111.15" xlink:href="#ma9ff5b50c9" y="280.431176"/>
      </g>
     </g>
     <g id="text_13">
      <!-- 0.0075 -->
      <g transform="translate(69.159375 284.230394)scale(0.1 -0.1)">
       <defs>
        <path d="M 8.203125 72.90625 
L 55.078125 72.90625 
L 55.078125 68.703125 
L 28.609375 0 
L 18.3125 0 
L 43.21875 64.59375 
L 8.203125 64.59375 
z
" id="DejaVuSans-55"/>
       </defs>
       <use xlink:href="#DejaVuSans-48"/>
       <use x="63.623047" xlink:href="#DejaVuSans-46"/>
       <use x="95.410156" xlink:href="#DejaVuSans-48"/>
       <use x="159.033203" xlink:href="#DejaVuSans-48"/>
       <use x="222.65625" xlink:href="#DejaVuSans-55"/>
       <use x="286.279297" xlink:href="#DejaVuSans-53"/>
      </g>
     </g>
    </g>
    <g id="ytick_5">
     <g id="line2d_14">
      <g>
       <use style="stroke:#000000;stroke-width:0.8;" x="111.15" xlink:href="#ma9ff5b50c9" y="224.522634"/>
      </g>
     </g>
     <g id="text_14">
      <!-- 0.0100 -->
      <g transform="translate(69.159375 228.321853)scale(0.1 -0.1)">
       <use xlink:href="#DejaVuSans-48"/>
       <use x="63.623047" xlink:href="#DejaVuSans-46"/>
       <use x="95.410156" xlink:href="#DejaVuSans-48"/>
       <use x="159.033203" xlink:href="#DejaVuSans-49"/>
       <use x="222.65625" xlink:href="#DejaVuSans-48"/>
       <use x="286.279297" xlink:href="#DejaVuSans-48"/>
      </g>
     </g>
    </g>
    <g id="ytick_6">
     <g id="line2d_15">
      <g>
       <use style="stroke:#000000;stroke-width:0.8;" x="111.15" xlink:href="#ma9ff5b50c9" y="168.614093"/>
      </g>
     </g>
     <g id="text_15">
      <!-- 0.0125 -->
      <g transform="translate(69.159375 172.413312)scale(0.1 -0.1)">
       <use xlink:href="#DejaVuSans-48"/>
       <use x="63.623047" xlink:href="#DejaVuSans-46"/>
       <use x="95.410156" xlink:href="#DejaVuSans-48"/>
       <use x="159.033203" xlink:href="#DejaVuSans-49"/>
       <use x="222.65625" xlink:href="#DejaVuSans-50"/>
       <use x="286.279297" xlink:href="#DejaVuSans-53"/>
      </g>
     </g>
    </g>
    <g id="ytick_7">
     <g id="line2d_16">
      <g>
       <use style="stroke:#000000;stroke-width:0.8;" x="111.15" xlink:href="#ma9ff5b50c9" y="112.705551"/>
      </g>
     </g>
     <g id="text_16">
      <!-- 0.0150 -->
      <g transform="translate(69.159375 116.50477)scale(0.1 -0.1)">
       <use xlink:href="#DejaVuSans-48"/>
       <use x="63.623047" xlink:href="#DejaVuSans-46"/>
       <use x="95.410156" xlink:href="#DejaVuSans-48"/>
       <use x="159.033203" xlink:href="#DejaVuSans-49"/>
       <use x="222.65625" xlink:href="#DejaVuSans-53"/>
       <use x="286.279297" xlink:href="#DejaVuSans-48"/>
      </g>
     </g>
    </g>
   </g>
   <g id="line2d_17">
    <path clip-path="url(#pe08472aa3c)" d="M 142.474091 448.1568 
L 218.354271 448.091719 
L 218.98138 448.02064 
L 219.608489 447.818136 
L 220.235598 447.296348 
L 220.862707 446.192299 
L 222.116925 442.790402 
L 222.744034 442.59971 
L 224.62536 447.439085 
L 225.252469 447.901729 
L 225.879578 448.0352 
L 227.133796 447.997271 
L 228.388014 447.689748 
L 229.015123 447.253795 
L 229.642232 446.194875 
L 230.269341 443.373008 
L 230.89645 437.084249 
L 232.150667 417.935785 
L 232.777776 411.381396 
L 233.404885 408.250169 
L 234.031994 406.765829 
L 234.659103 404.181575 
L 235.286212 400.381253 
L 235.913321 398.954709 
L 236.54043 400.914684 
L 237.167539 405.725931 
L 240.303084 437.677136 
L 240.930192 441.469448 
L 241.557301 443.430123 
L 242.18441 444.13052 
L 242.811519 444.035028 
L 243.438628 443.501469 
L 244.065737 442.69269 
L 244.692846 441.689106 
L 245.319955 440.428672 
L 245.947064 438.640482 
L 246.574173 435.595798 
L 247.828391 425.64217 
L 248.4555 422.721447 
L 249.082609 423.580175 
L 250.336826 431.736153 
L 250.963935 433.537398 
L 251.591044 431.514049 
L 252.218153 424.448814 
L 252.845262 411.087221 
L 253.472371 393.762256 
L 254.09948 380.647125 
L 254.726589 377.890339 
L 255.353698 385.47747 
L 256.607916 409.584512 
L 257.235025 418.310767 
L 257.862133 423.27273 
L 258.489242 425.255631 
L 260.997678 429.354096 
L 261.624787 429.919553 
L 262.251896 429.828353 
L 262.879005 428.142295 
L 263.506114 425.354872 
L 264.133223 423.659599 
L 264.760332 424.963646 
L 266.641658 435.206361 
L 267.268767 436.341448 
L 267.895876 436.581238 
L 268.522985 436.533814 
L 269.150094 436.704783 
L 269.777203 437.466296 
L 272.285639 443.079493 
L 272.912748 444.009953 
L 273.539857 444.54095 
L 274.166966 444.522566 
L 274.794075 443.930471 
L 275.421183 443.04118 
L 276.048292 442.397268 
L 276.675401 442.48315 
L 279.810946 446.075339 
L 280.438055 446.737594 
L 281.065164 447.229579 
L 281.692273 447.514693 
L 282.946491 447.687521 
L 294.86156 448.131497 
L 313.674828 448.156752 
L 382.65681 448.051233 
L 393.944771 448.04976 
L 402.724296 448.144691 
L 421.537563 448.030616 
L 429.062871 447.675566 
L 435.961069 447.872801 
L 437.842396 447.766535 
L 438.469505 448.156247 
L 439.096613 447.755546 
L 440.97794 447.839279 
L 441.605049 448.156279 
L 442.232158 447.906793 
L 445.367703 447.928295 
L 445.994812 448.155309 
L 446.621921 448.154986 
L 447.249029 448.018886 
L 450.384574 448.118597 
L 469.824951 448.007664 
L 471.079169 447.854512 
L 472.333387 447.514654 
L 473.587604 446.855561 
L 474.214713 446.334933 
L 474.841822 445.659055 
L 476.09604 443.816477 
L 476.723149 442.619141 
L 477.350258 441.124889 
L 477.977367 439.04843 
L 478.604476 436.00788 
L 479.231585 431.70849 
L 479.858694 425.694528 
L 480.485803 417.164353 
L 481.112912 404.825684 
L 481.74002 386.445678 
L 482.367129 357.168765 
L 482.994238 312.666425 
L 484.875565 129.81633 
L 485.502674 92.024107 
L 486.129783 81.2448 
L 486.756892 96.866321 
L 487.384001 131.992771 
L 488.638219 219.452538 
L 489.265328 250.633518 
L 489.892437 267.095833 
L 490.519545 274.021824 
L 491.146654 283.353359 
L 491.773763 300.989207 
L 493.027981 359.590703 
L 493.65509 388.065503 
L 494.282199 409.524704 
L 494.909308 424.146128 
L 495.536417 433.224533 
L 496.163526 438.517868 
L 496.790635 441.585815 
L 497.417744 443.375812 
L 498.044853 444.371208 
L 498.671962 444.866678 
L 499.926179 445.174899 
L 501.180397 445.518879 
L 502.434615 446.216898 
L 503.688833 447.043712 
L 504.315942 447.336183 
L 505.57016 447.529163 
L 506.824378 447.450729 
L 508.078595 447.19862 
L 509.959922 446.7329 
L 511.841249 446.490889 
L 513.095467 446.531192 
L 514.976794 446.717312 
L 515.603903 446.646869 
L 516.231011 446.450987 
L 516.85812 446.073767 
L 517.485229 445.447041 
L 518.112338 444.550181 
L 519.366556 442.356337 
L 519.993665 441.616164 
L 520.620774 441.505256 
L 521.247883 442.053072 
L 524.383428 446.248003 
L 525.010536 446.750299 
L 526.264754 447.343981 
L 527.518972 447.581601 
L 529.400299 447.601092 
L 530.654517 447.360724 
L 531.281626 447.037486 
L 531.908735 446.433833 
L 532.535844 445.442178 
L 534.41717 441.365979 
L 535.044279 440.788885 
L 535.671388 440.838086 
L 536.925606 441.604348 
L 537.552715 441.802793 
L 538.179824 441.791013 
L 538.806933 441.531372 
L 539.434042 440.976585 
L 540.061151 440.044633 
L 540.68826 438.60878 
L 541.315369 436.507628 
L 541.942477 433.666359 
L 542.569586 430.00439 
L 543.196695 425.374712 
L 543.823804 419.580938 
L 544.450913 412.208806 
L 545.078022 402.210231 
L 545.705131 388.781837 
L 548.213567 324.05092 
L 548.840676 313.023007 
L 549.467785 306.643025 
L 550.094894 306.28326 
L 550.722002 312.525806 
L 551.349111 325.243702 
L 553.230438 369.163954 
L 554.484656 391.016375 
L 555.111765 399.236567 
L 555.738874 405.761153 
L 556.365983 410.756311 
L 556.993092 414.083678 
L 557.620201 416.250215 
L 558.24731 417.454628 
L 558.874419 417.852604 
L 560.755745 417.561189 
L 561.382854 417.819116 
L 562.009963 418.459152 
L 562.637072 419.643959 
L 564.518399 424.157279 
L 565.145508 425.343082 
L 565.772617 426.179523 
L 566.399726 426.660002 
L 567.026835 426.795449 
L 567.653943 426.617294 
L 570.162379 424.729059 
L 570.789488 424.31538 
L 571.416597 423.422683 
L 572.043706 421.396738 
L 572.670815 417.569348 
L 573.297924 411.795832 
L 573.925033 404.050999 
L 575.80636 376.686338 
L 576.433468 370.302978 
L 577.060577 365.666045 
L 577.687686 363.117849 
L 578.314795 362.814531 
L 578.941904 364.734848 
L 579.569013 369.303972 
L 580.196122 376.369219 
L 582.077449 402.209259 
L 582.704558 409.026127 
L 583.331667 413.796344 
L 583.958776 416.382933 
L 584.585885 416.631731 
L 585.212993 414.942501 
L 585.840102 411.624391 
L 586.467211 406.817914 
L 587.09432 400.518521 
L 588.348538 384.541497 
L 590.229865 359.753202 
L 590.856974 353.775673 
L 591.484083 350.244347 
L 592.111192 349.75264 
L 592.738301 352.106582 
L 593.992518 361.424106 
L 595.246736 371.979623 
L 595.873845 376.353234 
L 596.500954 379.697889 
L 597.128063 382.055409 
L 597.755172 383.392814 
L 598.382281 383.896591 
L 599.00939 383.668888 
L 599.636499 383.045468 
L 600.890717 381.334563 
L 601.517826 381.036079 
L 602.144934 381.13156 
L 602.772043 381.697863 
L 603.399152 382.969547 
L 604.026261 384.624969 
L 605.280479 388.7774 
L 606.534697 393.152679 
L 607.161806 395.015529 
L 607.788915 396.276258 
L 608.416024 397.119232 
L 609.043133 397.480012 
L 609.670242 397.324169 
L 610.297351 396.743046 
L 611.551568 394.575693 
L 614.687113 388.160537 
L 615.314222 387.092866 
L 616.56844 384.542128 
L 617.195549 383.644095 
L 617.822658 383.494408 
L 618.449767 384.420442 
L 619.076876 386.618494 
L 621.585311 398.404067 
L 622.21242 400.129226 
L 625.975074 407.44712 
L 627.229292 409.95265 
L 627.8564 410.874656 
L 628.483509 411.526006 
L 629.110618 411.806965 
L 629.737727 411.651944 
L 630.364836 411.086762 
L 631.619054 409.124989 
L 632.873272 406.950471 
L 633.500381 406.101185 
L 634.12749 405.493298 
L 634.754599 405.041685 
L 635.381708 404.909052 
L 636.008817 404.906544 
L 640.398579 405.883836 
L 641.652797 405.657737 
L 642.279906 405.440262 
L 643.534124 404.72162 
L 644.788342 403.618516 
L 646.042559 402.180521 
L 649.805213 397.442638 
L 651.059431 396.373425 
L 651.68654 396.140819 
L 652.313649 396.056751 
L 652.940758 396.182126 
L 653.567867 396.438102 
L 654.822084 397.294762 
L 657.33052 399.396701 
L 658.584738 400.598619 
L 659.838956 402.062511 
L 661.093174 403.937959 
L 662.9745 406.98975 
L 663.601609 407.760727 
L 664.228718 408.276975 
L 664.855827 408.55694 
L 665.482936 408.701867 
L 666.737154 408.642178 
L 667.991372 408.224335 
L 669.24559 407.574894 
L 671.126916 406.381032 
L 673.635352 404.798209 
L 674.88957 404.237682 
L 676.143788 404.059341 
L 677.398006 404.288408 
L 679.279333 405.050851 
L 683.669095 407.153859 
L 685.550422 407.772297 
L 688.058857 408.558865 
L 689.940184 409.477239 
L 694.957056 412.264456 
L 698.0926 413.615396 
L 699.973927 414.279815 
L 702.482363 415.005588 
L 706.245016 415.815872 
L 710.00767 416.392114 
L 713.770324 416.809633 
L 720.041413 417.278301 
L 736.346245 417.77633 
L 743.244443 417.836438 
L 760.803493 417.886638 
L 765.820364 417.899195 
L 768.955909 417.900527 
L 768.955909 417.900527 
" style="fill:none;stroke:#1f77b4;stroke-linecap:square;stroke-width:1.5;"/>
   </g>
   <g id="patch_3">
    <path d="M 111.15 466.5024 
L 111.15 62.8992 
" style="fill:none;stroke:#000000;stroke-linecap:square;stroke-linejoin:miter;stroke-width:0.8;"/>
   </g>
   <g id="patch_4">
    <path d="M 800.28 466.5024 
L 800.28 62.8992 
" style="fill:none;stroke:#000000;stroke-linecap:square;stroke-linejoin:miter;stroke-width:0.8;"/>
   </g>
   <g id="patch_5">
    <path d="M 111.15 466.5024 
L 800.28 466.5024 
" style="fill:none;stroke:#000000;stroke-linecap:square;stroke-linejoin:miter;stroke-width:0.8;"/>
   </g>
   <g id="patch_6">
    <path d="M 111.15 62.8992 
L 800.28 62.8992 
" style="fill:none;stroke:#000000;stroke-linecap:square;stroke-linejoin:miter;stroke-width:0.8;"/>
   </g>
   <g id="text_17">
    <!-- 22.7 -->
    <g transform="translate(234.633755 396.720942)scale(0.1 -0.1)">
     <use xlink:href="#DejaVuSans-50"/>
     <use x="63.623047" xlink:href="#DejaVuSans-50"/>
     <use x="127.246094" xlink:href="#DejaVuSans-46"/>
     <use x="159.033203" xlink:href="#DejaVuSans-55"/>
    </g>
   </g>
   <g id="text_18">
    <!-- 28.2 -->
    <g transform="translate(256.963189 374.357525)scale(0.1 -0.1)">
     <use xlink:href="#DejaVuSans-50"/>
     <use x="63.623047" xlink:href="#DejaVuSans-56"/>
     <use x="127.246094" xlink:href="#DejaVuSans-46"/>
     <use x="159.033203" xlink:href="#DejaVuSans-50"/>
    </g>
   </g>
   <g id="text_19">
    <!-- 84.7 -->
    <g transform="translate(486.347376 67.978718)scale(0.1 -0.1)">
     <use xlink:href="#DejaVuSans-56"/>
     <use x="63.623047" xlink:href="#DejaVuSans-52"/>
     <use x="127.246094" xlink:href="#DejaVuSans-46"/>
     <use x="159.033203" xlink:href="#DejaVuSans-55"/>
    </g>
   </g>
   <g id="text_20">
    <!-- 3C120 -->
    <g transform="translate(436.255313 56.8992)scale(0.12 -0.12)">
     <defs>
      <path d="M 40.578125 39.3125 
Q 47.65625 37.796875 51.625 33 
Q 55.609375 28.21875 55.609375 21.1875 
Q 55.609375 10.40625 48.1875 4.484375 
Q 40.765625 -1.421875 27.09375 -1.421875 
Q 22.515625 -1.421875 17.65625 -0.515625 
Q 12.796875 0.390625 7.625 2.203125 
L 7.625 11.71875 
Q 11.71875 9.328125 16.59375 8.109375 
Q 21.484375 6.890625 26.8125 6.890625 
Q 36.078125 6.890625 40.9375 10.546875 
Q 45.796875 14.203125 45.796875 21.1875 
Q 45.796875 27.640625 41.28125 31.265625 
Q 36.765625 34.90625 28.71875 34.90625 
L 20.21875 34.90625 
L 20.21875 43.015625 
L 29.109375 43.015625 
Q 36.375 43.015625 40.234375 45.921875 
Q 44.09375 48.828125 44.09375 54.296875 
Q 44.09375 59.90625 40.109375 62.90625 
Q 36.140625 65.921875 28.71875 65.921875 
Q 24.65625 65.921875 20.015625 65.03125 
Q 15.375 64.15625 9.8125 62.3125 
L 9.8125 71.09375 
Q 15.4375 72.65625 20.34375 73.4375 
Q 25.25 74.21875 29.59375 74.21875 
Q 40.828125 74.21875 47.359375 69.109375 
Q 53.90625 64.015625 53.90625 55.328125 
Q 53.90625 49.265625 50.4375 45.09375 
Q 46.96875 40.921875 40.578125 39.3125 
z
" id="DejaVuSans-51"/>
      <path d="M 64.40625 67.28125 
L 64.40625 56.890625 
Q 59.421875 61.53125 53.78125 63.8125 
Q 48.140625 66.109375 41.796875 66.109375 
Q 29.296875 66.109375 22.65625 58.46875 
Q 16.015625 50.828125 16.015625 36.375 
Q 16.015625 21.96875 22.65625 14.328125 
Q 29.296875 6.6875 41.796875 6.6875 
Q 48.140625 6.6875 53.78125 8.984375 
Q 59.421875 11.28125 64.40625 15.921875 
L 64.40625 5.609375 
Q 59.234375 2.09375 53.4375 0.328125 
Q 47.65625 -1.421875 41.21875 -1.421875 
Q 24.65625 -1.421875 15.125 8.703125 
Q 5.609375 18.84375 5.609375 36.375 
Q 5.609375 53.953125 15.125 64.078125 
Q 24.65625 74.21875 41.21875 74.21875 
Q 47.75 74.21875 53.53125 72.484375 
Q 59.328125 70.75 64.40625 67.28125 
z
" id="DejaVuSans-67"/>
     </defs>
     <use xlink:href="#DejaVuSans-51"/>
     <use x="63.623047" xlink:href="#DejaVuSans-67"/>
     <use x="133.447266" xlink:href="#DejaVuSans-49"/>
     <use x="197.070312" xlink:href="#DejaVuSans-50"/>
     <use x="260.693359" xlink:href="#DejaVuSans-48"/>
    </g>
   </g>
  </g>
 </g>
 <defs>
  <clipPath id="pe08472aa3c">
   <rect height="403.6032" width="689.13" x="111.15" y="62.8992"/>
  </clipPath>
 </defs>
</svg>
