<?xml version="1.0" encoding="utf-8" standalone="no"?>
<!DOCTYPE svg PUBLIC "-//W3C//DTD SVG 1.1//EN"
  "http://www.w3.org/Graphics/SVG/1.1/DTD/svg11.dtd">
<!-- Created with matplotlib (https://matplotlib.org/) -->
<svg height="524.16pt" version="1.1" viewBox="0 0 889.2 524.16" width="889.2pt" xmlns="http://www.w3.org/2000/svg" xmlns:xlink="http://www.w3.org/1999/xlink">
 <metadata>
  <rdf:RDF xmlns:cc="http://creativecommons.org/ns#" xmlns:dc="http://purl.org/dc/elements/1.1/" xmlns:rdf="http://www.w3.org/1999/02/22-rdf-syntax-ns#">
   <cc:Work>
    <dc:type rdf:resource="http://purl.org/dc/dcmitype/StillImage"/>
    <dc:date>2022-03-05T22:39:58.867174</dc:date>
    <dc:format>image/svg+xml</dc:format>
    <dc:creator>
     <cc:Agent>
      <dc:title>Matplotlib v3.3.4, https://matplotlib.org/</dc:title>
     </cc:Agent>
    </dc:creator>
   </cc:Work>
  </rdf:RDF>
 </metadata>
 <defs>
  <style type="text/css">*{stroke-linecap:butt;stroke-linejoin:round;}</style>
 </defs>
 <g id="figure_1">
  <g id="patch_1">
   <path d="M 0 524.16 
L 889.2 524.16 
L 889.2 0 
L 0 0 
z
" style="fill:#ffffff;"/>
  </g>
  <g id="axes_1">
   <g id="patch_2">
    <path d="M 111.15 466.5024 
L 800.28 466.5024 
L 800.28 62.8992 
L 111.15 62.8992 
z
" style="fill:#ffffff;"/>
   </g>
   <g id="matplotlib.axis_1">
    <g id="xtick_1">
     <g id="line2d_1">
      <defs>
       <path d="M 0 0 
L 0 3.5 
" id="m94611d462a" style="stroke:#000000;stroke-width:0.8;"/>
      </defs>
      <g>
       <use style="stroke:#000000;stroke-width:0.8;" x="142.474091" xlink:href="#m94611d462a" y="466.5024"/>
      </g>
     </g>
     <g id="text_1">
      <!-- 0 -->
      <g transform="translate(139.292841 481.100838)scale(0.1 -0.1)">
       <defs>
        <path d="M 31.78125 66.40625 
Q 24.171875 66.40625 20.328125 58.90625 
Q 16.5 51.421875 16.5 36.375 
Q 16.5 21.390625 20.328125 13.890625 
Q 24.171875 6.390625 31.78125 6.390625 
Q 39.453125 6.390625 43.28125 13.890625 
Q 47.125 21.390625 47.125 36.375 
Q 47.125 51.421875 43.28125 58.90625 
Q 39.453125 66.40625 31.78125 66.40625 
z
M 31.78125 74.21875 
Q 44.046875 74.21875 50.515625 64.515625 
Q 56.984375 54.828125 56.984375 36.375 
Q 56.984375 17.96875 50.515625 8.265625 
Q 44.046875 -1.421875 31.78125 -1.421875 
Q 19.53125 -1.421875 13.0625 8.265625 
Q 6.59375 17.96875 6.59375 36.375 
Q 6.59375 54.828125 13.0625 64.515625 
Q 19.53125 74.21875 31.78125 74.21875 
z
" id="DejaVuSans-48"/>
       </defs>
       <use xlink:href="#DejaVuSans-48"/>
      </g>
     </g>
    </g>
    <g id="xtick_2">
     <g id="line2d_2">
      <g>
       <use style="stroke:#000000;stroke-width:0.8;" x="228.004076" xlink:href="#m94611d462a" y="466.5024"/>
      </g>
     </g>
     <g id="text_2">
      <!-- 20 -->
      <g transform="translate(221.641576 481.100838)scale(0.1 -0.1)">
       <defs>
        <path d="M 19.1875 8.296875 
L 53.609375 8.296875 
L 53.609375 0 
L 7.328125 0 
L 7.328125 8.296875 
Q 12.9375 14.109375 22.625 23.890625 
Q 32.328125 33.6875 34.8125 36.53125 
Q 39.546875 41.84375 41.421875 45.53125 
Q 43.3125 49.21875 43.3125 52.78125 
Q 43.3125 58.59375 39.234375 62.25 
Q 35.15625 65.921875 28.609375 65.921875 
Q 23.96875 65.921875 18.8125 64.3125 
Q 13.671875 62.703125 7.8125 59.421875 
L 7.8125 69.390625 
Q 13.765625 71.78125 18.9375 73 
Q 24.125 74.21875 28.421875 74.21875 
Q 39.75 74.21875 46.484375 68.546875 
Q 53.21875 62.890625 53.21875 53.421875 
Q 53.21875 48.921875 51.53125 44.890625 
Q 49.859375 40.875 45.40625 35.40625 
Q 44.1875 33.984375 37.640625 27.21875 
Q 31.109375 20.453125 19.1875 8.296875 
z
" id="DejaVuSans-50"/>
       </defs>
       <use xlink:href="#DejaVuSans-50"/>
       <use x="63.623047" xlink:href="#DejaVuSans-48"/>
      </g>
     </g>
    </g>
    <g id="xtick_3">
     <g id="line2d_3">
      <g>
       <use style="stroke:#000000;stroke-width:0.8;" x="313.534061" xlink:href="#m94611d462a" y="466.5024"/>
      </g>
     </g>
     <g id="text_3">
      <!-- 40 -->
      <g transform="translate(307.171561 481.100838)scale(0.1 -0.1)">
       <defs>
        <path d="M 37.796875 64.3125 
L 12.890625 25.390625 
L 37.796875 25.390625 
z
M 35.203125 72.90625 
L 47.609375 72.90625 
L 47.609375 25.390625 
L 58.015625 25.390625 
L 58.015625 17.1875 
L 47.609375 17.1875 
L 47.609375 0 
L 37.796875 0 
L 37.796875 17.1875 
L 4.890625 17.1875 
L 4.890625 26.703125 
z
" id="DejaVuSans-52"/>
       </defs>
       <use xlink:href="#DejaVuSans-52"/>
       <use x="63.623047" xlink:href="#DejaVuSans-48"/>
      </g>
     </g>
    </g>
    <g id="xtick_4">
     <g id="line2d_4">
      <g>
       <use style="stroke:#000000;stroke-width:0.8;" x="399.064046" xlink:href="#m94611d462a" y="466.5024"/>
      </g>
     </g>
     <g id="text_4">
      <!-- 60 -->
      <g transform="translate(392.701546 481.100838)scale(0.1 -0.1)">
       <defs>
        <path d="M 33.015625 40.375 
Q 26.375 40.375 22.484375 35.828125 
Q 18.609375 31.296875 18.609375 23.390625 
Q 18.609375 15.53125 22.484375 10.953125 
Q 26.375 6.390625 33.015625 6.390625 
Q 39.65625 6.390625 43.53125 10.953125 
Q 47.40625 15.53125 47.40625 23.390625 
Q 47.40625 31.296875 43.53125 35.828125 
Q 39.65625 40.375 33.015625 40.375 
z
M 52.59375 71.296875 
L 52.59375 62.3125 
Q 48.875 64.0625 45.09375 64.984375 
Q 41.3125 65.921875 37.59375 65.921875 
Q 27.828125 65.921875 22.671875 59.328125 
Q 17.53125 52.734375 16.796875 39.40625 
Q 19.671875 43.65625 24.015625 45.921875 
Q 28.375 48.1875 33.59375 48.1875 
Q 44.578125 48.1875 50.953125 41.515625 
Q 57.328125 34.859375 57.328125 23.390625 
Q 57.328125 12.15625 50.6875 5.359375 
Q 44.046875 -1.421875 33.015625 -1.421875 
Q 20.359375 -1.421875 13.671875 8.265625 
Q 6.984375 17.96875 6.984375 36.375 
Q 6.984375 53.65625 15.1875 63.9375 
Q 23.390625 74.21875 37.203125 74.21875 
Q 40.921875 74.21875 44.703125 73.484375 
Q 48.484375 72.75 52.59375 71.296875 
z
" id="DejaVuSans-54"/>
       </defs>
       <use xlink:href="#DejaVuSans-54"/>
       <use x="63.623047" xlink:href="#DejaVuSans-48"/>
      </g>
     </g>
    </g>
    <g id="xtick_5">
     <g id="line2d_5">
      <g>
       <use style="stroke:#000000;stroke-width:0.8;" x="484.594031" xlink:href="#m94611d462a" y="466.5024"/>
      </g>
     </g>
     <g id="text_5">
      <!-- 80 -->
      <g transform="translate(478.231531 481.100838)scale(0.1 -0.1)">
       <defs>
        <path d="M 31.78125 34.625 
Q 24.75 34.625 20.71875 30.859375 
Q 16.703125 27.09375 16.703125 20.515625 
Q 16.703125 13.921875 20.71875 10.15625 
Q 24.75 6.390625 31.78125 6.390625 
Q 38.8125 6.390625 42.859375 10.171875 
Q 46.921875 13.96875 46.921875 20.515625 
Q 46.921875 27.09375 42.890625 30.859375 
Q 38.875 34.625 31.78125 34.625 
z
M 21.921875 38.8125 
Q 15.578125 40.375 12.03125 44.71875 
Q 8.5 49.078125 8.5 55.328125 
Q 8.5 64.0625 14.71875 69.140625 
Q 20.953125 74.21875 31.78125 74.21875 
Q 42.671875 74.21875 48.875 69.140625 
Q 55.078125 64.0625 55.078125 55.328125 
Q 55.078125 49.078125 51.53125 44.71875 
Q 48 40.375 41.703125 38.8125 
Q 48.828125 37.15625 52.796875 32.3125 
Q 56.78125 27.484375 56.78125 20.515625 
Q 56.78125 9.90625 50.3125 4.234375 
Q 43.84375 -1.421875 31.78125 -1.421875 
Q 19.734375 -1.421875 13.25 4.234375 
Q 6.78125 9.90625 6.78125 20.515625 
Q 6.78125 27.484375 10.78125 32.3125 
Q 14.796875 37.15625 21.921875 38.8125 
z
M 18.3125 54.390625 
Q 18.3125 48.734375 21.84375 45.5625 
Q 25.390625 42.390625 31.78125 42.390625 
Q 38.140625 42.390625 41.71875 45.5625 
Q 45.3125 48.734375 45.3125 54.390625 
Q 45.3125 60.0625 41.71875 63.234375 
Q 38.140625 66.40625 31.78125 66.40625 
Q 25.390625 66.40625 21.84375 63.234375 
Q 18.3125 60.0625 18.3125 54.390625 
z
" id="DejaVuSans-56"/>
       </defs>
       <use xlink:href="#DejaVuSans-56"/>
       <use x="63.623047" xlink:href="#DejaVuSans-48"/>
      </g>
     </g>
    </g>
    <g id="xtick_6">
     <g id="line2d_6">
      <g>
       <use style="stroke:#000000;stroke-width:0.8;" x="570.124016" xlink:href="#m94611d462a" y="466.5024"/>
      </g>
     </g>
     <g id="text_6">
      <!-- 100 -->
      <g transform="translate(560.580266 481.100838)scale(0.1 -0.1)">
       <defs>
        <path d="M 12.40625 8.296875 
L 28.515625 8.296875 
L 28.515625 63.921875 
L 10.984375 60.40625 
L 10.984375 69.390625 
L 28.421875 72.90625 
L 38.28125 72.90625 
L 38.28125 8.296875 
L 54.390625 8.296875 
L 54.390625 0 
L 12.40625 0 
z
" id="DejaVuSans-49"/>
       </defs>
       <use xlink:href="#DejaVuSans-49"/>
       <use x="63.623047" xlink:href="#DejaVuSans-48"/>
       <use x="127.246094" xlink:href="#DejaVuSans-48"/>
      </g>
     </g>
    </g>
    <g id="xtick_7">
     <g id="line2d_7">
      <g>
       <use style="stroke:#000000;stroke-width:0.8;" x="655.654001" xlink:href="#m94611d462a" y="466.5024"/>
      </g>
     </g>
     <g id="text_7">
      <!-- 120 -->
      <g transform="translate(646.110251 481.100838)scale(0.1 -0.1)">
       <use xlink:href="#DejaVuSans-49"/>
       <use x="63.623047" xlink:href="#DejaVuSans-50"/>
       <use x="127.246094" xlink:href="#DejaVuSans-48"/>
      </g>
     </g>
    </g>
    <g id="xtick_8">
     <g id="line2d_8">
      <g>
       <use style="stroke:#000000;stroke-width:0.8;" x="741.183986" xlink:href="#m94611d462a" y="466.5024"/>
      </g>
     </g>
     <g id="text_8">
      <!-- 140 -->
      <g transform="translate(731.640236 481.100838)scale(0.1 -0.1)">
       <use xlink:href="#DejaVuSans-49"/>
       <use x="63.623047" xlink:href="#DejaVuSans-52"/>
       <use x="127.246094" xlink:href="#DejaVuSans-48"/>
      </g>
     </g>
    </g>
   </g>
   <g id="matplotlib.axis_2">
    <g id="ytick_1">
     <g id="line2d_9">
      <defs>
       <path d="M 0 0 
L -3.5 0 
" id="mf50810e405" style="stroke:#000000;stroke-width:0.8;"/>
      </defs>
      <g>
       <use style="stroke:#000000;stroke-width:0.8;" x="111.15" xlink:href="#mf50810e405" y="448.158376"/>
      </g>
     </g>
     <g id="text_9">
      <!-- 0.0000 -->
      <g transform="translate(69.159375 451.957595)scale(0.1 -0.1)">
       <defs>
        <path d="M 10.6875 12.40625 
L 21 12.40625 
L 21 0 
L 10.6875 0 
z
" id="DejaVuSans-46"/>
       </defs>
       <use xlink:href="#DejaVuSans-48"/>
       <use x="63.623047" xlink:href="#DejaVuSans-46"/>
       <use x="95.410156" xlink:href="#DejaVuSans-48"/>
       <use x="159.033203" xlink:href="#DejaVuSans-48"/>
       <use x="222.65625" xlink:href="#DejaVuSans-48"/>
       <use x="286.279297" xlink:href="#DejaVuSans-48"/>
      </g>
     </g>
    </g>
    <g id="ytick_2">
     <g id="line2d_10">
      <g>
       <use style="stroke:#000000;stroke-width:0.8;" x="111.15" xlink:href="#mf50810e405" y="394.937759"/>
      </g>
     </g>
     <g id="text_10">
      <!-- 0.0025 -->
      <g transform="translate(69.159375 398.736978)scale(0.1 -0.1)">
       <defs>
        <path d="M 10.796875 72.90625 
L 49.515625 72.90625 
L 49.515625 64.59375 
L 19.828125 64.59375 
L 19.828125 46.734375 
Q 21.96875 47.46875 24.109375 47.828125 
Q 26.265625 48.1875 28.421875 48.1875 
Q 40.625 48.1875 47.75 41.5 
Q 54.890625 34.8125 54.890625 23.390625 
Q 54.890625 11.625 47.5625 5.09375 
Q 40.234375 -1.421875 26.90625 -1.421875 
Q 22.3125 -1.421875 17.546875 -0.640625 
Q 12.796875 0.140625 7.71875 1.703125 
L 7.71875 11.625 
Q 12.109375 9.234375 16.796875 8.0625 
Q 21.484375 6.890625 26.703125 6.890625 
Q 35.15625 6.890625 40.078125 11.328125 
Q 45.015625 15.765625 45.015625 23.390625 
Q 45.015625 31 40.078125 35.4375 
Q 35.15625 39.890625 26.703125 39.890625 
Q 22.75 39.890625 18.8125 39.015625 
Q 14.890625 38.140625 10.796875 36.28125 
z
" id="DejaVuSans-53"/>
       </defs>
       <use xlink:href="#DejaVuSans-48"/>
       <use x="63.623047" xlink:href="#DejaVuSans-46"/>
       <use x="95.410156" xlink:href="#DejaVuSans-48"/>
       <use x="159.033203" xlink:href="#DejaVuSans-48"/>
       <use x="222.65625" xlink:href="#DejaVuSans-50"/>
       <use x="286.279297" xlink:href="#DejaVuSans-53"/>
      </g>
     </g>
    </g>
    <g id="ytick_3">
     <g id="line2d_11">
      <g>
       <use style="stroke:#000000;stroke-width:0.8;" x="111.15" xlink:href="#mf50810e405" y="341.717142"/>
      </g>
     </g>
     <g id="text_11">
      <!-- 0.0050 -->
      <g transform="translate(69.159375 345.516361)scale(0.1 -0.1)">
       <use xlink:href="#DejaVuSans-48"/>
       <use x="63.623047" xlink:href="#DejaVuSans-46"/>
       <use x="95.410156" xlink:href="#DejaVuSans-48"/>
       <use x="159.033203" xlink:href="#DejaVuSans-48"/>
       <use x="222.65625" xlink:href="#DejaVuSans-53"/>
       <use x="286.279297" xlink:href="#DejaVuSans-48"/>
      </g>
     </g>
    </g>
    <g id="ytick_4">
     <g id="line2d_12">
      <g>
       <use style="stroke:#000000;stroke-width:0.8;" x="111.15" xlink:href="#mf50810e405" y="288.496525"/>
      </g>
     </g>
     <g id="text_12">
      <!-- 0.0075 -->
      <g transform="translate(69.159375 292.295744)scale(0.1 -0.1)">
       <defs>
        <path d="M 8.203125 72.90625 
L 55.078125 72.90625 
L 55.078125 68.703125 
L 28.609375 0 
L 18.3125 0 
L 43.21875 64.59375 
L 8.203125 64.59375 
z
" id="DejaVuSans-55"/>
       </defs>
       <use xlink:href="#DejaVuSans-48"/>
       <use x="63.623047" xlink:href="#DejaVuSans-46"/>
       <use x="95.410156" xlink:href="#DejaVuSans-48"/>
       <use x="159.033203" xlink:href="#DejaVuSans-48"/>
       <use x="222.65625" xlink:href="#DejaVuSans-55"/>
       <use x="286.279297" xlink:href="#DejaVuSans-53"/>
      </g>
     </g>
    </g>
    <g id="ytick_5">
     <g id="line2d_13">
      <g>
       <use style="stroke:#000000;stroke-width:0.8;" x="111.15" xlink:href="#mf50810e405" y="235.275908"/>
      </g>
     </g>
     <g id="text_13">
      <!-- 0.0100 -->
      <g transform="translate(69.159375 239.075127)scale(0.1 -0.1)">
       <use xlink:href="#DejaVuSans-48"/>
       <use x="63.623047" xlink:href="#DejaVuSans-46"/>
       <use x="95.410156" xlink:href="#DejaVuSans-48"/>
       <use x="159.033203" xlink:href="#DejaVuSans-49"/>
       <use x="222.65625" xlink:href="#DejaVuSans-48"/>
       <use x="286.279297" xlink:href="#DejaVuSans-48"/>
      </g>
     </g>
    </g>
    <g id="ytick_6">
     <g id="line2d_14">
      <g>
       <use style="stroke:#000000;stroke-width:0.8;" x="111.15" xlink:href="#mf50810e405" y="182.055291"/>
      </g>
     </g>
     <g id="text_14">
      <!-- 0.0125 -->
      <g transform="translate(69.159375 185.85451)scale(0.1 -0.1)">
       <use xlink:href="#DejaVuSans-48"/>
       <use x="63.623047" xlink:href="#DejaVuSans-46"/>
       <use x="95.410156" xlink:href="#DejaVuSans-48"/>
       <use x="159.033203" xlink:href="#DejaVuSans-49"/>
       <use x="222.65625" xlink:href="#DejaVuSans-50"/>
       <use x="286.279297" xlink:href="#DejaVuSans-53"/>
      </g>
     </g>
    </g>
    <g id="ytick_7">
     <g id="line2d_15">
      <g>
       <use style="stroke:#000000;stroke-width:0.8;" x="111.15" xlink:href="#mf50810e405" y="128.834674"/>
      </g>
     </g>
     <g id="text_15">
      <!-- 0.0150 -->
      <g transform="translate(69.159375 132.633893)scale(0.1 -0.1)">
       <use xlink:href="#DejaVuSans-48"/>
       <use x="63.623047" xlink:href="#DejaVuSans-46"/>
       <use x="95.410156" xlink:href="#DejaVuSans-48"/>
       <use x="159.033203" xlink:href="#DejaVuSans-49"/>
       <use x="222.65625" xlink:href="#DejaVuSans-53"/>
       <use x="286.279297" xlink:href="#DejaVuSans-48"/>
      </g>
     </g>
    </g>
    <g id="ytick_8">
     <g id="line2d_16">
      <g>
       <use style="stroke:#000000;stroke-width:0.8;" x="111.15" xlink:href="#mf50810e405" y="75.614057"/>
      </g>
     </g>
     <g id="text_16">
      <!-- 0.0175 -->
      <g transform="translate(69.159375 79.413276)scale(0.1 -0.1)">
       <use xlink:href="#DejaVuSans-48"/>
       <use x="63.623047" xlink:href="#DejaVuSans-46"/>
       <use x="95.410156" xlink:href="#DejaVuSans-48"/>
       <use x="159.033203" xlink:href="#DejaVuSans-49"/>
       <use x="222.65625" xlink:href="#DejaVuSans-55"/>
       <use x="286.279297" xlink:href="#DejaVuSans-53"/>
      </g>
     </g>
    </g>
   </g>
   <g id="line2d_17">
    <path clip-path="url(#p23e8215c2e)" d="M 142.474091 448.139628 
L 159.406032 448.113752 
L 160.66025 447.999696 
L 161.914468 447.648199 
L 162.541577 447.262881 
L 163.168686 446.638854 
L 165.050012 444.25231 
L 165.677121 443.761424 
L 166.30423 443.52467 
L 166.931339 443.588969 
L 167.558448 444.001774 
L 168.812666 445.69825 
L 169.439775 446.515585 
L 170.066884 447.1135 
L 170.693993 447.495049 
L 171.94821 447.84212 
L 173.829537 447.968042 
L 175.710864 447.87812 
L 176.965082 447.578664 
L 177.592191 447.24641 
L 178.2193 446.682323 
L 178.846409 445.810283 
L 179.473518 444.57511 
L 180.100627 442.923855 
L 180.727735 440.896882 
L 181.981953 435.554469 
L 183.86328 426.300575 
L 184.490389 424.579666 
L 185.117498 423.405073 
L 186.371716 421.716532 
L 187.625934 420.258121 
L 188.880152 419.505093 
L 189.50726 418.29983 
L 190.134369 415.7154 
L 190.761478 411.088231 
L 191.388587 404.163342 
L 192.015696 394.701226 
L 192.642805 380.864503 
L 193.269914 361.35537 
L 194.524132 306.111337 
L 195.151241 278.720192 
L 195.77835 261.27907 
L 196.405459 257.130239 
L 197.032568 265.935084 
L 198.913894 322.170698 
L 199.541003 332.695051 
L 200.168112 337.121805 
L 201.42233 343.05836 
L 202.049439 343.780019 
L 202.676548 335.393081 
L 203.303657 311.609867 
L 203.930766 278.232513 
L 204.557875 254.3452 
L 205.184984 256.07881 
L 206.439201 306.255634 
L 207.06631 321.534983 
L 207.693419 317.486124 
L 208.320528 294.945966 
L 209.574746 234.045486 
L 210.201855 222.39874 
L 210.828964 233.470555 
L 211.456073 264.088027 
L 212.710291 343.600257 
L 213.3374 374.648313 
L 213.964509 395.072025 
L 214.591618 405.954441 
L 215.218726 409.982791 
L 215.845835 409.31922 
L 216.472944 405.985686 
L 217.100053 400.849678 
L 218.354271 389.003982 
L 218.98138 384.938379 
L 219.608489 382.71465 
L 220.235598 382.008792 
L 220.862707 382.785377 
L 221.489816 385.198198 
L 222.116925 389.190546 
L 223.998251 403.41327 
L 225.252469 410.780079 
L 225.879578 412.450647 
L 226.506687 409.75794 
L 227.133796 398.525058 
L 228.388014 356.693469 
L 229.015123 350.384611 
L 229.642232 363.806092 
L 230.89645 406.317676 
L 231.523559 419.608918 
L 232.150667 427.515893 
L 232.777776 431.801244 
L 233.404885 433.619522 
L 234.031994 433.761731 
L 234.659103 432.631023 
L 235.286212 430.047426 
L 235.913321 425.847113 
L 236.54043 419.850235 
L 237.167539 411.89031 
L 238.421757 393.6437 
L 239.048866 390.358713 
L 239.675975 397.30997 
L 240.930192 426.323381 
L 241.557301 436.360698 
L 242.18441 441.757152 
L 242.811519 444.371549 
L 243.438628 445.701614 
L 244.065737 446.381062 
L 244.692846 446.669347 
L 245.319955 446.656363 
L 245.947064 446.329919 
L 246.574173 445.521828 
L 247.201282 443.949221 
L 247.828391 441.430927 
L 249.709717 432.154234 
L 250.336826 430.506949 
L 250.963935 429.717193 
L 251.591044 429.887308 
L 252.218153 430.732189 
L 252.845262 432.14248 
L 254.09948 436.334436 
L 255.980807 444.01431 
L 256.607916 445.507406 
L 257.235025 446.361634 
L 257.862133 446.775748 
L 259.74346 447.259707 
L 261.624787 447.61822 
L 262.879005 447.601125 
L 264.133223 447.344126 
L 264.760332 447.00813 
L 265.387441 446.373633 
L 266.01455 445.211687 
L 266.641658 443.116455 
L 267.268767 439.454881 
L 267.895876 433.331769 
L 268.522985 423.820527 
L 269.777203 398.850001 
L 270.404312 389.239849 
L 271.031421 383.91486 
L 271.65853 384.923209 
L 272.285639 391.820622 
L 274.166966 420.437121 
L 274.794075 427.050801 
L 275.421183 431.341754 
L 276.048292 433.57985 
L 276.675401 434.332448 
L 277.30251 434.374631 
L 277.929619 434.72386 
L 278.556728 436.156224 
L 279.810946 440.442851 
L 280.438055 442.077631 
L 281.065164 443.076646 
L 281.692273 443.559922 
L 282.319382 443.899734 
L 282.946491 444.460597 
L 284.827817 446.830251 
L 285.454926 447.281429 
L 286.709144 447.711035 
L 288.590471 447.905607 
L 294.234451 447.867709 
L 295.488669 447.716678 
L 296.115778 447.535729 
L 296.742887 447.181399 
L 297.369996 446.444523 
L 297.997105 444.890218 
L 298.624214 441.908218 
L 299.251323 436.920341 
L 299.878432 429.686803 
L 301.759758 401.522435 
L 302.386867 396.857265 
L 303.013976 397.302335 
L 303.641085 401.692313 
L 304.895303 412.626827 
L 305.522412 415.085198 
L 306.149521 415.124114 
L 306.77663 414.517947 
L 307.403739 414.934768 
L 308.030848 417.278426 
L 309.285066 425.889359 
L 309.912174 430.407277 
L 310.539283 434.07222 
L 311.166392 436.658995 
L 311.793501 438.445207 
L 313.047719 441.109294 
L 314.301937 443.384538 
L 314.929046 444.292488 
L 315.556155 444.838086 
L 316.183264 444.639803 
L 316.810373 442.660328 
L 317.437482 435.878792 
L 318.06459 417.05602 
L 318.691699 375.645351 
L 319.945917 238.156745 
L 320.573026 199.443802 
L 321.200135 211.864223 
L 323.081462 369.575522 
L 323.708571 402.249056 
L 324.33568 421.134536 
L 324.962789 431.477638 
L 325.589898 437.238002 
L 326.217007 440.468649 
L 326.844115 442.213848 
L 327.471224 442.915527 
L 328.098333 442.63023 
L 328.725442 441.117304 
L 329.352551 438.050073 
L 329.97966 433.370793 
L 331.233878 422.000555 
L 331.860987 417.896406 
L 333.115205 412.26822 
L 333.742314 410.106115 
L 334.369423 409.328578 
L 334.996532 410.382779 
L 335.62364 413.218355 
L 336.250749 417.690816 
L 338.132076 433.241693 
L 338.759185 436.15182 
L 339.386294 437.420126 
L 340.013403 437.158058 
L 340.640512 435.488967 
L 342.521839 428.384645 
L 343.148948 427.035439 
L 344.403165 424.926724 
L 345.030274 422.984232 
L 345.657383 420.337506 
L 346.284492 416.902578 
L 346.911601 412.190159 
L 347.53871 405.561921 
L 348.165819 395.962792 
L 348.792928 382.98647 
L 350.047146 352.829017 
L 350.674255 341.971337 
L 351.301364 333.475144 
L 351.928473 314.928405 
L 352.555581 264.790269 
L 353.809799 107.427891 
L 354.436908 81.2448 
L 355.064017 120.882352 
L 356.945344 366.780168 
L 357.572453 410.465145 
L 358.199562 429.929354 
L 358.826671 436.887455 
L 359.45378 438.40552 
L 360.080889 437.82474 
L 361.335106 434.918639 
L 362.589324 431.704552 
L 363.843542 429.287532 
L 364.470651 428.695982 
L 365.09776 428.396745 
L 365.724869 427.600045 
L 366.351978 425.141462 
L 366.979087 419.391628 
L 368.233305 402.322609 
L 368.860414 400.681873 
L 369.487523 404.967947 
L 370.114631 410.932305 
L 370.74174 415.142059 
L 371.368849 416.430074 
L 371.995958 415.958746 
L 372.623067 416.934048 
L 373.250176 420.741669 
L 375.131503 436.914999 
L 375.758612 440.215508 
L 376.385721 442.159255 
L 377.01283 443.256556 
L 377.639939 443.825471 
L 378.267048 444.01486 
L 378.894156 443.876044 
L 379.521265 443.440461 
L 380.775483 442.078815 
L 381.402592 441.079395 
L 382.029701 439.562104 
L 382.65681 437.180969 
L 383.911028 430.273482 
L 384.538137 428.069633 
L 385.165246 427.106405 
L 385.792355 426.99478 
L 386.419464 427.380631 
L 387.673681 428.799836 
L 388.30079 429.222746 
L 388.927899 429.375533 
L 389.555008 429.347141 
L 390.182117 429.051137 
L 390.809226 428.151018 
L 391.436335 426.073032 
L 393.317662 416.548842 
L 393.944771 414.963154 
L 394.57188 413.990484 
L 395.198989 412.308989 
L 396.453206 406.342339 
L 397.080315 404.216718 
L 397.707424 403.95826 
L 398.334533 405.709323 
L 398.961642 409.49587 
L 400.21586 421.204641 
L 401.470078 433.178199 
L 402.097187 437.61036 
L 402.724296 440.679643 
L 403.351405 442.532383 
L 403.978514 443.452498 
L 404.605622 443.714354 
L 405.232731 443.50421 
L 406.486949 442.543946 
L 407.114058 442.435189 
L 407.741167 442.774728 
L 408.368276 443.529984 
L 409.622494 445.498666 
L 410.249603 446.241333 
L 410.876712 446.706373 
L 411.503821 446.928149 
L 412.13093 446.965902 
L 412.758038 446.852086 
L 413.385147 446.574865 
L 415.266474 445.205883 
L 415.893583 445.044763 
L 416.520692 445.187754 
L 417.77491 446.037924 
L 418.402019 446.459059 
L 419.029128 446.73895 
L 419.656237 446.841687 
L 420.283346 446.762872 
L 420.910455 446.458905 
L 421.537563 445.832624 
L 422.164672 444.719318 
L 422.791781 442.811886 
L 423.41889 439.484512 
L 424.045999 433.90457 
L 424.673108 425.397446 
L 425.300217 413.386862 
L 425.927326 396.995277 
L 427.808653 329.75826 
L 428.435762 315.472586 
L 429.062871 308.823212 
L 429.68998 309.189583 
L 430.317088 320.626821 
L 430.944197 343.437206 
L 432.198415 398.604463 
L 432.825524 418.905307 
L 433.452633 431.919899 
L 434.079742 439.096108 
L 434.706851 442.682988 
L 435.33396 444.339886 
L 435.961069 445.085986 
L 436.588178 445.382698 
L 437.215287 445.435324 
L 437.842396 445.322056 
L 440.350831 444.331892 
L 440.97794 444.32306 
L 442.232158 444.642697 
L 443.486376 445.411212 
L 444.740594 446.193809 
L 447.249029 447.450121 
L 448.503247 447.820757 
L 449.757465 447.944781 
L 452.265901 447.884191 
L 452.89301 447.789716 
L 453.520119 447.578704 
L 454.147228 447.082279 
L 454.774337 445.971879 
L 455.401446 443.767946 
L 456.028554 439.893469 
L 456.655663 433.807437 
L 457.282772 425.025152 
L 459.164099 390.722636 
L 459.791208 385.972286 
L 460.418317 388.168888 
L 461.045426 396.280172 
L 462.926753 431.547535 
L 463.553862 438.906842 
L 464.180971 442.969711 
L 464.808079 445.050126 
L 466.062297 447.388371 
L 466.689406 447.535482 
L 467.316515 447.401106 
L 468.570733 447.741263 
L 469.824951 447.885636 
L 472.960495 447.910582 
L 474.841822 447.842308 
L 476.09604 447.533073 
L 477.350258 446.859788 
L 477.977367 446.479999 
L 478.604476 446.239945 
L 479.231585 446.320929 
L 481.112912 447.408189 
L 482.367129 447.753749 
L 484.248456 447.944925 
L 486.129783 447.953182 
L 491.146654 447.738347 
L 496.790635 447.800851 
L 498.044853 447.566864 
L 498.671962 447.387314 
L 499.926179 446.445869 
L 501.180397 445.769862 
L 501.807506 445.690231 
L 502.434615 445.762796 
L 503.688833 446.213797 
L 504.943051 446.743188 
L 506.197269 447.020522 
L 507.451486 446.990734 
L 508.705704 446.623307 
L 509.959922 445.944419 
L 511.21414 445.243624 
L 511.841249 445.042017 
L 512.468358 444.98254 
L 513.722576 445.253761 
L 516.231011 446.17028 
L 517.485229 446.264926 
L 519.366556 446.162667 
L 520.620774 446.367948 
L 523.756319 447.421115 
L 525.010536 447.524472 
L 528.146081 447.4342 
L 530.027408 447.063176 
L 531.908735 446.359463 
L 533.162952 445.60893 
L 534.41717 444.617878 
L 536.925606 442.319953 
L 537.552715 442.122204 
L 538.179824 442.346263 
L 538.806933 443.046581 
L 540.061151 444.866553 
L 540.68826 445.419744 
L 541.315369 445.650919 
L 541.942477 445.612068 
L 542.569586 445.369729 
L 544.450913 444.043092 
L 545.078022 443.944788 
L 546.33224 444.417864 
L 546.959349 444.644309 
L 547.586458 444.683637 
L 548.213567 444.491384 
L 550.094894 443.407063 
L 550.722002 443.227713 
L 551.97622 443.192646 
L 554.484656 443.245734 
L 556.365983 443.024677 
L 556.993092 443.173843 
L 557.620201 443.525704 
L 560.755745 446.074163 
L 562.009963 446.697511 
L 563.264181 447.055208 
L 564.518399 447.192082 
L 565.772617 447.119682 
L 567.026835 446.724914 
L 568.281052 446.330776 
L 569.53527 446.366693 
L 570.789488 446.481189 
L 572.043706 446.283936 
L 573.297924 445.833258 
L 574.552142 445.300575 
L 575.179251 445.134361 
L 575.80636 445.107222 
L 577.060577 445.425206 
L 580.196122 446.511223 
L 581.45034 446.786415 
L 582.704558 446.833719 
L 583.958776 446.630477 
L 586.467211 446.089167 
L 587.721429 446.100795 
L 592.111192 446.490022 
L 595.246736 446.297455 
L 596.500954 445.993159 
L 597.755172 445.524108 
L 598.382281 445.526925 
L 599.00939 445.921504 
L 600.263608 447.097995 
L 600.890717 447.421256 
L 602.144934 447.617535 
L 604.026261 447.599963 
L 605.907588 447.384446 
L 606.534697 447.183091 
L 607.161806 446.786186 
L 607.788915 446.041353 
L 608.416024 444.785366 
L 609.043133 442.875942 
L 609.670242 440.127075 
L 610.924459 432.292964 
L 611.551568 428.267667 
L 612.178677 425.036462 
L 612.805786 422.951198 
L 613.432895 422.215571 
L 614.060004 422.91755 
L 614.687113 425.062379 
L 615.941331 432.298809 
L 617.195549 439.142294 
L 617.822658 441.587169 
L 618.449767 443.417197 
L 619.076876 444.723973 
L 619.703984 445.590821 
L 620.331093 446.118927 
L 620.958202 446.389061 
L 621.585311 446.479854 
L 622.839529 446.346567 
L 624.093747 446.151705 
L 625.347965 446.251553 
L 628.483509 446.925943 
L 629.737727 446.927347 
L 633.500381 446.479756 
L 637.890143 446.924263 
L 639.144361 446.845514 
L 640.398579 446.494197 
L 641.025688 446.084052 
L 641.652797 445.401629 
L 642.279906 444.390349 
L 642.907015 443.03541 
L 644.161233 439.486011 
L 645.41545 435.671634 
L 646.042559 434.167886 
L 646.669668 433.17323 
L 647.296777 432.800312 
L 647.923886 433.068313 
L 648.550995 434.115631 
L 649.178104 435.95223 
L 651.059431 443.488978 
L 651.68654 444.870821 
L 652.313649 445.524288 
L 652.940758 445.724845 
L 654.194975 445.581311 
L 656.703411 444.832133 
L 662.9745 442.689964 
L 665.482936 442.169093 
L 667.364263 442.036524 
L 668.618481 442.132177 
L 670.499808 442.544417 
L 672.381134 442.967019 
L 678.652224 443.729369 
L 679.906441 443.677619 
L 681.160659 443.349073 
L 683.041986 442.535161 
L 685.550422 441.172828 
L 687.431749 439.876798 
L 689.940184 437.751759 
L 693.702838 434.47804 
L 696.211274 432.644897 
L 698.0926 431.508847 
L 700.601036 430.280515 
L 703.109472 429.339553 
L 705.617907 428.609448 
L 709.380561 427.823458 
L 713.143215 427.291519 
L 718.787195 426.793346 
L 725.685393 426.448394 
L 734.464918 426.226996 
L 750.142641 426.098119 
L 763.939038 426.058863 
L 768.955909 426.055574 
L 768.955909 426.055574 
" style="fill:none;stroke:#1f77b4;stroke-linecap:square;stroke-width:1.5;"/>
   </g>
   <g id="patch_3">
    <path d="M 111.15 466.5024 
L 111.15 62.8992 
" style="fill:none;stroke:#000000;stroke-linecap:square;stroke-linejoin:miter;stroke-width:0.8;"/>
   </g>
   <g id="patch_4">
    <path d="M 800.28 466.5024 
L 800.28 62.8992 
" style="fill:none;stroke:#000000;stroke-linecap:square;stroke-linejoin:miter;stroke-width:0.8;"/>
   </g>
   <g id="patch_5">
    <path d="M 111.15 466.5024 
L 800.28 466.5024 
" style="fill:none;stroke:#000000;stroke-linecap:square;stroke-linejoin:miter;stroke-width:0.8;"/>
   </g>
   <g id="patch_6">
    <path d="M 111.15 62.8992 
L 800.28 62.8992 
" style="fill:none;stroke:#000000;stroke-linecap:square;stroke-linejoin:miter;stroke-width:0.8;"/>
   </g>
   <g id="text_17">
    <!-- Mrk1501 -->
    <g transform="translate(429.327187 56.8992)scale(0.12 -0.12)">
     <defs>
      <path d="M 9.8125 72.90625 
L 24.515625 72.90625 
L 43.109375 23.296875 
L 61.8125 72.90625 
L 76.515625 72.90625 
L 76.515625 0 
L 66.890625 0 
L 66.890625 64.015625 
L 48.09375 14.015625 
L 38.1875 14.015625 
L 19.390625 64.015625 
L 19.390625 0 
L 9.8125 0 
z
" id="DejaVuSans-77"/>
      <path d="M 41.109375 46.296875 
Q 39.59375 47.171875 37.8125 47.578125 
Q 36.03125 48 33.890625 48 
Q 26.265625 48 22.1875 43.046875 
Q 18.109375 38.09375 18.109375 28.8125 
L 18.109375 0 
L 9.078125 0 
L 9.078125 54.6875 
L 18.109375 54.6875 
L 18.109375 46.1875 
Q 20.953125 51.171875 25.484375 53.578125 
Q 30.03125 56 36.53125 56 
Q 37.453125 56 38.578125 55.875 
Q 39.703125 55.765625 41.0625 55.515625 
z
" id="DejaVuSans-114"/>
      <path d="M 9.078125 75.984375 
L 18.109375 75.984375 
L 18.109375 31.109375 
L 44.921875 54.6875 
L 56.390625 54.6875 
L 27.390625 29.109375 
L 57.625 0 
L 45.90625 0 
L 18.109375 26.703125 
L 18.109375 0 
L 9.078125 0 
z
" id="DejaVuSans-107"/>
     </defs>
     <use xlink:href="#DejaVuSans-77"/>
     <use x="86.279297" xlink:href="#DejaVuSans-114"/>
     <use x="127.392578" xlink:href="#DejaVuSans-107"/>
     <use x="185.302734" xlink:href="#DejaVuSans-49"/>
     <use x="248.925781" xlink:href="#DejaVuSans-53"/>
     <use x="312.548828" xlink:href="#DejaVuSans-48"/>
     <use x="376.171875" xlink:href="#DejaVuSans-49"/>
    </g>
   </g>
  </g>
 </g>
 <defs>
  <clipPath id="p23e8215c2e">
   <rect height="403.6032" width="689.13" x="111.15" y="62.8992"/>
  </clipPath>
 </defs>
</svg>
