<?xml version="1.0" encoding="utf-8" standalone="no"?>
<!DOCTYPE svg PUBLIC "-//W3C//DTD SVG 1.1//EN"
  "http://www.w3.org/Graphics/SVG/1.1/DTD/svg11.dtd">
<!-- Created with matplotlib (https://matplotlib.org/) -->
<svg height="524.16pt" version="1.1" viewBox="0 0 889.2 524.16" width="889.2pt" xmlns="http://www.w3.org/2000/svg" xmlns:xlink="http://www.w3.org/1999/xlink">
 <metadata>
  <rdf:RDF xmlns:cc="http://creativecommons.org/ns#" xmlns:dc="http://purl.org/dc/elements/1.1/" xmlns:rdf="http://www.w3.org/1999/02/22-rdf-syntax-ns#">
   <cc:Work>
    <dc:type rdf:resource="http://purl.org/dc/dcmitype/StillImage"/>
    <dc:date>2022-03-05T22:22:27.178067</dc:date>
    <dc:format>image/svg+xml</dc:format>
    <dc:creator>
     <cc:Agent>
      <dc:title>Matplotlib v3.3.4, https://matplotlib.org/</dc:title>
     </cc:Agent>
    </dc:creator>
   </cc:Work>
  </rdf:RDF>
 </metadata>
 <defs>
  <style type="text/css">*{stroke-linecap:butt;stroke-linejoin:round;}</style>
 </defs>
 <g id="figure_1">
  <g id="patch_1">
   <path d="M 0 524.16 
L 889.2 524.16 
L 889.2 0 
L 0 0 
z
" style="fill:#ffffff;"/>
  </g>
  <g id="axes_1">
   <g id="patch_2">
    <path d="M 111.15 466.5024 
L 800.28 466.5024 
L 800.28 62.8992 
L 111.15 62.8992 
z
" style="fill:#ffffff;"/>
   </g>
   <g id="matplotlib.axis_1">
    <g id="xtick_1">
     <g id="line2d_1">
      <defs>
       <path d="M 0 0 
L 0 3.5 
" id="m5a7b57d812" style="stroke:#000000;stroke-width:0.8;"/>
      </defs>
      <g>
       <use style="stroke:#000000;stroke-width:0.8;" x="142.474091" xlink:href="#m5a7b57d812" y="466.5024"/>
      </g>
     </g>
     <g id="text_1">
      <!-- 0 -->
      <g transform="translate(139.292841 481.100838)scale(0.1 -0.1)">
       <defs>
        <path d="M 31.78125 66.40625 
Q 24.171875 66.40625 20.328125 58.90625 
Q 16.5 51.421875 16.5 36.375 
Q 16.5 21.390625 20.328125 13.890625 
Q 24.171875 6.390625 31.78125 6.390625 
Q 39.453125 6.390625 43.28125 13.890625 
Q 47.125 21.390625 47.125 36.375 
Q 47.125 51.421875 43.28125 58.90625 
Q 39.453125 66.40625 31.78125 66.40625 
z
M 31.78125 74.21875 
Q 44.046875 74.21875 50.515625 64.515625 
Q 56.984375 54.828125 56.984375 36.375 
Q 56.984375 17.96875 50.515625 8.265625 
Q 44.046875 -1.421875 31.78125 -1.421875 
Q 19.53125 -1.421875 13.0625 8.265625 
Q 6.59375 17.96875 6.59375 36.375 
Q 6.59375 54.828125 13.0625 64.515625 
Q 19.53125 74.21875 31.78125 74.21875 
z
" id="DejaVuSans-48"/>
       </defs>
       <use xlink:href="#DejaVuSans-48"/>
      </g>
     </g>
    </g>
    <g id="xtick_2">
     <g id="line2d_2">
      <g>
       <use style="stroke:#000000;stroke-width:0.8;" x="223.664324" xlink:href="#m5a7b57d812" y="466.5024"/>
      </g>
     </g>
     <g id="text_2">
      <!-- 20 -->
      <g transform="translate(217.301824 481.100838)scale(0.1 -0.1)">
       <defs>
        <path d="M 19.1875 8.296875 
L 53.609375 8.296875 
L 53.609375 0 
L 7.328125 0 
L 7.328125 8.296875 
Q 12.9375 14.109375 22.625 23.890625 
Q 32.328125 33.6875 34.8125 36.53125 
Q 39.546875 41.84375 41.421875 45.53125 
Q 43.3125 49.21875 43.3125 52.78125 
Q 43.3125 58.59375 39.234375 62.25 
Q 35.15625 65.921875 28.609375 65.921875 
Q 23.96875 65.921875 18.8125 64.3125 
Q 13.671875 62.703125 7.8125 59.421875 
L 7.8125 69.390625 
Q 13.765625 71.78125 18.9375 73 
Q 24.125 74.21875 28.421875 74.21875 
Q 39.75 74.21875 46.484375 68.546875 
Q 53.21875 62.890625 53.21875 53.421875 
Q 53.21875 48.921875 51.53125 44.890625 
Q 49.859375 40.875 45.40625 35.40625 
Q 44.1875 33.984375 37.640625 27.21875 
Q 31.109375 20.453125 19.1875 8.296875 
z
" id="DejaVuSans-50"/>
       </defs>
       <use xlink:href="#DejaVuSans-50"/>
       <use x="63.623047" xlink:href="#DejaVuSans-48"/>
      </g>
     </g>
    </g>
    <g id="xtick_3">
     <g id="line2d_3">
      <g>
       <use style="stroke:#000000;stroke-width:0.8;" x="304.854556" xlink:href="#m5a7b57d812" y="466.5024"/>
      </g>
     </g>
     <g id="text_3">
      <!-- 40 -->
      <g transform="translate(298.492056 481.100838)scale(0.1 -0.1)">
       <defs>
        <path d="M 37.796875 64.3125 
L 12.890625 25.390625 
L 37.796875 25.390625 
z
M 35.203125 72.90625 
L 47.609375 72.90625 
L 47.609375 25.390625 
L 58.015625 25.390625 
L 58.015625 17.1875 
L 47.609375 17.1875 
L 47.609375 0 
L 37.796875 0 
L 37.796875 17.1875 
L 4.890625 17.1875 
L 4.890625 26.703125 
z
" id="DejaVuSans-52"/>
       </defs>
       <use xlink:href="#DejaVuSans-52"/>
       <use x="63.623047" xlink:href="#DejaVuSans-48"/>
      </g>
     </g>
    </g>
    <g id="xtick_4">
     <g id="line2d_4">
      <g>
       <use style="stroke:#000000;stroke-width:0.8;" x="386.044789" xlink:href="#m5a7b57d812" y="466.5024"/>
      </g>
     </g>
     <g id="text_4">
      <!-- 60 -->
      <g transform="translate(379.682289 481.100838)scale(0.1 -0.1)">
       <defs>
        <path d="M 33.015625 40.375 
Q 26.375 40.375 22.484375 35.828125 
Q 18.609375 31.296875 18.609375 23.390625 
Q 18.609375 15.53125 22.484375 10.953125 
Q 26.375 6.390625 33.015625 6.390625 
Q 39.65625 6.390625 43.53125 10.953125 
Q 47.40625 15.53125 47.40625 23.390625 
Q 47.40625 31.296875 43.53125 35.828125 
Q 39.65625 40.375 33.015625 40.375 
z
M 52.59375 71.296875 
L 52.59375 62.3125 
Q 48.875 64.0625 45.09375 64.984375 
Q 41.3125 65.921875 37.59375 65.921875 
Q 27.828125 65.921875 22.671875 59.328125 
Q 17.53125 52.734375 16.796875 39.40625 
Q 19.671875 43.65625 24.015625 45.921875 
Q 28.375 48.1875 33.59375 48.1875 
Q 44.578125 48.1875 50.953125 41.515625 
Q 57.328125 34.859375 57.328125 23.390625 
Q 57.328125 12.15625 50.6875 5.359375 
Q 44.046875 -1.421875 33.015625 -1.421875 
Q 20.359375 -1.421875 13.671875 8.265625 
Q 6.984375 17.96875 6.984375 36.375 
Q 6.984375 53.65625 15.1875 63.9375 
Q 23.390625 74.21875 37.203125 74.21875 
Q 40.921875 74.21875 44.703125 73.484375 
Q 48.484375 72.75 52.59375 71.296875 
z
" id="DejaVuSans-54"/>
       </defs>
       <use xlink:href="#DejaVuSans-54"/>
       <use x="63.623047" xlink:href="#DejaVuSans-48"/>
      </g>
     </g>
    </g>
    <g id="xtick_5">
     <g id="line2d_5">
      <g>
       <use style="stroke:#000000;stroke-width:0.8;" x="467.235022" xlink:href="#m5a7b57d812" y="466.5024"/>
      </g>
     </g>
     <g id="text_5">
      <!-- 80 -->
      <g transform="translate(460.872522 481.100838)scale(0.1 -0.1)">
       <defs>
        <path d="M 31.78125 34.625 
Q 24.75 34.625 20.71875 30.859375 
Q 16.703125 27.09375 16.703125 20.515625 
Q 16.703125 13.921875 20.71875 10.15625 
Q 24.75 6.390625 31.78125 6.390625 
Q 38.8125 6.390625 42.859375 10.171875 
Q 46.921875 13.96875 46.921875 20.515625 
Q 46.921875 27.09375 42.890625 30.859375 
Q 38.875 34.625 31.78125 34.625 
z
M 21.921875 38.8125 
Q 15.578125 40.375 12.03125 44.71875 
Q 8.5 49.078125 8.5 55.328125 
Q 8.5 64.0625 14.71875 69.140625 
Q 20.953125 74.21875 31.78125 74.21875 
Q 42.671875 74.21875 48.875 69.140625 
Q 55.078125 64.0625 55.078125 55.328125 
Q 55.078125 49.078125 51.53125 44.71875 
Q 48 40.375 41.703125 38.8125 
Q 48.828125 37.15625 52.796875 32.3125 
Q 56.78125 27.484375 56.78125 20.515625 
Q 56.78125 9.90625 50.3125 4.234375 
Q 43.84375 -1.421875 31.78125 -1.421875 
Q 19.734375 -1.421875 13.25 4.234375 
Q 6.78125 9.90625 6.78125 20.515625 
Q 6.78125 27.484375 10.78125 32.3125 
Q 14.796875 37.15625 21.921875 38.8125 
z
M 18.3125 54.390625 
Q 18.3125 48.734375 21.84375 45.5625 
Q 25.390625 42.390625 31.78125 42.390625 
Q 38.140625 42.390625 41.71875 45.5625 
Q 45.3125 48.734375 45.3125 54.390625 
Q 45.3125 60.0625 41.71875 63.234375 
Q 38.140625 66.40625 31.78125 66.40625 
Q 25.390625 66.40625 21.84375 63.234375 
Q 18.3125 60.0625 18.3125 54.390625 
z
" id="DejaVuSans-56"/>
       </defs>
       <use xlink:href="#DejaVuSans-56"/>
       <use x="63.623047" xlink:href="#DejaVuSans-48"/>
      </g>
     </g>
    </g>
    <g id="xtick_6">
     <g id="line2d_6">
      <g>
       <use style="stroke:#000000;stroke-width:0.8;" x="548.425255" xlink:href="#m5a7b57d812" y="466.5024"/>
      </g>
     </g>
     <g id="text_6">
      <!-- 100 -->
      <g transform="translate(538.881505 481.100838)scale(0.1 -0.1)">
       <defs>
        <path d="M 12.40625 8.296875 
L 28.515625 8.296875 
L 28.515625 63.921875 
L 10.984375 60.40625 
L 10.984375 69.390625 
L 28.421875 72.90625 
L 38.28125 72.90625 
L 38.28125 8.296875 
L 54.390625 8.296875 
L 54.390625 0 
L 12.40625 0 
z
" id="DejaVuSans-49"/>
       </defs>
       <use xlink:href="#DejaVuSans-49"/>
       <use x="63.623047" xlink:href="#DejaVuSans-48"/>
       <use x="127.246094" xlink:href="#DejaVuSans-48"/>
      </g>
     </g>
    </g>
    <g id="xtick_7">
     <g id="line2d_7">
      <g>
       <use style="stroke:#000000;stroke-width:0.8;" x="629.615487" xlink:href="#m5a7b57d812" y="466.5024"/>
      </g>
     </g>
     <g id="text_7">
      <!-- 120 -->
      <g transform="translate(620.071737 481.100838)scale(0.1 -0.1)">
       <use xlink:href="#DejaVuSans-49"/>
       <use x="63.623047" xlink:href="#DejaVuSans-50"/>
       <use x="127.246094" xlink:href="#DejaVuSans-48"/>
      </g>
     </g>
    </g>
    <g id="xtick_8">
     <g id="line2d_8">
      <g>
       <use style="stroke:#000000;stroke-width:0.8;" x="710.80572" xlink:href="#m5a7b57d812" y="466.5024"/>
      </g>
     </g>
     <g id="text_8">
      <!-- 140 -->
      <g transform="translate(701.26197 481.100838)scale(0.1 -0.1)">
       <use xlink:href="#DejaVuSans-49"/>
       <use x="63.623047" xlink:href="#DejaVuSans-52"/>
       <use x="127.246094" xlink:href="#DejaVuSans-48"/>
      </g>
     </g>
    </g>
    <g id="xtick_9">
     <g id="line2d_9">
      <g>
       <use style="stroke:#000000;stroke-width:0.8;" x="791.995953" xlink:href="#m5a7b57d812" y="466.5024"/>
      </g>
     </g>
     <g id="text_9">
      <!-- 160 -->
      <g transform="translate(782.452203 481.100838)scale(0.1 -0.1)">
       <use xlink:href="#DejaVuSans-49"/>
       <use x="63.623047" xlink:href="#DejaVuSans-54"/>
       <use x="127.246094" xlink:href="#DejaVuSans-48"/>
      </g>
     </g>
    </g>
   </g>
   <g id="matplotlib.axis_2">
    <g id="ytick_1">
     <g id="line2d_10">
      <defs>
       <path d="M 0 0 
L -3.5 0 
" id="m27f6049d34" style="stroke:#000000;stroke-width:0.8;"/>
      </defs>
      <g>
       <use style="stroke:#000000;stroke-width:0.8;" x="111.15" xlink:href="#m27f6049d34" y="448.1568"/>
      </g>
     </g>
     <g id="text_10">
      <!-- 0.000 -->
      <g transform="translate(75.521875 451.956019)scale(0.1 -0.1)">
       <defs>
        <path d="M 10.6875 12.40625 
L 21 12.40625 
L 21 0 
L 10.6875 0 
z
" id="DejaVuSans-46"/>
       </defs>
       <use xlink:href="#DejaVuSans-48"/>
       <use x="63.623047" xlink:href="#DejaVuSans-46"/>
       <use x="95.410156" xlink:href="#DejaVuSans-48"/>
       <use x="159.033203" xlink:href="#DejaVuSans-48"/>
       <use x="222.65625" xlink:href="#DejaVuSans-48"/>
      </g>
     </g>
    </g>
    <g id="ytick_2">
     <g id="line2d_11">
      <g>
       <use style="stroke:#000000;stroke-width:0.8;" x="111.15" xlink:href="#m27f6049d34" y="397.547391"/>
      </g>
     </g>
     <g id="text_11">
      <!-- 0.002 -->
      <g transform="translate(75.521875 401.34661)scale(0.1 -0.1)">
       <use xlink:href="#DejaVuSans-48"/>
       <use x="63.623047" xlink:href="#DejaVuSans-46"/>
       <use x="95.410156" xlink:href="#DejaVuSans-48"/>
       <use x="159.033203" xlink:href="#DejaVuSans-48"/>
       <use x="222.65625" xlink:href="#DejaVuSans-50"/>
      </g>
     </g>
    </g>
    <g id="ytick_3">
     <g id="line2d_12">
      <g>
       <use style="stroke:#000000;stroke-width:0.8;" x="111.15" xlink:href="#m27f6049d34" y="346.937982"/>
      </g>
     </g>
     <g id="text_12">
      <!-- 0.004 -->
      <g transform="translate(75.521875 350.737201)scale(0.1 -0.1)">
       <use xlink:href="#DejaVuSans-48"/>
       <use x="63.623047" xlink:href="#DejaVuSans-46"/>
       <use x="95.410156" xlink:href="#DejaVuSans-48"/>
       <use x="159.033203" xlink:href="#DejaVuSans-48"/>
       <use x="222.65625" xlink:href="#DejaVuSans-52"/>
      </g>
     </g>
    </g>
    <g id="ytick_4">
     <g id="line2d_13">
      <g>
       <use style="stroke:#000000;stroke-width:0.8;" x="111.15" xlink:href="#m27f6049d34" y="296.328573"/>
      </g>
     </g>
     <g id="text_13">
      <!-- 0.006 -->
      <g transform="translate(75.521875 300.127792)scale(0.1 -0.1)">
       <use xlink:href="#DejaVuSans-48"/>
       <use x="63.623047" xlink:href="#DejaVuSans-46"/>
       <use x="95.410156" xlink:href="#DejaVuSans-48"/>
       <use x="159.033203" xlink:href="#DejaVuSans-48"/>
       <use x="222.65625" xlink:href="#DejaVuSans-54"/>
      </g>
     </g>
    </g>
    <g id="ytick_5">
     <g id="line2d_14">
      <g>
       <use style="stroke:#000000;stroke-width:0.8;" x="111.15" xlink:href="#m27f6049d34" y="245.719164"/>
      </g>
     </g>
     <g id="text_14">
      <!-- 0.008 -->
      <g transform="translate(75.521875 249.518383)scale(0.1 -0.1)">
       <use xlink:href="#DejaVuSans-48"/>
       <use x="63.623047" xlink:href="#DejaVuSans-46"/>
       <use x="95.410156" xlink:href="#DejaVuSans-48"/>
       <use x="159.033203" xlink:href="#DejaVuSans-48"/>
       <use x="222.65625" xlink:href="#DejaVuSans-56"/>
      </g>
     </g>
    </g>
    <g id="ytick_6">
     <g id="line2d_15">
      <g>
       <use style="stroke:#000000;stroke-width:0.8;" x="111.15" xlink:href="#m27f6049d34" y="195.109755"/>
      </g>
     </g>
     <g id="text_15">
      <!-- 0.010 -->
      <g transform="translate(75.521875 198.908974)scale(0.1 -0.1)">
       <use xlink:href="#DejaVuSans-48"/>
       <use x="63.623047" xlink:href="#DejaVuSans-46"/>
       <use x="95.410156" xlink:href="#DejaVuSans-48"/>
       <use x="159.033203" xlink:href="#DejaVuSans-49"/>
       <use x="222.65625" xlink:href="#DejaVuSans-48"/>
      </g>
     </g>
    </g>
    <g id="ytick_7">
     <g id="line2d_16">
      <g>
       <use style="stroke:#000000;stroke-width:0.8;" x="111.15" xlink:href="#m27f6049d34" y="144.500347"/>
      </g>
     </g>
     <g id="text_16">
      <!-- 0.012 -->
      <g transform="translate(75.521875 148.299565)scale(0.1 -0.1)">
       <use xlink:href="#DejaVuSans-48"/>
       <use x="63.623047" xlink:href="#DejaVuSans-46"/>
       <use x="95.410156" xlink:href="#DejaVuSans-48"/>
       <use x="159.033203" xlink:href="#DejaVuSans-49"/>
       <use x="222.65625" xlink:href="#DejaVuSans-50"/>
      </g>
     </g>
    </g>
    <g id="ytick_8">
     <g id="line2d_17">
      <g>
       <use style="stroke:#000000;stroke-width:0.8;" x="111.15" xlink:href="#m27f6049d34" y="93.890938"/>
      </g>
     </g>
     <g id="text_17">
      <!-- 0.014 -->
      <g transform="translate(75.521875 97.690156)scale(0.1 -0.1)">
       <use xlink:href="#DejaVuSans-48"/>
       <use x="63.623047" xlink:href="#DejaVuSans-46"/>
       <use x="95.410156" xlink:href="#DejaVuSans-48"/>
       <use x="159.033203" xlink:href="#DejaVuSans-49"/>
       <use x="222.65625" xlink:href="#DejaVuSans-52"/>
      </g>
     </g>
    </g>
   </g>
   <g id="line2d_18">
    <path clip-path="url(#p88914a0304)" d="M 142.474091 448.1568 
L 192.642805 448.148779 
L 193.269914 448.014663 
L 193.897023 446.003515 
L 194.524132 429.40746 
L 195.151241 368.982596 
L 195.77835 294.505254 
L 196.405459 312.756704 
L 197.032568 386.960123 
L 197.659676 426.158456 
L 198.286785 436.647922 
L 198.913894 440.200817 
L 200.168112 445.201477 
L 200.795221 446.818025 
L 201.42233 447.678781 
L 202.049439 447.933792 
L 202.676548 447.87208 
L 203.303657 447.522421 
L 204.557875 445.938346 
L 205.184984 446.103529 
L 205.812093 446.998963 
L 206.439201 447.665134 
L 207.06631 447.966028 
L 208.320528 448.123171 
L 212.710291 448.155838 
L 368.860414 448.1568 
L 460.418317 448.100535 
L 462.926753 447.93729 
L 464.180971 448.122364 
L 465.435188 448.053149 
L 466.689406 447.891346 
L 469.197842 447.949616 
L 469.824951 447.716019 
L 470.45206 447.044088 
L 471.706278 444.253183 
L 472.333387 444.205585 
L 472.960495 445.308135 
L 473.587604 445.823921 
L 474.214713 445.709923 
L 474.841822 444.811198 
L 475.468931 435.297953 
L 476.723149 377.349608 
L 477.350258 380.685133 
L 478.604476 413.875162 
L 479.231585 423.225678 
L 479.858694 426.71895 
L 480.485803 424.473164 
L 481.112912 414.801535 
L 481.74002 389.534785 
L 482.994238 292.38561 
L 483.621347 299.376676 
L 484.248456 329.316288 
L 484.875565 341.581821 
L 485.502674 330.123317 
L 486.129783 292.004669 
L 486.756892 218.071344 
L 487.384001 120.353705 
L 488.01111 81.2448 
L 488.638219 125.524997 
L 489.265328 179.333946 
L 489.892437 217.70701 
L 491.146654 276.807983 
L 491.773763 297.096142 
L 492.400872 307.97316 
L 493.027981 322.252919 
L 493.65509 342.753753 
L 494.282199 359.617691 
L 494.909308 364.894683 
L 495.536417 359.635949 
L 496.163526 346.081022 
L 496.790635 327.881319 
L 497.417744 314.474272 
L 498.044853 316.068113 
L 499.29907 345.357261 
L 500.553288 372.539839 
L 501.180397 384.345409 
L 501.807506 391.86631 
L 502.434615 393.273828 
L 503.061724 389.387616 
L 503.688833 383.500498 
L 504.315942 381.258964 
L 504.943051 386.069629 
L 506.197269 408.401621 
L 506.824378 415.017863 
L 507.451486 414.733033 
L 508.078595 408.12892 
L 509.332813 387.245196 
L 509.959922 382.712157 
L 510.587031 388.254842 
L 512.468358 428.059802 
L 513.095467 435.932295 
L 513.722576 440.531418 
L 514.349685 442.946622 
L 514.976794 444.180141 
L 515.603903 444.708579 
L 516.231011 444.743196 
L 517.485229 444.408223 
L 518.112338 444.703981 
L 519.993665 446.79097 
L 520.620774 447.077655 
L 521.247883 447.163532 
L 521.874992 447.067123 
L 522.502101 446.786105 
L 523.12921 446.305979 
L 525.010536 444.296766 
L 525.637645 444.343083 
L 527.518972 446.396274 
L 528.77319 446.725928 
L 530.654517 447.616459 
L 531.908735 447.832648 
L 533.162952 447.744756 
L 535.044279 447.478718 
L 536.298497 447.697277 
L 537.552715 447.927253 
L 539.434042 447.952902 
L 541.942477 447.862987 
L 543.823804 447.915828 
L 545.078022 447.798206 
L 546.33224 447.508213 
L 546.959349 447.235815 
L 547.586458 446.780187 
L 549.467785 445.028471 
L 550.094894 445.014731 
L 550.722002 445.425758 
L 551.97622 446.484189 
L 552.603329 446.729257 
L 554.484656 446.833495 
L 555.111765 446.79 
L 555.738874 446.424802 
L 556.365983 445.535644 
L 556.993092 444.269467 
L 557.620201 443.50191 
L 558.24731 444.020677 
L 558.874419 445.179441 
L 559.501527 446.102613 
L 560.128636 446.538399 
L 560.755745 446.545572 
L 561.382854 446.10111 
L 562.009963 444.915172 
L 562.637072 442.108275 
L 563.264181 435.603118 
L 563.89129 422.944991 
L 565.772617 369.013192 
L 566.399726 358.054056 
L 567.026835 352.839349 
L 567.653943 358.483036 
L 568.281052 375.974103 
L 568.908161 397.174656 
L 569.53527 413.929726 
L 570.162379 424.32248 
L 570.789488 430.522813 
L 571.416597 434.373585 
L 572.670815 439.421462 
L 573.297924 441.148126 
L 573.925033 441.896233 
L 574.552142 441.052803 
L 575.179251 438.175969 
L 575.80636 433.577461 
L 576.433468 427.716353 
L 577.060577 419.959252 
L 577.687686 409.150815 
L 578.941904 379.530943 
L 580.196122 348.82333 
L 580.823231 335.885499 
L 581.45034 325.496179 
L 582.704558 309.805332 
L 583.331667 303.811544 
L 583.958776 301.011585 
L 584.585885 301.991503 
L 585.212993 307.016136 
L 587.09432 329.275017 
L 588.348538 342.251274 
L 588.975647 352.50724 
L 590.856974 391.32913 
L 591.484083 399.336346 
L 592.111192 402.254014 
L 592.738301 399.593838 
L 593.36541 394.282422 
L 593.992518 392.553617 
L 594.619627 396.384052 
L 595.873845 409.426181 
L 596.500954 413.755807 
L 597.128063 415.46888 
L 597.755172 415.211211 
L 598.382281 414.191272 
L 599.00939 413.471349 
L 599.636499 413.282161 
L 600.263608 412.96165 
L 600.890717 411.560097 
L 601.517826 408.591795 
L 602.772043 402.112401 
L 603.399152 400.581904 
L 604.026261 400.475735 
L 605.280479 401.785447 
L 605.907588 402.057833 
L 606.534697 401.506025 
L 607.161806 399.143258 
L 607.788915 393.049964 
L 608.416024 380.52591 
L 609.043133 358.902557 
L 610.297351 306.89722 
L 610.924459 289.653078 
L 611.551568 283.870643 
L 612.178677 291.041982 
L 612.805786 309.085121 
L 614.060004 354.149317 
L 615.314222 390.314509 
L 615.941331 403.345915 
L 616.56844 412.880506 
L 617.195549 419.540655 
L 617.822658 424.156296 
L 618.449767 427.471581 
L 619.076876 429.831767 
L 619.703984 431.365415 
L 620.331093 432.161899 
L 620.958202 432.450558 
L 621.585311 432.581415 
L 622.21242 432.956325 
L 623.466638 434.734228 
L 624.093747 435.563747 
L 624.720856 436.157026 
L 625.347965 436.524917 
L 625.975074 436.688001 
L 626.602183 436.632308 
L 627.229292 436.297874 
L 627.8564 435.647983 
L 629.737727 432.639844 
L 630.364836 432.33125 
L 631.619054 433.204888 
L 632.246163 433.125865 
L 632.873272 432.253469 
L 634.754599 427.424046 
L 635.381708 426.897213 
L 636.008817 427.243472 
L 636.635925 428.335185 
L 637.263034 429.992066 
L 639.144361 436.245556 
L 639.77147 437.74525 
L 640.398579 438.704238 
L 641.025688 439.253904 
L 642.907015 440.185812 
L 643.534124 440.343252 
L 644.161233 440.344755 
L 644.788342 440.199851 
L 645.41545 439.911396 
L 646.042559 439.412033 
L 646.669668 438.566244 
L 647.296777 437.155278 
L 647.923886 434.953971 
L 649.178104 428.834448 
L 649.805213 427.333152 
L 650.432322 429.213048 
L 651.059431 433.361631 
L 651.68654 436.672093 
L 652.313649 437.985722 
L 652.940758 437.957158 
L 653.567867 437.157059 
L 655.449193 433.130564 
L 656.076302 433.475759 
L 656.703411 434.655441 
L 657.33052 435.548139 
L 657.957629 435.770491 
L 659.211847 435.281613 
L 660.466065 434.80248 
L 661.093174 434.600326 
L 661.720283 434.270058 
L 662.347391 433.486378 
L 662.9745 431.86625 
L 664.855827 424.359071 
L 665.482936 423.172972 
L 666.110045 422.583667 
L 667.364263 421.676719 
L 668.618481 420.239725 
L 672.381134 415.172246 
L 673.635352 414.219734 
L 674.262461 413.963343 
L 674.88957 413.888492 
L 675.516679 413.968717 
L 676.143788 414.229376 
L 676.770897 414.667551 
L 677.398006 415.278451 
L 678.652224 416.981399 
L 679.906441 419.203698 
L 682.414877 423.897316 
L 683.041986 424.714119 
L 683.669095 425.19563 
L 684.296204 425.224129 
L 684.923313 424.781411 
L 685.550422 423.857706 
L 686.177531 422.490264 
L 687.431749 418.584791 
L 688.685966 413.654418 
L 692.44862 398.182804 
L 694.329947 391.766841 
L 696.211274 386.50375 
L 698.0926 382.213767 
L 699.973927 378.681949 
L 701.855254 375.773504 
L 703.736581 373.32972 
L 705.617907 371.258516 
L 707.499234 369.472437 
L 709.380561 367.909178 
L 712.516106 365.803991 
L 715.024541 364.443322 
L 717.532977 363.29397 
L 720.041413 362.347759 
L 723.804066 361.218496 
L 728.820938 360.162564 
L 734.464918 359.353986 
L 740.736007 358.787181 
L 752.023968 358.270759 
L 753.905295 358.225177 
L 768.955909 358.018443 
L 768.955909 358.018443 
" style="fill:none;stroke:#1f77b4;stroke-linecap:square;stroke-width:1.5;"/>
   </g>
   <g id="patch_3">
    <path d="M 111.15 466.5024 
L 111.15 62.8992 
" style="fill:none;stroke:#000000;stroke-linecap:square;stroke-linejoin:miter;stroke-width:0.8;"/>
   </g>
   <g id="patch_4">
    <path d="M 800.28 466.5024 
L 800.28 62.8992 
" style="fill:none;stroke:#000000;stroke-linecap:square;stroke-linejoin:miter;stroke-width:0.8;"/>
   </g>
   <g id="patch_5">
    <path d="M 111.15 466.5024 
L 800.28 466.5024 
" style="fill:none;stroke:#000000;stroke-linecap:square;stroke-linejoin:miter;stroke-width:0.8;"/>
   </g>
   <g id="patch_6">
    <path d="M 111.15 62.8992 
L 800.28 62.8992 
" style="fill:none;stroke:#000000;stroke-linecap:square;stroke-linejoin:miter;stroke-width:0.8;"/>
   </g>
   <g id="text_18">
    <!-- 13.2 -->
    <g transform="translate(196.059645 291.267632)scale(0.1 -0.1)">
     <defs>
      <path d="M 40.578125 39.3125 
Q 47.65625 37.796875 51.625 33 
Q 55.609375 28.21875 55.609375 21.1875 
Q 55.609375 10.40625 48.1875 4.484375 
Q 40.765625 -1.421875 27.09375 -1.421875 
Q 22.515625 -1.421875 17.65625 -0.515625 
Q 12.796875 0.390625 7.625 2.203125 
L 7.625 11.71875 
Q 11.71875 9.328125 16.59375 8.109375 
Q 21.484375 6.890625 26.8125 6.890625 
Q 36.078125 6.890625 40.9375 10.546875 
Q 45.796875 14.203125 45.796875 21.1875 
Q 45.796875 27.640625 41.28125 31.265625 
Q 36.765625 34.90625 28.71875 34.90625 
L 20.21875 34.90625 
L 20.21875 43.015625 
L 29.109375 43.015625 
Q 36.375 43.015625 40.234375 45.921875 
Q 44.09375 48.828125 44.09375 54.296875 
Q 44.09375 59.90625 40.109375 62.90625 
Q 36.140625 65.921875 28.71875 65.921875 
Q 24.65625 65.921875 20.015625 65.03125 
Q 15.375 64.15625 9.8125 62.3125 
L 9.8125 71.09375 
Q 15.4375 72.65625 20.34375 73.4375 
Q 25.25 74.21875 29.59375 74.21875 
Q 40.828125 74.21875 47.359375 69.109375 
Q 53.90625 64.015625 53.90625 55.328125 
Q 53.90625 49.265625 50.4375 45.09375 
Q 46.96875 40.921875 40.578125 39.3125 
z
" id="DejaVuSans-51"/>
     </defs>
     <use xlink:href="#DejaVuSans-49"/>
     <use x="63.623047" xlink:href="#DejaVuSans-51"/>
     <use x="127.246094" xlink:href="#DejaVuSans-46"/>
     <use x="159.033203" xlink:href="#DejaVuSans-50"/>
    </g>
   </g>
   <g id="text_19">
    <!-- Mrk335 -->
    <g transform="translate(433.144687 56.8992)scale(0.12 -0.12)">
     <defs>
      <path d="M 9.8125 72.90625 
L 24.515625 72.90625 
L 43.109375 23.296875 
L 61.8125 72.90625 
L 76.515625 72.90625 
L 76.515625 0 
L 66.890625 0 
L 66.890625 64.015625 
L 48.09375 14.015625 
L 38.1875 14.015625 
L 19.390625 64.015625 
L 19.390625 0 
L 9.8125 0 
z
" id="DejaVuSans-77"/>
      <path d="M 41.109375 46.296875 
Q 39.59375 47.171875 37.8125 47.578125 
Q 36.03125 48 33.890625 48 
Q 26.265625 48 22.1875 43.046875 
Q 18.109375 38.09375 18.109375 28.8125 
L 18.109375 0 
L 9.078125 0 
L 9.078125 54.6875 
L 18.109375 54.6875 
L 18.109375 46.1875 
Q 20.953125 51.171875 25.484375 53.578125 
Q 30.03125 56 36.53125 56 
Q 37.453125 56 38.578125 55.875 
Q 39.703125 55.765625 41.0625 55.515625 
z
" id="DejaVuSans-114"/>
      <path d="M 9.078125 75.984375 
L 18.109375 75.984375 
L 18.109375 31.109375 
L 44.921875 54.6875 
L 56.390625 54.6875 
L 27.390625 29.109375 
L 57.625 0 
L 45.90625 0 
L 18.109375 26.703125 
L 18.109375 0 
L 9.078125 0 
z
" id="DejaVuSans-107"/>
      <path d="M 10.796875 72.90625 
L 49.515625 72.90625 
L 49.515625 64.59375 
L 19.828125 64.59375 
L 19.828125 46.734375 
Q 21.96875 47.46875 24.109375 47.828125 
Q 26.265625 48.1875 28.421875 48.1875 
Q 40.625 48.1875 47.75 41.5 
Q 54.890625 34.8125 54.890625 23.390625 
Q 54.890625 11.625 47.5625 5.09375 
Q 40.234375 -1.421875 26.90625 -1.421875 
Q 22.3125 -1.421875 17.546875 -0.640625 
Q 12.796875 0.140625 7.71875 1.703125 
L 7.71875 11.625 
Q 12.109375 9.234375 16.796875 8.0625 
Q 21.484375 6.890625 26.703125 6.890625 
Q 35.15625 6.890625 40.078125 11.328125 
Q 45.015625 15.765625 45.015625 23.390625 
Q 45.015625 31 40.078125 35.4375 
Q 35.15625 39.890625 26.703125 39.890625 
Q 22.75 39.890625 18.8125 39.015625 
Q 14.890625 38.140625 10.796875 36.28125 
z
" id="DejaVuSans-53"/>
     </defs>
     <use xlink:href="#DejaVuSans-77"/>
     <use x="86.279297" xlink:href="#DejaVuSans-114"/>
     <use x="127.392578" xlink:href="#DejaVuSans-107"/>
     <use x="185.302734" xlink:href="#DejaVuSans-51"/>
     <use x="248.925781" xlink:href="#DejaVuSans-51"/>
     <use x="312.548828" xlink:href="#DejaVuSans-53"/>
    </g>
   </g>
  </g>
 </g>
 <defs>
  <clipPath id="p88914a0304">
   <rect height="403.6032" width="689.13" x="111.15" y="62.8992"/>
  </clipPath>
 </defs>
</svg>
