<?xml version="1.0" encoding="utf-8" standalone="no"?>
<!DOCTYPE svg PUBLIC "-//W3C//DTD SVG 1.1//EN"
  "http://www.w3.org/Graphics/SVG/1.1/DTD/svg11.dtd">
<svg height="524.16pt" version="1.1" viewBox="0 0 889.2 524.16" width="889.2pt" xmlns="http://www.w3.org/2000/svg" xmlns:xlink="http://www.w3.org/1999/xlink">
 <metadata>
  <rdf:RDF xmlns:cc="http://creativecommons.org/ns#" xmlns:dc="http://purl.org/dc/elements/1.1/" xmlns:rdf="http://www.w3.org/1999/02/22-rdf-syntax-ns#">
   <cc:Work>
    <dc:type rdf:resource="http://purl.org/dc/dcmitype/StillImage"/>
    <dc:date>2022-06-01T13:34:31.966171</dc:date>
    <dc:format>image/svg+xml</dc:format>
    <dc:creator>
     <cc:Agent>
      <dc:title>Matplotlib v3.4.3, https://matplotlib.org/</dc:title>
     </cc:Agent>
    </dc:creator>
   </cc:Work>
  </rdf:RDF>
 </metadata>
 <defs>
  <style type="text/css">*{stroke-linecap:butt;stroke-linejoin:round;}</style>
 </defs>
 <g id="figure_1">
  <g id="patch_1">
   <path d="M 0 524.16 
L 889.2 524.16 
L 889.2 0 
L 0 0 
z
" style="fill:#ffffff;"/>
  </g>
  <g id="axes_1">
   <g id="patch_2">
    <path d="M 111.15 466.5024 
L 800.28 466.5024 
L 800.28 62.8992 
L 111.15 62.8992 
z
" style="fill:#ffffff;"/>
   </g>
   <g id="matplotlib.axis_1">
    <g id="xtick_1">
     <g id="line2d_1">
      <defs>
       <path d="M 0 0 
L 0 3.5 
" id="mea0b7e5001" style="stroke:#000000;stroke-width:0.8;"/>
      </defs>
      <g>
       <use style="stroke:#000000;stroke-width:0.8;" x="142.474091" xlink:href="#mea0b7e5001" y="466.5024"/>
      </g>
     </g>
     <g id="text_1">
      <!-- 0 -->
      <g transform="translate(139.292841 481.100838)scale(0.1 -0.1)">
       <defs>
        <path d="M 2034 4250 
Q 1547 4250 1301 3770 
Q 1056 3291 1056 2328 
Q 1056 1369 1301 889 
Q 1547 409 2034 409 
Q 2525 409 2770 889 
Q 3016 1369 3016 2328 
Q 3016 3291 2770 3770 
Q 2525 4250 2034 4250 
z
M 2034 4750 
Q 2819 4750 3233 4129 
Q 3647 3509 3647 2328 
Q 3647 1150 3233 529 
Q 2819 -91 2034 -91 
Q 1250 -91 836 529 
Q 422 1150 422 2328 
Q 422 3509 836 4129 
Q 1250 4750 2034 4750 
z
" id="DejaVuSans-30" transform="scale(0.015625)"/>
       </defs>
       <use xlink:href="#DejaVuSans-30"/>
      </g>
     </g>
    </g>
    <g id="xtick_2">
     <g id="line2d_2">
      <g>
       <use style="stroke:#000000;stroke-width:0.8;" x="231.33676" xlink:href="#mea0b7e5001" y="466.5024"/>
      </g>
     </g>
     <g id="text_2">
      <!-- 20 -->
      <g transform="translate(224.97426 481.100838)scale(0.1 -0.1)">
       <defs>
        <path d="M 1228 531 
L 3431 531 
L 3431 0 
L 469 0 
L 469 531 
Q 828 903 1448 1529 
Q 2069 2156 2228 2338 
Q 2531 2678 2651 2914 
Q 2772 3150 2772 3378 
Q 2772 3750 2511 3984 
Q 2250 4219 1831 4219 
Q 1534 4219 1204 4116 
Q 875 4013 500 3803 
L 500 4441 
Q 881 4594 1212 4672 
Q 1544 4750 1819 4750 
Q 2544 4750 2975 4387 
Q 3406 4025 3406 3419 
Q 3406 3131 3298 2873 
Q 3191 2616 2906 2266 
Q 2828 2175 2409 1742 
Q 1991 1309 1228 531 
z
" id="DejaVuSans-32" transform="scale(0.015625)"/>
       </defs>
       <use xlink:href="#DejaVuSans-32"/>
       <use x="63.623047" xlink:href="#DejaVuSans-30"/>
      </g>
     </g>
    </g>
    <g id="xtick_3">
     <g id="line2d_3">
      <g>
       <use style="stroke:#000000;stroke-width:0.8;" x="320.199429" xlink:href="#mea0b7e5001" y="466.5024"/>
      </g>
     </g>
     <g id="text_3">
      <!-- 40 -->
      <g transform="translate(313.836929 481.100838)scale(0.1 -0.1)">
       <defs>
        <path d="M 2419 4116 
L 825 1625 
L 2419 1625 
L 2419 4116 
z
M 2253 4666 
L 3047 4666 
L 3047 1625 
L 3713 1625 
L 3713 1100 
L 3047 1100 
L 3047 0 
L 2419 0 
L 2419 1100 
L 313 1100 
L 313 1709 
L 2253 4666 
z
" id="DejaVuSans-34" transform="scale(0.015625)"/>
       </defs>
       <use xlink:href="#DejaVuSans-34"/>
       <use x="63.623047" xlink:href="#DejaVuSans-30"/>
      </g>
     </g>
    </g>
    <g id="xtick_4">
     <g id="line2d_4">
      <g>
       <use style="stroke:#000000;stroke-width:0.8;" x="409.062099" xlink:href="#mea0b7e5001" y="466.5024"/>
      </g>
     </g>
     <g id="text_4">
      <!-- 60 -->
      <g transform="translate(402.699599 481.100838)scale(0.1 -0.1)">
       <defs>
        <path d="M 2113 2584 
Q 1688 2584 1439 2293 
Q 1191 2003 1191 1497 
Q 1191 994 1439 701 
Q 1688 409 2113 409 
Q 2538 409 2786 701 
Q 3034 994 3034 1497 
Q 3034 2003 2786 2293 
Q 2538 2584 2113 2584 
z
M 3366 4563 
L 3366 3988 
Q 3128 4100 2886 4159 
Q 2644 4219 2406 4219 
Q 1781 4219 1451 3797 
Q 1122 3375 1075 2522 
Q 1259 2794 1537 2939 
Q 1816 3084 2150 3084 
Q 2853 3084 3261 2657 
Q 3669 2231 3669 1497 
Q 3669 778 3244 343 
Q 2819 -91 2113 -91 
Q 1303 -91 875 529 
Q 447 1150 447 2328 
Q 447 3434 972 4092 
Q 1497 4750 2381 4750 
Q 2619 4750 2861 4703 
Q 3103 4656 3366 4563 
z
" id="DejaVuSans-36" transform="scale(0.015625)"/>
       </defs>
       <use xlink:href="#DejaVuSans-36"/>
       <use x="63.623047" xlink:href="#DejaVuSans-30"/>
      </g>
     </g>
    </g>
    <g id="xtick_5">
     <g id="line2d_5">
      <g>
       <use style="stroke:#000000;stroke-width:0.8;" x="497.924768" xlink:href="#mea0b7e5001" y="466.5024"/>
      </g>
     </g>
     <g id="text_5">
      <!-- 80 -->
      <g transform="translate(491.562268 481.100838)scale(0.1 -0.1)">
       <defs>
        <path d="M 2034 2216 
Q 1584 2216 1326 1975 
Q 1069 1734 1069 1313 
Q 1069 891 1326 650 
Q 1584 409 2034 409 
Q 2484 409 2743 651 
Q 3003 894 3003 1313 
Q 3003 1734 2745 1975 
Q 2488 2216 2034 2216 
z
M 1403 2484 
Q 997 2584 770 2862 
Q 544 3141 544 3541 
Q 544 4100 942 4425 
Q 1341 4750 2034 4750 
Q 2731 4750 3128 4425 
Q 3525 4100 3525 3541 
Q 3525 3141 3298 2862 
Q 3072 2584 2669 2484 
Q 3125 2378 3379 2068 
Q 3634 1759 3634 1313 
Q 3634 634 3220 271 
Q 2806 -91 2034 -91 
Q 1263 -91 848 271 
Q 434 634 434 1313 
Q 434 1759 690 2068 
Q 947 2378 1403 2484 
z
M 1172 3481 
Q 1172 3119 1398 2916 
Q 1625 2713 2034 2713 
Q 2441 2713 2670 2916 
Q 2900 3119 2900 3481 
Q 2900 3844 2670 4047 
Q 2441 4250 2034 4250 
Q 1625 4250 1398 4047 
Q 1172 3844 1172 3481 
z
" id="DejaVuSans-38" transform="scale(0.015625)"/>
       </defs>
       <use xlink:href="#DejaVuSans-38"/>
       <use x="63.623047" xlink:href="#DejaVuSans-30"/>
      </g>
     </g>
    </g>
    <g id="xtick_6">
     <g id="line2d_6">
      <g>
       <use style="stroke:#000000;stroke-width:0.8;" x="586.787437" xlink:href="#mea0b7e5001" y="466.5024"/>
      </g>
     </g>
     <g id="text_6">
      <!-- 100 -->
      <g transform="translate(577.243687 481.100838)scale(0.1 -0.1)">
       <defs>
        <path d="M 794 531 
L 1825 531 
L 1825 4091 
L 703 3866 
L 703 4441 
L 1819 4666 
L 2450 4666 
L 2450 531 
L 3481 531 
L 3481 0 
L 794 0 
L 794 531 
z
" id="DejaVuSans-31" transform="scale(0.015625)"/>
       </defs>
       <use xlink:href="#DejaVuSans-31"/>
       <use x="63.623047" xlink:href="#DejaVuSans-30"/>
       <use x="127.246094" xlink:href="#DejaVuSans-30"/>
      </g>
     </g>
    </g>
    <g id="xtick_7">
     <g id="line2d_7">
      <g>
       <use style="stroke:#000000;stroke-width:0.8;" x="675.650106" xlink:href="#mea0b7e5001" y="466.5024"/>
      </g>
     </g>
     <g id="text_7">
      <!-- 120 -->
      <g transform="translate(666.106356 481.100838)scale(0.1 -0.1)">
       <use xlink:href="#DejaVuSans-31"/>
       <use x="63.623047" xlink:href="#DejaVuSans-32"/>
       <use x="127.246094" xlink:href="#DejaVuSans-30"/>
      </g>
     </g>
    </g>
    <g id="xtick_8">
     <g id="line2d_8">
      <g>
       <use style="stroke:#000000;stroke-width:0.8;" x="764.512776" xlink:href="#mea0b7e5001" y="466.5024"/>
      </g>
     </g>
     <g id="text_8">
      <!-- 140 -->
      <g transform="translate(754.969026 481.100838)scale(0.1 -0.1)">
       <use xlink:href="#DejaVuSans-31"/>
       <use x="63.623047" xlink:href="#DejaVuSans-34"/>
       <use x="127.246094" xlink:href="#DejaVuSans-30"/>
      </g>
     </g>
    </g>
   </g>
   <g id="matplotlib.axis_2">
    <g id="ytick_1">
     <g id="line2d_9">
      <defs>
       <path d="M 0 0 
L -3.5 0 
" id="m6ef32289e3" style="stroke:#000000;stroke-width:0.8;"/>
      </defs>
      <g>
       <use style="stroke:#000000;stroke-width:0.8;" x="111.15" xlink:href="#m6ef32289e3" y="448.1568"/>
      </g>
     </g>
     <g id="text_9">
      <!-- 0.000 -->
      <g transform="translate(75.521875 451.956019)scale(0.1 -0.1)">
       <defs>
        <path d="M 684 794 
L 1344 794 
L 1344 0 
L 684 0 
L 684 794 
z
" id="DejaVuSans-2e" transform="scale(0.015625)"/>
       </defs>
       <use xlink:href="#DejaVuSans-30"/>
       <use x="63.623047" xlink:href="#DejaVuSans-2e"/>
       <use x="95.410156" xlink:href="#DejaVuSans-30"/>
       <use x="159.033203" xlink:href="#DejaVuSans-30"/>
       <use x="222.65625" xlink:href="#DejaVuSans-30"/>
      </g>
     </g>
    </g>
    <g id="ytick_2">
     <g id="line2d_10">
      <g>
       <use style="stroke:#000000;stroke-width:0.8;" x="111.15" xlink:href="#m6ef32289e3" y="378.409609"/>
      </g>
     </g>
     <g id="text_10">
      <!-- 0.002 -->
      <g transform="translate(75.521875 382.208828)scale(0.1 -0.1)">
       <use xlink:href="#DejaVuSans-30"/>
       <use x="63.623047" xlink:href="#DejaVuSans-2e"/>
       <use x="95.410156" xlink:href="#DejaVuSans-30"/>
       <use x="159.033203" xlink:href="#DejaVuSans-30"/>
       <use x="222.65625" xlink:href="#DejaVuSans-32"/>
      </g>
     </g>
    </g>
    <g id="ytick_3">
     <g id="line2d_11">
      <g>
       <use style="stroke:#000000;stroke-width:0.8;" x="111.15" xlink:href="#m6ef32289e3" y="308.662419"/>
      </g>
     </g>
     <g id="text_11">
      <!-- 0.004 -->
      <g transform="translate(75.521875 312.461637)scale(0.1 -0.1)">
       <use xlink:href="#DejaVuSans-30"/>
       <use x="63.623047" xlink:href="#DejaVuSans-2e"/>
       <use x="95.410156" xlink:href="#DejaVuSans-30"/>
       <use x="159.033203" xlink:href="#DejaVuSans-30"/>
       <use x="222.65625" xlink:href="#DejaVuSans-34"/>
      </g>
     </g>
    </g>
    <g id="ytick_4">
     <g id="line2d_12">
      <g>
       <use style="stroke:#000000;stroke-width:0.8;" x="111.15" xlink:href="#m6ef32289e3" y="238.915228"/>
      </g>
     </g>
     <g id="text_12">
      <!-- 0.006 -->
      <g transform="translate(75.521875 242.714447)scale(0.1 -0.1)">
       <use xlink:href="#DejaVuSans-30"/>
       <use x="63.623047" xlink:href="#DejaVuSans-2e"/>
       <use x="95.410156" xlink:href="#DejaVuSans-30"/>
       <use x="159.033203" xlink:href="#DejaVuSans-30"/>
       <use x="222.65625" xlink:href="#DejaVuSans-36"/>
      </g>
     </g>
    </g>
    <g id="ytick_5">
     <g id="line2d_13">
      <g>
       <use style="stroke:#000000;stroke-width:0.8;" x="111.15" xlink:href="#m6ef32289e3" y="169.168037"/>
      </g>
     </g>
     <g id="text_13">
      <!-- 0.008 -->
      <g transform="translate(75.521875 172.967256)scale(0.1 -0.1)">
       <use xlink:href="#DejaVuSans-30"/>
       <use x="63.623047" xlink:href="#DejaVuSans-2e"/>
       <use x="95.410156" xlink:href="#DejaVuSans-30"/>
       <use x="159.033203" xlink:href="#DejaVuSans-30"/>
       <use x="222.65625" xlink:href="#DejaVuSans-38"/>
      </g>
     </g>
    </g>
    <g id="ytick_6">
     <g id="line2d_14">
      <g>
       <use style="stroke:#000000;stroke-width:0.8;" x="111.15" xlink:href="#m6ef32289e3" y="99.420846"/>
      </g>
     </g>
     <g id="text_14">
      <!-- 0.010 -->
      <g transform="translate(75.521875 103.220065)scale(0.1 -0.1)">
       <use xlink:href="#DejaVuSans-30"/>
       <use x="63.623047" xlink:href="#DejaVuSans-2e"/>
       <use x="95.410156" xlink:href="#DejaVuSans-30"/>
       <use x="159.033203" xlink:href="#DejaVuSans-31"/>
       <use x="222.65625" xlink:href="#DejaVuSans-30"/>
      </g>
     </g>
    </g>
   </g>
   <g id="line2d_15">
    <path clip-path="url(#p25c9ecf9c2)" d="M 142.474091 448.1568 
L 197.568946 448.12262 
L 198.013259 447.921704 
L 198.457573 446.682294 
L 198.901886 440.482425 
L 199.346199 417.398131 
L 199.790513 356.885985 
L 200.679139 142.080306 
L 201.123453 107.960898 
L 201.567766 175.205971 
L 202.456393 365.284697 
L 202.900706 407.093926 
L 203.345019 423.961139 
L 203.789333 430.800656 
L 204.677959 437.797935 
L 205.566586 442.972966 
L 206.010899 444.898304 
L 206.455213 446.324942 
L 206.899526 447.204089 
L 207.343839 447.622837 
L 207.788153 447.729578 
L 208.232466 447.626717 
L 208.676779 447.312795 
L 209.121093 446.676704 
L 210.454033 443.381022 
L 210.898346 443.394984 
L 211.34266 444.370104 
L 212.231286 446.69142 
L 212.6756 447.351103 
L 213.119913 447.721356 
L 214.00854 448.019503 
L 215.34148 448.128536 
L 221.561867 448.156646 
L 490.371441 448.108097 
L 493.481634 447.988013 
L 494.814574 448.110232 
L 495.703201 447.997781 
L 497.480455 447.578259 
L 498.369081 447.648495 
L 499.702021 447.797377 
L 500.146335 447.692319 
L 500.590648 447.406815 
L 501.034961 446.800884 
L 501.479275 445.689809 
L 501.923588 443.972405 
L 502.812215 439.880601 
L 503.256528 439.355446 
L 503.700841 440.510524 
L 504.145155 442.297559 
L 504.589468 443.594703 
L 505.033781 444.094071 
L 505.478095 444.094421 
L 505.922408 443.767403 
L 506.366721 442.325726 
L 506.811035 436.424409 
L 507.255348 420.660144 
L 508.143975 379.562545 
L 508.588288 374.182112 
L 509.032602 379.884951 
L 510.365542 410.453335 
L 510.809855 416.347116 
L 511.254168 419.72437 
L 511.698482 420.914558 
L 512.142795 420.032496 
L 512.587108 417.063047 
L 513.031422 410.860959 
L 513.475735 398.893838 
L 513.920048 377.713242 
L 515.252988 284.985166 
L 515.697302 286.26921 
L 516.585928 319.785093 
L 517.030242 328.691381 
L 517.474555 328.621358 
L 517.918868 320.020159 
L 518.363182 301.342229 
L 518.807495 269.868717 
L 519.251809 221.911707 
L 520.140435 104.769479 
L 520.584749 81.2448 
L 521.029062 93.959934 
L 521.917689 149.01049 
L 524.583569 276.239209 
L 525.472195 299.725079 
L 526.360822 324.536282 
L 527.249449 351.842109 
L 527.693762 359.709263 
L 528.138075 362.395096 
L 528.582389 360.724523 
L 529.026702 355.587315 
L 529.471015 347.765182 
L 530.803956 319.736341 
L 531.248269 317.17137 
L 531.692582 320.632171 
L 532.581209 336.825319 
L 533.469836 352.495035 
L 535.247089 378.159287 
L 535.691402 381.806531 
L 536.135716 383.010141 
L 536.580029 381.808792 
L 537.912969 371.973052 
L 538.357282 371.656985 
L 538.801596 374.495301 
L 539.245909 380.178167 
L 540.578849 403.508969 
L 541.023162 408.04221 
L 541.467476 409.153996 
L 541.911789 406.904239 
L 542.356103 401.382909 
L 543.244729 383.225561 
L 544.133356 365.099792 
L 544.577669 360.990439 
L 545.021983 362.863794 
L 545.466296 370.777209 
L 547.243549 419.337254 
L 547.687863 427.433232 
L 548.132176 433.267408 
L 548.576489 437.283148 
L 549.020803 439.911482 
L 549.465116 441.618551 
L 549.909429 442.742589 
L 550.353743 443.45945 
L 550.798056 443.86643 
L 551.242369 444.025396 
L 552.130996 443.90802 
L 552.575309 443.815768 
L 553.019623 443.839892 
L 553.463936 444.064555 
L 554.352563 445.054518 
L 555.24119 446.047197 
L 556.129816 446.523808 
L 557.018443 446.551137 
L 557.462756 446.400566 
L 557.90707 446.126616 
L 558.795696 445.164813 
L 559.684323 443.58798 
L 560.57295 441.799539 
L 561.017263 441.210287 
L 561.461576 441.042429 
L 561.90589 441.394446 
L 562.350203 442.25243 
L 563.23883 444.352073 
L 563.683143 445.028032 
L 564.127456 445.369447 
L 565.460397 445.92338 
L 567.681963 447.441282 
L 568.57059 447.654433 
L 569.459217 447.650093 
L 570.792157 447.400063 
L 572.125097 447.150731 
L 573.013723 447.303056 
L 574.790977 447.820786 
L 576.123917 447.900449 
L 577.90117 447.747335 
L 579.23411 447.665325 
L 581.89999 447.710083 
L 583.23293 447.434422 
L 584.56587 446.859823 
L 585.454497 446.121517 
L 586.343124 444.839101 
L 587.676064 442.730951 
L 588.120377 442.410066 
L 588.564691 442.448557 
L 589.009004 442.822468 
L 591.230571 445.670024 
L 592.119197 445.961689 
L 593.452137 446.072839 
L 593.896451 446.030403 
L 594.340764 445.835329 
L 594.785077 445.388865 
L 595.229391 444.619773 
L 596.562331 441.309449 
L 597.006644 441.050448 
L 597.450957 441.624754 
L 598.783897 444.680544 
L 599.228211 445.265569 
L 599.672524 445.559746 
L 600.116838 445.599593 
L 600.561151 445.40008 
L 601.005464 444.938236 
L 601.449778 444.147407 
L 601.894091 442.883155 
L 602.338404 440.833508 
L 602.782718 437.4401 
L 603.227031 431.983211 
L 603.671344 424.023376 
L 604.559971 401.968785 
L 605.448598 380.370642 
L 606.337224 365.629628 
L 606.781538 361.123274 
L 607.225851 359.497008 
L 607.670164 362.653116 
L 608.114478 370.68849 
L 609.891731 414.928192 
L 610.336044 420.976974 
L 610.780358 425.034244 
L 611.224671 427.708596 
L 612.113298 431.266862 
L 614.334865 439.123415 
L 614.779178 439.576052 
L 615.223491 439.054756 
L 615.667805 437.357204 
L 616.112118 434.459094 
L 617.000745 426.115796 
L 617.889371 414.973595 
L 618.777998 398.936008 
L 619.666625 377.805591 
L 621.443878 333.721558 
L 622.332505 316.98043 
L 623.221132 305.502361 
L 624.109758 297.641135 
L 624.554072 294.735496 
L 624.998385 292.84713 
L 625.442698 292.269995 
L 625.887012 293.238614 
L 626.331325 295.693026 
L 626.775638 299.497059 
L 628.552892 319.011763 
L 629.441518 325.280955 
L 629.885832 328.278415 
L 630.330145 332.039035 
L 630.774458 337.415228 
L 631.663085 352.840822 
L 632.551712 369.593204 
L 632.996025 376.416841 
L 633.440338 381.487229 
L 633.884652 384.358591 
L 634.328965 384.735214 
L 634.773279 382.289869 
L 635.217592 377.272396 
L 636.106219 365.939814 
L 636.550532 364.657091 
L 636.994845 367.71092 
L 637.883472 381.692552 
L 638.772099 395.619424 
L 639.216412 400.492614 
L 639.660725 403.726795 
L 640.105039 405.480484 
L 640.549352 406.146052 
L 640.993665 406.217212 
L 641.437979 406.038707 
L 641.882292 406.037119 
L 642.326605 406.24699 
L 643.215232 407.035446 
L 643.659545 407.096613 
L 644.103859 406.577326 
L 644.548172 405.233948 
L 646.325426 397.436129 
L 646.769739 396.443501 
L 647.214052 396.256987 
L 647.658366 396.651079 
L 648.991306 398.833575 
L 649.435619 399.254082 
L 649.879932 399.382149 
L 650.324246 399.076783 
L 650.768559 398.182514 
L 651.212872 396.280857 
L 651.657186 392.815233 
L 652.101499 387.23254 
L 652.545812 378.679279 
L 653.434439 351.832954 
L 654.323066 321.756399 
L 654.767379 309.582205 
L 655.211692 301.011678 
L 655.656006 296.479589 
L 656.100319 297.085109 
L 656.544632 302.547354 
L 656.988946 312.150481 
L 659.654826 383.96124 
L 660.543453 399.748858 
L 661.432079 410.271991 
L 662.320706 416.722122 
L 663.209333 420.742906 
L 664.097959 423.384691 
L 664.542273 424.277524 
L 664.986586 424.877297 
L 665.430899 425.204715 
L 666.319526 425.363174 
L 666.763839 425.444572 
L 667.208153 425.725162 
L 667.652466 426.306388 
L 668.541093 428.209792 
L 669.42972 430.072147 
L 670.318346 431.273084 
L 671.206973 431.895645 
L 672.0956 432.070936 
L 672.539913 431.997421 
L 672.984226 431.797054 
L 673.42854 431.466276 
L 674.317166 430.382586 
L 675.650106 428.285361 
L 676.09442 427.82637 
L 676.538733 427.655039 
L 677.871673 427.803427 
L 678.315986 427.468141 
L 678.7603 426.735117 
L 679.204613 425.592574 
L 680.09324 422.372215 
L 680.981867 419.199581 
L 681.42618 418.217128 
L 681.870493 417.760097 
L 682.314807 417.824544 
L 682.75912 418.347414 
L 683.203433 419.267491 
L 684.09206 422.012531 
L 686.313627 430.547993 
L 687.202253 432.642509 
L 688.09088 433.749059 
L 690.312447 435.443302 
L 691.201074 435.753112 
L 692.0897 435.6822 
L 692.978327 435.289397 
L 693.866954 434.523307 
L 694.311267 433.91297 
L 694.75558 433.060109 
L 695.199894 431.903804 
L 696.08852 428.524304 
L 696.977147 424.374322 
L 697.42146 422.857107 
L 697.865774 422.443654 
L 698.310087 423.551669 
L 699.643027 430.546936 
L 700.08734 431.805268 
L 700.531654 432.292496 
L 700.975967 432.277382 
L 701.42028 431.907027 
L 701.864594 431.291546 
L 702.753221 429.38827 
L 703.641847 427.513545 
L 704.086161 427.125581 
L 704.530474 427.249388 
L 705.863414 428.630569 
L 706.307727 428.698779 
L 706.752041 428.541781 
L 709.417921 426.828261 
L 710.306547 426.416785 
L 710.750861 426.043283 
L 711.195174 425.39898 
L 711.639487 424.261533 
L 712.083801 422.457589 
L 712.972427 416.985586 
L 713.861054 411.29799 
L 714.305368 409.310682 
L 714.749681 407.963933 
L 715.193994 407.087495 
L 717.415561 404.08459 
L 718.304188 402.275251 
L 722.303008 393.386091 
L 723.191634 392.112144 
L 724.080261 391.275421 
L 724.968888 390.917845 
L 725.413201 390.93619 
L 725.857515 391.070697 
L 726.301828 391.348458 
L 727.190455 392.285792 
L 728.079081 393.750315 
L 728.967708 395.699192 
L 730.300648 399.364243 
L 733.410841 408.784562 
L 734.299468 410.554584 
L 734.743781 411.060999 
L 735.188095 411.22523 
L 735.632408 411.056825 
L 736.076721 410.509435 
L 736.521035 409.621354 
L 736.965348 408.382788 
L 737.853975 404.909042 
L 738.742602 400.266078 
L 740.075542 391.769913 
L 744.962988 358.286148 
L 746.740242 348.306392 
L 748.517495 339.878325 
L 750.294749 332.778012 
L 751.627689 328.260181 
L 753.404942 323.070845 
L 754.737882 319.701947 
L 756.515135 315.83827 
L 758.292389 312.564721 
L 760.513956 309.057775 
L 763.179836 305.662128 
L 765.401402 303.345888 
L 766.734342 302.088171 
L 768.955909 300.339603 
L 768.955909 300.339603 
" style="fill:none;stroke:#1f77b4;stroke-linecap:square;stroke-width:1.5;"/>
   </g>
   <g id="patch_3">
    <path d="M 111.15 466.5024 
L 111.15 62.8992 
" style="fill:none;stroke:#000000;stroke-linecap:square;stroke-linejoin:miter;stroke-width:0.8;"/>
   </g>
   <g id="patch_4">
    <path d="M 800.28 466.5024 
L 800.28 62.8992 
" style="fill:none;stroke:#000000;stroke-linecap:square;stroke-linejoin:miter;stroke-width:0.8;"/>
   </g>
   <g id="patch_5">
    <path d="M 111.15 466.5024 
L 800.28 466.5024 
" style="fill:none;stroke:#000000;stroke-linecap:square;stroke-linejoin:miter;stroke-width:0.8;"/>
   </g>
   <g id="patch_6">
    <path d="M 111.15 62.8992 
L 800.28 62.8992 
" style="fill:none;stroke:#000000;stroke-linecap:square;stroke-linejoin:miter;stroke-width:0.8;"/>
   </g>
   <g id="text_15">
    <!-- Mrk335 (1/6/22) -->
    <g transform="translate(407.243437 56.8992)scale(0.12 -0.12)">
     <defs>
      <path d="M 628 4666 
L 1569 4666 
L 2759 1491 
L 3956 4666 
L 4897 4666 
L 4897 0 
L 4281 0 
L 4281 4097 
L 3078 897 
L 2444 897 
L 1241 4097 
L 1241 0 
L 628 0 
L 628 4666 
z
" id="DejaVuSans-4d" transform="scale(0.015625)"/>
      <path d="M 2631 2963 
Q 2534 3019 2420 3045 
Q 2306 3072 2169 3072 
Q 1681 3072 1420 2755 
Q 1159 2438 1159 1844 
L 1159 0 
L 581 0 
L 581 3500 
L 1159 3500 
L 1159 2956 
Q 1341 3275 1631 3429 
Q 1922 3584 2338 3584 
Q 2397 3584 2469 3576 
Q 2541 3569 2628 3553 
L 2631 2963 
z
" id="DejaVuSans-72" transform="scale(0.015625)"/>
      <path d="M 581 4863 
L 1159 4863 
L 1159 1991 
L 2875 3500 
L 3609 3500 
L 1753 1863 
L 3688 0 
L 2938 0 
L 1159 1709 
L 1159 0 
L 581 0 
L 581 4863 
z
" id="DejaVuSans-6b" transform="scale(0.015625)"/>
      <path d="M 2597 2516 
Q 3050 2419 3304 2112 
Q 3559 1806 3559 1356 
Q 3559 666 3084 287 
Q 2609 -91 1734 -91 
Q 1441 -91 1130 -33 
Q 819 25 488 141 
L 488 750 
Q 750 597 1062 519 
Q 1375 441 1716 441 
Q 2309 441 2620 675 
Q 2931 909 2931 1356 
Q 2931 1769 2642 2001 
Q 2353 2234 1838 2234 
L 1294 2234 
L 1294 2753 
L 1863 2753 
Q 2328 2753 2575 2939 
Q 2822 3125 2822 3475 
Q 2822 3834 2567 4026 
Q 2313 4219 1838 4219 
Q 1578 4219 1281 4162 
Q 984 4106 628 3988 
L 628 4550 
Q 988 4650 1302 4700 
Q 1616 4750 1894 4750 
Q 2613 4750 3031 4423 
Q 3450 4097 3450 3541 
Q 3450 3153 3228 2886 
Q 3006 2619 2597 2516 
z
" id="DejaVuSans-33" transform="scale(0.015625)"/>
      <path d="M 691 4666 
L 3169 4666 
L 3169 4134 
L 1269 4134 
L 1269 2991 
Q 1406 3038 1543 3061 
Q 1681 3084 1819 3084 
Q 2600 3084 3056 2656 
Q 3513 2228 3513 1497 
Q 3513 744 3044 326 
Q 2575 -91 1722 -91 
Q 1428 -91 1123 -41 
Q 819 9 494 109 
L 494 744 
Q 775 591 1075 516 
Q 1375 441 1709 441 
Q 2250 441 2565 725 
Q 2881 1009 2881 1497 
Q 2881 1984 2565 2268 
Q 2250 2553 1709 2553 
Q 1456 2553 1204 2497 
Q 953 2441 691 2322 
L 691 4666 
z
" id="DejaVuSans-35" transform="scale(0.015625)"/>
      <path id="DejaVuSans-20" transform="scale(0.015625)"/>
      <path d="M 1984 4856 
Q 1566 4138 1362 3434 
Q 1159 2731 1159 2009 
Q 1159 1288 1364 580 
Q 1569 -128 1984 -844 
L 1484 -844 
Q 1016 -109 783 600 
Q 550 1309 550 2009 
Q 550 2706 781 3412 
Q 1013 4119 1484 4856 
L 1984 4856 
z
" id="DejaVuSans-28" transform="scale(0.015625)"/>
      <path d="M 1625 4666 
L 2156 4666 
L 531 -594 
L 0 -594 
L 1625 4666 
z
" id="DejaVuSans-2f" transform="scale(0.015625)"/>
      <path d="M 513 4856 
L 1013 4856 
Q 1481 4119 1714 3412 
Q 1947 2706 1947 2009 
Q 1947 1309 1714 600 
Q 1481 -109 1013 -844 
L 513 -844 
Q 928 -128 1133 580 
Q 1338 1288 1338 2009 
Q 1338 2731 1133 3434 
Q 928 4138 513 4856 
z
" id="DejaVuSans-29" transform="scale(0.015625)"/>
     </defs>
     <use xlink:href="#DejaVuSans-4d"/>
     <use x="86.279297" xlink:href="#DejaVuSans-72"/>
     <use x="127.392578" xlink:href="#DejaVuSans-6b"/>
     <use x="185.302734" xlink:href="#DejaVuSans-33"/>
     <use x="248.925781" xlink:href="#DejaVuSans-33"/>
     <use x="312.548828" xlink:href="#DejaVuSans-35"/>
     <use x="376.171875" xlink:href="#DejaVuSans-20"/>
     <use x="407.958984" xlink:href="#DejaVuSans-28"/>
     <use x="446.972656" xlink:href="#DejaVuSans-31"/>
     <use x="510.595703" xlink:href="#DejaVuSans-2f"/>
     <use x="544.287109" xlink:href="#DejaVuSans-36"/>
     <use x="607.910156" xlink:href="#DejaVuSans-2f"/>
     <use x="641.601562" xlink:href="#DejaVuSans-32"/>
     <use x="705.224609" xlink:href="#DejaVuSans-32"/>
     <use x="768.847656" xlink:href="#DejaVuSans-29"/>
    </g>
   </g>
  </g>
 </g>
 <defs>
  <clipPath id="p25c9ecf9c2">
   <rect height="403.6032" width="689.13" x="111.15" y="62.8992"/>
  </clipPath>
 </defs>
</svg>
