<?xml version="1.0" encoding="utf-8" standalone="no"?>
<!DOCTYPE svg PUBLIC "-//W3C//DTD SVG 1.1//EN"
  "http://www.w3.org/Graphics/SVG/1.1/DTD/svg11.dtd">
<!-- Created with matplotlib (https://matplotlib.org/) -->
<svg height="524.16pt" version="1.1" viewBox="0 0 889.2 524.16" width="889.2pt" xmlns="http://www.w3.org/2000/svg" xmlns:xlink="http://www.w3.org/1999/xlink">
 <metadata>
  <rdf:RDF xmlns:cc="http://creativecommons.org/ns#" xmlns:dc="http://purl.org/dc/elements/1.1/" xmlns:rdf="http://www.w3.org/1999/02/22-rdf-syntax-ns#">
   <cc:Work>
    <dc:type rdf:resource="http://purl.org/dc/dcmitype/StillImage"/>
    <dc:date>2022-03-05T23:23:57.822129</dc:date>
    <dc:format>image/svg+xml</dc:format>
    <dc:creator>
     <cc:Agent>
      <dc:title>Matplotlib v3.3.4, https://matplotlib.org/</dc:title>
     </cc:Agent>
    </dc:creator>
   </cc:Work>
  </rdf:RDF>
 </metadata>
 <defs>
  <style type="text/css">*{stroke-linecap:butt;stroke-linejoin:round;}</style>
 </defs>
 <g id="figure_1">
  <g id="patch_1">
   <path d="M 0 524.16 
L 889.2 524.16 
L 889.2 0 
L 0 0 
z
" style="fill:#ffffff;"/>
  </g>
  <g id="axes_1">
   <g id="patch_2">
    <path d="M 111.15 466.5024 
L 800.28 466.5024 
L 800.28 62.8992 
L 111.15 62.8992 
z
" style="fill:#ffffff;"/>
   </g>
   <g id="matplotlib.axis_1">
    <g id="xtick_1">
     <g id="line2d_1">
      <defs>
       <path d="M 0 0 
L 0 3.5 
" id="mc4979e91b6" style="stroke:#000000;stroke-width:0.8;"/>
      </defs>
      <g>
       <use style="stroke:#000000;stroke-width:0.8;" x="142.474091" xlink:href="#mc4979e91b6" y="466.5024"/>
      </g>
     </g>
     <g id="text_1">
      <!-- 0 -->
      <g transform="translate(139.292841 481.100838)scale(0.1 -0.1)">
       <defs>
        <path d="M 31.78125 66.40625 
Q 24.171875 66.40625 20.328125 58.90625 
Q 16.5 51.421875 16.5 36.375 
Q 16.5 21.390625 20.328125 13.890625 
Q 24.171875 6.390625 31.78125 6.390625 
Q 39.453125 6.390625 43.28125 13.890625 
Q 47.125 21.390625 47.125 36.375 
Q 47.125 51.421875 43.28125 58.90625 
Q 39.453125 66.40625 31.78125 66.40625 
z
M 31.78125 74.21875 
Q 44.046875 74.21875 50.515625 64.515625 
Q 56.984375 54.828125 56.984375 36.375 
Q 56.984375 17.96875 50.515625 8.265625 
Q 44.046875 -1.421875 31.78125 -1.421875 
Q 19.53125 -1.421875 13.0625 8.265625 
Q 6.59375 17.96875 6.59375 36.375 
Q 6.59375 54.828125 13.0625 64.515625 
Q 19.53125 74.21875 31.78125 74.21875 
z
" id="DejaVuSans-48"/>
       </defs>
       <use xlink:href="#DejaVuSans-48"/>
      </g>
     </g>
    </g>
    <g id="xtick_2">
     <g id="line2d_2">
      <g>
       <use style="stroke:#000000;stroke-width:0.8;" x="232.176431" xlink:href="#mc4979e91b6" y="466.5024"/>
      </g>
     </g>
     <g id="text_2">
      <!-- 20 -->
      <g transform="translate(225.813931 481.100838)scale(0.1 -0.1)">
       <defs>
        <path d="M 19.1875 8.296875 
L 53.609375 8.296875 
L 53.609375 0 
L 7.328125 0 
L 7.328125 8.296875 
Q 12.9375 14.109375 22.625 23.890625 
Q 32.328125 33.6875 34.8125 36.53125 
Q 39.546875 41.84375 41.421875 45.53125 
Q 43.3125 49.21875 43.3125 52.78125 
Q 43.3125 58.59375 39.234375 62.25 
Q 35.15625 65.921875 28.609375 65.921875 
Q 23.96875 65.921875 18.8125 64.3125 
Q 13.671875 62.703125 7.8125 59.421875 
L 7.8125 69.390625 
Q 13.765625 71.78125 18.9375 73 
Q 24.125 74.21875 28.421875 74.21875 
Q 39.75 74.21875 46.484375 68.546875 
Q 53.21875 62.890625 53.21875 53.421875 
Q 53.21875 48.921875 51.53125 44.890625 
Q 49.859375 40.875 45.40625 35.40625 
Q 44.1875 33.984375 37.640625 27.21875 
Q 31.109375 20.453125 19.1875 8.296875 
z
" id="DejaVuSans-50"/>
       </defs>
       <use xlink:href="#DejaVuSans-50"/>
       <use x="63.623047" xlink:href="#DejaVuSans-48"/>
      </g>
     </g>
    </g>
    <g id="xtick_3">
     <g id="line2d_3">
      <g>
       <use style="stroke:#000000;stroke-width:0.8;" x="321.878771" xlink:href="#mc4979e91b6" y="466.5024"/>
      </g>
     </g>
     <g id="text_3">
      <!-- 40 -->
      <g transform="translate(315.516271 481.100838)scale(0.1 -0.1)">
       <defs>
        <path d="M 37.796875 64.3125 
L 12.890625 25.390625 
L 37.796875 25.390625 
z
M 35.203125 72.90625 
L 47.609375 72.90625 
L 47.609375 25.390625 
L 58.015625 25.390625 
L 58.015625 17.1875 
L 47.609375 17.1875 
L 47.609375 0 
L 37.796875 0 
L 37.796875 17.1875 
L 4.890625 17.1875 
L 4.890625 26.703125 
z
" id="DejaVuSans-52"/>
       </defs>
       <use xlink:href="#DejaVuSans-52"/>
       <use x="63.623047" xlink:href="#DejaVuSans-48"/>
      </g>
     </g>
    </g>
    <g id="xtick_4">
     <g id="line2d_4">
      <g>
       <use style="stroke:#000000;stroke-width:0.8;" x="411.581111" xlink:href="#mc4979e91b6" y="466.5024"/>
      </g>
     </g>
     <g id="text_4">
      <!-- 60 -->
      <g transform="translate(405.218611 481.100838)scale(0.1 -0.1)">
       <defs>
        <path d="M 33.015625 40.375 
Q 26.375 40.375 22.484375 35.828125 
Q 18.609375 31.296875 18.609375 23.390625 
Q 18.609375 15.53125 22.484375 10.953125 
Q 26.375 6.390625 33.015625 6.390625 
Q 39.65625 6.390625 43.53125 10.953125 
Q 47.40625 15.53125 47.40625 23.390625 
Q 47.40625 31.296875 43.53125 35.828125 
Q 39.65625 40.375 33.015625 40.375 
z
M 52.59375 71.296875 
L 52.59375 62.3125 
Q 48.875 64.0625 45.09375 64.984375 
Q 41.3125 65.921875 37.59375 65.921875 
Q 27.828125 65.921875 22.671875 59.328125 
Q 17.53125 52.734375 16.796875 39.40625 
Q 19.671875 43.65625 24.015625 45.921875 
Q 28.375 48.1875 33.59375 48.1875 
Q 44.578125 48.1875 50.953125 41.515625 
Q 57.328125 34.859375 57.328125 23.390625 
Q 57.328125 12.15625 50.6875 5.359375 
Q 44.046875 -1.421875 33.015625 -1.421875 
Q 20.359375 -1.421875 13.671875 8.265625 
Q 6.984375 17.96875 6.984375 36.375 
Q 6.984375 53.65625 15.1875 63.9375 
Q 23.390625 74.21875 37.203125 74.21875 
Q 40.921875 74.21875 44.703125 73.484375 
Q 48.484375 72.75 52.59375 71.296875 
z
" id="DejaVuSans-54"/>
       </defs>
       <use xlink:href="#DejaVuSans-54"/>
       <use x="63.623047" xlink:href="#DejaVuSans-48"/>
      </g>
     </g>
    </g>
    <g id="xtick_5">
     <g id="line2d_5">
      <g>
       <use style="stroke:#000000;stroke-width:0.8;" x="501.283451" xlink:href="#mc4979e91b6" y="466.5024"/>
      </g>
     </g>
     <g id="text_5">
      <!-- 80 -->
      <g transform="translate(494.920951 481.100838)scale(0.1 -0.1)">
       <defs>
        <path d="M 31.78125 34.625 
Q 24.75 34.625 20.71875 30.859375 
Q 16.703125 27.09375 16.703125 20.515625 
Q 16.703125 13.921875 20.71875 10.15625 
Q 24.75 6.390625 31.78125 6.390625 
Q 38.8125 6.390625 42.859375 10.171875 
Q 46.921875 13.96875 46.921875 20.515625 
Q 46.921875 27.09375 42.890625 30.859375 
Q 38.875 34.625 31.78125 34.625 
z
M 21.921875 38.8125 
Q 15.578125 40.375 12.03125 44.71875 
Q 8.5 49.078125 8.5 55.328125 
Q 8.5 64.0625 14.71875 69.140625 
Q 20.953125 74.21875 31.78125 74.21875 
Q 42.671875 74.21875 48.875 69.140625 
Q 55.078125 64.0625 55.078125 55.328125 
Q 55.078125 49.078125 51.53125 44.71875 
Q 48 40.375 41.703125 38.8125 
Q 48.828125 37.15625 52.796875 32.3125 
Q 56.78125 27.484375 56.78125 20.515625 
Q 56.78125 9.90625 50.3125 4.234375 
Q 43.84375 -1.421875 31.78125 -1.421875 
Q 19.734375 -1.421875 13.25 4.234375 
Q 6.78125 9.90625 6.78125 20.515625 
Q 6.78125 27.484375 10.78125 32.3125 
Q 14.796875 37.15625 21.921875 38.8125 
z
M 18.3125 54.390625 
Q 18.3125 48.734375 21.84375 45.5625 
Q 25.390625 42.390625 31.78125 42.390625 
Q 38.140625 42.390625 41.71875 45.5625 
Q 45.3125 48.734375 45.3125 54.390625 
Q 45.3125 60.0625 41.71875 63.234375 
Q 38.140625 66.40625 31.78125 66.40625 
Q 25.390625 66.40625 21.84375 63.234375 
Q 18.3125 60.0625 18.3125 54.390625 
z
" id="DejaVuSans-56"/>
       </defs>
       <use xlink:href="#DejaVuSans-56"/>
       <use x="63.623047" xlink:href="#DejaVuSans-48"/>
      </g>
     </g>
    </g>
    <g id="xtick_6">
     <g id="line2d_6">
      <g>
       <use style="stroke:#000000;stroke-width:0.8;" x="590.985791" xlink:href="#mc4979e91b6" y="466.5024"/>
      </g>
     </g>
     <g id="text_6">
      <!-- 100 -->
      <g transform="translate(581.442041 481.100838)scale(0.1 -0.1)">
       <defs>
        <path d="M 12.40625 8.296875 
L 28.515625 8.296875 
L 28.515625 63.921875 
L 10.984375 60.40625 
L 10.984375 69.390625 
L 28.421875 72.90625 
L 38.28125 72.90625 
L 38.28125 8.296875 
L 54.390625 8.296875 
L 54.390625 0 
L 12.40625 0 
z
" id="DejaVuSans-49"/>
       </defs>
       <use xlink:href="#DejaVuSans-49"/>
       <use x="63.623047" xlink:href="#DejaVuSans-48"/>
       <use x="127.246094" xlink:href="#DejaVuSans-48"/>
      </g>
     </g>
    </g>
    <g id="xtick_7">
     <g id="line2d_7">
      <g>
       <use style="stroke:#000000;stroke-width:0.8;" x="680.688131" xlink:href="#mc4979e91b6" y="466.5024"/>
      </g>
     </g>
     <g id="text_7">
      <!-- 120 -->
      <g transform="translate(671.144381 481.100838)scale(0.1 -0.1)">
       <use xlink:href="#DejaVuSans-49"/>
       <use x="63.623047" xlink:href="#DejaVuSans-50"/>
       <use x="127.246094" xlink:href="#DejaVuSans-48"/>
      </g>
     </g>
    </g>
    <g id="xtick_8">
     <g id="line2d_8">
      <g>
       <use style="stroke:#000000;stroke-width:0.8;" x="770.390471" xlink:href="#mc4979e91b6" y="466.5024"/>
      </g>
     </g>
     <g id="text_8">
      <!-- 140 -->
      <g transform="translate(760.846721 481.100838)scale(0.1 -0.1)">
       <use xlink:href="#DejaVuSans-49"/>
       <use x="63.623047" xlink:href="#DejaVuSans-52"/>
       <use x="127.246094" xlink:href="#DejaVuSans-48"/>
      </g>
     </g>
    </g>
   </g>
   <g id="matplotlib.axis_2">
    <g id="ytick_1">
     <g id="line2d_9">
      <defs>
       <path d="M 0 0 
L -3.5 0 
" id="mb4247de643" style="stroke:#000000;stroke-width:0.8;"/>
      </defs>
      <g>
       <use style="stroke:#000000;stroke-width:0.8;" x="111.15" xlink:href="#mb4247de643" y="448.1568"/>
      </g>
     </g>
     <g id="text_9">
      <!-- 0.0000 -->
      <g transform="translate(69.159375 451.956019)scale(0.1 -0.1)">
       <defs>
        <path d="M 10.6875 12.40625 
L 21 12.40625 
L 21 0 
L 10.6875 0 
z
" id="DejaVuSans-46"/>
       </defs>
       <use xlink:href="#DejaVuSans-48"/>
       <use x="63.623047" xlink:href="#DejaVuSans-46"/>
       <use x="95.410156" xlink:href="#DejaVuSans-48"/>
       <use x="159.033203" xlink:href="#DejaVuSans-48"/>
       <use x="222.65625" xlink:href="#DejaVuSans-48"/>
       <use x="286.279297" xlink:href="#DejaVuSans-48"/>
      </g>
     </g>
    </g>
    <g id="ytick_2">
     <g id="line2d_10">
      <g>
       <use style="stroke:#000000;stroke-width:0.8;" x="111.15" xlink:href="#mb4247de643" y="399.634631"/>
      </g>
     </g>
     <g id="text_10">
      <!-- 0.0025 -->
      <g transform="translate(69.159375 403.43385)scale(0.1 -0.1)">
       <defs>
        <path d="M 10.796875 72.90625 
L 49.515625 72.90625 
L 49.515625 64.59375 
L 19.828125 64.59375 
L 19.828125 46.734375 
Q 21.96875 47.46875 24.109375 47.828125 
Q 26.265625 48.1875 28.421875 48.1875 
Q 40.625 48.1875 47.75 41.5 
Q 54.890625 34.8125 54.890625 23.390625 
Q 54.890625 11.625 47.5625 5.09375 
Q 40.234375 -1.421875 26.90625 -1.421875 
Q 22.3125 -1.421875 17.546875 -0.640625 
Q 12.796875 0.140625 7.71875 1.703125 
L 7.71875 11.625 
Q 12.109375 9.234375 16.796875 8.0625 
Q 21.484375 6.890625 26.703125 6.890625 
Q 35.15625 6.890625 40.078125 11.328125 
Q 45.015625 15.765625 45.015625 23.390625 
Q 45.015625 31 40.078125 35.4375 
Q 35.15625 39.890625 26.703125 39.890625 
Q 22.75 39.890625 18.8125 39.015625 
Q 14.890625 38.140625 10.796875 36.28125 
z
" id="DejaVuSans-53"/>
       </defs>
       <use xlink:href="#DejaVuSans-48"/>
       <use x="63.623047" xlink:href="#DejaVuSans-46"/>
       <use x="95.410156" xlink:href="#DejaVuSans-48"/>
       <use x="159.033203" xlink:href="#DejaVuSans-48"/>
       <use x="222.65625" xlink:href="#DejaVuSans-50"/>
       <use x="286.279297" xlink:href="#DejaVuSans-53"/>
      </g>
     </g>
    </g>
    <g id="ytick_3">
     <g id="line2d_11">
      <g>
       <use style="stroke:#000000;stroke-width:0.8;" x="111.15" xlink:href="#mb4247de643" y="351.112463"/>
      </g>
     </g>
     <g id="text_11">
      <!-- 0.0050 -->
      <g transform="translate(69.159375 354.911681)scale(0.1 -0.1)">
       <use xlink:href="#DejaVuSans-48"/>
       <use x="63.623047" xlink:href="#DejaVuSans-46"/>
       <use x="95.410156" xlink:href="#DejaVuSans-48"/>
       <use x="159.033203" xlink:href="#DejaVuSans-48"/>
       <use x="222.65625" xlink:href="#DejaVuSans-53"/>
       <use x="286.279297" xlink:href="#DejaVuSans-48"/>
      </g>
     </g>
    </g>
    <g id="ytick_4">
     <g id="line2d_12">
      <g>
       <use style="stroke:#000000;stroke-width:0.8;" x="111.15" xlink:href="#mb4247de643" y="302.590294"/>
      </g>
     </g>
     <g id="text_12">
      <!-- 0.0075 -->
      <g transform="translate(69.159375 306.389513)scale(0.1 -0.1)">
       <defs>
        <path d="M 8.203125 72.90625 
L 55.078125 72.90625 
L 55.078125 68.703125 
L 28.609375 0 
L 18.3125 0 
L 43.21875 64.59375 
L 8.203125 64.59375 
z
" id="DejaVuSans-55"/>
       </defs>
       <use xlink:href="#DejaVuSans-48"/>
       <use x="63.623047" xlink:href="#DejaVuSans-46"/>
       <use x="95.410156" xlink:href="#DejaVuSans-48"/>
       <use x="159.033203" xlink:href="#DejaVuSans-48"/>
       <use x="222.65625" xlink:href="#DejaVuSans-55"/>
       <use x="286.279297" xlink:href="#DejaVuSans-53"/>
      </g>
     </g>
    </g>
    <g id="ytick_5">
     <g id="line2d_13">
      <g>
       <use style="stroke:#000000;stroke-width:0.8;" x="111.15" xlink:href="#mb4247de643" y="254.068125"/>
      </g>
     </g>
     <g id="text_13">
      <!-- 0.0100 -->
      <g transform="translate(69.159375 257.867344)scale(0.1 -0.1)">
       <use xlink:href="#DejaVuSans-48"/>
       <use x="63.623047" xlink:href="#DejaVuSans-46"/>
       <use x="95.410156" xlink:href="#DejaVuSans-48"/>
       <use x="159.033203" xlink:href="#DejaVuSans-49"/>
       <use x="222.65625" xlink:href="#DejaVuSans-48"/>
       <use x="286.279297" xlink:href="#DejaVuSans-48"/>
      </g>
     </g>
    </g>
    <g id="ytick_6">
     <g id="line2d_14">
      <g>
       <use style="stroke:#000000;stroke-width:0.8;" x="111.15" xlink:href="#mb4247de643" y="205.545957"/>
      </g>
     </g>
     <g id="text_14">
      <!-- 0.0125 -->
      <g transform="translate(69.159375 209.345176)scale(0.1 -0.1)">
       <use xlink:href="#DejaVuSans-48"/>
       <use x="63.623047" xlink:href="#DejaVuSans-46"/>
       <use x="95.410156" xlink:href="#DejaVuSans-48"/>
       <use x="159.033203" xlink:href="#DejaVuSans-49"/>
       <use x="222.65625" xlink:href="#DejaVuSans-50"/>
       <use x="286.279297" xlink:href="#DejaVuSans-53"/>
      </g>
     </g>
    </g>
    <g id="ytick_7">
     <g id="line2d_15">
      <g>
       <use style="stroke:#000000;stroke-width:0.8;" x="111.15" xlink:href="#mb4247de643" y="157.023788"/>
      </g>
     </g>
     <g id="text_15">
      <!-- 0.0150 -->
      <g transform="translate(69.159375 160.823007)scale(0.1 -0.1)">
       <use xlink:href="#DejaVuSans-48"/>
       <use x="63.623047" xlink:href="#DejaVuSans-46"/>
       <use x="95.410156" xlink:href="#DejaVuSans-48"/>
       <use x="159.033203" xlink:href="#DejaVuSans-49"/>
       <use x="222.65625" xlink:href="#DejaVuSans-53"/>
       <use x="286.279297" xlink:href="#DejaVuSans-48"/>
      </g>
     </g>
    </g>
    <g id="ytick_8">
     <g id="line2d_16">
      <g>
       <use style="stroke:#000000;stroke-width:0.8;" x="111.15" xlink:href="#mb4247de643" y="108.50162"/>
      </g>
     </g>
     <g id="text_16">
      <!-- 0.0175 -->
      <g transform="translate(69.159375 112.300838)scale(0.1 -0.1)">
       <use xlink:href="#DejaVuSans-48"/>
       <use x="63.623047" xlink:href="#DejaVuSans-46"/>
       <use x="95.410156" xlink:href="#DejaVuSans-48"/>
       <use x="159.033203" xlink:href="#DejaVuSans-49"/>
       <use x="222.65625" xlink:href="#DejaVuSans-55"/>
       <use x="286.279297" xlink:href="#DejaVuSans-53"/>
      </g>
     </g>
    </g>
   </g>
   <g id="line2d_17">
    <path clip-path="url(#pe3cb0746e3)" d="M 142.474091 448.156798 
L 175.710864 448.057712 
L 177.592191 447.880488 
L 178.846409 447.581474 
L 180.100627 446.970741 
L 180.727735 446.456693 
L 181.981953 444.88443 
L 183.86328 441.970613 
L 184.490389 440.799306 
L 185.117498 439.173298 
L 186.371716 435.09593 
L 186.998825 434.414184 
L 187.625934 435.443603 
L 188.880152 440.709457 
L 189.50726 443.175427 
L 190.134369 444.958844 
L 190.761478 446.139096 
L 191.388587 446.877845 
L 192.015696 447.304761 
L 192.642805 447.524171 
L 193.269914 447.59701 
L 194.524132 447.41634 
L 195.77835 446.842351 
L 196.405459 446.395886 
L 197.032568 445.803437 
L 197.659676 444.950238 
L 198.286785 443.640033 
L 198.913894 441.679879 
L 199.541003 439.069444 
L 200.795221 432.30416 
L 202.049439 424.996736 
L 202.676548 422.501309 
L 203.303657 422.032357 
L 203.930766 424.29489 
L 204.557875 428.83188 
L 205.812093 439.339609 
L 206.439201 442.954721 
L 207.06631 445.2541 
L 207.693419 446.59158 
L 208.320528 447.312572 
L 208.947637 447.679903 
L 210.201855 447.926924 
L 211.456073 447.901061 
L 213.3374 447.586382 
L 214.591618 447.44242 
L 215.845835 447.628638 
L 217.727162 448.061707 
L 219.608489 448.147018 
L 235.286212 448.156799 
L 251.591044 448.052921 
L 253.472371 447.711333 
L 254.726589 447.5377 
L 256.607916 447.515775 
L 257.235025 447.377189 
L 259.116351 446.552587 
L 259.74346 446.451159 
L 261.624787 446.496114 
L 262.879005 446.191006 
L 264.133223 445.620875 
L 266.641658 444.230286 
L 267.268767 444.197355 
L 267.895876 444.38007 
L 269.150094 445.025983 
L 269.777203 445.189709 
L 271.65853 445.016279 
L 272.285639 445.313112 
L 274.794075 447.604274 
L 276.048292 448.012193 
L 277.929619 448.145035 
L 289.21758 448.156408 
L 292.980233 448.085319 
L 294.234451 447.770888 
L 295.488669 446.993985 
L 296.742887 446.08546 
L 297.369996 445.931999 
L 297.997105 446.087292 
L 301.132649 447.513206 
L 302.386867 447.906059 
L 303.641085 448.084883 
L 306.77663 448.153249 
L 349.420037 448.156685 
L 386.419464 448.110466 
L 387.046572 448.003235 
L 387.673681 447.748005 
L 388.30079 447.310589 
L 388.927899 448.130413 
L 389.555008 446.552659 
L 390.182117 448.042885 
L 390.809226 447.109162 
L 391.436335 447.402707 
L 392.690553 447.814743 
L 393.944771 447.600688 
L 394.57188 447.348094 
L 395.826097 446.573674 
L 397.080315 445.978304 
L 397.707424 445.561153 
L 398.334533 444.771833 
L 398.961642 443.795716 
L 399.588751 443.053199 
L 400.21586 443.242332 
L 400.842969 444.325515 
L 401.470078 445.741131 
L 402.097187 446.862952 
L 402.724296 447.533859 
L 403.351405 447.853226 
L 403.978514 448.043616 
L 405.85984 448.147723 
L 421.537563 448.156449 
L 434.079742 448.1568 
L 434.706851 447.912044 
L 435.33396 448.1568 
L 452.265901 448.1568 
L 452.89301 447.843489 
L 453.520119 448.1568 
L 454.147228 448.150141 
L 454.774337 447.14267 
L 455.401446 446.95217 
L 456.028554 448.156422 
L 456.655663 446.908595 
L 457.282772 448.156791 
L 461.045426 448.032308 
L 461.672535 447.867613 
L 462.299644 448.1568 
L 463.553862 448.1568 
L 464.180971 446.531231 
L 464.808079 448.1568 
L 465.435188 446.386847 
L 466.062297 447.948645 
L 466.689406 448.1568 
L 467.943624 448.1568 
L 468.570733 446.603831 
L 469.197842 448.1568 
L 469.824951 446.994298 
L 470.45206 448.1568 
L 474.214713 448.1568 
L 474.841822 441.010312 
L 475.468931 448.1568 
L 478.604476 448.1568 
L 479.231585 426.202387 
L 479.858694 448.1568 
L 491.146654 448.1568 
L 491.773763 444.918473 
L 492.400872 448.1568 
L 503.688833 448.1568 
L 504.315942 400.59729 
L 504.943051 448.1568 
L 507.451486 448.1568 
L 508.078595 400.257058 
L 508.705704 448.1568 
L 511.21414 448.1568 
L 511.841249 398.452119 
L 512.468358 81.2448 
L 513.095467 448.1568 
L 516.231011 448.1568 
L 516.85812 404.484676 
L 517.485229 448.1568 
L 518.112338 395.951949 
L 518.739447 448.1568 
L 519.993665 448.1568 
L 520.620774 437.658659 
L 521.247883 448.1568 
L 522.502101 448.1568 
L 523.12921 415.910253 
L 523.756319 441.251428 
L 524.383428 448.1568 
L 525.637645 448.114271 
L 526.264754 441.632602 
L 526.891863 441.636246 
L 527.518972 448.1568 
L 528.77319 448.1568 
L 529.400299 439.647393 
L 530.027408 448.1568 
L 533.162952 448.1568 
L 533.790061 413.209766 
L 534.41717 448.1568 
L 541.942477 448.1568 
L 542.569586 447.076455 
L 543.196695 448.1568 
L 558.24731 448.1568 
L 558.874419 421.881473 
L 559.501527 448.027871 
L 560.128636 448.1568 
L 562.637072 448.1568 
L 563.264181 447.952242 
L 563.89129 448.1568 
L 565.772617 448.1568 
L 566.399726 446.747129 
L 567.026835 448.1568 
L 567.653943 446.819702 
L 568.281052 448.1568 
L 570.789488 448.1568 
L 571.416597 108.305192 
L 572.043706 446.660319 
L 572.670815 448.1568 
L 576.433468 448.1568 
L 577.060577 448.019741 
L 577.687686 448.1568 
L 578.941904 448.1568 
L 579.569013 352.870726 
L 580.196122 333.399466 
L 580.823231 317.645389 
L 581.45034 448.1568 
L 582.704558 448.1568 
L 583.331667 277.490065 
L 583.958776 423.328207 
L 584.585885 423.474321 
L 585.212993 409.224191 
L 585.840102 354.111211 
L 586.467211 448.1568 
L 587.09432 448.1568 
L 587.721429 442.33602 
L 588.348538 401.779842 
L 588.975647 448.1568 
L 591.484083 448.1568 
L 592.111192 447.278389 
L 592.738301 446.000697 
L 593.36541 442.441884 
L 593.992518 448.1568 
L 595.246736 448.1568 
L 595.873845 440.806802 
L 596.500954 435.07195 
L 597.128063 439.030381 
L 597.755172 448.1568 
L 598.382281 447.580498 
L 599.00939 448.1568 
L 599.636499 448.1568 
L 600.263608 446.52813 
L 600.890717 448.1568 
L 601.517826 416.987126 
L 602.144934 436.545668 
L 602.772043 448.1568 
L 603.399152 448.1568 
L 604.026261 440.145532 
L 604.65337 445.942322 
L 605.280479 445.700903 
L 605.907588 438.649936 
L 606.534697 439.974683 
L 607.161806 439.998626 
L 607.788915 438.987452 
L 608.416024 436.086424 
L 609.043133 402.774642 
L 609.670242 434.872251 
L 610.297351 395.421868 
L 610.924459 393.347081 
L 611.551568 431.156333 
L 612.178677 433.057882 
L 612.805786 433.679834 
L 613.432895 434.05612 
L 614.060004 437.930866 
L 614.687113 438.356995 
L 615.314222 441.567217 
L 615.941331 442.256927 
L 616.56844 444.385006 
L 617.195549 414.710921 
L 617.822658 443.41387 
L 618.449767 443.171234 
L 619.076876 416.50657 
L 619.703984 416.883366 
L 620.331093 443.421486 
L 620.958202 442.93468 
L 621.585311 418.908179 
L 622.21242 420.07925 
L 622.839529 419.560086 
L 623.466638 419.221096 
L 624.093747 418.599823 
L 624.720856 438.14238 
L 625.347965 417.686505 
L 625.975074 417.210242 
L 626.602183 416.027481 
L 627.229292 413.541917 
L 627.8564 418.263475 
L 628.483509 410.874444 
L 629.110618 399.682236 
L 629.737727 396.837352 
L 630.364836 396.989608 
L 631.619054 406.051141 
L 632.873272 419.367948 
L 633.500381 424.900461 
L 634.12749 429.244123 
L 634.754599 432.566974 
L 635.381708 435.137565 
L 636.008817 437.154354 
L 636.635925 438.759703 
L 637.263034 440.00759 
L 637.890143 440.909637 
L 638.517252 441.491552 
L 639.144361 441.759581 
L 639.77147 441.726862 
L 640.398579 441.421506 
L 641.652797 440.471571 
L 642.279906 440.277183 
L 642.907015 440.417171 
L 644.161233 441.17189 
L 644.788342 441.349996 
L 645.41545 441.167737 
L 646.042559 440.593545 
L 646.669668 439.707588 
L 649.805213 434.401151 
L 651.059431 432.632639 
L 652.313649 430.435302 
L 652.940758 429.019354 
L 653.567867 427.186366 
L 654.194975 424.626037 
L 654.822084 421.068139 
L 656.076302 411.181343 
L 657.957629 393.979286 
L 658.584738 387.131588 
L 661.093174 353.813347 
L 661.720283 348.40984 
L 662.9745 341.396081 
L 663.601609 338.757208 
L 664.228718 336.941348 
L 664.855827 336.135061 
L 665.482936 336.781354 
L 666.110045 339.309423 
L 666.737154 344.117732 
L 667.991372 359.266252 
L 669.24559 375.310645 
L 670.499808 387.783006 
L 671.126916 392.16389 
L 671.754025 395.452908 
L 672.381134 397.993089 
L 673.008243 399.962744 
L 673.635352 401.555477 
L 674.88957 403.867276 
L 675.516679 404.668221 
L 676.143788 405.249319 
L 676.770897 405.639699 
L 677.398006 405.866678 
L 678.025115 405.95461 
L 678.652224 405.918473 
L 679.906441 405.542463 
L 683.041986 404.246544 
L 684.923313 403.832398 
L 686.80464 403.371884 
L 688.058857 402.765395 
L 689.313075 401.753502 
L 690.567293 400.287079 
L 691.821511 398.339331 
L 693.075729 395.965416 
L 694.957056 391.870697 
L 698.719709 382.894539 
L 701.855254 375.661158 
L 704.36369 370.404483 
L 706.872125 365.735342 
L 709.380561 361.648586 
L 711.261888 358.934606 
L 713.770324 355.771753 
L 716.278759 353.048012 
L 718.160086 351.279576 
L 720.668522 349.226981 
L 723.176957 347.499948 
L 725.058284 346.366884 
L 729.448047 344.249684 
L 733.2107 342.860547 
L 738.227572 341.530933 
L 741.363116 340.888086 
L 747.007097 340.0687 
L 751.396859 339.606569 
L 757.040839 339.194251 
L 768.955909 338.741244 
L 768.955909 338.741244 
" style="fill:none;stroke:#1f77b4;stroke-linecap:square;stroke-width:1.5;"/>
   </g>
   <g id="patch_3">
    <path d="M 111.15 466.5024 
L 111.15 62.8992 
" style="fill:none;stroke:#000000;stroke-linecap:square;stroke-linejoin:miter;stroke-width:0.8;"/>
   </g>
   <g id="patch_4">
    <path d="M 800.28 466.5024 
L 800.28 62.8992 
" style="fill:none;stroke:#000000;stroke-linecap:square;stroke-linejoin:miter;stroke-width:0.8;"/>
   </g>
   <g id="patch_5">
    <path d="M 111.15 466.5024 
L 800.28 466.5024 
" style="fill:none;stroke:#000000;stroke-linecap:square;stroke-linejoin:miter;stroke-width:0.8;"/>
   </g>
   <g id="patch_6">
    <path d="M 111.15 62.8992 
L 800.28 62.8992 
" style="fill:none;stroke:#000000;stroke-linecap:square;stroke-linejoin:miter;stroke-width:0.8;"/>
   </g>
   <g id="text_17">
    <!-- 9.7 -->
    <g transform="translate(185.979726 425.254336)scale(0.1 -0.1)">
     <defs>
      <path d="M 10.984375 1.515625 
L 10.984375 10.5 
Q 14.703125 8.734375 18.5 7.8125 
Q 22.3125 6.890625 25.984375 6.890625 
Q 35.75 6.890625 40.890625 13.453125 
Q 46.046875 20.015625 46.78125 33.40625 
Q 43.953125 29.203125 39.59375 26.953125 
Q 35.25 24.703125 29.984375 24.703125 
Q 19.046875 24.703125 12.671875 31.3125 
Q 6.296875 37.9375 6.296875 49.421875 
Q 6.296875 60.640625 12.9375 67.421875 
Q 19.578125 74.21875 30.609375 74.21875 
Q 43.265625 74.21875 49.921875 64.515625 
Q 56.59375 54.828125 56.59375 36.375 
Q 56.59375 19.140625 48.40625 8.859375 
Q 40.234375 -1.421875 26.421875 -1.421875 
Q 22.703125 -1.421875 18.890625 -0.6875 
Q 15.09375 0.046875 10.984375 1.515625 
z
M 30.609375 32.421875 
Q 37.25 32.421875 41.125 36.953125 
Q 45.015625 41.5 45.015625 49.421875 
Q 45.015625 57.28125 41.125 61.84375 
Q 37.25 66.40625 30.609375 66.40625 
Q 23.96875 66.40625 20.09375 61.84375 
Q 16.21875 57.28125 16.21875 49.421875 
Q 16.21875 41.5 20.09375 36.953125 
Q 23.96875 32.421875 30.609375 32.421875 
z
" id="DejaVuSans-57"/>
     </defs>
     <use xlink:href="#DejaVuSans-57"/>
     <use x="63.623047" xlink:href="#DejaVuSans-46"/>
     <use x="95.410156" xlink:href="#DejaVuSans-55"/>
    </g>
   </g>
   <g id="text_18">
    <!-- 13.5 -->
    <g transform="translate(203.02317 422.731184)scale(0.1 -0.1)">
     <defs>
      <path d="M 40.578125 39.3125 
Q 47.65625 37.796875 51.625 33 
Q 55.609375 28.21875 55.609375 21.1875 
Q 55.609375 10.40625 48.1875 4.484375 
Q 40.765625 -1.421875 27.09375 -1.421875 
Q 22.515625 -1.421875 17.65625 -0.515625 
Q 12.796875 0.390625 7.625 2.203125 
L 7.625 11.71875 
Q 11.71875 9.328125 16.59375 8.109375 
Q 21.484375 6.890625 26.8125 6.890625 
Q 36.078125 6.890625 40.9375 10.546875 
Q 45.796875 14.203125 45.796875 21.1875 
Q 45.796875 27.640625 41.28125 31.265625 
Q 36.765625 34.90625 28.71875 34.90625 
L 20.21875 34.90625 
L 20.21875 43.015625 
L 29.109375 43.015625 
Q 36.375 43.015625 40.234375 45.921875 
Q 44.09375 48.828125 44.09375 54.296875 
Q 44.09375 59.90625 40.109375 62.90625 
Q 36.140625 65.921875 28.71875 65.921875 
Q 24.65625 65.921875 20.015625 65.03125 
Q 15.375 64.15625 9.8125 62.3125 
L 9.8125 71.09375 
Q 15.4375 72.65625 20.34375 73.4375 
Q 25.25 74.21875 29.59375 74.21875 
Q 40.828125 74.21875 47.359375 69.109375 
Q 53.90625 64.015625 53.90625 55.328125 
Q 53.90625 49.265625 50.4375 45.09375 
Q 46.96875 40.921875 40.578125 39.3125 
z
" id="DejaVuSans-51"/>
     </defs>
     <use xlink:href="#DejaVuSans-49"/>
     <use x="63.623047" xlink:href="#DejaVuSans-51"/>
     <use x="127.246094" xlink:href="#DejaVuSans-46"/>
     <use x="159.033203" xlink:href="#DejaVuSans-53"/>
    </g>
   </g>
   <g id="text_19">
    <!-- PG2130099 -->
    <g transform="translate(420.725625 56.8992)scale(0.12 -0.12)">
     <defs>
      <path d="M 19.671875 64.796875 
L 19.671875 37.40625 
L 32.078125 37.40625 
Q 38.96875 37.40625 42.71875 40.96875 
Q 46.484375 44.53125 46.484375 51.125 
Q 46.484375 57.671875 42.71875 61.234375 
Q 38.96875 64.796875 32.078125 64.796875 
z
M 9.8125 72.90625 
L 32.078125 72.90625 
Q 44.34375 72.90625 50.609375 67.359375 
Q 56.890625 61.8125 56.890625 51.125 
Q 56.890625 40.328125 50.609375 34.8125 
Q 44.34375 29.296875 32.078125 29.296875 
L 19.671875 29.296875 
L 19.671875 0 
L 9.8125 0 
z
" id="DejaVuSans-80"/>
      <path d="M 59.515625 10.40625 
L 59.515625 29.984375 
L 43.40625 29.984375 
L 43.40625 38.09375 
L 69.28125 38.09375 
L 69.28125 6.78125 
Q 63.578125 2.734375 56.6875 0.65625 
Q 49.8125 -1.421875 42 -1.421875 
Q 24.90625 -1.421875 15.25 8.5625 
Q 5.609375 18.5625 5.609375 36.375 
Q 5.609375 54.25 15.25 64.234375 
Q 24.90625 74.21875 42 74.21875 
Q 49.125 74.21875 55.546875 72.453125 
Q 61.96875 70.703125 67.390625 67.28125 
L 67.390625 56.78125 
Q 61.921875 61.421875 55.765625 63.765625 
Q 49.609375 66.109375 42.828125 66.109375 
Q 29.4375 66.109375 22.71875 58.640625 
Q 16.015625 51.171875 16.015625 36.375 
Q 16.015625 21.625 22.71875 14.15625 
Q 29.4375 6.6875 42.828125 6.6875 
Q 48.046875 6.6875 52.140625 7.59375 
Q 56.25 8.5 59.515625 10.40625 
z
" id="DejaVuSans-71"/>
     </defs>
     <use xlink:href="#DejaVuSans-80"/>
     <use x="60.302734" xlink:href="#DejaVuSans-71"/>
     <use x="137.792969" xlink:href="#DejaVuSans-50"/>
     <use x="201.416016" xlink:href="#DejaVuSans-49"/>
     <use x="265.039062" xlink:href="#DejaVuSans-51"/>
     <use x="328.662109" xlink:href="#DejaVuSans-48"/>
     <use x="392.285156" xlink:href="#DejaVuSans-48"/>
     <use x="455.908203" xlink:href="#DejaVuSans-57"/>
     <use x="519.53125" xlink:href="#DejaVuSans-57"/>
    </g>
   </g>
  </g>
 </g>
 <defs>
  <clipPath id="pe3cb0746e3">
   <rect height="403.6032" width="689.13" x="111.15" y="62.8992"/>
  </clipPath>
 </defs>
</svg>
