<?xml version="1.0" encoding="utf-8" standalone="no"?>
<!DOCTYPE svg PUBLIC "-//W3C//DTD SVG 1.1//EN"
  "http://www.w3.org/Graphics/SVG/1.1/DTD/svg11.dtd">
<svg height="524.16pt" version="1.1" viewBox="0 0 889.2 524.16" width="889.2pt" xmlns="http://www.w3.org/2000/svg" xmlns:xlink="http://www.w3.org/1999/xlink">
 <metadata>
  <rdf:RDF xmlns:cc="http://creativecommons.org/ns#" xmlns:dc="http://purl.org/dc/elements/1.1/" xmlns:rdf="http://www.w3.org/1999/02/22-rdf-syntax-ns#">
   <cc:Work>
    <dc:type rdf:resource="http://purl.org/dc/dcmitype/StillImage"/>
    <dc:date>2022-06-01T15:52:42.545619</dc:date>
    <dc:format>image/svg+xml</dc:format>
    <dc:creator>
     <cc:Agent>
      <dc:title>Matplotlib v3.4.3, https://matplotlib.org/</dc:title>
     </cc:Agent>
    </dc:creator>
   </cc:Work>
  </rdf:RDF>
 </metadata>
 <defs>
  <style type="text/css">*{stroke-linecap:butt;stroke-linejoin:round;}</style>
 </defs>
 <g id="figure_1">
  <g id="patch_1">
   <path d="M 0 524.16 
L 889.2 524.16 
L 889.2 0 
L 0 0 
z
" style="fill:#ffffff;"/>
  </g>
  <g id="axes_1">
   <g id="patch_2">
    <path d="M 111.15 466.5024 
L 800.28 466.5024 
L 800.28 62.8992 
L 111.15 62.8992 
z
" style="fill:#ffffff;"/>
   </g>
   <g id="matplotlib.axis_1">
    <g id="xtick_1">
     <g id="line2d_1">
      <defs>
       <path d="M 0 0 
L 0 3.5 
" id="m1a0c727882" style="stroke:#000000;stroke-width:0.8;"/>
      </defs>
      <g>
       <use style="stroke:#000000;stroke-width:0.8;" x="142.474091" xlink:href="#m1a0c727882" y="466.5024"/>
      </g>
     </g>
     <g id="text_1">
      <!-- 0 -->
      <g transform="translate(139.292841 481.100838)scale(0.1 -0.1)">
       <defs>
        <path d="M 2034 4250 
Q 1547 4250 1301 3770 
Q 1056 3291 1056 2328 
Q 1056 1369 1301 889 
Q 1547 409 2034 409 
Q 2525 409 2770 889 
Q 3016 1369 3016 2328 
Q 3016 3291 2770 3770 
Q 2525 4250 2034 4250 
z
M 2034 4750 
Q 2819 4750 3233 4129 
Q 3647 3509 3647 2328 
Q 3647 1150 3233 529 
Q 2819 -91 2034 -91 
Q 1250 -91 836 529 
Q 422 1150 422 2328 
Q 422 3509 836 4129 
Q 1250 4750 2034 4750 
z
" id="DejaVuSans-30" transform="scale(0.015625)"/>
       </defs>
       <use xlink:href="#DejaVuSans-30"/>
      </g>
     </g>
    </g>
    <g id="xtick_2">
     <g id="line2d_2">
      <g>
       <use style="stroke:#000000;stroke-width:0.8;" x="231.33676" xlink:href="#m1a0c727882" y="466.5024"/>
      </g>
     </g>
     <g id="text_2">
      <!-- 20 -->
      <g transform="translate(224.97426 481.100838)scale(0.1 -0.1)">
       <defs>
        <path d="M 1228 531 
L 3431 531 
L 3431 0 
L 469 0 
L 469 531 
Q 828 903 1448 1529 
Q 2069 2156 2228 2338 
Q 2531 2678 2651 2914 
Q 2772 3150 2772 3378 
Q 2772 3750 2511 3984 
Q 2250 4219 1831 4219 
Q 1534 4219 1204 4116 
Q 875 4013 500 3803 
L 500 4441 
Q 881 4594 1212 4672 
Q 1544 4750 1819 4750 
Q 2544 4750 2975 4387 
Q 3406 4025 3406 3419 
Q 3406 3131 3298 2873 
Q 3191 2616 2906 2266 
Q 2828 2175 2409 1742 
Q 1991 1309 1228 531 
z
" id="DejaVuSans-32" transform="scale(0.015625)"/>
       </defs>
       <use xlink:href="#DejaVuSans-32"/>
       <use x="63.623047" xlink:href="#DejaVuSans-30"/>
      </g>
     </g>
    </g>
    <g id="xtick_3">
     <g id="line2d_3">
      <g>
       <use style="stroke:#000000;stroke-width:0.8;" x="320.199429" xlink:href="#m1a0c727882" y="466.5024"/>
      </g>
     </g>
     <g id="text_3">
      <!-- 40 -->
      <g transform="translate(313.836929 481.100838)scale(0.1 -0.1)">
       <defs>
        <path d="M 2419 4116 
L 825 1625 
L 2419 1625 
L 2419 4116 
z
M 2253 4666 
L 3047 4666 
L 3047 1625 
L 3713 1625 
L 3713 1100 
L 3047 1100 
L 3047 0 
L 2419 0 
L 2419 1100 
L 313 1100 
L 313 1709 
L 2253 4666 
z
" id="DejaVuSans-34" transform="scale(0.015625)"/>
       </defs>
       <use xlink:href="#DejaVuSans-34"/>
       <use x="63.623047" xlink:href="#DejaVuSans-30"/>
      </g>
     </g>
    </g>
    <g id="xtick_4">
     <g id="line2d_4">
      <g>
       <use style="stroke:#000000;stroke-width:0.8;" x="409.062099" xlink:href="#m1a0c727882" y="466.5024"/>
      </g>
     </g>
     <g id="text_4">
      <!-- 60 -->
      <g transform="translate(402.699599 481.100838)scale(0.1 -0.1)">
       <defs>
        <path d="M 2113 2584 
Q 1688 2584 1439 2293 
Q 1191 2003 1191 1497 
Q 1191 994 1439 701 
Q 1688 409 2113 409 
Q 2538 409 2786 701 
Q 3034 994 3034 1497 
Q 3034 2003 2786 2293 
Q 2538 2584 2113 2584 
z
M 3366 4563 
L 3366 3988 
Q 3128 4100 2886 4159 
Q 2644 4219 2406 4219 
Q 1781 4219 1451 3797 
Q 1122 3375 1075 2522 
Q 1259 2794 1537 2939 
Q 1816 3084 2150 3084 
Q 2853 3084 3261 2657 
Q 3669 2231 3669 1497 
Q 3669 778 3244 343 
Q 2819 -91 2113 -91 
Q 1303 -91 875 529 
Q 447 1150 447 2328 
Q 447 3434 972 4092 
Q 1497 4750 2381 4750 
Q 2619 4750 2861 4703 
Q 3103 4656 3366 4563 
z
" id="DejaVuSans-36" transform="scale(0.015625)"/>
       </defs>
       <use xlink:href="#DejaVuSans-36"/>
       <use x="63.623047" xlink:href="#DejaVuSans-30"/>
      </g>
     </g>
    </g>
    <g id="xtick_5">
     <g id="line2d_5">
      <g>
       <use style="stroke:#000000;stroke-width:0.8;" x="497.924768" xlink:href="#m1a0c727882" y="466.5024"/>
      </g>
     </g>
     <g id="text_5">
      <!-- 80 -->
      <g transform="translate(491.562268 481.100838)scale(0.1 -0.1)">
       <defs>
        <path d="M 2034 2216 
Q 1584 2216 1326 1975 
Q 1069 1734 1069 1313 
Q 1069 891 1326 650 
Q 1584 409 2034 409 
Q 2484 409 2743 651 
Q 3003 894 3003 1313 
Q 3003 1734 2745 1975 
Q 2488 2216 2034 2216 
z
M 1403 2484 
Q 997 2584 770 2862 
Q 544 3141 544 3541 
Q 544 4100 942 4425 
Q 1341 4750 2034 4750 
Q 2731 4750 3128 4425 
Q 3525 4100 3525 3541 
Q 3525 3141 3298 2862 
Q 3072 2584 2669 2484 
Q 3125 2378 3379 2068 
Q 3634 1759 3634 1313 
Q 3634 634 3220 271 
Q 2806 -91 2034 -91 
Q 1263 -91 848 271 
Q 434 634 434 1313 
Q 434 1759 690 2068 
Q 947 2378 1403 2484 
z
M 1172 3481 
Q 1172 3119 1398 2916 
Q 1625 2713 2034 2713 
Q 2441 2713 2670 2916 
Q 2900 3119 2900 3481 
Q 2900 3844 2670 4047 
Q 2441 4250 2034 4250 
Q 1625 4250 1398 4047 
Q 1172 3844 1172 3481 
z
" id="DejaVuSans-38" transform="scale(0.015625)"/>
       </defs>
       <use xlink:href="#DejaVuSans-38"/>
       <use x="63.623047" xlink:href="#DejaVuSans-30"/>
      </g>
     </g>
    </g>
    <g id="xtick_6">
     <g id="line2d_6">
      <g>
       <use style="stroke:#000000;stroke-width:0.8;" x="586.787437" xlink:href="#m1a0c727882" y="466.5024"/>
      </g>
     </g>
     <g id="text_6">
      <!-- 100 -->
      <g transform="translate(577.243687 481.100838)scale(0.1 -0.1)">
       <defs>
        <path d="M 794 531 
L 1825 531 
L 1825 4091 
L 703 3866 
L 703 4441 
L 1819 4666 
L 2450 4666 
L 2450 531 
L 3481 531 
L 3481 0 
L 794 0 
L 794 531 
z
" id="DejaVuSans-31" transform="scale(0.015625)"/>
       </defs>
       <use xlink:href="#DejaVuSans-31"/>
       <use x="63.623047" xlink:href="#DejaVuSans-30"/>
       <use x="127.246094" xlink:href="#DejaVuSans-30"/>
      </g>
     </g>
    </g>
    <g id="xtick_7">
     <g id="line2d_7">
      <g>
       <use style="stroke:#000000;stroke-width:0.8;" x="675.650106" xlink:href="#m1a0c727882" y="466.5024"/>
      </g>
     </g>
     <g id="text_7">
      <!-- 120 -->
      <g transform="translate(666.106356 481.100838)scale(0.1 -0.1)">
       <use xlink:href="#DejaVuSans-31"/>
       <use x="63.623047" xlink:href="#DejaVuSans-32"/>
       <use x="127.246094" xlink:href="#DejaVuSans-30"/>
      </g>
     </g>
    </g>
    <g id="xtick_8">
     <g id="line2d_8">
      <g>
       <use style="stroke:#000000;stroke-width:0.8;" x="764.512776" xlink:href="#m1a0c727882" y="466.5024"/>
      </g>
     </g>
     <g id="text_8">
      <!-- 140 -->
      <g transform="translate(754.969026 481.100838)scale(0.1 -0.1)">
       <use xlink:href="#DejaVuSans-31"/>
       <use x="63.623047" xlink:href="#DejaVuSans-34"/>
       <use x="127.246094" xlink:href="#DejaVuSans-30"/>
      </g>
     </g>
    </g>
   </g>
   <g id="matplotlib.axis_2">
    <g id="ytick_1">
     <g id="line2d_9">
      <defs>
       <path d="M 0 0 
L -3.5 0 
" id="mbc04874da8" style="stroke:#000000;stroke-width:0.8;"/>
      </defs>
      <g>
       <use style="stroke:#000000;stroke-width:0.8;" x="111.15" xlink:href="#mbc04874da8" y="448.1568"/>
      </g>
     </g>
     <g id="text_9">
      <!-- 0.0000 -->
      <g transform="translate(69.159375 451.956019)scale(0.1 -0.1)">
       <defs>
        <path d="M 684 794 
L 1344 794 
L 1344 0 
L 684 0 
L 684 794 
z
" id="DejaVuSans-2e" transform="scale(0.015625)"/>
       </defs>
       <use xlink:href="#DejaVuSans-30"/>
       <use x="63.623047" xlink:href="#DejaVuSans-2e"/>
       <use x="95.410156" xlink:href="#DejaVuSans-30"/>
       <use x="159.033203" xlink:href="#DejaVuSans-30"/>
       <use x="222.65625" xlink:href="#DejaVuSans-30"/>
       <use x="286.279297" xlink:href="#DejaVuSans-30"/>
      </g>
     </g>
    </g>
    <g id="ytick_2">
     <g id="line2d_10">
      <g>
       <use style="stroke:#000000;stroke-width:0.8;" x="111.15" xlink:href="#mbc04874da8" y="402.819635"/>
      </g>
     </g>
     <g id="text_10">
      <!-- 0.0025 -->
      <g transform="translate(69.159375 406.618853)scale(0.1 -0.1)">
       <defs>
        <path d="M 691 4666 
L 3169 4666 
L 3169 4134 
L 1269 4134 
L 1269 2991 
Q 1406 3038 1543 3061 
Q 1681 3084 1819 3084 
Q 2600 3084 3056 2656 
Q 3513 2228 3513 1497 
Q 3513 744 3044 326 
Q 2575 -91 1722 -91 
Q 1428 -91 1123 -41 
Q 819 9 494 109 
L 494 744 
Q 775 591 1075 516 
Q 1375 441 1709 441 
Q 2250 441 2565 725 
Q 2881 1009 2881 1497 
Q 2881 1984 2565 2268 
Q 2250 2553 1709 2553 
Q 1456 2553 1204 2497 
Q 953 2441 691 2322 
L 691 4666 
z
" id="DejaVuSans-35" transform="scale(0.015625)"/>
       </defs>
       <use xlink:href="#DejaVuSans-30"/>
       <use x="63.623047" xlink:href="#DejaVuSans-2e"/>
       <use x="95.410156" xlink:href="#DejaVuSans-30"/>
       <use x="159.033203" xlink:href="#DejaVuSans-30"/>
       <use x="222.65625" xlink:href="#DejaVuSans-32"/>
       <use x="286.279297" xlink:href="#DejaVuSans-35"/>
      </g>
     </g>
    </g>
    <g id="ytick_3">
     <g id="line2d_11">
      <g>
       <use style="stroke:#000000;stroke-width:0.8;" x="111.15" xlink:href="#mbc04874da8" y="357.482469"/>
      </g>
     </g>
     <g id="text_11">
      <!-- 0.0050 -->
      <g transform="translate(69.159375 361.281688)scale(0.1 -0.1)">
       <use xlink:href="#DejaVuSans-30"/>
       <use x="63.623047" xlink:href="#DejaVuSans-2e"/>
       <use x="95.410156" xlink:href="#DejaVuSans-30"/>
       <use x="159.033203" xlink:href="#DejaVuSans-30"/>
       <use x="222.65625" xlink:href="#DejaVuSans-35"/>
       <use x="286.279297" xlink:href="#DejaVuSans-30"/>
      </g>
     </g>
    </g>
    <g id="ytick_4">
     <g id="line2d_12">
      <g>
       <use style="stroke:#000000;stroke-width:0.8;" x="111.15" xlink:href="#mbc04874da8" y="312.145304"/>
      </g>
     </g>
     <g id="text_12">
      <!-- 0.0075 -->
      <g transform="translate(69.159375 315.944523)scale(0.1 -0.1)">
       <defs>
        <path d="M 525 4666 
L 3525 4666 
L 3525 4397 
L 1831 0 
L 1172 0 
L 2766 4134 
L 525 4134 
L 525 4666 
z
" id="DejaVuSans-37" transform="scale(0.015625)"/>
       </defs>
       <use xlink:href="#DejaVuSans-30"/>
       <use x="63.623047" xlink:href="#DejaVuSans-2e"/>
       <use x="95.410156" xlink:href="#DejaVuSans-30"/>
       <use x="159.033203" xlink:href="#DejaVuSans-30"/>
       <use x="222.65625" xlink:href="#DejaVuSans-37"/>
       <use x="286.279297" xlink:href="#DejaVuSans-35"/>
      </g>
     </g>
    </g>
    <g id="ytick_5">
     <g id="line2d_13">
      <g>
       <use style="stroke:#000000;stroke-width:0.8;" x="111.15" xlink:href="#mbc04874da8" y="266.808138"/>
      </g>
     </g>
     <g id="text_13">
      <!-- 0.0100 -->
      <g transform="translate(69.159375 270.607357)scale(0.1 -0.1)">
       <use xlink:href="#DejaVuSans-30"/>
       <use x="63.623047" xlink:href="#DejaVuSans-2e"/>
       <use x="95.410156" xlink:href="#DejaVuSans-30"/>
       <use x="159.033203" xlink:href="#DejaVuSans-31"/>
       <use x="222.65625" xlink:href="#DejaVuSans-30"/>
       <use x="286.279297" xlink:href="#DejaVuSans-30"/>
      </g>
     </g>
    </g>
    <g id="ytick_6">
     <g id="line2d_14">
      <g>
       <use style="stroke:#000000;stroke-width:0.8;" x="111.15" xlink:href="#mbc04874da8" y="221.470973"/>
      </g>
     </g>
     <g id="text_14">
      <!-- 0.0125 -->
      <g transform="translate(69.159375 225.270192)scale(0.1 -0.1)">
       <use xlink:href="#DejaVuSans-30"/>
       <use x="63.623047" xlink:href="#DejaVuSans-2e"/>
       <use x="95.410156" xlink:href="#DejaVuSans-30"/>
       <use x="159.033203" xlink:href="#DejaVuSans-31"/>
       <use x="222.65625" xlink:href="#DejaVuSans-32"/>
       <use x="286.279297" xlink:href="#DejaVuSans-35"/>
      </g>
     </g>
    </g>
    <g id="ytick_7">
     <g id="line2d_15">
      <g>
       <use style="stroke:#000000;stroke-width:0.8;" x="111.15" xlink:href="#mbc04874da8" y="176.133808"/>
      </g>
     </g>
     <g id="text_15">
      <!-- 0.0150 -->
      <g transform="translate(69.159375 179.933026)scale(0.1 -0.1)">
       <use xlink:href="#DejaVuSans-30"/>
       <use x="63.623047" xlink:href="#DejaVuSans-2e"/>
       <use x="95.410156" xlink:href="#DejaVuSans-30"/>
       <use x="159.033203" xlink:href="#DejaVuSans-31"/>
       <use x="222.65625" xlink:href="#DejaVuSans-35"/>
       <use x="286.279297" xlink:href="#DejaVuSans-30"/>
      </g>
     </g>
    </g>
    <g id="ytick_8">
     <g id="line2d_16">
      <g>
       <use style="stroke:#000000;stroke-width:0.8;" x="111.15" xlink:href="#mbc04874da8" y="130.796642"/>
      </g>
     </g>
     <g id="text_16">
      <!-- 0.0175 -->
      <g transform="translate(69.159375 134.595861)scale(0.1 -0.1)">
       <use xlink:href="#DejaVuSans-30"/>
       <use x="63.623047" xlink:href="#DejaVuSans-2e"/>
       <use x="95.410156" xlink:href="#DejaVuSans-30"/>
       <use x="159.033203" xlink:href="#DejaVuSans-31"/>
       <use x="222.65625" xlink:href="#DejaVuSans-37"/>
       <use x="286.279297" xlink:href="#DejaVuSans-35"/>
      </g>
     </g>
    </g>
    <g id="ytick_9">
     <g id="line2d_17">
      <g>
       <use style="stroke:#000000;stroke-width:0.8;" x="111.15" xlink:href="#mbc04874da8" y="85.459477"/>
      </g>
     </g>
     <g id="text_17">
      <!-- 0.0200 -->
      <g transform="translate(69.159375 89.258695)scale(0.1 -0.1)">
       <use xlink:href="#DejaVuSans-30"/>
       <use x="63.623047" xlink:href="#DejaVuSans-2e"/>
       <use x="95.410156" xlink:href="#DejaVuSans-30"/>
       <use x="159.033203" xlink:href="#DejaVuSans-32"/>
       <use x="222.65625" xlink:href="#DejaVuSans-30"/>
       <use x="286.279297" xlink:href="#DejaVuSans-30"/>
      </g>
     </g>
    </g>
   </g>
   <g id="line2d_18">
    <path clip-path="url(#pe9e496abdb)" d="M 142.474091 448.1568 
L 226.005 448.07521 
L 226.893627 447.922663 
L 227.33794 447.736872 
L 227.782253 447.421492 
L 228.226567 446.939522 
L 229.559507 444.902374 
L 230.00382 444.594395 
L 230.448133 444.842125 
L 232.225387 447.578185 
L 232.6697 447.852838 
L 233.558327 448.052823 
L 234.891267 448.052873 
L 236.224207 447.893275 
L 237.112834 447.576649 
L 237.557147 447.24747 
L 238.00146 446.645749 
L 238.445774 445.514785 
L 238.890087 443.53014 
L 239.3344 440.49393 
L 241.555967 420.303369 
L 242.00028 415.924499 
L 242.444594 410.124047 
L 242.888907 401.129834 
L 243.333221 385.495013 
L 243.777534 359.539892 
L 244.221847 319.889033 
L 245.110474 201.781593 
L 245.554787 140.847571 
L 245.999101 97.543647 
L 246.443414 81.2448 
L 246.887727 88.869612 
L 247.332041 109.488595 
L 247.776354 138.492155 
L 248.664981 220.813989 
L 249.997921 363.450998 
L 250.442234 396.057352 
L 250.886547 417.748386 
L 251.330861 430.486068 
L 251.775174 437.195934 
L 252.219487 440.464437 
L 252.663801 441.979547 
L 253.108114 442.586215 
L 253.552427 442.727915 
L 253.996741 442.635706 
L 254.885368 442.042256 
L 255.329681 441.547948 
L 255.773994 440.816356 
L 256.218308 439.677261 
L 257.106934 435.867827 
L 257.995561 431.784821 
L 258.439874 430.752877 
L 258.884188 430.754137 
L 259.328501 431.648908 
L 260.217128 434.627942 
L 260.661441 435.51123 
L 261.105754 435.15017 
L 261.550068 433.145261 
L 261.994381 429.064169 
L 262.438694 422.452247 
L 262.883008 412.999373 
L 264.660261 367.615573 
L 265.104574 363.647599 
L 265.548888 364.786852 
L 265.993201 370.457568 
L 266.881828 389.881458 
L 267.770455 409.894927 
L 268.214768 417.55809 
L 268.659081 423.080262 
L 269.103395 426.576272 
L 269.547708 428.682207 
L 270.436335 431.141466 
L 271.769275 433.827714 
L 272.657901 434.911012 
L 273.102215 435.148792 
L 273.546528 435.055036 
L 273.990841 434.355712 
L 274.879468 431.500176 
L 275.323781 430.124745 
L 275.768095 429.572706 
L 276.212408 430.082467 
L 276.656721 431.438877 
L 277.989662 436.860634 
L 278.433975 437.924586 
L 278.878288 438.562899 
L 279.766915 439.217331 
L 281.099855 440.077252 
L 281.988482 441.059302 
L 284.210048 444.087343 
L 285.098675 445.041265 
L 285.987302 445.632963 
L 286.431615 445.705152 
L 286.875928 445.606401 
L 287.764555 445.045301 
L 288.653182 444.538135 
L 289.097495 444.532777 
L 289.541809 444.730529 
L 291.319062 445.974207 
L 294.429255 447.649991 
L 295.762195 447.817011 
L 299.761015 447.834788 
L 302.426896 447.579625 
L 309.091596 448.086039 
L 346.85823 448.156782 
L 405.063279 448.047161 
L 415.726799 448.038159 
L 426.390319 448.105553 
L 450.38324 448.001206 
L 460.158133 447.984606 
L 464.601267 447.959818 
L 469.0444 447.955558 
L 480.596547 448.072286 
L 506.366721 447.998907 
L 511.254168 447.75668 
L 513.475735 447.423255 
L 514.808675 447.047899 
L 518.807495 445.697986 
L 520.140435 445.690001 
L 521.473375 445.940115 
L 530.359642 447.869784 
L 533.469836 448.017839 
L 536.135716 447.966513 
L 539.690222 447.894001 
L 545.910609 447.980753 
L 559.684323 447.814581 
L 562.350203 447.588598 
L 566.349023 447.442282 
L 568.126277 447.011968 
L 569.014903 446.61203 
L 569.90353 445.926928 
L 572.56941 443.256013 
L 573.458037 443.113853 
L 574.790977 443.340173 
L 576.123917 443.557626 
L 577.012544 443.540382 
L 577.90117 443.334959 
L 578.789797 442.920694 
L 579.678424 442.305524 
L 580.56705 441.483783 
L 581.455677 440.336383 
L 582.344304 438.626074 
L 582.788617 437.421783 
L 583.677244 433.915437 
L 584.56587 428.840359 
L 585.89881 419.034251 
L 587.23175 408.954371 
L 588.120377 404.160235 
L 588.564691 402.94912 
L 589.009004 402.779576 
L 589.453317 403.615846 
L 589.897631 405.473232 
L 590.786257 411.067638 
L 592.563511 422.960723 
L 593.452137 427.576784 
L 594.340764 431.020628 
L 595.229391 433.395027 
L 596.118017 434.7398 
L 596.562331 435.093441 
L 597.006644 435.294275 
L 597.450957 435.335556 
L 597.895271 435.241215 
L 598.783897 434.685642 
L 600.561151 433.184264 
L 601.005464 432.965632 
L 601.449778 432.895859 
L 601.894091 433.002052 
L 602.338404 433.300997 
L 603.227031 434.352434 
L 605.892911 438.195045 
L 606.781538 438.88917 
L 607.670164 439.154864 
L 608.558791 439.063345 
L 610.336044 438.415348 
L 612.113298 437.711272 
L 612.557611 437.380355 
L 613.001925 436.895418 
L 613.890551 435.350159 
L 614.779178 432.989472 
L 616.112118 428.287277 
L 617.445058 423.729187 
L 618.333685 421.166603 
L 619.222311 419.33007 
L 619.666625 418.829358 
L 620.110938 418.685115 
L 620.555251 419.002069 
L 620.999565 419.720118 
L 621.888191 422.339592 
L 624.109758 430.232734 
L 624.998385 432.125384 
L 625.442698 432.688116 
L 625.887012 432.985414 
L 626.331325 433.060572 
L 626.775638 432.949661 
L 627.219952 432.691228 
L 628.108578 431.772405 
L 628.997205 430.422848 
L 629.885832 428.720984 
L 632.996025 422.009283 
L 633.440338 421.462459 
L 633.884652 421.166142 
L 634.328965 421.166141 
L 634.773279 421.447962 
L 635.661905 422.747896 
L 638.772099 428.626678 
L 639.660725 429.686503 
L 640.549352 430.329992 
L 641.437979 430.599222 
L 642.326605 430.512617 
L 643.215232 430.102476 
L 644.103859 429.425194 
L 645.436799 428.067733 
L 648.102679 425.02236 
L 649.435619 423.85257 
L 652.990126 421.570166 
L 653.878752 420.485581 
L 654.767379 418.99108 
L 656.100319 416.102924 
L 657.433259 412.599211 
L 658.766199 408.498334 
L 660.099139 403.530181 
L 661.432079 398.294405 
L 662.320706 396.01276 
L 662.765019 395.455827 
L 663.209333 395.435784 
L 663.653646 395.802589 
L 664.097959 396.715354 
L 664.986586 399.202919 
L 666.763839 404.8468 
L 667.652466 406.721515 
L 668.985406 409.248051 
L 670.318346 412.476239 
L 673.872853 421.9733 
L 674.76148 423.635468 
L 675.650106 424.746743 
L 676.09442 425.048335 
L 676.538733 425.183398 
L 676.983046 425.137664 
L 677.871673 424.664732 
L 679.204613 423.292669 
L 680.981867 421.07628 
L 684.536373 416.186131 
L 685.869313 414.915738 
L 688.535193 413.246006 
L 689.868133 412.092332 
L 691.201074 410.371255 
L 695.644207 404.122905 
L 697.42146 402.372781 
L 698.7544 401.518918 
L 699.643027 401.352884 
L 700.531654 401.443443 
L 701.42028 401.822848 
L 702.308907 402.343434 
L 704.974787 404.419182 
L 706.752041 405.879669 
L 708.973607 408.04038 
L 709.862234 409.086862 
L 712.083801 411.913137 
L 712.972427 412.742784 
L 713.861054 413.250707 
L 714.749681 413.594297 
L 716.082621 413.791193 
L 717.415561 413.753316 
L 718.748501 413.579972 
L 724.080261 412.204509 
L 725.413201 412.023442 
L 726.746141 412.103148 
L 728.523395 412.551014 
L 731.189275 413.456097 
L 733.410841 414.235347 
L 736.076721 414.853649 
L 739.186915 415.427017 
L 741.408482 416.164554 
L 743.185735 416.870651 
L 746.295928 418.162194 
L 750.739062 419.613207 
L 755.182195 420.636306 
L 762.735522 421.673109 
L 768.511596 422.088443 
L 768.955909 422.123948 
L 768.955909 422.123948 
" style="fill:none;stroke:#1f77b4;stroke-linecap:square;stroke-width:1.5;"/>
   </g>
   <g id="patch_3">
    <path d="M 111.15 466.5024 
L 111.15 62.8992 
" style="fill:none;stroke:#000000;stroke-linecap:square;stroke-linejoin:miter;stroke-width:0.8;"/>
   </g>
   <g id="patch_4">
    <path d="M 800.28 466.5024 
L 800.28 62.8992 
" style="fill:none;stroke:#000000;stroke-linecap:square;stroke-linejoin:miter;stroke-width:0.8;"/>
   </g>
   <g id="patch_5">
    <path d="M 111.15 466.5024 
L 800.28 466.5024 
" style="fill:none;stroke:#000000;stroke-linecap:square;stroke-linejoin:miter;stroke-width:0.8;"/>
   </g>
   <g id="patch_6">
    <path d="M 111.15 62.8992 
L 800.28 62.8992 
" style="fill:none;stroke:#000000;stroke-linecap:square;stroke-linejoin:miter;stroke-width:0.8;"/>
   </g>
   <g id="text_18">
    <!-- 3C120 -->
    <g transform="translate(436.255313 56.8992)scale(0.12 -0.12)">
     <defs>
      <path d="M 2597 2516 
Q 3050 2419 3304 2112 
Q 3559 1806 3559 1356 
Q 3559 666 3084 287 
Q 2609 -91 1734 -91 
Q 1441 -91 1130 -33 
Q 819 25 488 141 
L 488 750 
Q 750 597 1062 519 
Q 1375 441 1716 441 
Q 2309 441 2620 675 
Q 2931 909 2931 1356 
Q 2931 1769 2642 2001 
Q 2353 2234 1838 2234 
L 1294 2234 
L 1294 2753 
L 1863 2753 
Q 2328 2753 2575 2939 
Q 2822 3125 2822 3475 
Q 2822 3834 2567 4026 
Q 2313 4219 1838 4219 
Q 1578 4219 1281 4162 
Q 984 4106 628 3988 
L 628 4550 
Q 988 4650 1302 4700 
Q 1616 4750 1894 4750 
Q 2613 4750 3031 4423 
Q 3450 4097 3450 3541 
Q 3450 3153 3228 2886 
Q 3006 2619 2597 2516 
z
" id="DejaVuSans-33" transform="scale(0.015625)"/>
      <path d="M 4122 4306 
L 4122 3641 
Q 3803 3938 3442 4084 
Q 3081 4231 2675 4231 
Q 1875 4231 1450 3742 
Q 1025 3253 1025 2328 
Q 1025 1406 1450 917 
Q 1875 428 2675 428 
Q 3081 428 3442 575 
Q 3803 722 4122 1019 
L 4122 359 
Q 3791 134 3420 21 
Q 3050 -91 2638 -91 
Q 1578 -91 968 557 
Q 359 1206 359 2328 
Q 359 3453 968 4101 
Q 1578 4750 2638 4750 
Q 3056 4750 3426 4639 
Q 3797 4528 4122 4306 
z
" id="DejaVuSans-43" transform="scale(0.015625)"/>
     </defs>
     <use xlink:href="#DejaVuSans-33"/>
     <use x="63.623047" xlink:href="#DejaVuSans-43"/>
     <use x="133.447266" xlink:href="#DejaVuSans-31"/>
     <use x="197.070312" xlink:href="#DejaVuSans-32"/>
     <use x="260.693359" xlink:href="#DejaVuSans-30"/>
    </g>
   </g>
  </g>
 </g>
 <defs>
  <clipPath id="pe9e496abdb">
   <rect height="403.6032" width="689.13" x="111.15" y="62.8992"/>
  </clipPath>
 </defs>
</svg>
