<?xml version="1.0" encoding="utf-8" standalone="no"?>
<!DOCTYPE svg PUBLIC "-//W3C//DTD SVG 1.1//EN"
  "http://www.w3.org/Graphics/SVG/1.1/DTD/svg11.dtd">
<svg height="345.6pt" version="1.1" viewBox="0 0 460.8 345.6" width="460.8pt" xmlns="http://www.w3.org/2000/svg" xmlns:xlink="http://www.w3.org/1999/xlink">
 <metadata>
  <rdf:RDF xmlns:cc="http://creativecommons.org/ns#" xmlns:dc="http://purl.org/dc/elements/1.1/" xmlns:rdf="http://www.w3.org/1999/02/22-rdf-syntax-ns#">
   <cc:Work>
    <dc:type rdf:resource="http://purl.org/dc/dcmitype/StillImage"/>
    <dc:date>2022-06-10T20:17:48.851984</dc:date>
    <dc:format>image/svg+xml</dc:format>
    <dc:creator>
     <cc:Agent>
      <dc:title>Matplotlib v3.4.3, https://matplotlib.org/</dc:title>
     </cc:Agent>
    </dc:creator>
   </cc:Work>
  </rdf:RDF>
 </metadata>
 <defs>
  <style type="text/css">*{stroke-linecap:butt;stroke-linejoin:round;}</style>
 </defs>
 <g id="figure_1">
  <g id="patch_1">
   <path d="M 0 345.6 
L 460.8 345.6 
L 460.8 0 
L 0 0 
z
" style="fill:#ffffff;"/>
  </g>
  <g id="axes_1">
   <g id="patch_2">
    <path d="M 57.6 307.584 
L 414.72 307.584 
L 414.72 41.472 
L 57.6 41.472 
z
" style="fill:#ffffff;"/>
   </g>
   <g id="matplotlib.axis_1">
    <g id="xtick_1">
     <g id="line2d_1">
      <defs>
       <path d="M 0 0 
L 0 3.5 
" id="m55953bbd88" style="stroke:#000000;stroke-width:0.8;"/>
      </defs>
      <g>
       <use style="stroke:#000000;stroke-width:0.8;" x="74.593011" xlink:href="#m55953bbd88" y="307.584"/>
      </g>
     </g>
     <g id="text_1">
      <!-- −100 -->
      <g transform="translate(60.859417 322.182437)scale(0.1 -0.1)">
       <defs>
        <path d="M 678 2272 
L 4684 2272 
L 4684 1741 
L 678 1741 
L 678 2272 
z
" id="DejaVuSans-2212" transform="scale(0.015625)"/>
        <path d="M 794 531 
L 1825 531 
L 1825 4091 
L 703 3866 
L 703 4441 
L 1819 4666 
L 2450 4666 
L 2450 531 
L 3481 531 
L 3481 0 
L 794 0 
L 794 531 
z
" id="DejaVuSans-31" transform="scale(0.015625)"/>
        <path d="M 2034 4250 
Q 1547 4250 1301 3770 
Q 1056 3291 1056 2328 
Q 1056 1369 1301 889 
Q 1547 409 2034 409 
Q 2525 409 2770 889 
Q 3016 1369 3016 2328 
Q 3016 3291 2770 3770 
Q 2525 4250 2034 4250 
z
M 2034 4750 
Q 2819 4750 3233 4129 
Q 3647 3509 3647 2328 
Q 3647 1150 3233 529 
Q 2819 -91 2034 -91 
Q 1250 -91 836 529 
Q 422 1150 422 2328 
Q 422 3509 836 4129 
Q 1250 4750 2034 4750 
z
" id="DejaVuSans-30" transform="scale(0.015625)"/>
       </defs>
       <use xlink:href="#DejaVuSans-2212"/>
       <use x="83.789062" xlink:href="#DejaVuSans-31"/>
       <use x="147.412109" xlink:href="#DejaVuSans-30"/>
       <use x="211.035156" xlink:href="#DejaVuSans-30"/>
      </g>
     </g>
    </g>
    <g id="xtick_2">
     <g id="line2d_2">
      <g>
       <use style="stroke:#000000;stroke-width:0.8;" x="143.709687" xlink:href="#m55953bbd88" y="307.584"/>
      </g>
     </g>
     <g id="text_2">
      <!-- −50 -->
      <g transform="translate(133.157344 322.182437)scale(0.1 -0.1)">
       <defs>
        <path d="M 691 4666 
L 3169 4666 
L 3169 4134 
L 1269 4134 
L 1269 2991 
Q 1406 3038 1543 3061 
Q 1681 3084 1819 3084 
Q 2600 3084 3056 2656 
Q 3513 2228 3513 1497 
Q 3513 744 3044 326 
Q 2575 -91 1722 -91 
Q 1428 -91 1123 -41 
Q 819 9 494 109 
L 494 744 
Q 775 591 1075 516 
Q 1375 441 1709 441 
Q 2250 441 2565 725 
Q 2881 1009 2881 1497 
Q 2881 1984 2565 2268 
Q 2250 2553 1709 2553 
Q 1456 2553 1204 2497 
Q 953 2441 691 2322 
L 691 4666 
z
" id="DejaVuSans-35" transform="scale(0.015625)"/>
       </defs>
       <use xlink:href="#DejaVuSans-2212"/>
       <use x="83.789062" xlink:href="#DejaVuSans-35"/>
       <use x="147.412109" xlink:href="#DejaVuSans-30"/>
      </g>
     </g>
    </g>
    <g id="xtick_3">
     <g id="line2d_3">
      <g>
       <use style="stroke:#000000;stroke-width:0.8;" x="212.826364" xlink:href="#m55953bbd88" y="307.584"/>
      </g>
     </g>
     <g id="text_3">
      <!-- 0 -->
      <g transform="translate(209.645114 322.182437)scale(0.1 -0.1)">
       <use xlink:href="#DejaVuSans-30"/>
      </g>
     </g>
    </g>
    <g id="xtick_4">
     <g id="line2d_4">
      <g>
       <use style="stroke:#000000;stroke-width:0.8;" x="281.94304" xlink:href="#m55953bbd88" y="307.584"/>
      </g>
     </g>
     <g id="text_4">
      <!-- 50 -->
      <g transform="translate(275.58054 322.182437)scale(0.1 -0.1)">
       <use xlink:href="#DejaVuSans-35"/>
       <use x="63.623047" xlink:href="#DejaVuSans-30"/>
      </g>
     </g>
    </g>
    <g id="xtick_5">
     <g id="line2d_5">
      <g>
       <use style="stroke:#000000;stroke-width:0.8;" x="351.059717" xlink:href="#m55953bbd88" y="307.584"/>
      </g>
     </g>
     <g id="text_5">
      <!-- 100 -->
      <g transform="translate(341.515967 322.182437)scale(0.1 -0.1)">
       <use xlink:href="#DejaVuSans-31"/>
       <use x="63.623047" xlink:href="#DejaVuSans-30"/>
       <use x="127.246094" xlink:href="#DejaVuSans-30"/>
      </g>
     </g>
    </g>
   </g>
   <g id="matplotlib.axis_2">
    <g id="ytick_1">
     <g id="line2d_6">
      <defs>
       <path d="M 0 0 
L -3.5 0 
" id="md390f5b39d" style="stroke:#000000;stroke-width:0.8;"/>
      </defs>
      <g>
       <use style="stroke:#000000;stroke-width:0.8;" x="57.6" xlink:href="#md390f5b39d" y="300.327229"/>
      </g>
     </g>
     <g id="text_6">
      <!-- −3 -->
      <g transform="translate(35.857813 304.126447)scale(0.1 -0.1)">
       <defs>
        <path d="M 2597 2516 
Q 3050 2419 3304 2112 
Q 3559 1806 3559 1356 
Q 3559 666 3084 287 
Q 2609 -91 1734 -91 
Q 1441 -91 1130 -33 
Q 819 25 488 141 
L 488 750 
Q 750 597 1062 519 
Q 1375 441 1716 441 
Q 2309 441 2620 675 
Q 2931 909 2931 1356 
Q 2931 1769 2642 2001 
Q 2353 2234 1838 2234 
L 1294 2234 
L 1294 2753 
L 1863 2753 
Q 2328 2753 2575 2939 
Q 2822 3125 2822 3475 
Q 2822 3834 2567 4026 
Q 2313 4219 1838 4219 
Q 1578 4219 1281 4162 
Q 984 4106 628 3988 
L 628 4550 
Q 988 4650 1302 4700 
Q 1616 4750 1894 4750 
Q 2613 4750 3031 4423 
Q 3450 4097 3450 3541 
Q 3450 3153 3228 2886 
Q 3006 2619 2597 2516 
z
" id="DejaVuSans-33" transform="scale(0.015625)"/>
       </defs>
       <use xlink:href="#DejaVuSans-2212"/>
       <use x="83.789062" xlink:href="#DejaVuSans-33"/>
      </g>
     </g>
    </g>
    <g id="ytick_2">
     <g id="line2d_7">
      <g>
       <use style="stroke:#000000;stroke-width:0.8;" x="57.6" xlink:href="#md390f5b39d" y="254.312277"/>
      </g>
     </g>
     <g id="text_7">
      <!-- −2 -->
      <g transform="translate(35.857813 258.111495)scale(0.1 -0.1)">
       <defs>
        <path d="M 1228 531 
L 3431 531 
L 3431 0 
L 469 0 
L 469 531 
Q 828 903 1448 1529 
Q 2069 2156 2228 2338 
Q 2531 2678 2651 2914 
Q 2772 3150 2772 3378 
Q 2772 3750 2511 3984 
Q 2250 4219 1831 4219 
Q 1534 4219 1204 4116 
Q 875 4013 500 3803 
L 500 4441 
Q 881 4594 1212 4672 
Q 1544 4750 1819 4750 
Q 2544 4750 2975 4387 
Q 3406 4025 3406 3419 
Q 3406 3131 3298 2873 
Q 3191 2616 2906 2266 
Q 2828 2175 2409 1742 
Q 1991 1309 1228 531 
z
" id="DejaVuSans-32" transform="scale(0.015625)"/>
       </defs>
       <use xlink:href="#DejaVuSans-2212"/>
       <use x="83.789062" xlink:href="#DejaVuSans-32"/>
      </g>
     </g>
    </g>
    <g id="ytick_3">
     <g id="line2d_8">
      <g>
       <use style="stroke:#000000;stroke-width:0.8;" x="57.6" xlink:href="#md390f5b39d" y="208.297325"/>
      </g>
     </g>
     <g id="text_8">
      <!-- −1 -->
      <g transform="translate(35.857813 212.096543)scale(0.1 -0.1)">
       <use xlink:href="#DejaVuSans-2212"/>
       <use x="83.789062" xlink:href="#DejaVuSans-31"/>
      </g>
     </g>
    </g>
    <g id="ytick_4">
     <g id="line2d_9">
      <g>
       <use style="stroke:#000000;stroke-width:0.8;" x="57.6" xlink:href="#md390f5b39d" y="162.282372"/>
      </g>
     </g>
     <g id="text_9">
      <!-- 0 -->
      <g transform="translate(44.2375 166.081591)scale(0.1 -0.1)">
       <use xlink:href="#DejaVuSans-30"/>
      </g>
     </g>
    </g>
    <g id="ytick_5">
     <g id="line2d_10">
      <g>
       <use style="stroke:#000000;stroke-width:0.8;" x="57.6" xlink:href="#md390f5b39d" y="116.26742"/>
      </g>
     </g>
     <g id="text_10">
      <!-- 1 -->
      <g transform="translate(44.2375 120.066639)scale(0.1 -0.1)">
       <use xlink:href="#DejaVuSans-31"/>
      </g>
     </g>
    </g>
    <g id="ytick_6">
     <g id="line2d_11">
      <g>
       <use style="stroke:#000000;stroke-width:0.8;" x="57.6" xlink:href="#md390f5b39d" y="70.252468"/>
      </g>
     </g>
     <g id="text_11">
      <!-- 2 -->
      <g transform="translate(44.2375 74.051687)scale(0.1 -0.1)">
       <use xlink:href="#DejaVuSans-32"/>
      </g>
     </g>
    </g>
   </g>
   <g id="line2d_12">
    <defs>
     <path d="M 0 3 
C 0.795609 3 1.55874 2.683901 2.12132 2.12132 
C 2.683901 1.55874 3 0.795609 3 0 
C 3 -0.795609 2.683901 -1.55874 2.12132 -2.12132 
C 1.55874 -2.683901 0.795609 -3 0 -3 
C -0.795609 -3 -1.55874 -2.683901 -2.12132 -2.12132 
C -2.683901 -1.55874 -3 -0.795609 -3 0 
C -3 0.795609 -2.683901 1.55874 -2.12132 2.12132 
C -1.55874 2.683901 -0.795609 3 0 3 
z
" id="mab5fac6b7e" style="stroke:#1f77b4;"/>
    </defs>
    <g clip-path="url(#p279fa832fe)">
     <use style="fill:#1f77b4;stroke:#1f77b4;" x="212.826364" xlink:href="#mab5fac6b7e" y="179.777589"/>
     <use style="fill:#1f77b4;stroke:#1f77b4;" x="215.48933" xlink:href="#mab5fac6b7e" y="186.585951"/>
     <use style="fill:#1f77b4;stroke:#1f77b4;" x="216.80074" xlink:href="#mab5fac6b7e" y="191.692223"/>
     <use style="fill:#1f77b4;stroke:#1f77b4;" x="220.828643" xlink:href="#mab5fac6b7e" y="190.841178"/>
     <use style="fill:#1f77b4;stroke:#1f77b4;" x="220.88217" xlink:href="#mab5fac6b7e" y="176.373408"/>
     <use style="fill:#1f77b4;stroke:#1f77b4;" x="222.153435" xlink:href="#mab5fac6b7e" y="189.990133"/>
     <use style="fill:#1f77b4;stroke:#1f77b4;" x="222.180199" xlink:href="#mab5fac6b7e" y="184.032816"/>
     <use style="fill:#1f77b4;stroke:#1f77b4;" x="224.869928" xlink:href="#mab5fac6b7e" y="195.096404"/>
     <use style="fill:#1f77b4;stroke:#1f77b4;" x="228.050767" xlink:href="#mab5fac6b7e" y="192.543268"/>
     <use style="fill:#1f77b4;stroke:#1f77b4;" x="230.711057" xlink:href="#mab5fac6b7e" y="177.649976"/>
     <use style="fill:#1f77b4;stroke:#1f77b4;" x="231.480507" xlink:href="#mab5fac6b7e" y="180.628635"/>
     <use style="fill:#1f77b4;stroke:#1f77b4;" x="232.765153" xlink:href="#mab5fac6b7e" y="185.734906"/>
     <use style="fill:#1f77b4;stroke:#1f77b4;" x="234.772414" xlink:href="#mab5fac6b7e" y="181.820098"/>
     <use style="fill:#1f77b4;stroke:#1f77b4;" x="235.468265" xlink:href="#mab5fac6b7e" y="172.118182"/>
     <use style="fill:#1f77b4;stroke:#1f77b4;" x="235.50841" xlink:href="#mab5fac6b7e" y="184.032816"/>
     <use style="fill:#1f77b4;stroke:#1f77b4;" x="236.095868" xlink:href="#mab5fac6b7e" y="182.841352"/>
     <use style="fill:#1f77b4;stroke:#1f77b4;" x="236.886729" xlink:href="#mab5fac6b7e" y="186.585951"/>
     <use style="fill:#1f77b4;stroke:#1f77b4;" x="239.58984" xlink:href="#mab5fac6b7e" y="173.820272"/>
     <use style="fill:#1f77b4;stroke:#1f77b4;" x="240.928014" xlink:href="#mab5fac6b7e" y="176.373408"/>
     <use style="fill:#1f77b4;stroke:#1f77b4;" x="242.772017" xlink:href="#mab5fac6b7e" y="180.883948"/>
     <use style="fill:#1f77b4;stroke:#1f77b4;" x="244.889008" xlink:href="#mab5fac6b7e" y="173.820272"/>
     <use style="fill:#1f77b4;stroke:#1f77b4;" x="245.370751" xlink:href="#mab5fac6b7e" y="181.820098"/>
     <use style="fill:#1f77b4;stroke:#1f77b4;" x="246.280709" xlink:href="#mab5fac6b7e" y="174.671318"/>
     <use style="fill:#1f77b4;stroke:#1f77b4;" x="246.692866" xlink:href="#mab5fac6b7e" y="178.586126"/>
     <use style="fill:#1f77b4;stroke:#1f77b4;" x="247.534578" xlink:href="#mab5fac6b7e" y="172.884122"/>
     <use style="fill:#1f77b4;stroke:#1f77b4;" x="247.605501" xlink:href="#mab5fac6b7e" y="173.820272"/>
     <use style="fill:#1f77b4;stroke:#1f77b4;" x="248.836621" xlink:href="#mab5fac6b7e" y="168.543792"/>
     <use style="fill:#1f77b4;stroke:#1f77b4;" x="248.876766" xlink:href="#mab5fac6b7e" y="173.820272"/>
     <use style="fill:#1f77b4;stroke:#1f77b4;" x="249.38661" xlink:href="#mab5fac6b7e" y="177.479767"/>
     <use style="fill:#1f77b4;stroke:#1f77b4;" x="250.194867" xlink:href="#mab5fac6b7e" y="160.118443"/>
     <use style="fill:#1f77b4;stroke:#1f77b4;" x="250.228321" xlink:href="#mab5fac6b7e" y="172.118182"/>
     <use style="fill:#1f77b4;stroke:#1f77b4;" x="250.799722" xlink:href="#mab5fac6b7e" y="176.798931"/>
     <use style="fill:#1f77b4;stroke:#1f77b4;" x="251.554452" xlink:href="#mab5fac6b7e" y="171.777764"/>
     <use style="fill:#1f77b4;stroke:#1f77b4;" x="251.566495" xlink:href="#mab5fac6b7e" y="167.862955"/>
     <use style="fill:#1f77b4;stroke:#1f77b4;" x="252.864524" xlink:href="#mab5fac6b7e" y="156.799367"/>
     <use style="fill:#1f77b4;stroke:#1f77b4;" x="252.944814" xlink:href="#mab5fac6b7e" y="162.756684"/>
     <use style="fill:#1f77b4;stroke:#1f77b4;" x="254.229461" xlink:href="#mab5fac6b7e" y="147.437869"/>
     <use style="fill:#1f77b4;stroke:#1f77b4;" x="255.581017" xlink:href="#mab5fac6b7e" y="157.650412"/>
     <use style="fill:#1f77b4;stroke:#1f77b4;" x="256.798755" xlink:href="#mab5fac6b7e" y="147.437869"/>
     <use style="fill:#1f77b4;stroke:#1f77b4;" x="256.91919" xlink:href="#mab5fac6b7e" y="156.799367"/>
     <use style="fill:#1f77b4;stroke:#1f77b4;" x="258.243983" xlink:href="#mab5fac6b7e" y="148.288914"/>
     <use style="fill:#1f77b4;stroke:#1f77b4;" x="259.501866" xlink:href="#mab5fac6b7e" y="167.01191"/>
     <use style="fill:#1f77b4;stroke:#1f77b4;" x="259.649065" xlink:href="#mab5fac6b7e" y="157.650412"/>
     <use style="fill:#1f77b4;stroke:#1f77b4;" x="261.423483" xlink:href="#mab5fac6b7e" y="143.097538"/>
     <use style="fill:#1f77b4;stroke:#1f77b4;" x="263.676968" xlink:href="#mab5fac6b7e" y="145.735778"/>
     <use style="fill:#1f77b4;stroke:#1f77b4;" x="266.299789" xlink:href="#mab5fac6b7e" y="121.90651"/>
     <use style="fill:#1f77b4;stroke:#1f77b4;" x="266.876542" xlink:href="#mab5fac6b7e" y="106.587695"/>
     <use style="fill:#1f77b4;stroke:#1f77b4;" x="267.517527" xlink:href="#mab5fac6b7e" y="109.991876"/>
     <use style="fill:#1f77b4;stroke:#1f77b4;" x="268.150483" xlink:href="#mab5fac6b7e" y="117.736388"/>
     <use style="fill:#1f77b4;stroke:#1f77b4;" x="269.547537" xlink:href="#mab5fac6b7e" y="97.907033"/>
     <use style="fill:#1f77b4;stroke:#1f77b4;" x="270.327692" xlink:href="#mab5fac6b7e" y="106.587695"/>
     <use style="fill:#1f77b4;stroke:#1f77b4;" x="274.833323" xlink:href="#mab5fac6b7e" y="102.757991"/>
     <use style="fill:#1f77b4;stroke:#1f77b4;" x="276.155439" xlink:href="#mab5fac6b7e" y="117.481075"/>
     <use style="fill:#1f77b4;stroke:#1f77b4;" x="278.303208" xlink:href="#mab5fac6b7e" y="97.226197"/>
     <use style="fill:#1f77b4;stroke:#1f77b4;" x="278.819743" xlink:href="#mab5fac6b7e" y="101.992051"/>
     <use style="fill:#1f77b4;stroke:#1f77b4;" x="280.139182" xlink:href="#mab5fac6b7e" y="114.247103"/>
     <use style="fill:#1f77b4;stroke:#1f77b4;" x="281.533559" xlink:href="#mab5fac6b7e" y="78.503201"/>
     <use style="fill:#1f77b4;stroke:#1f77b4;" x="282.331111" xlink:href="#mab5fac6b7e" y="98.077242"/>
     <use style="fill:#1f77b4;stroke:#1f77b4;" x="282.357874" xlink:href="#mab5fac6b7e" y="105.651545"/>
     <use style="fill:#1f77b4;stroke:#1f77b4;" x="282.384638" xlink:href="#mab5fac6b7e" y="89.56679"/>
     <use style="fill:#1f77b4;stroke:#1f77b4;" x="282.855675" xlink:href="#mab5fac6b7e" y="101.821842"/>
     <use style="fill:#1f77b4;stroke:#1f77b4;" x="283.669285" xlink:href="#mab5fac6b7e" y="82.758427"/>
     <use style="fill:#1f77b4;stroke:#1f77b4;" x="283.67999" xlink:href="#mab5fac6b7e" y="88.034908"/>
     <use style="fill:#1f77b4;stroke:#1f77b4;" x="283.762957" xlink:href="#mab5fac6b7e" y="86.162609"/>
     <use style="fill:#1f77b4;stroke:#1f77b4;" x="284.160394" xlink:href="#mab5fac6b7e" y="93.481598"/>
     <use style="fill:#1f77b4;stroke:#1f77b4;" x="284.94055" xlink:href="#mab5fac6b7e" y="88.715744"/>
     <use style="fill:#1f77b4;stroke:#1f77b4;" x="284.967313" xlink:href="#mab5fac6b7e" y="98.077242"/>
     <use style="fill:#1f77b4;stroke:#1f77b4;" x="286.305487" xlink:href="#mab5fac6b7e" y="82.758427"/>
     <use style="fill:#1f77b4;stroke:#1f77b4;" x="286.332251" xlink:href="#mab5fac6b7e" y="98.928288"/>
     <use style="fill:#1f77b4;stroke:#1f77b4;" x="286.915694" xlink:href="#mab5fac6b7e" y="86.928549"/>
     <use style="fill:#1f77b4;stroke:#1f77b4;" x="287.456316" xlink:href="#mab5fac6b7e" y="80.205292"/>
     <use style="fill:#1f77b4;stroke:#1f77b4;" x="288.188298" xlink:href="#mab5fac6b7e" y="87.439176"/>
     <use style="fill:#1f77b4;stroke:#1f77b4;" x="289.559926" xlink:href="#mab5fac6b7e" y="75.269229"/>
     <use style="fill:#1f77b4;stroke:#1f77b4;" x="290.346772" xlink:href="#mab5fac6b7e" y="86.162609"/>
     <use style="fill:#1f77b4;stroke:#1f77b4;" x="290.902114" xlink:href="#mab5fac6b7e" y="87.183863"/>
     <use style="fill:#1f77b4;stroke:#1f77b4;" x="291.6448" xlink:href="#mab5fac6b7e" y="91.26888"/>
     <use style="fill:#1f77b4;stroke:#1f77b4;" x="292.996356" xlink:href="#mab5fac6b7e" y="83.609473"/>
     <use style="fill:#1f77b4;stroke:#1f77b4;" x="295.632558" xlink:href="#mab5fac6b7e" y="86.162609"/>
     <use style="fill:#1f77b4;stroke:#1f77b4;" x="297.010877" xlink:href="#mab5fac6b7e" y="89.56679"/>
     <use style="fill:#1f77b4;stroke:#1f77b4;" x="298.429342" xlink:href="#mab5fac6b7e" y="102.332469"/>
     <use style="fill:#1f77b4;stroke:#1f77b4;" x="299.740752" xlink:href="#mab5fac6b7e" y="93.822016"/>
     <use style="fill:#1f77b4;stroke:#1f77b4;" x="301.560668" xlink:href="#mab5fac6b7e" y="104.034559"/>
     <use style="fill:#1f77b4;stroke:#1f77b4;" x="302.350191" xlink:href="#mab5fac6b7e" y="87.013654"/>
     <use style="fill:#1f77b4;stroke:#1f77b4;" x="302.888137" xlink:href="#mab5fac6b7e" y="114.672625"/>
     <use style="fill:#1f77b4;stroke:#1f77b4;" x="305.547088" xlink:href="#mab5fac6b7e" y="113.736476"/>
     <use style="fill:#1f77b4;stroke:#1f77b4;" x="306.445003" xlink:href="#mab5fac6b7e" y="100.630378"/>
     <use style="fill:#1f77b4;stroke:#1f77b4;" x="306.909349" xlink:href="#mab5fac6b7e" y="118.842747"/>
     <use style="fill:#1f77b4;stroke:#1f77b4;" x="307.662741" xlink:href="#mab5fac6b7e" y="103.183514"/>
     <use style="fill:#1f77b4;stroke:#1f77b4;" x="307.712253" xlink:href="#mab5fac6b7e" y="105.73665"/>
     <use style="fill:#1f77b4;stroke:#1f77b4;" x="308.247523" xlink:href="#mab5fac6b7e" y="103.694141"/>
     <use style="fill:#1f77b4;stroke:#1f77b4;" x="309.067823" xlink:href="#mab5fac6b7e" y="97.226197"/>
     <use style="fill:#1f77b4;stroke:#1f77b4;" x="309.613798" xlink:href="#mab5fac6b7e" y="116.885343"/>
     <use style="fill:#1f77b4;stroke:#1f77b4;" x="310.405997" xlink:href="#mab5fac6b7e" y="109.140831"/>
     <use style="fill:#1f77b4;stroke:#1f77b4;" x="310.486288" xlink:href="#mab5fac6b7e" y="107.438741"/>
     <use style="fill:#1f77b4;stroke:#1f77b4;" x="310.951972" xlink:href="#mab5fac6b7e" y="91.609298"/>
     <use style="fill:#1f77b4;stroke:#1f77b4;" x="311.556827" xlink:href="#mab5fac6b7e" y="103.183514"/>
     <use style="fill:#1f77b4;stroke:#1f77b4;" x="311.623735" xlink:href="#mab5fac6b7e" y="108.289786"/>
     <use style="fill:#1f77b4;stroke:#1f77b4;" x="312.299513" xlink:href="#mab5fac6b7e" y="128.28935"/>
     <use style="fill:#1f77b4;stroke:#1f77b4;" x="312.868237" xlink:href="#mab5fac6b7e" y="111.693967"/>
     <use style="fill:#1f77b4;stroke:#1f77b4;" x="313.082345" xlink:href="#mab5fac6b7e" y="115.949193"/>
     <use style="fill:#1f77b4;stroke:#1f77b4;" x="313.606909" xlink:href="#mab5fac6b7e" y="126.672364"/>
     <use style="fill:#1f77b4;stroke:#1f77b4;" x="314.366992" xlink:href="#mab5fac6b7e" y="119.353374"/>
     <use style="fill:#1f77b4;stroke:#1f77b4;" x="314.487427" xlink:href="#mab5fac6b7e" y="118.502329"/>
     <use style="fill:#1f77b4;stroke:#1f77b4;" x="314.93973" xlink:href="#mab5fac6b7e" y="136.799803"/>
     <use style="fill:#1f77b4;stroke:#1f77b4;" x="315.598111" xlink:href="#mab5fac6b7e" y="115.098148"/>
     <use style="fill:#1f77b4;stroke:#1f77b4;" x="315.745311" xlink:href="#mab5fac6b7e" y="117.651284"/>
     <use style="fill:#1f77b4;stroke:#1f77b4;" x="316.287271" xlink:href="#mab5fac6b7e" y="122.076719"/>
     <use style="fill:#1f77b4;stroke:#1f77b4;" x="316.829231" xlink:href="#mab5fac6b7e" y="132.970099"/>
     <use style="fill:#1f77b4;stroke:#1f77b4;" x="316.989812" xlink:href="#mab5fac6b7e" y="117.651284"/>
     <use style="fill:#1f77b4;stroke:#1f77b4;" x="317.131659" xlink:href="#mab5fac6b7e" y="124.970273"/>
     <use style="fill:#1f77b4;stroke:#1f77b4;" x="317.628121" xlink:href="#mab5fac6b7e" y="125.821319"/>
     <use style="fill:#1f77b4;stroke:#1f77b4;" x="318.368131" xlink:href="#mab5fac6b7e" y="120.20442"/>
     <use style="fill:#1f77b4;stroke:#1f77b4;" x="318.441731" xlink:href="#mab5fac6b7e" y="118.842747"/>
     <use style="fill:#1f77b4;stroke:#1f77b4;" x="318.448422" xlink:href="#mab5fac6b7e" y="121.055465"/>
     <use style="fill:#1f77b4;stroke:#1f77b4;" x="319.759832" xlink:href="#mab5fac6b7e" y="127.012782"/>
     <use style="fill:#1f77b4;stroke:#1f77b4;" x="320.260309" xlink:href="#mab5fac6b7e" y="116.63003"/>
     <use style="fill:#1f77b4;stroke:#1f77b4;" x="321.084624" xlink:href="#mab5fac6b7e" y="127.863827"/>
     <use style="fill:#1f77b4;stroke:#1f77b4;" x="321.594468" xlink:href="#mab5fac6b7e" y="123.608601"/>
     <use style="fill:#1f77b4;stroke:#1f77b4;" x="322.382653" xlink:href="#mab5fac6b7e" y="127.012782"/>
     <use style="fill:#1f77b4;stroke:#1f77b4;" x="322.900526" xlink:href="#mab5fac6b7e" y="149.991004"/>
     <use style="fill:#1f77b4;stroke:#1f77b4;" x="323.707445" xlink:href="#mab5fac6b7e" y="127.012782"/>
     <use style="fill:#1f77b4;stroke:#1f77b4;" x="324.244052" xlink:href="#mab5fac6b7e" y="130.502068"/>
     <use style="fill:#1f77b4;stroke:#1f77b4;" x="325.005473" xlink:href="#mab5fac6b7e" y="118.502329"/>
     <use style="fill:#1f77b4;stroke:#1f77b4;" x="325.059" xlink:href="#mab5fac6b7e" y="125.310691"/>
     <use style="fill:#1f77b4;stroke:#1f77b4;" x="325.574197" xlink:href="#mab5fac6b7e" y="114.417312"/>
     <use style="fill:#1f77b4;stroke:#1f77b4;" x="326.29012" xlink:href="#mab5fac6b7e" y="125.310691"/>
     <use style="fill:#1f77b4;stroke:#1f77b4;" x="326.36372" xlink:href="#mab5fac6b7e" y="124.71496"/>
     <use style="fill:#1f77b4;stroke:#1f77b4;" x="326.423937" xlink:href="#mab5fac6b7e" y="130.416963"/>
     <use style="fill:#1f77b4;stroke:#1f77b4;" x="326.924414" xlink:href="#mab5fac6b7e" y="120.715047"/>
     <use style="fill:#1f77b4;stroke:#1f77b4;" x="327.574767" xlink:href="#mab5fac6b7e" y="137.225325"/>
     <use style="fill:#1f77b4;stroke:#1f77b4;" x="327.721966" xlink:href="#mab5fac6b7e" y="127.863827"/>
     <use style="fill:#1f77b4;stroke:#1f77b4;" x="327.798242" xlink:href="#mab5fac6b7e" y="144.629419"/>
     <use style="fill:#1f77b4;stroke:#1f77b4;" x="328.26125" xlink:href="#mab5fac6b7e" y="126.41705"/>
     <use style="fill:#1f77b4;stroke:#1f77b4;" x="329.086903" xlink:href="#mab5fac6b7e" y="126.161737"/>
     <use style="fill:#1f77b4;stroke:#1f77b4;" x="329.127049" xlink:href="#mab5fac6b7e" y="121.991615"/>
     <use style="fill:#1f77b4;stroke:#1f77b4;" x="329.604777" xlink:href="#mab5fac6b7e" y="132.970099"/>
     <use style="fill:#1f77b4;stroke:#1f77b4;" x="330.411695" xlink:href="#mab5fac6b7e" y="135.523235"/>
     <use style="fill:#1f77b4;stroke:#1f77b4;" x="330.487971" xlink:href="#mab5fac6b7e" y="139.693357"/>
     <use style="fill:#1f77b4;stroke:#1f77b4;" x="331.776633" xlink:href="#mab5fac6b7e" y="147.437869"/>
     <use style="fill:#1f77b4;stroke:#1f77b4;" x="331.856923" xlink:href="#mab5fac6b7e" y="126.161737"/>
     <use style="fill:#1f77b4;stroke:#1f77b4;" x="332.295844" xlink:href="#mab5fac6b7e" y="120.459733"/>
     <use style="fill:#1f77b4;stroke:#1f77b4;" x="333.088043" xlink:href="#mab5fac6b7e" y="138.927416"/>
     <use style="fill:#1f77b4;stroke:#1f77b4;" x="339.885966" xlink:href="#mab5fac6b7e" y="141.480552"/>
     <use style="fill:#1f77b4;stroke:#1f77b4;" x="340.387781" xlink:href="#mab5fac6b7e" y="127.182991"/>
     <use style="fill:#1f77b4;stroke:#1f77b4;" x="340.983268" xlink:href="#mab5fac6b7e" y="160.203548"/>
     <use style="fill:#1f77b4;stroke:#1f77b4;" x="341.220125" xlink:href="#mab5fac6b7e" y="162.841788"/>
     <use style="fill:#1f77b4;stroke:#1f77b4;" x="341.629606" xlink:href="#mab5fac6b7e" y="135.523235"/>
     <use style="fill:#1f77b4;stroke:#1f77b4;" x="342.45526" xlink:href="#mab5fac6b7e" y="144.884733"/>
     <use style="fill:#1f77b4;stroke:#1f77b4;" x="342.995882" xlink:href="#mab5fac6b7e" y="133.480726"/>
     <use style="fill:#1f77b4;stroke:#1f77b4;" x="343.53918" xlink:href="#mab5fac6b7e" y="155.948321"/>
     <use style="fill:#1f77b4;stroke:#1f77b4;" x="344.326026" xlink:href="#mab5fac6b7e" y="147.26766"/>
     <use style="fill:#1f77b4;stroke:#1f77b4;" x="345.661524" xlink:href="#mab5fac6b7e" y="142.842224"/>
     <use style="fill:#1f77b4;stroke:#1f77b4;" x="346.282437" xlink:href="#mab5fac6b7e" y="151.693095"/>
     <use style="fill:#1f77b4;stroke:#1f77b4;" x="346.995683" xlink:href="#mab5fac6b7e" y="132.714785"/>
     <use style="fill:#1f77b4;stroke:#1f77b4;" x="347.593847" xlink:href="#mab5fac6b7e" y="159.352503"/>
     <use style="fill:#1f77b4;stroke:#1f77b4;" x="348.333857" xlink:href="#mab5fac6b7e" y="158.246144"/>
     <use style="fill:#1f77b4;stroke:#1f77b4;" x="348.972166" xlink:href="#mab5fac6b7e" y="154.246231"/>
     <use style="fill:#1f77b4;stroke:#1f77b4;" x="349.662664" xlink:href="#mab5fac6b7e" y="166.416178"/>
     <use style="fill:#1f77b4;stroke:#1f77b4;" x="351.019572" xlink:href="#mab5fac6b7e" y="167.437433"/>
     <use style="fill:#1f77b4;stroke:#1f77b4;" x="351.594987" xlink:href="#mab5fac6b7e" y="157.650412"/>
     <use style="fill:#1f77b4;stroke:#1f77b4;" x="352.93316" xlink:href="#mab5fac6b7e" y="161.905638"/>
     <use style="fill:#1f77b4;stroke:#1f77b4;" x="353.107123" xlink:href="#mab5fac6b7e" y="166.160865"/>
     <use style="fill:#1f77b4;stroke:#1f77b4;" x="353.662465" xlink:href="#mab5fac6b7e" y="173.990481"/>
     <use style="fill:#1f77b4;stroke:#1f77b4;" x="355.024726" xlink:href="#mab5fac6b7e" y="173.990481"/>
     <use style="fill:#1f77b4;stroke:#1f77b4;" x="355.823616" xlink:href="#mab5fac6b7e" y="167.862955"/>
     <use style="fill:#1f77b4;stroke:#1f77b4;" x="356.356209" xlink:href="#mab5fac6b7e" y="178.245708"/>
     <use style="fill:#1f77b4;stroke:#1f77b4;" x="357.121644" xlink:href="#mab5fac6b7e" y="170.416091"/>
     <use style="fill:#1f77b4;stroke:#1f77b4;" x="357.694383" xlink:href="#mab5fac6b7e" y="177.394662"/>
     <use style="fill:#1f77b4;stroke:#1f77b4;" x="358.400938" xlink:href="#mab5fac6b7e" y="168.799105"/>
     <use style="fill:#1f77b4;stroke:#1f77b4;" x="358.433055" xlink:href="#mab5fac6b7e" y="173.820272"/>
     <use style="fill:#1f77b4;stroke:#1f77b4;" x="359.024527" xlink:href="#mab5fac6b7e" y="180.798844"/>
     <use style="fill:#1f77b4;stroke:#1f77b4;" x="360.376083" xlink:href="#mab5fac6b7e" y="179.692485"/>
     <use style="fill:#1f77b4;stroke:#1f77b4;" x="360.93544" xlink:href="#mab5fac6b7e" y="172.969227"/>
     <use style="fill:#1f77b4;stroke:#1f77b4;" x="361.698199" xlink:href="#mab5fac6b7e" y="179.266962"/>
     <use style="fill:#1f77b4;stroke:#1f77b4;" x="363.088561" xlink:href="#mab5fac6b7e" y="167.94806"/>
     <use style="fill:#1f77b4;stroke:#1f77b4;" x="363.772368" xlink:href="#mab5fac6b7e" y="175.522363"/>
     <use style="fill:#1f77b4;stroke:#1f77b4;" x="364.370532" xlink:href="#mab5fac6b7e" y="175.011736"/>
     <use style="fill:#1f77b4;stroke:#1f77b4;" x="365.679266" xlink:href="#mab5fac6b7e" y="174.501109"/>
     <use style="fill:#1f77b4;stroke:#1f77b4;" x="366.395189" xlink:href="#mab5fac6b7e" y="167.01191"/>
     <use style="fill:#1f77b4;stroke:#1f77b4;" x="367.040189" xlink:href="#mab5fac6b7e" y="180.203112"/>
     <use style="fill:#1f77b4;stroke:#1f77b4;" x="368.403788" xlink:href="#mab5fac6b7e" y="157.735517"/>
     <use style="fill:#1f77b4;stroke:#1f77b4;" x="371.828174" xlink:href="#mab5fac6b7e" y="180.628635"/>
     <use style="fill:#1f77b4;stroke:#1f77b4;" x="372.354077" xlink:href="#mab5fac6b7e" y="170.5863"/>
     <use style="fill:#1f77b4;stroke:#1f77b4;" x="377.194251" xlink:href="#mab5fac6b7e" y="163.607729"/>
     <use style="fill:#1f77b4;stroke:#1f77b4;" x="378.49228" xlink:href="#mab5fac6b7e" y="171.267136"/>
     <use style="fill:#1f77b4;stroke:#1f77b4;" x="379.7234" xlink:href="#mab5fac6b7e" y="174.671318"/>
     <use style="fill:#1f77b4;stroke:#1f77b4;" x="383.063482" xlink:href="#mab5fac6b7e" y="149.310168"/>
     <use style="fill:#1f77b4;stroke:#1f77b4;" x="385.730462" xlink:href="#mab5fac6b7e" y="153.905813"/>
     <use style="fill:#1f77b4;stroke:#1f77b4;" x="394.536984" xlink:href="#mab5fac6b7e" y="124.459646"/>
     <use style="fill:#1f77b4;stroke:#1f77b4;" x="395.794867" xlink:href="#mab5fac6b7e" y="119.353374"/>
     <use style="fill:#1f77b4;stroke:#1f77b4;" x="397.186568" xlink:href="#mab5fac6b7e" y="120.20442"/>
     <use style="fill:#1f77b4;stroke:#1f77b4;" x="398.487273" xlink:href="#mab5fac6b7e" y="121.395883"/>
    </g>
   </g>
   <g id="line2d_13">
    <defs>
     <path d="M 0 3 
C 0.795609 3 1.55874 2.683901 2.12132 2.12132 
C 2.683901 1.55874 3 0.795609 3 0 
C 3 -0.795609 2.683901 -1.55874 2.12132 -2.12132 
C 1.55874 -2.683901 0.795609 -3 0 -3 
C -0.795609 -3 -1.55874 -2.683901 -2.12132 -2.12132 
C -2.683901 -1.55874 -3 -0.795609 -3 0 
C -3 0.795609 -2.683901 1.55874 -2.12132 2.12132 
C -1.55874 2.683901 -0.795609 3 0 3 
z
" id="mc2d976f0b7" style="stroke:#ff7f0e;"/>
    </defs>
    <g clip-path="url(#p279fa832fe)">
     <use style="fill:#ff7f0e;stroke:#ff7f0e;" x="89.057131" xlink:href="#mc2d976f0b7" y="279.607037"/>
     <use style="fill:#ff7f0e;stroke:#ff7f0e;" x="91.71742" xlink:href="#mc2d976f0b7" y="244.139554"/>
     <use style="fill:#ff7f0e;stroke:#ff7f0e;" x="95.778778" xlink:href="#mc2d976f0b7" y="261.079247"/>
     <use style="fill:#ff7f0e;stroke:#ff7f0e;" x="97.102231" xlink:href="#mc2d976f0b7" y="278.283624"/>
     <use style="fill:#ff7f0e;stroke:#ff7f0e;" x="103.77838" xlink:href="#mc2d976f0b7" y="295.488"/>
     <use style="fill:#ff7f0e;stroke:#ff7f0e;" x="106.377114" xlink:href="#mc2d976f0b7" y="295.223317"/>
     <use style="fill:#ff7f0e;stroke:#ff7f0e;" x="107.69923" xlink:href="#mc2d976f0b7" y="277.754258"/>
     <use style="fill:#ff7f0e;stroke:#ff7f0e;" x="108.540941" xlink:href="#mc2d976f0b7" y="292.57649"/>
     <use style="fill:#ff7f0e;stroke:#ff7f0e;" x="109.842984" xlink:href="#mc2d976f0b7" y="272.460604"/>
     <use style="fill:#ff7f0e;stroke:#ff7f0e;" x="110.392974" xlink:href="#mc2d976f0b7" y="266.372902"/>
     <use style="fill:#ff7f0e;stroke:#ff7f0e;" x="111.201231" xlink:href="#mc2d976f0b7" y="218.994696"/>
     <use style="fill:#ff7f0e;stroke:#ff7f0e;" x="111.806085" xlink:href="#mc2d976f0b7" y="274.313383"/>
     <use style="fill:#ff7f0e;stroke:#ff7f0e;" x="112.560815" xlink:href="#mc2d976f0b7" y="260.020516"/>
     <use style="fill:#ff7f0e;stroke:#ff7f0e;" x="122.429847" xlink:href="#mc2d976f0b7" y="215.818503"/>
     <use style="fill:#ff7f0e;stroke:#ff7f0e;" x="127.882905" xlink:href="#mc2d976f0b7" y="229.582004"/>
     <use style="fill:#ff7f0e;stroke:#ff7f0e;" x="129.156847" xlink:href="#mc2d976f0b7" y="245.72765"/>
     <use style="fill:#ff7f0e;stroke:#ff7f0e;" x="130.5539" xlink:href="#mc2d976f0b7" y="218.46533"/>
     <use style="fill:#ff7f0e;stroke:#ff7f0e;" x="135.839686" xlink:href="#mc2d976f0b7" y="242.81614"/>
     <use style="fill:#ff7f0e;stroke:#ff7f0e;" x="137.161802" xlink:href="#mc2d976f0b7" y="268.490363"/>
     <use style="fill:#ff7f0e;stroke:#ff7f0e;" x="139.826106" xlink:href="#mc2d976f0b7" y="233.816928"/>
     <use style="fill:#ff7f0e;stroke:#ff7f0e;" x="141.145546" xlink:href="#mc2d976f0b7" y="254.462179"/>
     <use style="fill:#ff7f0e;stroke:#ff7f0e;" x="142.539923" xlink:href="#mc2d976f0b7" y="169.234346"/>
     <use style="fill:#ff7f0e;stroke:#ff7f0e;" x="143.364238" xlink:href="#mc2d976f0b7" y="223.494302"/>
     <use style="fill:#ff7f0e;stroke:#ff7f0e;" x="143.862038" xlink:href="#mc2d976f0b7" y="228.787956"/>
     <use style="fill:#ff7f0e;stroke:#ff7f0e;" x="144.686353" xlink:href="#mc2d976f0b7" y="223.229619"/>
     <use style="fill:#ff7f0e;stroke:#ff7f0e;" x="145.166758" xlink:href="#mc2d976f0b7" y="233.816928"/>
     <use style="fill:#ff7f0e;stroke:#ff7f0e;" x="147.922058" xlink:href="#mc2d976f0b7" y="195.9673"/>
     <use style="fill:#ff7f0e;stroke:#ff7f0e;" x="149.194661" xlink:href="#mc2d976f0b7" y="203.378416"/>
     <use style="fill:#ff7f0e;stroke:#ff7f0e;" x="150.566289" xlink:href="#mc2d976f0b7" y="187.762136"/>
     <use style="fill:#ff7f0e;stroke:#ff7f0e;" x="151.908477" xlink:href="#mc2d976f0b7" y="190.14428"/>
     <use style="fill:#ff7f0e;stroke:#ff7f0e;" x="162.567032" xlink:href="#mc2d976f0b7" y="156.794258"/>
     <use style="fill:#ff7f0e;stroke:#ff7f0e;" x="163.8945" xlink:href="#mc2d976f0b7" y="181.939116"/>
     <use style="fill:#ff7f0e;stroke:#ff7f0e;" x="166.553451" xlink:href="#mc2d976f0b7" y="160.499816"/>
     <use style="fill:#ff7f0e;stroke:#ff7f0e;" x="167.915712" xlink:href="#mc2d976f0b7" y="187.23277"/>
     <use style="fill:#ff7f0e;stroke:#ff7f0e;" x="168.718617" xlink:href="#mc2d976f0b7" y="149.647825"/>
     <use style="fill:#ff7f0e;stroke:#ff7f0e;" x="169.253886" xlink:href="#mc2d976f0b7" y="153.353383"/>
     <use style="fill:#ff7f0e;stroke:#ff7f0e;" x="170.620162" xlink:href="#mc2d976f0b7" y="166.058153"/>
     <use style="fill:#ff7f0e;stroke:#ff7f0e;" x="171.958335" xlink:href="#mc2d976f0b7" y="130.325987"/>
     <use style="fill:#ff7f0e;stroke:#ff7f0e;" x="173.305876" xlink:href="#mc2d976f0b7" y="173.733952"/>
     <use style="fill:#ff7f0e;stroke:#ff7f0e;" x="174.613272" xlink:href="#mc2d976f0b7" y="191.732376"/>
     <use style="fill:#ff7f0e;stroke:#ff7f0e;" x="175.946093" xlink:href="#mc2d976f0b7" y="165.79347"/>
     <use style="fill:#ff7f0e;stroke:#ff7f0e;" x="177.293634" xlink:href="#mc2d976f0b7" y="141.177978"/>
     <use style="fill:#ff7f0e;stroke:#ff7f0e;" x="178.138022" xlink:href="#mc2d976f0b7" y="82.418416"/>
     <use style="fill:#ff7f0e;stroke:#ff7f0e;" x="178.634484" xlink:href="#mc2d976f0b7" y="122.385505"/>
     <use style="fill:#ff7f0e;stroke:#ff7f0e;" x="179.448094" xlink:href="#mc2d976f0b7" y="91.682311"/>
     <use style="fill:#ff7f0e;stroke:#ff7f0e;" x="181.266672" xlink:href="#mc2d976f0b7" y="77.654127"/>
     <use style="fill:#ff7f0e;stroke:#ff7f0e;" x="182.600832" xlink:href="#mc2d976f0b7" y="108.622004"/>
     <use style="fill:#ff7f0e;stroke:#ff7f0e;" x="183.906889" xlink:href="#mc2d976f0b7" y="143.29544"/>
     <use style="fill:#ff7f0e;stroke:#ff7f0e;" x="185.250416" xlink:href="#mc2d976f0b7" y="105.181129"/>
     <use style="fill:#ff7f0e;stroke:#ff7f0e;" x="186.58056" xlink:href="#mc2d976f0b7" y="85.859291"/>
     <use style="fill:#ff7f0e;stroke:#ff7f0e;" x="187.370083" xlink:href="#mc2d976f0b7" y="115.503755"/>
     <use style="fill:#ff7f0e;stroke:#ff7f0e;" x="187.930778" xlink:href="#mc2d976f0b7" y="84.535877"/>
     <use style="fill:#ff7f0e;stroke:#ff7f0e;" x="188.804605" xlink:href="#mc2d976f0b7" y="159.705768"/>
     <use style="fill:#ff7f0e;stroke:#ff7f0e;" x="189.267613" xlink:href="#mc2d976f0b7" y="103.593033"/>
     <use style="fill:#ff7f0e;stroke:#ff7f0e;" x="190.133412" xlink:href="#mc2d976f0b7" y="95.123186"/>
     <use style="fill:#ff7f0e;stroke:#ff7f0e;" x="190.61114" xlink:href="#mc2d976f0b7" y="112.856928"/>
     <use style="fill:#ff7f0e;stroke:#ff7f0e;" x="191.494335" xlink:href="#mc2d976f0b7" y="158.91172"/>
     <use style="fill:#ff7f0e;stroke:#ff7f0e;" x="193.302207" xlink:href="#mc2d976f0b7" y="68.125549"/>
     <use style="fill:#ff7f0e;stroke:#ff7f0e;" x="201.394144" xlink:href="#mc2d976f0b7" y="81.88905"/>
     <use style="fill:#ff7f0e;stroke:#ff7f0e;" x="202.226489" xlink:href="#mc2d976f0b7" y="160.764499"/>
     <use style="fill:#ff7f0e;stroke:#ff7f0e;" x="202.63597" xlink:href="#mc2d976f0b7" y="53.568"/>
     <use style="fill:#ff7f0e;stroke:#ff7f0e;" x="204.002245" xlink:href="#mc2d976f0b7" y="62.037847"/>
     <use style="fill:#ff7f0e;stroke:#ff7f0e;" x="205.33239" xlink:href="#mc2d976f0b7" y="122.914871"/>
     <use style="fill:#ff7f0e;stroke:#ff7f0e;" x="206.667887" xlink:href="#mc2d976f0b7" y="93.799772"/>
     <use style="fill:#ff7f0e;stroke:#ff7f0e;" x="208.002047" xlink:href="#mc2d976f0b7" y="82.683098"/>
     <use style="fill:#ff7f0e;stroke:#ff7f0e;" x="209.34022" xlink:href="#mc2d976f0b7" y="147.000998"/>
     <use style="fill:#ff7f0e;stroke:#ff7f0e;" x="210.669027" xlink:href="#mc2d976f0b7" y="171.351807"/>
     <use style="fill:#ff7f0e;stroke:#ff7f0e;" x="212.025935" xlink:href="#mc2d976f0b7" y="161.82323"/>
     <use style="fill:#ff7f0e;stroke:#ff7f0e;" x="214.668828" xlink:href="#mc2d976f0b7" y="159.176403"/>
     <use style="fill:#ff7f0e;stroke:#ff7f0e;" x="216.031089" xlink:href="#mc2d976f0b7" y="183.791895"/>
     <use style="fill:#ff7f0e;stroke:#ff7f0e;" x="217.362572" xlink:href="#mc2d976f0b7" y="167.910932"/>
     <use style="fill:#ff7f0e;stroke:#ff7f0e;" x="218.700746" xlink:href="#mc2d976f0b7" y="162.881961"/>
     <use style="fill:#ff7f0e;stroke:#ff7f0e;" x="219.407302" xlink:href="#mc2d976f0b7" y="92.741042"/>
     <use style="fill:#ff7f0e;stroke:#ff7f0e;" x="220.030891" xlink:href="#mc2d976f0b7" y="162.087912"/>
     <use style="fill:#ff7f0e;stroke:#ff7f0e;" x="221.382446" xlink:href="#mc2d976f0b7" y="168.175615"/>
     <use style="fill:#ff7f0e;stroke:#ff7f0e;" x="222.704562" xlink:href="#mc2d976f0b7" y="173.469269"/>
     <use style="fill:#ff7f0e;stroke:#ff7f0e;" x="224.094925" xlink:href="#mc2d976f0b7" y="178.233558"/>
     <use style="fill:#ff7f0e;stroke:#ff7f0e;" x="225.376895" xlink:href="#mc2d976f0b7" y="179.027606"/>
     <use style="fill:#ff7f0e;stroke:#ff7f0e;" x="226.685629" xlink:href="#mc2d976f0b7" y="193.849838"/>
     <use style="fill:#ff7f0e;stroke:#ff7f0e;" x="228.046552" xlink:href="#mc2d976f0b7" y="193.585155"/>
     <use style="fill:#ff7f0e;stroke:#ff7f0e;" x="229.410151" xlink:href="#mc2d976f0b7" y="139.325199"/>
     <use style="fill:#ff7f0e;stroke:#ff7f0e;" x="233.36044" xlink:href="#mc2d976f0b7" y="193.05579"/>
     <use style="fill:#ff7f0e;stroke:#ff7f0e;" x="244.069845" xlink:href="#mc2d976f0b7" y="192.261742"/>
     <use style="fill:#ff7f0e;stroke:#ff7f0e;" x="246.736825" xlink:href="#mc2d976f0b7" y="233.287562"/>
     <use style="fill:#ff7f0e;stroke:#ff7f0e;" x="259.493636" xlink:href="#mc2d976f0b7" y="271.931239"/>
    </g>
   </g>
   <g id="line2d_14">
    <path clip-path="url(#p279fa832fe)" d="M 212.826364 177.275016 
L 213.383347 179.874669 
L 214.12599 182.25194 
L 215.054295 185.223724 
L 215.982599 188.214128 
L 216.353921 188.731294 
L 216.539582 188.699794 
L 216.725243 188.418034 
L 217.096565 187.003708 
L 217.839208 182.198431 
L 218.767513 176.163942 
L 219.138835 174.629315 
L 219.510157 173.855708 
L 219.695818 173.776434 
L 219.881478 173.888922 
L 220.2528 174.632583 
L 220.809783 176.647126 
L 221.366766 179.679958 
L 222.29507 185.559959 
L 223.037714 188.447697 
L 223.966018 191.052353 
L 224.708662 192.730597 
L 225.079984 193.243199 
L 225.636967 193.596156 
L 226.008288 193.637915 
L 226.37961 193.472169 
L 226.750932 193.039171 
L 227.122254 192.274837 
L 227.679237 190.361149 
L 228.236219 187.303691 
L 229.535846 179.231719 
L 229.907167 178.250613 
L 230.092828 178.042925 
L 230.278489 178.007633 
L 230.46415 178.133467 
L 230.835472 178.826007 
L 231.392455 180.740856 
L 232.320759 184.460373 
L 232.692081 184.991663 
L 232.877742 184.82924 
L 233.249064 183.633109 
L 233.806047 180.298728 
L 234.734351 174.154039 
L 235.105673 172.872234 
L 235.291334 172.897348 
L 235.476995 173.571904 
L 235.848317 176.493021 
L 236.776621 184.742493 
L 237.147943 185.990439 
L 237.333604 185.994658 
L 237.519265 185.659739 
L 237.890587 184.190927 
L 238.63323 179.523685 
L 239.375874 175.260309 
L 239.747196 174.287899 
L 239.932857 174.188677 
L 240.118517 174.2961 
L 240.489839 174.956565 
L 241.789466 178.066413 
L 242.346448 178.72768 
L 242.71777 178.770663 
L 243.089092 178.42799 
L 243.646075 177.356541 
L 244.76004 174.821527 
L 244.945701 174.688069 
L 245.317023 174.80572 
L 246.80231 175.661428 
L 247.173632 175.198919 
L 247.916276 173.96621 
L 248.473258 173.485168 
L 249.401563 172.900487 
L 250.701189 171.222012 
L 251.072511 170.258354 
L 251.443833 168.567929 
L 252.000816 164.660729 
L 253.857425 149.374188 
L 254.228747 148.20679 
L 254.414407 148.306986 
L 254.785729 149.494239 
L 255.342712 151.712645 
L 255.528373 152.029486 
L 255.714034 151.92481 
L 256.085356 150.695118 
L 256.827999 147.728399 
L 257.01366 147.526893 
L 257.199321 147.523279 
L 257.384982 147.735292 
L 257.756304 148.906519 
L 258.127626 151.25311 
L 258.684608 157.070454 
L 259.241591 162.855639 
L 259.612913 164.605476 
L 259.798574 164.606423 
L 259.984235 164.165141 
L 260.355557 162.253285 
L 261.0982 156.317069 
L 261.840844 151.121118 
L 262.583487 147.837117 
L 263.697453 143.400115 
L 264.440097 138.962172 
L 265.18274 133.093796 
L 266.111045 123.933469 
L 267.22501 112.136339 
L 267.781993 108.778493 
L 268.338976 107.030786 
L 268.895958 105.865937 
L 269.26728 105.49399 
L 269.452941 105.464599 
L 269.824263 105.755981 
L 271.30955 107.793229 
L 272.052194 108.262324 
L 272.794837 108.400839 
L 273.723142 108.281768 
L 274.837107 108.165694 
L 275.39409 108.19031 
L 275.765412 107.879853 
L 276.136734 106.999052 
L 276.508056 105.371115 
L 277.993343 97.675631 
L 278.179004 97.370546 
L 278.364665 97.378168 
L 278.550326 97.70218 
L 278.921647 99.007219 
L 280.035613 103.842791 
L 280.406935 104.436353 
L 280.592596 104.433502 
L 280.963917 103.946703 
L 281.5209 102.363002 
L 281.892222 100.82769 
L 282.263544 98.118357 
L 282.820527 91.021053 
L 283.377509 84.436449 
L 283.56317 83.481392 
L 283.748831 83.579851 
L 283.934492 84.701241 
L 284.305814 88.908863 
L 285.048457 98.690085 
L 285.419779 101.277056 
L 285.60544 101.756726 
L 285.791101 101.675584 
L 285.976762 101.017235 
L 286.348084 97.890669 
L 286.905067 89.130837 
L 287.462049 80.428376 
L 287.833371 77.323494 
L 288.204693 76.170862 
L 288.390354 76.083302 
L 288.576015 76.256277 
L 288.947337 77.282222 
L 289.504319 80.175661 
L 290.989607 89.852981 
L 291.360928 91.017304 
L 291.546589 91.200959 
L 291.73225 91.061271 
L 292.103572 89.913907 
L 293.403198 84.073337 
L 293.77452 83.435328 
L 294.145842 83.278194 
L 294.517164 83.526485 
L 294.888486 84.117937 
L 295.445468 85.541813 
L 296.188112 88.266869 
L 296.930756 91.830927 
L 298.230382 98.371379 
L 298.601704 99.093067 
L 298.787365 99.136645 
L 298.973026 98.998479 
L 299.344347 98.276564 
L 299.90133 96.444045 
L 301.015296 91.682829 
L 301.9436 88.076809 
L 302.129261 87.830054 
L 302.314922 87.98727 
L 302.686244 89.6878 
L 304.171531 99.152607 
L 304.728514 101.664998 
L 305.285496 103.151208 
L 305.656818 103.423045 
L 306.02814 103.224741 
L 306.399462 103.042712 
L 307.142106 103.28939 
L 307.513427 102.853717 
L 308.07041 101.483004 
L 308.441732 100.606262 
L 308.627393 100.386484 
L 308.813054 100.422418 
L 308.998715 100.798916 
L 309.370036 102.716628 
L 309.927019 106.236608 
L 310.298341 107.362411 
L 310.484002 107.252557 
L 310.855324 105.77649 
L 311.226646 104.167601 
L 311.412306 103.81485 
L 311.597967 103.985268 
L 311.969289 105.635654 
L 312.897594 112.189849 
L 313.640237 117.688271 
L 314.011559 118.866739 
L 314.19722 118.954184 
L 314.382881 118.696802 
L 314.754203 117.2406 
L 315.311186 114.942977 
L 315.496846 115.210291 
L 315.682507 116.548132 
L 316.23949 125.093215 
L 316.610812 130.336819 
L 316.796473 131.503886 
L 316.982134 131.249693 
L 317.353456 128.735018 
L 318.28176 120.829501 
L 318.467421 120.221993 
L 318.653082 120.145377 
L 318.838743 120.487453 
L 319.210065 121.99064 
L 319.952708 125.307274 
L 320.509691 126.525171 
L 321.066674 127.327436 
L 321.994978 128.303756 
L 322.923283 129.803853 
L 323.108944 129.577633 
L 323.480266 128.25721 
L 324.037248 124.75607 
L 324.779892 119.751248 
L 324.965553 119.089429 
L 325.151214 118.870755 
L 325.336875 119.034107 
L 325.522536 119.573985 
L 325.893857 121.772724 
L 326.45084 127.43216 
L 327.193484 135.155069 
L 327.379145 136.186555 
L 327.564806 136.489551 
L 327.750466 135.987615 
L 328.121788 133.844532 
L 328.864432 129.296589 
L 329.050093 128.772702 
L 329.235754 128.684081 
L 329.421415 128.968495 
L 330.349719 131.475663 
L 330.53538 131.413838 
L 330.906702 130.399508 
L 331.649346 127.58343 
L 331.835006 127.303978 
L 332.020667 127.421162 
L 332.206328 127.937353 
L 332.57765 129.870069 
L 333.320294 134.13474 
L 333.691616 135.200351 
L 334.062937 135.575102 
L 334.248598 135.543311 
L 334.61992 135.116681 
L 335.176903 133.783446 
L 336.105207 130.624875 
L 337.033512 127.769681 
L 337.404834 127.113757 
L 337.776156 126.924989 
L 337.961816 127.049129 
L 338.333138 127.828169 
L 338.70446 129.450921 
L 339.075782 132.096135 
L 339.632765 138.42323 
L 340.189747 148.076348 
L 340.74673 157.677152 
L 340.932391 159.273067 
L 341.118052 159.375118 
L 341.303713 158.116296 
L 342.417678 145.454302 
L 342.603339 145.643493 
L 342.974661 148.766777 
L 343.531644 155.393094 
L 343.902966 157.096119 
L 344.088626 157.0614 
L 344.459948 155.987857 
L 345.573914 151.353155 
L 345.759575 151.068002 
L 345.945236 151.057944 
L 346.130896 151.317283 
L 346.502218 152.611755 
L 347.059201 156.030424 
L 347.430523 158.424341 
L 347.616184 159.078881 
L 347.801845 159.14895 
L 347.987506 158.738612 
L 348.544488 156.078182 
L 348.91581 154.597885 
L 349.101471 154.391189 
L 349.287132 154.556471 
L 349.844115 155.99854 
L 350.401097 157.284887 
L 350.772419 157.783096 
L 351.143741 157.864182 
L 351.515063 157.718819 
L 351.700724 157.763486 
L 352.072046 158.305594 
L 352.443367 159.491845 
L 352.814689 161.377409 
L 353.742994 167.189045 
L 354.114316 168.402266 
L 354.485637 168.913878 
L 354.671298 168.954764 
L 355.04262 168.697252 
L 355.599603 168.014523 
L 355.785264 167.986086 
L 355.970925 168.171142 
L 356.713568 169.810653 
L 359.12716 175.255415 
L 359.498482 175.3528 
L 359.869804 175.040967 
L 360.426786 174.030327 
L 360.983769 173.042488 
L 361.16943 172.988853 
L 361.540752 173.184965 
L 362.097735 173.505324 
L 362.840378 173.829286 
L 363.397361 174.397611 
L 363.768683 174.697422 
L 363.954344 174.679417 
L 364.325665 174.261586 
L 364.696987 173.388003 
L 365.25397 171.455989 
L 366.367935 167.21973 
L 366.739257 166.857438 
L 367.110579 166.660999 
L 367.481901 166.069299 
L 368.224545 164.822009 
L 368.410205 164.76342 
L 368.595866 164.885821 
L 368.967188 165.612865 
L 369.524171 167.578563 
L 371.195119 174.542185 
L 371.566441 175.243851 
L 371.752102 175.348231 
L 371.937763 175.259191 
L 372.309085 174.611028 
L 373.051728 172.497859 
L 375.46532 164.771224 
L 376.022303 163.940694 
L 376.393625 163.818265 
L 376.764946 164.126631 
L 377.136268 164.947545 
L 377.693251 167.176869 
L 378.807216 172.072521 
L 379.178538 172.896395 
L 379.364199 173.068789 
L 379.54986 173.059008 
L 379.735521 172.849152 
L 380.106843 171.817651 
L 380.663825 169.062724 
L 381.59213 162.692792 
L 382.706095 155.243016 
L 383.263078 152.877595 
L 383.6344 152.027689 
L 384.005722 151.63015 
L 384.377044 151.562113 
L 384.934026 151.824843 
L 385.67667 152.276067 
L 386.047992 152.313527 
L 386.419314 152.179114 
L 386.976296 151.687302 
L 387.533279 150.884276 
L 388.275923 149.387745 
L 389.204227 146.919751 
L 390.318193 143.204663 
L 391.617819 138.002249 
L 393.288767 130.324433 
L 395.331037 120.944323 
L 395.702359 119.868327 
L 396.073681 119.330878 
L 396.445003 119.281756 
L 396.816325 119.572731 
L 397.558968 120.647798 
L 398.301612 122.116778 
L 398.487273 122.568775 
L 398.487273 122.568775 
" style="fill:none;stroke:#2ca02c;stroke-linecap:square;stroke-width:1.5;"/>
   </g>
   <g id="line2d_15">
    <path clip-path="url(#p279fa832fe)" d="M 73.832727 172.042351 
L 74.946693 174.463738 
L 76.060658 177.429316 
L 77.174624 181.037435 
L 78.288589 185.393016 
L 79.402555 190.601475 
L 80.702181 197.881638 
L 82.001807 206.550501 
L 83.487095 218.126909 
L 85.529365 236.108593 
L 87.200313 250.317657 
L 88.128617 256.355445 
L 88.6856 258.67886 
L 89.056922 259.457253 
L 89.242583 259.572506 
L 89.428244 259.519398 
L 89.799565 259.003008 
L 90.356548 257.532162 
L 91.656175 253.579152 
L 92.027496 252.939955 
L 92.398818 252.646003 
L 92.77014 252.678465 
L 93.141462 253.017173 
L 93.512784 253.640382 
L 94.069766 255.056061 
L 94.81241 257.695848 
L 95.926375 262.705275 
L 97.226002 268.442852 
L 98.154306 271.262135 
L 100.753559 278.295832 
L 102.424507 284.0645 
L 103.352812 286.979885 
L 103.909795 288.179132 
L 104.281116 288.634239 
L 104.652438 288.835137 
L 105.02376 288.79976 
L 105.395082 288.532165 
L 105.766404 288.022612 
L 106.323386 286.748891 
L 106.880369 284.798048 
L 107.808674 280.603626 
L 109.293961 272.857714 
L 112.635857 253.983321 
L 116.720397 225.806855 
L 117.648702 221.308478 
L 118.577006 217.873934 
L 119.31965 215.90684 
L 120.062294 214.620718 
L 120.619276 214.084792 
L 121.176259 213.894426 
L 121.733242 214.022888 
L 122.290224 214.435915 
L 123.032868 215.366491 
L 123.775512 216.71503 
L 124.703816 218.957277 
L 125.817782 222.28845 
L 127.860052 228.559721 
L 128.417034 229.727343 
L 128.974017 230.377011 
L 129.345339 230.432964 
L 129.902322 230.087889 
L 130.459304 229.716613 
L 130.830626 229.707948 
L 131.201948 229.955061 
L 131.57327 230.444045 
L 132.130253 231.597142 
L 132.872896 233.826406 
L 133.801201 237.488944 
L 136.586114 249.277552 
L 136.957436 249.95351 
L 137.143097 250.075034 
L 137.328758 250.028395 
L 137.70008 249.469629 
L 138.071402 248.388203 
L 138.628384 246.009501 
L 139.556689 240.71452 
L 140.856315 231.801956 
L 142.527264 219.473684 
L 142.898585 218.353563 
L 143.269907 217.965929 
L 143.641229 217.996977 
L 144.383873 218.207658 
L 144.755194 218.027963 
L 145.126516 217.47697 
L 145.497838 216.452529 
L 146.054821 214.171454 
L 146.983125 209.221837 
L 148.468413 201.206069 
L 150.325022 192.814007 
L 151.624648 187.915812 
L 154.595223 177.915145 
L 156.08051 173.690882 
L 157.380136 170.626587 
L 158.494102 168.545362 
L 159.422406 167.260891 
L 160.16505 166.582618 
L 160.722033 166.314236 
L 161.279015 166.28665 
L 161.835998 166.539683 
L 162.392981 167.122681 
L 162.949964 168.07039 
L 163.878268 169.743126 
L 164.435251 170.227882 
L 164.806573 170.311096 
L 165.363555 170.172195 
L 166.106199 169.673103 
L 167.220164 168.62837 
L 167.777147 167.681872 
L 168.33413 166.090825 
L 169.633756 161.900098 
L 170.190739 160.731773 
L 170.747722 160.034079 
L 171.119044 159.875945 
L 171.490365 160.063123 
L 171.861687 160.697475 
L 172.233009 161.862416 
L 173.903957 168.10291 
L 174.089618 168.300793 
L 174.275279 168.309961 
L 174.46094 168.106395 
L 174.832262 166.971876 
L 175.203584 164.880032 
L 175.760566 160.187678 
L 176.50321 151.579589 
L 179.288124 115.854166 
L 180.030767 109.987772 
L 180.58775 107.175528 
L 180.959072 106.12977 
L 181.144733 105.877446 
L 181.330393 105.817351 
L 181.516054 105.944138 
L 181.887376 106.646456 
L 182.444359 108.402982 
L 183.372663 111.44279 
L 183.743985 112.092518 
L 183.929646 112.191378 
L 184.115307 112.115688 
L 184.486629 111.516708 
L 185.043612 109.839369 
L 186.528899 104.750343 
L 186.900221 104.105097 
L 187.271543 103.837301 
L 187.642864 103.901424 
L 188.014186 104.284396 
L 189.499473 106.628422 
L 189.870795 106.816887 
L 190.242117 106.739123 
L 190.613439 106.333401 
L 190.984761 105.529152 
L 191.541743 103.533323 
L 192.284387 99.643773 
L 193.398353 93.853539 
L 193.955335 92.094855 
L 194.512318 91.034682 
L 195.069301 90.441367 
L 195.811944 90.061749 
L 197.668553 89.37446 
L 198.411197 88.757721 
L 199.153841 87.84916 
L 200.267806 86.031987 
L 201.753093 83.539607 
L 202.310076 82.923097 
L 202.681398 82.771553 
L 203.05272 83.064887 
L 203.424042 83.839199 
L 203.795363 85.108172 
L 204.352346 87.96768 
L 206.580277 102.493127 
L 207.322921 108.817723 
L 208.065564 117.453495 
L 208.993869 131.634053 
L 210.664817 157.110756 
L 211.593122 167.580333 
L 212.521426 175.347861 
L 213.078409 178.582071 
L 213.635392 180.767255 
L 216.234644 188.639486 
L 216.420305 188.746052 
L 216.605966 188.630059 
L 216.791627 188.248173 
L 217.162949 186.649871 
L 217.905593 181.723678 
L 218.833897 175.839023 
L 219.205219 174.431677 
L 219.576541 173.804497 
L 219.762202 173.795315 
L 219.947863 173.973207 
L 220.319184 174.827659 
L 220.876167 176.92761 
L 221.43315 180.121736 
L 222.361454 185.873208 
L 223.104098 188.660697 
L 224.032403 191.217733 
L 224.775046 192.844786 
L 225.146368 193.305149 
L 225.703351 193.616389 
L 226.074673 193.625154 
L 226.445994 193.416204 
L 226.817316 192.928672 
L 227.188638 192.098361 
L 227.745621 190.061687 
L 228.302603 186.862757 
L 229.416569 179.720339 
L 229.787891 178.48052 
L 230.159213 178.011105 
L 230.344873 178.034686 
L 230.716195 178.54317 
L 231.087517 179.585605 
L 231.830161 182.652565 
L 232.387143 184.624887 
L 232.572804 184.932622 
L 232.758465 184.970594 
L 232.944126 184.695363 
L 233.315448 183.315848 
L 233.872431 179.832467 
L 234.800735 173.833791 
L 235.172057 172.816395 
L 235.357718 173.055838 
L 235.72904 175.41414 
L 236.843005 185.098175 
L 237.028666 185.782598 
L 237.214327 186.034418 
L 237.399988 185.91097 
L 237.77131 184.760551 
L 238.328293 181.574999 
L 239.256597 175.783997 
L 239.627919 174.481348 
L 239.81358 174.225904 
L 239.999241 174.205642 
L 240.370563 174.694384 
L 242.041511 178.442363 
L 242.412833 178.761712 
L 242.784154 178.73781 
L 243.155476 178.330044 
L 243.712459 177.199418 
L 244.640763 174.98903 
L 245.012085 174.680117 
L 245.569068 174.957637 
L 246.868694 175.614908 
L 247.240016 175.079744 
L 247.98266 173.891061 
L 248.539643 173.445318 
L 249.467947 172.824014 
L 250.767573 171.099951 
L 251.138895 170.010961 
L 251.510217 168.185139 
L 252.0672 164.112367 
L 253.923809 149.047462 
L 254.10947 148.393546 
L 254.295131 148.190993 
L 254.480792 148.440774 
L 254.852113 149.781093 
L 255.409096 151.867617 
L 255.594757 152.043641 
L 255.780418 151.787886 
L 256.15174 150.392239 
L 256.708722 148.004978 
L 257.080044 147.50235 
L 257.265705 147.573053 
L 257.451366 147.868128 
L 257.822688 149.233307 
L 258.19401 151.814018 
L 259.493636 164.319802 
L 259.493636 164.319802 
" style="fill:none;stroke:#d62728;stroke-dasharray:5.55,2.4;stroke-dashoffset:0;stroke-width:1.5;"/>
   </g>
   <g id="patch_3">
    <path d="M 57.6 307.584 
L 57.6 41.472 
" style="fill:none;stroke:#000000;stroke-linecap:square;stroke-linejoin:miter;stroke-width:0.8;"/>
   </g>
   <g id="patch_4">
    <path d="M 414.72 307.584 
L 414.72 41.472 
" style="fill:none;stroke:#000000;stroke-linecap:square;stroke-linejoin:miter;stroke-width:0.8;"/>
   </g>
   <g id="patch_5">
    <path d="M 57.6 307.584 
L 414.72 307.584 
" style="fill:none;stroke:#000000;stroke-linecap:square;stroke-linejoin:miter;stroke-width:0.8;"/>
   </g>
   <g id="patch_6">
    <path d="M 57.6 41.472 
L 414.72 41.472 
" style="fill:none;stroke:#000000;stroke-linecap:square;stroke-linejoin:miter;stroke-width:0.8;"/>
   </g>
   <g id="text_12">
    <!-- 100.550000 -->
    <g transform="translate(199.895625 35.472)scale(0.12 -0.12)">
     <defs>
      <path d="M 684 794 
L 1344 794 
L 1344 0 
L 684 0 
L 684 794 
z
" id="DejaVuSans-2e" transform="scale(0.015625)"/>
     </defs>
     <use xlink:href="#DejaVuSans-31"/>
     <use x="63.623047" xlink:href="#DejaVuSans-30"/>
     <use x="127.246094" xlink:href="#DejaVuSans-30"/>
     <use x="190.869141" xlink:href="#DejaVuSans-2e"/>
     <use x="222.65625" xlink:href="#DejaVuSans-35"/>
     <use x="286.279297" xlink:href="#DejaVuSans-35"/>
     <use x="349.902344" xlink:href="#DejaVuSans-30"/>
     <use x="413.525391" xlink:href="#DejaVuSans-30"/>
     <use x="477.148438" xlink:href="#DejaVuSans-30"/>
     <use x="540.771484" xlink:href="#DejaVuSans-30"/>
    </g>
   </g>
  </g>
 </g>
 <defs>
  <clipPath id="p279fa832fe">
   <rect height="266.112" width="357.12" x="57.6" y="41.472"/>
  </clipPath>
 </defs>
</svg>
