<?xml version="1.0" encoding="utf-8" standalone="no"?>
<!DOCTYPE svg PUBLIC "-//W3C//DTD SVG 1.1//EN"
  "http://www.w3.org/Graphics/SVG/1.1/DTD/svg11.dtd">
<svg height="345.6pt" version="1.1" viewBox="0 0 460.8 345.6" width="460.8pt" xmlns="http://www.w3.org/2000/svg" xmlns:xlink="http://www.w3.org/1999/xlink">
 <metadata>
  <rdf:RDF xmlns:cc="http://creativecommons.org/ns#" xmlns:dc="http://purl.org/dc/elements/1.1/" xmlns:rdf="http://www.w3.org/1999/02/22-rdf-syntax-ns#">
   <cc:Work>
    <dc:type rdf:resource="http://purl.org/dc/dcmitype/StillImage"/>
    <dc:date>2022-06-10T20:24:39.688529</dc:date>
    <dc:format>image/svg+xml</dc:format>
    <dc:creator>
     <cc:Agent>
      <dc:title>Matplotlib v3.4.3, https://matplotlib.org/</dc:title>
     </cc:Agent>
    </dc:creator>
   </cc:Work>
  </rdf:RDF>
 </metadata>
 <defs>
  <style type="text/css">*{stroke-linecap:butt;stroke-linejoin:round;}</style>
 </defs>
 <g id="figure_1">
  <g id="patch_1">
   <path d="M 0 345.6 
L 460.8 345.6 
L 460.8 0 
L 0 0 
z
" style="fill:#ffffff;"/>
  </g>
  <g id="axes_1">
   <g id="patch_2">
    <path d="M 57.6 307.584 
L 414.72 307.584 
L 414.72 41.472 
L 57.6 41.472 
z
" style="fill:#ffffff;"/>
   </g>
   <g id="matplotlib.axis_1">
    <g id="xtick_1">
     <g id="line2d_1">
      <defs>
       <path d="M 0 0 
L 0 3.5 
" id="m22cb53b4d4" style="stroke:#000000;stroke-width:0.8;"/>
      </defs>
      <g>
       <use style="stroke:#000000;stroke-width:0.8;" x="96.185123" xlink:href="#m22cb53b4d4" y="307.584"/>
      </g>
     </g>
     <g id="text_1">
      <!-- −100 -->
      <g transform="translate(82.451529 322.182437)scale(0.1 -0.1)">
       <defs>
        <path d="M 678 2272 
L 4684 2272 
L 4684 1741 
L 678 1741 
L 678 2272 
z
" id="DejaVuSans-2212" transform="scale(0.015625)"/>
        <path d="M 794 531 
L 1825 531 
L 1825 4091 
L 703 3866 
L 703 4441 
L 1819 4666 
L 2450 4666 
L 2450 531 
L 3481 531 
L 3481 0 
L 794 0 
L 794 531 
z
" id="DejaVuSans-31" transform="scale(0.015625)"/>
        <path d="M 2034 4250 
Q 1547 4250 1301 3770 
Q 1056 3291 1056 2328 
Q 1056 1369 1301 889 
Q 1547 409 2034 409 
Q 2525 409 2770 889 
Q 3016 1369 3016 2328 
Q 3016 3291 2770 3770 
Q 2525 4250 2034 4250 
z
M 2034 4750 
Q 2819 4750 3233 4129 
Q 3647 3509 3647 2328 
Q 3647 1150 3233 529 
Q 2819 -91 2034 -91 
Q 1250 -91 836 529 
Q 422 1150 422 2328 
Q 422 3509 836 4129 
Q 1250 4750 2034 4750 
z
" id="DejaVuSans-30" transform="scale(0.015625)"/>
       </defs>
       <use xlink:href="#DejaVuSans-2212"/>
       <use x="83.789062" xlink:href="#DejaVuSans-31"/>
       <use x="147.412109" xlink:href="#DejaVuSans-30"/>
       <use x="211.035156" xlink:href="#DejaVuSans-30"/>
      </g>
     </g>
    </g>
    <g id="xtick_2">
     <g id="line2d_2">
      <g>
       <use style="stroke:#000000;stroke-width:0.8;" x="160.6942" xlink:href="#m22cb53b4d4" y="307.584"/>
      </g>
     </g>
     <g id="text_2">
      <!-- −50 -->
      <g transform="translate(150.141856 322.182437)scale(0.1 -0.1)">
       <defs>
        <path d="M 691 4666 
L 3169 4666 
L 3169 4134 
L 1269 4134 
L 1269 2991 
Q 1406 3038 1543 3061 
Q 1681 3084 1819 3084 
Q 2600 3084 3056 2656 
Q 3513 2228 3513 1497 
Q 3513 744 3044 326 
Q 2575 -91 1722 -91 
Q 1428 -91 1123 -41 
Q 819 9 494 109 
L 494 744 
Q 775 591 1075 516 
Q 1375 441 1709 441 
Q 2250 441 2565 725 
Q 2881 1009 2881 1497 
Q 2881 1984 2565 2268 
Q 2250 2553 1709 2553 
Q 1456 2553 1204 2497 
Q 953 2441 691 2322 
L 691 4666 
z
" id="DejaVuSans-35" transform="scale(0.015625)"/>
       </defs>
       <use xlink:href="#DejaVuSans-2212"/>
       <use x="83.789062" xlink:href="#DejaVuSans-35"/>
       <use x="147.412109" xlink:href="#DejaVuSans-30"/>
      </g>
     </g>
    </g>
    <g id="xtick_3">
     <g id="line2d_3">
      <g>
       <use style="stroke:#000000;stroke-width:0.8;" x="225.203277" xlink:href="#m22cb53b4d4" y="307.584"/>
      </g>
     </g>
     <g id="text_3">
      <!-- 0 -->
      <g transform="translate(222.022027 322.182437)scale(0.1 -0.1)">
       <use xlink:href="#DejaVuSans-30"/>
      </g>
     </g>
    </g>
    <g id="xtick_4">
     <g id="line2d_4">
      <g>
       <use style="stroke:#000000;stroke-width:0.8;" x="289.712354" xlink:href="#m22cb53b4d4" y="307.584"/>
      </g>
     </g>
     <g id="text_4">
      <!-- 50 -->
      <g transform="translate(283.349854 322.182437)scale(0.1 -0.1)">
       <use xlink:href="#DejaVuSans-35"/>
       <use x="63.623047" xlink:href="#DejaVuSans-30"/>
      </g>
     </g>
    </g>
    <g id="xtick_5">
     <g id="line2d_5">
      <g>
       <use style="stroke:#000000;stroke-width:0.8;" x="354.221431" xlink:href="#m22cb53b4d4" y="307.584"/>
      </g>
     </g>
     <g id="text_5">
      <!-- 100 -->
      <g transform="translate(344.677681 322.182437)scale(0.1 -0.1)">
       <use xlink:href="#DejaVuSans-31"/>
       <use x="63.623047" xlink:href="#DejaVuSans-30"/>
       <use x="127.246094" xlink:href="#DejaVuSans-30"/>
      </g>
     </g>
    </g>
   </g>
   <g id="matplotlib.axis_2">
    <g id="ytick_1">
     <g id="line2d_6">
      <defs>
       <path d="M 0 0 
L -3.5 0 
" id="mafb151cd29" style="stroke:#000000;stroke-width:0.8;"/>
      </defs>
      <g>
       <use style="stroke:#000000;stroke-width:0.8;" x="57.6" xlink:href="#mafb151cd29" y="295.892272"/>
      </g>
     </g>
     <g id="text_6">
      <!-- −2 -->
      <g transform="translate(35.857813 299.691491)scale(0.1 -0.1)">
       <defs>
        <path d="M 1228 531 
L 3431 531 
L 3431 0 
L 469 0 
L 469 531 
Q 828 903 1448 1529 
Q 2069 2156 2228 2338 
Q 2531 2678 2651 2914 
Q 2772 3150 2772 3378 
Q 2772 3750 2511 3984 
Q 2250 4219 1831 4219 
Q 1534 4219 1204 4116 
Q 875 4013 500 3803 
L 500 4441 
Q 881 4594 1212 4672 
Q 1544 4750 1819 4750 
Q 2544 4750 2975 4387 
Q 3406 4025 3406 3419 
Q 3406 3131 3298 2873 
Q 3191 2616 2906 2266 
Q 2828 2175 2409 1742 
Q 1991 1309 1228 531 
z
" id="DejaVuSans-32" transform="scale(0.015625)"/>
       </defs>
       <use xlink:href="#DejaVuSans-2212"/>
       <use x="83.789062" xlink:href="#DejaVuSans-32"/>
      </g>
     </g>
    </g>
    <g id="ytick_2">
     <g id="line2d_7">
      <g>
       <use style="stroke:#000000;stroke-width:0.8;" x="57.6" xlink:href="#mafb151cd29" y="237.463772"/>
      </g>
     </g>
     <g id="text_7">
      <!-- −1 -->
      <g transform="translate(35.857813 241.262991)scale(0.1 -0.1)">
       <use xlink:href="#DejaVuSans-2212"/>
       <use x="83.789062" xlink:href="#DejaVuSans-31"/>
      </g>
     </g>
    </g>
    <g id="ytick_3">
     <g id="line2d_8">
      <g>
       <use style="stroke:#000000;stroke-width:0.8;" x="57.6" xlink:href="#mafb151cd29" y="179.035272"/>
      </g>
     </g>
     <g id="text_8">
      <!-- 0 -->
      <g transform="translate(44.2375 182.83449)scale(0.1 -0.1)">
       <use xlink:href="#DejaVuSans-30"/>
      </g>
     </g>
    </g>
    <g id="ytick_4">
     <g id="line2d_9">
      <g>
       <use style="stroke:#000000;stroke-width:0.8;" x="57.6" xlink:href="#mafb151cd29" y="120.606772"/>
      </g>
     </g>
     <g id="text_9">
      <!-- 1 -->
      <g transform="translate(44.2375 124.40599)scale(0.1 -0.1)">
       <use xlink:href="#DejaVuSans-31"/>
      </g>
     </g>
    </g>
    <g id="ytick_5">
     <g id="line2d_10">
      <g>
       <use style="stroke:#000000;stroke-width:0.8;" x="57.6" xlink:href="#mafb151cd29" y="62.178271"/>
      </g>
     </g>
     <g id="text_10">
      <!-- 2 -->
      <g transform="translate(44.2375 65.97749)scale(0.1 -0.1)">
       <use xlink:href="#DejaVuSans-32"/>
      </g>
     </g>
    </g>
   </g>
   <g id="line2d_11">
    <defs>
     <path d="M 0 3 
C 0.795609 3 1.55874 2.683901 2.12132 2.12132 
C 2.683901 1.55874 3 0.795609 3 0 
C 3 -0.795609 2.683901 -1.55874 2.12132 -2.12132 
C 1.55874 -2.683901 0.795609 -3 0 -3 
C -0.795609 -3 -1.55874 -2.683901 -2.12132 -2.12132 
C -2.683901 -1.55874 -3 -0.795609 -3 0 
C -3 0.795609 -2.683901 1.55874 -2.12132 2.12132 
C -1.55874 2.683901 -0.795609 3 0 3 
z
" id="meeb66c4154" style="stroke:#1f77b4;"/>
    </defs>
    <g clip-path="url(#pdf27b225f3)">
     <use style="fill:#1f77b4;stroke:#1f77b4;" x="225.203277" xlink:href="#meeb66c4154" y="209.419249"/>
     <use style="fill:#1f77b4;stroke:#1f77b4;" x="227.688719" xlink:href="#meeb66c4154" y="218.843529"/>
     <use style="fill:#1f77b4;stroke:#1f77b4;" x="228.912705" xlink:href="#meeb66c4154" y="225.911739"/>
     <use style="fill:#1f77b4;stroke:#1f77b4;" x="232.672092" xlink:href="#meeb66c4154" y="224.733704"/>
     <use style="fill:#1f77b4;stroke:#1f77b4;" x="232.72205" xlink:href="#meeb66c4154" y="204.707109"/>
     <use style="fill:#1f77b4;stroke:#1f77b4;" x="233.908568" xlink:href="#meeb66c4154" y="223.555669"/>
     <use style="fill:#1f77b4;stroke:#1f77b4;" x="233.933547" xlink:href="#meeb66c4154" y="215.309424"/>
     <use style="fill:#1f77b4;stroke:#1f77b4;" x="236.443968" xlink:href="#meeb66c4154" y="230.623879"/>
     <use style="fill:#1f77b4;stroke:#1f77b4;" x="239.412759" xlink:href="#meeb66c4154" y="227.089774"/>
     <use style="fill:#1f77b4;stroke:#1f77b4;" x="241.895703" xlink:href="#meeb66c4154" y="206.474161"/>
     <use style="fill:#1f77b4;stroke:#1f77b4;" x="242.613858" xlink:href="#meeb66c4154" y="210.597284"/>
     <use style="fill:#1f77b4;stroke:#1f77b4;" x="243.812865" xlink:href="#meeb66c4154" y="217.665494"/>
     <use style="fill:#1f77b4;stroke:#1f77b4;" x="245.686314" xlink:href="#meeb66c4154" y="212.246533"/>
     <use style="fill:#1f77b4;stroke:#1f77b4;" x="246.335776" xlink:href="#meeb66c4154" y="198.816933"/>
     <use style="fill:#1f77b4;stroke:#1f77b4;" x="246.373245" xlink:href="#meeb66c4154" y="215.309424"/>
     <use style="fill:#1f77b4;stroke:#1f77b4;" x="246.921541" xlink:href="#meeb66c4154" y="213.660175"/>
     <use style="fill:#1f77b4;stroke:#1f77b4;" x="247.65968" xlink:href="#meeb66c4154" y="218.843529"/>
     <use style="fill:#1f77b4;stroke:#1f77b4;" x="250.18259" xlink:href="#meeb66c4154" y="201.173003"/>
     <use style="fill:#1f77b4;stroke:#1f77b4;" x="251.431556" xlink:href="#meeb66c4154" y="204.707109"/>
     <use style="fill:#1f77b4;stroke:#1f77b4;" x="253.152631" xlink:href="#meeb66c4154" y="210.950694"/>
     <use style="fill:#1f77b4;stroke:#1f77b4;" x="255.128494" xlink:href="#meeb66c4154" y="201.173003"/>
     <use style="fill:#1f77b4;stroke:#1f77b4;" x="255.578122" xlink:href="#meeb66c4154" y="212.246533"/>
     <use style="fill:#1f77b4;stroke:#1f77b4;" x="256.427419" xlink:href="#meeb66c4154" y="202.351038"/>
     <use style="fill:#1f77b4;stroke:#1f77b4;" x="256.8121" xlink:href="#meeb66c4154" y="207.77"/>
     <use style="fill:#1f77b4;stroke:#1f77b4;" x="257.5977" xlink:href="#meeb66c4154" y="199.877165"/>
     <use style="fill:#1f77b4;stroke:#1f77b4;" x="257.663895" xlink:href="#meeb66c4154" y="201.173003"/>
     <use style="fill:#1f77b4;stroke:#1f77b4;" x="258.812943" xlink:href="#meeb66c4154" y="193.869186"/>
     <use style="fill:#1f77b4;stroke:#1f77b4;" x="258.850412" xlink:href="#meeb66c4154" y="201.173003"/>
     <use style="fill:#1f77b4;stroke:#1f77b4;" x="259.326268" xlink:href="#meeb66c4154" y="206.238554"/>
     <use style="fill:#1f77b4;stroke:#1f77b4;" x="260.080643" xlink:href="#meeb66c4154" y="182.206639"/>
     <use style="fill:#1f77b4;stroke:#1f77b4;" x="260.111868" xlink:href="#meeb66c4154" y="198.816933"/>
     <use style="fill:#1f77b4;stroke:#1f77b4;" x="260.645176" xlink:href="#meeb66c4154" y="205.296126"/>
     <use style="fill:#1f77b4;stroke:#1f77b4;" x="261.349593" xlink:href="#meeb66c4154" y="198.345719"/>
     <use style="fill:#1f77b4;stroke:#1f77b4;" x="261.360833" xlink:href="#meeb66c4154" y="192.926758"/>
     <use style="fill:#1f77b4;stroke:#1f77b4;" x="262.57233" xlink:href="#meeb66c4154" y="177.612303"/>
     <use style="fill:#1f77b4;stroke:#1f77b4;" x="262.647268" xlink:href="#meeb66c4154" y="185.858548"/>
     <use style="fill:#1f77b4;stroke:#1f77b4;" x="263.846275" xlink:href="#meeb66c4154" y="164.653918"/>
     <use style="fill:#1f77b4;stroke:#1f77b4;" x="265.10773" xlink:href="#meeb66c4154" y="178.790338"/>
     <use style="fill:#1f77b4;stroke:#1f77b4;" x="266.244289" xlink:href="#meeb66c4154" y="164.653918"/>
     <use style="fill:#1f77b4;stroke:#1f77b4;" x="266.356696" xlink:href="#meeb66c4154" y="177.612303"/>
     <use style="fill:#1f77b4;stroke:#1f77b4;" x="267.593172" xlink:href="#meeb66c4154" y="165.831953"/>
     <use style="fill:#1f77b4;stroke:#1f77b4;" x="268.7672" xlink:href="#meeb66c4154" y="191.748723"/>
     <use style="fill:#1f77b4;stroke:#1f77b4;" x="268.904586" xlink:href="#meeb66c4154" y="178.790338"/>
     <use style="fill:#1f77b4;stroke:#1f77b4;" x="270.560714" xlink:href="#meeb66c4154" y="158.645939"/>
     <use style="fill:#1f77b4;stroke:#1f77b4;" x="272.663973" xlink:href="#meeb66c4154" y="162.297848"/>
     <use style="fill:#1f77b4;stroke:#1f77b4;" x="275.111945" xlink:href="#meeb66c4154" y="129.312867"/>
     <use style="fill:#1f77b4;stroke:#1f77b4;" x="275.65025" xlink:href="#meeb66c4154" y="108.108236"/>
     <use style="fill:#1f77b4;stroke:#1f77b4;" x="276.248504" xlink:href="#meeb66c4154" y="112.820376"/>
     <use style="fill:#1f77b4;stroke:#1f77b4;" x="276.839265" xlink:href="#meeb66c4154" y="123.540495"/>
     <use style="fill:#1f77b4;stroke:#1f77b4;" x="278.143185" xlink:href="#meeb66c4154" y="96.092279"/>
     <use style="fill:#1f77b4;stroke:#1f77b4;" x="278.871332" xlink:href="#meeb66c4154" y="108.108236"/>
     <use style="fill:#1f77b4;stroke:#1f77b4;" x="283.076599" xlink:href="#meeb66c4154" y="102.807079"/>
     <use style="fill:#1f77b4;stroke:#1f77b4;" x="284.310578" xlink:href="#meeb66c4154" y="123.187085"/>
     <use style="fill:#1f77b4;stroke:#1f77b4;" x="286.315167" xlink:href="#meeb66c4154" y="95.149851"/>
     <use style="fill:#1f77b4;stroke:#1f77b4;" x="286.797268" xlink:href="#meeb66c4154" y="101.746847"/>
     <use style="fill:#1f77b4;stroke:#1f77b4;" x="288.028748" xlink:href="#meeb66c4154" y="118.710551"/>
     <use style="fill:#1f77b4;stroke:#1f77b4;" x="289.330171" xlink:href="#meeb66c4154" y="69.23308"/>
     <use style="fill:#1f77b4;stroke:#1f77b4;" x="290.074554" xlink:href="#meeb66c4154" y="96.327886"/>
     <use style="fill:#1f77b4;stroke:#1f77b4;" x="290.099533" xlink:href="#meeb66c4154" y="106.812398"/>
     <use style="fill:#1f77b4;stroke:#1f77b4;" x="290.124513" xlink:href="#meeb66c4154" y="84.547536"/>
     <use style="fill:#1f77b4;stroke:#1f77b4;" x="290.564149" xlink:href="#meeb66c4154" y="101.51124"/>
     <use style="fill:#1f77b4;stroke:#1f77b4;" x="291.32352" xlink:href="#meeb66c4154" y="75.123255"/>
     <use style="fill:#1f77b4;stroke:#1f77b4;" x="291.333511" xlink:href="#meeb66c4154" y="82.427073"/>
     <use style="fill:#1f77b4;stroke:#1f77b4;" x="291.410947" xlink:href="#meeb66c4154" y="79.835396"/>
     <use style="fill:#1f77b4;stroke:#1f77b4;" x="291.78189" xlink:href="#meeb66c4154" y="89.966497"/>
     <use style="fill:#1f77b4;stroke:#1f77b4;" x="292.510037" xlink:href="#meeb66c4154" y="83.369501"/>
     <use style="fill:#1f77b4;stroke:#1f77b4;" x="292.535016" xlink:href="#meeb66c4154" y="96.327886"/>
     <use style="fill:#1f77b4;stroke:#1f77b4;" x="293.783982" xlink:href="#meeb66c4154" y="75.123255"/>
     <use style="fill:#1f77b4;stroke:#1f77b4;" x="293.808961" xlink:href="#meeb66c4154" y="97.505921"/>
     <use style="fill:#1f77b4;stroke:#1f77b4;" x="294.353511" xlink:href="#meeb66c4154" y="80.895627"/>
     <use style="fill:#1f77b4;stroke:#1f77b4;" x="294.858093" xlink:href="#meeb66c4154" y="71.58915"/>
     <use style="fill:#1f77b4;stroke:#1f77b4;" x="295.541277" xlink:href="#meeb66c4154" y="81.602448"/>
     <use style="fill:#1f77b4;stroke:#1f77b4;" x="296.821467" xlink:href="#meeb66c4154" y="64.756547"/>
     <use style="fill:#1f77b4;stroke:#1f77b4;" x="297.555858" xlink:href="#meeb66c4154" y="79.835396"/>
     <use style="fill:#1f77b4;stroke:#1f77b4;" x="298.074179" xlink:href="#meeb66c4154" y="81.249038"/>
     <use style="fill:#1f77b4;stroke:#1f77b4;" x="298.767355" xlink:href="#meeb66c4154" y="86.903606"/>
     <use style="fill:#1f77b4;stroke:#1f77b4;" x="300.028811" xlink:href="#meeb66c4154" y="76.30129"/>
     <use style="fill:#1f77b4;stroke:#1f77b4;" x="302.489273" xlink:href="#meeb66c4154" y="79.835396"/>
     <use style="fill:#1f77b4;stroke:#1f77b4;" x="303.775708" xlink:href="#meeb66c4154" y="84.547536"/>
     <use style="fill:#1f77b4;stroke:#1f77b4;" x="305.099611" xlink:href="#meeb66c4154" y="102.218061"/>
     <use style="fill:#1f77b4;stroke:#1f77b4;" x="306.323598" xlink:href="#meeb66c4154" y="90.437711"/>
     <use style="fill:#1f77b4;stroke:#1f77b4;" x="308.022191" xlink:href="#meeb66c4154" y="104.574131"/>
     <use style="fill:#1f77b4;stroke:#1f77b4;" x="308.759081" xlink:href="#meeb66c4154" y="81.013431"/>
     <use style="fill:#1f77b4;stroke:#1f77b4;" x="309.261165" xlink:href="#meeb66c4154" y="119.299569"/>
     <use style="fill:#1f77b4;stroke:#1f77b4;" x="311.74286" xlink:href="#meeb66c4154" y="118.00373"/>
     <use style="fill:#1f77b4;stroke:#1f77b4;" x="312.580916" xlink:href="#meeb66c4154" y="99.861991"/>
     <use style="fill:#1f77b4;stroke:#1f77b4;" x="313.014307" xlink:href="#meeb66c4154" y="125.071941"/>
     <use style="fill:#1f77b4;stroke:#1f77b4;" x="313.717474" xlink:href="#meeb66c4154" y="103.396096"/>
     <use style="fill:#1f77b4;stroke:#1f77b4;" x="313.763686" xlink:href="#meeb66c4154" y="106.930201"/>
     <use style="fill:#1f77b4;stroke:#1f77b4;" x="314.263272" xlink:href="#meeb66c4154" y="104.102917"/>
     <use style="fill:#1f77b4;stroke:#1f77b4;" x="315.028888" xlink:href="#meeb66c4154" y="95.149851"/>
     <use style="fill:#1f77b4;stroke:#1f77b4;" x="315.538466" xlink:href="#meeb66c4154" y="122.36246"/>
     <use style="fill:#1f77b4;stroke:#1f77b4;" x="316.277854" xlink:href="#meeb66c4154" y="111.642341"/>
     <use style="fill:#1f77b4;stroke:#1f77b4;" x="316.352792" xlink:href="#meeb66c4154" y="109.286271"/>
     <use style="fill:#1f77b4;stroke:#1f77b4;" x="316.787432" xlink:href="#meeb66c4154" y="87.37482"/>
     <use style="fill:#1f77b4;stroke:#1f77b4;" x="317.351964" xlink:href="#meeb66c4154" y="103.396096"/>
     <use style="fill:#1f77b4;stroke:#1f77b4;" x="317.414413" xlink:href="#meeb66c4154" y="110.464306"/>
     <use style="fill:#1f77b4;stroke:#1f77b4;" x="318.04514" xlink:href="#meeb66c4154" y="138.148129"/>
     <use style="fill:#1f77b4;stroke:#1f77b4;" x="318.575951" xlink:href="#meeb66c4154" y="115.176446"/>
     <use style="fill:#1f77b4;stroke:#1f77b4;" x="318.775785" xlink:href="#meeb66c4154" y="121.066622"/>
     <use style="fill:#1f77b4;stroke:#1f77b4;" x="319.26538" xlink:href="#meeb66c4154" y="135.909863"/>
     <use style="fill:#1f77b4;stroke:#1f77b4;" x="319.974792" xlink:href="#meeb66c4154" y="125.778762"/>
     <use style="fill:#1f77b4;stroke:#1f77b4;" x="320.087199" xlink:href="#meeb66c4154" y="124.600727"/>
     <use style="fill:#1f77b4;stroke:#1f77b4;" x="320.50935" xlink:href="#meeb66c4154" y="149.92848"/>
     <use style="fill:#1f77b4;stroke:#1f77b4;" x="321.123841" xlink:href="#meeb66c4154" y="119.888586"/>
     <use style="fill:#1f77b4;stroke:#1f77b4;" x="321.261227" xlink:href="#meeb66c4154" y="123.422692"/>
     <use style="fill:#1f77b4;stroke:#1f77b4;" x="321.767058" xlink:href="#meeb66c4154" y="129.548474"/>
     <use style="fill:#1f77b4;stroke:#1f77b4;" x="322.272889" xlink:href="#meeb66c4154" y="144.627322"/>
     <use style="fill:#1f77b4;stroke:#1f77b4;" x="322.422765" xlink:href="#meeb66c4154" y="123.422692"/>
     <use style="fill:#1f77b4;stroke:#1f77b4;" x="322.555155" xlink:href="#meeb66c4154" y="133.553793"/>
     <use style="fill:#1f77b4;stroke:#1f77b4;" x="323.018522" xlink:href="#meeb66c4154" y="134.731828"/>
     <use style="fill:#1f77b4;stroke:#1f77b4;" x="323.7092" xlink:href="#meeb66c4154" y="126.956797"/>
     <use style="fill:#1f77b4;stroke:#1f77b4;" x="323.777893" xlink:href="#meeb66c4154" y="125.071941"/>
     <use style="fill:#1f77b4;stroke:#1f77b4;" x="323.784138" xlink:href="#meeb66c4154" y="128.134832"/>
     <use style="fill:#1f77b4;stroke:#1f77b4;" x="325.008124" xlink:href="#meeb66c4154" y="136.381077"/>
     <use style="fill:#1f77b4;stroke:#1f77b4;" x="325.475237" xlink:href="#meeb66c4154" y="122.00905"/>
     <use style="fill:#1f77b4;stroke:#1f77b4;" x="326.2446" xlink:href="#meeb66c4154" y="137.559112"/>
     <use style="fill:#1f77b4;stroke:#1f77b4;" x="326.720456" xlink:href="#meeb66c4154" y="131.668937"/>
     <use style="fill:#1f77b4;stroke:#1f77b4;" x="327.456097" xlink:href="#meeb66c4154" y="136.381077"/>
     <use style="fill:#1f77b4;stroke:#1f77b4;" x="327.939447" xlink:href="#meeb66c4154" y="168.188023"/>
     <use style="fill:#1f77b4;stroke:#1f77b4;" x="328.692573" xlink:href="#meeb66c4154" y="136.381077"/>
     <use style="fill:#1f77b4;stroke:#1f77b4;" x="329.193408" xlink:href="#meeb66c4154" y="141.21102"/>
     <use style="fill:#1f77b4;stroke:#1f77b4;" x="329.90407" xlink:href="#meeb66c4154" y="124.600727"/>
     <use style="fill:#1f77b4;stroke:#1f77b4;" x="329.954028" xlink:href="#meeb66c4154" y="134.025007"/>
     <use style="fill:#1f77b4;stroke:#1f77b4;" x="330.43488" xlink:href="#meeb66c4154" y="118.946158"/>
     <use style="fill:#1f77b4;stroke:#1f77b4;" x="331.103077" xlink:href="#meeb66c4154" y="134.025007"/>
     <use style="fill:#1f77b4;stroke:#1f77b4;" x="331.17177" xlink:href="#meeb66c4154" y="133.200382"/>
     <use style="fill:#1f77b4;stroke:#1f77b4;" x="331.227973" xlink:href="#meeb66c4154" y="141.093217"/>
     <use style="fill:#1f77b4;stroke:#1f77b4;" x="331.695086" xlink:href="#meeb66c4154" y="127.663618"/>
     <use style="fill:#1f77b4;stroke:#1f77b4;" x="332.302084" xlink:href="#meeb66c4154" y="150.517497"/>
     <use style="fill:#1f77b4;stroke:#1f77b4;" x="332.43947" xlink:href="#meeb66c4154" y="137.559112"/>
     <use style="fill:#1f77b4;stroke:#1f77b4;" x="332.510661" xlink:href="#meeb66c4154" y="160.766402"/>
     <use style="fill:#1f77b4;stroke:#1f77b4;" x="332.942803" xlink:href="#meeb66c4154" y="135.556452"/>
     <use style="fill:#1f77b4;stroke:#1f77b4;" x="333.713415" xlink:href="#meeb66c4154" y="135.203042"/>
     <use style="fill:#1f77b4;stroke:#1f77b4;" x="333.750884" xlink:href="#meeb66c4154" y="129.43067"/>
     <use style="fill:#1f77b4;stroke:#1f77b4;" x="334.196765" xlink:href="#meeb66c4154" y="144.627322"/>
     <use style="fill:#1f77b4;stroke:#1f77b4;" x="334.949891" xlink:href="#meeb66c4154" y="148.161427"/>
     <use style="fill:#1f77b4;stroke:#1f77b4;" x="335.021082" xlink:href="#meeb66c4154" y="153.933799"/>
     <use style="fill:#1f77b4;stroke:#1f77b4;" x="336.223836" xlink:href="#meeb66c4154" y="164.653918"/>
     <use style="fill:#1f77b4;stroke:#1f77b4;" x="336.298774" xlink:href="#meeb66c4154" y="135.203042"/>
     <use style="fill:#1f77b4;stroke:#1f77b4;" x="336.708435" xlink:href="#meeb66c4154" y="127.310207"/>
     <use style="fill:#1f77b4;stroke:#1f77b4;" x="337.447822" xlink:href="#meeb66c4154" y="152.873567"/>
     <use style="fill:#1f77b4;stroke:#1f77b4;" x="343.792568" xlink:href="#meeb66c4154" y="156.407672"/>
     <use style="fill:#1f77b4;stroke:#1f77b4;" x="344.26093" xlink:href="#meeb66c4154" y="136.616684"/>
     <use style="fill:#1f77b4;stroke:#1f77b4;" x="344.81672" xlink:href="#meeb66c4154" y="182.324443"/>
     <use style="fill:#1f77b4;stroke:#1f77b4;" x="345.037787" xlink:href="#meeb66c4154" y="185.976352"/>
     <use style="fill:#1f77b4;stroke:#1f77b4;" x="345.41997" xlink:href="#meeb66c4154" y="148.161427"/>
     <use style="fill:#1f77b4;stroke:#1f77b4;" x="346.190582" xlink:href="#meeb66c4154" y="161.119812"/>
     <use style="fill:#1f77b4;stroke:#1f77b4;" x="346.695164" xlink:href="#meeb66c4154" y="145.334143"/>
     <use style="fill:#1f77b4;stroke:#1f77b4;" x="347.202244" xlink:href="#meeb66c4154" y="176.434268"/>
     <use style="fill:#1f77b4;stroke:#1f77b4;" x="347.936636" xlink:href="#meeb66c4154" y="164.418311"/>
     <use style="fill:#1f77b4;stroke:#1f77b4;" x="349.183104" xlink:href="#meeb66c4154" y="158.292528"/>
     <use style="fill:#1f77b4;stroke:#1f77b4;" x="349.762624" xlink:href="#meeb66c4154" y="170.544093"/>
     <use style="fill:#1f77b4;stroke:#1f77b4;" x="350.428322" xlink:href="#meeb66c4154" y="144.273912"/>
     <use style="fill:#1f77b4;stroke:#1f77b4;" x="350.98661" xlink:href="#meeb66c4154" y="181.146408"/>
     <use style="fill:#1f77b4;stroke:#1f77b4;" x="351.677288" xlink:href="#meeb66c4154" y="179.614962"/>
     <use style="fill:#1f77b4;stroke:#1f77b4;" x="352.273045" xlink:href="#meeb66c4154" y="174.078198"/>
     <use style="fill:#1f77b4;stroke:#1f77b4;" x="352.917511" xlink:href="#meeb66c4154" y="190.924099"/>
     <use style="fill:#1f77b4;stroke:#1f77b4;" x="354.183962" xlink:href="#meeb66c4154" y="192.337741"/>
     <use style="fill:#1f77b4;stroke:#1f77b4;" x="354.721017" xlink:href="#meeb66c4154" y="178.790338"/>
     <use style="fill:#1f77b4;stroke:#1f77b4;" x="355.969983" xlink:href="#meeb66c4154" y="184.680513"/>
     <use style="fill:#1f77b4;stroke:#1f77b4;" x="356.132349" xlink:href="#meeb66c4154" y="190.570688"/>
     <use style="fill:#1f77b4;stroke:#1f77b4;" x="356.650669" xlink:href="#meeb66c4154" y="201.40861"/>
     <use style="fill:#1f77b4;stroke:#1f77b4;" x="357.922117" xlink:href="#meeb66c4154" y="201.40861"/>
     <use style="fill:#1f77b4;stroke:#1f77b4;" x="358.667749" xlink:href="#meeb66c4154" y="192.926758"/>
     <use style="fill:#1f77b4;stroke:#1f77b4;" x="359.164837" xlink:href="#meeb66c4154" y="207.298786"/>
     <use style="fill:#1f77b4;stroke:#1f77b4;" x="359.879246" xlink:href="#meeb66c4154" y="196.460863"/>
     <use style="fill:#1f77b4;stroke:#1f77b4;" x="360.413803" xlink:href="#meeb66c4154" y="206.120751"/>
     <use style="fill:#1f77b4;stroke:#1f77b4;" x="361.073257" xlink:href="#meeb66c4154" y="194.222597"/>
     <use style="fill:#1f77b4;stroke:#1f77b4;" x="361.103232" xlink:href="#meeb66c4154" y="201.173003"/>
     <use style="fill:#1f77b4;stroke:#1f77b4;" x="361.655275" xlink:href="#meeb66c4154" y="210.832891"/>
     <use style="fill:#1f77b4;stroke:#1f77b4;" x="362.91673" xlink:href="#meeb66c4154" y="209.301445"/>
     <use style="fill:#1f77b4;stroke:#1f77b4;" x="363.438798" xlink:href="#meeb66c4154" y="199.994968"/>
     <use style="fill:#1f77b4;stroke:#1f77b4;" x="364.150708" xlink:href="#meeb66c4154" y="208.712428"/>
     <use style="fill:#1f77b4;stroke:#1f77b4;" x="365.448384" xlink:href="#meeb66c4154" y="193.044562"/>
     <use style="fill:#1f77b4;stroke:#1f77b4;" x="366.086605" xlink:href="#meeb66c4154" y="203.529074"/>
     <use style="fill:#1f77b4;stroke:#1f77b4;" x="366.644893" xlink:href="#meeb66c4154" y="202.822252"/>
     <use style="fill:#1f77b4;stroke:#1f77b4;" x="367.866381" xlink:href="#meeb66c4154" y="202.115431"/>
     <use style="fill:#1f77b4;stroke:#1f77b4;" x="368.534578" xlink:href="#meeb66c4154" y="191.748723"/>
     <use style="fill:#1f77b4;stroke:#1f77b4;" x="369.136579" xlink:href="#meeb66c4154" y="210.008266"/>
     <use style="fill:#1f77b4;stroke:#1f77b4;" x="370.409275" xlink:href="#meeb66c4154" y="178.908141"/>
     <use style="fill:#1f77b4;stroke:#1f77b4;" x="373.605379" xlink:href="#meeb66c4154" y="210.597284"/>
     <use style="fill:#1f77b4;stroke:#1f77b4;" x="374.096222" xlink:href="#meeb66c4154" y="196.69647"/>
     <use style="fill:#1f77b4;stroke:#1f77b4;" x="378.613731" xlink:href="#meeb66c4154" y="187.036583"/>
     <use style="fill:#1f77b4;stroke:#1f77b4;" x="379.825228" xlink:href="#meeb66c4154" y="197.638898"/>
     <use style="fill:#1f77b4;stroke:#1f77b4;" x="380.974276" xlink:href="#meeb66c4154" y="202.351038"/>
     <use style="fill:#1f77b4;stroke:#1f77b4;" x="384.091694" xlink:href="#meeb66c4154" y="167.245595"/>
     <use style="fill:#1f77b4;stroke:#1f77b4;" x="386.580883" xlink:href="#meeb66c4154" y="173.606984"/>
     <use style="fill:#1f77b4;stroke:#1f77b4;" x="394.800326" xlink:href="#meeb66c4154" y="132.846972"/>
     <use style="fill:#1f77b4;stroke:#1f77b4;" x="395.974354" xlink:href="#meeb66c4154" y="125.778762"/>
     <use style="fill:#1f77b4;stroke:#1f77b4;" x="397.273278" xlink:href="#meeb66c4154" y="126.956797"/>
     <use style="fill:#1f77b4;stroke:#1f77b4;" x="398.487273" xlink:href="#meeb66c4154" y="128.606046"/>
    </g>
   </g>
   <g id="line2d_12">
    <defs>
     <path d="M 0 3 
C 0.795609 3 1.55874 2.683901 2.12132 2.12132 
C 2.683901 1.55874 3 0.795609 3 0 
C 3 -0.795609 2.683901 -1.55874 2.12132 -2.12132 
C 1.55874 -2.683901 0.795609 -3 0 -3 
C -0.795609 -3 -1.55874 -2.683901 -2.12132 -2.12132 
C -2.683901 -1.55874 -3 -0.795609 -3 0 
C -3 0.795609 -2.683901 1.55874 -2.12132 2.12132 
C -1.55874 2.683901 -0.795609 3 0 3 
z
" id="m48b7c29132" style="stroke:#ff7f0e;"/>
    </defs>
    <g clip-path="url(#pdf27b225f3)">
     <use style="fill:#ff7f0e;stroke:#ff7f0e;" x="88.04221" xlink:href="#m48b7c29132" y="279.607037"/>
     <use style="fill:#ff7f0e;stroke:#ff7f0e;" x="90.525154" xlink:href="#m48b7c29132" y="244.139554"/>
     <use style="fill:#ff7f0e;stroke:#ff7f0e;" x="94.315764" xlink:href="#m48b7c29132" y="261.079247"/>
     <use style="fill:#ff7f0e;stroke:#ff7f0e;" x="95.550991" xlink:href="#m48b7c29132" y="278.283624"/>
     <use style="fill:#ff7f0e;stroke:#ff7f0e;" x="101.782081" xlink:href="#m48b7c29132" y="295.488"/>
     <use style="fill:#ff7f0e;stroke:#ff7f0e;" x="104.207573" xlink:href="#m48b7c29132" y="295.223317"/>
     <use style="fill:#ff7f0e;stroke:#ff7f0e;" x="105.441551" xlink:href="#m48b7c29132" y="277.754258"/>
     <use style="fill:#ff7f0e;stroke:#ff7f0e;" x="106.22715" xlink:href="#m48b7c29132" y="292.57649"/>
     <use style="fill:#ff7f0e;stroke:#ff7f0e;" x="107.442394" xlink:href="#m48b7c29132" y="272.460604"/>
     <use style="fill:#ff7f0e;stroke:#ff7f0e;" x="107.955719" xlink:href="#m48b7c29132" y="266.372902"/>
     <use style="fill:#ff7f0e;stroke:#ff7f0e;" x="108.710094" xlink:href="#m48b7c29132" y="218.994696"/>
     <use style="fill:#ff7f0e;stroke:#ff7f0e;" x="109.274626" xlink:href="#m48b7c29132" y="274.313383"/>
     <use style="fill:#ff7f0e;stroke:#ff7f0e;" x="109.979043" xlink:href="#m48b7c29132" y="260.020516"/>
     <use style="fill:#ff7f0e;stroke:#ff7f0e;" x="119.190165" xlink:href="#m48b7c29132" y="215.818503"/>
     <use style="fill:#ff7f0e;stroke:#ff7f0e;" x="124.2797" xlink:href="#m48b7c29132" y="229.582004"/>
     <use style="fill:#ff7f0e;stroke:#ff7f0e;" x="125.468715" xlink:href="#m48b7c29132" y="245.72765"/>
     <use style="fill:#ff7f0e;stroke:#ff7f0e;" x="126.772635" xlink:href="#m48b7c29132" y="218.46533"/>
     <use style="fill:#ff7f0e;stroke:#ff7f0e;" x="131.70605" xlink:href="#m48b7c29132" y="242.81614"/>
     <use style="fill:#ff7f0e;stroke:#ff7f0e;" x="132.940028" xlink:href="#m48b7c29132" y="268.490363"/>
     <use style="fill:#ff7f0e;stroke:#ff7f0e;" x="135.426719" xlink:href="#m48b7c29132" y="233.816928"/>
     <use style="fill:#ff7f0e;stroke:#ff7f0e;" x="136.658199" xlink:href="#m48b7c29132" y="254.462179"/>
     <use style="fill:#ff7f0e;stroke:#ff7f0e;" x="137.959621" xlink:href="#m48b7c29132" y="169.234346"/>
     <use style="fill:#ff7f0e;stroke:#ff7f0e;" x="138.728984" xlink:href="#m48b7c29132" y="223.494302"/>
     <use style="fill:#ff7f0e;stroke:#ff7f0e;" x="139.193599" xlink:href="#m48b7c29132" y="228.787956"/>
     <use style="fill:#ff7f0e;stroke:#ff7f0e;" x="139.962962" xlink:href="#m48b7c29132" y="223.229619"/>
     <use style="fill:#ff7f0e;stroke:#ff7f0e;" x="140.411341" xlink:href="#m48b7c29132" y="233.816928"/>
     <use style="fill:#ff7f0e;stroke:#ff7f0e;" x="142.982961" xlink:href="#m48b7c29132" y="195.9673"/>
     <use style="fill:#ff7f0e;stroke:#ff7f0e;" x="144.170727" xlink:href="#m48b7c29132" y="203.378416"/>
     <use style="fill:#ff7f0e;stroke:#ff7f0e;" x="145.450917" xlink:href="#m48b7c29132" y="187.762136"/>
     <use style="fill:#ff7f0e;stroke:#ff7f0e;" x="146.70363" xlink:href="#m48b7c29132" y="190.14428"/>
     <use style="fill:#ff7f0e;stroke:#ff7f0e;" x="156.651641" xlink:href="#m48b7c29132" y="156.794258"/>
     <use style="fill:#ff7f0e;stroke:#ff7f0e;" x="157.890615" xlink:href="#m48b7c29132" y="181.939116"/>
     <use style="fill:#ff7f0e;stroke:#ff7f0e;" x="160.37231" xlink:href="#m48b7c29132" y="160.499816"/>
     <use style="fill:#ff7f0e;stroke:#ff7f0e;" x="161.643757" xlink:href="#m48b7c29132" y="187.23277"/>
     <use style="fill:#ff7f0e;stroke:#ff7f0e;" x="162.393136" xlink:href="#m48b7c29132" y="149.647825"/>
     <use style="fill:#ff7f0e;stroke:#ff7f0e;" x="162.892723" xlink:href="#m48b7c29132" y="153.353383"/>
     <use style="fill:#ff7f0e;stroke:#ff7f0e;" x="164.167917" xlink:href="#m48b7c29132" y="166.058153"/>
     <use style="fill:#ff7f0e;stroke:#ff7f0e;" x="165.416882" xlink:href="#m48b7c29132" y="130.325987"/>
     <use style="fill:#ff7f0e;stroke:#ff7f0e;" x="166.674591" xlink:href="#m48b7c29132" y="173.733952"/>
     <use style="fill:#ff7f0e;stroke:#ff7f0e;" x="167.89483" xlink:href="#m48b7c29132" y="191.732376"/>
     <use style="fill:#ff7f0e;stroke:#ff7f0e;" x="169.1388" xlink:href="#m48b7c29132" y="165.79347"/>
     <use style="fill:#ff7f0e;stroke:#ff7f0e;" x="170.396509" xlink:href="#m48b7c29132" y="141.177978"/>
     <use style="fill:#ff7f0e;stroke:#ff7f0e;" x="171.184606" xlink:href="#m48b7c29132" y="82.418416"/>
     <use style="fill:#ff7f0e;stroke:#ff7f0e;" x="171.647972" xlink:href="#m48b7c29132" y="122.385505"/>
     <use style="fill:#ff7f0e;stroke:#ff7f0e;" x="172.407343" xlink:href="#m48b7c29132" y="91.682311"/>
     <use style="fill:#ff7f0e;stroke:#ff7f0e;" x="174.104688" xlink:href="#m48b7c29132" y="77.654127"/>
     <use style="fill:#ff7f0e;stroke:#ff7f0e;" x="175.349906" xlink:href="#m48b7c29132" y="108.622004"/>
     <use style="fill:#ff7f0e;stroke:#ff7f0e;" x="176.568897" xlink:href="#m48b7c29132" y="143.29544"/>
     <use style="fill:#ff7f0e;stroke:#ff7f0e;" x="177.822858" xlink:href="#m48b7c29132" y="105.181129"/>
     <use style="fill:#ff7f0e;stroke:#ff7f0e;" x="179.06433" xlink:href="#m48b7c29132" y="85.859291"/>
     <use style="fill:#ff7f0e;stroke:#ff7f0e;" x="179.80122" xlink:href="#m48b7c29132" y="115.503755"/>
     <use style="fill:#ff7f0e;stroke:#ff7f0e;" x="180.324537" xlink:href="#m48b7c29132" y="84.535877"/>
     <use style="fill:#ff7f0e;stroke:#ff7f0e;" x="181.140111" xlink:href="#m48b7c29132" y="159.705768"/>
     <use style="fill:#ff7f0e;stroke:#ff7f0e;" x="181.572253" xlink:href="#m48b7c29132" y="103.593033"/>
     <use style="fill:#ff7f0e;stroke:#ff7f0e;" x="182.380334" xlink:href="#m48b7c29132" y="95.123186"/>
     <use style="fill:#ff7f0e;stroke:#ff7f0e;" x="182.826215" xlink:href="#m48b7c29132" y="112.856928"/>
     <use style="fill:#ff7f0e;stroke:#ff7f0e;" x="183.650532" xlink:href="#m48b7c29132" y="158.91172"/>
     <use style="fill:#ff7f0e;stroke:#ff7f0e;" x="185.337885" xlink:href="#m48b7c29132" y="68.125549"/>
     <use style="fill:#ff7f0e;stroke:#ff7f0e;" x="192.89038" xlink:href="#m48b7c29132" y="81.88905"/>
     <use style="fill:#ff7f0e;stroke:#ff7f0e;" x="193.667237" xlink:href="#m48b7c29132" y="160.764499"/>
     <use style="fill:#ff7f0e;stroke:#ff7f0e;" x="194.049421" xlink:href="#m48b7c29132" y="53.568"/>
     <use style="fill:#ff7f0e;stroke:#ff7f0e;" x="195.324614" xlink:href="#m48b7c29132" y="62.037847"/>
     <use style="fill:#ff7f0e;stroke:#ff7f0e;" x="196.566086" xlink:href="#m48b7c29132" y="122.914871"/>
     <use style="fill:#ff7f0e;stroke:#ff7f0e;" x="197.812554" xlink:href="#m48b7c29132" y="93.799772"/>
     <use style="fill:#ff7f0e;stroke:#ff7f0e;" x="199.057773" xlink:href="#m48b7c29132" y="82.683098"/>
     <use style="fill:#ff7f0e;stroke:#ff7f0e;" x="200.306739" xlink:href="#m48b7c29132" y="147.000998"/>
     <use style="fill:#ff7f0e;stroke:#ff7f0e;" x="201.546961" xlink:href="#m48b7c29132" y="171.351807"/>
     <use style="fill:#ff7f0e;stroke:#ff7f0e;" x="202.813413" xlink:href="#m48b7c29132" y="161.82323"/>
     <use style="fill:#ff7f0e;stroke:#ff7f0e;" x="205.28012" xlink:href="#m48b7c29132" y="159.176403"/>
     <use style="fill:#ff7f0e;stroke:#ff7f0e;" x="206.551567" xlink:href="#m48b7c29132" y="183.791895"/>
     <use style="fill:#ff7f0e;stroke:#ff7f0e;" x="207.794288" xlink:href="#m48b7c29132" y="167.910932"/>
     <use style="fill:#ff7f0e;stroke:#ff7f0e;" x="209.043253" xlink:href="#m48b7c29132" y="162.881961"/>
     <use style="fill:#ff7f0e;stroke:#ff7f0e;" x="209.702707" xlink:href="#m48b7c29132" y="92.741042"/>
     <use style="fill:#ff7f0e;stroke:#ff7f0e;" x="210.284725" xlink:href="#m48b7c29132" y="162.087912"/>
     <use style="fill:#ff7f0e;stroke:#ff7f0e;" x="211.546181" xlink:href="#m48b7c29132" y="168.175615"/>
     <use style="fill:#ff7f0e;stroke:#ff7f0e;" x="212.780159" xlink:href="#m48b7c29132" y="173.469269"/>
     <use style="fill:#ff7f0e;stroke:#ff7f0e;" x="214.077834" xlink:href="#m48b7c29132" y="178.233558"/>
     <use style="fill:#ff7f0e;stroke:#ff7f0e;" x="215.274343" xlink:href="#m48b7c29132" y="179.027606"/>
     <use style="fill:#ff7f0e;stroke:#ff7f0e;" x="216.495832" xlink:href="#m48b7c29132" y="193.849838"/>
     <use style="fill:#ff7f0e;stroke:#ff7f0e;" x="217.76603" xlink:href="#m48b7c29132" y="193.585155"/>
     <use style="fill:#ff7f0e;stroke:#ff7f0e;" x="219.038726" xlink:href="#m48b7c29132" y="139.325199"/>
     <use style="fill:#ff7f0e;stroke:#ff7f0e;" x="222.725672" xlink:href="#m48b7c29132" y="193.05579"/>
     <use style="fill:#ff7f0e;stroke:#ff7f0e;" x="232.721145" xlink:href="#m48b7c29132" y="192.261742"/>
     <use style="fill:#ff7f0e;stroke:#ff7f0e;" x="235.210333" xlink:href="#m48b7c29132" y="233.287562"/>
     <use style="fill:#ff7f0e;stroke:#ff7f0e;" x="247.116723" xlink:href="#m48b7c29132" y="271.931239"/>
    </g>
   </g>
   <g id="line2d_13">
    <path clip-path="url(#pdf27b225f3)" d="M 225.203277 208.24774 
L 228.149105 220.121442 
L 228.842241 222.441184 
L 229.015525 222.282467 
L 232.654489 208.378048 
L 232.827773 206.540397 
L 233.867477 216.809611 
L 234.040761 217.248608 
L 235.427033 224.203606 
L 236.466737 227.170605 
L 239.412565 223.313563 
L 242.011824 211.77373 
L 242.531676 211.557595 
L 242.70496 211.908303 
L 243.744664 216.303598 
L 243.917948 216.034043 
L 245.650788 206.843098 
L 246.343924 201.203136 
L 246.690492 208.492138 
L 247.210344 214.263298 
L 247.556912 216.667258 
L 247.730196 216.95194 
L 250.156172 202.240718 
L 250.329456 202.377381 
L 251.715728 204.932621 
L 253.102 206.525998 
L 253.448568 205.892123 
L 255.008124 202.253536 
L 255.181408 202.226894 
L 255.527976 203.887948 
L 255.70126 203.918531 
L 256.394396 202.73928 
L 256.740964 203.077078 
L 256.914248 202.926029 
L 257.780668 201.138556 
L 258.820372 200.28089 
L 259.16694 200.465944 
L 259.340224 200.437967 
L 260.03336 197.456718 
L 260.553212 197.389771 
L 260.726496 196.856848 
L 261.419632 192.049468 
L 262.459336 179.390905 
L 262.63262 179.226027 
L 263.152472 173.644786 
L 263.845608 165.583106 
L 265.058596 173.827571 
L 265.23188 173.166932 
L 266.271584 165.701269 
L 266.444868 167.888489 
L 267.484572 169.785299 
L 267.657856 170.960987 
L 268.69756 186.676029 
L 268.870844 185.589308 
L 269.737264 176.007176 
L 270.776968 166.0336 
L 272.683092 155.471253 
L 275.282352 126.286018 
L 275.975488 116.147235 
L 276.322056 113.03244 
L 276.841908 113.419978 
L 278.22818 107.61896 
L 278.921316 108.078684 
L 282.386996 106.832643 
L 283.080131 106.562292 
L 284.293119 108.21096 
L 285.159539 102.762537 
L 286.372527 95.5641 
L 287.065663 98.337229 
L 287.932083 100.743482 
L 288.105367 100.539054 
L 289.318355 93.051221 
L 290.011491 95.46065 
L 290.358059 90.67691 
L 290.704627 86.1191 
L 291.224479 77.368988 
L 291.397763 77.695367 
L 292.264183 91.798573 
L 292.610751 95.974104 
L 293.650455 95.0004 
L 293.823739 96.076801 
L 294.863443 71.94536 
L 295.556579 74.664307 
L 296.769567 75.820874 
L 297.289419 78.398148 
L 298.848975 86.226823 
L 300.061963 78.691133 
L 302.487939 81.285261 
L 303.874211 87.383233 
L 305.087199 95.139235 
L 305.607051 94.010296 
L 306.820039 91.386965 
L 308.033027 89.066438 
L 308.726163 82.710916 
L 309.072731 88.287335 
L 309.246015 91.534064 
L 309.939151 95.119218 
L 311.671991 103.511508 
L 311.845275 103.616594 
L 312.538411 102.008317 
L 313.058263 105.233832 
L 314.097967 102.522093 
L 314.617819 100.488396 
L 314.964387 99.019133 
L 315.137671 100.240466 
L 315.657523 106.368301 
L 316.177375 109.079066 
L 316.350659 109.238482 
L 316.870511 104.867751 
L 317.217079 104.234837 
L 317.390363 105.736475 
L 317.910215 113.387549 
L 318.083499 115.187853 
L 318.430067 115.340037 
L 318.603351 115.913368 
L 318.949919 120.667203 
L 319.296487 123.529748 
L 319.989623 124.893455 
L 320.162907 124.975823 
L 320.509475 126.338302 
L 321.029327 121.210313 
L 321.202611 121.952797 
L 322.242315 142.963402 
L 322.415599 134.963677 
L 322.762167 132.869097 
L 323.282019 129.912989 
L 323.628587 127.650654 
L 323.801871 127.75112 
L 325.014858 134.763694 
L 325.361426 134.000641 
L 325.53471 133.976315 
L 326.227846 136.613811 
L 326.747698 136.43834 
L 327.440834 137.767464 
L 327.960686 141.981632 
L 329.520242 129.484001 
L 329.86681 125.62833 
L 330.040094 127.396653 
L 330.386662 128.553045 
L 331.079798 134.037408 
L 331.426366 138.911784 
L 331.772934 142.113869 
L 332.292786 149.752774 
L 332.46607 145.043197 
L 332.812638 142.482702 
L 333.33249 139.181063 
L 333.679058 137.253153 
L 333.852342 138.026517 
L 334.545478 142.89479 
L 334.892046 144.950711 
L 335.06533 144.997265 
L 336.105034 138.772922 
L 336.278318 136.92903 
L 336.451602 137.307604 
L 336.79817 139.667719 
L 337.491306 147.04969 
L 343.72953 157.016993 
L 344.076098 161.584552 
L 344.249382 164.315155 
L 344.769234 180.254986 
L 344.942518 179.61117 
L 345.635654 167.09649 
L 346.155506 161.720358 
L 346.32879 162.558588 
L 346.675358 165.569876 
L 347.19521 175.953021 
L 348.234914 170.550338 
L 349.101334 168.532099 
L 349.274618 168.684865 
L 349.79447 170.561665 
L 350.314322 171.316691 
L 350.487606 172.480059 
L 351.007458 180.784311 
L 352.047162 175.580593 
L 352.220446 174.57176 
L 352.39373 175.372711 
L 352.913582 180.141795 
L 354.12657 182.013159 
L 354.299854 181.414822 
L 354.646422 179.364968 
L 354.819706 179.394083 
L 355.85941 184.349354 
L 356.72583 192.786904 
L 357.938818 195.084214 
L 358.631954 193.161365 
L 358.978522 195.568016 
L 359.151806 196.965464 
L 359.498374 197.08366 
L 359.844942 197.097831 
L 360.538078 200.28749 
L 361.05793 200.831123 
L 361.751066 203.744342 
L 362.79077 203.113243 
L 362.964054 202.771429 
L 363.483906 200.250993 
L 364.177042 202.359092 
L 365.39003 200.278794 
L 365.563314 200.57766 
L 366.083166 202.382162 
L 366.776301 200.706584 
L 367.816005 197.093679 
L 368.509141 192.117914 
L 368.855709 194.137629 
L 369.202277 195.789777 
L 370.415265 190.655369 
L 373.534377 201.99944 
L 373.707661 201.78818 
L 374.227513 199.721323 
L 378.559613 190.471728 
L 378.732897 190.982991 
L 379.945885 196.811021 
L 380.985589 197.450207 
L 384.104701 175.163191 
L 386.530677 170.076698 
L 387.223813 167.074736 
L 395.021593 131.566231 
L 396.061297 126.476582 
L 397.447569 127.20318 
L 398.487273 128.267994 
L 398.487273 128.267994 
" style="fill:none;stroke:#2ca02c;stroke-linecap:square;stroke-width:1.5;"/>
   </g>
   <g id="line2d_14">
    <path clip-path="url(#pdf27b225f3)" d="M 73.832727 248.160291 
L 77.991543 252.999634 
L 82.150359 258.177772 
L 86.309175 263.718423 
L 88.042015 266.139994 
L 90.467991 260.435297 
L 90.641275 260.52191 
L 94.280239 267.551496 
L 96.013079 273.189447 
L 100.518463 282.737351 
L 101.731451 285.400992 
L 101.904735 285.430579 
L 104.157427 283.990612 
L 104.677279 282.1464 
L 107.276538 271.731394 
L 108.66281 265.74177 
L 109.009378 265.224346 
L 109.182662 265.035703 
L 109.52923 264.004985 
L 112.12849 254.928025 
L 118.713282 232.687725 
L 119.233134 231.120198 
L 123.39195 232.809816 
L 124.25837 233.192545 
L 125.471358 234.807884 
L 126.684346 233.020274 
L 126.85763 233.062974 
L 132.229434 244.188893 
L 132.92257 245.69787 
L 133.615706 242.994285 
L 136.214966 232.89015 
L 136.561534 231.665073 
L 136.908102 228.895134 
L 137.947806 218.799762 
L 138.12109 218.870881 
L 139.160794 219.966157 
L 139.680646 219.381474 
L 140.373782 218.401408 
L 141.066918 214.773621 
L 143.146326 203.795962 
L 144.705882 198.03363 
L 145.572302 194.62048 
L 147.478426 190.115322 
L 156.662477 170.563538 
L 157.875465 171.551203 
L 158.915169 170.006292 
L 160.474725 167.794755 
L 161.514429 167.870241 
L 161.687713 167.686693 
L 162.900701 162.793577 
L 164.286973 160.501539 
L 165.326677 157.684475 
L 165.499961 157.675655 
L 166.712949 161.005471 
L 167.752653 160.973989 
L 167.925937 160.747967 
L 169.312209 150.358818 
L 171.738185 126.637062 
L 172.951173 118.672248 
L 174.164161 112.053283 
L 175.377149 112.856718 
L 176.590137 114.480468 
L 178.496261 106.191778 
L 179.189397 103.904217 
L 179.882533 103.484976 
L 180.229101 103.085 
L 180.402385 103.153033 
L 181.095521 104.737896 
L 181.268805 104.740596 
L 182.308509 104.060949 
L 182.828361 103.931399 
L 183.694781 102.075484 
L 185.427621 93.567862 
L 188.720017 91.805581 
L 192.012412 89.792919 
L 192.878832 89.220949 
L 193.571968 89.685817 
L 193.745252 89.496621 
L 194.09182 88.630678 
L 195.304808 92.252094 
L 196.864364 104.019467 
L 197.904068 108.761371 
L 199.117056 117.680954 
L 200.676612 137.58596 
L 201.716316 147.689568 
L 203.102588 154.208503 
L 206.048416 163.981954 
L 206.568268 165.799339 
L 207.95454 164.990211 
L 209.68738 163.172056 
L 210.380516 164.915561 
L 214.192764 176.372779 
L 216.445456 181.764072 
L 216.61874 181.839221 
L 217.658444 181.458075 
L 217.831728 181.210631 
L 219.044716 177.417437 
L 223.723384 200.403749 
L 225.629508 210.016378 
L 228.228768 220.387781 
L 228.921904 222.641983 
L 232.560867 208.734276 
L 232.734151 205.616125 
L 233.947139 216.743502 
L 235.333411 223.928309 
L 236.373115 226.991593 
L 236.546399 227.064886 
L 239.318943 223.434532 
L 239.665511 222.140595 
L 241.918203 211.812903 
L 242.611339 211.52468 
L 243.824327 216.53138 
L 245.730451 206.223591 
L 246.250303 201.144268 
L 246.596871 207.290216 
L 247.116723 213.614092 
L 247.116723 213.614092 
" style="fill:none;stroke:#d62728;stroke-dasharray:5.55,2.4;stroke-dashoffset:0;stroke-width:1.5;"/>
   </g>
   <g id="patch_3">
    <path d="M 57.6 307.584 
L 57.6 41.472 
" style="fill:none;stroke:#000000;stroke-linecap:square;stroke-linejoin:miter;stroke-width:0.8;"/>
   </g>
   <g id="patch_4">
    <path d="M 414.72 307.584 
L 414.72 41.472 
" style="fill:none;stroke:#000000;stroke-linecap:square;stroke-linejoin:miter;stroke-width:0.8;"/>
   </g>
   <g id="patch_5">
    <path d="M 57.6 307.584 
L 414.72 307.584 
" style="fill:none;stroke:#000000;stroke-linecap:square;stroke-linejoin:miter;stroke-width:0.8;"/>
   </g>
   <g id="patch_6">
    <path d="M 57.6 41.472 
L 414.72 41.472 
" style="fill:none;stroke:#000000;stroke-linecap:square;stroke-linejoin:miter;stroke-width:0.8;"/>
   </g>
   <g id="text_11">
    <!-- 117.325000 -->
    <g transform="translate(199.895625 35.472)scale(0.12 -0.12)">
     <defs>
      <path d="M 525 4666 
L 3525 4666 
L 3525 4397 
L 1831 0 
L 1172 0 
L 2766 4134 
L 525 4134 
L 525 4666 
z
" id="DejaVuSans-37" transform="scale(0.015625)"/>
      <path d="M 684 794 
L 1344 794 
L 1344 0 
L 684 0 
L 684 794 
z
" id="DejaVuSans-2e" transform="scale(0.015625)"/>
      <path d="M 2597 2516 
Q 3050 2419 3304 2112 
Q 3559 1806 3559 1356 
Q 3559 666 3084 287 
Q 2609 -91 1734 -91 
Q 1441 -91 1130 -33 
Q 819 25 488 141 
L 488 750 
Q 750 597 1062 519 
Q 1375 441 1716 441 
Q 2309 441 2620 675 
Q 2931 909 2931 1356 
Q 2931 1769 2642 2001 
Q 2353 2234 1838 2234 
L 1294 2234 
L 1294 2753 
L 1863 2753 
Q 2328 2753 2575 2939 
Q 2822 3125 2822 3475 
Q 2822 3834 2567 4026 
Q 2313 4219 1838 4219 
Q 1578 4219 1281 4162 
Q 984 4106 628 3988 
L 628 4550 
Q 988 4650 1302 4700 
Q 1616 4750 1894 4750 
Q 2613 4750 3031 4423 
Q 3450 4097 3450 3541 
Q 3450 3153 3228 2886 
Q 3006 2619 2597 2516 
z
" id="DejaVuSans-33" transform="scale(0.015625)"/>
     </defs>
     <use xlink:href="#DejaVuSans-31"/>
     <use x="63.623047" xlink:href="#DejaVuSans-31"/>
     <use x="127.246094" xlink:href="#DejaVuSans-37"/>
     <use x="190.869141" xlink:href="#DejaVuSans-2e"/>
     <use x="222.65625" xlink:href="#DejaVuSans-33"/>
     <use x="286.279297" xlink:href="#DejaVuSans-32"/>
     <use x="349.902344" xlink:href="#DejaVuSans-35"/>
     <use x="413.525391" xlink:href="#DejaVuSans-30"/>
     <use x="477.148438" xlink:href="#DejaVuSans-30"/>
     <use x="540.771484" xlink:href="#DejaVuSans-30"/>
    </g>
   </g>
  </g>
 </g>
 <defs>
  <clipPath id="pdf27b225f3">
   <rect height="266.112" width="357.12" x="57.6" y="41.472"/>
  </clipPath>
 </defs>
</svg>
