<?xml version="1.0" encoding="utf-8" standalone="no"?>
<!DOCTYPE svg PUBLIC "-//W3C//DTD SVG 1.1//EN"
  "http://www.w3.org/Graphics/SVG/1.1/DTD/svg11.dtd">
<svg height="345.6pt" version="1.1" viewBox="0 0 460.8 345.6" width="460.8pt" xmlns="http://www.w3.org/2000/svg" xmlns:xlink="http://www.w3.org/1999/xlink">
 <metadata>
  <rdf:RDF xmlns:cc="http://creativecommons.org/ns#" xmlns:dc="http://purl.org/dc/elements/1.1/" xmlns:rdf="http://www.w3.org/1999/02/22-rdf-syntax-ns#">
   <cc:Work>
    <dc:type rdf:resource="http://purl.org/dc/dcmitype/StillImage"/>
    <dc:date>2022-06-11T12:28:22.631763</dc:date>
    <dc:format>image/svg+xml</dc:format>
    <dc:creator>
     <cc:Agent>
      <dc:title>Matplotlib v3.4.3, https://matplotlib.org/</dc:title>
     </cc:Agent>
    </dc:creator>
   </cc:Work>
  </rdf:RDF>
 </metadata>
 <defs>
  <style type="text/css">*{stroke-linecap:butt;stroke-linejoin:round;}</style>
 </defs>
 <g id="figure_1">
  <g id="patch_1">
   <path d="M 0 345.6 
L 460.8 345.6 
L 460.8 0 
L 0 0 
z
" style="fill:#ffffff;"/>
  </g>
  <g id="axes_1">
   <g id="patch_2">
    <path d="M 57.6 307.584 
L 414.72 307.584 
L 414.72 41.472 
L 57.6 41.472 
z
" style="fill:#ffffff;"/>
   </g>
   <g id="matplotlib.axis_1">
    <g id="xtick_1">
     <g id="line2d_1">
      <defs>
       <path d="M 0 0 
L 0 3.5 
" id="mdeb27a235c" style="stroke:#000000;stroke-width:0.8;"/>
      </defs>
      <g>
       <use style="stroke:#000000;stroke-width:0.8;" x="70.813082" xlink:href="#mdeb27a235c" y="307.584"/>
      </g>
     </g>
     <g id="text_1">
      <!-- −20 -->
      <g transform="translate(60.260738 322.182437)scale(0.1 -0.1)">
       <defs>
        <path d="M 678 2272 
L 4684 2272 
L 4684 1741 
L 678 1741 
L 678 2272 
z
" id="DejaVuSans-2212" transform="scale(0.015625)"/>
        <path d="M 1228 531 
L 3431 531 
L 3431 0 
L 469 0 
L 469 531 
Q 828 903 1448 1529 
Q 2069 2156 2228 2338 
Q 2531 2678 2651 2914 
Q 2772 3150 2772 3378 
Q 2772 3750 2511 3984 
Q 2250 4219 1831 4219 
Q 1534 4219 1204 4116 
Q 875 4013 500 3803 
L 500 4441 
Q 881 4594 1212 4672 
Q 1544 4750 1819 4750 
Q 2544 4750 2975 4387 
Q 3406 4025 3406 3419 
Q 3406 3131 3298 2873 
Q 3191 2616 2906 2266 
Q 2828 2175 2409 1742 
Q 1991 1309 1228 531 
z
" id="DejaVuSans-32" transform="scale(0.015625)"/>
        <path d="M 2034 4250 
Q 1547 4250 1301 3770 
Q 1056 3291 1056 2328 
Q 1056 1369 1301 889 
Q 1547 409 2034 409 
Q 2525 409 2770 889 
Q 3016 1369 3016 2328 
Q 3016 3291 2770 3770 
Q 2525 4250 2034 4250 
z
M 2034 4750 
Q 2819 4750 3233 4129 
Q 3647 3509 3647 2328 
Q 3647 1150 3233 529 
Q 2819 -91 2034 -91 
Q 1250 -91 836 529 
Q 422 1150 422 2328 
Q 422 3509 836 4129 
Q 1250 4750 2034 4750 
z
" id="DejaVuSans-30" transform="scale(0.015625)"/>
       </defs>
       <use xlink:href="#DejaVuSans-2212"/>
       <use x="83.789062" xlink:href="#DejaVuSans-32"/>
       <use x="147.412109" xlink:href="#DejaVuSans-30"/>
      </g>
     </g>
    </g>
    <g id="xtick_2">
     <g id="line2d_2">
      <g>
       <use style="stroke:#000000;stroke-width:0.8;" x="115.548568" xlink:href="#mdeb27a235c" y="307.584"/>
      </g>
     </g>
     <g id="text_2">
      <!-- 0 -->
      <g transform="translate(112.367318 322.182437)scale(0.1 -0.1)">
       <use xlink:href="#DejaVuSans-30"/>
      </g>
     </g>
    </g>
    <g id="xtick_3">
     <g id="line2d_3">
      <g>
       <use style="stroke:#000000;stroke-width:0.8;" x="160.284054" xlink:href="#mdeb27a235c" y="307.584"/>
      </g>
     </g>
     <g id="text_3">
      <!-- 20 -->
      <g transform="translate(153.921554 322.182437)scale(0.1 -0.1)">
       <use xlink:href="#DejaVuSans-32"/>
       <use x="63.623047" xlink:href="#DejaVuSans-30"/>
      </g>
     </g>
    </g>
    <g id="xtick_4">
     <g id="line2d_4">
      <g>
       <use style="stroke:#000000;stroke-width:0.8;" x="205.01954" xlink:href="#mdeb27a235c" y="307.584"/>
      </g>
     </g>
     <g id="text_4">
      <!-- 40 -->
      <g transform="translate(198.65704 322.182437)scale(0.1 -0.1)">
       <defs>
        <path d="M 2419 4116 
L 825 1625 
L 2419 1625 
L 2419 4116 
z
M 2253 4666 
L 3047 4666 
L 3047 1625 
L 3713 1625 
L 3713 1100 
L 3047 1100 
L 3047 0 
L 2419 0 
L 2419 1100 
L 313 1100 
L 313 1709 
L 2253 4666 
z
" id="DejaVuSans-34" transform="scale(0.015625)"/>
       </defs>
       <use xlink:href="#DejaVuSans-34"/>
       <use x="63.623047" xlink:href="#DejaVuSans-30"/>
      </g>
     </g>
    </g>
    <g id="xtick_5">
     <g id="line2d_5">
      <g>
       <use style="stroke:#000000;stroke-width:0.8;" x="249.755026" xlink:href="#mdeb27a235c" y="307.584"/>
      </g>
     </g>
     <g id="text_5">
      <!-- 60 -->
      <g transform="translate(243.392526 322.182437)scale(0.1 -0.1)">
       <defs>
        <path d="M 2113 2584 
Q 1688 2584 1439 2293 
Q 1191 2003 1191 1497 
Q 1191 994 1439 701 
Q 1688 409 2113 409 
Q 2538 409 2786 701 
Q 3034 994 3034 1497 
Q 3034 2003 2786 2293 
Q 2538 2584 2113 2584 
z
M 3366 4563 
L 3366 3988 
Q 3128 4100 2886 4159 
Q 2644 4219 2406 4219 
Q 1781 4219 1451 3797 
Q 1122 3375 1075 2522 
Q 1259 2794 1537 2939 
Q 1816 3084 2150 3084 
Q 2853 3084 3261 2657 
Q 3669 2231 3669 1497 
Q 3669 778 3244 343 
Q 2819 -91 2113 -91 
Q 1303 -91 875 529 
Q 447 1150 447 2328 
Q 447 3434 972 4092 
Q 1497 4750 2381 4750 
Q 2619 4750 2861 4703 
Q 3103 4656 3366 4563 
z
" id="DejaVuSans-36" transform="scale(0.015625)"/>
       </defs>
       <use xlink:href="#DejaVuSans-36"/>
       <use x="63.623047" xlink:href="#DejaVuSans-30"/>
      </g>
     </g>
    </g>
    <g id="xtick_6">
     <g id="line2d_6">
      <g>
       <use style="stroke:#000000;stroke-width:0.8;" x="294.490512" xlink:href="#mdeb27a235c" y="307.584"/>
      </g>
     </g>
     <g id="text_6">
      <!-- 80 -->
      <g transform="translate(288.128012 322.182437)scale(0.1 -0.1)">
       <defs>
        <path d="M 2034 2216 
Q 1584 2216 1326 1975 
Q 1069 1734 1069 1313 
Q 1069 891 1326 650 
Q 1584 409 2034 409 
Q 2484 409 2743 651 
Q 3003 894 3003 1313 
Q 3003 1734 2745 1975 
Q 2488 2216 2034 2216 
z
M 1403 2484 
Q 997 2584 770 2862 
Q 544 3141 544 3541 
Q 544 4100 942 4425 
Q 1341 4750 2034 4750 
Q 2731 4750 3128 4425 
Q 3525 4100 3525 3541 
Q 3525 3141 3298 2862 
Q 3072 2584 2669 2484 
Q 3125 2378 3379 2068 
Q 3634 1759 3634 1313 
Q 3634 634 3220 271 
Q 2806 -91 2034 -91 
Q 1263 -91 848 271 
Q 434 634 434 1313 
Q 434 1759 690 2068 
Q 947 2378 1403 2484 
z
M 1172 3481 
Q 1172 3119 1398 2916 
Q 1625 2713 2034 2713 
Q 2441 2713 2670 2916 
Q 2900 3119 2900 3481 
Q 2900 3844 2670 4047 
Q 2441 4250 2034 4250 
Q 1625 4250 1398 4047 
Q 1172 3844 1172 3481 
z
" id="DejaVuSans-38" transform="scale(0.015625)"/>
       </defs>
       <use xlink:href="#DejaVuSans-38"/>
       <use x="63.623047" xlink:href="#DejaVuSans-30"/>
      </g>
     </g>
    </g>
    <g id="xtick_7">
     <g id="line2d_7">
      <g>
       <use style="stroke:#000000;stroke-width:0.8;" x="339.225998" xlink:href="#mdeb27a235c" y="307.584"/>
      </g>
     </g>
     <g id="text_7">
      <!-- 100 -->
      <g transform="translate(329.682248 322.182437)scale(0.1 -0.1)">
       <defs>
        <path d="M 794 531 
L 1825 531 
L 1825 4091 
L 703 3866 
L 703 4441 
L 1819 4666 
L 2450 4666 
L 2450 531 
L 3481 531 
L 3481 0 
L 794 0 
L 794 531 
z
" id="DejaVuSans-31" transform="scale(0.015625)"/>
       </defs>
       <use xlink:href="#DejaVuSans-31"/>
       <use x="63.623047" xlink:href="#DejaVuSans-30"/>
       <use x="127.246094" xlink:href="#DejaVuSans-30"/>
      </g>
     </g>
    </g>
    <g id="xtick_8">
     <g id="line2d_8">
      <g>
       <use style="stroke:#000000;stroke-width:0.8;" x="383.961484" xlink:href="#mdeb27a235c" y="307.584"/>
      </g>
     </g>
     <g id="text_8">
      <!-- 120 -->
      <g transform="translate(374.417734 322.182437)scale(0.1 -0.1)">
       <use xlink:href="#DejaVuSans-31"/>
       <use x="63.623047" xlink:href="#DejaVuSans-32"/>
       <use x="127.246094" xlink:href="#DejaVuSans-30"/>
      </g>
     </g>
    </g>
   </g>
   <g id="matplotlib.axis_2">
    <g id="ytick_1">
     <g id="line2d_9">
      <defs>
       <path d="M 0 0 
L -3.5 0 
" id="medcd0e13b8" style="stroke:#000000;stroke-width:0.8;"/>
      </defs>
      <g>
       <use style="stroke:#000000;stroke-width:0.8;" x="57.6" xlink:href="#medcd0e13b8" y="273.801105"/>
      </g>
     </g>
     <g id="text_9">
      <!-- −1.5 -->
      <g transform="translate(26.317187 277.600324)scale(0.1 -0.1)">
       <defs>
        <path d="M 684 794 
L 1344 794 
L 1344 0 
L 684 0 
L 684 794 
z
" id="DejaVuSans-2e" transform="scale(0.015625)"/>
        <path d="M 691 4666 
L 3169 4666 
L 3169 4134 
L 1269 4134 
L 1269 2991 
Q 1406 3038 1543 3061 
Q 1681 3084 1819 3084 
Q 2600 3084 3056 2656 
Q 3513 2228 3513 1497 
Q 3513 744 3044 326 
Q 2575 -91 1722 -91 
Q 1428 -91 1123 -41 
Q 819 9 494 109 
L 494 744 
Q 775 591 1075 516 
Q 1375 441 1709 441 
Q 2250 441 2565 725 
Q 2881 1009 2881 1497 
Q 2881 1984 2565 2268 
Q 2250 2553 1709 2553 
Q 1456 2553 1204 2497 
Q 953 2441 691 2322 
L 691 4666 
z
" id="DejaVuSans-35" transform="scale(0.015625)"/>
       </defs>
       <use xlink:href="#DejaVuSans-2212"/>
       <use x="83.789062" xlink:href="#DejaVuSans-31"/>
       <use x="147.412109" xlink:href="#DejaVuSans-2e"/>
       <use x="179.199219" xlink:href="#DejaVuSans-35"/>
      </g>
     </g>
    </g>
    <g id="ytick_2">
     <g id="line2d_10">
      <g>
       <use style="stroke:#000000;stroke-width:0.8;" x="57.6" xlink:href="#medcd0e13b8" y="238.642351"/>
      </g>
     </g>
     <g id="text_10">
      <!-- −1.0 -->
      <g transform="translate(26.317187 242.441569)scale(0.1 -0.1)">
       <use xlink:href="#DejaVuSans-2212"/>
       <use x="83.789062" xlink:href="#DejaVuSans-31"/>
       <use x="147.412109" xlink:href="#DejaVuSans-2e"/>
       <use x="179.199219" xlink:href="#DejaVuSans-30"/>
      </g>
     </g>
    </g>
    <g id="ytick_3">
     <g id="line2d_11">
      <g>
       <use style="stroke:#000000;stroke-width:0.8;" x="57.6" xlink:href="#medcd0e13b8" y="203.483597"/>
      </g>
     </g>
     <g id="text_11">
      <!-- −0.5 -->
      <g transform="translate(26.317187 207.282815)scale(0.1 -0.1)">
       <use xlink:href="#DejaVuSans-2212"/>
       <use x="83.789062" xlink:href="#DejaVuSans-30"/>
       <use x="147.412109" xlink:href="#DejaVuSans-2e"/>
       <use x="179.199219" xlink:href="#DejaVuSans-35"/>
      </g>
     </g>
    </g>
    <g id="ytick_4">
     <g id="line2d_12">
      <g>
       <use style="stroke:#000000;stroke-width:0.8;" x="57.6" xlink:href="#medcd0e13b8" y="168.324842"/>
      </g>
     </g>
     <g id="text_12">
      <!-- 0.0 -->
      <g transform="translate(34.696875 172.124061)scale(0.1 -0.1)">
       <use xlink:href="#DejaVuSans-30"/>
       <use x="63.623047" xlink:href="#DejaVuSans-2e"/>
       <use x="95.410156" xlink:href="#DejaVuSans-30"/>
      </g>
     </g>
    </g>
    <g id="ytick_5">
     <g id="line2d_13">
      <g>
       <use style="stroke:#000000;stroke-width:0.8;" x="57.6" xlink:href="#medcd0e13b8" y="133.166088"/>
      </g>
     </g>
     <g id="text_13">
      <!-- 0.5 -->
      <g transform="translate(34.696875 136.965307)scale(0.1 -0.1)">
       <use xlink:href="#DejaVuSans-30"/>
       <use x="63.623047" xlink:href="#DejaVuSans-2e"/>
       <use x="95.410156" xlink:href="#DejaVuSans-35"/>
      </g>
     </g>
    </g>
    <g id="ytick_6">
     <g id="line2d_14">
      <g>
       <use style="stroke:#000000;stroke-width:0.8;" x="57.6" xlink:href="#medcd0e13b8" y="98.007334"/>
      </g>
     </g>
     <g id="text_14">
      <!-- 1.0 -->
      <g transform="translate(34.696875 101.806553)scale(0.1 -0.1)">
       <use xlink:href="#DejaVuSans-31"/>
       <use x="63.623047" xlink:href="#DejaVuSans-2e"/>
       <use x="95.410156" xlink:href="#DejaVuSans-30"/>
      </g>
     </g>
    </g>
    <g id="ytick_7">
     <g id="line2d_15">
      <g>
       <use style="stroke:#000000;stroke-width:0.8;" x="57.6" xlink:href="#medcd0e13b8" y="62.84858"/>
      </g>
     </g>
     <g id="text_15">
      <!-- 1.5 -->
      <g transform="translate(34.696875 66.647799)scale(0.1 -0.1)">
       <use xlink:href="#DejaVuSans-31"/>
       <use x="63.623047" xlink:href="#DejaVuSans-2e"/>
       <use x="95.410156" xlink:href="#DejaVuSans-35"/>
      </g>
     </g>
    </g>
   </g>
   <g id="line2d_16">
    <defs>
     <path d="M 0 3 
C 0.795609 3 1.55874 2.683901 2.12132 2.12132 
C 2.683901 1.55874 3 0.795609 3 0 
C 3 -0.795609 2.683901 -1.55874 2.12132 -2.12132 
C 1.55874 -2.683901 0.795609 -3 0 -3 
C -0.795609 -3 -1.55874 -2.683901 -2.12132 -2.12132 
C -2.683901 -1.55874 -3 -0.795609 -3 0 
C -3 0.795609 -2.683901 1.55874 -2.12132 2.12132 
C -1.55874 2.683901 -0.795609 3 0 3 
z
" id="m9a90537e43" style="stroke:#1f77b4;"/>
    </defs>
    <g clip-path="url(#p087ae1929d)">
     <use style="fill:#1f77b4;stroke:#1f77b4;" x="115.548568" xlink:href="#m9a90537e43" y="86.556548"/>
     <use style="fill:#1f77b4;stroke:#1f77b4;" x="117.601973" xlink:href="#m9a90537e43" y="86.556548"/>
     <use style="fill:#1f77b4;stroke:#1f77b4;" x="119.655378" xlink:href="#m9a90537e43" y="90.185429"/>
     <use style="fill:#1f77b4;stroke:#1f77b4;" x="121.565045" xlink:href="#m9a90537e43" y="61.154376"/>
     <use style="fill:#1f77b4;stroke:#1f77b4;" x="121.606113" xlink:href="#m9a90537e43" y="86.556548"/>
     <use style="fill:#1f77b4;stroke:#1f77b4;" x="129.90187" xlink:href="#m9a90537e43" y="104.700956"/>
     <use style="fill:#1f77b4;stroke:#1f77b4;" x="131.852605" xlink:href="#m9a90537e43" y="82.927666"/>
     <use style="fill:#1f77b4;stroke:#1f77b4;" x="133.988147" xlink:href="#m9a90537e43" y="90.185429"/>
     <use style="fill:#1f77b4;stroke:#1f77b4;" x="136.021018" xlink:href="#m9a90537e43" y="90.185429"/>
     <use style="fill:#1f77b4;stroke:#1f77b4;" x="136.041552" xlink:href="#m9a90537e43" y="90.185429"/>
     <use style="fill:#1f77b4;stroke:#1f77b4;" x="137.047721" xlink:href="#m9a90537e43" y="102.523627"/>
     <use style="fill:#1f77b4;stroke:#1f77b4;" x="139.01899" xlink:href="#m9a90537e43" y="96.717417"/>
     <use style="fill:#1f77b4;stroke:#1f77b4;" x="139.799284" xlink:href="#m9a90537e43" y="64.783257"/>
     <use style="fill:#1f77b4;stroke:#1f77b4;" x="141.051861" xlink:href="#m9a90537e43" y="88.0081"/>
     <use style="fill:#1f77b4;stroke:#1f77b4;" x="141.996427" xlink:href="#m9a90537e43" y="93.814311"/>
     <use style="fill:#1f77b4;stroke:#1f77b4;" x="142.037495" xlink:href="#m9a90537e43" y="82.927666"/>
     <use style="fill:#1f77b4;stroke:#1f77b4;" x="142.304438" xlink:href="#m9a90537e43" y="106.515397"/>
     <use style="fill:#1f77b4;stroke:#1f77b4;" x="143.947162" xlink:href="#m9a90537e43" y="97.443193"/>
     <use style="fill:#1f77b4;stroke:#1f77b4;" x="144.090901" xlink:href="#m9a90537e43" y="90.185429"/>
     <use style="fill:#1f77b4;stroke:#1f77b4;" x="144.255173" xlink:href="#m9a90537e43" y="114.861825"/>
     <use style="fill:#1f77b4;stroke:#1f77b4;" x="145.138137" xlink:href="#m9a90537e43" y="106.152509"/>
     <use style="fill:#1f77b4;stroke:#1f77b4;" x="146.16484" xlink:href="#m9a90537e43" y="93.814311"/>
     <use style="fill:#1f77b4;stroke:#1f77b4;" x="148.485188" xlink:href="#m9a90537e43" y="111.95872"/>
     <use style="fill:#1f77b4;stroke:#1f77b4;" x="149.327084" xlink:href="#m9a90537e43" y="99.620522"/>
     <use style="fill:#1f77b4;stroke:#1f77b4;" x="150.148446" xlink:href="#m9a90537e43" y="97.443193"/>
     <use style="fill:#1f77b4;stroke:#1f77b4;" x="150.476991" xlink:href="#m9a90537e43" y="86.556548"/>
     <use style="fill:#1f77b4;stroke:#1f77b4;" x="152.201851" xlink:href="#m9a90537e43" y="104.700956"/>
     <use style="fill:#1f77b4;stroke:#1f77b4;" x="152.468794" xlink:href="#m9a90537e43" y="97.443193"/>
     <use style="fill:#1f77b4;stroke:#1f77b4;" x="154.255256" xlink:href="#m9a90537e43" y="108.329838"/>
     <use style="fill:#1f77b4;stroke:#1f77b4;" x="154.686471" xlink:href="#m9a90537e43" y="97.443193"/>
     <use style="fill:#1f77b4;stroke:#1f77b4;" x="155.425697" xlink:href="#m9a90537e43" y="78.21012"/>
     <use style="fill:#1f77b4;stroke:#1f77b4;" x="156.226525" xlink:href="#m9a90537e43" y="111.95872"/>
     <use style="fill:#1f77b4;stroke:#1f77b4;" x="156.534536" xlink:href="#m9a90537e43" y="104.700956"/>
     <use style="fill:#1f77b4;stroke:#1f77b4;" x="157.479103" xlink:href="#m9a90537e43" y="81.839001"/>
     <use style="fill:#1f77b4;stroke:#1f77b4;" x="158.608475" xlink:href="#m9a90537e43" y="124.659806"/>
     <use style="fill:#1f77b4;stroke:#1f77b4;" x="158.711146" xlink:href="#m9a90537e43" y="97.443193"/>
     <use style="fill:#1f77b4;stroke:#1f77b4;" x="159.409303" xlink:href="#m9a90537e43" y="111.232943"/>
     <use style="fill:#1f77b4;stroke:#1f77b4;" x="160.641347" xlink:href="#m9a90537e43" y="111.95872"/>
     <use style="fill:#1f77b4;stroke:#1f77b4;" x="160.641347" xlink:href="#m9a90537e43" y="121.7567"/>
     <use style="fill:#1f77b4;stroke:#1f77b4;" x="162.879558" xlink:href="#m9a90537e43" y="115.587601"/>
     <use style="fill:#1f77b4;stroke:#1f77b4;" x="163.618784" xlink:href="#m9a90537e43" y="104.338068"/>
     <use style="fill:#1f77b4;stroke:#1f77b4;" x="164.481214" xlink:href="#m9a90537e43" y="126.474247"/>
     <use style="fill:#1f77b4;stroke:#1f77b4;" x="164.645487" xlink:href="#m9a90537e43" y="115.95049"/>
     <use style="fill:#1f77b4;stroke:#1f77b4;" x="164.727623" xlink:href="#m9a90537e43" y="115.587601"/>
     <use style="fill:#1f77b4;stroke:#1f77b4;" x="165.569519" xlink:href="#m9a90537e43" y="127.925799"/>
     <use style="fill:#1f77b4;stroke:#1f77b4;" x="166.73996" xlink:href="#m9a90537e43" y="126.474247"/>
     <use style="fill:#1f77b4;stroke:#1f77b4;" x="167.60239" xlink:href="#m9a90537e43" y="130.828905"/>
     <use style="fill:#1f77b4;stroke:#1f77b4;" x="168.711229" xlink:href="#m9a90537e43" y="139.175333"/>
     <use style="fill:#1f77b4;stroke:#1f77b4;" x="168.834433" xlink:href="#m9a90537e43" y="119.216483"/>
     <use style="fill:#1f77b4;stroke:#1f77b4;" x="170.785168" xlink:href="#m9a90537e43" y="127.562911"/>
     <use style="fill:#1f77b4;stroke:#1f77b4;" x="170.908373" xlink:href="#m9a90537e43" y="119.216483"/>
     <use style="fill:#1f77b4;stroke:#1f77b4;" x="171.729735" xlink:href="#m9a90537e43" y="138.449556"/>
     <use style="fill:#1f77b4;stroke:#1f77b4;" x="172.674301" xlink:href="#m9a90537e43" y="130.103128"/>
     <use style="fill:#1f77b4;stroke:#1f77b4;" x="173.02338" xlink:href="#m9a90537e43" y="137.360892"/>
     <use style="fill:#1f77b4;stroke:#1f77b4;" x="173.02338" xlink:href="#m9a90537e43" y="146.433096"/>
     <use style="fill:#1f77b4;stroke:#1f77b4;" x="173.906344" xlink:href="#m9a90537e43" y="129.74024"/>
     <use style="fill:#1f77b4;stroke:#1f77b4;" x="174.707172" xlink:href="#m9a90537e43" y="140.989774"/>
     <use style="fill:#1f77b4;stroke:#1f77b4;" x="174.953581" xlink:href="#m9a90537e43" y="111.95872"/>
     <use style="fill:#1f77b4;stroke:#1f77b4;" x="176.863248" xlink:href="#m9a90537e43" y="140.989774"/>
     <use style="fill:#1f77b4;stroke:#1f77b4;" x="181.011126" xlink:href="#m9a90537e43" y="195.422999"/>
     <use style="fill:#1f77b4;stroke:#1f77b4;" x="187.356148" xlink:href="#m9a90537e43" y="148.247537"/>
     <use style="fill:#1f77b4;stroke:#1f77b4;" x="189.039941" xlink:href="#m9a90537e43" y="180.907472"/>
     <use style="fill:#1f77b4;stroke:#1f77b4;" x="189.38902" xlink:href="#m9a90537e43" y="151.876419"/>
     <use style="fill:#1f77b4;stroke:#1f77b4;" x="191.093346" xlink:href="#m9a90537e43" y="173.649709"/>
     <use style="fill:#1f77b4;stroke:#1f77b4;" x="193.372626" xlink:href="#m9a90537e43" y="183.084802"/>
     <use style="fill:#1f77b4;stroke:#1f77b4;" x="193.49583" xlink:href="#m9a90537e43" y="162.763064"/>
     <use style="fill:#1f77b4;stroke:#1f77b4;" x="193.5985" xlink:href="#m9a90537e43" y="173.649709"/>
     <use style="fill:#1f77b4;stroke:#1f77b4;" x="194.378794" xlink:href="#m9a90537e43" y="146.070208"/>
     <use style="fill:#1f77b4;stroke:#1f77b4;" x="195.282293" xlink:href="#m9a90537e43" y="180.907472"/>
     <use style="fill:#1f77b4;stroke:#1f77b4;" x="196.473268" xlink:href="#m9a90537e43" y="174.375485"/>
     <use style="fill:#1f77b4;stroke:#1f77b4;" x="197.479436" xlink:href="#m9a90537e43" y="188.165236"/>
     <use style="fill:#1f77b4;stroke:#1f77b4;" x="199.532841" xlink:href="#m9a90537e43" y="184.536354"/>
     <use style="fill:#1f77b4;stroke:#1f77b4;" x="199.758716" xlink:href="#m9a90537e43" y="177.278591"/>
     <use style="fill:#1f77b4;stroke:#1f77b4;" x="201.360372" xlink:href="#m9a90537e43" y="188.165236"/>
     <use style="fill:#1f77b4;stroke:#1f77b4;" x="203.475379" xlink:href="#m9a90537e43" y="191.794118"/>
     <use style="fill:#1f77b4;stroke:#1f77b4;" x="205.816261" xlink:href="#m9a90537e43" y="191.794118"/>
     <use style="fill:#1f77b4;stroke:#1f77b4;" x="207.766996" xlink:href="#m9a90537e43" y="188.165236"/>
     <use style="fill:#1f77b4;stroke:#1f77b4;" x="209.594527" xlink:href="#m9a90537e43" y="195.422999"/>
     <use style="fill:#1f77b4;stroke:#1f77b4;" x="210.785502" xlink:href="#m9a90537e43" y="197.600328"/>
     <use style="fill:#1f77b4;stroke:#1f77b4;" x="211.709534" xlink:href="#m9a90537e43" y="209.938526"/>
     <use style="fill:#1f77b4;stroke:#1f77b4;" x="212.777305" xlink:href="#m9a90537e43" y="213.567408"/>
     <use style="fill:#1f77b4;stroke:#1f77b4;" x="213.578133" xlink:href="#m9a90537e43" y="220.825171"/>
     <use style="fill:#1f77b4;stroke:#1f77b4;" x="215.836879" xlink:href="#m9a90537e43" y="209.938526"/>
     <use style="fill:#1f77b4;stroke:#1f77b4;" x="216.904649" xlink:href="#m9a90537e43" y="213.930296"/>
     <use style="fill:#1f77b4;stroke:#1f77b4;" x="219.758883" xlink:href="#m9a90537e43" y="209.938526"/>
     <use style="fill:#1f77b4;stroke:#1f77b4;" x="221.073062" xlink:href="#m9a90537e43" y="211.027191"/>
     <use style="fill:#1f77b4;stroke:#1f77b4;" x="221.935492" xlink:href="#m9a90537e43" y="213.567408"/>
     <use style="fill:#1f77b4;stroke:#1f77b4;" x="222.161367" xlink:href="#m9a90537e43" y="191.794118"/>
     <use style="fill:#1f77b4;stroke:#1f77b4;" x="222.202435" xlink:href="#m9a90537e43" y="212.115855"/>
     <use style="fill:#1f77b4;stroke:#1f77b4;" x="223.085399" xlink:href="#m9a90537e43" y="217.19629"/>
     <use style="fill:#1f77b4;stroke:#1f77b4;" x="224.276374" xlink:href="#m9a90537e43" y="213.567408"/>
     <use style="fill:#1f77b4;stroke:#1f77b4;" x="224.379044" xlink:href="#m9a90537e43" y="209.938526"/>
     <use style="fill:#1f77b4;stroke:#1f77b4;" x="224.399579" xlink:href="#m9a90537e43" y="201.22921"/>
     <use style="fill:#1f77b4;stroke:#1f77b4;" x="225.138804" xlink:href="#m9a90537e43" y="228.445823"/>
     <use style="fill:#1f77b4;stroke:#1f77b4;" x="226.083371" xlink:href="#m9a90537e43" y="213.567408"/>
     <use style="fill:#1f77b4;stroke:#1f77b4;" x="226.186041" xlink:href="#m9a90537e43" y="180.907472"/>
     <use style="fill:#1f77b4;stroke:#1f77b4;" x="228.136776" xlink:href="#m9a90537e43" y="206.309645"/>
     <use style="fill:#1f77b4;stroke:#1f77b4;" x="228.301048" xlink:href="#m9a90537e43" y="199.051881"/>
     <use style="fill:#1f77b4;stroke:#1f77b4;" x="230.149113" xlink:href="#m9a90537e43" y="213.567408"/>
     <use style="fill:#1f77b4;stroke:#1f77b4;" x="231.278486" xlink:href="#m9a90537e43" y="205.946756"/>
     <use style="fill:#1f77b4;stroke:#1f77b4;" x="234.687139" xlink:href="#m9a90537e43" y="209.938526"/>
     <use style="fill:#1f77b4;stroke:#1f77b4;" x="236.309329" xlink:href="#m9a90537e43" y="235.340698"/>
     <use style="fill:#1f77b4;stroke:#1f77b4;" x="242.715953" xlink:href="#m9a90537e43" y="202.680763"/>
     <use style="fill:#1f77b4;stroke:#1f77b4;" x="244.338143" xlink:href="#m9a90537e43" y="217.19629"/>
     <use style="fill:#1f77b4;stroke:#1f77b4;" x="244.687222" xlink:href="#m9a90537e43" y="199.051881"/>
     <use style="fill:#1f77b4;stroke:#1f77b4;" x="246.843298" xlink:href="#m9a90537e43" y="184.536354"/>
     <use style="fill:#1f77b4;stroke:#1f77b4;" x="248.506556" xlink:href="#m9a90537e43" y="213.567408"/>
     <use style="fill:#1f77b4;stroke:#1f77b4;" x="249.019907" xlink:href="#m9a90537e43" y="191.794118"/>
     <use style="fill:#1f77b4;stroke:#1f77b4;" x="252.900843" xlink:href="#m9a90537e43" y="217.19629"/>
     <use style="fill:#1f77b4;stroke:#1f77b4;" x="253.845409" xlink:href="#m9a90537e43" y="213.567408"/>
     <use style="fill:#1f77b4;stroke:#1f77b4;" x="254.707839" xlink:href="#m9a90537e43" y="217.19629"/>
     <use style="fill:#1f77b4;stroke:#1f77b4;" x="254.933714" xlink:href="#m9a90537e43" y="202.680763"/>
     <use style="fill:#1f77b4;stroke:#1f77b4;" x="255.898815" xlink:href="#m9a90537e43" y="208.124085"/>
     <use style="fill:#1f77b4;stroke:#1f77b4;" x="257.911152" xlink:href="#m9a90537e43" y="206.309645"/>
     <use style="fill:#1f77b4;stroke:#1f77b4;" x="259.01999" xlink:href="#m9a90537e43" y="202.680763"/>
     <use style="fill:#1f77b4;stroke:#1f77b4;" x="260.005625" xlink:href="#m9a90537e43" y="193.24567"/>
     <use style="fill:#1f77b4;stroke:#1f77b4;" x="260.950191" xlink:href="#m9a90537e43" y="209.938526"/>
     <use style="fill:#1f77b4;stroke:#1f77b4;" x="261.237668" xlink:href="#m9a90537e43" y="192.519894"/>
     <use style="fill:#1f77b4;stroke:#1f77b4;" x="262.05903" xlink:href="#m9a90537e43" y="210.664303"/>
     <use style="fill:#1f77b4;stroke:#1f77b4;" x="262.859858" xlink:href="#m9a90537e43" y="209.938526"/>
     <use style="fill:#1f77b4;stroke:#1f77b4;" x="263.085733" xlink:href="#m9a90537e43" y="195.422999"/>
     <use style="fill:#1f77b4;stroke:#1f77b4;" x="264.153503" xlink:href="#m9a90537e43" y="195.422999"/>
     <use style="fill:#1f77b4;stroke:#1f77b4;" x="264.9954" xlink:href="#m9a90537e43" y="202.680763"/>
     <use style="fill:#1f77b4;stroke:#1f77b4;" x="265.159672" xlink:href="#m9a90537e43" y="202.680763"/>
     <use style="fill:#1f77b4;stroke:#1f77b4;" x="266.206909" xlink:href="#m9a90537e43" y="213.930296"/>
     <use style="fill:#1f77b4;stroke:#1f77b4;" x="267.028271" xlink:href="#m9a90537e43" y="202.680763"/>
     <use style="fill:#1f77b4;stroke:#1f77b4;" x="267.069339" xlink:href="#m9a90537e43" y="209.938526"/>
     <use style="fill:#1f77b4;stroke:#1f77b4;" x="268.260314" xlink:href="#m9a90537e43" y="219.373619"/>
     <use style="fill:#1f77b4;stroke:#1f77b4;" x="269.040608" xlink:href="#m9a90537e43" y="213.567408"/>
     <use style="fill:#1f77b4;stroke:#1f77b4;" x="269.287017" xlink:href="#m9a90537e43" y="213.567408"/>
     <use style="fill:#1f77b4;stroke:#1f77b4;" x="270.272651" xlink:href="#m9a90537e43" y="222.276724"/>
     <use style="fill:#1f77b4;stroke:#1f77b4;" x="271.237751" xlink:href="#m9a90537e43" y="217.19629"/>
     <use style="fill:#1f77b4;stroke:#1f77b4;" x="271.27882" xlink:href="#m9a90537e43" y="209.938526"/>
     <use style="fill:#1f77b4;stroke:#1f77b4;" x="272.326056" xlink:href="#m9a90537e43" y="211.752967"/>
     <use style="fill:#1f77b4;stroke:#1f77b4;" x="273.352759" xlink:href="#m9a90537e43" y="220.825171"/>
     <use style="fill:#1f77b4;stroke:#1f77b4;" x="273.393827" xlink:href="#m9a90537e43" y="228.082935"/>
     <use style="fill:#1f77b4;stroke:#1f77b4;" x="274.379461" xlink:href="#m9a90537e43" y="232.437593"/>
     <use style="fill:#1f77b4;stroke:#1f77b4;" x="275.324028" xlink:href="#m9a90537e43" y="217.19629"/>
     <use style="fill:#1f77b4;stroke:#1f77b4;" x="275.426698" xlink:href="#m9a90537e43" y="217.19629"/>
     <use style="fill:#1f77b4;stroke:#1f77b4;" x="275.529368" xlink:href="#m9a90537e43" y="229.171599"/>
     <use style="fill:#1f77b4;stroke:#1f77b4;" x="276.412333" xlink:href="#m9a90537e43" y="213.930296"/>
     <use style="fill:#1f77b4;stroke:#1f77b4;" x="277.521171" xlink:href="#m9a90537e43" y="220.825171"/>
     <use style="fill:#1f77b4;stroke:#1f77b4;" x="277.521171" xlink:href="#m9a90537e43" y="229.534488"/>
     <use style="fill:#1f77b4;stroke:#1f77b4;" x="277.56224" xlink:href="#m9a90537e43" y="228.082935"/>
     <use style="fill:#1f77b4;stroke:#1f77b4;" x="280.498609" xlink:href="#m9a90537e43" y="225.542718"/>
     <use style="fill:#1f77b4;stroke:#1f77b4;" x="281.319971" xlink:href="#m9a90537e43" y="238.96958"/>
     <use style="fill:#1f77b4;stroke:#1f77b4;" x="281.545846" xlink:href="#m9a90537e43" y="231.711817"/>
     <use style="fill:#1f77b4;stroke:#1f77b4;" x="282.53148" xlink:href="#m9a90537e43" y="238.96958"/>
     <use style="fill:#1f77b4;stroke:#1f77b4;" x="283.619785" xlink:href="#m9a90537e43" y="231.711817"/>
     <use style="fill:#1f77b4;stroke:#1f77b4;" x="284.482215" xlink:href="#m9a90537e43" y="255.299548"/>
     <use style="fill:#1f77b4;stroke:#1f77b4;" x="285.816929" xlink:href="#m9a90537e43" y="238.96958"/>
     <use style="fill:#1f77b4;stroke:#1f77b4;" x="286.597223" xlink:href="#m9a90537e43" y="215.744737"/>
     <use style="fill:#1f77b4;stroke:#1f77b4;" x="287.664993" xlink:href="#m9a90537e43" y="242.598462"/>
     <use style="fill:#1f77b4;stroke:#1f77b4;" x="287.890868" xlink:href="#m9a90537e43" y="238.96958"/>
     <use style="fill:#1f77b4;stroke:#1f77b4;" x="288.650628" xlink:href="#m9a90537e43" y="224.454053"/>
     <use style="fill:#1f77b4;stroke:#1f77b4;" x="289.780001" xlink:href="#m9a90537e43" y="260.74287"/>
     <use style="fill:#1f77b4;stroke:#1f77b4;" x="289.780001" xlink:href="#m9a90537e43" y="248.041784"/>
     <use style="fill:#1f77b4;stroke:#1f77b4;" x="289.821069" xlink:href="#m9a90537e43" y="278.887279"/>
     <use style="fill:#1f77b4;stroke:#1f77b4;" x="290.724567" xlink:href="#m9a90537e43" y="236.429363"/>
     <use style="fill:#1f77b4;stroke:#1f77b4;" x="291.85394" xlink:href="#m9a90537e43" y="246.227343"/>
     <use style="fill:#1f77b4;stroke:#1f77b4;" x="293.907345" xlink:href="#m9a90537e43" y="242.598462"/>
     <use style="fill:#1f77b4;stroke:#1f77b4;" x="300.067561" xlink:href="#m9a90537e43" y="268.000634"/>
     <use style="fill:#1f77b4;stroke:#1f77b4;" x="306.001902" xlink:href="#m9a90537e43" y="275.258397"/>
     <use style="fill:#1f77b4;stroke:#1f77b4;" x="308.383852" xlink:href="#m9a90537e43" y="260.74287"/>
     <use style="fill:#1f77b4;stroke:#1f77b4;" x="310.334587" xlink:href="#m9a90537e43" y="271.629516"/>
     <use style="fill:#1f77b4;stroke:#1f77b4;" x="312.285322" xlink:href="#m9a90537e43" y="275.258397"/>
     <use style="fill:#1f77b4;stroke:#1f77b4;" x="313.312024" xlink:href="#m9a90537e43" y="276.70995"/>
     <use style="fill:#1f77b4;stroke:#1f77b4;" x="314.277125" xlink:href="#m9a90537e43" y="275.258397"/>
     <use style="fill:#1f77b4;stroke:#1f77b4;" x="315.344896" xlink:href="#m9a90537e43" y="245.864455"/>
     <use style="fill:#1f77b4;stroke:#1f77b4;" x="316.309996" xlink:href="#m9a90537e43" y="271.629516"/>
     <use style="fill:#1f77b4;stroke:#1f77b4;" x="317.418835" xlink:href="#m9a90537e43" y="223.728277"/>
     <use style="fill:#1f77b4;stroke:#1f77b4;" x="319.431172" xlink:href="#m9a90537e43" y="258.202653"/>
     <use style="fill:#1f77b4;stroke:#1f77b4;" x="321.505111" xlink:href="#m9a90537e43" y="275.984174"/>
     <use style="fill:#1f77b4;stroke:#1f77b4;" x="322.408609" xlink:href="#m9a90537e43" y="278.887279"/>
     <use style="fill:#1f77b4;stroke:#1f77b4;" x="323.537982" xlink:href="#m9a90537e43" y="268.363522"/>
     <use style="fill:#1f77b4;stroke:#1f77b4;" x="324.749491" xlink:href="#m9a90537e43" y="278.887279"/>
     <use style="fill:#1f77b4;stroke:#1f77b4;" x="325.591388" xlink:href="#m9a90537e43" y="279.613055"/>
     <use style="fill:#1f77b4;stroke:#1f77b4;" x="327.562657" xlink:href="#m9a90537e43" y="257.476877"/>
     <use style="fill:#1f77b4;stroke:#1f77b4;" x="328.630427" xlink:href="#m9a90537e43" y="271.629516"/>
     <use style="fill:#1f77b4;stroke:#1f77b4;" x="328.671495" xlink:href="#m9a90537e43" y="275.258397"/>
     <use style="fill:#1f77b4;stroke:#1f77b4;" x="330.786503" xlink:href="#m9a90537e43" y="271.629516"/>
     <use style="fill:#1f77b4;stroke:#1f77b4;" x="331.710535" xlink:href="#m9a90537e43" y="253.485107"/>
     <use style="fill:#1f77b4;stroke:#1f77b4;" x="333.722872" xlink:href="#m9a90537e43" y="267.637746"/>
     <use style="fill:#1f77b4;stroke:#1f77b4;" x="335.037052" xlink:href="#m9a90537e43" y="271.629516"/>
     <use style="fill:#1f77b4;stroke:#1f77b4;" x="335.653073" xlink:href="#m9a90537e43" y="273.081068"/>
     <use style="fill:#1f77b4;stroke:#1f77b4;" x="336.70031" xlink:href="#m9a90537e43" y="253.485107"/>
     <use style="fill:#1f77b4;stroke:#1f77b4;" x="336.926184" xlink:href="#m9a90537e43" y="275.258397"/>
     <use style="fill:#1f77b4;stroke:#1f77b4;" x="336.987787" xlink:href="#m9a90537e43" y="252.396442"/>
     <use style="fill:#1f77b4;stroke:#1f77b4;" x="337.788615" xlink:href="#m9a90537e43" y="265.097528"/>
     <use style="fill:#1f77b4;stroke:#1f77b4;" x="339.000124" xlink:href="#m9a90537e43" y="268.000634"/>
     <use style="fill:#1f77b4;stroke:#1f77b4;" x="339.020658" xlink:href="#m9a90537e43" y="258.202653"/>
     <use style="fill:#1f77b4;stroke:#1f77b4;" x="339.759884" xlink:href="#m9a90537e43" y="274.895509"/>
     <use style="fill:#1f77b4;stroke:#1f77b4;" x="341.915959" xlink:href="#m9a90537e43" y="257.113989"/>
     <use style="fill:#1f77b4;stroke:#1f77b4;" x="343.004264" xlink:href="#m9a90537e43" y="264.371752"/>
     <use style="fill:#1f77b4;stroke:#1f77b4;" x="343.94883" xlink:href="#m9a90537e43" y="242.235574"/>
     <use style="fill:#1f77b4;stroke:#1f77b4;" x="345.981701" xlink:href="#m9a90537e43" y="245.864455"/>
     <use style="fill:#1f77b4;stroke:#1f77b4;" x="348.035107" xlink:href="#m9a90537e43" y="223.0025"/>
     <use style="fill:#1f77b4;stroke:#1f77b4;" x="354.154254" xlink:href="#m9a90537e43" y="213.567408"/>
     <use style="fill:#1f77b4;stroke:#1f77b4;" x="360.293936" xlink:href="#m9a90537e43" y="195.785888"/>
     <use style="fill:#1f77b4;stroke:#1f77b4;" x="362.347341" xlink:href="#m9a90537e43" y="211.027191"/>
     <use style="fill:#1f77b4;stroke:#1f77b4;" x="367.768331" xlink:href="#m9a90537e43" y="242.598462"/>
     <use style="fill:#1f77b4;stroke:#1f77b4;" x="369.84227" xlink:href="#m9a90537e43" y="228.082935"/>
     <use style="fill:#1f77b4;stroke:#1f77b4;" x="371.772471" xlink:href="#m9a90537e43" y="228.082935"/>
     <use style="fill:#1f77b4;stroke:#1f77b4;" x="374.667772" xlink:href="#m9a90537e43" y="225.179829"/>
     <use style="fill:#1f77b4;stroke:#1f77b4;" x="380.827988" xlink:href="#m9a90537e43" y="225.179829"/>
     <use style="fill:#1f77b4;stroke:#1f77b4;" x="398.364068" xlink:href="#m9a90537e43" y="219.010731"/>
     <use style="fill:#1f77b4;stroke:#1f77b4;" x="398.487273" xlink:href="#m9a90537e43" y="228.082935"/>
    </g>
   </g>
   <g id="line2d_17">
    <defs>
     <path d="M 0 3 
C 0.795609 3 1.55874 2.683901 2.12132 2.12132 
C 2.683901 1.55874 3 0.795609 3 0 
C 3 -0.795609 2.683901 -1.55874 2.12132 -2.12132 
C 1.55874 -2.683901 0.795609 -3 0 -3 
C -0.795609 -3 -1.55874 -2.683901 -2.12132 -2.12132 
C -2.683901 -1.55874 -3 -0.795609 -3 0 
C -3 0.795609 -2.683901 1.55874 -2.12132 2.12132 
C -1.55874 2.683901 -0.795609 3 0 3 
z
" id="m4b33c97be4" style="stroke:#ff7f0e;"/>
    </defs>
    <g clip-path="url(#p087ae1929d)">
     <use style="fill:#ff7f0e;stroke:#ff7f0e;" x="95.299025" xlink:href="#m4b33c97be4" y="93.277091"/>
     <use style="fill:#ff7f0e;stroke:#ff7f0e;" x="97.268241" xlink:href="#m4b33c97be4" y="64.869818"/>
     <use style="fill:#ff7f0e;stroke:#ff7f0e;" x="99.280578" xlink:href="#m4b33c97be4" y="67.618909"/>
     <use style="fill:#ff7f0e;stroke:#ff7f0e;" x="100.600918" xlink:href="#m4b33c97be4" y="108.244364"/>
     <use style="fill:#ff7f0e;stroke:#ff7f0e;" x="102.549599" xlink:href="#m4b33c97be4" y="91.444364"/>
     <use style="fill:#ff7f0e;stroke:#ff7f0e;" x="103.381228" xlink:href="#m4b33c97be4" y="73.728"/>
     <use style="fill:#ff7f0e;stroke:#ff7f0e;" x="107.557855" xlink:href="#m4b33c97be4" y="76.477091"/>
     <use style="fill:#ff7f0e;stroke:#ff7f0e;" x="113.666735" xlink:href="#m4b33c97be4" y="53.568"/>
     <use style="fill:#ff7f0e;stroke:#ff7f0e;" x="115.70782" xlink:href="#m4b33c97be4" y="72.200727"/>
     <use style="fill:#ff7f0e;stroke:#ff7f0e;" x="116.909062" xlink:href="#m4b33c97be4" y="93.582545"/>
     <use style="fill:#ff7f0e;stroke:#ff7f0e;" x="117.631861" xlink:href="#m4b33c97be4" y="57.538909"/>
     <use style="fill:#ff7f0e;stroke:#ff7f0e;" x="118.929613" xlink:href="#m4b33c97be4" y="72.811636"/>
     <use style="fill:#ff7f0e;stroke:#ff7f0e;" x="121.855715" xlink:href="#m4b33c97be4" y="71.895273"/>
     <use style="fill:#ff7f0e;stroke:#ff7f0e;" x="122.946073" xlink:href="#m4b33c97be4" y="105.189818"/>
     <use style="fill:#ff7f0e;stroke:#ff7f0e;" x="123.798236" xlink:href="#m4b33c97be4" y="95.109818"/>
     <use style="fill:#ff7f0e;stroke:#ff7f0e;" x="125.833161" xlink:href="#m4b33c97be4" y="91.444364"/>
     <use style="fill:#ff7f0e;stroke:#ff7f0e;" x="127.001549" xlink:href="#m4b33c97be4" y="94.804364"/>
     <use style="fill:#ff7f0e;stroke:#ff7f0e;" x="129.079595" xlink:href="#m4b33c97be4" y="89.611636"/>
     <use style="fill:#ff7f0e;stroke:#ff7f0e;" x="129.962559" xlink:href="#m4b33c97be4" y="117.102545"/>
     <use style="fill:#ff7f0e;stroke:#ff7f0e;" x="131.317806" xlink:href="#m4b33c97be4" y="95.109818"/>
     <use style="fill:#ff7f0e;stroke:#ff7f0e;" x="132.130955" xlink:href="#m4b33c97be4" y="105.189818"/>
     <use style="fill:#ff7f0e;stroke:#ff7f0e;" x="151.664999" xlink:href="#m4b33c97be4" y="138.484364"/>
     <use style="fill:#ff7f0e;stroke:#ff7f0e;" x="152.671167" xlink:href="#m4b33c97be4" y="80.448"/>
     <use style="fill:#ff7f0e;stroke:#ff7f0e;" x="154.689664" xlink:href="#m4b33c97be4" y="94.804364"/>
     <use style="fill:#ff7f0e;stroke:#ff7f0e;" x="169.003952" xlink:href="#m4b33c97be4" y="84.113455"/>
     <use style="fill:#ff7f0e;stroke:#ff7f0e;" x="171.001916" xlink:href="#m4b33c97be4" y="141.844364"/>
     <use style="fill:#ff7f0e;stroke:#ff7f0e;" x="175.1231" xlink:href="#m4b33c97be4" y="159.866182"/>
     <use style="fill:#ff7f0e;stroke:#ff7f0e;" x="179.289459" xlink:href="#m4b33c97be4" y="134.208"/>
     <use style="fill:#ff7f0e;stroke:#ff7f0e;" x="180.494808" xlink:href="#m4b33c97be4" y="155.895273"/>
     <use style="fill:#ff7f0e;stroke:#ff7f0e;" x="181.318223" xlink:href="#m4b33c97be4" y="176.360727"/>
     <use style="fill:#ff7f0e;stroke:#ff7f0e;" x="182.685791" xlink:href="#m4b33c97be4" y="202.324364"/>
     <use style="fill:#ff7f0e;stroke:#ff7f0e;" x="183.353148" xlink:href="#m4b33c97be4" y="165.669818"/>
     <use style="fill:#ff7f0e;stroke:#ff7f0e;" x="189.501043" xlink:href="#m4b33c97be4" y="152.229818"/>
     <use style="fill:#ff7f0e;stroke:#ff7f0e;" x="212.055646" xlink:href="#m4b33c97be4" y="203.851636"/>
     <use style="fill:#ff7f0e;stroke:#ff7f0e;" x="214.121372" xlink:href="#m4b33c97be4" y="174.528"/>
     <use style="fill:#ff7f0e;stroke:#ff7f0e;" x="216.137816" xlink:href="#m4b33c97be4" y="214.237091"/>
     <use style="fill:#ff7f0e;stroke:#ff7f0e;" x="218.228182" xlink:href="#m4b33c97be4" y="164.753455"/>
     <use style="fill:#ff7f0e;stroke:#ff7f0e;" x="219.523881" xlink:href="#m4b33c97be4" y="185.829818"/>
     <use style="fill:#ff7f0e;stroke:#ff7f0e;" x="220.254893" xlink:href="#m4b33c97be4" y="212.098909"/>
     <use style="fill:#ff7f0e;stroke:#ff7f0e;" x="222.390434" xlink:href="#m4b33c97be4" y="210.571636"/>
     <use style="fill:#ff7f0e;stroke:#ff7f0e;" x="224.421252" xlink:href="#m4b33c97be4" y="217.291636"/>
     <use style="fill:#ff7f0e;stroke:#ff7f0e;" x="226.493138" xlink:href="#m4b33c97be4" y="209.655273"/>
     <use style="fill:#ff7f0e;stroke:#ff7f0e;" x="228.501368" xlink:href="#m4b33c97be4" y="198.658909"/>
     <use style="fill:#ff7f0e;stroke:#ff7f0e;" x="230.542453" xlink:href="#m4b33c97be4" y="203.851636"/>
     <use style="fill:#ff7f0e;stroke:#ff7f0e;" x="232.608179" xlink:href="#m4b33c97be4" y="212.098909"/>
     <use style="fill:#ff7f0e;stroke:#ff7f0e;" x="233.825848" xlink:href="#m4b33c97be4" y="192.244364"/>
     <use style="fill:#ff7f0e;stroke:#ff7f0e;" x="234.63489" xlink:href="#m4b33c97be4" y="214.237091"/>
     <use style="fill:#ff7f0e;stroke:#ff7f0e;" x="235.819705" xlink:href="#m4b33c97be4" y="195.604364"/>
     <use style="fill:#ff7f0e;stroke:#ff7f0e;" x="238.704739" xlink:href="#m4b33c97be4" y="225.844364"/>
     <use style="fill:#ff7f0e;stroke:#ff7f0e;" x="240.760198" xlink:href="#m4b33c97be4" y="228.593455"/>
     <use style="fill:#ff7f0e;stroke:#ff7f0e;" x="242.766374" xlink:href="#m4b33c97be4" y="208.128"/>
     <use style="fill:#ff7f0e;stroke:#ff7f0e;" x="244.81978" xlink:href="#m4b33c97be4" y="201.713455"/>
     <use style="fill:#ff7f0e;stroke:#ff7f0e;" x="246.867025" xlink:href="#m4b33c97be4" y="169.946182"/>
     <use style="fill:#ff7f0e;stroke:#ff7f0e;" x="248.066213" xlink:href="#m4b33c97be4" y="185.218909"/>
     <use style="fill:#ff7f0e;stroke:#ff7f0e;" x="248.93275" xlink:href="#m4b33c97be4" y="197.131636"/>
     <use style="fill:#ff7f0e;stroke:#ff7f0e;" x="271.49762" xlink:href="#m4b33c97be4" y="269.218909"/>
     <use style="fill:#ff7f0e;stroke:#ff7f0e;" x="273.610574" xlink:href="#m4b33c97be4" y="250.586182"/>
     <use style="fill:#ff7f0e;stroke:#ff7f0e;" x="275.602377" xlink:href="#m4b33c97be4" y="242.949818"/>
     <use style="fill:#ff7f0e;stroke:#ff7f0e;" x="277.688637" xlink:href="#m4b33c97be4" y="256.389818"/>
     <use style="fill:#ff7f0e;stroke:#ff7f0e;" x="279.703027" xlink:href="#m4b33c97be4" y="249.364364"/>
     <use style="fill:#ff7f0e;stroke:#ff7f0e;" x="281.744112" xlink:href="#m4b33c97be4" y="249.975273"/>
     <use style="fill:#ff7f0e;stroke:#ff7f0e;" x="283.820105" xlink:href="#m4b33c97be4" y="259.444364"/>
     <use style="fill:#ff7f0e;stroke:#ff7f0e;" x="285.777" xlink:href="#m4b33c97be4" y="228.288"/>
     <use style="fill:#ff7f0e;stroke:#ff7f0e;" x="289.922825" xlink:href="#m4b33c97be4" y="282.048"/>
     <use style="fill:#ff7f0e;stroke:#ff7f0e;" x="291.945429" xlink:href="#m4b33c97be4" y="237.757091"/>
     <use style="fill:#ff7f0e;stroke:#ff7f0e;" x="293.887951" xlink:href="#m4b33c97be4" y="254.557091"/>
     <use style="fill:#ff7f0e;stroke:#ff7f0e;" x="295.28632" xlink:href="#m4b33c97be4" y="266.775273"/>
     <use style="fill:#ff7f0e;stroke:#ff7f0e;" x="296.011172" xlink:href="#m4b33c97be4" y="264.637091"/>
     <use style="fill:#ff7f0e;stroke:#ff7f0e;" x="297.308924" xlink:href="#m4b33c97be4" y="238.062545"/>
     <use style="fill:#ff7f0e;stroke:#ff7f0e;" x="298.05431" xlink:href="#m4b33c97be4" y="272.578909"/>
     <use style="fill:#ff7f0e;stroke:#ff7f0e;" x="300.142623" xlink:href="#m4b33c97be4" y="252.724364"/>
     <use style="fill:#ff7f0e;stroke:#ff7f0e;" x="302.159067" xlink:href="#m4b33c97be4" y="236.840727"/>
     <use style="fill:#ff7f0e;stroke:#ff7f0e;" x="304.193991" xlink:href="#m4b33c97be4" y="270.746182"/>
     <use style="fill:#ff7f0e;stroke:#ff7f0e;" x="306.257664" xlink:href="#m4b33c97be4" y="295.488"/>
     <use style="fill:#ff7f0e;stroke:#ff7f0e;" x="312.364491" xlink:href="#m4b33c97be4" y="245.698909"/>
     <use style="fill:#ff7f0e;stroke:#ff7f0e;" x="318.641751" xlink:href="#m4b33c97be4" y="246.920727"/>
     <use style="fill:#ff7f0e;stroke:#ff7f0e;" x="320.703369" xlink:href="#m4b33c97be4" y="264.331636"/>
     <use style="fill:#ff7f0e;stroke:#ff7f0e;" x="332.878009" xlink:href="#m4b33c97be4" y="270.440727"/>
     <use style="fill:#ff7f0e;stroke:#ff7f0e;" x="339.081346" xlink:href="#m4b33c97be4" y="270.440727"/>
     <use style="fill:#ff7f0e;stroke:#ff7f0e;" x="356.656441" xlink:href="#m4b33c97be4" y="235.008"/>
    </g>
   </g>
   <g id="line2d_18">
    <path clip-path="url(#p087ae1929d)" d="M 115.548568 82.475149 
L 115.831507 82.289961 
L 116.963262 82.061962 
L 118.095016 81.159973 
L 118.943832 80.706511 
L 119.50971 80.671049 
L 119.792649 80.232008 
L 121.490281 74.914 
L 121.77322 75.716822 
L 123.187913 82.280977 
L 124.036729 84.90721 
L 126.866116 91.445295 
L 129.978442 97.788479 
L 131.959013 94.539091 
L 132.241952 94.329132 
L 134.7884 91.043458 
L 135.920155 89.740831 
L 136.486032 88.247025 
L 137.05191 86.519183 
L 139.03248 76.480235 
L 139.598358 72.186951 
L 139.881297 71.438132 
L 141.861868 89.630255 
L 142.427745 92.693347 
L 144.408316 97.836156 
L 145.257132 98.756439 
L 146.105948 98.993645 
L 146.671826 101.060746 
L 148.369458 107.925546 
L 148.652396 107.340957 
L 150.06709 98.758747 
L 150.350029 97.59136 
L 150.632967 97.82017 
L 151.764722 102.373323 
L 152.047661 102.830575 
L 152.3306 102.682557 
L 152.613538 102.31465 
L 153.462354 104.189544 
L 154.028232 105.513516 
L 154.311171 105.804913 
L 154.594109 104.592017 
L 154.877048 104.472341 
L 155.442925 105.354681 
L 156.008803 107.958881 
L 156.291741 108.694 
L 156.57468 107.623849 
L 157.423496 105.996768 
L 157.706435 106.114514 
L 158.83819 107.121104 
L 160.535822 112.748581 
L 161.384638 114.565905 
L 163.08227 118.065912 
L 163.648148 119.600788 
L 164.496964 123.292911 
L 164.779903 122.489093 
L 165.911657 124.576442 
L 166.760474 125.78845 
L 167.60929 125.371734 
L 168.741044 123.863927 
L 169.023983 123.082234 
L 170.721615 125.523703 
L 171.004554 126.273255 
L 171.85337 129.560169 
L 172.702186 132.026614 
L 172.985125 134.204469 
L 173.551002 135.789049 
L 174.11688 137.372122 
L 174.682757 139.291864 
L 174.965696 139.100569 
L 175.248635 139.845962 
L 176.663328 141.824408 
L 176.946267 142.488183 
L 179.492715 154.661649 
L 181.190347 165.401079 
L 182.039164 167.410355 
L 182.605041 168.647852 
L 182.88798 168.684416 
L 183.736796 168.210171 
L 187.13206 166.864096 
L 187.414999 166.949502 
L 188.829693 171.138338 
L 189.112631 171.494182 
L 189.39557 170.478192 
L 189.678509 170.738132 
L 191.093202 173.060624 
L 193.639651 173.006388 
L 194.205528 174.056067 
L 194.488467 175.025421 
L 195.337283 179.850236 
L 196.469038 182.62529 
L 197.317854 185.853435 
L 197.600792 186.334625 
L 199.864302 183.992577 
L 201.561934 188.17011 
L 203.542505 191.307107 
L 206.371892 191.727815 
L 207.786586 191.775521 
L 209.484218 196.153448 
L 210.050095 198.953639 
L 211.18185 205.573845 
L 211.747728 209.121565 
L 212.313605 211.412533 
L 213.44536 216.482365 
L 213.728299 216.116173 
L 214.011237 214.306919 
L 214.294176 213.265269 
L 215.991808 210.09327 
L 216.840624 208.819414 
L 218.255318 205.339633 
L 219.387073 207.454243 
L 219.670011 208.250036 
L 219.95295 208.530628 
L 220.235889 208.460834 
L 221.084705 207.864365 
L 221.933521 206.782035 
L 222.21646 202.485465 
L 223.065276 206.670272 
L 224.197031 209.832824 
L 224.479969 210.30897 
L 225.045847 211.737956 
L 225.328785 211.824142 
L 225.894663 211.381736 
L 226.46054 209.858073 
L 228.158172 206.161318 
L 228.441111 206.154006 
L 230.138743 211.833428 
L 230.704621 211.160597 
L 231.270498 210.813599 
L 233.816947 211.349031 
L 234.665763 212.812628 
L 235.797518 223.934272 
L 236.363395 230.121384 
L 240.324537 220.654952 
L 240.890414 219.091892 
L 242.870985 212.087903 
L 244.285679 210.061762 
L 244.851556 207.046231 
L 246.832127 200.711783 
L 247.963882 206.756855 
L 248.529759 210.52266 
L 248.812698 210.130071 
L 249.095637 210.102701 
L 252.77384 216.132895 
L 253.056778 216.210572 
L 254.188533 215.392142 
L 254.471472 215.26218 
L 254.754411 214.856461 
L 255.037349 213.419239 
L 256.452043 209.706688 
L 258.998491 203.836545 
L 259.564369 204.280447 
L 259.847307 204.536942 
L 260.130246 205.039269 
L 260.979062 207.270766 
L 261.262001 206.102923 
L 262.110817 205.735537 
L 262.676694 205.022542 
L 263.242572 201.196958 
L 264.091388 201.523342 
L 264.940204 202.681082 
L 266.354898 205.092721 
L 266.920775 205.22836 
L 267.486652 207.462966 
L 268.335469 211.192365 
L 269.467223 214.238937 
L 270.316039 216.417479 
L 271.164856 217.686985 
L 271.447794 219.454178 
L 271.730733 220.19956 
L 272.29661 220.917326 
L 273.145427 223.360715 
L 273.428365 224.518641 
L 273.711304 224.582609 
L 274.277181 223.341962 
L 275.408936 219.447922 
L 275.691875 220.994167 
L 276.540691 223.300101 
L 277.389507 226.820341 
L 277.672446 228.475975 
L 279.370078 233.608459 
L 279.653017 234.453211 
L 280.218894 235.033561 
L 280.501833 235.276056 
L 281.350649 237.426836 
L 281.633588 237.306937 
L 281.916526 237.638639 
L 283.048281 238.058192 
L 283.614159 238.203998 
L 283.897097 239.346418 
L 284.462975 240.422535 
L 285.311791 239.283104 
L 286.160607 238.271773 
L 286.443546 237.982552 
L 286.726484 238.237492 
L 287.858239 241.653691 
L 288.707055 250.308616 
L 289.83881 267.281989 
L 290.970565 257.289292 
L 291.819381 252.600844 
L 292.10232 252.471858 
L 293.799952 254.174382 
L 294.365829 255.343429 
L 295.497584 257.757113 
L 296.063462 258.459942 
L 297.195216 258.903462 
L 297.478155 259.356954 
L 298.044033 260.724304 
L 300.024603 261.846388 
L 300.590481 261.719604 
L 302.005174 261.581061 
L 302.288113 262.001462 
L 305.1175 271.215625 
L 305.966316 273.774153 
L 306.249255 273.63973 
L 308.229826 264.361064 
L 308.512765 264.113376 
L 310.493336 271.069496 
L 312.190968 273.481104 
L 312.473906 273.409641 
L 313.322723 273.860369 
L 314.171539 273.747243 
L 314.454477 272.925534 
L 315.303294 269.060449 
L 315.586232 268.948251 
L 316.15211 269.12963 
L 316.435048 268.332484 
L 317.283864 262.578224 
L 317.566803 261.730373 
L 318.415619 262.115529 
L 318.698558 262.370739 
L 319.547374 264.808375 
L 321.245006 272.121193 
L 322.376761 277.064405 
L 322.6597 277.031397 
L 323.508516 276.465468 
L 324.357332 277.468088 
L 324.640271 277.821344 
L 324.923209 277.706546 
L 325.772026 276.349727 
L 327.469658 272.676847 
L 327.752597 272.702488 
L 328.601413 273.716341 
L 328.884351 273.584003 
L 330.864922 270.866736 
L 331.713738 268.443475 
L 333.411371 269.138537 
L 333.977248 269.378521 
L 334.826064 269.914187 
L 335.109003 269.762954 
L 335.957819 266.012155 
L 336.523696 263.042655 
L 336.806635 264.218777 
L 337.089574 266.265813 
L 337.93839 266.423721 
L 339.070145 266.839209 
L 339.636022 266.846173 
L 339.918961 266.543605 
L 341.899532 262.777085 
L 343.031287 261.850624 
L 344.163041 254.092417 
L 348.124183 235.812412 
L 354.065896 222.694181 
L 354.631773 222.259469 
L 356.612344 221.266542 
L 357.744099 219.250591 
L 360.290548 214.58593 
L 362.271119 217.370192 
L 363.402873 220.202599 
L 367.646954 231.167521 
L 367.929893 231.320462 
L 370.193402 229.220066 
L 373.305728 227.593252 
L 375.00336 226.891006 
L 381.228012 226.080332 
L 397.355518 226.690803 
L 398.204334 226.729179 
L 398.487273 227.070263 
L 398.487273 227.070263 
" style="fill:none;stroke:#2ca02c;stroke-linecap:square;stroke-width:1.5;"/>
   </g>
   <g id="line2d_19">
    <path clip-path="url(#p087ae1929d)" d="M 73.832727 90.159599 
L 87.696724 85.86154 
L 95.336069 83.359709 
L 97.31664 80.990495 
L 99.297211 81.235488 
L 100.428966 82.647459 
L 100.711904 82.815477 
L 102.692475 81.899579 
L 103.541291 81.134932 
L 107.785372 79.569065 
L 113.727085 78.968116 
L 115.424717 82.236826 
L 115.707656 82.310604 
L 116.83941 82.122398 
L 118.819981 80.766898 
L 119.668797 80.619834 
L 121.36643 75.302109 
L 121.649368 75.151178 
L 123.347001 82.817157 
L 123.912878 84.61152 
L 127.025204 91.787276 
L 129.571652 97.024383 
L 129.854591 97.694784 
L 130.13753 97.514851 
L 131.835162 94.605647 
L 132.1181 94.483845 
L 135.513365 90.209209 
L 136.079242 89.482817 
L 137.210997 85.715744 
L 139.191568 75.273291 
L 139.757445 70.97988 
L 140.323323 75.61878 
L 142.020955 90.815442 
L 142.303894 92.364282 
L 144.284465 97.685581 
L 145.133281 98.717225 
L 145.982097 98.959081 
L 146.265036 99.415371 
L 148.528545 108.120524 
L 150.226178 98.015752 
L 150.509116 97.293028 
L 151.640871 102.109477 
L 152.206748 103.064619 
L 152.489687 102.264665 
L 152.772626 102.575384 
L 154.187319 105.885676 
L 154.753197 104.291023 
L 155.319074 105.119351 
L 155.884952 107.388936 
L 156.16789 108.690958 
L 157.299645 106.234217 
L 157.582584 105.992288 
L 158.4314 106.829681 
L 158.714339 106.687654 
L 160.411971 112.349667 
L 160.977848 113.75738 
L 163.241358 118.481724 
L 163.524297 119.221205 
L 164.373113 122.875534 
L 164.656051 122.593444 
L 164.93899 122.807956 
L 165.787806 124.393693 
L 166.636622 125.645967 
L 166.919561 125.711349 
L 167.485439 125.436966 
L 168.051316 124.827215 
L 168.617193 124.129942 
L 168.900132 123.261823 
L 169.183071 123.311109 
L 170.880703 125.705728 
L 171.729519 129.220128 
L 172.578335 131.548758 
L 173.144213 134.794393 
L 173.993029 136.951938 
L 174.558906 138.871711 
L 175.124784 139.672717 
L 176.822416 142.046841 
L 177.954171 147.153052 
L 179.368864 153.851857 
L 181.066496 164.982026 
L 181.632374 166.520758 
L 182.764129 168.770189 
L 183.612945 168.259271 
L 187.291148 166.80102 
L 187.857025 168.258318 
L 188.98878 171.609391 
L 189.271719 170.910505 
L 189.554658 170.534811 
L 190.969351 172.857294 
L 191.25229 173.050439 
L 193.232861 172.920737 
L 193.515799 172.604093 
L 194.081677 173.826326 
L 194.364615 174.351173 
L 195.49637 180.240303 
L 196.628125 183.225639 
L 197.476941 186.459559 
L 199.457512 184.278202 
L 199.740451 183.759303 
L 200.872206 186.585221 
L 201.438083 187.967906 
L 203.418654 191.202028 
L 203.984531 191.389008 
L 206.248041 191.728097 
L 207.662735 191.725195 
L 207.945673 192.185737 
L 209.643306 196.707311 
L 211.340938 206.601022 
L 211.906815 209.707125 
L 213.03857 214.662348 
L 213.604447 216.908157 
L 214.170325 213.507093 
L 215.867957 210.221699 
L 216.433834 209.469066 
L 216.999712 208.470908 
L 218.131467 205.53942 
L 218.414405 205.636834 
L 219.54616 207.792258 
L 219.829099 208.561194 
L 220.394976 208.35734 
L 221.243792 207.66148 
L 221.80967 206.939932 
L 222.092609 203.487067 
L 222.375547 203.382947 
L 223.224363 207.149165 
L 224.356118 210.068601 
L 225.204934 211.920998 
L 226.05375 211.257397 
L 226.336689 210.129414 
L 228.31726 205.850787 
L 228.883137 207.591202 
L 230.014892 211.414937 
L 230.297831 211.638429 
L 230.58077 211.23657 
L 231.146647 210.889528 
L 231.429586 210.849208 
L 233.410157 211.287214 
L 233.693095 211.330199 
L 233.976034 211.612878 
L 234.541912 212.602039 
L 234.82485 214.221049 
L 236.239544 229.378994 
L 236.522482 229.751213 
L 240.483624 220.260165 
L 240.766563 219.550315 
L 242.747134 212.275305 
L 244.161828 210.239093 
L 244.444766 209.276794 
L 244.727705 207.505438 
L 246.708276 201.107836 
L 246.991215 201.406636 
L 248.122969 207.736733 
L 248.405908 209.815413 
L 248.688847 210.301914 
L 248.971785 209.970285 
L 249.820602 211.290533 
L 252.932927 216.31438 
L 254.064682 215.449048 
L 254.63056 215.189131 
L 255.196437 212.969445 
L 256.328192 209.992575 
L 258.87464 204.121584 
L 259.157579 203.91175 
L 260.006395 204.6827 
L 260.855211 207.126623 
L 261.421089 206.042589 
L 261.986966 205.828099 
L 262.835782 204.822127 
L 263.118721 201.149365 
L 264.250476 201.686986 
L 265.38223 203.465115 
L 266.231046 205.063057 
L 266.796924 205.198658 
L 267.079863 205.618142 
L 268.494556 211.659158 
L 269.626311 214.65639 
L 270.475127 216.655374 
L 271.041004 217.501719 
L 271.323943 218.336203 
L 271.606882 220.042498 
L 272.172759 220.76021 
L 272.455698 221.335332 
L 273.587453 224.767334 
L 274.15333 223.613474 
L 274.436269 222.886916 
L 275.285085 219.438135 
L 275.850962 221.38578 
L 276.41684 222.786512 
L 278.397411 230.705017 
L 279.812104 234.693649 
L 280.377982 235.166538 
L 280.943859 236.465131 
L 281.226798 237.226355 
L 281.509737 237.166465 
L 281.792675 237.580948 
L 282.92443 238.026325 
L 283.490307 238.172058 
L 284.056185 239.648917 
L 284.339124 240.186981 
L 284.622062 240.260828 
L 286.036756 238.398401 
L 286.602633 237.842743 
L 287.734388 241.381705 
L 288.017327 243.013496 
L 288.866143 252.687754 
L 289.714959 265.382267 
L 289.997898 265.904904 
L 290.846714 257.973464 
L 291.69553 253.28488 
L 291.978469 252.347792 
L 293.95904 254.40111 
L 295.373733 257.592611 
L 295.93961 258.344391 
L 296.505488 258.632961 
L 297.354304 259.057746 
L 298.20312 260.831826 
L 299.900752 261.777257 
L 302.164262 261.583682 
L 305.276588 271.695067 
L 305.842465 273.400767 
L 306.125404 273.760744 
L 306.408343 272.923017 
L 308.388913 263.655976 
L 310.369484 270.893731 
L 312.067117 273.305013 
L 312.915933 273.647975 
L 313.48181 273.83908 
L 314.047688 273.763679 
L 314.330626 273.489584 
L 315.179442 269.624337 
L 315.462381 268.908618 
L 316.311197 269.172179 
L 317.442952 261.674258 
L 318.574707 262.187828 
L 319.140584 263.55698 
L 319.423523 264.316432 
L 321.121155 271.521584 
L 322.25291 276.540896 
L 322.535849 277.114069 
L 323.384665 276.547971 
L 323.667604 276.60749 
L 324.799358 277.88563 
L 325.648174 276.617862 
L 327.628745 272.554651 
L 328.7605 273.746477 
L 330.741071 271.151121 
L 331.589887 268.787832 
L 331.872826 268.519737 
L 333.28752 269.106903 
L 333.853397 269.300452 
L 334.985152 270.014704 
L 335.551029 268.015012 
L 336.682784 262.207908 
L 336.965723 266.370623 
L 337.248661 266.287394 
L 338.097477 266.490464 
L 339.229232 266.845674 
L 339.79511 266.779325 
L 342.058619 262.654531 
L 342.907435 262.111671 
L 343.190374 260.678008 
L 344.03919 254.668023 
L 348.283271 235.460743 
L 354.224984 222.463795 
L 356.488493 221.328542 
L 356.771432 221.033628 
L 356.771432 221.033628 
" style="fill:none;stroke:#d62728;stroke-dasharray:5.55,2.4;stroke-dashoffset:0;stroke-width:1.5;"/>
   </g>
   <g id="patch_3">
    <path d="M 57.6 307.584 
L 57.6 41.472 
" style="fill:none;stroke:#000000;stroke-linecap:square;stroke-linejoin:miter;stroke-width:0.8;"/>
   </g>
   <g id="patch_4">
    <path d="M 414.72 307.584 
L 414.72 41.472 
" style="fill:none;stroke:#000000;stroke-linecap:square;stroke-linejoin:miter;stroke-width:0.8;"/>
   </g>
   <g id="patch_5">
    <path d="M 57.6 307.584 
L 414.72 307.584 
" style="fill:none;stroke:#000000;stroke-linecap:square;stroke-linejoin:miter;stroke-width:0.8;"/>
   </g>
   <g id="patch_6">
    <path d="M 57.6 41.472 
L 414.72 41.472 
" style="fill:none;stroke:#000000;stroke-linecap:square;stroke-linejoin:miter;stroke-width:0.8;"/>
   </g>
   <g id="text_16">
    <!-- 18.650000 -->
    <g transform="translate(203.713125 35.472)scale(0.12 -0.12)">
     <use xlink:href="#DejaVuSans-31"/>
     <use x="63.623047" xlink:href="#DejaVuSans-38"/>
     <use x="127.246094" xlink:href="#DejaVuSans-2e"/>
     <use x="159.033203" xlink:href="#DejaVuSans-36"/>
     <use x="222.65625" xlink:href="#DejaVuSans-35"/>
     <use x="286.279297" xlink:href="#DejaVuSans-30"/>
     <use x="349.902344" xlink:href="#DejaVuSans-30"/>
     <use x="413.525391" xlink:href="#DejaVuSans-30"/>
     <use x="477.148438" xlink:href="#DejaVuSans-30"/>
    </g>
   </g>
  </g>
 </g>
 <defs>
  <clipPath id="p087ae1929d">
   <rect height="266.112" width="357.12" x="57.6" y="41.472"/>
  </clipPath>
 </defs>
</svg>
