<?xml version="1.0" encoding="utf-8" standalone="no"?>
<!DOCTYPE svg PUBLIC "-//W3C//DTD SVG 1.1//EN"
  "http://www.w3.org/Graphics/SVG/1.1/DTD/svg11.dtd">
<svg height="345.6pt" version="1.1" viewBox="0 0 460.8 345.6" width="460.8pt" xmlns="http://www.w3.org/2000/svg" xmlns:xlink="http://www.w3.org/1999/xlink">
 <metadata>
  <rdf:RDF xmlns:cc="http://creativecommons.org/ns#" xmlns:dc="http://purl.org/dc/elements/1.1/" xmlns:rdf="http://www.w3.org/1999/02/22-rdf-syntax-ns#">
   <cc:Work>
    <dc:type rdf:resource="http://purl.org/dc/dcmitype/StillImage"/>
    <dc:date>2022-06-10T20:09:51.981167</dc:date>
    <dc:format>image/svg+xml</dc:format>
    <dc:creator>
     <cc:Agent>
      <dc:title>Matplotlib v3.4.3, https://matplotlib.org/</dc:title>
     </cc:Agent>
    </dc:creator>
   </cc:Work>
  </rdf:RDF>
 </metadata>
 <defs>
  <style type="text/css">*{stroke-linecap:butt;stroke-linejoin:round;}</style>
 </defs>
 <g id="figure_1">
  <g id="patch_1">
   <path d="M 0 345.6 
L 460.8 345.6 
L 460.8 0 
L 0 0 
z
" style="fill:#ffffff;"/>
  </g>
  <g id="axes_1">
   <g id="patch_2">
    <path d="M 57.6 307.584 
L 414.72 307.584 
L 414.72 41.472 
L 57.6 41.472 
z
" style="fill:#ffffff;"/>
   </g>
   <g id="matplotlib.axis_1">
    <g id="xtick_1">
     <g id="line2d_1">
      <defs>
       <path d="M 0 0 
L 0 3.5 
" id="m429455a57a" style="stroke:#000000;stroke-width:0.8;"/>
      </defs>
      <g>
       <use style="stroke:#000000;stroke-width:0.8;" x="103.137725" xlink:href="#m429455a57a" y="307.584"/>
      </g>
     </g>
     <g id="text_1">
      <!-- −100 -->
      <g transform="translate(89.404132 322.182437)scale(0.1 -0.1)">
       <defs>
        <path d="M 678 2272 
L 4684 2272 
L 4684 1741 
L 678 1741 
L 678 2272 
z
" id="DejaVuSans-2212" transform="scale(0.015625)"/>
        <path d="M 794 531 
L 1825 531 
L 1825 4091 
L 703 3866 
L 703 4441 
L 1819 4666 
L 2450 4666 
L 2450 531 
L 3481 531 
L 3481 0 
L 794 0 
L 794 531 
z
" id="DejaVuSans-31" transform="scale(0.015625)"/>
        <path d="M 2034 4250 
Q 1547 4250 1301 3770 
Q 1056 3291 1056 2328 
Q 1056 1369 1301 889 
Q 1547 409 2034 409 
Q 2525 409 2770 889 
Q 3016 1369 3016 2328 
Q 3016 3291 2770 3770 
Q 2525 4250 2034 4250 
z
M 2034 4750 
Q 2819 4750 3233 4129 
Q 3647 3509 3647 2328 
Q 3647 1150 3233 529 
Q 2819 -91 2034 -91 
Q 1250 -91 836 529 
Q 422 1150 422 2328 
Q 422 3509 836 4129 
Q 1250 4750 2034 4750 
z
" id="DejaVuSans-30" transform="scale(0.015625)"/>
       </defs>
       <use xlink:href="#DejaVuSans-2212"/>
       <use x="83.789062" xlink:href="#DejaVuSans-31"/>
       <use x="147.412109" xlink:href="#DejaVuSans-30"/>
       <use x="211.035156" xlink:href="#DejaVuSans-30"/>
      </g>
     </g>
    </g>
    <g id="xtick_2">
     <g id="line2d_2">
      <g>
       <use style="stroke:#000000;stroke-width:0.8;" x="166.159227" xlink:href="#m429455a57a" y="307.584"/>
      </g>
     </g>
     <g id="text_2">
      <!-- −50 -->
      <g transform="translate(155.606883 322.182437)scale(0.1 -0.1)">
       <defs>
        <path d="M 691 4666 
L 3169 4666 
L 3169 4134 
L 1269 4134 
L 1269 2991 
Q 1406 3038 1543 3061 
Q 1681 3084 1819 3084 
Q 2600 3084 3056 2656 
Q 3513 2228 3513 1497 
Q 3513 744 3044 326 
Q 2575 -91 1722 -91 
Q 1428 -91 1123 -41 
Q 819 9 494 109 
L 494 744 
Q 775 591 1075 516 
Q 1375 441 1709 441 
Q 2250 441 2565 725 
Q 2881 1009 2881 1497 
Q 2881 1984 2565 2268 
Q 2250 2553 1709 2553 
Q 1456 2553 1204 2497 
Q 953 2441 691 2322 
L 691 4666 
z
" id="DejaVuSans-35" transform="scale(0.015625)"/>
       </defs>
       <use xlink:href="#DejaVuSans-2212"/>
       <use x="83.789062" xlink:href="#DejaVuSans-35"/>
       <use x="147.412109" xlink:href="#DejaVuSans-30"/>
      </g>
     </g>
    </g>
    <g id="xtick_3">
     <g id="line2d_3">
      <g>
       <use style="stroke:#000000;stroke-width:0.8;" x="229.180728" xlink:href="#m429455a57a" y="307.584"/>
      </g>
     </g>
     <g id="text_3">
      <!-- 0 -->
      <g transform="translate(225.999478 322.182437)scale(0.1 -0.1)">
       <use xlink:href="#DejaVuSans-30"/>
      </g>
     </g>
    </g>
    <g id="xtick_4">
     <g id="line2d_4">
      <g>
       <use style="stroke:#000000;stroke-width:0.8;" x="292.202229" xlink:href="#m429455a57a" y="307.584"/>
      </g>
     </g>
     <g id="text_4">
      <!-- 50 -->
      <g transform="translate(285.839729 322.182437)scale(0.1 -0.1)">
       <use xlink:href="#DejaVuSans-35"/>
       <use x="63.623047" xlink:href="#DejaVuSans-30"/>
      </g>
     </g>
    </g>
    <g id="xtick_5">
     <g id="line2d_5">
      <g>
       <use style="stroke:#000000;stroke-width:0.8;" x="355.223731" xlink:href="#m429455a57a" y="307.584"/>
      </g>
     </g>
     <g id="text_5">
      <!-- 100 -->
      <g transform="translate(345.679981 322.182437)scale(0.1 -0.1)">
       <use xlink:href="#DejaVuSans-31"/>
       <use x="63.623047" xlink:href="#DejaVuSans-30"/>
       <use x="127.246094" xlink:href="#DejaVuSans-30"/>
      </g>
     </g>
    </g>
   </g>
   <g id="matplotlib.axis_2">
    <g id="ytick_1">
     <g id="line2d_6">
      <defs>
       <path d="M 0 0 
L -3.5 0 
" id="md531bc12ea" style="stroke:#000000;stroke-width:0.8;"/>
      </defs>
      <g>
       <use style="stroke:#000000;stroke-width:0.8;" x="57.6" xlink:href="#md531bc12ea" y="301.196046"/>
      </g>
     </g>
     <g id="text_6">
      <!-- −2.5 -->
      <g transform="translate(26.317187 304.995265)scale(0.1 -0.1)">
       <defs>
        <path d="M 1228 531 
L 3431 531 
L 3431 0 
L 469 0 
L 469 531 
Q 828 903 1448 1529 
Q 2069 2156 2228 2338 
Q 2531 2678 2651 2914 
Q 2772 3150 2772 3378 
Q 2772 3750 2511 3984 
Q 2250 4219 1831 4219 
Q 1534 4219 1204 4116 
Q 875 4013 500 3803 
L 500 4441 
Q 881 4594 1212 4672 
Q 1544 4750 1819 4750 
Q 2544 4750 2975 4387 
Q 3406 4025 3406 3419 
Q 3406 3131 3298 2873 
Q 3191 2616 2906 2266 
Q 2828 2175 2409 1742 
Q 1991 1309 1228 531 
z
" id="DejaVuSans-32" transform="scale(0.015625)"/>
        <path d="M 684 794 
L 1344 794 
L 1344 0 
L 684 0 
L 684 794 
z
" id="DejaVuSans-2e" transform="scale(0.015625)"/>
       </defs>
       <use xlink:href="#DejaVuSans-2212"/>
       <use x="83.789062" xlink:href="#DejaVuSans-32"/>
       <use x="147.412109" xlink:href="#DejaVuSans-2e"/>
       <use x="179.199219" xlink:href="#DejaVuSans-35"/>
      </g>
     </g>
    </g>
    <g id="ytick_2">
     <g id="line2d_7">
      <g>
       <use style="stroke:#000000;stroke-width:0.8;" x="57.6" xlink:href="#md531bc12ea" y="269.287963"/>
      </g>
     </g>
     <g id="text_7">
      <!-- −2.0 -->
      <g transform="translate(26.317187 273.087181)scale(0.1 -0.1)">
       <use xlink:href="#DejaVuSans-2212"/>
       <use x="83.789062" xlink:href="#DejaVuSans-32"/>
       <use x="147.412109" xlink:href="#DejaVuSans-2e"/>
       <use x="179.199219" xlink:href="#DejaVuSans-30"/>
      </g>
     </g>
    </g>
    <g id="ytick_3">
     <g id="line2d_8">
      <g>
       <use style="stroke:#000000;stroke-width:0.8;" x="57.6" xlink:href="#md531bc12ea" y="237.379879"/>
      </g>
     </g>
     <g id="text_8">
      <!-- −1.5 -->
      <g transform="translate(26.317187 241.179098)scale(0.1 -0.1)">
       <use xlink:href="#DejaVuSans-2212"/>
       <use x="83.789062" xlink:href="#DejaVuSans-31"/>
       <use x="147.412109" xlink:href="#DejaVuSans-2e"/>
       <use x="179.199219" xlink:href="#DejaVuSans-35"/>
      </g>
     </g>
    </g>
    <g id="ytick_4">
     <g id="line2d_9">
      <g>
       <use style="stroke:#000000;stroke-width:0.8;" x="57.6" xlink:href="#md531bc12ea" y="205.471795"/>
      </g>
     </g>
     <g id="text_9">
      <!-- −1.0 -->
      <g transform="translate(26.317187 209.271014)scale(0.1 -0.1)">
       <use xlink:href="#DejaVuSans-2212"/>
       <use x="83.789062" xlink:href="#DejaVuSans-31"/>
       <use x="147.412109" xlink:href="#DejaVuSans-2e"/>
       <use x="179.199219" xlink:href="#DejaVuSans-30"/>
      </g>
     </g>
    </g>
    <g id="ytick_5">
     <g id="line2d_10">
      <g>
       <use style="stroke:#000000;stroke-width:0.8;" x="57.6" xlink:href="#md531bc12ea" y="173.563711"/>
      </g>
     </g>
     <g id="text_10">
      <!-- −0.5 -->
      <g transform="translate(26.317187 177.36293)scale(0.1 -0.1)">
       <use xlink:href="#DejaVuSans-2212"/>
       <use x="83.789062" xlink:href="#DejaVuSans-30"/>
       <use x="147.412109" xlink:href="#DejaVuSans-2e"/>
       <use x="179.199219" xlink:href="#DejaVuSans-35"/>
      </g>
     </g>
    </g>
    <g id="ytick_6">
     <g id="line2d_11">
      <g>
       <use style="stroke:#000000;stroke-width:0.8;" x="57.6" xlink:href="#md531bc12ea" y="141.655627"/>
      </g>
     </g>
     <g id="text_11">
      <!-- 0.0 -->
      <g transform="translate(34.696875 145.454846)scale(0.1 -0.1)">
       <use xlink:href="#DejaVuSans-30"/>
       <use x="63.623047" xlink:href="#DejaVuSans-2e"/>
       <use x="95.410156" xlink:href="#DejaVuSans-30"/>
      </g>
     </g>
    </g>
    <g id="ytick_7">
     <g id="line2d_12">
      <g>
       <use style="stroke:#000000;stroke-width:0.8;" x="57.6" xlink:href="#md531bc12ea" y="109.747543"/>
      </g>
     </g>
     <g id="text_12">
      <!-- 0.5 -->
      <g transform="translate(34.696875 113.546762)scale(0.1 -0.1)">
       <use xlink:href="#DejaVuSans-30"/>
       <use x="63.623047" xlink:href="#DejaVuSans-2e"/>
       <use x="95.410156" xlink:href="#DejaVuSans-35"/>
      </g>
     </g>
    </g>
    <g id="ytick_8">
     <g id="line2d_13">
      <g>
       <use style="stroke:#000000;stroke-width:0.8;" x="57.6" xlink:href="#md531bc12ea" y="77.83946"/>
      </g>
     </g>
     <g id="text_13">
      <!-- 1.0 -->
      <g transform="translate(34.696875 81.638678)scale(0.1 -0.1)">
       <use xlink:href="#DejaVuSans-31"/>
       <use x="63.623047" xlink:href="#DejaVuSans-2e"/>
       <use x="95.410156" xlink:href="#DejaVuSans-30"/>
      </g>
     </g>
    </g>
    <g id="ytick_9">
     <g id="line2d_14">
      <g>
       <use style="stroke:#000000;stroke-width:0.8;" x="57.6" xlink:href="#md531bc12ea" y="45.931376"/>
      </g>
     </g>
     <g id="text_14">
      <!-- 1.5 -->
      <g transform="translate(34.696875 49.730595)scale(0.1 -0.1)">
       <use xlink:href="#DejaVuSans-31"/>
       <use x="63.623047" xlink:href="#DejaVuSans-2e"/>
       <use x="95.410156" xlink:href="#DejaVuSans-35"/>
      </g>
     </g>
    </g>
   </g>
   <g id="line2d_15">
    <defs>
     <path d="M 0 3 
C 0.795609 3 1.55874 2.683901 2.12132 2.12132 
C 2.683901 1.55874 3 0.795609 3 0 
C 3 -0.795609 2.683901 -1.55874 2.12132 -2.12132 
C 1.55874 -2.683901 0.795609 -3 0 -3 
C -0.795609 -3 -1.55874 -2.683901 -2.12132 -2.12132 
C -2.683901 -1.55874 -3 -0.795609 -3 0 
C -3 0.795609 -2.683901 1.55874 -2.12132 2.12132 
C -1.55874 2.683901 -0.795609 3 0 3 
z
" id="mbda23d1aad" style="stroke:#1f77b4;"/>
    </defs>
    <g clip-path="url(#p2920197036)">
     <use style="fill:#1f77b4;stroke:#1f77b4;" x="229.180728" xlink:href="#mbda23d1aad" y="104.370174"/>
     <use style="fill:#1f77b4;stroke:#1f77b4;" x="235.324372" xlink:href="#mbda23d1aad" y="104.872668"/>
     <use style="fill:#1f77b4;stroke:#1f77b4;" x="237.794117" xlink:href="#mbda23d1aad" y="103.86768"/>
     <use style="fill:#1f77b4;stroke:#1f77b4;" x="240.802045" xlink:href="#mbda23d1aad" y="96.531263"/>
     <use style="fill:#1f77b4;stroke:#1f77b4;" x="241.982854" xlink:href="#mbda23d1aad" y="101.25471"/>
     <use style="fill:#1f77b4;stroke:#1f77b4;" x="243.173492" xlink:href="#mbda23d1aad" y="102.159199"/>
     <use style="fill:#1f77b4;stroke:#1f77b4;" x="245.633407" xlink:href="#mbda23d1aad" y="100.450719"/>
     <use style="fill:#1f77b4;stroke:#1f77b4;" x="246.878109" xlink:href="#mbda23d1aad" y="100.417219"/>
     <use style="fill:#1f77b4;stroke:#1f77b4;" x="249.422807" xlink:href="#mbda23d1aad" y="100.36697"/>
     <use style="fill:#1f77b4;stroke:#1f77b4;" x="251.941701" xlink:href="#mbda23d1aad" y="100.969963"/>
     <use style="fill:#1f77b4;stroke:#1f77b4;" x="252.55115" xlink:href="#mbda23d1aad" y="104.872668"/>
     <use style="fill:#1f77b4;stroke:#1f77b4;" x="254.147269" xlink:href="#mbda23d1aad" y="103.448935"/>
     <use style="fill:#1f77b4;stroke:#1f77b4;" x="255.008608" xlink:href="#mbda23d1aad" y="108.390129"/>
     <use style="fill:#1f77b4;stroke:#1f77b4;" x="256.689509" xlink:href="#mbda23d1aad" y="104.118927"/>
     <use style="fill:#1f77b4;stroke:#1f77b4;" x="257.441491" xlink:href="#mbda23d1aad" y="107.217642"/>
     <use style="fill:#1f77b4;stroke:#1f77b4;" x="257.854344" xlink:href="#mbda23d1aad" y="105.62641"/>
     <use style="fill:#1f77b4;stroke:#1f77b4;" x="258.657933" xlink:href="#mbda23d1aad" y="107.217642"/>
     <use style="fill:#1f77b4;stroke:#1f77b4;" x="259.911236" xlink:href="#mbda23d1aad" y="106.54765"/>
     <use style="fill:#1f77b4;stroke:#1f77b4;" x="260.443276" xlink:href="#mbda23d1aad" y="106.229403"/>
     <use style="fill:#1f77b4;stroke:#1f77b4;" x="261.520871" xlink:href="#mbda23d1aad" y="105.341663"/>
     <use style="fill:#1f77b4;stroke:#1f77b4;" x="262.840526" xlink:href="#mbda23d1aad" y="104.638171"/>
     <use style="fill:#1f77b4;stroke:#1f77b4;" x="263.572848" xlink:href="#mbda23d1aad" y="108.055132"/>
     <use style="fill:#1f77b4;stroke:#1f77b4;" x="268.389465" xlink:href="#mbda23d1aad" y="106.882646"/>
     <use style="fill:#1f77b4;stroke:#1f77b4;" x="272.677728" xlink:href="#mbda23d1aad" y="102.762192"/>
     <use style="fill:#1f77b4;stroke:#1f77b4;" x="273.96175" xlink:href="#mbda23d1aad" y="104.554422"/>
     <use style="fill:#1f77b4;stroke:#1f77b4;" x="275.130271" xlink:href="#mbda23d1aad" y="105.241164"/>
     <use style="fill:#1f77b4;stroke:#1f77b4;" x="276.335654" xlink:href="#mbda23d1aad" y="102.829192"/>
     <use style="fill:#1f77b4;stroke:#1f77b4;" x="277.670054" xlink:href="#mbda23d1aad" y="99.747227"/>
     <use style="fill:#1f77b4;stroke:#1f77b4;" x="280.11891" xlink:href="#mbda23d1aad" y="99.981724"/>
     <use style="fill:#1f77b4;stroke:#1f77b4;" x="281.276373" xlink:href="#mbda23d1aad" y="100.618217"/>
     <use style="fill:#1f77b4;stroke:#1f77b4;" x="284.897437" xlink:href="#mbda23d1aad" y="97.084007"/>
     <use style="fill:#1f77b4;stroke:#1f77b4;" x="286.095447" xlink:href="#mbda23d1aad" y="98.038746"/>
     <use style="fill:#1f77b4;stroke:#1f77b4;" x="287.490054" xlink:href="#mbda23d1aad" y="97.000258"/>
     <use style="fill:#1f77b4;stroke:#1f77b4;" x="288.539389" xlink:href="#mbda23d1aad" y="97.603251"/>
     <use style="fill:#1f77b4;stroke:#1f77b4;" x="289.8529" xlink:href="#mbda23d1aad" y="96.380515"/>
     <use style="fill:#1f77b4;stroke:#1f77b4;" x="291.058283" xlink:href="#mbda23d1aad" y="95.543024"/>
     <use style="fill:#1f77b4;stroke:#1f77b4;" x="292.258751" xlink:href="#mbda23d1aad" y="95.241528"/>
     <use style="fill:#1f77b4;stroke:#1f77b4;" x="293.478879" xlink:href="#mbda23d1aad" y="96.464264"/>
     <use style="fill:#1f77b4;stroke:#1f77b4;" x="297.162608" xlink:href="#mbda23d1aad" y="93.817794"/>
     <use style="fill:#1f77b4;stroke:#1f77b4;" x="299.63481" xlink:href="#mbda23d1aad" y="93.516297"/>
     <use style="fill:#1f77b4;stroke:#1f77b4;" x="310.651593" xlink:href="#mbda23d1aad" y="89.094347"/>
     <use style="fill:#1f77b4;stroke:#1f77b4;" x="311.895066" xlink:href="#mbda23d1aad" y="90.752579"/>
     <use style="fill:#1f77b4;stroke:#1f77b4;" x="313.104136" xlink:href="#mbda23d1aad" y="91.573319"/>
     <use style="fill:#1f77b4;stroke:#1f77b4;" x="314.352524" xlink:href="#mbda23d1aad" y="88.977099"/>
     <use style="fill:#1f77b4;stroke:#1f77b4;" x="315.568966" xlink:href="#mbda23d1aad" y="84.002405"/>
     <use style="fill:#1f77b4;stroke:#1f77b4;" x="316.83087" xlink:href="#mbda23d1aad" y="83.215164"/>
     <use style="fill:#1f77b4;stroke:#1f77b4;" x="318.037482" xlink:href="#mbda23d1aad" y="80.417946"/>
     <use style="fill:#1f77b4;stroke:#1f77b4;" x="318.779634" xlink:href="#mbda23d1aad" y="76.397991"/>
     <use style="fill:#1f77b4;stroke:#1f77b4;" x="319.301844" xlink:href="#mbda23d1aad" y="77.319231"/>
     <use style="fill:#1f77b4;stroke:#1f77b4;" x="320.497397" xlink:href="#mbda23d1aad" y="75.895497"/>
     <use style="fill:#1f77b4;stroke:#1f77b4;" x="321.719982" xlink:href="#mbda23d1aad" y="75.393003"/>
     <use style="fill:#1f77b4;stroke:#1f77b4;" x="322.968371" xlink:href="#mbda23d1aad" y="72.796782"/>
     <use style="fill:#1f77b4;stroke:#1f77b4;" x="324.181126" xlink:href="#mbda23d1aad" y="71.976041"/>
     <use style="fill:#1f77b4;stroke:#1f77b4;" x="324.965055" xlink:href="#mbda23d1aad" y="67.202345"/>
     <use style="fill:#1f77b4;stroke:#1f77b4;" x="326.599264" xlink:href="#mbda23d1aad" y="70.401559"/>
     <use style="fill:#1f77b4;stroke:#1f77b4;" x="327.257863" xlink:href="#mbda23d1aad" y="71.373048"/>
     <use style="fill:#1f77b4;stroke:#1f77b4;" x="329.752182" xlink:href="#mbda23d1aad" y="58.475694"/>
     <use style="fill:#1f77b4;stroke:#1f77b4;" x="330.265791" xlink:href="#mbda23d1aad" y="58.726942"/>
     <use style="fill:#1f77b4;stroke:#1f77b4;" x="330.956337" xlink:href="#mbda23d1aad" y="57.805702"/>
     <use style="fill:#1f77b4;stroke:#1f77b4;" x="331.492062" xlink:href="#mbda23d1aad" y="57.219459"/>
     <use style="fill:#1f77b4;stroke:#1f77b4;" x="332.283364" xlink:href="#mbda23d1aad" y="54.790736"/>
     <use style="fill:#1f77b4;stroke:#1f77b4;" x="332.288279" xlink:href="#mbda23d1aad" y="55.108983"/>
     <use style="fill:#1f77b4;stroke:#1f77b4;" x="332.728164" xlink:href="#mbda23d1aad" y="53.568"/>
     <use style="fill:#1f77b4;stroke:#1f77b4;" x="333.376932" xlink:href="#mbda23d1aad" y="58.810691"/>
     <use style="fill:#1f77b4;stroke:#1f77b4;" x="333.955664" xlink:href="#mbda23d1aad" y="55.443979"/>
     <use style="fill:#1f77b4;stroke:#1f77b4;" x="334.679385" xlink:href="#mbda23d1aad" y="55.29323"/>
     <use style="fill:#1f77b4;stroke:#1f77b4;" x="334.770311" xlink:href="#mbda23d1aad" y="55.226231"/>
     <use style="fill:#1f77b4;stroke:#1f77b4;" x="335.175791" xlink:href="#mbda23d1aad" y="55.443979"/>
     <use style="fill:#1f77b4;stroke:#1f77b4;" x="335.871252" xlink:href="#mbda23d1aad" y="59.313185"/>
     <use style="fill:#1f77b4;stroke:#1f77b4;" x="336.033444" xlink:href="#mbda23d1aad" y="60.351673"/>
     <use style="fill:#1f77b4;stroke:#1f77b4;" x="336.400834" xlink:href="#mbda23d1aad" y="60.251174"/>
     <use style="fill:#1f77b4;stroke:#1f77b4;" x="337.634478" xlink:href="#mbda23d1aad" y="58.525944"/>
     <use style="fill:#1f77b4;stroke:#1f77b4;" x="338.877951" xlink:href="#mbda23d1aad" y="57.805702"/>
     <use style="fill:#1f77b4;stroke:#1f77b4;" x="339.422278" xlink:href="#mbda23d1aad" y="61.658158"/>
     <use style="fill:#1f77b4;stroke:#1f77b4;" x="340.115281" xlink:href="#mbda23d1aad" y="59.061938"/>
     <use style="fill:#1f77b4;stroke:#1f77b4;" x="341.95346" xlink:href="#mbda23d1aad" y="66.348105"/>
     <use style="fill:#1f77b4;stroke:#1f77b4;" x="342.027183" xlink:href="#mbda23d1aad" y="65.00812"/>
     <use style="fill:#1f77b4;stroke:#1f77b4;" x="343.378785" xlink:href="#mbda23d1aad" y="62.160653"/>
     <use style="fill:#1f77b4;stroke:#1f77b4;" x="344.472354" xlink:href="#mbda23d1aad" y="68.860577"/>
     <use style="fill:#1f77b4;stroke:#1f77b4;" x="344.521503" xlink:href="#mbda23d1aad" y="68.190584"/>
     <use style="fill:#1f77b4;stroke:#1f77b4;" x="344.992106" xlink:href="#mbda23d1aad" y="68.224084"/>
     <use style="fill:#1f77b4;stroke:#1f77b4;" x="345.71337" xlink:href="#mbda23d1aad" y="70.870554"/>
     <use style="fill:#1f77b4;stroke:#1f77b4;" x="346.22575" xlink:href="#mbda23d1aad" y="68.341333"/>
     <use style="fill:#1f77b4;stroke:#1f77b4;" x="346.880662" xlink:href="#mbda23d1aad" y="71.708044"/>
     <use style="fill:#1f77b4;stroke:#1f77b4;" x="347.497484" xlink:href="#mbda23d1aad" y="70.703056"/>
     <use style="fill:#1f77b4;stroke:#1f77b4;" x="348.121678" xlink:href="#mbda23d1aad" y="71.540546"/>
     <use style="fill:#1f77b4;stroke:#1f77b4;" x="348.69058" xlink:href="#mbda23d1aad" y="69.681317"/>
     <use style="fill:#1f77b4;stroke:#1f77b4;" x="349.460993" xlink:href="#mbda23d1aad" y="67.185596"/>
     <use style="fill:#1f77b4;stroke:#1f77b4;" x="349.936511" xlink:href="#mbda23d1aad" y="72.11004"/>
     <use style="fill:#1f77b4;stroke:#1f77b4;" x="351.148037" xlink:href="#mbda23d1aad" y="69.832066"/>
     <use style="fill:#1f77b4;stroke:#1f77b4;" x="352.370623" xlink:href="#mbda23d1aad" y="76.213743"/>
     <use style="fill:#1f77b4;stroke:#1f77b4;" x="353.024306" xlink:href="#mbda23d1aad" y="78.24047"/>
     <use style="fill:#1f77b4;stroke:#1f77b4;" x="353.614096" xlink:href="#mbda23d1aad" y="77.38623"/>
     <use style="fill:#1f77b4;stroke:#1f77b4;" x="354.91532" xlink:href="#mbda23d1aad" y="75.225505"/>
     <use style="fill:#1f77b4;stroke:#1f77b4;" x="355.518626" xlink:href="#mbda23d1aad" y="81.087938"/>
     <use style="fill:#1f77b4;stroke:#1f77b4;" x="356.735067" xlink:href="#mbda23d1aad" y="78.24047"/>
     <use style="fill:#1f77b4;stroke:#1f77b4;" x="356.821078" xlink:href="#mbda23d1aad" y="76.900486"/>
     <use style="fill:#1f77b4;stroke:#1f77b4;" x="358.605193" xlink:href="#mbda23d1aad" y="78.340969"/>
     <use style="fill:#1f77b4;stroke:#1f77b4;" x="359.294509" xlink:href="#mbda23d1aad" y="75.275754"/>
     <use style="fill:#1f77b4;stroke:#1f77b4;" x="359.315398" xlink:href="#mbda23d1aad" y="77.40298"/>
     <use style="fill:#1f77b4;stroke:#1f77b4;" x="359.806889" xlink:href="#mbda23d1aad" y="78.407968"/>
     <use style="fill:#1f77b4;stroke:#1f77b4;" x="360.322955" xlink:href="#mbda23d1aad" y="80.417946"/>
     <use style="fill:#1f77b4;stroke:#1f77b4;" x="360.433541" xlink:href="#mbda23d1aad" y="76.732987"/>
     <use style="fill:#1f77b4;stroke:#1f77b4;" x="361.044219" xlink:href="#mbda23d1aad" y="77.503479"/>
     <use style="fill:#1f77b4;stroke:#1f77b4;" x="361.674557" xlink:href="#mbda23d1aad" y="74.72301"/>
     <use style="fill:#1f77b4;stroke:#1f77b4;" x="361.679472" xlink:href="#mbda23d1aad" y="77.335981"/>
     <use style="fill:#1f77b4;stroke:#1f77b4;" x="362.266804" xlink:href="#mbda23d1aad" y="75.661"/>
     <use style="fill:#1f77b4;stroke:#1f77b4;" x="363.496762" xlink:href="#mbda23d1aad" y="75.007757"/>
     <use style="fill:#1f77b4;stroke:#1f77b4;" x="364.058291" xlink:href="#mbda23d1aad" y="80.752942"/>
     <use style="fill:#1f77b4;stroke:#1f77b4;" x="364.72672" xlink:href="#mbda23d1aad" y="75.711249"/>
     <use style="fill:#1f77b4;stroke:#1f77b4;" x="365.94439" xlink:href="#mbda23d1aad" y="70.820304"/>
     <use style="fill:#1f77b4;stroke:#1f77b4;" x="367.178034" xlink:href="#mbda23d1aad" y="70.820304"/>
     <use style="fill:#1f77b4;stroke:#1f77b4;" x="368.363757" xlink:href="#mbda23d1aad" y="71.339549"/>
     <use style="fill:#1f77b4;stroke:#1f77b4;" x="369.083792" xlink:href="#mbda23d1aad" y="67.185596"/>
     <use style="fill:#1f77b4;stroke:#1f77b4;" x="369.602316" xlink:href="#mbda23d1aad" y="67.855588"/>
     <use style="fill:#1f77b4;stroke:#1f77b4;" x="370.833502" xlink:href="#mbda23d1aad" y="64.12038"/>
     <use style="fill:#1f77b4;stroke:#1f77b4;" x="373.912696" xlink:href="#mbda23d1aad" y="67.185596"/>
     <use style="fill:#1f77b4;stroke:#1f77b4;" x="374.362411" xlink:href="#mbda23d1aad" y="69.145323"/>
     <use style="fill:#1f77b4;stroke:#1f77b4;" x="375.671007" xlink:href="#mbda23d1aad" y="64.756873"/>
     <use style="fill:#1f77b4;stroke:#1f77b4;" x="378.852186" xlink:href="#mbda23d1aad" y="66.850599"/>
     <use style="fill:#1f77b4;stroke:#1f77b4;" x="380.10549" xlink:href="#mbda23d1aad" y="64.505626"/>
     <use style="fill:#1f77b4;stroke:#1f77b4;" x="381.866258" xlink:href="#mbda23d1aad" y="63.26614"/>
     <use style="fill:#1f77b4;stroke:#1f77b4;" x="382.501511" xlink:href="#mbda23d1aad" y="65.343117"/>
     <use style="fill:#1f77b4;stroke:#1f77b4;" x="383.103588" xlink:href="#mbda23d1aad" y="66.364855"/>
     <use style="fill:#1f77b4;stroke:#1f77b4;" x="384.327402" xlink:href="#mbda23d1aad" y="65.443615"/>
     <use style="fill:#1f77b4;stroke:#1f77b4;" x="386.778716" xlink:href="#mbda23d1aad" y="62.227652"/>
     <use style="fill:#1f77b4;stroke:#1f77b4;" x="397.258544" xlink:href="#mbda23d1aad" y="64.003132"/>
     <use style="fill:#1f77b4;stroke:#1f77b4;" x="397.267145" xlink:href="#mbda23d1aad" y="60.753669"/>
     <use style="fill:#1f77b4;stroke:#1f77b4;" x="398.487273" xlink:href="#mbda23d1aad" y="63.835634"/>
    </g>
   </g>
   <g id="line2d_16">
    <defs>
     <path d="M 0 3 
C 0.795609 3 1.55874 2.683901 2.12132 2.12132 
C 2.683901 1.55874 3 0.795609 3 0 
C 3 -0.795609 2.683901 -1.55874 2.12132 -2.12132 
C 1.55874 -2.683901 0.795609 -3 0 -3 
C -0.795609 -3 -1.55874 -2.683901 -2.12132 -2.12132 
C -2.683901 -1.55874 -3 -0.795609 -3 0 
C -3 0.795609 -2.683901 1.55874 -2.12132 2.12132 
C -1.55874 2.683901 -0.795609 3 0 3 
z
" id="m7fbb912c6a" style="stroke:#ff7f0e;"/>
    </defs>
    <g clip-path="url(#p2920197036)">
     <use style="fill:#ff7f0e;stroke:#ff7f0e;" x="85.454044" xlink:href="#m7fbb912c6a" y="250.627239"/>
     <use style="fill:#ff7f0e;stroke:#ff7f0e;" x="86.634853" xlink:href="#m7fbb912c6a" y="228.261499"/>
     <use style="fill:#ff7f0e;stroke:#ff7f0e;" x="87.825491" xlink:href="#m7fbb912c6a" y="254.117846"/>
     <use style="fill:#ff7f0e;stroke:#ff7f0e;" x="90.285406" xlink:href="#m7fbb912c6a" y="255.281381"/>
     <use style="fill:#ff7f0e;stroke:#ff7f0e;" x="91.530109" xlink:href="#m7fbb912c6a" y="264.331102"/>
     <use style="fill:#ff7f0e;stroke:#ff7f0e;" x="94.074806" xlink:href="#m7fbb912c6a" y="258.254861"/>
     <use style="fill:#ff7f0e;stroke:#ff7f0e;" x="96.5937" xlink:href="#m7fbb912c6a" y="219.34106"/>
     <use style="fill:#ff7f0e;stroke:#ff7f0e;" x="98.799268" xlink:href="#m7fbb912c6a" y="231.622824"/>
     <use style="fill:#ff7f0e;stroke:#ff7f0e;" x="101.341508" xlink:href="#m7fbb912c6a" y="233.174205"/>
     <use style="fill:#ff7f0e;stroke:#ff7f0e;" x="102.506343" xlink:href="#m7fbb912c6a" y="235.371994"/>
     <use style="fill:#ff7f0e;stroke:#ff7f0e;" x="105.095275" xlink:href="#m7fbb912c6a" y="245.585251"/>
     <use style="fill:#ff7f0e;stroke:#ff7f0e;" x="106.17287" xlink:href="#m7fbb912c6a" y="226.580837"/>
     <use style="fill:#ff7f0e;stroke:#ff7f0e;" x="107.492525" xlink:href="#m7fbb912c6a" y="250.497957"/>
     <use style="fill:#ff7f0e;stroke:#ff7f0e;" x="117.329728" xlink:href="#m7fbb912c6a" y="276.612867"/>
     <use style="fill:#ff7f0e;stroke:#ff7f0e;" x="118.613749" xlink:href="#m7fbb912c6a" y="266.528892"/>
     <use style="fill:#ff7f0e;stroke:#ff7f0e;" x="119.78227" xlink:href="#m7fbb912c6a" y="295.488"/>
     <use style="fill:#ff7f0e;stroke:#ff7f0e;" x="120.987653" xlink:href="#m7fbb912c6a" y="284.369771"/>
     <use style="fill:#ff7f0e;stroke:#ff7f0e;" x="122.322053" xlink:href="#m7fbb912c6a" y="281.137728"/>
     <use style="fill:#ff7f0e;stroke:#ff7f0e;" x="124.770909" xlink:href="#m7fbb912c6a" y="286.955406"/>
     <use style="fill:#ff7f0e;stroke:#ff7f0e;" x="125.928372" xlink:href="#m7fbb912c6a" y="295.100155"/>
     <use style="fill:#ff7f0e;stroke:#ff7f0e;" x="129.549436" xlink:href="#m7fbb912c6a" y="264.201821"/>
     <use style="fill:#ff7f0e;stroke:#ff7f0e;" x="130.747446" xlink:href="#m7fbb912c6a" y="281.913418"/>
     <use style="fill:#ff7f0e;stroke:#ff7f0e;" x="132.142054" xlink:href="#m7fbb912c6a" y="287.601814"/>
     <use style="fill:#ff7f0e;stroke:#ff7f0e;" x="133.191388" xlink:href="#m7fbb912c6a" y="284.240489"/>
     <use style="fill:#ff7f0e;stroke:#ff7f0e;" x="134.504899" xlink:href="#m7fbb912c6a" y="283.464799"/>
     <use style="fill:#ff7f0e;stroke:#ff7f0e;" x="135.710282" xlink:href="#m7fbb912c6a" y="282.689108"/>
     <use style="fill:#ff7f0e;stroke:#ff7f0e;" x="136.91075" xlink:href="#m7fbb912c6a" y="262.004031"/>
     <use style="fill:#ff7f0e;stroke:#ff7f0e;" x="138.130878" xlink:href="#m7fbb912c6a" y="279.84491"/>
     <use style="fill:#ff7f0e;stroke:#ff7f0e;" x="141.814607" xlink:href="#m7fbb912c6a" y="258.642706"/>
     <use style="fill:#ff7f0e;stroke:#ff7f0e;" x="144.286809" xlink:href="#m7fbb912c6a" y="260.969777"/>
     <use style="fill:#ff7f0e;stroke:#ff7f0e;" x="155.303592" xlink:href="#m7fbb912c6a" y="256.444917"/>
     <use style="fill:#ff7f0e;stroke:#ff7f0e;" x="156.547065" xlink:href="#m7fbb912c6a" y="252.695747"/>
     <use style="fill:#ff7f0e;stroke:#ff7f0e;" x="157.756135" xlink:href="#m7fbb912c6a" y="250.627239"/>
     <use style="fill:#ff7f0e;stroke:#ff7f0e;" x="159.004523" xlink:href="#m7fbb912c6a" y="242.48249"/>
     <use style="fill:#ff7f0e;stroke:#ff7f0e;" x="160.220965" xlink:href="#m7fbb912c6a" y="259.030551"/>
     <use style="fill:#ff7f0e;stroke:#ff7f0e;" x="161.482869" xlink:href="#m7fbb912c6a" y="259.159833"/>
     <use style="fill:#ff7f0e;stroke:#ff7f0e;" x="162.689481" xlink:href="#m7fbb912c6a" y="250.497957"/>
     <use style="fill:#ff7f0e;stroke:#ff7f0e;" x="163.953843" xlink:href="#m7fbb912c6a" y="253.600719"/>
     <use style="fill:#ff7f0e;stroke:#ff7f0e;" x="165.149396" xlink:href="#m7fbb912c6a" y="246.748787"/>
     <use style="fill:#ff7f0e;stroke:#ff7f0e;" x="166.371981" xlink:href="#m7fbb912c6a" y="240.2847"/>
     <use style="fill:#ff7f0e;stroke:#ff7f0e;" x="167.62037" xlink:href="#m7fbb912c6a" y="242.611771"/>
     <use style="fill:#ff7f0e;stroke:#ff7f0e;" x="168.833125" xlink:href="#m7fbb912c6a" y="241.060391"/>
     <use style="fill:#ff7f0e;stroke:#ff7f0e;" x="169.617054" xlink:href="#m7fbb912c6a" y="206.154323"/>
     <use style="fill:#ff7f0e;stroke:#ff7f0e;" x="171.251263" xlink:href="#m7fbb912c6a" y="206.800732"/>
     <use style="fill:#ff7f0e;stroke:#ff7f0e;" x="174.91779" xlink:href="#m7fbb912c6a" y="229.683598"/>
     <use style="fill:#ff7f0e;stroke:#ff7f0e;" x="176.144061" xlink:href="#m7fbb912c6a" y="204.732224"/>
     <use style="fill:#ff7f0e;stroke:#ff7f0e;" x="176.940278" xlink:href="#m7fbb912c6a" y="183.142175"/>
     <use style="fill:#ff7f0e;stroke:#ff7f0e;" x="177.380163" xlink:href="#m7fbb912c6a" y="192.062614"/>
     <use style="fill:#ff7f0e;stroke:#ff7f0e;" x="178.607663" xlink:href="#m7fbb912c6a" y="175.126707"/>
     <use style="fill:#ff7f0e;stroke:#ff7f0e;" x="179.42231" xlink:href="#m7fbb912c6a" y="195.553221"/>
     <use style="fill:#ff7f0e;stroke:#ff7f0e;" x="179.827791" xlink:href="#m7fbb912c6a" y="171.765382"/>
     <use style="fill:#ff7f0e;stroke:#ff7f0e;" x="180.685443" xlink:href="#m7fbb912c6a" y="206.025041"/>
     <use style="fill:#ff7f0e;stroke:#ff7f0e;" x="181.052833" xlink:href="#m7fbb912c6a" y="197.363165"/>
     <use style="fill:#ff7f0e;stroke:#ff7f0e;" x="182.286477" xlink:href="#m7fbb912c6a" y="151.46815"/>
     <use style="fill:#ff7f0e;stroke:#ff7f0e;" x="183.52995" xlink:href="#m7fbb912c6a" y="158.449364"/>
     <use style="fill:#ff7f0e;stroke:#ff7f0e;" x="184.76728" xlink:href="#m7fbb912c6a" y="131.558763"/>
     <use style="fill:#ff7f0e;stroke:#ff7f0e;" x="189.644105" xlink:href="#m7fbb912c6a" y="123.931141"/>
     <use style="fill:#ff7f0e;stroke:#ff7f0e;" x="190.877749" xlink:href="#m7fbb912c6a" y="96.523414"/>
     <use style="fill:#ff7f0e;stroke:#ff7f0e;" x="192.149483" xlink:href="#m7fbb912c6a" y="91.73999"/>
     <use style="fill:#ff7f0e;stroke:#ff7f0e;" x="193.342579" xlink:href="#m7fbb912c6a" y="94.842751"/>
     <use style="fill:#ff7f0e;stroke:#ff7f0e;" x="194.58851" xlink:href="#m7fbb912c6a" y="80.363197"/>
     <use style="fill:#ff7f0e;stroke:#ff7f0e;" x="195.800036" xlink:href="#m7fbb912c6a" y="73.769829"/>
     <use style="fill:#ff7f0e;stroke:#ff7f0e;" x="197.022622" xlink:href="#m7fbb912c6a" y="92.644962"/>
     <use style="fill:#ff7f0e;stroke:#ff7f0e;" x="198.266095" xlink:href="#m7fbb912c6a" y="84.241649"/>
     <use style="fill:#ff7f0e;stroke:#ff7f0e;" x="199.567319" xlink:href="#m7fbb912c6a" y="82.948832"/>
     <use style="fill:#ff7f0e;stroke:#ff7f0e;" x="203.257192" xlink:href="#m7fbb912c6a" y="113.071476"/>
     <use style="fill:#ff7f0e;stroke:#ff7f0e;" x="203.946509" xlink:href="#m7fbb912c6a" y="109.968714"/>
     <use style="fill:#ff7f0e;stroke:#ff7f0e;" x="204.458889" xlink:href="#m7fbb912c6a" y="114.364293"/>
     <use style="fill:#ff7f0e;stroke:#ff7f0e;" x="205.696218" xlink:href="#m7fbb912c6a" y="136.600751"/>
     <use style="fill:#ff7f0e;stroke:#ff7f0e;" x="206.331471" xlink:href="#m7fbb912c6a" y="90.059327"/>
     <use style="fill:#ff7f0e;stroke:#ff7f0e;" x="206.918804" xlink:href="#m7fbb912c6a" y="112.812912"/>
     <use style="fill:#ff7f0e;stroke:#ff7f0e;" x="208.148761" xlink:href="#m7fbb912c6a" y="126.128931"/>
     <use style="fill:#ff7f0e;stroke:#ff7f0e;" x="209.378719" xlink:href="#m7fbb912c6a" y="137.893568"/>
     <use style="fill:#ff7f0e;stroke:#ff7f0e;" x="210.596389" xlink:href="#m7fbb912c6a" y="115.010702"/>
     <use style="fill:#ff7f0e;stroke:#ff7f0e;" x="211.830033" xlink:href="#m7fbb912c6a" y="145.52119"/>
     <use style="fill:#ff7f0e;stroke:#ff7f0e;" x="213.015756" xlink:href="#m7fbb912c6a" y="128.714565"/>
     <use style="fill:#ff7f0e;stroke:#ff7f0e;" x="214.254315" xlink:href="#m7fbb912c6a" y="140.220639"/>
     <use style="fill:#ff7f0e;stroke:#ff7f0e;" x="215.485501" xlink:href="#m7fbb912c6a" y="125.35324"/>
     <use style="fill:#ff7f0e;stroke:#ff7f0e;" x="219.01441" xlink:href="#m7fbb912c6a" y="136.859314"/>
     <use style="fill:#ff7f0e;stroke:#ff7f0e;" x="220.323006" xlink:href="#m7fbb912c6a" y="130.524509"/>
     <use style="fill:#ff7f0e;stroke:#ff7f0e;" x="226.518257" xlink:href="#m7fbb912c6a" y="123.543296"/>
     <use style="fill:#ff7f0e;stroke:#ff7f0e;" x="227.755587" xlink:href="#m7fbb912c6a" y="106.995234"/>
     <use style="fill:#ff7f0e;stroke:#ff7f0e;" x="228.979401" xlink:href="#m7fbb912c6a" y="96.911259"/>
     <use style="fill:#ff7f0e;stroke:#ff7f0e;" x="231.430715" xlink:href="#m7fbb912c6a" y="98.850485"/>
     <use style="fill:#ff7f0e;stroke:#ff7f0e;" x="241.919144" xlink:href="#m7fbb912c6a" y="88.378665"/>
    </g>
   </g>
   <g id="line2d_17">
    <path clip-path="url(#p2920197036)" d="M 229.180728 104.449735 
L 229.857954 103.358959 
L 230.53518 102.724823 
L 231.0431 102.511887 
L 231.55102 102.496146 
L 232.228246 102.72835 
L 233.074779 103.289469 
L 235.106457 104.778469 
L 235.783683 104.980536 
L 236.291603 104.934762 
L 236.799523 104.674093 
L 237.307442 104.156777 
L 237.815362 103.340421 
L 238.661895 101.391051 
L 239.677734 99.062074 
L 240.185654 98.342109 
L 240.524267 98.155608 
L 240.86288 98.269829 
L 241.201493 98.691692 
L 243.063865 101.691074 
L 243.571784 101.887736 
L 244.079704 101.798677 
L 244.75693 101.406864 
L 246.111383 100.547737 
L 247.127222 100.243923 
L 248.312368 100.115154 
L 249.1589 100.23051 
L 250.005433 100.58854 
L 250.682659 101.130959 
L 251.359885 101.99077 
L 252.037112 103.252264 
L 252.714338 104.529969 
L 253.222257 104.924282 
L 254.57671 105.506134 
L 255.084629 105.811738 
L 255.592549 105.839201 
L 256.439082 105.784913 
L 256.777695 105.940039 
L 258.132147 106.897137 
L 258.640067 107.041436 
L 259.147987 106.97321 
L 259.825213 106.610624 
L 261.687585 105.364951 
L 262.195504 105.391634 
L 262.703424 105.743728 
L 263.211344 106.46578 
L 264.057876 107.717975 
L 264.735102 108.312661 
L 265.412329 108.572103 
L 266.089555 108.538011 
L 266.766781 108.25083 
L 267.613314 107.595869 
L 268.629153 106.475134 
L 270.830138 103.828856 
L 271.507364 103.338781 
L 272.015284 103.178374 
L 272.523204 103.242447 
L 273.031123 103.5612 
L 274.385576 104.662128 
L 274.893495 104.699787 
L 275.232108 104.506453 
L 275.740028 103.87802 
L 276.586561 102.304401 
L 277.6024 100.481688 
L 278.11032 99.963981 
L 278.618239 99.737544 
L 279.126159 99.724455 
L 279.972692 99.966915 
L 280.988531 100.243237 
L 281.49645 100.171857 
L 282.173677 99.785869 
L 283.189516 98.86286 
L 284.374662 97.84189 
L 285.051888 97.564872 
L 285.898421 97.565503 
L 286.744953 97.508811 
L 288.776632 97.094278 
L 289.792471 96.448051 
L 290.977617 95.723492 
L 291.654843 95.559609 
L 292.332069 95.63331 
L 293.686522 95.999854 
L 294.363748 95.844853 
L 295.210281 95.367711 
L 297.411266 93.923672 
L 298.427105 93.647797 
L 300.12017 93.231869 
L 301.305316 92.638439 
L 302.998382 91.485192 
L 306.045899 89.352074 
L 307.231045 88.810231 
L 308.246884 88.604309 
L 309.093417 88.672909 
L 309.770643 88.918557 
L 310.44787 89.361116 
L 311.463709 90.356757 
L 312.140935 90.91448 
L 312.648855 91.061014 
L 312.987468 90.95824 
L 313.326081 90.653867 
L 313.834 89.835572 
L 314.511227 88.224943 
L 316.204292 83.79189 
L 317.389438 80.953082 
L 318.913197 77.049551 
L 319.421116 76.415755 
L 320.098343 75.932353 
L 321.283488 75.199187 
L 321.960715 74.447016 
L 322.807247 73.052817 
L 324.500313 70.144483 
L 324.838926 69.870379 
L 325.177539 69.910762 
L 325.516152 70.235825 
L 326.701298 71.657488 
L 326.870604 71.661874 
L 327.039911 71.549756 
L 327.378524 70.86747 
L 327.886444 68.708123 
L 329.748816 58.715634 
L 330.087429 58.129802 
L 330.595348 57.846607 
L 330.933961 57.614889 
L 331.272575 57.081677 
L 332.288414 55.192966 
L 332.627027 55.167603 
L 333.134947 55.639413 
L 333.642866 56.012912 
L 334.658705 56.360072 
L 334.997319 56.782689 
L 336.521077 59.292058 
L 337.028997 59.438866 
L 337.87553 59.510568 
L 338.383449 59.811852 
L 338.891369 60.443124 
L 339.737902 62.089358 
L 340.584434 64.153397 
L 341.261661 65.646641 
L 341.600274 65.947554 
L 341.76958 65.921617 
L 342.108193 65.433541 
L 343.124033 62.984599 
L 343.293339 62.97477 
L 343.462646 63.215677 
L 343.801259 64.378915 
L 344.986405 69.529355 
L 345.494324 70.556559 
L 346.002244 71.083567 
L 347.356696 71.938308 
L 347.695309 71.878368 
L 348.033922 71.49082 
L 348.372536 70.633168 
L 349.388375 67.574633 
L 349.557681 67.434576 
L 349.726988 67.464171 
L 350.065601 67.863478 
L 350.573521 68.997653 
L 351.250747 71.322159 
L 352.943812 77.92995 
L 353.451732 78.884036 
L 354.298265 79.81397 
L 355.48341 80.841288 
L 355.822023 80.509961 
L 356.329943 79.311555 
L 357.176476 77.197114 
L 357.684395 76.561781 
L 358.023009 76.399349 
L 358.361622 76.423575 
L 358.700235 76.616211 
L 359.038848 77.006912 
L 359.377461 77.709786 
L 360.054687 79.494163 
L 360.223994 79.69219 
L 360.3933 79.668373 
L 360.731913 79.076618 
L 361.747753 76.560485 
L 362.086366 76.46214 
L 362.424979 76.829522 
L 362.932898 77.977924 
L 363.779431 80.139282 
L 363.948738 80.339349 
L 364.118044 80.333901 
L 364.456657 79.689838 
L 364.964577 77.814779 
L 366.149723 73.049101 
L 366.826949 71.39036 
L 367.842788 69.737015 
L 368.520014 68.530506 
L 369.535854 66.596501 
L 370.382386 65.519664 
L 370.890306 65.227511 
L 371.228919 65.237805 
L 371.736839 65.50241 
L 372.583371 66.321301 
L 373.599211 67.269537 
L 374.10713 67.460663 
L 374.445743 67.402711 
L 374.953663 67.046701 
L 375.800196 66.373175 
L 376.308115 66.245321 
L 376.985342 66.317046 
L 378.170487 66.466352 
L 378.678407 66.289917 
L 379.186327 65.845131 
L 380.540779 64.444793 
L 381.048699 64.285223 
L 381.556618 64.370263 
L 382.064538 64.697521 
L 383.080377 65.502285 
L 383.588297 65.606748 
L 384.096216 65.466181 
L 384.773443 64.96193 
L 385.789282 63.781131 
L 387.313041 61.985081 
L 388.32888 61.182735 
L 389.344719 60.680039 
L 390.360559 60.431759 
L 391.376398 60.398084 
L 392.561544 60.58383 
L 393.915996 61.035462 
L 395.439755 61.779772 
L 397.302127 62.939637 
L 398.487273 63.867038 
L 398.487273 63.867038 
" style="fill:none;stroke:#2ca02c;stroke-linecap:square;stroke-width:1.5;"/>
   </g>
   <g id="line2d_18">
    <path clip-path="url(#p2920197036)" d="M 73.832727 208.289743 
L 77.388165 218.877706 
L 84.837653 241.320685 
L 88.731703 251.77682 
L 89.578236 253.410945 
L 90.255462 254.246927 
L 90.763382 254.53287 
L 91.101995 254.539428 
L 91.440608 254.385634 
L 91.948528 253.836197 
L 92.456447 252.923255 
L 93.133673 251.201413 
L 93.980206 248.35112 
L 95.334658 242.724519 
L 96.689111 237.409876 
L 97.535644 235.018604 
L 98.21287 233.668028 
L 98.890096 232.777629 
L 99.567322 232.30757 
L 100.075242 232.199863 
L 100.583161 232.277255 
L 101.260387 232.630544 
L 102.10692 233.404162 
L 103.122759 234.709683 
L 104.307905 236.641429 
L 105.662358 239.290286 
L 106.678197 241.736841 
L 108.371262 246.579584 
L 111.249474 255.476418 
L 118.868268 279.452829 
L 120.053414 282.502131 
L 120.899947 284.069188 
L 121.746479 285.199186 
L 122.762319 286.143281 
L 123.608851 286.633293 
L 124.286078 286.792589 
L 124.963304 286.709124 
L 125.64053 286.348805 
L 126.317756 285.683236 
L 127.333595 284.27573 
L 128.857354 282.17757 
L 129.53458 281.60964 
L 130.0425 281.433029 
L 130.719726 281.446336 
L 132.412792 281.6693 
L 133.090018 281.447407 
L 133.767244 280.93329 
L 134.44447 280.112535 
L 135.291003 278.667877 
L 136.476149 276.061917 
L 142.571184 261.96086 
L 143.75633 260.146238 
L 145.110783 258.471854 
L 146.465235 257.115931 
L 147.819687 256.046187 
L 149.343446 255.139848 
L 150.867205 254.489153 
L 152.898884 253.891749 
L 157.47016 252.857468 
L 158.316693 252.910088 
L 159.332532 253.225472 
L 160.517678 253.617925 
L 161.194904 253.564368 
L 161.702824 253.316263 
L 162.38005 252.674081 
L 163.057276 251.682385 
L 163.734502 250.332619 
L 164.581035 248.112646 
L 165.596874 244.721012 
L 166.78202 239.925797 
L 168.305779 232.688148 
L 170.506764 222.08079 
L 171.522604 218.319613 
L 172.877056 214.316407 
L 174.400815 209.748166 
L 175.247347 206.517267 
L 176.6018 200.195752 
L 180.665157 179.860371 
L 181.680996 172.462178 
L 183.543368 156.537013 
L 185.744353 138.128674 
L 187.776032 123.222233 
L 190.31563 106.317861 
L 191.839389 97.350864 
L 193.024535 91.731818 
L 194.040374 88.05757 
L 194.7176 86.293878 
L 195.394826 85.155427 
L 195.902746 84.725736 
L 196.410666 84.654081 
L 196.918585 84.902927 
L 197.426505 85.434519 
L 198.103731 86.561699 
L 198.780957 88.16084 
L 199.62749 90.7885 
L 200.643329 94.733026 
L 202.505701 103.092411 
L 204.198767 110.384902 
L 205.553219 115.295873 
L 208.600737 124.918984 
L 209.785883 128.084504 
L 211.140335 130.978944 
L 211.986868 132.39199 
L 212.8334 133.361534 
L 213.679933 133.972672 
L 214.357159 134.231557 
L 215.203692 134.304999 
L 216.388838 134.150684 
L 217.235371 133.849272 
L 218.081903 133.313028 
L 218.928436 132.472787 
L 219.774969 131.27086 
L 220.790808 129.373358 
L 221.975954 126.617811 
L 223.330406 122.885446 
L 225.192778 117.003156 
L 228.748216 105.408868 
L 229.425442 103.998926 
L 230.102668 103.08039 
L 230.610588 102.679773 
L 231.118507 102.497686 
L 231.626427 102.508999 
L 232.303653 102.768428 
L 233.319492 103.482984 
L 235.012558 104.731536 
L 235.689784 104.968757 
L 236.197704 104.958183 
L 236.705623 104.74037 
L 237.213543 104.273674 
L 237.721462 103.515828 
L 238.398689 102.043385 
L 239.753141 98.927884 
L 240.261061 98.277447 
L 240.599674 98.153033 
L 240.938287 98.340189 
L 241.446206 99.126429 
L 242.631352 101.255131 
L 243.139272 101.742026 
L 243.139272 101.742026 
" style="fill:none;stroke:#d62728;stroke-dasharray:5.55,2.4;stroke-dashoffset:0;stroke-width:1.5;"/>
   </g>
   <g id="patch_3">
    <path d="M 57.6 307.584 
L 57.6 41.472 
" style="fill:none;stroke:#000000;stroke-linecap:square;stroke-linejoin:miter;stroke-width:0.8;"/>
   </g>
   <g id="patch_4">
    <path d="M 414.72 307.584 
L 414.72 41.472 
" style="fill:none;stroke:#000000;stroke-linecap:square;stroke-linejoin:miter;stroke-width:0.8;"/>
   </g>
   <g id="patch_5">
    <path d="M 57.6 307.584 
L 414.72 307.584 
" style="fill:none;stroke:#000000;stroke-linecap:square;stroke-linejoin:miter;stroke-width:0.8;"/>
   </g>
   <g id="patch_6">
    <path d="M 57.6 41.472 
L 414.72 41.472 
" style="fill:none;stroke:#000000;stroke-linecap:square;stroke-linejoin:miter;stroke-width:0.8;"/>
   </g>
   <g id="text_15">
    <!-- 123.250000 -->
    <g transform="translate(199.895625 35.472)scale(0.12 -0.12)">
     <defs>
      <path d="M 2597 2516 
Q 3050 2419 3304 2112 
Q 3559 1806 3559 1356 
Q 3559 666 3084 287 
Q 2609 -91 1734 -91 
Q 1441 -91 1130 -33 
Q 819 25 488 141 
L 488 750 
Q 750 597 1062 519 
Q 1375 441 1716 441 
Q 2309 441 2620 675 
Q 2931 909 2931 1356 
Q 2931 1769 2642 2001 
Q 2353 2234 1838 2234 
L 1294 2234 
L 1294 2753 
L 1863 2753 
Q 2328 2753 2575 2939 
Q 2822 3125 2822 3475 
Q 2822 3834 2567 4026 
Q 2313 4219 1838 4219 
Q 1578 4219 1281 4162 
Q 984 4106 628 3988 
L 628 4550 
Q 988 4650 1302 4700 
Q 1616 4750 1894 4750 
Q 2613 4750 3031 4423 
Q 3450 4097 3450 3541 
Q 3450 3153 3228 2886 
Q 3006 2619 2597 2516 
z
" id="DejaVuSans-33" transform="scale(0.015625)"/>
     </defs>
     <use xlink:href="#DejaVuSans-31"/>
     <use x="63.623047" xlink:href="#DejaVuSans-32"/>
     <use x="127.246094" xlink:href="#DejaVuSans-33"/>
     <use x="190.869141" xlink:href="#DejaVuSans-2e"/>
     <use x="222.65625" xlink:href="#DejaVuSans-32"/>
     <use x="286.279297" xlink:href="#DejaVuSans-35"/>
     <use x="349.902344" xlink:href="#DejaVuSans-30"/>
     <use x="413.525391" xlink:href="#DejaVuSans-30"/>
     <use x="477.148438" xlink:href="#DejaVuSans-30"/>
     <use x="540.771484" xlink:href="#DejaVuSans-30"/>
    </g>
   </g>
  </g>
 </g>
 <defs>
  <clipPath id="p2920197036">
   <rect height="266.112" width="357.12" x="57.6" y="41.472"/>
  </clipPath>
 </defs>
</svg>
