<?xml version="1.0" encoding="utf-8" standalone="no"?>
<!DOCTYPE svg PUBLIC "-//W3C//DTD SVG 1.1//EN"
  "http://www.w3.org/Graphics/SVG/1.1/DTD/svg11.dtd">
<svg height="345.6pt" version="1.1" viewBox="0 0 460.8 345.6" width="460.8pt" xmlns="http://www.w3.org/2000/svg" xmlns:xlink="http://www.w3.org/1999/xlink">
 <metadata>
  <rdf:RDF xmlns:cc="http://creativecommons.org/ns#" xmlns:dc="http://purl.org/dc/elements/1.1/" xmlns:rdf="http://www.w3.org/1999/02/22-rdf-syntax-ns#">
   <cc:Work>
    <dc:type rdf:resource="http://purl.org/dc/dcmitype/StillImage"/>
    <dc:date>2022-06-10T20:10:35.771929</dc:date>
    <dc:format>image/svg+xml</dc:format>
    <dc:creator>
     <cc:Agent>
      <dc:title>Matplotlib v3.4.3, https://matplotlib.org/</dc:title>
     </cc:Agent>
    </dc:creator>
   </cc:Work>
  </rdf:RDF>
 </metadata>
 <defs>
  <style type="text/css">*{stroke-linecap:butt;stroke-linejoin:round;}</style>
 </defs>
 <g id="figure_1">
  <g id="patch_1">
   <path d="M 0 345.6 
L 460.8 345.6 
L 460.8 0 
L 0 0 
z
" style="fill:#ffffff;"/>
  </g>
  <g id="axes_1">
   <g id="patch_2">
    <path d="M 57.6 307.584 
L 414.72 307.584 
L 414.72 41.472 
L 57.6 41.472 
z
" style="fill:#ffffff;"/>
   </g>
   <g id="matplotlib.axis_1">
    <g id="xtick_1">
     <g id="line2d_1">
      <defs>
       <path d="M 0 0 
L 0 3.5 
" id="m0709a2ff31" style="stroke:#000000;stroke-width:0.8;"/>
      </defs>
      <g>
       <use style="stroke:#000000;stroke-width:0.8;" x="59.327882" xlink:href="#m0709a2ff31" y="307.584"/>
      </g>
     </g>
     <g id="text_1">
      <!-- −20 -->
      <g transform="translate(48.775538 322.182437)scale(0.1 -0.1)">
       <defs>
        <path d="M 678 2272 
L 4684 2272 
L 4684 1741 
L 678 1741 
L 678 2272 
z
" id="DejaVuSans-2212" transform="scale(0.015625)"/>
        <path d="M 1228 531 
L 3431 531 
L 3431 0 
L 469 0 
L 469 531 
Q 828 903 1448 1529 
Q 2069 2156 2228 2338 
Q 2531 2678 2651 2914 
Q 2772 3150 2772 3378 
Q 2772 3750 2511 3984 
Q 2250 4219 1831 4219 
Q 1534 4219 1204 4116 
Q 875 4013 500 3803 
L 500 4441 
Q 881 4594 1212 4672 
Q 1544 4750 1819 4750 
Q 2544 4750 2975 4387 
Q 3406 4025 3406 3419 
Q 3406 3131 3298 2873 
Q 3191 2616 2906 2266 
Q 2828 2175 2409 1742 
Q 1991 1309 1228 531 
z
" id="DejaVuSans-32" transform="scale(0.015625)"/>
        <path d="M 2034 4250 
Q 1547 4250 1301 3770 
Q 1056 3291 1056 2328 
Q 1056 1369 1301 889 
Q 1547 409 2034 409 
Q 2525 409 2770 889 
Q 3016 1369 3016 2328 
Q 3016 3291 2770 3770 
Q 2525 4250 2034 4250 
z
M 2034 4750 
Q 2819 4750 3233 4129 
Q 3647 3509 3647 2328 
Q 3647 1150 3233 529 
Q 2819 -91 2034 -91 
Q 1250 -91 836 529 
Q 422 1150 422 2328 
Q 422 3509 836 4129 
Q 1250 4750 2034 4750 
z
" id="DejaVuSans-30" transform="scale(0.015625)"/>
       </defs>
       <use xlink:href="#DejaVuSans-2212"/>
       <use x="83.789062" xlink:href="#DejaVuSans-32"/>
       <use x="147.412109" xlink:href="#DejaVuSans-30"/>
      </g>
     </g>
    </g>
    <g id="xtick_2">
     <g id="line2d_2">
      <g>
       <use style="stroke:#000000;stroke-width:0.8;" x="103.281959" xlink:href="#m0709a2ff31" y="307.584"/>
      </g>
     </g>
     <g id="text_2">
      <!-- 0 -->
      <g transform="translate(100.100709 322.182437)scale(0.1 -0.1)">
       <use xlink:href="#DejaVuSans-30"/>
      </g>
     </g>
    </g>
    <g id="xtick_3">
     <g id="line2d_3">
      <g>
       <use style="stroke:#000000;stroke-width:0.8;" x="147.236035" xlink:href="#m0709a2ff31" y="307.584"/>
      </g>
     </g>
     <g id="text_3">
      <!-- 20 -->
      <g transform="translate(140.873535 322.182437)scale(0.1 -0.1)">
       <use xlink:href="#DejaVuSans-32"/>
       <use x="63.623047" xlink:href="#DejaVuSans-30"/>
      </g>
     </g>
    </g>
    <g id="xtick_4">
     <g id="line2d_4">
      <g>
       <use style="stroke:#000000;stroke-width:0.8;" x="191.190112" xlink:href="#m0709a2ff31" y="307.584"/>
      </g>
     </g>
     <g id="text_4">
      <!-- 40 -->
      <g transform="translate(184.827612 322.182437)scale(0.1 -0.1)">
       <defs>
        <path d="M 2419 4116 
L 825 1625 
L 2419 1625 
L 2419 4116 
z
M 2253 4666 
L 3047 4666 
L 3047 1625 
L 3713 1625 
L 3713 1100 
L 3047 1100 
L 3047 0 
L 2419 0 
L 2419 1100 
L 313 1100 
L 313 1709 
L 2253 4666 
z
" id="DejaVuSans-34" transform="scale(0.015625)"/>
       </defs>
       <use xlink:href="#DejaVuSans-34"/>
       <use x="63.623047" xlink:href="#DejaVuSans-30"/>
      </g>
     </g>
    </g>
    <g id="xtick_5">
     <g id="line2d_5">
      <g>
       <use style="stroke:#000000;stroke-width:0.8;" x="235.144189" xlink:href="#m0709a2ff31" y="307.584"/>
      </g>
     </g>
     <g id="text_5">
      <!-- 60 -->
      <g transform="translate(228.781689 322.182437)scale(0.1 -0.1)">
       <defs>
        <path d="M 2113 2584 
Q 1688 2584 1439 2293 
Q 1191 2003 1191 1497 
Q 1191 994 1439 701 
Q 1688 409 2113 409 
Q 2538 409 2786 701 
Q 3034 994 3034 1497 
Q 3034 2003 2786 2293 
Q 2538 2584 2113 2584 
z
M 3366 4563 
L 3366 3988 
Q 3128 4100 2886 4159 
Q 2644 4219 2406 4219 
Q 1781 4219 1451 3797 
Q 1122 3375 1075 2522 
Q 1259 2794 1537 2939 
Q 1816 3084 2150 3084 
Q 2853 3084 3261 2657 
Q 3669 2231 3669 1497 
Q 3669 778 3244 343 
Q 2819 -91 2113 -91 
Q 1303 -91 875 529 
Q 447 1150 447 2328 
Q 447 3434 972 4092 
Q 1497 4750 2381 4750 
Q 2619 4750 2861 4703 
Q 3103 4656 3366 4563 
z
" id="DejaVuSans-36" transform="scale(0.015625)"/>
       </defs>
       <use xlink:href="#DejaVuSans-36"/>
       <use x="63.623047" xlink:href="#DejaVuSans-30"/>
      </g>
     </g>
    </g>
    <g id="xtick_6">
     <g id="line2d_6">
      <g>
       <use style="stroke:#000000;stroke-width:0.8;" x="279.098265" xlink:href="#m0709a2ff31" y="307.584"/>
      </g>
     </g>
     <g id="text_6">
      <!-- 80 -->
      <g transform="translate(272.735765 322.182437)scale(0.1 -0.1)">
       <defs>
        <path d="M 2034 2216 
Q 1584 2216 1326 1975 
Q 1069 1734 1069 1313 
Q 1069 891 1326 650 
Q 1584 409 2034 409 
Q 2484 409 2743 651 
Q 3003 894 3003 1313 
Q 3003 1734 2745 1975 
Q 2488 2216 2034 2216 
z
M 1403 2484 
Q 997 2584 770 2862 
Q 544 3141 544 3541 
Q 544 4100 942 4425 
Q 1341 4750 2034 4750 
Q 2731 4750 3128 4425 
Q 3525 4100 3525 3541 
Q 3525 3141 3298 2862 
Q 3072 2584 2669 2484 
Q 3125 2378 3379 2068 
Q 3634 1759 3634 1313 
Q 3634 634 3220 271 
Q 2806 -91 2034 -91 
Q 1263 -91 848 271 
Q 434 634 434 1313 
Q 434 1759 690 2068 
Q 947 2378 1403 2484 
z
M 1172 3481 
Q 1172 3119 1398 2916 
Q 1625 2713 2034 2713 
Q 2441 2713 2670 2916 
Q 2900 3119 2900 3481 
Q 2900 3844 2670 4047 
Q 2441 4250 2034 4250 
Q 1625 4250 1398 4047 
Q 1172 3844 1172 3481 
z
" id="DejaVuSans-38" transform="scale(0.015625)"/>
       </defs>
       <use xlink:href="#DejaVuSans-38"/>
       <use x="63.623047" xlink:href="#DejaVuSans-30"/>
      </g>
     </g>
    </g>
    <g id="xtick_7">
     <g id="line2d_7">
      <g>
       <use style="stroke:#000000;stroke-width:0.8;" x="323.052342" xlink:href="#m0709a2ff31" y="307.584"/>
      </g>
     </g>
     <g id="text_7">
      <!-- 100 -->
      <g transform="translate(313.508592 322.182437)scale(0.1 -0.1)">
       <defs>
        <path d="M 794 531 
L 1825 531 
L 1825 4091 
L 703 3866 
L 703 4441 
L 1819 4666 
L 2450 4666 
L 2450 531 
L 3481 531 
L 3481 0 
L 794 0 
L 794 531 
z
" id="DejaVuSans-31" transform="scale(0.015625)"/>
       </defs>
       <use xlink:href="#DejaVuSans-31"/>
       <use x="63.623047" xlink:href="#DejaVuSans-30"/>
       <use x="127.246094" xlink:href="#DejaVuSans-30"/>
      </g>
     </g>
    </g>
    <g id="xtick_8">
     <g id="line2d_8">
      <g>
       <use style="stroke:#000000;stroke-width:0.8;" x="367.006419" xlink:href="#m0709a2ff31" y="307.584"/>
      </g>
     </g>
     <g id="text_8">
      <!-- 120 -->
      <g transform="translate(357.462669 322.182437)scale(0.1 -0.1)">
       <use xlink:href="#DejaVuSans-31"/>
       <use x="63.623047" xlink:href="#DejaVuSans-32"/>
       <use x="127.246094" xlink:href="#DejaVuSans-30"/>
      </g>
     </g>
    </g>
    <g id="xtick_9">
     <g id="line2d_9">
      <g>
       <use style="stroke:#000000;stroke-width:0.8;" x="410.960495" xlink:href="#m0709a2ff31" y="307.584"/>
      </g>
     </g>
     <g id="text_9">
      <!-- 140 -->
      <g transform="translate(401.416745 322.182437)scale(0.1 -0.1)">
       <use xlink:href="#DejaVuSans-31"/>
       <use x="63.623047" xlink:href="#DejaVuSans-34"/>
       <use x="127.246094" xlink:href="#DejaVuSans-30"/>
      </g>
     </g>
    </g>
   </g>
   <g id="matplotlib.axis_2">
    <g id="ytick_1">
     <g id="line2d_10">
      <defs>
       <path d="M 0 0 
L -3.5 0 
" id="mdc9ba83804" style="stroke:#000000;stroke-width:0.8;"/>
      </defs>
      <g>
       <use style="stroke:#000000;stroke-width:0.8;" x="57.6" xlink:href="#mdc9ba83804" y="306.809717"/>
      </g>
     </g>
     <g id="text_10">
      <!-- −2.0 -->
      <g transform="translate(26.317187 310.608936)scale(0.1 -0.1)">
       <defs>
        <path d="M 684 794 
L 1344 794 
L 1344 0 
L 684 0 
L 684 794 
z
" id="DejaVuSans-2e" transform="scale(0.015625)"/>
       </defs>
       <use xlink:href="#DejaVuSans-2212"/>
       <use x="83.789062" xlink:href="#DejaVuSans-32"/>
       <use x="147.412109" xlink:href="#DejaVuSans-2e"/>
       <use x="179.199219" xlink:href="#DejaVuSans-30"/>
      </g>
     </g>
    </g>
    <g id="ytick_2">
     <g id="line2d_11">
      <g>
       <use style="stroke:#000000;stroke-width:0.8;" x="57.6" xlink:href="#mdc9ba83804" y="276.782236"/>
      </g>
     </g>
     <g id="text_11">
      <!-- −1.5 -->
      <g transform="translate(26.317187 280.581455)scale(0.1 -0.1)">
       <defs>
        <path d="M 691 4666 
L 3169 4666 
L 3169 4134 
L 1269 4134 
L 1269 2991 
Q 1406 3038 1543 3061 
Q 1681 3084 1819 3084 
Q 2600 3084 3056 2656 
Q 3513 2228 3513 1497 
Q 3513 744 3044 326 
Q 2575 -91 1722 -91 
Q 1428 -91 1123 -41 
Q 819 9 494 109 
L 494 744 
Q 775 591 1075 516 
Q 1375 441 1709 441 
Q 2250 441 2565 725 
Q 2881 1009 2881 1497 
Q 2881 1984 2565 2268 
Q 2250 2553 1709 2553 
Q 1456 2553 1204 2497 
Q 953 2441 691 2322 
L 691 4666 
z
" id="DejaVuSans-35" transform="scale(0.015625)"/>
       </defs>
       <use xlink:href="#DejaVuSans-2212"/>
       <use x="83.789062" xlink:href="#DejaVuSans-31"/>
       <use x="147.412109" xlink:href="#DejaVuSans-2e"/>
       <use x="179.199219" xlink:href="#DejaVuSans-35"/>
      </g>
     </g>
    </g>
    <g id="ytick_3">
     <g id="line2d_12">
      <g>
       <use style="stroke:#000000;stroke-width:0.8;" x="57.6" xlink:href="#mdc9ba83804" y="246.754755"/>
      </g>
     </g>
     <g id="text_12">
      <!-- −1.0 -->
      <g transform="translate(26.317187 250.553974)scale(0.1 -0.1)">
       <use xlink:href="#DejaVuSans-2212"/>
       <use x="83.789062" xlink:href="#DejaVuSans-31"/>
       <use x="147.412109" xlink:href="#DejaVuSans-2e"/>
       <use x="179.199219" xlink:href="#DejaVuSans-30"/>
      </g>
     </g>
    </g>
    <g id="ytick_4">
     <g id="line2d_13">
      <g>
       <use style="stroke:#000000;stroke-width:0.8;" x="57.6" xlink:href="#mdc9ba83804" y="216.727274"/>
      </g>
     </g>
     <g id="text_13">
      <!-- −0.5 -->
      <g transform="translate(26.317187 220.526493)scale(0.1 -0.1)">
       <use xlink:href="#DejaVuSans-2212"/>
       <use x="83.789062" xlink:href="#DejaVuSans-30"/>
       <use x="147.412109" xlink:href="#DejaVuSans-2e"/>
       <use x="179.199219" xlink:href="#DejaVuSans-35"/>
      </g>
     </g>
    </g>
    <g id="ytick_5">
     <g id="line2d_14">
      <g>
       <use style="stroke:#000000;stroke-width:0.8;" x="57.6" xlink:href="#mdc9ba83804" y="186.699793"/>
      </g>
     </g>
     <g id="text_14">
      <!-- 0.0 -->
      <g transform="translate(34.696875 190.499012)scale(0.1 -0.1)">
       <use xlink:href="#DejaVuSans-30"/>
       <use x="63.623047" xlink:href="#DejaVuSans-2e"/>
       <use x="95.410156" xlink:href="#DejaVuSans-30"/>
      </g>
     </g>
    </g>
    <g id="ytick_6">
     <g id="line2d_15">
      <g>
       <use style="stroke:#000000;stroke-width:0.8;" x="57.6" xlink:href="#mdc9ba83804" y="156.672312"/>
      </g>
     </g>
     <g id="text_15">
      <!-- 0.5 -->
      <g transform="translate(34.696875 160.471531)scale(0.1 -0.1)">
       <use xlink:href="#DejaVuSans-30"/>
       <use x="63.623047" xlink:href="#DejaVuSans-2e"/>
       <use x="95.410156" xlink:href="#DejaVuSans-35"/>
      </g>
     </g>
    </g>
    <g id="ytick_7">
     <g id="line2d_16">
      <g>
       <use style="stroke:#000000;stroke-width:0.8;" x="57.6" xlink:href="#mdc9ba83804" y="126.644831"/>
      </g>
     </g>
     <g id="text_16">
      <!-- 1.0 -->
      <g transform="translate(34.696875 130.44405)scale(0.1 -0.1)">
       <use xlink:href="#DejaVuSans-31"/>
       <use x="63.623047" xlink:href="#DejaVuSans-2e"/>
       <use x="95.410156" xlink:href="#DejaVuSans-30"/>
      </g>
     </g>
    </g>
    <g id="ytick_8">
     <g id="line2d_17">
      <g>
       <use style="stroke:#000000;stroke-width:0.8;" x="57.6" xlink:href="#mdc9ba83804" y="96.61735"/>
      </g>
     </g>
     <g id="text_17">
      <!-- 1.5 -->
      <g transform="translate(34.696875 100.416569)scale(0.1 -0.1)">
       <use xlink:href="#DejaVuSans-31"/>
       <use x="63.623047" xlink:href="#DejaVuSans-2e"/>
       <use x="95.410156" xlink:href="#DejaVuSans-35"/>
      </g>
     </g>
    </g>
    <g id="ytick_9">
     <g id="line2d_18">
      <g>
       <use style="stroke:#000000;stroke-width:0.8;" x="57.6" xlink:href="#mdc9ba83804" y="66.589869"/>
      </g>
     </g>
     <g id="text_18">
      <!-- 2.0 -->
      <g transform="translate(34.696875 70.389088)scale(0.1 -0.1)">
       <use xlink:href="#DejaVuSans-32"/>
       <use x="63.623047" xlink:href="#DejaVuSans-2e"/>
       <use x="95.410156" xlink:href="#DejaVuSans-30"/>
      </g>
     </g>
    </g>
   </g>
   <g id="line2d_19">
    <defs>
     <path d="M 0 3 
C 0.795609 3 1.55874 2.683901 2.12132 2.12132 
C 2.683901 1.55874 3 0.795609 3 0 
C 3 -0.795609 2.683901 -1.55874 2.12132 -2.12132 
C 1.55874 -2.683901 0.795609 -3 0 -3 
C -0.795609 -3 -1.55874 -2.683901 -2.12132 -2.12132 
C -2.683901 -1.55874 -3 -0.795609 -3 0 
C -3 0.795609 -2.683901 1.55874 -2.12132 2.12132 
C -1.55874 2.683901 -0.795609 3 0 3 
z
" id="m50508bbd1e" style="stroke:#1f77b4;"/>
    </defs>
    <g clip-path="url(#p29d67100c2)">
     <use style="fill:#1f77b4;stroke:#1f77b4;" x="103.281959" xlink:href="#m50508bbd1e" y="269.921589"/>
     <use style="fill:#1f77b4;stroke:#1f77b4;" x="113.994104" xlink:href="#m50508bbd1e" y="272.061585"/>
     <use style="fill:#1f77b4;stroke:#1f77b4;" x="118.300387" xlink:href="#m50508bbd1e" y="267.781593"/>
     <use style="fill:#1f77b4;stroke:#1f77b4;" x="123.545054" xlink:href="#m50508bbd1e" y="236.537652"/>
     <use style="fill:#1f77b4;stroke:#1f77b4;" x="125.603928" xlink:href="#m50508bbd1e" y="256.653614"/>
     <use style="fill:#1f77b4;stroke:#1f77b4;" x="127.679942" xlink:href="#m50508bbd1e" y="260.505607"/>
     <use style="fill:#1f77b4;stroke:#1f77b4;" x="131.969085" xlink:href="#m50508bbd1e" y="253.229621"/>
     <use style="fill:#1f77b4;stroke:#1f77b4;" x="134.139366" xlink:href="#m50508bbd1e" y="253.086954"/>
     <use style="fill:#1f77b4;stroke:#1f77b4;" x="138.576337" xlink:href="#m50508bbd1e" y="252.872955"/>
     <use style="fill:#1f77b4;stroke:#1f77b4;" x="142.968316" xlink:href="#m50508bbd1e" y="255.44095"/>
     <use style="fill:#1f77b4;stroke:#1f77b4;" x="144.030961" xlink:href="#m50508bbd1e" y="272.061585"/>
     <use style="fill:#1f77b4;stroke:#1f77b4;" x="146.813977" xlink:href="#m50508bbd1e" y="265.998263"/>
     <use style="fill:#1f77b4;stroke:#1f77b4;" x="148.31582" xlink:href="#m50508bbd1e" y="287.041556"/>
     <use style="fill:#1f77b4;stroke:#1f77b4;" x="151.246663" xlink:href="#m50508bbd1e" y="268.851591"/>
     <use style="fill:#1f77b4;stroke:#1f77b4;" x="152.557829" xlink:href="#m50508bbd1e" y="282.048233"/>
     <use style="fill:#1f77b4;stroke:#1f77b4;" x="153.277686" xlink:href="#m50508bbd1e" y="275.271579"/>
     <use style="fill:#1f77b4;stroke:#1f77b4;" x="154.678834" xlink:href="#m50508bbd1e" y="282.048233"/>
     <use style="fill:#1f77b4;stroke:#1f77b4;" x="156.864112" xlink:href="#m50508bbd1e" y="279.194905"/>
     <use style="fill:#1f77b4;stroke:#1f77b4;" x="157.791784" xlink:href="#m50508bbd1e" y="277.839574"/>
     <use style="fill:#1f77b4;stroke:#1f77b4;" x="159.670694" xlink:href="#m50508bbd1e" y="274.058914"/>
     <use style="fill:#1f77b4;stroke:#1f77b4;" x="161.971663" xlink:href="#m50508bbd1e" y="271.06292"/>
     <use style="fill:#1f77b4;stroke:#1f77b4;" x="163.248551" xlink:href="#m50508bbd1e" y="285.614892"/>
     <use style="fill:#1f77b4;stroke:#1f77b4;" x="171.646873" xlink:href="#m50508bbd1e" y="280.621569"/>
     <use style="fill:#1f77b4;stroke:#1f77b4;" x="179.123951" xlink:href="#m50508bbd1e" y="263.073602"/>
     <use style="fill:#1f77b4;stroke:#1f77b4;" x="181.362789" xlink:href="#m50508bbd1e" y="270.706254"/>
     <use style="fill:#1f77b4;stroke:#1f77b4;" x="183.40024" xlink:href="#m50508bbd1e" y="273.630915"/>
     <use style="fill:#1f77b4;stroke:#1f77b4;" x="185.501963" xlink:href="#m50508bbd1e" y="263.358935"/>
     <use style="fill:#1f77b4;stroke:#1f77b4;" x="187.828641" xlink:href="#m50508bbd1e" y="250.233626"/>
     <use style="fill:#1f77b4;stroke:#1f77b4;" x="192.098502" xlink:href="#m50508bbd1e" y="251.232291"/>
     <use style="fill:#1f77b4;stroke:#1f77b4;" x="194.11667" xlink:href="#m50508bbd1e" y="253.942953"/>
     <use style="fill:#1f77b4;stroke:#1f77b4;" x="200.430409" xlink:href="#m50508bbd1e" y="238.891648"/>
     <use style="fill:#1f77b4;stroke:#1f77b4;" x="202.519277" xlink:href="#m50508bbd1e" y="242.95764"/>
     <use style="fill:#1f77b4;stroke:#1f77b4;" x="204.950934" xlink:href="#m50508bbd1e" y="238.534982"/>
     <use style="fill:#1f77b4;stroke:#1f77b4;" x="206.780569" xlink:href="#m50508bbd1e" y="241.102977"/>
     <use style="fill:#1f77b4;stroke:#1f77b4;" x="209.070826" xlink:href="#m50508bbd1e" y="235.895654"/>
     <use style="fill:#1f77b4;stroke:#1f77b4;" x="211.172549" xlink:href="#m50508bbd1e" y="232.328994"/>
     <use style="fill:#1f77b4;stroke:#1f77b4;" x="213.265702" xlink:href="#m50508bbd1e" y="231.044996"/>
     <use style="fill:#1f77b4;stroke:#1f77b4;" x="215.393134" xlink:href="#m50508bbd1e" y="236.25232"/>
     <use style="fill:#1f77b4;stroke:#1f77b4;" x="221.816137" xlink:href="#m50508bbd1e" y="224.981674"/>
     <use style="fill:#1f77b4;stroke:#1f77b4;" x="226.126704" xlink:href="#m50508bbd1e" y="223.697677"/>
     <use style="fill:#1f77b4;stroke:#1f77b4;" x="245.335724" xlink:href="#m50508bbd1e" y="204.865713"/>
     <use style="fill:#1f77b4;stroke:#1f77b4;" x="247.503862" xlink:href="#m50508bbd1e" y="211.927699"/>
     <use style="fill:#1f77b4;stroke:#1f77b4;" x="249.612013" xlink:href="#m50508bbd1e" y="215.423026"/>
     <use style="fill:#1f77b4;stroke:#1f77b4;" x="251.788721" xlink:href="#m50508bbd1e" y="204.36638"/>
     <use style="fill:#1f77b4;stroke:#1f77b4;" x="253.909726" xlink:href="#m50508bbd1e" y="183.18042"/>
     <use style="fill:#1f77b4;stroke:#1f77b4;" x="256.11" xlink:href="#m50508bbd1e" y="179.82776"/>
     <use style="fill:#1f77b4;stroke:#1f77b4;" x="258.213866" xlink:href="#m50508bbd1e" y="167.915116"/>
     <use style="fill:#1f77b4;stroke:#1f77b4;" x="259.507893" xlink:href="#m50508bbd1e" y="150.795149"/>
     <use style="fill:#1f77b4;stroke:#1f77b4;" x="260.418425" xlink:href="#m50508bbd1e" y="154.718474"/>
     <use style="fill:#1f77b4;stroke:#1f77b4;" x="262.503009" xlink:href="#m50508bbd1e" y="148.655153"/>
     <use style="fill:#1f77b4;stroke:#1f77b4;" x="264.634726" xlink:href="#m50508bbd1e" y="146.515157"/>
     <use style="fill:#1f77b4;stroke:#1f77b4;" x="266.811434" xlink:href="#m50508bbd1e" y="135.458511"/>
     <use style="fill:#1f77b4;stroke:#1f77b4;" x="268.926012" xlink:href="#m50508bbd1e" y="131.963184"/>
     <use style="fill:#1f77b4;stroke:#1f77b4;" x="270.292881" xlink:href="#m50508bbd1e" y="111.633223"/>
     <use style="fill:#1f77b4;stroke:#1f77b4;" x="273.142312" xlink:href="#m50508bbd1e" y="125.257864"/>
     <use style="fill:#1f77b4;stroke:#1f77b4;" x="274.290654" xlink:href="#m50508bbd1e" y="129.395189"/>
     <use style="fill:#1f77b4;stroke:#1f77b4;" x="278.639785" xlink:href="#m50508bbd1e" y="74.468627"/>
     <use style="fill:#1f77b4;stroke:#1f77b4;" x="279.535321" xlink:href="#m50508bbd1e" y="75.538625"/>
     <use style="fill:#1f77b4;stroke:#1f77b4;" x="280.739366" xlink:href="#m50508bbd1e" y="71.615299"/>
     <use style="fill:#1f77b4;stroke:#1f77b4;" x="281.673465" xlink:href="#m50508bbd1e" y="69.118637"/>
     <use style="fill:#1f77b4;stroke:#1f77b4;" x="283.05319" xlink:href="#m50508bbd1e" y="58.775323"/>
     <use style="fill:#1f77b4;stroke:#1f77b4;" x="283.061759" xlink:href="#m50508bbd1e" y="60.130654"/>
     <use style="fill:#1f77b4;stroke:#1f77b4;" x="283.828749" xlink:href="#m50508bbd1e" y="53.568"/>
     <use style="fill:#1f77b4;stroke:#1f77b4;" x="284.959951" xlink:href="#m50508bbd1e" y="75.895291"/>
     <use style="fill:#1f77b4;stroke:#1f77b4;" x="285.969036" xlink:href="#m50508bbd1e" y="61.557318"/>
     <use style="fill:#1f77b4;stroke:#1f77b4;" x="287.230926" xlink:href="#m50508bbd1e" y="60.915319"/>
     <use style="fill:#1f77b4;stroke:#1f77b4;" x="287.389466" xlink:href="#m50508bbd1e" y="60.629987"/>
     <use style="fill:#1f77b4;stroke:#1f77b4;" x="288.096468" xlink:href="#m50508bbd1e" y="61.557318"/>
     <use style="fill:#1f77b4;stroke:#1f77b4;" x="289.309083" xlink:href="#m50508bbd1e" y="78.035287"/>
     <use style="fill:#1f77b4;stroke:#1f77b4;" x="289.591883" xlink:href="#m50508bbd1e" y="82.457945"/>
     <use style="fill:#1f77b4;stroke:#1f77b4;" x="290.23247" xlink:href="#m50508bbd1e" y="82.029946"/>
     <use style="fill:#1f77b4;stroke:#1f77b4;" x="292.383469" xlink:href="#m50508bbd1e" y="74.682627"/>
     <use style="fill:#1f77b4;stroke:#1f77b4;" x="294.551607" xlink:href="#m50508bbd1e" y="71.615299"/>
     <use style="fill:#1f77b4;stroke:#1f77b4;" x="295.500703" xlink:href="#m50508bbd1e" y="88.021935"/>
     <use style="fill:#1f77b4;stroke:#1f77b4;" x="296.709033" xlink:href="#m50508bbd1e" y="76.965289"/>
     <use style="fill:#1f77b4;stroke:#1f77b4;" x="299.914107" xlink:href="#m50508bbd1e" y="107.99523"/>
     <use style="fill:#1f77b4;stroke:#1f77b4;" x="300.042653" xlink:href="#m50508bbd1e" y="102.288574"/>
     <use style="fill:#1f77b4;stroke:#1f77b4;" x="302.399325" xlink:href="#m50508bbd1e" y="90.16193"/>
     <use style="fill:#1f77b4;stroke:#1f77b4;" x="304.306087" xlink:href="#m50508bbd1e" y="118.69521"/>
     <use style="fill:#1f77b4;stroke:#1f77b4;" x="304.391784" xlink:href="#m50508bbd1e" y="115.841882"/>
     <use style="fill:#1f77b4;stroke:#1f77b4;" x="305.212334" xlink:href="#m50508bbd1e" y="115.984548"/>
     <use style="fill:#1f77b4;stroke:#1f77b4;" x="306.46994" xlink:href="#m50508bbd1e" y="127.255193"/>
     <use style="fill:#1f77b4;stroke:#1f77b4;" x="307.363333" xlink:href="#m50508bbd1e" y="116.48388"/>
     <use style="fill:#1f77b4;stroke:#1f77b4;" x="308.505248" xlink:href="#m50508bbd1e" y="130.821853"/>
     <use style="fill:#1f77b4;stroke:#1f77b4;" x="309.580747" xlink:href="#m50508bbd1e" y="126.541861"/>
     <use style="fill:#1f77b4;stroke:#1f77b4;" x="310.669101" xlink:href="#m50508bbd1e" y="130.108521"/>
     <use style="fill:#1f77b4;stroke:#1f77b4;" x="311.661046" xlink:href="#m50508bbd1e" y="122.190536"/>
     <use style="fill:#1f77b4;stroke:#1f77b4;" x="313.004349" xlink:href="#m50508bbd1e" y="111.56189"/>
     <use style="fill:#1f77b4;stroke:#1f77b4;" x="313.833469" xlink:href="#m50508bbd1e" y="132.53385"/>
     <use style="fill:#1f77b4;stroke:#1f77b4;" x="315.945904" xlink:href="#m50508bbd1e" y="122.832535"/>
     <use style="fill:#1f77b4;stroke:#1f77b4;" x="318.077621" xlink:href="#m50508bbd1e" y="150.010483"/>
     <use style="fill:#1f77b4;stroke:#1f77b4;" x="319.217394" xlink:href="#m50508bbd1e" y="158.6418"/>
     <use style="fill:#1f77b4;stroke:#1f77b4;" x="320.24576" xlink:href="#m50508bbd1e" y="155.003807"/>
     <use style="fill:#1f77b4;stroke:#1f77b4;" x="322.514592" xlink:href="#m50508bbd1e" y="145.801825"/>
     <use style="fill:#1f77b4;stroke:#1f77b4;" x="323.566525" xlink:href="#m50508bbd1e" y="170.768444"/>
     <use style="fill:#1f77b4;stroke:#1f77b4;" x="325.68753" xlink:href="#m50508bbd1e" y="158.6418"/>
     <use style="fill:#1f77b4;stroke:#1f77b4;" x="325.8375" xlink:href="#m50508bbd1e" y="152.935145"/>
     <use style="fill:#1f77b4;stroke:#1f77b4;" x="328.948307" xlink:href="#m50508bbd1e" y="159.0698"/>
     <use style="fill:#1f77b4;stroke:#1f77b4;" x="330.15021" xlink:href="#m50508bbd1e" y="146.015824"/>
     <use style="fill:#1f77b4;stroke:#1f77b4;" x="330.186631" xlink:href="#m50508bbd1e" y="155.07514"/>
     <use style="fill:#1f77b4;stroke:#1f77b4;" x="331.043603" xlink:href="#m50508bbd1e" y="159.355132"/>
     <use style="fill:#1f77b4;stroke:#1f77b4;" x="331.943423" xlink:href="#m50508bbd1e" y="167.915116"/>
     <use style="fill:#1f77b4;stroke:#1f77b4;" x="332.136242" xlink:href="#m50508bbd1e" y="152.221813"/>
     <use style="fill:#1f77b4;stroke:#1f77b4;" x="333.201029" xlink:href="#m50508bbd1e" y="155.50314"/>
     <use style="fill:#1f77b4;stroke:#1f77b4;" x="334.300095" xlink:href="#m50508bbd1e" y="143.661829"/>
     <use style="fill:#1f77b4;stroke:#1f77b4;" x="334.308665" xlink:href="#m50508bbd1e" y="154.789808"/>
     <use style="fill:#1f77b4;stroke:#1f77b4;" x="335.332746" xlink:href="#m50508bbd1e" y="147.656488"/>
     <use style="fill:#1f77b4;stroke:#1f77b4;" x="337.477318" xlink:href="#m50508bbd1e" y="144.874493"/>
     <use style="fill:#1f77b4;stroke:#1f77b4;" x="338.456408" xlink:href="#m50508bbd1e" y="169.34178"/>
     <use style="fill:#1f77b4;stroke:#1f77b4;" x="339.621889" xlink:href="#m50508bbd1e" y="147.870487"/>
     <use style="fill:#1f77b4;stroke:#1f77b4;" x="341.745036" xlink:href="#m50508bbd1e" y="127.041194"/>
     <use style="fill:#1f77b4;stroke:#1f77b4;" x="343.896035" xlink:href="#m50508bbd1e" y="127.041194"/>
     <use style="fill:#1f77b4;stroke:#1f77b4;" x="345.963479" xlink:href="#m50508bbd1e" y="129.252523"/>
     <use style="fill:#1f77b4;stroke:#1f77b4;" x="347.218943" xlink:href="#m50508bbd1e" y="111.56189"/>
     <use style="fill:#1f77b4;stroke:#1f77b4;" x="348.123048" xlink:href="#m50508bbd1e" y="114.415218"/>
     <use style="fill:#1f77b4;stroke:#1f77b4;" x="350.269762" xlink:href="#m50508bbd1e" y="98.507915"/>
     <use style="fill:#1f77b4;stroke:#1f77b4;" x="355.63869" xlink:href="#m50508bbd1e" y="111.56189"/>
     <use style="fill:#1f77b4;stroke:#1f77b4;" x="356.422819" xlink:href="#m50508bbd1e" y="119.907874"/>
     <use style="fill:#1f77b4;stroke:#1f77b4;" x="358.704506" xlink:href="#m50508bbd1e" y="101.218576"/>
     <use style="fill:#1f77b4;stroke:#1f77b4;" x="364.251255" xlink:href="#m50508bbd1e" y="110.135226"/>
     <use style="fill:#1f77b4;stroke:#1f77b4;" x="366.436532" xlink:href="#m50508bbd1e" y="100.148578"/>
     <use style="fill:#1f77b4;stroke:#1f77b4;" x="369.506633" xlink:href="#m50508bbd1e" y="94.869922"/>
     <use style="fill:#1f77b4;stroke:#1f77b4;" x="370.614269" xlink:href="#m50508bbd1e" y="103.715238"/>
     <use style="fill:#1f77b4;stroke:#1f77b4;" x="371.66406" xlink:href="#m50508bbd1e" y="108.066563"/>
     <use style="fill:#1f77b4;stroke:#1f77b4;" x="373.797919" xlink:href="#m50508bbd1e" y="104.143237"/>
     <use style="fill:#1f77b4;stroke:#1f77b4;" x="378.072065" xlink:href="#m50508bbd1e" y="90.447263"/>
     <use style="fill:#1f77b4;stroke:#1f77b4;" x="396.344844" xlink:href="#m50508bbd1e" y="98.008582"/>
     <use style="fill:#1f77b4;stroke:#1f77b4;" x="396.359841" xlink:href="#m50508bbd1e" y="84.169942"/>
     <use style="fill:#1f77b4;stroke:#1f77b4;" x="398.487273" xlink:href="#m50508bbd1e" y="97.29525"/>
    </g>
   </g>
   <g id="line2d_20">
    <defs>
     <path d="M 0 3 
C 0.795609 3 1.55874 2.683901 2.12132 2.12132 
C 2.683901 1.55874 3 0.795609 3 0 
C 3 -0.795609 2.683901 -1.55874 2.12132 -2.12132 
C 1.55874 -2.683901 0.795609 -3 0 -3 
C -0.795609 -3 -1.55874 -2.683901 -2.12132 -2.12132 
C -2.683901 -1.55874 -3 -0.795609 -3 0 
C -3 0.795609 -2.683901 1.55874 -2.12132 2.12132 
C -1.55874 2.683901 -0.795609 3 0 3 
z
" id="m1a901a548c" style="stroke:#ff7f0e;"/>
    </defs>
    <g clip-path="url(#p29d67100c2)">
     <use style="fill:#ff7f0e;stroke:#ff7f0e;" x="94.095822" xlink:href="#m1a901a548c" y="249.077283"/>
     <use style="fill:#ff7f0e;stroke:#ff7f0e;" x="96.154697" xlink:href="#m1a901a548c" y="225.938799"/>
     <use style="fill:#ff7f0e;stroke:#ff7f0e;" x="98.230711" xlink:href="#m1a901a548c" y="252.688492"/>
     <use style="fill:#ff7f0e;stroke:#ff7f0e;" x="102.519854" xlink:href="#m1a901a548c" y="253.892228"/>
     <use style="fill:#ff7f0e;stroke:#ff7f0e;" x="104.690134" xlink:href="#m1a901a548c" y="263.25462"/>
     <use style="fill:#ff7f0e;stroke:#ff7f0e;" x="109.127105" xlink:href="#m1a901a548c" y="256.968443"/>
     <use style="fill:#ff7f0e;stroke:#ff7f0e;" x="113.519085" xlink:href="#m1a901a548c" y="216.710155"/>
     <use style="fill:#ff7f0e;stroke:#ff7f0e;" x="117.364745" xlink:href="#m1a901a548c" y="229.416259"/>
     <use style="fill:#ff7f0e;stroke:#ff7f0e;" x="121.797431" xlink:href="#m1a901a548c" y="231.021241"/>
     <use style="fill:#ff7f0e;stroke:#ff7f0e;" x="123.828454" xlink:href="#m1a901a548c" y="233.294965"/>
     <use style="fill:#ff7f0e;stroke:#ff7f0e;" x="128.342552" xlink:href="#m1a901a548c" y="243.861093"/>
     <use style="fill:#ff7f0e;stroke:#ff7f0e;" x="130.221463" xlink:href="#m1a901a548c" y="224.200069"/>
     <use style="fill:#ff7f0e;stroke:#ff7f0e;" x="132.522432" xlink:href="#m1a901a548c" y="248.943535"/>
     <use style="fill:#ff7f0e;stroke:#ff7f0e;" x="149.67472" xlink:href="#m1a901a548c" y="275.960724"/>
     <use style="fill:#ff7f0e;stroke:#ff7f0e;" x="151.913558" xlink:href="#m1a901a548c" y="265.528344"/>
     <use style="fill:#ff7f0e;stroke:#ff7f0e;" x="153.951008" xlink:href="#m1a901a548c" y="295.488"/>
     <use style="fill:#ff7f0e;stroke:#ff7f0e;" x="156.052731" xlink:href="#m1a901a548c" y="283.985632"/>
     <use style="fill:#ff7f0e;stroke:#ff7f0e;" x="158.379409" xlink:href="#m1a901a548c" y="280.641921"/>
     <use style="fill:#ff7f0e;stroke:#ff7f0e;" x="162.649271" xlink:href="#m1a901a548c" y="286.660601"/>
     <use style="fill:#ff7f0e;stroke:#ff7f0e;" x="164.667439" xlink:href="#m1a901a548c" y="295.086755"/>
     <use style="fill:#ff7f0e;stroke:#ff7f0e;" x="170.981178" xlink:href="#m1a901a548c" y="263.120872"/>
     <use style="fill:#ff7f0e;stroke:#ff7f0e;" x="173.070046" xlink:href="#m1a901a548c" y="281.444411"/>
     <use style="fill:#ff7f0e;stroke:#ff7f0e;" x="175.501703" xlink:href="#m1a901a548c" y="287.329344"/>
     <use style="fill:#ff7f0e;stroke:#ff7f0e;" x="177.331338" xlink:href="#m1a901a548c" y="283.851884"/>
     <use style="fill:#ff7f0e;stroke:#ff7f0e;" x="179.621594" xlink:href="#m1a901a548c" y="283.049393"/>
     <use style="fill:#ff7f0e;stroke:#ff7f0e;" x="181.723317" xlink:href="#m1a901a548c" y="282.246902"/>
     <use style="fill:#ff7f0e;stroke:#ff7f0e;" x="183.816471" xlink:href="#m1a901a548c" y="260.847148"/>
     <use style="fill:#ff7f0e;stroke:#ff7f0e;" x="185.943903" xlink:href="#m1a901a548c" y="279.304436"/>
     <use style="fill:#ff7f0e;stroke:#ff7f0e;" x="192.366905" xlink:href="#m1a901a548c" y="257.369688"/>
     <use style="fill:#ff7f0e;stroke:#ff7f0e;" x="196.677473" xlink:href="#m1a901a548c" y="259.77716"/>
     <use style="fill:#ff7f0e;stroke:#ff7f0e;" x="215.886493" xlink:href="#m1a901a548c" y="255.095964"/>
     <use style="fill:#ff7f0e;stroke:#ff7f0e;" x="218.054631" xlink:href="#m1a901a548c" y="251.217259"/>
     <use style="fill:#ff7f0e;stroke:#ff7f0e;" x="220.162781" xlink:href="#m1a901a548c" y="249.077283"/>
     <use style="fill:#ff7f0e;stroke:#ff7f0e;" x="222.339489" xlink:href="#m1a901a548c" y="240.65113"/>
     <use style="fill:#ff7f0e;stroke:#ff7f0e;" x="224.460494" xlink:href="#m1a901a548c" y="257.770933"/>
     <use style="fill:#ff7f0e;stroke:#ff7f0e;" x="226.660769" xlink:href="#m1a901a548c" y="257.904682"/>
     <use style="fill:#ff7f0e;stroke:#ff7f0e;" x="228.764634" xlink:href="#m1a901a548c" y="248.943535"/>
     <use style="fill:#ff7f0e;stroke:#ff7f0e;" x="230.969194" xlink:href="#m1a901a548c" y="252.153498"/>
     <use style="fill:#ff7f0e;stroke:#ff7f0e;" x="233.053778" xlink:href="#m1a901a548c" y="245.064829"/>
     <use style="fill:#ff7f0e;stroke:#ff7f0e;" x="235.185495" xlink:href="#m1a901a548c" y="238.377406"/>
     <use style="fill:#ff7f0e;stroke:#ff7f0e;" x="237.362203" xlink:href="#m1a901a548c" y="240.784878"/>
     <use style="fill:#ff7f0e;stroke:#ff7f0e;" x="239.47678" xlink:href="#m1a901a548c" y="239.179897"/>
     <use style="fill:#ff7f0e;stroke:#ff7f0e;" x="240.84365" xlink:href="#m1a901a548c" y="203.067812"/>
     <use style="fill:#ff7f0e;stroke:#ff7f0e;" x="243.693081" xlink:href="#m1a901a548c" y="203.736554"/>
     <use style="fill:#ff7f0e;stroke:#ff7f0e;" x="250.086089" xlink:href="#m1a901a548c" y="227.410032"/>
     <use style="fill:#ff7f0e;stroke:#ff7f0e;" x="252.224234" xlink:href="#m1a901a548c" y="201.596579"/>
     <use style="fill:#ff7f0e;stroke:#ff7f0e;" x="253.612528" xlink:href="#m1a901a548c" y="179.260585"/>
     <use style="fill:#ff7f0e;stroke:#ff7f0e;" x="254.379518" xlink:href="#m1a901a548c" y="188.489229"/>
     <use style="fill:#ff7f0e;stroke:#ff7f0e;" x="256.519804" xlink:href="#m1a901a548c" y="170.968181"/>
     <use style="fill:#ff7f0e;stroke:#ff7f0e;" x="257.940235" xlink:href="#m1a901a548c" y="192.100438"/>
     <use style="fill:#ff7f0e;stroke:#ff7f0e;" x="258.647236" xlink:href="#m1a901a548c" y="167.490721"/>
     <use style="fill:#ff7f0e;stroke:#ff7f0e;" x="260.142652" xlink:href="#m1a901a548c" y="202.934063"/>
     <use style="fill:#ff7f0e;stroke:#ff7f0e;" x="260.783238" xlink:href="#m1a901a548c" y="193.972916"/>
     <use style="fill:#ff7f0e;stroke:#ff7f0e;" x="262.934237" xlink:href="#m1a901a548c" y="146.492212"/>
     <use style="fill:#ff7f0e;stroke:#ff7f0e;" x="265.102375" xlink:href="#m1a901a548c" y="153.714629"/>
     <use style="fill:#ff7f0e;stroke:#ff7f0e;" x="267.259802" xlink:href="#m1a901a548c" y="125.894948"/>
     <use style="fill:#ff7f0e;stroke:#ff7f0e;" x="275.763103" xlink:href="#m1a901a548c" y="118.003789"/>
     <use style="fill:#ff7f0e;stroke:#ff7f0e;" x="277.914102" xlink:href="#m1a901a548c" y="89.649115"/>
     <use style="fill:#ff7f0e;stroke:#ff7f0e;" x="280.131516" xlink:href="#m1a901a548c" y="84.700422"/>
     <use style="fill:#ff7f0e;stroke:#ff7f0e;" x="282.211815" xlink:href="#m1a901a548c" y="87.910385"/>
     <use style="fill:#ff7f0e;stroke:#ff7f0e;" x="284.384238" xlink:href="#m1a901a548c" y="72.930557"/>
     <use style="fill:#ff7f0e;stroke:#ff7f0e;" x="286.496673" xlink:href="#m1a901a548c" y="66.109385"/>
     <use style="fill:#ff7f0e;stroke:#ff7f0e;" x="288.62839" xlink:href="#m1a901a548c" y="85.636661"/>
     <use style="fill:#ff7f0e;stroke:#ff7f0e;" x="290.796528" xlink:href="#m1a901a548c" y="76.943011"/>
     <use style="fill:#ff7f0e;stroke:#ff7f0e;" x="293.065361" xlink:href="#m1a901a548c" y="75.605526"/>
     <use style="fill:#ff7f0e;stroke:#ff7f0e;" x="299.499076" xlink:href="#m1a901a548c" y="106.768918"/>
     <use style="fill:#ff7f0e;stroke:#ff7f0e;" x="300.700978" xlink:href="#m1a901a548c" y="103.558955"/>
     <use style="fill:#ff7f0e;stroke:#ff7f0e;" x="301.594371" xlink:href="#m1a901a548c" y="108.106403"/>
     <use style="fill:#ff7f0e;stroke:#ff7f0e;" x="303.751798" xlink:href="#m1a901a548c" y="131.111139"/>
     <use style="fill:#ff7f0e;stroke:#ff7f0e;" x="304.859433" xlink:href="#m1a901a548c" y="82.961692"/>
     <use style="fill:#ff7f0e;stroke:#ff7f0e;" x="305.883515" xlink:href="#m1a901a548c" y="106.501421"/>
     <use style="fill:#ff7f0e;stroke:#ff7f0e;" x="308.028086" xlink:href="#m1a901a548c" y="120.277513"/>
     <use style="fill:#ff7f0e;stroke:#ff7f0e;" x="310.172658" xlink:href="#m1a901a548c" y="132.448623"/>
     <use style="fill:#ff7f0e;stroke:#ff7f0e;" x="312.295805" xlink:href="#m1a901a548c" y="108.775145"/>
     <use style="fill:#ff7f0e;stroke:#ff7f0e;" x="314.446804" xlink:href="#m1a901a548c" y="140.339782"/>
     <use style="fill:#ff7f0e;stroke:#ff7f0e;" x="316.514248" xlink:href="#m1a901a548c" y="122.952482"/>
     <use style="fill:#ff7f0e;stroke:#ff7f0e;" x="318.673817" xlink:href="#m1a901a548c" y="134.856096"/>
     <use style="fill:#ff7f0e;stroke:#ff7f0e;" x="320.820531" xlink:href="#m1a901a548c" y="119.475022"/>
     <use style="fill:#ff7f0e;stroke:#ff7f0e;" x="326.973587" xlink:href="#m1a901a548c" y="131.378635"/>
     <use style="fill:#ff7f0e;stroke:#ff7f0e;" x="329.255274" xlink:href="#m1a901a548c" y="124.824961"/>
     <use style="fill:#ff7f0e;stroke:#ff7f0e;" x="340.057402" xlink:href="#m1a901a548c" y="117.602544"/>
     <use style="fill:#ff7f0e;stroke:#ff7f0e;" x="342.214828" xlink:href="#m1a901a548c" y="100.48274"/>
     <use style="fill:#ff7f0e;stroke:#ff7f0e;" x="344.348688" xlink:href="#m1a901a548c" y="90.05036"/>
     <use style="fill:#ff7f0e;stroke:#ff7f0e;" x="348.622834" xlink:href="#m1a901a548c" y="92.056587"/>
     <use style="fill:#ff7f0e;stroke:#ff7f0e;" x="366.910609" xlink:href="#m1a901a548c" y="81.222962"/>
    </g>
   </g>
   <g id="line2d_21">
    <path clip-path="url(#p29d67100c2)" d="M 103.281959 266.648085 
L 103.577164 267.052276 
L 103.872369 267.19331 
L 104.167575 267.119747 
L 104.757985 266.517539 
L 105.348396 265.551868 
L 106.234012 263.665183 
L 110.071681 254.639671 
L 110.662091 253.825806 
L 111.252502 253.381115 
L 111.547707 253.324443 
L 111.842913 253.393076 
L 112.138118 253.598441 
L 112.728529 254.466512 
L 113.318939 256.026458 
L 114.204555 259.162531 
L 114.499761 259.768296 
L 114.794966 260.109951 
L 115.090171 260.237148 
L 115.385377 260.198437 
L 115.975787 259.813095 
L 116.861403 259.161657 
L 117.156608 259.108542 
L 118.042224 259.530536 
L 118.33743 259.301667 
L 118.632635 258.581501 
L 119.223046 255.893326 
L 120.108662 249.941166 
L 121.289483 241.671187 
L 121.879893 238.77064 
L 122.175099 237.874976 
L 122.470304 237.376858 
L 122.765509 237.282953 
L 123.060715 237.601302 
L 123.35592 238.341346 
L 123.946331 241.100336 
L 124.831947 247.348992 
L 125.717563 253.214348 
L 126.307973 255.517778 
L 126.603178 256.109891 
L 126.898384 256.324703 
L 127.193589 256.156896 
L 127.488794 255.599416 
L 128.079205 253.350217 
L 129.555232 246.395938 
L 129.850437 245.556391 
L 130.145642 245.093505 
L 130.440848 245.078435 
L 130.736053 245.466268 
L 131.326463 247.030018 
L 132.212079 249.790161 
L 133.097695 251.667727 
L 133.688106 252.481291 
L 134.278517 252.991169 
L 134.868927 253.240858 
L 135.459338 253.295142 
L 136.344954 253.142619 
L 138.706596 252.565581 
L 139.297007 252.636906 
L 139.887418 252.951908 
L 140.477828 253.62127 
L 141.068239 254.757196 
L 141.658649 256.475102 
L 142.24906 258.895336 
L 142.839471 262.144935 
L 144.020292 269.914035 
L 144.610703 271.914994 
L 144.905908 272.345963 
L 145.201113 272.519065 
L 145.791524 272.449188 
L 146.381934 272.412758 
L 146.67714 272.62659 
L 146.972345 273.106857 
L 148.448372 276.475628 
L 148.743577 276.518563 
L 149.038782 276.309328 
L 149.629193 275.432289 
L 150.514809 274.091863 
L 150.810014 273.950283 
L 151.10522 274.093535 
L 151.400425 274.597661 
L 151.990835 276.556822 
L 152.876451 279.85012 
L 153.762067 281.885452 
L 154.057273 282.296394 
L 154.352478 282.490076 
L 154.647683 282.514081 
L 155.238094 282.214429 
L 155.828505 281.526912 
L 156.71412 279.92988 
L 159.666174 274.178184 
L 160.256584 273.601586 
L 160.55179 273.557619 
L 160.846995 273.7156 
L 161.1422 274.105365 
L 161.437406 274.757321 
L 162.027816 276.972769 
L 164.094253 287.691885 
L 164.684664 289.08644 
L 164.979869 289.336793 
L 165.275075 289.308938 
L 165.57028 289.036517 
L 166.160691 287.886018 
L 166.751101 286.1301 
L 168.227128 280.568924 
L 169.112744 277.484607 
L 169.703154 275.959094 
L 170.293565 275.096491 
L 170.58877 274.978959 
L 170.883976 275.106267 
L 171.179181 275.499718 
L 171.769592 276.845495 
L 173.836029 282.182616 
L 174.426439 283.072772 
L 174.721645 283.314779 
L 175.01685 283.394542 
L 175.312055 283.290698 
L 175.607261 282.981168 
L 176.197671 281.748357 
L 176.788082 279.82942 
L 177.673698 276.009213 
L 178.559314 272.227544 
L 179.149724 270.817521 
L 179.44493 270.648367 
L 179.740135 270.715142 
L 180.330546 271.194009 
L 181.806572 272.804875 
L 182.101778 272.863387 
L 182.396983 272.7655 
L 182.987393 272.131465 
L 183.577804 270.958666 
L 184.758625 267.859941 
L 185.644241 264.892354 
L 186.234652 262.198241 
L 188.005884 252.768295 
L 188.596294 250.940622 
L 189.186705 249.932983 
L 189.48191 249.689552 
L 189.777116 249.595487 
L 190.072321 249.633062 
L 190.662732 250.033533 
L 191.253142 250.753428 
L 193.614785 254.093309 
L 194.500401 254.907707 
L 195.090811 255.240918 
L 195.681222 255.243432 
L 195.976427 255.071974 
L 196.271633 254.758037 
L 196.862043 253.618255 
L 197.452454 251.809814 
L 198.92848 245.995693 
L 199.814096 242.89162 
L 200.404507 241.50613 
L 200.994918 240.880448 
L 201.585328 240.795667 
L 202.766149 240.945947 
L 203.35656 240.735355 
L 204.832587 239.99745 
L 205.718203 239.924719 
L 206.308613 239.86964 
L 206.899024 239.562526 
L 207.489435 238.881704 
L 208.37505 237.356641 
L 210.736693 232.76165 
L 211.327104 231.978827 
L 211.917514 231.524848 
L 212.21272 231.459577 
L 212.507925 231.52359 
L 212.80313 231.733391 
L 213.098335 232.10588 
L 213.688746 233.390045 
L 214.279157 235.318614 
L 215.164773 239.083765 
L 216.345594 244.386765 
L 216.936005 246.118709 
L 217.526415 247.031234 
L 217.821621 247.149397 
L 218.116826 247.023624 
L 218.412031 246.650514 
L 219.002442 245.249602 
L 219.592852 243.12776 
L 220.478468 238.978297 
L 221.364084 235.009719 
L 221.65929 234.179805 
L 221.954495 233.763621 
L 222.2497 233.750108 
L 222.544906 234.012076 
L 223.135316 235.008901 
L 224.020932 236.627649 
L 224.316137 236.917302 
L 224.611343 236.967046 
L 225.792164 236.383977 
L 226.087369 236.699715 
L 226.67778 238.431487 
L 229.039422 246.913122 
L 229.629833 248.218953 
L 230.220244 249.016599 
L 230.515449 249.215906 
L 230.810654 249.275947 
L 231.10586 249.191548 
L 231.69627 248.631934 
L 232.286681 247.690367 
L 234.057913 244.082977 
L 235.238734 241.972411 
L 236.714761 239.708465 
L 237.305171 238.323679 
L 237.895582 236.336455 
L 238.485992 233.651215 
L 239.371608 228.166893 
L 241.733251 210.617252 
L 242.323662 207.90515 
L 242.914072 205.984086 
L 243.504483 204.823247 
L 243.799688 204.52113 
L 244.094893 204.399251 
L 244.390099 204.449474 
L 244.685304 204.663932 
L 245.275715 205.556903 
L 245.866125 207.00634 
L 247.046947 210.855676 
L 248.227768 214.589072 
L 248.818178 215.770314 
L 249.113384 216.052045 
L 249.408589 216.072958 
L 249.703794 215.79046 
L 249.999 215.156126 
L 250.58941 212.695767 
L 251.179821 208.903603 
L 252.360642 199.001074 
L 253.541464 189.10171 
L 254.131874 185.443906 
L 255.01749 181.52899 
L 256.788722 174.756862 
L 257.674338 170.355442 
L 259.44557 160.273245 
L 259.740775 159.946512 
L 260.331186 160.191932 
L 260.626391 160.143448 
L 260.921596 159.763462 
L 261.512007 157.947993 
L 263.578444 149.655705 
L 264.759265 145.857269 
L 265.644881 141.95045 
L 269.48255 122.091671 
L 270.072961 120.018215 
L 270.368166 119.578392 
L 270.663372 119.633611 
L 270.958577 120.112034 
L 271.548988 122.00137 
L 273.32022 129.257799 
L 273.615425 129.811635 
L 273.91063 129.868112 
L 274.205835 129.277465 
L 274.501041 127.903196 
L 275.091451 122.946177 
L 275.681862 115.69877 
L 277.157889 92.938402 
L 278.043505 80.689636 
L 278.633915 75.20907 
L 278.929121 73.700433 
L 279.224326 72.881644 
L 279.519531 72.513185 
L 280.405147 71.958582 
L 280.700352 71.401286 
L 281.290763 69.228824 
L 282.176379 64.31917 
L 282.76679 61.234659 
L 283.061995 60.386602 
L 283.3572 60.280257 
L 283.652406 60.815382 
L 284.242816 63.101895 
L 284.833227 65.392676 
L 285.128432 65.956734 
L 285.423637 66.058093 
L 285.718843 65.855439 
L 286.604459 64.952669 
L 286.899664 64.952317 
L 287.194869 65.284824 
L 287.490075 66.052842 
L 288.080485 68.829913 
L 289.556512 77.435672 
L 290.146922 79.031459 
L 290.442128 79.315681 
L 290.737333 79.332052 
L 291.327744 78.858387 
L 292.21336 77.846028 
L 292.508565 77.680711 
L 292.80377 77.687096 
L 293.098976 77.884169 
L 293.394181 78.287256 
L 293.984592 79.739922 
L 294.575002 82.106179 
L 296.051029 89.340663 
L 296.641439 91.994989 
L 297.527055 97.640869 
L 298.412671 103.57457 
L 299.003082 106.304955 
L 299.298287 106.987772 
L 299.593493 107.072821 
L 299.888698 106.449688 
L 300.183903 105.058252 
L 300.774314 100.764989 
L 301.65993 94.13415 
L 301.955135 92.885336 
L 302.25034 92.634577 
L 302.545546 93.715713 
L 302.840751 96.10687 
L 303.726367 107.272407 
L 304.316778 114.319014 
L 304.907188 119.03362 
L 305.792804 124.029442 
L 306.383215 126.48869 
L 306.973625 127.756361 
L 307.564036 128.640375 
L 309.335268 131.965205 
L 309.630473 132.070355 
L 309.925679 131.913862 
L 310.220884 131.366265 
L 310.516089 130.288629 
L 311.1065 126.202636 
L 312.287321 115.424538 
L 312.582526 113.636511 
L 312.877732 112.697411 
L 313.172937 112.812751 
L 313.468142 113.862867 
L 314.944169 122.357863 
L 315.829785 127.877014 
L 316.715401 135.600377 
L 318.486633 153.432691 
L 319.077043 157.252956 
L 319.372249 158.12453 
L 319.667454 158.252605 
L 319.962659 157.900633 
L 320.55307 156.830755 
L 320.848275 156.602195 
L 321.14348 156.819746 
L 321.438686 157.480223 
L 322.029096 159.997587 
L 322.619507 163.90308 
L 323.209918 168.214279 
L 323.505123 169.674226 
L 323.800328 170.208383 
L 324.095534 169.817425 
L 324.390739 168.654365 
L 324.98115 164.613212 
L 326.752381 149.743956 
L 327.342792 147.347141 
L 327.637997 146.823929 
L 327.933203 146.684998 
L 328.228408 146.880855 
L 328.523613 147.363447 
L 329.114024 149.0093 
L 329.704435 151.761819 
L 330.294845 155.974124 
L 331.180461 163.258841 
L 331.475666 164.920505 
L 331.770872 165.680944 
L 332.066077 165.225172 
L 332.361282 163.768926 
L 332.951693 159.37126 
L 333.837309 152.218439 
L 334.42772 149.274896 
L 334.722925 148.77336 
L 335.01813 148.888742 
L 335.313336 149.564049 
L 335.903746 152.329607 
L 336.789362 158.691395 
L 337.970183 167.291704 
L 338.265389 168.072443 
L 338.560594 167.432338 
L 338.855799 165.234246 
L 339.44621 157.657096 
L 340.922236 135.772422 
L 341.807852 126.116686 
L 342.398263 121.954974 
L 342.988674 119.693731 
L 343.579084 118.679959 
L 344.169495 118.239433 
L 344.4647 118.172145 
L 345.350316 118.26817 
L 345.645522 118.053843 
L 345.940727 117.539667 
L 346.531137 115.445012 
L 349.187985 103.36512 
L 349.778396 101.93144 
L 350.073601 101.538606 
L 350.368807 101.38419 
L 350.664012 101.46812 
L 350.959217 101.763311 
L 351.549628 102.875056 
L 352.435244 105.449124 
L 354.501681 112.277804 
L 355.092092 113.609992 
L 355.682502 114.332253 
L 355.977707 114.402891 
L 356.272913 114.23546 
L 356.568118 113.794729 
L 357.158529 112.207086 
L 358.634555 107.324826 
L 359.224966 106.37789 
L 359.520171 106.206112 
L 359.815377 106.197173 
L 360.405787 106.558294 
L 361.291403 107.656231 
L 362.177019 108.824809 
L 362.76743 109.322368 
L 363.062635 109.415325 
L 363.35784 109.372519 
L 363.653046 109.169765 
L 363.948251 108.782551 
L 364.538662 107.365858 
L 365.424278 103.962847 
L 366.605099 98.997218 
L 367.195509 97.275642 
L 367.490715 96.770177 
L 367.78592 96.489261 
L 368.081125 96.420529 
L 368.376331 96.552771 
L 368.671536 96.875894 
L 369.261947 98.059731 
L 369.852357 99.894478 
L 371.033179 103.952425 
L 371.623589 105.289451 
L 371.918794 105.670945 
L 372.214 105.858055 
L 372.509205 105.867287 
L 372.80441 105.71478 
L 373.394821 104.98756 
L 373.985232 103.800102 
L 374.870848 101.411393 
L 377.527695 93.45378 
L 378.118106 92.312835 
L 378.708517 91.648162 
L 379.298927 91.395821 
L 379.889338 91.470064 
L 380.479749 91.795888 
L 381.365365 92.615595 
L 382.841391 94.429486 
L 384.612623 96.597212 
L 385.793444 97.704317 
L 386.67906 98.263066 
L 387.564676 98.555627 
L 388.450292 98.571005 
L 389.335908 98.315269 
L 390.221524 97.811754 
L 391.402345 96.82949 
L 394.649604 93.776301 
L 395.240014 93.506038 
L 395.830425 93.454491 
L 396.420836 93.691677 
L 397.011246 94.29914 
L 397.601657 95.288289 
L 398.192067 96.651711 
L 398.487273 97.474536 
L 398.487273 97.474536 
" style="fill:none;stroke:#2ca02c;stroke-linecap:square;stroke-width:1.5;"/>
   </g>
   <g id="line2d_22">
    <path clip-path="url(#p29d67100c2)" d="M 73.832727 198.452617 
L 75.603959 200.963912 
L 77.375191 203.920694 
L 79.146423 207.363171 
L 80.917655 211.315257 
L 82.984092 216.559742 
L 85.345735 223.25654 
L 89.773814 236.046289 
L 90.954635 238.749587 
L 91.840251 240.282817 
L 92.430662 240.982236 
L 93.021073 241.357876 
L 93.611483 241.344338 
L 94.201894 240.867546 
L 95.382715 239.255577 
L 95.677921 239.080225 
L 95.973126 239.129461 
L 96.268331 239.469781 
L 96.858742 241.026424 
L 97.744358 244.774375 
L 99.810795 254.181079 
L 101.582027 261.176031 
L 103.058053 266.147188 
L 103.353259 266.772467 
L 103.648464 267.108583 
L 103.943669 267.193384 
L 104.238875 267.07514 
L 104.829285 266.416763 
L 105.714901 264.823292 
L 106.895722 262.044572 
L 109.257365 256.209455 
L 110.142981 254.524647 
L 110.733392 253.75079 
L 111.323802 253.356554 
L 111.619007 253.329113 
L 111.914213 253.429714 
L 112.209418 253.669847 
L 112.799829 254.616161 
L 113.390239 256.266581 
L 114.275855 259.335743 
L 114.571061 259.873104 
L 114.866266 260.158458 
L 115.161471 260.241175 
L 115.751882 259.99107 
L 116.932703 259.136783 
L 117.227908 259.117728 
L 118.113524 259.514663 
L 118.40873 259.172763 
L 118.703935 258.338004 
L 119.294346 255.479785 
L 120.179962 249.415102 
L 121.360783 241.254119 
L 121.951193 238.518207 
L 122.246399 237.718023 
L 122.541604 237.316872 
L 122.836809 237.321748 
L 123.132015 237.741028 
L 123.42722 238.5845 
L 124.017631 241.537698 
L 126.084068 254.819333 
L 126.379273 255.695127 
L 126.674478 256.196506 
L 126.969684 256.319457 
L 127.264889 256.058247 
L 127.560094 255.405395 
L 128.150505 253.003616 
L 129.331326 247.232894 
L 129.921737 245.406917 
L 130.216942 245.047598 
L 130.512148 245.139182 
L 130.807353 245.608555 
L 131.397764 247.259353 
L 132.283379 249.974838 
L 133.168995 251.783269 
L 133.759406 252.55833 
L 134.349817 253.033897 
L 134.940227 253.25651 
L 135.825843 253.257745 
L 137.006664 252.940729 
L 138.482691 252.57936 
L 139.073102 252.587152 
L 139.663512 252.796742 
L 140.253923 253.31863 
L 140.844334 254.264243 
L 141.434744 255.74758 
L 142.025155 257.886914 
L 142.615565 260.806534 
L 144.386797 271.360446 
L 144.682003 272.047562 
L 144.977208 272.407975 
L 145.272413 272.532274 
L 146.453235 272.444221 
L 146.74844 272.715683 
L 147.33885 274.02051 
L 148.224466 276.229368 
L 148.519672 276.513154 
L 148.814877 276.488272 
L 149.110082 276.22938 
L 149.995698 274.790255 
L 150.586109 274.035858 
L 150.881314 273.955764 
L 151.17652 274.179815 
L 151.471725 274.77518 
L 152.062136 276.84909 
L 152.652546 279.171081 
L 153.538162 281.447424 
L 154.128573 282.361602 
L 154.423778 282.509387 
L 154.718983 282.500389 
L 155.309394 282.150921 
L 155.899805 281.420086 
L 156.785421 279.78812 
L 159.737474 274.079622 
L 160.327884 273.574053 
L 160.62309 273.576156 
L 160.918295 273.787366 
L 161.2135 274.237648 
L 161.508706 274.957563 
L 162.099116 277.329716 
L 163.870348 286.881958 
L 164.460759 288.693438 
L 164.755964 289.174249 
L 165.051169 289.35425 
L 165.346375 289.264297 
L 165.64158 288.937697 
L 166.231991 287.70143 
L 167.117607 284.836871 
L 169.184044 277.272018 
L 169.774454 275.815633 
L 170.364865 275.04713 
L 170.66007 274.98625 
L 170.955276 275.176789 
L 171.545686 276.280003 
L 174.202534 282.793547 
L 174.792945 283.349697 
L 175.08815 283.38711 
L 175.383355 283.2356 
L 175.678561 282.874119 
L 176.268971 281.549906 
L 176.859382 279.558636 
L 178.040203 274.317556 
L 178.630614 271.99057 
L 178.925819 271.190935 
L 179.221024 270.746313 
L 179.51623 270.648929 
L 180.10664 270.971066 
L 180.992256 271.994418 
L 181.582667 272.652615 
L 181.877872 272.833794 
L 182.173078 272.853753 
L 182.468283 272.719319 
L 183.058693 272.017339 
L 183.649104 270.786995 
L 184.829925 267.649426 
L 185.715541 264.610111 
L 186.305952 261.819593 
L 188.077184 252.498859 
L 188.667594 250.778447 
L 189.258005 249.859543 
L 189.55321 249.653828 
L 189.848416 249.59317 
L 190.438826 249.836666 
L 191.029237 250.451492 
L 192.210058 252.248443 
L 193.095674 253.502664 
L 194.276495 254.725798 
L 194.866906 255.145291 
L 195.457317 255.291173 
L 195.752522 255.213948 
L 196.047727 255.010001 
L 196.638138 254.137634 
L 197.228549 252.559918 
L 198.114165 249.290878 
L 199.590191 243.584858 
L 200.180602 241.945987 
L 200.771012 241.036246 
L 201.361423 240.78501 
L 203.132655 240.83566 
L 205.199092 239.933244 
L 206.379913 239.850179 
L 206.970324 239.499322 
L 207.560735 238.777852 
L 208.44635 237.216825 
L 210.807993 232.653162 
L 211.398404 231.904205 
L 211.988814 231.498115 
L 212.28402 231.462576 
L 212.579225 231.560275 
L 212.87443 231.807806 
L 213.464841 232.818893 
L 214.055251 234.521239 
L 214.940867 238.055628 
L 216.416894 244.636468 
L 217.007305 246.274253 
L 217.597715 247.08134 
L 217.892921 247.141917 
L 218.188126 246.955519 
L 218.483331 246.525592 
L 219.073742 245.028141 
L 219.664152 242.830992 
L 221.73059 234.03807 
L 222.025795 233.728127 
L 222.321 233.792768 
L 222.616206 234.105238 
L 223.501822 235.743939 
L 224.092232 236.716115 
L 224.387437 236.953358 
L 224.682643 236.943196 
L 225.568259 236.36298 
L 225.863464 236.426165 
L 226.158669 236.838351 
L 226.74908 238.691677 
L 228.815517 246.289215 
L 229.405928 247.782298 
L 229.996338 248.775577 
L 230.586749 249.243364 
L 230.881954 249.268951 
L 231.17716 249.149821 
L 231.76757 248.535229 
L 232.653186 246.984886 
L 235.014829 242.324915 
L 237.081266 238.909472 
L 237.671677 237.169134 
L 238.262087 234.755587 
L 238.852498 231.604898 
L 239.738114 225.34225 
L 241.21414 213.688198 
L 242.099756 208.838551 
L 242.690167 206.621708 
L 243.280578 205.17551 
L 243.870988 204.475485 
L 244.166194 204.395926 
L 244.461399 204.486514 
L 244.756604 204.739524 
L 245.347015 205.704684 
L 245.937425 207.211473 
L 247.118247 211.101653 
L 248.299068 214.767585 
L 248.889479 215.860009 
L 249.184684 216.082578 
L 249.479889 216.034165 
L 249.775094 215.67159 
L 250.0703 214.943798 
L 250.66071 212.300014 
L 251.251121 208.375817 
L 252.431942 198.361467 
L 253.612764 188.598941 
L 254.203174 185.074509 
L 255.08879 181.259017 
L 256.860022 174.442381 
L 257.745638 169.942652 
L 259.221665 160.976239 
L 259.51687 160.132638 
L 259.812075 159.948524 
L 260.402486 160.201318 
L 260.697691 160.088352 
L 260.992896 159.611324 
L 261.583307 157.660763 
L 263.354539 150.364061 
L 264.830565 145.590531 
L 265.716181 141.585146 
L 269.553851 121.780638 
L 270.144261 119.867189 
L 270.439466 119.548353 
L 270.734672 119.713638 
L 271.029877 120.281517 
L 271.620288 122.289479 
L 273.096314 128.596843 
L 273.39152 129.429149 
L 273.686725 129.876476 
L 273.98193 129.79045 
L 274.277136 129.020807 
L 274.572341 127.45219 
L 275.162751 122.177197 
L 276.048367 110.386995 
L 278.114805 79.878318 
L 278.705215 74.768541 
L 279.000421 73.448609 
L 279.295626 72.760429 
L 279.590831 72.465141 
L 280.181242 72.190559 
L 280.476447 71.853448 
L 280.771652 71.213112 
L 281.362063 68.886273 
L 282.83809 60.969099 
L 283.133295 60.293229 
L 283.4285 60.357025 
L 283.723706 61.022331 
L 284.904527 65.57718 
L 285.199732 66.017834 
L 285.494937 66.030806 
L 286.085348 65.425273 
L 286.675759 64.928113 
L 286.970964 64.997873 
L 287.266169 65.42767 
L 287.561375 66.307038 
L 288.151785 69.253619 
L 289.332607 76.43968 
L 289.923017 78.597475 
L 290.218222 79.128732 
L 290.513428 79.341216 
L 290.808633 79.304582 
L 291.399044 78.774631 
L 292.28466 77.791997 
L 292.579865 77.665741 
L 292.87507 77.716543 
L 293.170276 77.962314 
L 293.465481 78.416345 
L 294.055892 79.975787 
L 294.646302 82.456488 
L 296.122329 89.635858 
L 296.712739 92.372525 
L 297.598355 98.14533 
L 298.483971 103.980269 
L 299.074382 106.518823 
L 299.369587 107.067184 
L 299.664793 106.991464 
L 299.959998 106.180545 
L 300.550408 102.547345 
L 301.73123 93.75969 
L 302.026435 92.720197 
L 302.32164 92.762662 
L 302.616846 94.186941 
L 303.207256 100.322448 
L 304.388078 115.013969 
L 304.978488 119.494717 
L 305.864104 124.370624 
L 306.454515 126.707722 
L 307.044925 127.856181 
L 307.635336 128.774329 
L 309.111363 131.750412 
L 309.406568 132.010205 
L 309.701773 132.060878 
L 309.996979 131.822735 
L 310.292184 131.159704 
L 310.587389 129.933634 
L 311.1778 125.569096 
L 312.358621 114.926869 
L 312.653826 113.323468 
L 312.949032 112.623003 
L 313.244237 112.995132 
L 313.834648 115.881097 
L 316.19629 130.761904 
L 317.081906 139.405562 
L 318.262727 151.514661 
L 318.853138 156.068094 
L 319.148343 157.541182 
L 319.443549 158.214043 
L 319.738754 158.201269 
L 320.919575 156.612303 
L 321.21478 156.939999 
L 321.509986 157.702363 
L 322.100396 160.400382 
L 322.986012 166.693194 
L 323.576423 169.895818 
L 323.871628 170.192882 
L 324.166834 169.601472 
L 324.462039 168.274651 
L 325.05245 164.013726 
L 326.528476 151.137874 
L 327.118887 148.031538 
L 327.414092 147.182857 
L 327.709297 146.757077 
L 328.004503 146.703482 
L 328.299708 146.972944 
L 328.890119 148.291322 
L 329.480529 150.548584 
L 330.07094 154.204075 
L 331.546966 165.199231 
L 331.842172 165.692407 
L 332.137377 164.938285 
L 332.727788 161.195967 
L 333.908609 151.744694 
L 334.203814 150.101958 
L 334.49902 149.094103 
L 334.794225 148.746921 
L 335.08943 149.002669 
L 335.384636 149.804895 
L 335.975046 152.765807 
L 336.860662 159.258288 
L 337.746278 166.044015 
L 338.041483 167.585007 
L 338.336689 168.065412 
L 338.631894 167.032428 
L 338.927099 164.509129 
L 339.51751 156.571822 
L 340.993537 134.868467 
L 341.879152 125.506051 
L 342.469563 121.592032 
L 343.059974 119.519051 
L 343.650384 118.608493 
L 344.240795 118.209867 
L 344.831206 118.240261 
L 345.126411 118.29592 
L 345.421616 118.238155 
L 345.716822 117.961163 
L 346.012027 117.358713 
L 346.602437 115.12063 
L 348.96408 104.114245 
L 349.554491 102.377922 
L 350.144901 101.478836 
L 350.440107 101.383547 
L 350.735312 101.521159 
L 351.030517 101.863083 
L 351.620928 103.048446 
L 352.506544 105.686412 
L 354.572981 112.464932 
L 355.163392 113.733276 
L 355.753802 114.369138 
L 356.049008 114.385664 
L 356.344213 114.155154 
L 356.639418 113.64719 
L 357.229829 111.97154 
L 358.705855 107.162132 
L 359.296266 106.319971 
L 359.591471 106.190098 
L 359.886677 106.21632 
L 360.477087 106.628341 
L 361.362703 107.756453 
L 362.248319 108.902311 
L 362.83873 109.355966 
L 363.133935 109.418334 
L 363.42914 109.339122 
L 363.724346 109.094076 
L 364.019551 108.658588 
L 364.609962 107.137671 
L 365.495578 103.653598 
L 366.676399 98.742698 
L 367.266809 97.132283 
L 367.562015 96.682249 
L 367.85722 96.453669 
L 368.152425 96.434461 
L 368.447631 96.61369 
L 368.742836 96.981522 
L 369.038041 97.529191 
L 369.038041 97.529191 
" style="fill:none;stroke:#d62728;stroke-dasharray:5.55,2.4;stroke-dashoffset:0;stroke-width:1.5;"/>
   </g>
   <g id="patch_3">
    <path d="M 57.6 307.584 
L 57.6 41.472 
" style="fill:none;stroke:#000000;stroke-linecap:square;stroke-linejoin:miter;stroke-width:0.8;"/>
   </g>
   <g id="patch_4">
    <path d="M 414.72 307.584 
L 414.72 41.472 
" style="fill:none;stroke:#000000;stroke-linecap:square;stroke-linejoin:miter;stroke-width:0.8;"/>
   </g>
   <g id="patch_5">
    <path d="M 57.6 307.584 
L 414.72 307.584 
" style="fill:none;stroke:#000000;stroke-linecap:square;stroke-linejoin:miter;stroke-width:0.8;"/>
   </g>
   <g id="patch_6">
    <path d="M 57.6 41.472 
L 414.72 41.472 
" style="fill:none;stroke:#000000;stroke-linecap:square;stroke-linejoin:miter;stroke-width:0.8;"/>
   </g>
   <g id="text_19">
    <!-- 13.400000 -->
    <g transform="translate(203.713125 35.472)scale(0.12 -0.12)">
     <defs>
      <path d="M 2597 2516 
Q 3050 2419 3304 2112 
Q 3559 1806 3559 1356 
Q 3559 666 3084 287 
Q 2609 -91 1734 -91 
Q 1441 -91 1130 -33 
Q 819 25 488 141 
L 488 750 
Q 750 597 1062 519 
Q 1375 441 1716 441 
Q 2309 441 2620 675 
Q 2931 909 2931 1356 
Q 2931 1769 2642 2001 
Q 2353 2234 1838 2234 
L 1294 2234 
L 1294 2753 
L 1863 2753 
Q 2328 2753 2575 2939 
Q 2822 3125 2822 3475 
Q 2822 3834 2567 4026 
Q 2313 4219 1838 4219 
Q 1578 4219 1281 4162 
Q 984 4106 628 3988 
L 628 4550 
Q 988 4650 1302 4700 
Q 1616 4750 1894 4750 
Q 2613 4750 3031 4423 
Q 3450 4097 3450 3541 
Q 3450 3153 3228 2886 
Q 3006 2619 2597 2516 
z
" id="DejaVuSans-33" transform="scale(0.015625)"/>
     </defs>
     <use xlink:href="#DejaVuSans-31"/>
     <use x="63.623047" xlink:href="#DejaVuSans-33"/>
     <use x="127.246094" xlink:href="#DejaVuSans-2e"/>
     <use x="159.033203" xlink:href="#DejaVuSans-34"/>
     <use x="222.65625" xlink:href="#DejaVuSans-30"/>
     <use x="286.279297" xlink:href="#DejaVuSans-30"/>
     <use x="349.902344" xlink:href="#DejaVuSans-30"/>
     <use x="413.525391" xlink:href="#DejaVuSans-30"/>
     <use x="477.148438" xlink:href="#DejaVuSans-30"/>
    </g>
   </g>
  </g>
 </g>
 <defs>
  <clipPath id="p29d67100c2">
   <rect height="266.112" width="357.12" x="57.6" y="41.472"/>
  </clipPath>
 </defs>
</svg>
