<?xml version="1.0" encoding="utf-8" standalone="no"?>
<!DOCTYPE svg PUBLIC "-//W3C//DTD SVG 1.1//EN"
  "http://www.w3.org/Graphics/SVG/1.1/DTD/svg11.dtd">
<svg height="345.6pt" version="1.1" viewBox="0 0 460.8 345.6" width="460.8pt" xmlns="http://www.w3.org/2000/svg" xmlns:xlink="http://www.w3.org/1999/xlink">
 <metadata>
  <rdf:RDF xmlns:cc="http://creativecommons.org/ns#" xmlns:dc="http://purl.org/dc/elements/1.1/" xmlns:rdf="http://www.w3.org/1999/02/22-rdf-syntax-ns#">
   <cc:Work>
    <dc:type rdf:resource="http://purl.org/dc/dcmitype/StillImage"/>
    <dc:date>2022-06-10T20:09:05.681364</dc:date>
    <dc:format>image/svg+xml</dc:format>
    <dc:creator>
     <cc:Agent>
      <dc:title>Matplotlib v3.4.3, https://matplotlib.org/</dc:title>
     </cc:Agent>
    </dc:creator>
   </cc:Work>
  </rdf:RDF>
 </metadata>
 <defs>
  <style type="text/css">*{stroke-linecap:butt;stroke-linejoin:round;}</style>
 </defs>
 <g id="figure_1">
  <g id="patch_1">
   <path d="M 0 345.6 
L 460.8 345.6 
L 460.8 0 
L 0 0 
z
" style="fill:#ffffff;"/>
  </g>
  <g id="axes_1">
   <g id="patch_2">
    <path d="M 57.6 307.584 
L 414.72 307.584 
L 414.72 41.472 
L 57.6 41.472 
z
" style="fill:#ffffff;"/>
   </g>
   <g id="matplotlib.axis_1">
    <g id="xtick_1">
     <g id="line2d_1">
      <defs>
       <path d="M 0 0 
L 0 3.5 
" id="mf890f4abc4" style="stroke:#000000;stroke-width:0.8;"/>
      </defs>
      <g>
       <use style="stroke:#000000;stroke-width:0.8;" x="128.558236" xlink:href="#mf890f4abc4" y="307.584"/>
      </g>
     </g>
     <g id="text_1">
      <!-- −50 -->
      <g transform="translate(118.005892 322.182437)scale(0.1 -0.1)">
       <defs>
        <path d="M 678 2272 
L 4684 2272 
L 4684 1741 
L 678 1741 
L 678 2272 
z
" id="DejaVuSans-2212" transform="scale(0.015625)"/>
        <path d="M 691 4666 
L 3169 4666 
L 3169 4134 
L 1269 4134 
L 1269 2991 
Q 1406 3038 1543 3061 
Q 1681 3084 1819 3084 
Q 2600 3084 3056 2656 
Q 3513 2228 3513 1497 
Q 3513 744 3044 326 
Q 2575 -91 1722 -91 
Q 1428 -91 1123 -41 
Q 819 9 494 109 
L 494 744 
Q 775 591 1075 516 
Q 1375 441 1709 441 
Q 2250 441 2565 725 
Q 2881 1009 2881 1497 
Q 2881 1984 2565 2268 
Q 2250 2553 1709 2553 
Q 1456 2553 1204 2497 
Q 953 2441 691 2322 
L 691 4666 
z
" id="DejaVuSans-35" transform="scale(0.015625)"/>
        <path d="M 2034 4250 
Q 1547 4250 1301 3770 
Q 1056 3291 1056 2328 
Q 1056 1369 1301 889 
Q 1547 409 2034 409 
Q 2525 409 2770 889 
Q 3016 1369 3016 2328 
Q 3016 3291 2770 3770 
Q 2525 4250 2034 4250 
z
M 2034 4750 
Q 2819 4750 3233 4129 
Q 3647 3509 3647 2328 
Q 3647 1150 3233 529 
Q 2819 -91 2034 -91 
Q 1250 -91 836 529 
Q 422 1150 422 2328 
Q 422 3509 836 4129 
Q 1250 4750 2034 4750 
z
" id="DejaVuSans-30" transform="scale(0.015625)"/>
       </defs>
       <use xlink:href="#DejaVuSans-2212"/>
       <use x="83.789062" xlink:href="#DejaVuSans-35"/>
       <use x="147.412109" xlink:href="#DejaVuSans-30"/>
      </g>
     </g>
    </g>
    <g id="xtick_2">
     <g id="line2d_2">
      <g>
       <use style="stroke:#000000;stroke-width:0.8;" x="201.779413" xlink:href="#mf890f4abc4" y="307.584"/>
      </g>
     </g>
     <g id="text_2">
      <!-- 0 -->
      <g transform="translate(198.598163 322.182437)scale(0.1 -0.1)">
       <use xlink:href="#DejaVuSans-30"/>
      </g>
     </g>
    </g>
    <g id="xtick_3">
     <g id="line2d_3">
      <g>
       <use style="stroke:#000000;stroke-width:0.8;" x="275.000591" xlink:href="#mf890f4abc4" y="307.584"/>
      </g>
     </g>
     <g id="text_3">
      <!-- 50 -->
      <g transform="translate(268.638091 322.182437)scale(0.1 -0.1)">
       <use xlink:href="#DejaVuSans-35"/>
       <use x="63.623047" xlink:href="#DejaVuSans-30"/>
      </g>
     </g>
    </g>
    <g id="xtick_4">
     <g id="line2d_4">
      <g>
       <use style="stroke:#000000;stroke-width:0.8;" x="348.221769" xlink:href="#mf890f4abc4" y="307.584"/>
      </g>
     </g>
     <g id="text_4">
      <!-- 100 -->
      <g transform="translate(338.678019 322.182437)scale(0.1 -0.1)">
       <defs>
        <path d="M 794 531 
L 1825 531 
L 1825 4091 
L 703 3866 
L 703 4441 
L 1819 4666 
L 2450 4666 
L 2450 531 
L 3481 531 
L 3481 0 
L 794 0 
L 794 531 
z
" id="DejaVuSans-31" transform="scale(0.015625)"/>
       </defs>
       <use xlink:href="#DejaVuSans-31"/>
       <use x="63.623047" xlink:href="#DejaVuSans-30"/>
       <use x="127.246094" xlink:href="#DejaVuSans-30"/>
      </g>
     </g>
    </g>
   </g>
   <g id="matplotlib.axis_2">
    <g id="ytick_1">
     <g id="line2d_5">
      <defs>
       <path d="M 0 0 
L -3.5 0 
" id="m78db8634e1" style="stroke:#000000;stroke-width:0.8;"/>
      </defs>
      <g>
       <use style="stroke:#000000;stroke-width:0.8;" x="57.6" xlink:href="#m78db8634e1" y="304.343699"/>
      </g>
     </g>
     <g id="text_5">
      <!-- −2.0 -->
      <g transform="translate(26.317187 308.142917)scale(0.1 -0.1)">
       <defs>
        <path d="M 1228 531 
L 3431 531 
L 3431 0 
L 469 0 
L 469 531 
Q 828 903 1448 1529 
Q 2069 2156 2228 2338 
Q 2531 2678 2651 2914 
Q 2772 3150 2772 3378 
Q 2772 3750 2511 3984 
Q 2250 4219 1831 4219 
Q 1534 4219 1204 4116 
Q 875 4013 500 3803 
L 500 4441 
Q 881 4594 1212 4672 
Q 1544 4750 1819 4750 
Q 2544 4750 2975 4387 
Q 3406 4025 3406 3419 
Q 3406 3131 3298 2873 
Q 3191 2616 2906 2266 
Q 2828 2175 2409 1742 
Q 1991 1309 1228 531 
z
" id="DejaVuSans-32" transform="scale(0.015625)"/>
        <path d="M 684 794 
L 1344 794 
L 1344 0 
L 684 0 
L 684 794 
z
" id="DejaVuSans-2e" transform="scale(0.015625)"/>
       </defs>
       <use xlink:href="#DejaVuSans-2212"/>
       <use x="83.789062" xlink:href="#DejaVuSans-32"/>
       <use x="147.412109" xlink:href="#DejaVuSans-2e"/>
       <use x="179.199219" xlink:href="#DejaVuSans-30"/>
      </g>
     </g>
    </g>
    <g id="ytick_2">
     <g id="line2d_6">
      <g>
       <use style="stroke:#000000;stroke-width:0.8;" x="57.6" xlink:href="#m78db8634e1" y="274.098627"/>
      </g>
     </g>
     <g id="text_6">
      <!-- −1.5 -->
      <g transform="translate(26.317187 277.897846)scale(0.1 -0.1)">
       <use xlink:href="#DejaVuSans-2212"/>
       <use x="83.789062" xlink:href="#DejaVuSans-31"/>
       <use x="147.412109" xlink:href="#DejaVuSans-2e"/>
       <use x="179.199219" xlink:href="#DejaVuSans-35"/>
      </g>
     </g>
    </g>
    <g id="ytick_3">
     <g id="line2d_7">
      <g>
       <use style="stroke:#000000;stroke-width:0.8;" x="57.6" xlink:href="#m78db8634e1" y="243.853556"/>
      </g>
     </g>
     <g id="text_7">
      <!-- −1.0 -->
      <g transform="translate(26.317187 247.652775)scale(0.1 -0.1)">
       <use xlink:href="#DejaVuSans-2212"/>
       <use x="83.789062" xlink:href="#DejaVuSans-31"/>
       <use x="147.412109" xlink:href="#DejaVuSans-2e"/>
       <use x="179.199219" xlink:href="#DejaVuSans-30"/>
      </g>
     </g>
    </g>
    <g id="ytick_4">
     <g id="line2d_8">
      <g>
       <use style="stroke:#000000;stroke-width:0.8;" x="57.6" xlink:href="#m78db8634e1" y="213.608485"/>
      </g>
     </g>
     <g id="text_8">
      <!-- −0.5 -->
      <g transform="translate(26.317187 217.407704)scale(0.1 -0.1)">
       <use xlink:href="#DejaVuSans-2212"/>
       <use x="83.789062" xlink:href="#DejaVuSans-30"/>
       <use x="147.412109" xlink:href="#DejaVuSans-2e"/>
       <use x="179.199219" xlink:href="#DejaVuSans-35"/>
      </g>
     </g>
    </g>
    <g id="ytick_5">
     <g id="line2d_9">
      <g>
       <use style="stroke:#000000;stroke-width:0.8;" x="57.6" xlink:href="#m78db8634e1" y="183.363414"/>
      </g>
     </g>
     <g id="text_9">
      <!-- 0.0 -->
      <g transform="translate(34.696875 187.162632)scale(0.1 -0.1)">
       <use xlink:href="#DejaVuSans-30"/>
       <use x="63.623047" xlink:href="#DejaVuSans-2e"/>
       <use x="95.410156" xlink:href="#DejaVuSans-30"/>
      </g>
     </g>
    </g>
    <g id="ytick_6">
     <g id="line2d_10">
      <g>
       <use style="stroke:#000000;stroke-width:0.8;" x="57.6" xlink:href="#m78db8634e1" y="153.118342"/>
      </g>
     </g>
     <g id="text_10">
      <!-- 0.5 -->
      <g transform="translate(34.696875 156.917561)scale(0.1 -0.1)">
       <use xlink:href="#DejaVuSans-30"/>
       <use x="63.623047" xlink:href="#DejaVuSans-2e"/>
       <use x="95.410156" xlink:href="#DejaVuSans-35"/>
      </g>
     </g>
    </g>
    <g id="ytick_7">
     <g id="line2d_11">
      <g>
       <use style="stroke:#000000;stroke-width:0.8;" x="57.6" xlink:href="#m78db8634e1" y="122.873271"/>
      </g>
     </g>
     <g id="text_11">
      <!-- 1.0 -->
      <g transform="translate(34.696875 126.67249)scale(0.1 -0.1)">
       <use xlink:href="#DejaVuSans-31"/>
       <use x="63.623047" xlink:href="#DejaVuSans-2e"/>
       <use x="95.410156" xlink:href="#DejaVuSans-30"/>
      </g>
     </g>
    </g>
    <g id="ytick_8">
     <g id="line2d_12">
      <g>
       <use style="stroke:#000000;stroke-width:0.8;" x="57.6" xlink:href="#m78db8634e1" y="92.6282"/>
      </g>
     </g>
     <g id="text_12">
      <!-- 1.5 -->
      <g transform="translate(34.696875 96.427419)scale(0.1 -0.1)">
       <use xlink:href="#DejaVuSans-31"/>
       <use x="63.623047" xlink:href="#DejaVuSans-2e"/>
       <use x="95.410156" xlink:href="#DejaVuSans-35"/>
      </g>
     </g>
    </g>
    <g id="ytick_9">
     <g id="line2d_13">
      <g>
       <use style="stroke:#000000;stroke-width:0.8;" x="57.6" xlink:href="#m78db8634e1" y="62.383128"/>
      </g>
     </g>
     <g id="text_13">
      <!-- 2.0 -->
      <g transform="translate(34.696875 66.182347)scale(0.1 -0.1)">
       <use xlink:href="#DejaVuSans-32"/>
       <use x="63.623047" xlink:href="#DejaVuSans-2e"/>
       <use x="95.410156" xlink:href="#DejaVuSans-30"/>
      </g>
     </g>
    </g>
   </g>
   <g id="line2d_14">
    <defs>
     <path d="M 0 3 
C 0.795609 3 1.55874 2.683901 2.12132 2.12132 
C 2.683901 1.55874 3 0.795609 3 0 
C 3 -0.795609 2.683901 -1.55874 2.12132 -2.12132 
C 1.55874 -2.683901 0.795609 -3 0 -3 
C -0.795609 -3 -1.55874 -2.683901 -2.12132 -2.12132 
C -2.683901 -1.55874 -3 -0.795609 -3 0 
C -3 0.795609 -2.683901 1.55874 -2.12132 2.12132 
C -1.55874 2.683901 -0.795609 3 0 3 
z
" id="m2766925464" style="stroke:#1f77b4;"/>
    </defs>
    <g clip-path="url(#p2f10abcfaf)">
     <use style="fill:#1f77b4;stroke:#1f77b4;" x="201.779413" xlink:href="#m2766925464" y="189.074381"/>
     <use style="fill:#1f77b4;stroke:#1f77b4;" x="208.917372" xlink:href="#m2766925464" y="190.414702"/>
     <use style="fill:#1f77b4;stroke:#1f77b4;" x="211.786831" xlink:href="#m2766925464" y="187.734061"/>
     <use style="fill:#1f77b4;stroke:#1f77b4;" x="215.281576" xlink:href="#m2766925464" y="168.165385"/>
     <use style="fill:#1f77b4;stroke:#1f77b4;" x="216.653491" xlink:href="#m2766925464" y="180.764395"/>
     <use style="fill:#1f77b4;stroke:#1f77b4;" x="218.036828" xlink:href="#m2766925464" y="183.176972"/>
     <use style="fill:#1f77b4;stroke:#1f77b4;" x="220.894866" xlink:href="#m2766925464" y="178.619883"/>
     <use style="fill:#1f77b4;stroke:#1f77b4;" x="222.341017" xlink:href="#m2766925464" y="178.530528"/>
     <use style="fill:#1f77b4;stroke:#1f77b4;" x="225.297559" xlink:href="#m2766925464" y="178.396496"/>
     <use style="fill:#1f77b4;stroke:#1f77b4;" x="228.224122" xlink:href="#m2766925464" y="180.004881"/>
     <use style="fill:#1f77b4;stroke:#1f77b4;" x="228.932207" xlink:href="#m2766925464" y="190.414702"/>
     <use style="fill:#1f77b4;stroke:#1f77b4;" x="230.786649" xlink:href="#m2766925464" y="186.617127"/>
     <use style="fill:#1f77b4;stroke:#1f77b4;" x="231.787391" xlink:href="#m2766925464" y="199.796944"/>
     <use style="fill:#1f77b4;stroke:#1f77b4;" x="233.740336" xlink:href="#m2766925464" y="188.404221"/>
     <use style="fill:#1f77b4;stroke:#1f77b4;" x="234.614022" xlink:href="#m2766925464" y="196.66953"/>
     <use style="fill:#1f77b4;stroke:#1f77b4;" x="235.093693" xlink:href="#m2766925464" y="192.425182"/>
     <use style="fill:#1f77b4;stroke:#1f77b4;" x="236.027338" xlink:href="#m2766925464" y="196.66953"/>
     <use style="fill:#1f77b4;stroke:#1f77b4;" x="237.483482" xlink:href="#m2766925464" y="194.882436"/>
     <use style="fill:#1f77b4;stroke:#1f77b4;" x="238.101629" xlink:href="#m2766925464" y="194.033566"/>
     <use style="fill:#1f77b4;stroke:#1f77b4;" x="239.353627" xlink:href="#m2766925464" y="191.665667"/>
     <use style="fill:#1f77b4;stroke:#1f77b4;" x="240.88686" xlink:href="#m2766925464" y="189.789219"/>
     <use style="fill:#1f77b4;stroke:#1f77b4;" x="241.737705" xlink:href="#m2766925464" y="198.903397"/>
     <use style="fill:#1f77b4;stroke:#1f77b4;" x="247.333864" xlink:href="#m2766925464" y="195.775983"/>
     <use style="fill:#1f77b4;stroke:#1f77b4;" x="252.316159" xlink:href="#m2766925464" y="184.785356"/>
     <use style="fill:#1f77b4;stroke:#1f77b4;" x="253.807993" xlink:href="#m2766925464" y="189.565832"/>
     <use style="fill:#1f77b4;stroke:#1f77b4;" x="255.165632" xlink:href="#m2766925464" y="191.397603"/>
     <use style="fill:#1f77b4;stroke:#1f77b4;" x="256.5661" xlink:href="#m2766925464" y="184.964066"/>
     <use style="fill:#1f77b4;stroke:#1f77b4;" x="258.116464" xlink:href="#m2766925464" y="176.743435"/>
     <use style="fill:#1f77b4;stroke:#1f77b4;" x="260.961655" xlink:href="#m2766925464" y="177.368917"/>
     <use style="fill:#1f77b4;stroke:#1f77b4;" x="262.306446" xlink:href="#m2766925464" y="179.066656"/>
     <use style="fill:#1f77b4;stroke:#1f77b4;" x="266.513559" xlink:href="#m2766925464" y="169.639737"/>
     <use style="fill:#1f77b4;stroke:#1f77b4;" x="267.905461" xlink:href="#m2766925464" y="172.186346"/>
     <use style="fill:#1f77b4;stroke:#1f77b4;" x="269.525777" xlink:href="#m2766925464" y="169.41635"/>
     <use style="fill:#1f77b4;stroke:#1f77b4;" x="270.744941" xlink:href="#m2766925464" y="171.024735"/>
     <use style="fill:#1f77b4;stroke:#1f77b4;" x="272.271036" xlink:href="#m2766925464" y="167.763289"/>
     <use style="fill:#1f77b4;stroke:#1f77b4;" x="273.671504" xlink:href="#m2766925464" y="165.529422"/>
     <use style="fill:#1f77b4;stroke:#1f77b4;" x="275.066261" xlink:href="#m2766925464" y="164.725229"/>
     <use style="fill:#1f77b4;stroke:#1f77b4;" x="276.483859" xlink:href="#m2766925464" y="167.986675"/>
     <use style="fill:#1f77b4;stroke:#1f77b4;" x="280.763779" xlink:href="#m2766925464" y="160.927655"/>
     <use style="fill:#1f77b4;stroke:#1f77b4;" x="283.636094" xlink:href="#m2766925464" y="160.123463"/>
     <use style="fill:#1f77b4;stroke:#1f77b4;" x="296.435881" xlink:href="#m2766925464" y="148.328644"/>
     <use style="fill:#1f77b4;stroke:#1f77b4;" x="297.880603" xlink:href="#m2766925464" y="152.751701"/>
     <use style="fill:#1f77b4;stroke:#1f77b4;" x="299.285354" xlink:href="#m2766925464" y="154.940891"/>
     <use style="fill:#1f77b4;stroke:#1f77b4;" x="300.735787" xlink:href="#m2766925464" y="148.015903"/>
     <use style="fill:#1f77b4;stroke:#1f77b4;" x="302.149103" xlink:href="#m2766925464" y="134.746732"/>
     <use style="fill:#1f77b4;stroke:#1f77b4;" x="303.615239" xlink:href="#m2766925464" y="132.646897"/>
     <use style="fill:#1f77b4;stroke:#1f77b4;" x="305.017134" xlink:href="#m2766925464" y="125.185781"/>
     <use style="fill:#1f77b4;stroke:#1f77b4;" x="305.8794" xlink:href="#m2766925464" y="114.463218"/>
     <use style="fill:#1f77b4;stroke:#1f77b4;" x="306.486126" xlink:href="#m2766925464" y="116.920472"/>
     <use style="fill:#1f77b4;stroke:#1f77b4;" x="307.875173" xlink:href="#m2766925464" y="113.122898"/>
     <use style="fill:#1f77b4;stroke:#1f77b4;" x="309.295627" xlink:href="#m2766925464" y="111.782578"/>
     <use style="fill:#1f77b4;stroke:#1f77b4;" x="310.74606" xlink:href="#m2766925464" y="104.85759"/>
     <use style="fill:#1f77b4;stroke:#1f77b4;" x="312.155093" xlink:href="#m2766925464" y="102.6684"/>
     <use style="fill:#1f77b4;stroke:#1f77b4;" x="313.065896" xlink:href="#m2766925464" y="89.935357"/>
     <use style="fill:#1f77b4;stroke:#1f77b4;" x="314.964593" xlink:href="#m2766925464" y="98.46873"/>
     <use style="fill:#1f77b4;stroke:#1f77b4;" x="315.729782" xlink:href="#m2766925464" y="101.060016"/>
     <use style="fill:#1f77b4;stroke:#1f77b4;" x="318.627793" xlink:href="#m2766925464" y="66.658461"/>
     <use style="fill:#1f77b4;stroke:#1f77b4;" x="319.224527" xlink:href="#m2766925464" y="67.328622"/>
     <use style="fill:#1f77b4;stroke:#1f77b4;" x="320.026833" xlink:href="#m2766925464" y="64.871368"/>
     <use style="fill:#1f77b4;stroke:#1f77b4;" x="320.649263" xlink:href="#m2766925464" y="63.307661"/>
     <use style="fill:#1f77b4;stroke:#1f77b4;" x="321.568632" xlink:href="#m2766925464" y="56.829446"/>
     <use style="fill:#1f77b4;stroke:#1f77b4;" x="321.574343" xlink:href="#m2766925464" y="57.678316"/>
     <use style="fill:#1f77b4;stroke:#1f77b4;" x="322.085421" xlink:href="#m2766925464" y="53.568"/>
     <use style="fill:#1f77b4;stroke:#1f77b4;" x="322.839189" xlink:href="#m2766925464" y="67.552008"/>
     <use style="fill:#1f77b4;stroke:#1f77b4;" x="323.511585" xlink:href="#m2766925464" y="58.571862"/>
     <use style="fill:#1f77b4;stroke:#1f77b4;" x="324.352436" xlink:href="#m2766925464" y="58.169766"/>
     <use style="fill:#1f77b4;stroke:#1f77b4;" x="324.458078" xlink:href="#m2766925464" y="57.991057"/>
     <use style="fill:#1f77b4;stroke:#1f77b4;" x="324.929183" xlink:href="#m2766925464" y="58.571862"/>
     <use style="fill:#1f77b4;stroke:#1f77b4;" x="325.7372" xlink:href="#m2766925464" y="68.892329"/>
     <use style="fill:#1f77b4;stroke:#1f77b4;" x="325.925642" xlink:href="#m2766925464" y="71.662324"/>
     <use style="fill:#1f77b4;stroke:#1f77b4;" x="326.352492" xlink:href="#m2766925464" y="71.39426"/>
     <use style="fill:#1f77b4;stroke:#1f77b4;" x="327.785794" xlink:href="#m2766925464" y="66.792494"/>
     <use style="fill:#1f77b4;stroke:#1f77b4;" x="329.230517" xlink:href="#m2766925464" y="64.871368"/>
     <use style="fill:#1f77b4;stroke:#1f77b4;" x="329.86294" xlink:href="#m2766925464" y="75.147157"/>
     <use style="fill:#1f77b4;stroke:#1f77b4;" x="330.668102" xlink:href="#m2766925464" y="68.222169"/>
     <use style="fill:#1f77b4;stroke:#1f77b4;" x="332.803779" xlink:href="#m2766925464" y="87.656813"/>
     <use style="fill:#1f77b4;stroke:#1f77b4;" x="332.889434" xlink:href="#m2766925464" y="84.082625"/>
     <use style="fill:#1f77b4;stroke:#1f77b4;" x="334.459785" xlink:href="#m2766925464" y="76.487477"/>
     <use style="fill:#1f77b4;stroke:#1f77b4;" x="335.730342" xlink:href="#m2766925464" y="94.358414"/>
     <use style="fill:#1f77b4;stroke:#1f77b4;" x="335.787446" xlink:href="#m2766925464" y="92.57132"/>
     <use style="fill:#1f77b4;stroke:#1f77b4;" x="336.334213" xlink:href="#m2766925464" y="92.660675"/>
     <use style="fill:#1f77b4;stroke:#1f77b4;" x="337.17221" xlink:href="#m2766925464" y="99.719695"/>
     <use style="fill:#1f77b4;stroke:#1f77b4;" x="337.767515" xlink:href="#m2766925464" y="92.973417"/>
     <use style="fill:#1f77b4;stroke:#1f77b4;" x="338.528422" xlink:href="#m2766925464" y="101.953562"/>
     <use style="fill:#1f77b4;stroke:#1f77b4;" x="339.245073" xlink:href="#m2766925464" y="99.272922"/>
     <use style="fill:#1f77b4;stroke:#1f77b4;" x="339.970289" xlink:href="#m2766925464" y="101.506789"/>
     <use style="fill:#1f77b4;stroke:#1f77b4;" x="340.631264" xlink:href="#m2766925464" y="96.547604"/>
     <use style="fill:#1f77b4;stroke:#1f77b4;" x="341.526364" xlink:href="#m2766925464" y="89.89068"/>
     <use style="fill:#1f77b4;stroke:#1f77b4;" x="342.078842" xlink:href="#m2766925464" y="103.025819"/>
     <use style="fill:#1f77b4;stroke:#1f77b4;" x="343.486448" xlink:href="#m2766925464" y="96.9497"/>
     <use style="fill:#1f77b4;stroke:#1f77b4;" x="344.906901" xlink:href="#m2766925464" y="113.971768"/>
     <use style="fill:#1f77b4;stroke:#1f77b4;" x="345.66638" xlink:href="#m2766925464" y="119.377726"/>
     <use style="fill:#1f77b4;stroke:#1f77b4;" x="346.351624" xlink:href="#m2766925464" y="117.099182"/>
     <use style="fill:#1f77b4;stroke:#1f77b4;" x="347.863444" xlink:href="#m2766925464" y="111.335804"/>
     <use style="fill:#1f77b4;stroke:#1f77b4;" x="348.564391" xlink:href="#m2766925464" y="126.972875"/>
     <use style="fill:#1f77b4;stroke:#1f77b4;" x="349.977707" xlink:href="#m2766925464" y="119.377726"/>
     <use style="fill:#1f77b4;stroke:#1f77b4;" x="350.077638" xlink:href="#m2766925464" y="115.803539"/>
     <use style="fill:#1f77b4;stroke:#1f77b4;" x="352.150502" xlink:href="#m2766925464" y="119.64579"/>
     <use style="fill:#1f77b4;stroke:#1f77b4;" x="352.951381" xlink:href="#m2766925464" y="111.469837"/>
     <use style="fill:#1f77b4;stroke:#1f77b4;" x="352.97565" xlink:href="#m2766925464" y="117.143859"/>
     <use style="fill:#1f77b4;stroke:#1f77b4;" x="353.546686" xlink:href="#m2766925464" y="119.8245"/>
     <use style="fill:#1f77b4;stroke:#1f77b4;" x="354.146275" xlink:href="#m2766925464" y="125.185781"/>
     <use style="fill:#1f77b4;stroke:#1f77b4;" x="354.274758" xlink:href="#m2766925464" y="115.356765"/>
     <use style="fill:#1f77b4;stroke:#1f77b4;" x="354.984271" xlink:href="#m2766925464" y="117.411923"/>
     <use style="fill:#1f77b4;stroke:#1f77b4;" x="355.716626" xlink:href="#m2766925464" y="109.995484"/>
     <use style="fill:#1f77b4;stroke:#1f77b4;" x="355.722336" xlink:href="#m2766925464" y="116.96515"/>
     <use style="fill:#1f77b4;stroke:#1f77b4;" x="356.404725" xlink:href="#m2766925464" y="112.497415"/>
     <use style="fill:#1f77b4;stroke:#1f77b4;" x="357.833744" xlink:href="#m2766925464" y="110.754999"/>
     <use style="fill:#1f77b4;stroke:#1f77b4;" x="358.486154" xlink:href="#m2766925464" y="126.079328"/>
     <use style="fill:#1f77b4;stroke:#1f77b4;" x="359.262763" xlink:href="#m2766925464" y="112.631447"/>
     <use style="fill:#1f77b4;stroke:#1f77b4;" x="360.677507" xlink:href="#m2766925464" y="99.585663"/>
     <use style="fill:#1f77b4;stroke:#1f77b4;" x="362.110809" xlink:href="#m2766925464" y="99.585663"/>
     <use style="fill:#1f77b4;stroke:#1f77b4;" x="363.488435" xlink:href="#m2766925464" y="100.970661"/>
     <use style="fill:#1f77b4;stroke:#1f77b4;" x="364.325004" xlink:href="#m2766925464" y="89.89068"/>
     <use style="fill:#1f77b4;stroke:#1f77b4;" x="364.927447" xlink:href="#m2766925464" y="91.677774"/>
     <use style="fill:#1f77b4;stroke:#1f77b4;" x="366.357894" xlink:href="#m2766925464" y="81.714726"/>
     <use style="fill:#1f77b4;stroke:#1f77b4;" x="369.935439" xlink:href="#m2766925464" y="89.89068"/>
     <use style="fill:#1f77b4;stroke:#1f77b4;" x="370.457937" xlink:href="#m2766925464" y="95.117929"/>
     <use style="fill:#1f77b4;stroke:#1f77b4;" x="371.978323" xlink:href="#m2766925464" y="83.412465"/>
     <use style="fill:#1f77b4;stroke:#1f77b4;" x="375.674357" xlink:href="#m2766925464" y="88.997133"/>
     <use style="fill:#1f77b4;stroke:#1f77b4;" x="377.130501" xlink:href="#m2766925464" y="82.742305"/>
     <use style="fill:#1f77b4;stroke:#1f77b4;" x="379.17624" xlink:href="#m2766925464" y="79.436182"/>
     <use style="fill:#1f77b4;stroke:#1f77b4;" x="379.914305" xlink:href="#m2766925464" y="84.976172"/>
     <use style="fill:#1f77b4;stroke:#1f77b4;" x="380.613825" xlink:href="#m2766925464" y="87.70149"/>
     <use style="fill:#1f77b4;stroke:#1f77b4;" x="382.035706" xlink:href="#m2766925464" y="85.244236"/>
     <use style="fill:#1f77b4;stroke:#1f77b4;" x="384.883751" xlink:href="#m2766925464" y="76.666186"/>
     <use style="fill:#1f77b4;stroke:#1f77b4;" x="397.059681" xlink:href="#m2766925464" y="81.401985"/>
     <use style="fill:#1f77b4;stroke:#1f77b4;" x="397.069674" xlink:href="#m2766925464" y="72.73458"/>
     <use style="fill:#1f77b4;stroke:#1f77b4;" x="398.487273" xlink:href="#m2766925464" y="80.955211"/>
    </g>
   </g>
   <g id="line2d_15">
    <defs>
     <path d="M 0 3 
C 0.795609 3 1.55874 2.683901 2.12132 2.12132 
C 2.683901 1.55874 3 0.795609 3 0 
C 3 -0.795609 2.683901 -1.55874 2.12132 -2.12132 
C 1.55874 -2.683901 0.795609 -3 0 -3 
C -0.795609 -3 -1.55874 -2.683901 -2.12132 -2.12132 
C -2.683901 -1.55874 -3 -0.795609 -3 0 
C -3 0.795609 -2.683901 1.55874 -2.12132 2.12132 
C -1.55874 2.683901 -0.795609 3 0 3 
z
" id="mc94b311b64" style="stroke:#ff7f0e;"/>
    </defs>
    <g clip-path="url(#p2f10abcfaf)">
     <use style="fill:#ff7f0e;stroke:#ff7f0e;" x="87.334889" xlink:href="#mc94b311b64" y="268.520931"/>
     <use style="fill:#ff7f0e;stroke:#ff7f0e;" x="88.706805" xlink:href="#mc94b311b64" y="255.076254"/>
     <use style="fill:#ff7f0e;stroke:#ff7f0e;" x="90.090141" xlink:href="#mc94b311b64" y="270.619233"/>
     <use style="fill:#ff7f0e;stroke:#ff7f0e;" x="92.94818" xlink:href="#mc94b311b64" y="271.318667"/>
     <use style="fill:#ff7f0e;stroke:#ff7f0e;" x="94.39433" xlink:href="#mc94b311b64" y="276.75871"/>
     <use style="fill:#ff7f0e;stroke:#ff7f0e;" x="97.350873" xlink:href="#mc94b311b64" y="273.10611"/>
     <use style="fill:#ff7f0e;stroke:#ff7f0e;" x="100.277436" xlink:href="#mc94b311b64" y="249.713926"/>
     <use style="fill:#ff7f0e;stroke:#ff7f0e;" x="102.839963" xlink:href="#mc94b311b64" y="257.096841"/>
     <use style="fill:#ff7f0e;stroke:#ff7f0e;" x="105.79365" xlink:href="#mc94b311b64" y="258.02942"/>
     <use style="fill:#ff7f0e;stroke:#ff7f0e;" x="107.147007" xlink:href="#mc94b311b64" y="259.350573"/>
     <use style="fill:#ff7f0e;stroke:#ff7f0e;" x="110.154943" xlink:href="#mc94b311b64" y="265.49005"/>
     <use style="fill:#ff7f0e;stroke:#ff7f0e;" x="111.406941" xlink:href="#mc94b311b64" y="254.06596"/>
     <use style="fill:#ff7f0e;stroke:#ff7f0e;" x="112.940174" xlink:href="#mc94b311b64" y="268.443216"/>
     <use style="fill:#ff7f0e;stroke:#ff7f0e;" x="124.369473" xlink:href="#mc94b311b64" y="284.141625"/>
     <use style="fill:#ff7f0e;stroke:#ff7f0e;" x="125.861306" xlink:href="#mc94b311b64" y="278.079863"/>
     <use style="fill:#ff7f0e;stroke:#ff7f0e;" x="127.218946" xlink:href="#mc94b311b64" y="295.488"/>
     <use style="fill:#ff7f0e;stroke:#ff7f0e;" x="128.619414" xlink:href="#mc94b311b64" y="288.804519"/>
     <use style="fill:#ff7f0e;stroke:#ff7f0e;" x="130.169778" xlink:href="#mc94b311b64" y="286.861646"/>
     <use style="fill:#ff7f0e;stroke:#ff7f0e;" x="133.014968" xlink:href="#mc94b311b64" y="290.358817"/>
     <use style="fill:#ff7f0e;stroke:#ff7f0e;" x="134.35976" xlink:href="#mc94b311b64" y="295.254855"/>
     <use style="fill:#ff7f0e;stroke:#ff7f0e;" x="138.566873" xlink:href="#mc94b311b64" y="276.680995"/>
     <use style="fill:#ff7f0e;stroke:#ff7f0e;" x="139.958774" xlink:href="#mc94b311b64" y="287.327936"/>
     <use style="fill:#ff7f0e;stroke:#ff7f0e;" x="141.579091" xlink:href="#mc94b311b64" y="290.747391"/>
     <use style="fill:#ff7f0e;stroke:#ff7f0e;" x="142.798254" xlink:href="#mc94b311b64" y="288.726804"/>
     <use style="fill:#ff7f0e;stroke:#ff7f0e;" x="144.32435" xlink:href="#mc94b311b64" y="288.260515"/>
     <use style="fill:#ff7f0e;stroke:#ff7f0e;" x="145.724817" xlink:href="#mc94b311b64" y="287.794225"/>
     <use style="fill:#ff7f0e;stroke:#ff7f0e;" x="147.119574" xlink:href="#mc94b311b64" y="275.359842"/>
     <use style="fill:#ff7f0e;stroke:#ff7f0e;" x="148.537173" xlink:href="#mc94b311b64" y="286.084497"/>
     <use style="fill:#ff7f0e;stroke:#ff7f0e;" x="152.817093" xlink:href="#mc94b311b64" y="273.339254"/>
     <use style="fill:#ff7f0e;stroke:#ff7f0e;" x="155.689407" xlink:href="#mc94b311b64" y="274.738123"/>
     <use style="fill:#ff7f0e;stroke:#ff7f0e;" x="168.489194" xlink:href="#mc94b311b64" y="272.018101"/>
     <use style="fill:#ff7f0e;stroke:#ff7f0e;" x="169.933917" xlink:href="#mc94b311b64" y="269.764369"/>
     <use style="fill:#ff7f0e;stroke:#ff7f0e;" x="171.338667" xlink:href="#mc94b311b64" y="268.520931"/>
     <use style="fill:#ff7f0e;stroke:#ff7f0e;" x="172.789101" xlink:href="#mc94b311b64" y="263.624892"/>
     <use style="fill:#ff7f0e;stroke:#ff7f0e;" x="174.202416" xlink:href="#mc94b311b64" y="273.572399"/>
     <use style="fill:#ff7f0e;stroke:#ff7f0e;" x="175.668553" xlink:href="#mc94b311b64" y="273.650114"/>
     <use style="fill:#ff7f0e;stroke:#ff7f0e;" x="177.070448" xlink:href="#mc94b311b64" y="268.443216"/>
     <use style="fill:#ff7f0e;stroke:#ff7f0e;" x="178.53944" xlink:href="#mc94b311b64" y="270.308373"/>
     <use style="fill:#ff7f0e;stroke:#ff7f0e;" x="179.928487" xlink:href="#mc94b311b64" y="266.189484"/>
     <use style="fill:#ff7f0e;stroke:#ff7f0e;" x="181.34894" xlink:href="#mc94b311b64" y="262.303739"/>
     <use style="fill:#ff7f0e;stroke:#ff7f0e;" x="182.799374" xlink:href="#mc94b311b64" y="263.702607"/>
     <use style="fill:#ff7f0e;stroke:#ff7f0e;" x="184.208407" xlink:href="#mc94b311b64" y="262.770028"/>
     <use style="fill:#ff7f0e;stroke:#ff7f0e;" x="185.11921" xlink:href="#mc94b311b64" y="241.787006"/>
     <use style="fill:#ff7f0e;stroke:#ff7f0e;" x="187.017907" xlink:href="#mc94b311b64" y="242.175581"/>
     <use style="fill:#ff7f0e;stroke:#ff7f0e;" x="191.277841" xlink:href="#mc94b311b64" y="255.931118"/>
     <use style="fill:#ff7f0e;stroke:#ff7f0e;" x="192.702577" xlink:href="#mc94b311b64" y="240.932143"/>
     <use style="fill:#ff7f0e;stroke:#ff7f0e;" x="193.627657" xlink:href="#mc94b311b64" y="227.953755"/>
     <use style="fill:#ff7f0e;stroke:#ff7f0e;" x="194.138734" xlink:href="#mc94b311b64" y="233.316083"/>
     <use style="fill:#ff7f0e;stroke:#ff7f0e;" x="195.564898" xlink:href="#mc94b311b64" y="223.135431"/>
     <use style="fill:#ff7f0e;stroke:#ff7f0e;" x="196.511392" xlink:href="#mc94b311b64" y="235.414385"/>
     <use style="fill:#ff7f0e;stroke:#ff7f0e;" x="196.982497" xlink:href="#mc94b311b64" y="221.114844"/>
     <use style="fill:#ff7f0e;stroke:#ff7f0e;" x="197.978956" xlink:href="#mc94b311b64" y="241.709291"/>
     <use style="fill:#ff7f0e;stroke:#ff7f0e;" x="198.405806" xlink:href="#mc94b311b64" y="236.502393"/>
     <use style="fill:#ff7f0e;stroke:#ff7f0e;" x="199.839108" xlink:href="#mc94b311b64" y="208.913605"/>
     <use style="fill:#ff7f0e;stroke:#ff7f0e;" x="201.283831" xlink:href="#mc94b311b64" y="213.110209"/>
     <use style="fill:#ff7f0e;stroke:#ff7f0e;" x="202.721416" xlink:href="#mc94b311b64" y="196.945511"/>
     <use style="fill:#ff7f0e;stroke:#ff7f0e;" x="208.387527" xlink:href="#mc94b311b64" y="192.360332"/>
     <use style="fill:#ff7f0e;stroke:#ff7f0e;" x="209.820829" xlink:href="#mc94b311b64" y="175.884774"/>
     <use style="fill:#ff7f0e;stroke:#ff7f0e;" x="211.298386" xlink:href="#mc94b311b64" y="173.009323"/>
     <use style="fill:#ff7f0e;stroke:#ff7f0e;" x="212.684578" xlink:href="#mc94b311b64" y="174.87448"/>
     <use style="fill:#ff7f0e;stroke:#ff7f0e;" x="214.132156" xlink:href="#mc94b311b64" y="166.170412"/>
     <use style="fill:#ff7f0e;stroke:#ff7f0e;" x="215.539761" xlink:href="#mc94b311b64" y="162.206952"/>
     <use style="fill:#ff7f0e;stroke:#ff7f0e;" x="216.960215" xlink:href="#mc94b311b64" y="173.553327"/>
     <use style="fill:#ff7f0e;stroke:#ff7f0e;" x="218.404938" xlink:href="#mc94b311b64" y="168.501859"/>
     <use style="fill:#ff7f0e;stroke:#ff7f0e;" x="219.916758" xlink:href="#mc94b311b64" y="167.72471"/>
     <use style="fill:#ff7f0e;stroke:#ff7f0e;" x="224.203815" xlink:href="#mc94b311b64" y="185.832281"/>
     <use style="fill:#ff7f0e;stroke:#ff7f0e;" x="225.004694" xlink:href="#mc94b311b64" y="183.967123"/>
     <use style="fill:#ff7f0e;stroke:#ff7f0e;" x="225.6" xlink:href="#mc94b311b64" y="186.60943"/>
     <use style="fill:#ff7f0e;stroke:#ff7f0e;" x="227.037585" xlink:href="#mc94b311b64" y="199.976392"/>
     <use style="fill:#ff7f0e;stroke:#ff7f0e;" x="227.77565" xlink:href="#mc94b311b64" y="171.999029"/>
     <use style="fill:#ff7f0e;stroke:#ff7f0e;" x="228.458039" xlink:href="#mc94b311b64" y="185.676851"/>
     <use style="fill:#ff7f0e;stroke:#ff7f0e;" x="229.887058" xlink:href="#mc94b311b64" y="193.681485"/>
     <use style="fill:#ff7f0e;stroke:#ff7f0e;" x="231.316077" xlink:href="#mc94b311b64" y="200.753541"/>
     <use style="fill:#ff7f0e;stroke:#ff7f0e;" x="232.730821" xlink:href="#mc94b311b64" y="186.998004"/>
     <use style="fill:#ff7f0e;stroke:#ff7f0e;" x="234.164123" xlink:href="#mc94b311b64" y="205.33872"/>
     <use style="fill:#ff7f0e;stroke:#ff7f0e;" x="235.541749" xlink:href="#mc94b311b64" y="195.235783"/>
     <use style="fill:#ff7f0e;stroke:#ff7f0e;" x="236.980761" xlink:href="#mc94b311b64" y="202.152409"/>
     <use style="fill:#ff7f0e;stroke:#ff7f0e;" x="238.411208" xlink:href="#mc94b311b64" y="193.215196"/>
     <use style="fill:#ff7f0e;stroke:#ff7f0e;" x="242.511251" xlink:href="#mc94b311b64" y="200.131822"/>
     <use style="fill:#ff7f0e;stroke:#ff7f0e;" x="244.031636" xlink:href="#mc94b311b64" y="196.323792"/>
     <use style="fill:#ff7f0e;stroke:#ff7f0e;" x="251.229554" xlink:href="#mc94b311b64" y="192.127187"/>
     <use style="fill:#ff7f0e;stroke:#ff7f0e;" x="252.667139" xlink:href="#mc94b311b64" y="182.179681"/>
     <use style="fill:#ff7f0e;stroke:#ff7f0e;" x="254.08902" xlink:href="#mc94b311b64" y="176.117919"/>
     <use style="fill:#ff7f0e;stroke:#ff7f0e;" x="256.937065" xlink:href="#mc94b311b64" y="177.283642"/>
     <use style="fill:#ff7f0e;stroke:#ff7f0e;" x="269.122988" xlink:href="#mc94b311b64" y="170.988735"/>
    </g>
   </g>
   <g id="line2d_16">
    <path clip-path="url(#p2f10abcfaf)" d="M 201.779413 193.968064 
L 202.369537 190.548985 
L 202.959661 188.654321 
L 203.549784 187.635027 
L 203.9432 187.338207 
L 204.336616 187.288361 
L 204.730031 187.436136 
L 205.320155 187.922674 
L 207.287234 189.919082 
L 207.680649 190.033329 
L 208.074065 189.940274 
L 208.467481 189.59015 
L 208.860896 188.955234 
L 211.811514 182.626347 
L 212.401638 179.855139 
L 213.975301 171.598481 
L 214.368716 170.45897 
L 214.762132 169.993242 
L 214.95884 170.03266 
L 215.155548 170.264229 
L 215.548964 171.323662 
L 216.139087 174.010986 
L 216.925919 177.511867 
L 217.319334 178.599371 
L 217.71275 179.191046 
L 217.909458 179.288816 
L 218.106166 179.248175 
L 218.499582 178.854059 
L 219.679829 177.300211 
L 220.073244 177.119901 
L 220.46666 177.219488 
L 221.253492 177.800558 
L 222.237031 178.750683 
L 224.400817 181.08941 
L 225.187649 181.677962 
L 225.777772 182.494016 
L 226.958019 184.225515 
L 227.744851 184.970405 
L 228.138267 185.869778 
L 229.515222 190.483209 
L 230.105345 191.274929 
L 230.695469 191.90252 
L 231.679008 193.398967 
L 232.072424 193.486017 
L 233.252671 193.11049 
L 233.646087 193.454016 
L 235.023042 195.655246 
L 236.006581 196.388979 
L 236.399997 196.414718 
L 236.793412 196.186449 
L 237.186828 195.68018 
L 238.170367 193.781607 
L 238.957199 192.376595 
L 239.350615 191.927001 
L 239.74403 191.747588 
L 240.137446 191.892431 
L 240.530862 192.411476 
L 240.924277 193.356414 
L 242.301232 197.627962 
L 242.694648 198.245588 
L 243.088064 198.56895 
L 243.48148 198.669251 
L 244.071603 198.558118 
L 244.858435 198.183693 
L 245.645266 197.596809 
L 246.628805 196.551168 
L 247.612345 195.131743 
L 248.792592 192.978418 
L 252.136625 186.391695 
L 252.530041 186.188272 
L 252.923457 186.358392 
L 253.51358 187.06366 
L 254.49712 188.323112 
L 254.890535 188.537919 
L 255.087243 188.481125 
L 255.480659 187.925755 
L 255.874075 186.84833 
L 256.660906 183.70457 
L 257.644446 179.59718 
L 258.234569 177.86161 
L 258.627985 177.156182 
L 259.021401 176.765934 
L 259.414816 176.632023 
L 259.808232 176.696919 
L 260.398356 177.043651 
L 261.775311 178.023594 
L 262.168726 178.059481 
L 262.562142 177.862403 
L 263.152266 177.148968 
L 263.939097 175.669451 
L 265.906176 171.669136 
L 266.496299 171.037369 
L 266.889715 170.891344 
L 267.676546 170.952724 
L 268.26667 170.930014 
L 269.250209 170.584148 
L 270.823872 169.87332 
L 271.413996 169.17309 
L 273.77449 165.854519 
L 274.364614 165.586069 
L 274.758029 165.60285 
L 275.348153 165.915688 
L 276.331692 166.656124 
L 276.725108 166.73168 
L 277.118524 166.60619 
L 277.708647 166.110098 
L 278.495479 165.041043 
L 280.855973 161.395618 
L 281.642804 160.759267 
L 282.626344 160.299955 
L 283.806591 159.740812 
L 284.79013 158.948212 
L 285.970377 157.630402 
L 287.54404 155.443908 
L 291.674905 149.413488 
L 292.658444 148.418389 
L 293.445276 147.89984 
L 294.035399 147.71887 
L 294.625523 147.753263 
L 295.215647 148.040228 
L 295.80577 148.620916 
L 296.395894 149.540873 
L 298.362972 153.346086 
L 298.756388 153.510917 
L 298.953096 153.435372 
L 299.346512 152.903506 
L 299.739927 151.823866 
L 300.330051 149.318394 
L 301.116882 144.746216 
L 302.690545 135.204419 
L 304.264208 126.627551 
L 306.034579 116.2213 
L 306.624702 114.53204 
L 307.214826 113.502943 
L 308.788489 111.267861 
L 309.378612 109.859522 
L 310.165444 107.152373 
L 312.722646 97.382325 
L 312.919354 97.102533 
L 313.116062 97.038588 
L 313.31277 97.204874 
L 313.706185 98.063032 
L 314.886433 101.572075 
L 315.08314 101.817 
L 315.279848 101.826445 
L 315.476556 101.526182 
L 315.673264 100.841326 
L 316.06668 98.134262 
L 316.656803 91.458101 
L 318.427174 68.701688 
L 318.82059 66.344361 
L 319.214005 65.382104 
L 320.000837 64.363328 
L 320.394253 62.941551 
L 321.377792 58.383324 
L 321.5745 57.90976 
L 321.771208 57.743239 
L 321.967915 57.845811 
L 322.361331 58.608683 
L 322.951455 59.907616 
L 323.344871 60.220624 
L 323.934994 60.498563 
L 324.32841 61.035161 
L 324.721826 62.159713 
L 325.508657 65.706116 
L 326.098781 68.017747 
L 326.492196 68.847428 
L 326.885612 69.192598 
L 327.475736 69.267159 
L 327.869151 69.340105 
L 328.262567 69.643589 
L 328.655983 70.260203 
L 329.049398 71.262461 
L 329.639522 73.576528 
L 330.819769 79.392531 
L 331.803308 84.981732 
L 332.196724 86.301877 
L 332.393432 86.568221 
L 332.59014 86.505528 
L 332.786848 86.063433 
L 333.180263 84.07125 
L 333.967095 79.266571 
L 334.163803 78.704552 
L 334.360511 78.677022 
L 334.557218 79.318248 
L 334.950634 82.418017 
L 336.130881 94.825207 
L 336.721005 98.140617 
L 337.114421 99.464495 
L 337.704544 100.611799 
L 338.884791 102.440268 
L 339.278207 102.563901 
L 339.474915 102.403359 
L 339.671623 102.025553 
L 340.065039 100.382752 
L 340.655162 95.987773 
L 341.245286 91.771341 
L 341.638701 90.567249 
L 341.835409 90.653845 
L 342.228825 91.735116 
L 342.622241 93.593417 
L 343.212364 97.599925 
L 343.999196 104.749247 
L 345.179443 115.829611 
L 345.769566 119.586346 
L 346.35969 121.65833 
L 347.343229 124.003627 
L 348.326769 126.220426 
L 348.523476 126.310211 
L 348.720184 126.039931 
L 349.1136 124.537745 
L 350.883971 115.353038 
L 351.277387 114.659041 
L 351.670802 114.480643 
L 352.064218 114.767788 
L 352.457634 115.503123 
L 352.851049 116.907722 
L 353.441173 120.539742 
L 353.834589 122.715466 
L 354.031297 123.244903 
L 354.228004 123.182897 
L 354.424712 122.576799 
L 354.818128 120.402915 
L 355.604959 115.583673 
L 355.998375 114.622977 
L 356.195083 114.664722 
L 356.391791 115.016447 
L 356.785207 116.504589 
L 357.572038 121.182122 
L 358.162162 124.441214 
L 358.358869 124.972333 
L 358.555577 124.955744 
L 358.752285 124.338813 
L 359.145701 121.773754 
L 360.12924 112.393297 
L 360.916072 105.572348 
L 361.506195 102.078497 
L 362.293027 98.804588 
L 363.473274 94.388021 
L 364.850229 88.344523 
L 365.63706 85.96075 
L 366.227184 84.911404 
L 366.6206 84.735516 
L 367.014015 84.970194 
L 367.407431 85.521973 
L 368.194262 87.208596 
L 369.37451 89.850965 
L 369.767925 90.407472 
L 370.161341 90.653642 
L 370.358049 90.630627 
L 370.751465 90.250585 
L 371.341588 89.140938 
L 371.931712 88.021959 
L 372.325127 87.593501 
L 372.718543 87.436682 
L 373.308667 87.539964 
L 374.685622 88.03241 
L 375.079037 87.901609 
L 375.472453 87.513472 
L 375.865869 86.797569 
L 377.63624 82.616185 
L 378.029655 82.266955 
L 378.423071 82.202734 
L 378.816487 82.422555 
L 379.209903 82.927468 
L 380.783565 85.545329 
L 381.176981 85.638197 
L 381.570397 85.443476 
L 381.963813 84.990439 
L 382.553936 83.897963 
L 383.537475 81.379976 
L 384.91443 77.748585 
L 385.701262 76.28974 
L 386.488093 75.314676 
L 387.274925 74.714558 
L 388.061756 74.398718 
L 389.045295 74.292025 
L 390.225543 74.442711 
L 391.799206 74.913539 
L 393.569576 75.672417 
L 394.946531 76.477738 
L 396.126778 77.447696 
L 397.110318 78.583742 
L 397.897149 79.849412 
L 398.487273 81.11944 
L 398.487273 81.11944 
" style="fill:none;stroke:#2ca02c;stroke-linecap:square;stroke-width:1.5;"/>
   </g>
   <g id="line2d_17">
    <path clip-path="url(#p2f10abcfaf)" d="M 73.832727 222.837632 
L 75.996514 230.026499 
L 78.750424 240.014798 
L 82.684581 254.285271 
L 84.061536 258.493101 
L 85.045075 260.930258 
L 85.831907 262.402542 
L 86.42203 263.156375 
L 87.012154 263.550565 
L 87.40557 263.584216 
L 88.389109 263.392967 
L 88.782525 263.682352 
L 89.17594 264.368268 
L 89.962772 266.402153 
L 91.143019 269.334293 
L 92.716682 272.582399 
L 93.896929 274.720096 
L 94.487052 275.347973 
L 94.880468 275.466805 
L 95.273884 275.32773 
L 95.6673 274.923308 
L 96.060715 274.244209 
L 96.650839 272.685365 
L 97.240963 270.436252 
L 98.027794 266.381073 
L 99.798165 256.690907 
L 100.388288 254.673407 
L 100.781704 253.935022 
L 101.17512 253.612511 
L 101.568535 253.619518 
L 101.961951 253.870888 
L 102.748783 254.769587 
L 104.322445 256.59178 
L 107.469771 259.804567 
L 108.650018 260.777799 
L 109.43685 261.173693 
L 110.026973 261.264219 
L 111.010513 261.182573 
L 111.403928 261.442447 
L 111.797344 262.067291 
L 112.584176 264.031243 
L 113.764423 266.994837 
L 114.94467 269.268967 
L 116.321625 271.378873 
L 118.485411 274.197257 
L 121.436029 278.094315 
L 125.370186 283.735249 
L 125.96031 285.128218 
L 127.337265 289.021385 
L 127.730681 289.491094 
L 128.124096 289.644322 
L 128.71422 289.508194 
L 130.091175 288.948547 
L 130.484591 289.015272 
L 131.074714 289.373513 
L 132.058254 290.376219 
L 133.238501 291.579978 
L 133.631916 291.795883 
L 134.025332 291.792831 
L 134.418748 291.480821 
L 134.812164 290.813608 
L 135.402287 289.304125 
L 137.566074 282.877275 
L 137.959489 282.274345 
L 138.352905 282.052452 
L 138.549613 282.110812 
L 138.943029 282.584442 
L 139.533152 283.92803 
L 141.106815 287.970321 
L 141.696939 288.901377 
L 142.090354 289.229785 
L 142.48377 289.354472 
L 143.073894 289.237387 
L 143.664017 288.812575 
L 144.254141 288.094532 
L 145.040972 286.702265 
L 146.024512 284.383688 
L 146.811343 282.572693 
L 147.204759 282.017444 
L 147.598174 281.784268 
L 148.778422 281.499123 
L 149.368545 280.862978 
L 150.155377 279.549268 
L 152.712579 274.810197 
L 153.302702 274.256512 
L 153.892826 273.979838 
L 154.679657 273.888568 
L 156.450028 273.837577 
L 157.826983 273.472842 
L 160.974309 272.575267 
L 162.547972 272.384671 
L 167.072253 272.058343 
L 167.859084 271.683787 
L 168.645915 271.058953 
L 169.629455 269.933034 
L 171.203118 268.135161 
L 171.793241 267.773092 
L 172.186657 267.731157 
L 172.580073 267.908205 
L 172.973488 268.352651 
L 173.76032 269.805473 
L 174.547151 271.146194 
L 175.137275 271.681495 
L 175.53069 271.787042 
L 175.924106 271.682497 
L 176.51423 271.222653 
L 178.284601 269.298394 
L 179.26814 267.845117 
L 182.415466 262.435298 
L 183.005589 260.810223 
L 183.595713 258.533995 
L 184.382544 254.484611 
L 185.562791 248.197383 
L 186.152915 246.266925 
L 186.546331 245.497768 
L 186.939746 245.149844 
L 187.333162 245.221441 
L 187.726578 245.641755 
L 188.316701 246.705198 
L 189.693656 249.453094 
L 190.087072 249.853262 
L 190.480488 249.893997 
L 190.873904 249.469411 
L 191.267319 248.470891 
L 191.857443 245.813595 
L 192.840982 239.635245 
L 193.824521 233.814112 
L 194.414645 231.478371 
L 195.004769 230.086251 
L 195.398184 229.692847 
L 195.7916 229.73097 
L 196.381724 230.316377 
L 197.168555 231.093356 
L 197.365263 231.16466 
L 197.561971 231.109755 
L 197.758679 230.879782 
L 198.152094 229.703692 
L 198.54551 227.425521 
L 199.135634 222.231695 
L 200.512589 206.7372 
L 201.692836 194.65616 
L 202.282959 190.931765 
L 202.873083 188.87075 
L 203.463207 187.738499 
L 203.856622 187.380588 
L 204.250038 187.280665 
L 204.643454 187.389134 
L 205.233577 187.836505 
L 207.397364 189.969119 
L 207.790779 190.030296 
L 208.184195 189.870326 
L 208.577611 189.440525 
L 209.167734 188.284109 
L 210.347982 185.710071 
L 211.331521 183.952426 
L 211.724937 182.924819 
L 212.118352 181.319503 
L 213.101892 175.851382 
L 213.888723 171.930447 
L 214.282139 170.654186 
L 214.675554 170.034711 
L 214.872262 169.992117 
L 215.06897 170.138109 
L 215.462386 171.024591 
L 216.052509 173.576145 
L 216.839341 177.209131 
L 217.429465 178.816608 
L 217.82288 179.262582 
L 218.019588 179.283265 
L 218.413004 178.962098 
L 219.789959 177.218642 
L 220.183375 177.124045 
L 220.57679 177.282045 
L 221.56033 178.070859 
L 222.543869 179.102478 
L 224.117532 180.875535 
L 225.494487 182.059223 
L 227.06815 184.327836 
L 227.658273 184.846789 
L 228.051689 185.621294 
L 228.641812 187.791567 
L 229.231936 189.858704 
L 229.82206 190.958992 
L 231.002307 192.3979 
L 231.59243 193.320795 
L 231.985846 193.500902 
L 232.379262 193.342963 
L 232.969385 193.070677 
L 233.362801 193.169448 
L 233.756217 193.622455 
L 234.739756 195.388636 
L 235.723295 196.236201 
L 236.116711 196.420178 
L 236.510127 196.377627 
L 236.903543 196.07317 
L 237.493666 195.134133 
L 239.067329 192.227631 
L 239.460745 191.846919 
L 239.85416 191.753338 
L 240.247576 191.997825 
L 240.640992 192.630809 
L 241.034408 193.700769 
L 242.214655 197.4477 
L 242.804778 198.362778 
L 243.198194 198.616405 
L 243.59161 198.667158 
L 244.181733 198.518339 
L 244.968565 198.114466 
L 245.755396 197.49731 
L 246.738936 196.411445 
L 247.722475 194.948925 
L 248.902722 192.759779 
L 252.050048 186.485829 
L 252.443463 186.199537 
L 252.836879 186.292817 
L 253.230295 186.683406 
L 254.60725 188.417839 
L 255.000666 188.522673 
L 255.197373 188.386442 
L 255.590789 187.670532 
L 256.180913 185.738699 
L 258.147991 178.065135 
L 258.738115 177.017731 
L 259.131531 176.705109 
L 259.524946 176.632599 
L 260.11507 176.849161 
L 262.082149 178.069533 
L 262.475564 177.927189 
L 262.86898 177.546055 
L 263.459104 176.626556 
L 264.442643 174.564344 
L 265.62289 172.120141 
L 266.213014 171.281876 
L 266.606429 170.975395 
L 267.196553 170.887649 
L 268.180092 170.946148 
L 268.966924 170.699159 
L 270.540587 170.091127 
L 270.540587 170.091127 
" style="fill:none;stroke:#d62728;stroke-dasharray:5.55,2.4;stroke-dashoffset:0;stroke-width:1.5;"/>
   </g>
   <g id="patch_3">
    <path d="M 57.6 307.584 
L 57.6 41.472 
" style="fill:none;stroke:#000000;stroke-linecap:square;stroke-linejoin:miter;stroke-width:0.8;"/>
   </g>
   <g id="patch_4">
    <path d="M 414.72 307.584 
L 414.72 41.472 
" style="fill:none;stroke:#000000;stroke-linecap:square;stroke-linejoin:miter;stroke-width:0.8;"/>
   </g>
   <g id="patch_5">
    <path d="M 57.6 307.584 
L 414.72 307.584 
" style="fill:none;stroke:#000000;stroke-linecap:square;stroke-linejoin:miter;stroke-width:0.8;"/>
   </g>
   <g id="patch_6">
    <path d="M 57.6 41.472 
L 414.72 41.472 
" style="fill:none;stroke:#000000;stroke-linecap:square;stroke-linejoin:miter;stroke-width:0.8;"/>
   </g>
   <g id="text_14">
    <!-- 87.370000 -->
    <g transform="translate(203.713125 35.472)scale(0.12 -0.12)">
     <defs>
      <path d="M 2034 2216 
Q 1584 2216 1326 1975 
Q 1069 1734 1069 1313 
Q 1069 891 1326 650 
Q 1584 409 2034 409 
Q 2484 409 2743 651 
Q 3003 894 3003 1313 
Q 3003 1734 2745 1975 
Q 2488 2216 2034 2216 
z
M 1403 2484 
Q 997 2584 770 2862 
Q 544 3141 544 3541 
Q 544 4100 942 4425 
Q 1341 4750 2034 4750 
Q 2731 4750 3128 4425 
Q 3525 4100 3525 3541 
Q 3525 3141 3298 2862 
Q 3072 2584 2669 2484 
Q 3125 2378 3379 2068 
Q 3634 1759 3634 1313 
Q 3634 634 3220 271 
Q 2806 -91 2034 -91 
Q 1263 -91 848 271 
Q 434 634 434 1313 
Q 434 1759 690 2068 
Q 947 2378 1403 2484 
z
M 1172 3481 
Q 1172 3119 1398 2916 
Q 1625 2713 2034 2713 
Q 2441 2713 2670 2916 
Q 2900 3119 2900 3481 
Q 2900 3844 2670 4047 
Q 2441 4250 2034 4250 
Q 1625 4250 1398 4047 
Q 1172 3844 1172 3481 
z
" id="DejaVuSans-38" transform="scale(0.015625)"/>
      <path d="M 525 4666 
L 3525 4666 
L 3525 4397 
L 1831 0 
L 1172 0 
L 2766 4134 
L 525 4134 
L 525 4666 
z
" id="DejaVuSans-37" transform="scale(0.015625)"/>
      <path d="M 2597 2516 
Q 3050 2419 3304 2112 
Q 3559 1806 3559 1356 
Q 3559 666 3084 287 
Q 2609 -91 1734 -91 
Q 1441 -91 1130 -33 
Q 819 25 488 141 
L 488 750 
Q 750 597 1062 519 
Q 1375 441 1716 441 
Q 2309 441 2620 675 
Q 2931 909 2931 1356 
Q 2931 1769 2642 2001 
Q 2353 2234 1838 2234 
L 1294 2234 
L 1294 2753 
L 1863 2753 
Q 2328 2753 2575 2939 
Q 2822 3125 2822 3475 
Q 2822 3834 2567 4026 
Q 2313 4219 1838 4219 
Q 1578 4219 1281 4162 
Q 984 4106 628 3988 
L 628 4550 
Q 988 4650 1302 4700 
Q 1616 4750 1894 4750 
Q 2613 4750 3031 4423 
Q 3450 4097 3450 3541 
Q 3450 3153 3228 2886 
Q 3006 2619 2597 2516 
z
" id="DejaVuSans-33" transform="scale(0.015625)"/>
     </defs>
     <use xlink:href="#DejaVuSans-38"/>
     <use x="63.623047" xlink:href="#DejaVuSans-37"/>
     <use x="127.246094" xlink:href="#DejaVuSans-2e"/>
     <use x="159.033203" xlink:href="#DejaVuSans-33"/>
     <use x="222.65625" xlink:href="#DejaVuSans-37"/>
     <use x="286.279297" xlink:href="#DejaVuSans-30"/>
     <use x="349.902344" xlink:href="#DejaVuSans-30"/>
     <use x="413.525391" xlink:href="#DejaVuSans-30"/>
     <use x="477.148438" xlink:href="#DejaVuSans-30"/>
    </g>
   </g>
  </g>
 </g>
 <defs>
  <clipPath id="p2f10abcfaf">
   <rect height="266.112" width="357.12" x="57.6" y="41.472"/>
  </clipPath>
 </defs>
</svg>
