<?xml version="1.0" encoding="utf-8" standalone="no"?>
<!DOCTYPE svg PUBLIC "-//W3C//DTD SVG 1.1//EN"
  "http://www.w3.org/Graphics/SVG/1.1/DTD/svg11.dtd">
<svg height="345.6pt" version="1.1" viewBox="0 0 460.8 345.6" width="460.8pt" xmlns="http://www.w3.org/2000/svg" xmlns:xlink="http://www.w3.org/1999/xlink">
 <metadata>
  <rdf:RDF xmlns:cc="http://creativecommons.org/ns#" xmlns:dc="http://purl.org/dc/elements/1.1/" xmlns:rdf="http://www.w3.org/1999/02/22-rdf-syntax-ns#">
   <cc:Work>
    <dc:type rdf:resource="http://purl.org/dc/dcmitype/StillImage"/>
    <dc:date>2022-06-11T17:58:28.907116</dc:date>
    <dc:format>image/svg+xml</dc:format>
    <dc:creator>
     <cc:Agent>
      <dc:title>Matplotlib v3.4.3, https://matplotlib.org/</dc:title>
     </cc:Agent>
    </dc:creator>
   </cc:Work>
  </rdf:RDF>
 </metadata>
 <defs>
  <style type="text/css">*{stroke-linecap:butt;stroke-linejoin:round;}</style>
 </defs>
 <g id="figure_1">
  <g id="patch_1">
   <path d="M 0 345.6 
L 460.8 345.6 
L 460.8 0 
L 0 0 
z
" style="fill:#ffffff;"/>
  </g>
  <g id="axes_1">
   <g id="patch_2">
    <path d="M 57.6 307.584 
L 414.72 307.584 
L 414.72 41.472 
L 57.6 41.472 
z
" style="fill:#ffffff;"/>
   </g>
   <g id="matplotlib.axis_1">
    <g id="xtick_1">
     <g id="line2d_1">
      <defs>
       <path d="M 0 0 
L 0 3.5 
" id="m71f9b0d77f" style="stroke:#000000;stroke-width:0.8;"/>
      </defs>
      <g>
       <use style="stroke:#000000;stroke-width:0.8;" x="99.260012" xlink:href="#m71f9b0d77f" y="307.584"/>
      </g>
     </g>
     <g id="text_1">
      <!-- 0 -->
      <g transform="translate(96.078762 322.182437)scale(0.1 -0.1)">
       <defs>
        <path d="M 2034 4250 
Q 1547 4250 1301 3770 
Q 1056 3291 1056 2328 
Q 1056 1369 1301 889 
Q 1547 409 2034 409 
Q 2525 409 2770 889 
Q 3016 1369 3016 2328 
Q 3016 3291 2770 3770 
Q 2525 4250 2034 4250 
z
M 2034 4750 
Q 2819 4750 3233 4129 
Q 3647 3509 3647 2328 
Q 3647 1150 3233 529 
Q 2819 -91 2034 -91 
Q 1250 -91 836 529 
Q 422 1150 422 2328 
Q 422 3509 836 4129 
Q 1250 4750 2034 4750 
z
" id="DejaVuSans-30" transform="scale(0.015625)"/>
       </defs>
       <use xlink:href="#DejaVuSans-30"/>
      </g>
     </g>
    </g>
    <g id="xtick_2">
     <g id="line2d_2">
      <g>
       <use style="stroke:#000000;stroke-width:0.8;" x="149.264505" xlink:href="#m71f9b0d77f" y="307.584"/>
      </g>
     </g>
     <g id="text_2">
      <!-- 20 -->
      <g transform="translate(142.902005 322.182437)scale(0.1 -0.1)">
       <defs>
        <path d="M 1228 531 
L 3431 531 
L 3431 0 
L 469 0 
L 469 531 
Q 828 903 1448 1529 
Q 2069 2156 2228 2338 
Q 2531 2678 2651 2914 
Q 2772 3150 2772 3378 
Q 2772 3750 2511 3984 
Q 2250 4219 1831 4219 
Q 1534 4219 1204 4116 
Q 875 4013 500 3803 
L 500 4441 
Q 881 4594 1212 4672 
Q 1544 4750 1819 4750 
Q 2544 4750 2975 4387 
Q 3406 4025 3406 3419 
Q 3406 3131 3298 2873 
Q 3191 2616 2906 2266 
Q 2828 2175 2409 1742 
Q 1991 1309 1228 531 
z
" id="DejaVuSans-32" transform="scale(0.015625)"/>
       </defs>
       <use xlink:href="#DejaVuSans-32"/>
       <use x="63.623047" xlink:href="#DejaVuSans-30"/>
      </g>
     </g>
    </g>
    <g id="xtick_3">
     <g id="line2d_3">
      <g>
       <use style="stroke:#000000;stroke-width:0.8;" x="199.268997" xlink:href="#m71f9b0d77f" y="307.584"/>
      </g>
     </g>
     <g id="text_3">
      <!-- 40 -->
      <g transform="translate(192.906497 322.182437)scale(0.1 -0.1)">
       <defs>
        <path d="M 2419 4116 
L 825 1625 
L 2419 1625 
L 2419 4116 
z
M 2253 4666 
L 3047 4666 
L 3047 1625 
L 3713 1625 
L 3713 1100 
L 3047 1100 
L 3047 0 
L 2419 0 
L 2419 1100 
L 313 1100 
L 313 1709 
L 2253 4666 
z
" id="DejaVuSans-34" transform="scale(0.015625)"/>
       </defs>
       <use xlink:href="#DejaVuSans-34"/>
       <use x="63.623047" xlink:href="#DejaVuSans-30"/>
      </g>
     </g>
    </g>
    <g id="xtick_4">
     <g id="line2d_4">
      <g>
       <use style="stroke:#000000;stroke-width:0.8;" x="249.27349" xlink:href="#m71f9b0d77f" y="307.584"/>
      </g>
     </g>
     <g id="text_4">
      <!-- 60 -->
      <g transform="translate(242.91099 322.182437)scale(0.1 -0.1)">
       <defs>
        <path d="M 2113 2584 
Q 1688 2584 1439 2293 
Q 1191 2003 1191 1497 
Q 1191 994 1439 701 
Q 1688 409 2113 409 
Q 2538 409 2786 701 
Q 3034 994 3034 1497 
Q 3034 2003 2786 2293 
Q 2538 2584 2113 2584 
z
M 3366 4563 
L 3366 3988 
Q 3128 4100 2886 4159 
Q 2644 4219 2406 4219 
Q 1781 4219 1451 3797 
Q 1122 3375 1075 2522 
Q 1259 2794 1537 2939 
Q 1816 3084 2150 3084 
Q 2853 3084 3261 2657 
Q 3669 2231 3669 1497 
Q 3669 778 3244 343 
Q 2819 -91 2113 -91 
Q 1303 -91 875 529 
Q 447 1150 447 2328 
Q 447 3434 972 4092 
Q 1497 4750 2381 4750 
Q 2619 4750 2861 4703 
Q 3103 4656 3366 4563 
z
" id="DejaVuSans-36" transform="scale(0.015625)"/>
       </defs>
       <use xlink:href="#DejaVuSans-36"/>
       <use x="63.623047" xlink:href="#DejaVuSans-30"/>
      </g>
     </g>
    </g>
    <g id="xtick_5">
     <g id="line2d_5">
      <g>
       <use style="stroke:#000000;stroke-width:0.8;" x="299.277983" xlink:href="#m71f9b0d77f" y="307.584"/>
      </g>
     </g>
     <g id="text_5">
      <!-- 80 -->
      <g transform="translate(292.915483 322.182437)scale(0.1 -0.1)">
       <defs>
        <path d="M 2034 2216 
Q 1584 2216 1326 1975 
Q 1069 1734 1069 1313 
Q 1069 891 1326 650 
Q 1584 409 2034 409 
Q 2484 409 2743 651 
Q 3003 894 3003 1313 
Q 3003 1734 2745 1975 
Q 2488 2216 2034 2216 
z
M 1403 2484 
Q 997 2584 770 2862 
Q 544 3141 544 3541 
Q 544 4100 942 4425 
Q 1341 4750 2034 4750 
Q 2731 4750 3128 4425 
Q 3525 4100 3525 3541 
Q 3525 3141 3298 2862 
Q 3072 2584 2669 2484 
Q 3125 2378 3379 2068 
Q 3634 1759 3634 1313 
Q 3634 634 3220 271 
Q 2806 -91 2034 -91 
Q 1263 -91 848 271 
Q 434 634 434 1313 
Q 434 1759 690 2068 
Q 947 2378 1403 2484 
z
M 1172 3481 
Q 1172 3119 1398 2916 
Q 1625 2713 2034 2713 
Q 2441 2713 2670 2916 
Q 2900 3119 2900 3481 
Q 2900 3844 2670 4047 
Q 2441 4250 2034 4250 
Q 1625 4250 1398 4047 
Q 1172 3844 1172 3481 
z
" id="DejaVuSans-38" transform="scale(0.015625)"/>
       </defs>
       <use xlink:href="#DejaVuSans-38"/>
       <use x="63.623047" xlink:href="#DejaVuSans-30"/>
      </g>
     </g>
    </g>
    <g id="xtick_6">
     <g id="line2d_6">
      <g>
       <use style="stroke:#000000;stroke-width:0.8;" x="349.282476" xlink:href="#m71f9b0d77f" y="307.584"/>
      </g>
     </g>
     <g id="text_6">
      <!-- 100 -->
      <g transform="translate(339.738726 322.182437)scale(0.1 -0.1)">
       <defs>
        <path d="M 794 531 
L 1825 531 
L 1825 4091 
L 703 3866 
L 703 4441 
L 1819 4666 
L 2450 4666 
L 2450 531 
L 3481 531 
L 3481 0 
L 794 0 
L 794 531 
z
" id="DejaVuSans-31" transform="scale(0.015625)"/>
       </defs>
       <use xlink:href="#DejaVuSans-31"/>
       <use x="63.623047" xlink:href="#DejaVuSans-30"/>
       <use x="127.246094" xlink:href="#DejaVuSans-30"/>
      </g>
     </g>
    </g>
    <g id="xtick_7">
     <g id="line2d_7">
      <g>
       <use style="stroke:#000000;stroke-width:0.8;" x="399.286968" xlink:href="#m71f9b0d77f" y="307.584"/>
      </g>
     </g>
     <g id="text_7">
      <!-- 120 -->
      <g transform="translate(389.743218 322.182437)scale(0.1 -0.1)">
       <use xlink:href="#DejaVuSans-31"/>
       <use x="63.623047" xlink:href="#DejaVuSans-32"/>
       <use x="127.246094" xlink:href="#DejaVuSans-30"/>
      </g>
     </g>
    </g>
   </g>
   <g id="matplotlib.axis_2">
    <g id="ytick_1">
     <g id="line2d_8">
      <defs>
       <path d="M 0 0 
L -3.5 0 
" id="m0d76508598" style="stroke:#000000;stroke-width:0.8;"/>
      </defs>
      <g>
       <use style="stroke:#000000;stroke-width:0.8;" x="57.6" xlink:href="#m0d76508598" y="288.630518"/>
      </g>
     </g>
     <g id="text_8">
      <!-- −2.0 -->
      <g transform="translate(26.317187 292.429737)scale(0.1 -0.1)">
       <defs>
        <path d="M 678 2272 
L 4684 2272 
L 4684 1741 
L 678 1741 
L 678 2272 
z
" id="DejaVuSans-2212" transform="scale(0.015625)"/>
        <path d="M 684 794 
L 1344 794 
L 1344 0 
L 684 0 
L 684 794 
z
" id="DejaVuSans-2e" transform="scale(0.015625)"/>
       </defs>
       <use xlink:href="#DejaVuSans-2212"/>
       <use x="83.789062" xlink:href="#DejaVuSans-32"/>
       <use x="147.412109" xlink:href="#DejaVuSans-2e"/>
       <use x="179.199219" xlink:href="#DejaVuSans-30"/>
      </g>
     </g>
    </g>
    <g id="ytick_2">
     <g id="line2d_9">
      <g>
       <use style="stroke:#000000;stroke-width:0.8;" x="57.6" xlink:href="#m0d76508598" y="258.180769"/>
      </g>
     </g>
     <g id="text_9">
      <!-- −1.5 -->
      <g transform="translate(26.317187 261.979988)scale(0.1 -0.1)">
       <defs>
        <path d="M 691 4666 
L 3169 4666 
L 3169 4134 
L 1269 4134 
L 1269 2991 
Q 1406 3038 1543 3061 
Q 1681 3084 1819 3084 
Q 2600 3084 3056 2656 
Q 3513 2228 3513 1497 
Q 3513 744 3044 326 
Q 2575 -91 1722 -91 
Q 1428 -91 1123 -41 
Q 819 9 494 109 
L 494 744 
Q 775 591 1075 516 
Q 1375 441 1709 441 
Q 2250 441 2565 725 
Q 2881 1009 2881 1497 
Q 2881 1984 2565 2268 
Q 2250 2553 1709 2553 
Q 1456 2553 1204 2497 
Q 953 2441 691 2322 
L 691 4666 
z
" id="DejaVuSans-35" transform="scale(0.015625)"/>
       </defs>
       <use xlink:href="#DejaVuSans-2212"/>
       <use x="83.789062" xlink:href="#DejaVuSans-31"/>
       <use x="147.412109" xlink:href="#DejaVuSans-2e"/>
       <use x="179.199219" xlink:href="#DejaVuSans-35"/>
      </g>
     </g>
    </g>
    <g id="ytick_3">
     <g id="line2d_10">
      <g>
       <use style="stroke:#000000;stroke-width:0.8;" x="57.6" xlink:href="#m0d76508598" y="227.73102"/>
      </g>
     </g>
     <g id="text_10">
      <!-- −1.0 -->
      <g transform="translate(26.317187 231.530239)scale(0.1 -0.1)">
       <use xlink:href="#DejaVuSans-2212"/>
       <use x="83.789062" xlink:href="#DejaVuSans-31"/>
       <use x="147.412109" xlink:href="#DejaVuSans-2e"/>
       <use x="179.199219" xlink:href="#DejaVuSans-30"/>
      </g>
     </g>
    </g>
    <g id="ytick_4">
     <g id="line2d_11">
      <g>
       <use style="stroke:#000000;stroke-width:0.8;" x="57.6" xlink:href="#m0d76508598" y="197.281271"/>
      </g>
     </g>
     <g id="text_11">
      <!-- −0.5 -->
      <g transform="translate(26.317187 201.08049)scale(0.1 -0.1)">
       <use xlink:href="#DejaVuSans-2212"/>
       <use x="83.789062" xlink:href="#DejaVuSans-30"/>
       <use x="147.412109" xlink:href="#DejaVuSans-2e"/>
       <use x="179.199219" xlink:href="#DejaVuSans-35"/>
      </g>
     </g>
    </g>
    <g id="ytick_5">
     <g id="line2d_12">
      <g>
       <use style="stroke:#000000;stroke-width:0.8;" x="57.6" xlink:href="#m0d76508598" y="166.831522"/>
      </g>
     </g>
     <g id="text_12">
      <!-- 0.0 -->
      <g transform="translate(34.696875 170.630741)scale(0.1 -0.1)">
       <use xlink:href="#DejaVuSans-30"/>
       <use x="63.623047" xlink:href="#DejaVuSans-2e"/>
       <use x="95.410156" xlink:href="#DejaVuSans-30"/>
      </g>
     </g>
    </g>
    <g id="ytick_6">
     <g id="line2d_13">
      <g>
       <use style="stroke:#000000;stroke-width:0.8;" x="57.6" xlink:href="#m0d76508598" y="136.381773"/>
      </g>
     </g>
     <g id="text_13">
      <!-- 0.5 -->
      <g transform="translate(34.696875 140.180992)scale(0.1 -0.1)">
       <use xlink:href="#DejaVuSans-30"/>
       <use x="63.623047" xlink:href="#DejaVuSans-2e"/>
       <use x="95.410156" xlink:href="#DejaVuSans-35"/>
      </g>
     </g>
    </g>
    <g id="ytick_7">
     <g id="line2d_14">
      <g>
       <use style="stroke:#000000;stroke-width:0.8;" x="57.6" xlink:href="#m0d76508598" y="105.932024"/>
      </g>
     </g>
     <g id="text_14">
      <!-- 1.0 -->
      <g transform="translate(34.696875 109.731243)scale(0.1 -0.1)">
       <use xlink:href="#DejaVuSans-31"/>
       <use x="63.623047" xlink:href="#DejaVuSans-2e"/>
       <use x="95.410156" xlink:href="#DejaVuSans-30"/>
      </g>
     </g>
    </g>
    <g id="ytick_8">
     <g id="line2d_15">
      <g>
       <use style="stroke:#000000;stroke-width:0.8;" x="57.6" xlink:href="#m0d76508598" y="75.482275"/>
      </g>
     </g>
     <g id="text_15">
      <!-- 1.5 -->
      <g transform="translate(34.696875 79.281494)scale(0.1 -0.1)">
       <use xlink:href="#DejaVuSans-31"/>
       <use x="63.623047" xlink:href="#DejaVuSans-2e"/>
       <use x="95.410156" xlink:href="#DejaVuSans-35"/>
      </g>
     </g>
    </g>
    <g id="ytick_9">
     <g id="line2d_16">
      <g>
       <use style="stroke:#000000;stroke-width:0.8;" x="57.6" xlink:href="#m0d76508598" y="45.032526"/>
      </g>
     </g>
     <g id="text_16">
      <!-- 2.0 -->
      <g transform="translate(34.696875 48.831744)scale(0.1 -0.1)">
       <use xlink:href="#DejaVuSans-32"/>
       <use x="63.623047" xlink:href="#DejaVuSans-2e"/>
       <use x="95.410156" xlink:href="#DejaVuSans-30"/>
      </g>
     </g>
    </g>
   </g>
   <g id="line2d_17">
    <defs>
     <path d="M 0 3 
C 0.795609 3 1.55874 2.683901 2.12132 2.12132 
C 2.683901 1.55874 3 0.795609 3 0 
C 3 -0.795609 2.683901 -1.55874 2.12132 -2.12132 
C 1.55874 -2.683901 0.795609 -3 0 -3 
C -0.795609 -3 -1.55874 -2.683901 -2.12132 -2.12132 
C -2.683901 -1.55874 -3 -0.795609 -3 0 
C -3 0.795609 -2.683901 1.55874 -2.12132 2.12132 
C -1.55874 2.683901 -0.795609 3 0 3 
z
" id="mfa73dc6e46" style="stroke:#1f77b4;"/>
    </defs>
    <g clip-path="url(#p08204f5fa6)">
     <use style="fill:#1f77b4;stroke:#1f77b4;" x="99.260012" xlink:href="#mfa73dc6e46" y="80.613603"/>
     <use style="fill:#1f77b4;stroke:#1f77b4;" x="101.612058" xlink:href="#mfa73dc6e46" y="53.568"/>
     <use style="fill:#1f77b4;stroke:#1f77b4;" x="103.964103" xlink:href="#mfa73dc6e46" y="83.072294"/>
     <use style="fill:#1f77b4;stroke:#1f77b4;" x="106.175026" xlink:href="#mfa73dc6e46" y="80.613603"/>
     <use style="fill:#1f77b4;stroke:#1f77b4;" x="106.269108" xlink:href="#mfa73dc6e46" y="124.870044"/>
     <use style="fill:#1f77b4;stroke:#1f77b4;" x="108.644674" xlink:href="#mfa73dc6e46" y="90.448368"/>
     <use style="fill:#1f77b4;stroke:#1f77b4;" x="111.043761" xlink:href="#mfa73dc6e46" y="92.907059"/>
     <use style="fill:#1f77b4;stroke:#1f77b4;" x="111.090802" xlink:href="#mfa73dc6e46" y="100.283132"/>
     <use style="fill:#1f77b4;stroke:#1f77b4;" x="113.231164" xlink:href="#mfa73dc6e46" y="102.741824"/>
     <use style="fill:#1f77b4;stroke:#1f77b4;" x="113.325245" xlink:href="#mfa73dc6e46" y="97.824441"/>
     <use style="fill:#1f77b4;stroke:#1f77b4;" x="115.60673" xlink:href="#mfa73dc6e46" y="105.200515"/>
     <use style="fill:#1f77b4;stroke:#1f77b4;" x="115.700812" xlink:href="#mfa73dc6e46" y="95.36575"/>
     <use style="fill:#1f77b4;stroke:#1f77b4;" x="117.888214" xlink:href="#mfa73dc6e46" y="110.117897"/>
     <use style="fill:#1f77b4;stroke:#1f77b4;" x="118.076378" xlink:href="#mfa73dc6e46" y="105.200515"/>
     <use style="fill:#1f77b4;stroke:#1f77b4;" x="120.169699" xlink:href="#mfa73dc6e46" y="115.035279"/>
     <use style="fill:#1f77b4;stroke:#1f77b4;" x="120.498985" xlink:href="#mfa73dc6e46" y="127.328735"/>
     <use style="fill:#1f77b4;stroke:#1f77b4;" x="122.709908" xlink:href="#mfa73dc6e46" y="110.117897"/>
     <use style="fill:#1f77b4;stroke:#1f77b4;" x="122.733428" xlink:href="#mfa73dc6e46" y="124.870044"/>
     <use style="fill:#1f77b4;stroke:#1f77b4;" x="125.179556" xlink:href="#mfa73dc6e46" y="110.117897"/>
     <use style="fill:#1f77b4;stroke:#1f77b4;" x="125.955731" xlink:href="#mfa73dc6e46" y="106.42986"/>
     <use style="fill:#1f77b4;stroke:#1f77b4;" x="127.225836" xlink:href="#mfa73dc6e46" y="105.200515"/>
     <use style="fill:#1f77b4;stroke:#1f77b4;" x="128.260736" xlink:href="#mfa73dc6e46" y="108.396813"/>
     <use style="fill:#1f77b4;stroke:#1f77b4;" x="129.695484" xlink:href="#mfa73dc6e46" y="112.576588"/>
     <use style="fill:#1f77b4;stroke:#1f77b4;" x="129.742525" xlink:href="#mfa73dc6e46" y="112.576588"/>
     <use style="fill:#1f77b4;stroke:#1f77b4;" x="129.954209" xlink:href="#mfa73dc6e46" y="108.150944"/>
     <use style="fill:#1f77b4;stroke:#1f77b4;" x="130.730384" xlink:href="#mfa73dc6e46" y="105.446384"/>
     <use style="fill:#1f77b4;stroke:#1f77b4;" x="131.929927" xlink:href="#mfa73dc6e46" y="110.117897"/>
     <use style="fill:#1f77b4;stroke:#1f77b4;" x="132.04753" xlink:href="#mfa73dc6e46" y="102.741824"/>
     <use style="fill:#1f77b4;stroke:#1f77b4;" x="132.188652" xlink:href="#mfa73dc6e46" y="132.000249"/>
     <use style="fill:#1f77b4;stroke:#1f77b4;" x="132.964827" xlink:href="#mfa73dc6e46" y="106.42986"/>
     <use style="fill:#1f77b4;stroke:#1f77b4;" x="134.258453" xlink:href="#mfa73dc6e46" y="117.493971"/>
     <use style="fill:#1f77b4;stroke:#1f77b4;" x="135.363914" xlink:href="#mfa73dc6e46" y="106.921599"/>
     <use style="fill:#1f77b4;stroke:#1f77b4;" x="136.963305" xlink:href="#mfa73dc6e46" y="107.659206"/>
     <use style="fill:#1f77b4;stroke:#1f77b4;" x="137.71596" xlink:href="#mfa73dc6e46" y="99.791394"/>
     <use style="fill:#1f77b4;stroke:#1f77b4;" x="139.197749" xlink:href="#mfa73dc6e46" y="107.659206"/>
     <use style="fill:#1f77b4;stroke:#1f77b4;" x="139.503515" xlink:href="#mfa73dc6e46" y="110.117897"/>
     <use style="fill:#1f77b4;stroke:#1f77b4;" x="139.879842" xlink:href="#mfa73dc6e46" y="108.888551"/>
     <use style="fill:#1f77b4;stroke:#1f77b4;" x="141.432192" xlink:href="#mfa73dc6e46" y="112.576588"/>
     <use style="fill:#1f77b4;stroke:#1f77b4;" x="141.502754" xlink:href="#mfa73dc6e46" y="107.659206"/>
     <use style="fill:#1f77b4;stroke:#1f77b4;" x="143.713677" xlink:href="#mfa73dc6e46" y="119.952662"/>
     <use style="fill:#1f77b4;stroke:#1f77b4;" x="143.854799" xlink:href="#mfa73dc6e46" y="115.035279"/>
     <use style="fill:#1f77b4;stroke:#1f77b4;" x="144.725056" xlink:href="#mfa73dc6e46" y="126.345259"/>
     <use style="fill:#1f77b4;stroke:#1f77b4;" x="146.042202" xlink:href="#mfa73dc6e46" y="132.246118"/>
     <use style="fill:#1f77b4;stroke:#1f77b4;" x="146.183325" xlink:href="#mfa73dc6e46" y="132.246118"/>
     <use style="fill:#1f77b4;stroke:#1f77b4;" x="147.077102" xlink:href="#mfa73dc6e46" y="139.130453"/>
     <use style="fill:#1f77b4;stroke:#1f77b4;" x="148.605932" xlink:href="#mfa73dc6e46" y="134.704809"/>
     <use style="fill:#1f77b4;stroke:#1f77b4;" x="148.676493" xlink:href="#mfa73dc6e46" y="132.246118"/>
     <use style="fill:#1f77b4;stroke:#1f77b4;" x="149.264505" xlink:href="#mfa73dc6e46" y="130.279165"/>
     <use style="fill:#1f77b4;stroke:#1f77b4;" x="150.793334" xlink:href="#mfa73dc6e46" y="137.1635"/>
     <use style="fill:#1f77b4;stroke:#1f77b4;" x="150.910937" xlink:href="#mfa73dc6e46" y="153.144993"/>
     <use style="fill:#1f77b4;stroke:#1f77b4;" x="150.934457" xlink:href="#mfa73dc6e46" y="137.1635"/>
     <use style="fill:#1f77b4;stroke:#1f77b4;" x="153.310023" xlink:href="#mfa73dc6e46" y="151.915647"/>
     <use style="fill:#1f77b4;stroke:#1f77b4;" x="154.109719" xlink:href="#mfa73dc6e46" y="139.130453"/>
     <use style="fill:#1f77b4;stroke:#1f77b4;" x="155.426864" xlink:href="#mfa73dc6e46" y="144.539574"/>
     <use style="fill:#1f77b4;stroke:#1f77b4;" x="155.567987" xlink:href="#mfa73dc6e46" y="149.456956"/>
     <use style="fill:#1f77b4;stroke:#1f77b4;" x="155.615028" xlink:href="#mfa73dc6e46" y="154.866076"/>
     <use style="fill:#1f77b4;stroke:#1f77b4;" x="156.320642" xlink:href="#mfa73dc6e46" y="141.589144"/>
     <use style="fill:#1f77b4;stroke:#1f77b4;" x="157.920033" xlink:href="#mfa73dc6e46" y="142.080882"/>
     <use style="fill:#1f77b4;stroke:#1f77b4;" x="160.177997" xlink:href="#mfa73dc6e46" y="156.58716"/>
     <use style="fill:#1f77b4;stroke:#1f77b4;" x="160.295599" xlink:href="#mfa73dc6e46" y="142.080882"/>
     <use style="fill:#1f77b4;stroke:#1f77b4;" x="161.142336" xlink:href="#mfa73dc6e46" y="149.211087"/>
     <use style="fill:#1f77b4;stroke:#1f77b4;" x="162.506522" xlink:href="#mfa73dc6e46" y="146.998265"/>
     <use style="fill:#1f77b4;stroke:#1f77b4;" x="162.553563" xlink:href="#mfa73dc6e46" y="162.24215"/>
     <use style="fill:#1f77b4;stroke:#1f77b4;" x="163.376779" xlink:href="#mfa73dc6e46" y="145.768919"/>
     <use style="fill:#1f77b4;stroke:#1f77b4;" x="164.929129" xlink:href="#mfa73dc6e46" y="134.704809"/>
     <use style="fill:#1f77b4;stroke:#1f77b4;" x="164.929129" xlink:href="#mfa73dc6e46" y="171.585176"/>
     <use style="fill:#1f77b4;stroke:#1f77b4;" x="167.328216" xlink:href="#mfa73dc6e46" y="139.622191"/>
     <use style="fill:#1f77b4;stroke:#1f77b4;" x="169.750823" xlink:href="#mfa73dc6e46" y="112.576588"/>
     <use style="fill:#1f77b4;stroke:#1f77b4;" x="174.266751" xlink:href="#mfa73dc6e46" y="166.667794"/>
     <use style="fill:#1f77b4;stroke:#1f77b4;" x="176.665838" xlink:href="#mfa73dc6e46" y="142.080882"/>
     <use style="fill:#1f77b4;stroke:#1f77b4;" x="176.759919" xlink:href="#mfa73dc6e46" y="183.878632"/>
     <use style="fill:#1f77b4;stroke:#1f77b4;" x="178.994363" xlink:href="#mfa73dc6e46" y="151.915647"/>
     <use style="fill:#1f77b4;stroke:#1f77b4;" x="181.322888" xlink:href="#mfa73dc6e46" y="178.96125"/>
     <use style="fill:#1f77b4;stroke:#1f77b4;" x="181.44049" xlink:href="#mfa73dc6e46" y="181.419941"/>
     <use style="fill:#1f77b4;stroke:#1f77b4;" x="183.627893" xlink:href="#mfa73dc6e46" y="171.585176"/>
     <use style="fill:#1f77b4;stroke:#1f77b4;" x="186.215143" xlink:href="#mfa73dc6e46" y="166.667794"/>
     <use style="fill:#1f77b4;stroke:#1f77b4;" x="188.379025" xlink:href="#mfa73dc6e46" y="172.814522"/>
     <use style="fill:#1f77b4;stroke:#1f77b4;" x="188.496628" xlink:href="#mfa73dc6e46" y="149.456956"/>
     <use style="fill:#1f77b4;stroke:#1f77b4;" x="188.543669" xlink:href="#mfa73dc6e46" y="159.291721"/>
     <use style="fill:#1f77b4;stroke:#1f77b4;" x="190.848674" xlink:href="#mfa73dc6e46" y="144.539574"/>
     <use style="fill:#1f77b4;stroke:#1f77b4;" x="193.22424" xlink:href="#mfa73dc6e46" y="139.622191"/>
     <use style="fill:#1f77b4;stroke:#1f77b4;" x="194.118017" xlink:href="#mfa73dc6e46" y="156.341291"/>
     <use style="fill:#1f77b4;stroke:#1f77b4;" x="195.505724" xlink:href="#mfa73dc6e46" y="132.246118"/>
     <use style="fill:#1f77b4;stroke:#1f77b4;" x="195.764449" xlink:href="#mfa73dc6e46" y="134.704809"/>
     <use style="fill:#1f77b4;stroke:#1f77b4;" x="198.140015" xlink:href="#mfa73dc6e46" y="129.787426"/>
     <use style="fill:#1f77b4;stroke:#1f77b4;" x="198.963231" xlink:href="#mfa73dc6e46" y="139.130453"/>
     <use style="fill:#1f77b4;stroke:#1f77b4;" x="200.045172" xlink:href="#mfa73dc6e46" y="129.787426"/>
     <use style="fill:#1f77b4;stroke:#1f77b4;" x="201.056552" xlink:href="#mfa73dc6e46" y="136.425893"/>
     <use style="fill:#1f77b4;stroke:#1f77b4;" x="202.844107" xlink:href="#mfa73dc6e46" y="144.539574"/>
     <use style="fill:#1f77b4;stroke:#1f77b4;" x="203.50268" xlink:href="#mfa73dc6e46" y="135.934154"/>
     <use style="fill:#1f77b4;stroke:#1f77b4;" x="204.796305" xlink:href="#mfa73dc6e46" y="134.704809"/>
     <use style="fill:#1f77b4;stroke:#1f77b4;" x="207.030748" xlink:href="#mfa73dc6e46" y="139.622191"/>
     <use style="fill:#1f77b4;stroke:#1f77b4;" x="209.735601" xlink:href="#mfa73dc6e46" y="142.080882"/>
     <use style="fill:#1f77b4;stroke:#1f77b4;" x="210.417694" xlink:href="#mfa73dc6e46" y="146.506526"/>
     <use style="fill:#1f77b4;stroke:#1f77b4;" x="212.76974" xlink:href="#mfa73dc6e46" y="145.768919"/>
     <use style="fill:#1f77b4;stroke:#1f77b4;" x="214.557295" xlink:href="#mfa73dc6e46" y="142.080882"/>
     <use style="fill:#1f77b4;stroke:#1f77b4;" x="217.450311" xlink:href="#mfa73dc6e46" y="150.686301"/>
     <use style="fill:#1f77b4;stroke:#1f77b4;" x="218.743936" xlink:href="#mfa73dc6e46" y="137.1635"/>
     <use style="fill:#1f77b4;stroke:#1f77b4;" x="219.778836" xlink:href="#mfa73dc6e46" y="150.440432"/>
     <use style="fill:#1f77b4;stroke:#1f77b4;" x="221.331186" xlink:href="#mfa73dc6e46" y="137.1635"/>
     <use style="fill:#1f77b4;stroke:#1f77b4;" x="221.425268" xlink:href="#mfa73dc6e46" y="172.322784"/>
     <use style="fill:#1f77b4;stroke:#1f77b4;" x="221.425268" xlink:href="#mfa73dc6e46" y="142.080882"/>
     <use style="fill:#1f77b4;stroke:#1f77b4;" x="222.130882" xlink:href="#mfa73dc6e46" y="133.967201"/>
     <use style="fill:#1f77b4;stroke:#1f77b4;" x="223.706753" xlink:href="#mfa73dc6e46" y="149.456956"/>
     <use style="fill:#1f77b4;stroke:#1f77b4;" x="223.730273" xlink:href="#mfa73dc6e46" y="139.622191"/>
     <use style="fill:#1f77b4;stroke:#1f77b4;" x="223.894916" xlink:href="#mfa73dc6e46" y="132.737856"/>
     <use style="fill:#1f77b4;stroke:#1f77b4;" x="226.011758" xlink:href="#mfa73dc6e46" y="144.539574"/>
     <use style="fill:#1f77b4;stroke:#1f77b4;" x="226.058798" xlink:href="#mfa73dc6e46" y="146.998265"/>
     <use style="fill:#1f77b4;stroke:#1f77b4;" x="228.434365" xlink:href="#mfa73dc6e46" y="144.539574"/>
     <use style="fill:#1f77b4;stroke:#1f77b4;" x="230.668808" xlink:href="#mfa73dc6e46" y="142.080882"/>
     <use style="fill:#1f77b4;stroke:#1f77b4;" x="230.78641" xlink:href="#mfa73dc6e46" y="169.126485"/>
     <use style="fill:#1f77b4;stroke:#1f77b4;" x="235.419941" xlink:href="#mfa73dc6e46" y="208.465544"/>
     <use style="fill:#1f77b4;stroke:#1f77b4;" x="236.243157" xlink:href="#mfa73dc6e46" y="164.94671"/>
     <use style="fill:#1f77b4;stroke:#1f77b4;" x="238.054232" xlink:href="#mfa73dc6e46" y="193.713397"/>
     <use style="fill:#1f77b4;stroke:#1f77b4;" x="240.171073" xlink:href="#mfa73dc6e46" y="186.337324"/>
     <use style="fill:#1f77b4;stroke:#1f77b4;" x="242.476078" xlink:href="#mfa73dc6e46" y="161.750412"/>
     <use style="fill:#1f77b4;stroke:#1f77b4;" x="244.569399" xlink:href="#mfa73dc6e46" y="178.96125"/>
     <use style="fill:#1f77b4;stroke:#1f77b4;" x="244.757562" xlink:href="#mfa73dc6e46" y="174.043868"/>
     <use style="fill:#1f77b4;stroke:#1f77b4;" x="246.944965" xlink:href="#mfa73dc6e46" y="174.043868"/>
     <use style="fill:#1f77b4;stroke:#1f77b4;" x="247.180169" xlink:href="#mfa73dc6e46" y="154.374338"/>
     <use style="fill:#1f77b4;stroke:#1f77b4;" x="247.979865" xlink:href="#mfa73dc6e46" y="168.143009"/>
     <use style="fill:#1f77b4;stroke:#1f77b4;" x="249.391092" xlink:href="#mfa73dc6e46" y="169.126485"/>
     <use style="fill:#1f77b4;stroke:#1f77b4;" x="251.649056" xlink:href="#mfa73dc6e46" y="183.878632"/>
     <use style="fill:#1f77b4;stroke:#1f77b4;" x="254.001102" xlink:href="#mfa73dc6e46" y="183.878632"/>
     <use style="fill:#1f77b4;stroke:#1f77b4;" x="255.012482" xlink:href="#mfa73dc6e46" y="198.139041"/>
     <use style="fill:#1f77b4;stroke:#1f77b4;" x="256.588352" xlink:href="#mfa73dc6e46" y="191.254706"/>
     <use style="fill:#1f77b4;stroke:#1f77b4;" x="257.364527" xlink:href="#mfa73dc6e46" y="192.238182"/>
     <use style="fill:#1f77b4;stroke:#1f77b4;" x="258.846316" xlink:href="#mfa73dc6e46" y="193.713397"/>
     <use style="fill:#1f77b4;stroke:#1f77b4;" x="258.893357" xlink:href="#mfa73dc6e46" y="196.172088"/>
     <use style="fill:#1f77b4;stroke:#1f77b4;" x="259.740094" xlink:href="#mfa73dc6e46" y="198.630779"/>
     <use style="fill:#1f77b4;stroke:#1f77b4;" x="261.245403" xlink:href="#mfa73dc6e46" y="196.172088"/>
     <use style="fill:#1f77b4;stroke:#1f77b4;" x="262.068619" xlink:href="#mfa73dc6e46" y="209.69489"/>
     <use style="fill:#1f77b4;stroke:#1f77b4;" x="263.620969" xlink:href="#mfa73dc6e46" y="201.089471"/>
     <use style="fill:#1f77b4;stroke:#1f77b4;" x="263.691531" xlink:href="#mfa73dc6e46" y="205.515115"/>
     <use style="fill:#1f77b4;stroke:#1f77b4;" x="264.444185" xlink:href="#mfa73dc6e46" y="215.10401"/>
     <use style="fill:#1f77b4;stroke:#1f77b4;" x="266.067097" xlink:href="#mfa73dc6e46" y="218.546178"/>
     <use style="fill:#1f77b4;stroke:#1f77b4;" x="266.77271" xlink:href="#mfa73dc6e46" y="231.82311"/>
     <use style="fill:#1f77b4;stroke:#1f77b4;" x="268.160417" xlink:href="#mfa73dc6e46" y="225.676382"/>
     <use style="fill:#1f77b4;stroke:#1f77b4;" x="268.30154" xlink:href="#mfa73dc6e46" y="220.759"/>
     <use style="fill:#1f77b4;stroke:#1f77b4;" x="269.171797" xlink:href="#mfa73dc6e46" y="230.593765"/>
     <use style="fill:#1f77b4;stroke:#1f77b4;" x="270.583025" xlink:href="#mfa73dc6e46" y="237.969838"/>
     <use style="fill:#1f77b4;stroke:#1f77b4;" x="270.700627" xlink:href="#mfa73dc6e46" y="228.135074"/>
     <use style="fill:#1f77b4;stroke:#1f77b4;" x="271.500322" xlink:href="#mfa73dc6e46" y="246.821126"/>
     <use style="fill:#1f77b4;stroke:#1f77b4;" x="273.005632" xlink:href="#mfa73dc6e46" y="250.263294"/>
     <use style="fill:#1f77b4;stroke:#1f77b4;" x="273.146754" xlink:href="#mfa73dc6e46" y="255.180676"/>
     <use style="fill:#1f77b4;stroke:#1f77b4;" x="273.875889" xlink:href="#mfa73dc6e46" y="249.525687"/>
     <use style="fill:#1f77b4;stroke:#1f77b4;" x="275.428239" xlink:href="#mfa73dc6e46" y="260.098059"/>
     <use style="fill:#1f77b4;stroke:#1f77b4;" x="275.4988" xlink:href="#mfa73dc6e46" y="257.639368"/>
     <use style="fill:#1f77b4;stroke:#1f77b4;" x="276.204414" xlink:href="#mfa73dc6e46" y="258.622844"/>
     <use style="fill:#1f77b4;stroke:#1f77b4;" x="277.662682" xlink:href="#mfa73dc6e46" y="252.721985"/>
     <use style="fill:#1f77b4;stroke:#1f77b4;" x="277.709723" xlink:href="#mfa73dc6e46" y="260.098059"/>
     <use style="fill:#1f77b4;stroke:#1f77b4;" x="278.55646" xlink:href="#mfa73dc6e46" y="260.098059"/>
     <use style="fill:#1f77b4;stroke:#1f77b4;" x="280.038249" xlink:href="#mfa73dc6e46" y="255.180676"/>
     <use style="fill:#1f77b4;stroke:#1f77b4;" x="280.155851" xlink:href="#mfa73dc6e46" y="257.639368"/>
     <use style="fill:#1f77b4;stroke:#1f77b4;" x="280.932026" xlink:href="#mfa73dc6e46" y="277.063028"/>
     <use style="fill:#1f77b4;stroke:#1f77b4;" x="282.202131" xlink:href="#mfa73dc6e46" y="265.015441"/>
     <use style="fill:#1f77b4;stroke:#1f77b4;" x="282.413815" xlink:href="#mfa73dc6e46" y="269.932824"/>
     <use style="fill:#1f77b4;stroke:#1f77b4;" x="282.601978" xlink:href="#mfa73dc6e46" y="265.26131"/>
     <use style="fill:#1f77b4;stroke:#1f77b4;" x="283.260551" xlink:href="#mfa73dc6e46" y="277.308897"/>
     <use style="fill:#1f77b4;stroke:#1f77b4;" x="284.695299" xlink:href="#mfa73dc6e46" y="255.180676"/>
     <use style="fill:#1f77b4;stroke:#1f77b4;" x="284.71882" xlink:href="#mfa73dc6e46" y="246.083519"/>
     <use style="fill:#1f77b4;stroke:#1f77b4;" x="284.812901" xlink:href="#mfa73dc6e46" y="260.098059"/>
     <use style="fill:#1f77b4;stroke:#1f77b4;" x="285.636117" xlink:href="#mfa73dc6e46" y="269.441085"/>
     <use style="fill:#1f77b4;stroke:#1f77b4;" x="287.235509" xlink:href="#mfa73dc6e46" y="252.721985"/>
     <use style="fill:#1f77b4;stroke:#1f77b4;" x="287.988163" xlink:href="#mfa73dc6e46" y="256.164153"/>
     <use style="fill:#1f77b4;stroke:#1f77b4;" x="289.258268" xlink:href="#mfa73dc6e46" y="265.015441"/>
     <use style="fill:#1f77b4;stroke:#1f77b4;" x="289.305309" xlink:href="#mfa73dc6e46" y="257.639368"/>
     <use style="fill:#1f77b4;stroke:#1f77b4;" x="290.340209" xlink:href="#mfa73dc6e46" y="262.065012"/>
     <use style="fill:#1f77b4;stroke:#1f77b4;" x="291.845518" xlink:href="#mfa73dc6e46" y="255.180676"/>
     <use style="fill:#1f77b4;stroke:#1f77b4;" x="292.692255" xlink:href="#mfa73dc6e46" y="246.329388"/>
     <use style="fill:#1f77b4;stroke:#1f77b4;" x="294.103482" xlink:href="#mfa73dc6e46" y="233.052456"/>
     <use style="fill:#1f77b4;stroke:#1f77b4;" x="295.02078" xlink:href="#mfa73dc6e46" y="227.889204"/>
     <use style="fill:#1f77b4;stroke:#1f77b4;" x="296.432007" xlink:href="#mfa73dc6e46" y="235.511147"/>
     <use style="fill:#1f77b4;stroke:#1f77b4;" x="297.372826" xlink:href="#mfa73dc6e46" y="233.052456"/>
     <use style="fill:#1f77b4;stroke:#1f77b4;" x="298.737012" xlink:href="#mfa73dc6e46" y="223.955299"/>
     <use style="fill:#1f77b4;stroke:#1f77b4;" x="298.784053" xlink:href="#mfa73dc6e46" y="215.841618"/>
     <use style="fill:#1f77b4;stroke:#1f77b4;" x="299.748392" xlink:href="#mfa73dc6e46" y="230.347896"/>
     <use style="fill:#1f77b4;stroke:#1f77b4;" x="301.089058" xlink:href="#mfa73dc6e46" y="208.465544"/>
     <use style="fill:#1f77b4;stroke:#1f77b4;" x="301.253701" xlink:href="#mfa73dc6e46" y="214.366403"/>
     <use style="fill:#1f77b4;stroke:#1f77b4;" x="302.076917" xlink:href="#mfa73dc6e46" y="224.447037"/>
     <use style="fill:#1f77b4;stroke:#1f77b4;" x="303.605747" xlink:href="#mfa73dc6e46" y="235.511147"/>
     <use style="fill:#1f77b4;stroke:#1f77b4;" x="303.699829" xlink:href="#mfa73dc6e46" y="193.467528"/>
     <use style="fill:#1f77b4;stroke:#1f77b4;" x="304.428963" xlink:href="#mfa73dc6e46" y="235.511147"/>
     <use style="fill:#1f77b4;stroke:#1f77b4;" x="305.81667" xlink:href="#mfa73dc6e46" y="230.593765"/>
     <use style="fill:#1f77b4;stroke:#1f77b4;" x="305.84019" xlink:href="#mfa73dc6e46" y="187.812538"/>
     <use style="fill:#1f77b4;stroke:#1f77b4;" x="306.075395" xlink:href="#mfa73dc6e46" y="223.709429"/>
     <use style="fill:#1f77b4;stroke:#1f77b4;" x="308.333359" xlink:href="#mfa73dc6e46" y="233.052456"/>
     <use style="fill:#1f77b4;stroke:#1f77b4;" x="309.133055" xlink:href="#mfa73dc6e46" y="212.645319"/>
     <use style="fill:#1f77b4;stroke:#1f77b4;" x="310.497241" xlink:href="#mfa73dc6e46" y="218.300309"/>
     <use style="fill:#1f77b4;stroke:#1f77b4;" x="310.614843" xlink:href="#mfa73dc6e46" y="223.217691"/>
     <use style="fill:#1f77b4;stroke:#1f77b4;" x="312.755205" xlink:href="#mfa73dc6e46" y="215.841618"/>
     <use style="fill:#1f77b4;stroke:#1f77b4;" x="317.482817" xlink:href="#mfa73dc6e46" y="215.841618"/>
     <use style="fill:#1f77b4;stroke:#1f77b4;" x="317.576899" xlink:href="#mfa73dc6e46" y="225.676382"/>
     <use style="fill:#1f77b4;stroke:#1f77b4;" x="322.28099" xlink:href="#mfa73dc6e46" y="223.217691"/>
     <use style="fill:#1f77b4;stroke:#1f77b4;" x="322.375072" xlink:href="#mfa73dc6e46" y="225.676382"/>
     <use style="fill:#1f77b4;stroke:#1f77b4;" x="322.375072" xlink:href="#mfa73dc6e46" y="231.577241"/>
     <use style="fill:#1f77b4;stroke:#1f77b4;" x="323.221809" xlink:href="#mfa73dc6e46" y="218.792047"/>
     <use style="fill:#1f77b4;stroke:#1f77b4;" x="324.727118" xlink:href="#mfa73dc6e46" y="220.759"/>
     <use style="fill:#1f77b4;stroke:#1f77b4;" x="325.573854" xlink:href="#mfa73dc6e46" y="226.659859"/>
     <use style="fill:#1f77b4;stroke:#1f77b4;" x="327.032123" xlink:href="#mfa73dc6e46" y="233.052456"/>
     <use style="fill:#1f77b4;stroke:#1f77b4;" x="327.996461" xlink:href="#mfa73dc6e46" y="222.234215"/>
     <use style="fill:#1f77b4;stroke:#1f77b4;" x="329.431209" xlink:href="#mfa73dc6e46" y="235.511147"/>
     <use style="fill:#1f77b4;stroke:#1f77b4;" x="330.301466" xlink:href="#mfa73dc6e46" y="233.052456"/>
     <use style="fill:#1f77b4;stroke:#1f77b4;" x="332.653512" xlink:href="#mfa73dc6e46" y="228.626812"/>
     <use style="fill:#1f77b4;stroke:#1f77b4;" x="335.005558" xlink:href="#mfa73dc6e46" y="231.577241"/>
     <use style="fill:#1f77b4;stroke:#1f77b4;" x="336.346224" xlink:href="#mfa73dc6e46" y="245.345912"/>
     <use style="fill:#1f77b4;stroke:#1f77b4;" x="337.334083" xlink:href="#mfa73dc6e46" y="230.593765"/>
     <use style="fill:#1f77b4;stroke:#1f77b4;" x="338.745311" xlink:href="#mfa73dc6e46" y="245.345912"/>
     <use style="fill:#1f77b4;stroke:#1f77b4;" x="339.709649" xlink:href="#mfa73dc6e46" y="229.856157"/>
     <use style="fill:#1f77b4;stroke:#1f77b4;" x="342.061695" xlink:href="#mfa73dc6e46" y="235.511147"/>
     <use style="fill:#1f77b4;stroke:#1f77b4;" x="343.284759" xlink:href="#mfa73dc6e46" y="252.721985"/>
     <use style="fill:#1f77b4;stroke:#1f77b4;" x="343.449402" xlink:href="#mfa73dc6e46" y="245.345912"/>
     <use style="fill:#1f77b4;stroke:#1f77b4;" x="345.730886" xlink:href="#mfa73dc6e46" y="247.804603"/>
     <use style="fill:#1f77b4;stroke:#1f77b4;" x="349.117832" xlink:href="#mfa73dc6e46" y="240.920268"/>
     <use style="fill:#1f77b4;stroke:#1f77b4;" x="352.763503" xlink:href="#mfa73dc6e46" y="255.180676"/>
     <use style="fill:#1f77b4;stroke:#1f77b4;" x="352.787024" xlink:href="#mfa73dc6e46" y="227.643335"/>
     <use style="fill:#1f77b4;stroke:#1f77b4;" x="352.857585" xlink:href="#mfa73dc6e46" y="262.55675"/>
     <use style="fill:#1f77b4;stroke:#1f77b4;" x="353.821924" xlink:href="#mfa73dc6e46" y="249.279818"/>
     <use style="fill:#1f77b4;stroke:#1f77b4;" x="355.209631" xlink:href="#mfa73dc6e46" y="255.180676"/>
     <use style="fill:#1f77b4;stroke:#1f77b4;" x="355.256672" xlink:href="#mfa73dc6e46" y="249.279818"/>
     <use style="fill:#1f77b4;stroke:#1f77b4;" x="356.17397" xlink:href="#mfa73dc6e46" y="232.560718"/>
     <use style="fill:#1f77b4;stroke:#1f77b4;" x="358.502495" xlink:href="#mfa73dc6e46" y="240.674399"/>
     <use style="fill:#1f77b4;stroke:#1f77b4;" x="359.937243" xlink:href="#mfa73dc6e46" y="269.932824"/>
     <use style="fill:#1f77b4;stroke:#1f77b4;" x="360.783979" xlink:href="#mfa73dc6e46" y="237.723969"/>
     <use style="fill:#1f77b4;stroke:#1f77b4;" x="363.183066" xlink:href="#mfa73dc6e46" y="257.885237"/>
     <use style="fill:#1f77b4;stroke:#1f77b4;" x="365.558632" xlink:href="#mfa73dc6e46" y="237.969838"/>
     <use style="fill:#1f77b4;stroke:#1f77b4;" x="367.934198" xlink:href="#mfa73dc6e46" y="252.721985"/>
     <use style="fill:#1f77b4;stroke:#1f77b4;" x="377.342381" xlink:href="#mfa73dc6e46" y="252.230247"/>
     <use style="fill:#1f77b4;stroke:#1f77b4;" x="378.706568" xlink:href="#mfa73dc6e46" y="257.639368"/>
     <use style="fill:#1f77b4;stroke:#1f77b4;" x="383.387139" xlink:href="#mfa73dc6e46" y="235.511147"/>
     <use style="fill:#1f77b4;stroke:#1f77b4;" x="388.138271" xlink:href="#mfa73dc6e46" y="242.887221"/>
     <use style="fill:#1f77b4;stroke:#1f77b4;" x="392.842363" xlink:href="#mfa73dc6e46" y="240.428529"/>
     <use style="fill:#1f77b4;stroke:#1f77b4;" x="393.783181" xlink:href="#mfa73dc6e46" y="175.764951"/>
     <use style="fill:#1f77b4;stroke:#1f77b4;" x="395.170888" xlink:href="#mfa73dc6e46" y="228.135074"/>
     <use style="fill:#1f77b4;stroke:#1f77b4;" x="398.487273" xlink:href="#mfa73dc6e46" y="220.267262"/>
    </g>
   </g>
   <g id="line2d_18">
    <defs>
     <path d="M 0 3 
C 0.795609 3 1.55874 2.683901 2.12132 2.12132 
C 2.683901 1.55874 3 0.795609 3 0 
C 3 -0.795609 2.683901 -1.55874 2.12132 -2.12132 
C 1.55874 -2.683901 0.795609 -3 0 -3 
C -0.795609 -3 -1.55874 -2.683901 -2.12132 -2.12132 
C -2.683901 -1.55874 -3 -0.795609 -3 0 
C -3 0.795609 -2.683901 1.55874 -2.12132 2.12132 
C -1.55874 2.683901 -0.795609 3 0 3 
z
" id="ma99f982b57" style="stroke:#ff7f0e;"/>
    </defs>
    <g clip-path="url(#p08204f5fa6)">
     <use style="fill:#ff7f0e;stroke:#ff7f0e;" x="100.516686" xlink:href="#ma99f982b57" y="107.253642"/>
     <use style="fill:#ff7f0e;stroke:#ff7f0e;" x="102.84286" xlink:href="#ma99f982b57" y="125.130648"/>
     <use style="fill:#ff7f0e;stroke:#ff7f0e;" x="104.526924" xlink:href="#ma99f982b57" y="110.057879"/>
     <use style="fill:#ff7f0e;stroke:#ff7f0e;" x="105.312508" xlink:href="#ma99f982b57" y="137.048653"/>
     <use style="fill:#ff7f0e;stroke:#ff7f0e;" x="106.770776" xlink:href="#ma99f982b57" y="140.203418"/>
     <use style="fill:#ff7f0e;stroke:#ff7f0e;" x="107.546951" xlink:href="#ma99f982b57" y="105.150465"/>
     <use style="fill:#ff7f0e;stroke:#ff7f0e;" x="109.929573" xlink:href="#ma99f982b57" y="104.449406"/>
     <use style="fill:#ff7f0e;stroke:#ff7f0e;" x="112.276915" xlink:href="#ma99f982b57" y="135.997064"/>
     <use style="fill:#ff7f0e;stroke:#ff7f0e;" x="114.447853" xlink:href="#ma99f982b57" y="122.676942"/>
     <use style="fill:#ff7f0e;stroke:#ff7f0e;" x="119.300124" xlink:href="#ma99f982b57" y="113.913704"/>
     <use style="fill:#ff7f0e;stroke:#ff7f0e;" x="121.638057" xlink:href="#ma99f982b57" y="132.491769"/>
     <use style="fill:#ff7f0e;stroke:#ff7f0e;" x="123.171591" xlink:href="#ma99f982b57" y="130.739121"/>
     <use style="fill:#ff7f0e;stroke:#ff7f0e;" x="123.832516" xlink:href="#ma99f982b57" y="131.44018"/>
     <use style="fill:#ff7f0e;stroke:#ff7f0e;" x="125.474244" xlink:href="#ma99f982b57" y="105.150465"/>
     <use style="fill:#ff7f0e;stroke:#ff7f0e;" x="128.680082" xlink:href="#ma99f982b57" y="100.593581"/>
     <use style="fill:#ff7f0e;stroke:#ff7f0e;" x="130.180687" xlink:href="#ma99f982b57" y="117.068469"/>
     <use style="fill:#ff7f0e;stroke:#ff7f0e;" x="130.891005" xlink:href="#ma99f982b57" y="110.057879"/>
     <use style="fill:#ff7f0e;stroke:#ff7f0e;" x="134.750712" xlink:href="#ma99f982b57" y="165.792074"/>
     <use style="fill:#ff7f0e;stroke:#ff7f0e;" x="135.719755" xlink:href="#ma99f982b57" y="121.975883"/>
     <use style="fill:#ff7f0e;stroke:#ff7f0e;" x="137.126279" xlink:href="#ma99f982b57" y="146.863479"/>
     <use style="fill:#ff7f0e;stroke:#ff7f0e;" x="137.942438" xlink:href="#ma99f982b57" y="158.430954"/>
     <use style="fill:#ff7f0e;stroke:#ff7f0e;" x="162.963501" xlink:href="#ma99f982b57" y="133.543357"/>
     <use style="fill:#ff7f0e;stroke:#ff7f0e;" x="168.683676" xlink:href="#ma99f982b57" y="124.07906"/>
     <use style="fill:#ff7f0e;stroke:#ff7f0e;" x="173.526539" xlink:href="#ma99f982b57" y="145.461361"/>
     <use style="fill:#ff7f0e;stroke:#ff7f0e;" x="175.63162" xlink:href="#ma99f982b57" y="152.822481"/>
     <use style="fill:#ff7f0e;stroke:#ff7f0e;" x="178.087155" xlink:href="#ma99f982b57" y="130.038062"/>
     <use style="fill:#ff7f0e;stroke:#ff7f0e;" x="184.992762" xlink:href="#ma99f982b57" y="146.16242"/>
     <use style="fill:#ff7f0e;stroke:#ff7f0e;" x="187.342455" xlink:href="#ma99f982b57" y="135.646534"/>
     <use style="fill:#ff7f0e;stroke:#ff7f0e;" x="192.030083" xlink:href="#ma99f982b57" y="141.956066"/>
     <use style="fill:#ff7f0e;stroke:#ff7f0e;" x="194.363312" xlink:href="#ma99f982b57" y="140.553948"/>
     <use style="fill:#ff7f0e;stroke:#ff7f0e;" x="195.986224" xlink:href="#ma99f982b57" y="115.666351"/>
     <use style="fill:#ff7f0e;stroke:#ff7f0e;" x="196.713006" xlink:href="#ma99f982b57" y="127.233826"/>
     <use style="fill:#ff7f0e;stroke:#ff7f0e;" x="198.460576" xlink:href="#ma99f982b57" y="142.306595"/>
     <use style="fill:#ff7f0e;stroke:#ff7f0e;" x="210.82528" xlink:href="#ma99f982b57" y="161.936249"/>
     <use style="fill:#ff7f0e;stroke:#ff7f0e;" x="222.557284" xlink:href="#ma99f982b57" y="125.130648"/>
     <use style="fill:#ff7f0e;stroke:#ff7f0e;" x="229.589901" xlink:href="#ma99f982b57" y="125.130648"/>
     <use style="fill:#ff7f0e;stroke:#ff7f0e;" x="231.934891" xlink:href="#ma99f982b57" y="161.23519"/>
     <use style="fill:#ff7f0e;stroke:#ff7f0e;" x="234.308105" xlink:href="#ma99f982b57" y="131.79071"/>
     <use style="fill:#ff7f0e;stroke:#ff7f0e;" x="236.638982" xlink:href="#ma99f982b57" y="119.872706"/>
     <use style="fill:#ff7f0e;stroke:#ff7f0e;" x="238.254838" xlink:href="#ma99f982b57" y="172.101605"/>
     <use style="fill:#ff7f0e;stroke:#ff7f0e;" x="239.021605" xlink:href="#ma99f982b57" y="167.895251"/>
     <use style="fill:#ff7f0e;stroke:#ff7f0e;" x="240.628052" xlink:href="#ma99f982b57" y="197.690261"/>
     <use style="fill:#ff7f0e;stroke:#ff7f0e;" x="241.345426" xlink:href="#ma99f982b57" y="144.760302"/>
     <use style="fill:#ff7f0e;stroke:#ff7f0e;" x="243.735104" xlink:href="#ma99f982b57" y="129.687532"/>
     <use style="fill:#ff7f0e;stroke:#ff7f0e;" x="246.068334" xlink:href="#ma99f982b57" y="139.502359"/>
     <use style="fill:#ff7f0e;stroke:#ff7f0e;" x="248.439196" xlink:href="#ma99f982b57" y="147.214009"/>
     <use style="fill:#ff7f0e;stroke:#ff7f0e;" x="250.781833" xlink:href="#ma99f982b57" y="139.502359"/>
     <use style="fill:#ff7f0e;stroke:#ff7f0e;" x="253.124471" xlink:href="#ma99f982b57" y="157.379365"/>
     <use style="fill:#ff7f0e;stroke:#ff7f0e;" x="255.51415" xlink:href="#ma99f982b57" y="170.699487"/>
     <use style="fill:#ff7f0e;stroke:#ff7f0e;" x="257.162934" xlink:href="#ma99f982b57" y="189.628082"/>
     <use style="fill:#ff7f0e;stroke:#ff7f0e;" x="257.842675" xlink:href="#ma99f982b57" y="151.770893"/>
     <use style="fill:#ff7f0e;stroke:#ff7f0e;" x="259.303295" xlink:href="#ma99f982b57" y="178.411137"/>
     <use style="fill:#ff7f0e;stroke:#ff7f0e;" x="260.218241" xlink:href="#ma99f982b57" y="154.224599"/>
     <use style="fill:#ff7f0e;stroke:#ff7f0e;" x="262.565583" xlink:href="#ma99f982b57" y="182.266962"/>
     <use style="fill:#ff7f0e;stroke:#ff7f0e;" x="264.927037" xlink:href="#ma99f982b57" y="179.813255"/>
     <use style="fill:#ff7f0e;stroke:#ff7f0e;" x="267.255562" xlink:href="#ma99f982b57" y="213.46409"/>
     <use style="fill:#ff7f0e;stroke:#ff7f0e;" x="269.602904" xlink:href="#ma99f982b57" y="260.435047"/>
     <use style="fill:#ff7f0e;stroke:#ff7f0e;" x="271.952597" xlink:href="#ma99f982b57" y="237.300098"/>
     <use style="fill:#ff7f0e;stroke:#ff7f0e;" x="273.314432" xlink:href="#ma99f982b57" y="224.330505"/>
     <use style="fill:#ff7f0e;stroke:#ff7f0e;" x="274.309347" xlink:href="#ma99f982b57" y="215.567267"/>
     <use style="fill:#ff7f0e;stroke:#ff7f0e;" x="275.814656" xlink:href="#ma99f982b57" y="217.670444"/>
     <use style="fill:#ff7f0e;stroke:#ff7f0e;" x="276.661393" xlink:href="#ma99f982b57" y="249.919161"/>
     <use style="fill:#ff7f0e;stroke:#ff7f0e;" x="278.281952" xlink:href="#ma99f982b57" y="246.413866"/>
     <use style="fill:#ff7f0e;stroke:#ff7f0e;" x="278.994622" xlink:href="#ma99f982b57" y="233.794803"/>
     <use style="fill:#ff7f0e;stroke:#ff7f0e;" x="280.655167" xlink:href="#ma99f982b57" y="278.312053"/>
     <use style="fill:#ff7f0e;stroke:#ff7f0e;" x="283.708122" xlink:href="#ma99f982b57" y="268.497226"/>
     <use style="fill:#ff7f0e;stroke:#ff7f0e;" x="296.95014" xlink:href="#ma99f982b57" y="189.628082"/>
     <use style="fill:#ff7f0e;stroke:#ff7f0e;" x="297.792172" xlink:href="#ma99f982b57" y="255.527634"/>
     <use style="fill:#ff7f0e;stroke:#ff7f0e;" x="300.153626" xlink:href="#ma99f982b57" y="262.888754"/>
     <use style="fill:#ff7f0e;stroke:#ff7f0e;" x="302.562121" xlink:href="#ma99f982b57" y="223.278917"/>
     <use style="fill:#ff7f0e;stroke:#ff7f0e;" x="304.864774" xlink:href="#ma99f982b57" y="246.063336"/>
     <use style="fill:#ff7f0e;stroke:#ff7f0e;" x="307.235636" xlink:href="#ma99f982b57" y="196.638673"/>
     <use style="fill:#ff7f0e;stroke:#ff7f0e;" x="309.571217" xlink:href="#ma99f982b57" y="222.577858"/>
     <use style="fill:#ff7f0e;stroke:#ff7f0e;" x="311.911503" xlink:href="#ma99f982b57" y="215.567267"/>
     <use style="fill:#ff7f0e;stroke:#ff7f0e;" x="314.294125" xlink:href="#ma99f982b57" y="230.990567"/>
     <use style="fill:#ff7f0e;stroke:#ff7f0e;" x="316.641467" xlink:href="#ma99f982b57" y="219.072562"/>
     <use style="fill:#ff7f0e;stroke:#ff7f0e;" x="323.690548" xlink:href="#ma99f982b57" y="238.702216"/>
     <use style="fill:#ff7f0e;stroke:#ff7f0e;" x="327.355035" xlink:href="#ma99f982b57" y="268.847756"/>
     <use style="fill:#ff7f0e;stroke:#ff7f0e;" x="328.387583" xlink:href="#ma99f982b57" y="289.879528"/>
     <use style="fill:#ff7f0e;stroke:#ff7f0e;" x="329.841147" xlink:href="#ma99f982b57" y="233.444273"/>
     <use style="fill:#ff7f0e;stroke:#ff7f0e;" x="330.739629" xlink:href="#ma99f982b57" y="275.858346"/>
     <use style="fill:#ff7f0e;stroke:#ff7f0e;" x="333.079914" xlink:href="#ma99f982b57" y="250.62022"/>
     <use style="fill:#ff7f0e;stroke:#ff7f0e;" x="335.363751" xlink:href="#ma99f982b57" y="287.77635"/>
     <use style="fill:#ff7f0e;stroke:#ff7f0e;" x="337.767542" xlink:href="#ma99f982b57" y="242.207511"/>
     <use style="fill:#ff7f0e;stroke:#ff7f0e;" x="340.126644" xlink:href="#ma99f982b57" y="295.488"/>
     <use style="fill:#ff7f0e;stroke:#ff7f0e;" x="342.497506" xlink:href="#ma99f982b57" y="279.363642"/>
     <use style="fill:#ff7f0e;stroke:#ff7f0e;" x="351.908041" xlink:href="#ma99f982b57" y="284.621585"/>
     <use style="fill:#ff7f0e;stroke:#ff7f0e;" x="368.360601" xlink:href="#ma99f982b57" y="268.497226"/>
     <use style="fill:#ff7f0e;stroke:#ff7f0e;" x="373.05058" xlink:href="#ma99f982b57" y="280.41523"/>
    </g>
   </g>
   <g id="line2d_19">
    <path clip-path="url(#p08204f5fa6)" d="M 99.260012 88.559174 
L 100.456921 90.327928 
L 101.055375 90.411819 
L 101.354603 90.40918 
L 101.65383 90.655225 
L 102.850739 97.75283 
L 104.047648 102.055957 
L 105.244557 108.595587 
L 106.142239 111.187118 
L 106.441466 111.511806 
L 106.740693 110.889052 
L 108.835284 103.708036 
L 110.630648 101.099377 
L 110.929875 100.628029 
L 111.229102 100.842563 
L 112.126784 103.042324 
L 112.426011 103.331589 
L 113.323693 102.947177 
L 114.520602 104.772444 
L 115.418284 104.762851 
L 115.717511 104.531375 
L 117.812102 106.116203 
L 118.111329 106.1939 
L 120.20592 114.780686 
L 120.505147 115.383864 
L 121.702056 114.431491 
L 122.599738 112.326258 
L 122.898965 112.422246 
L 123.198193 112.652622 
L 123.796647 112.552887 
L 124.993556 110.348715 
L 126.78892 106.632168 
L 127.088147 106.110062 
L 127.387374 106.217189 
L 129.182738 110.339683 
L 129.781192 111.791057 
L 130.678874 110.160492 
L 131.277329 109.98792 
L 131.875783 109.905564 
L 132.773465 110.589071 
L 133.072692 110.981068 
L 134.269601 113.779878 
L 134.568829 113.767247 
L 134.868056 113.38721 
L 135.46651 111.680275 
L 135.765738 111.246242 
L 136.962647 108.525997 
L 137.261874 109.049306 
L 137.561101 109.213436 
L 137.860328 109.902752 
L 138.159556 110.164913 
L 139.057238 109.826925 
L 139.356465 109.931132 
L 140.254147 110.850542 
L 141.451056 112.400825 
L 142.348737 115.235143 
L 143.844874 120.093728 
L 145.939465 131.23095 
L 146.537919 132.784023 
L 147.136374 133.856564 
L 148.63251 133.671653 
L 149.230964 134.036952 
L 150.727101 137.278831 
L 153.120919 144.551073 
L 153.420146 144.976336 
L 154.018601 144.165634 
L 154.317828 144.172298 
L 155.21551 144.733293 
L 155.514737 145.086832 
L 155.813964 144.94536 
L 156.412419 144.251433 
L 157.908555 143.959445 
L 160.302373 146.251016 
L 161.798509 149.768223 
L 162.396964 151.053148 
L 162.995418 153.167051 
L 163.294646 154.589609 
L 164.192327 162.05153 
L 164.790782 167.240557 
L 165.090009 167.767222 
L 167.483827 157.964648 
L 168.680736 154.573729 
L 169.578418 154.521508 
L 169.877645 154.762655 
L 173.468373 161.828956 
L 175.862191 169.745451 
L 176.759872 174.296458 
L 177.956781 169.10033 
L 178.256009 168.39481 
L 178.854463 167.900519 
L 179.15369 168.573307 
L 181.248281 178.937386 
L 181.547509 179.501382 
L 184.240554 169.761501 
L 185.138236 167.228932 
L 186.035917 166.208489 
L 186.335145 165.405157 
L 187.532054 159.852798 
L 188.728963 156.31005 
L 190.823554 145.225676 
L 192.020463 142.664217 
L 193.217372 140.260232 
L 194.115054 141.694361 
L 195.61119 135.039584 
L 196.209644 133.535593 
L 197.107326 131.967258 
L 198.005008 130.642633 
L 198.304235 130.828008 
L 198.90269 131.942408 
L 199.201917 131.766922 
L 199.800371 131.069864 
L 200.099599 131.037181 
L 202.19419 140.319165 
L 202.792644 142.866053 
L 203.091871 142.04153 
L 203.690326 139.85195 
L 204.588008 137.654526 
L 204.887235 137.2448 
L 208.477962 141.063401 
L 209.674871 142.267713 
L 210.572553 144.213211 
L 210.87178 144.55034 
L 212.667144 144.077834 
L 213.265598 143.557692 
L 214.462507 142.366927 
L 215.060962 142.333352 
L 217.45478 142.604895 
L 218.651689 138.641559 
L 218.950916 139.063418 
L 219.848598 141.966493 
L 221.344734 141.876302 
L 221.643962 141.98697 
L 221.943189 141.814991 
L 222.242416 141.990978 
L 222.541643 142.75257 
L 223.738552 147.396608 
L 224.03778 147.088648 
L 227.030052 146.363369 
L 228.226961 145.908896 
L 228.526189 146.484999 
L 229.723098 155.373569 
L 230.920007 167.270668 
L 232.416143 173.767694 
L 234.211506 182.732632 
L 235.109188 190.977809 
L 235.408416 193.877516 
L 236.306097 184.463638 
L 236.605325 183.704074 
L 237.203779 185.47321 
L 238.101461 188.046704 
L 238.999143 184.560399 
L 240.196052 181.857305 
L 242.290643 164.827063 
L 242.58987 163.91374 
L 243.786779 168.125907 
L 244.385233 172.223687 
L 244.684461 173.355521 
L 245.88137 171.696611 
L 246.180597 171.616195 
L 246.779051 172.585897 
L 247.078279 172.147919 
L 247.377506 171.353328 
L 247.97596 170.581923 
L 248.275188 170.519094 
L 248.574415 170.758494 
L 249.472097 172.657347 
L 250.669006 176.485549 
L 251.26746 180.116811 
L 251.566688 182.131945 
L 251.865915 182.642345 
L 253.062824 182.398062 
L 253.661278 183.547046 
L 253.960506 184.194566 
L 255.157415 188.863162 
L 255.456642 188.893174 
L 256.055097 189.920295 
L 256.653551 190.926122 
L 257.551233 190.825472 
L 257.85046 190.686897 
L 258.748142 193.490972 
L 259.047369 194.030306 
L 259.346596 194.192942 
L 259.645824 194.597703 
L 260.244278 194.570891 
L 261.441187 198.74874 
L 262.039642 201.392299 
L 262.638096 201.830047 
L 263.535778 203.811743 
L 264.134233 207.24447 
L 264.43346 209.130334 
L 265.031914 211.473555 
L 266.827278 222.596143 
L 267.425732 223.565608 
L 268.323414 225.420945 
L 269.819551 234.773496 
L 270.717232 238.13494 
L 271.614914 243.39537 
L 272.512596 247.471611 
L 273.11105 250.118887 
L 273.410278 250.175186 
L 274.008732 250.830006 
L 274.307959 251.302536 
L 275.504868 257.206952 
L 275.804096 256.749892 
L 276.40255 257.131141 
L 276.701778 257.195259 
L 277.898687 258.326977 
L 278.197914 258.095196 
L 278.497141 258.033049 
L 279.095596 257.566546 
L 279.993277 257.928102 
L 280.292505 259.7308 
L 280.890959 264.854147 
L 281.190186 265.238707 
L 282.087868 265.50543 
L 282.387095 266.159025 
L 282.98555 266.871666 
L 283.284777 267.06758 
L 284.780914 259.884712 
L 285.678595 261.968876 
L 287.174732 259.415459 
L 287.473959 259.477053 
L 287.773186 259.684554 
L 288.072413 260.068 
L 289.269323 263.291474 
L 291.064686 256.204718 
L 291.962368 251.780592 
L 294.056959 238.899897 
L 294.95464 234.613667 
L 295.553095 233.621979 
L 296.450777 232.439005 
L 297.049231 230.762494 
L 297.348459 230.561609 
L 297.647686 229.992471 
L 297.946913 228.950753 
L 298.844595 224.965405 
L 299.742277 226.009678 
L 300.041504 225.679383 
L 300.340731 224.565765 
L 300.939186 221.416899 
L 301.238413 221.017631 
L 303.931458 230.721988 
L 304.230686 232.487635 
L 304.529913 233.164195 
L 305.128367 229.817083 
L 306.026049 224.46778 
L 307.222958 220.381369 
L 308.419867 219.103151 
L 309.018322 218.034144 
L 309.317549 217.981421 
L 309.916004 218.315093 
L 310.514458 218.553831 
L 310.813685 218.475341 
L 312.609049 216.365132 
L 312.908276 216.368845 
L 314.404412 217.792242 
L 317.097458 216.785073 
L 317.396685 216.620073 
L 322.184321 224.607521 
L 322.483548 224.795769 
L 323.082003 223.554993 
L 323.38123 223.293888 
L 323.680458 223.347822 
L 324.578139 222.066951 
L 324.877367 222.590528 
L 326.971957 232.439151 
L 327.271185 233.345589 
L 327.570412 233.602862 
L 327.869639 233.653412 
L 328.468094 235.975112 
L 329.365775 235.75862 
L 329.96423 236.35634 
L 330.263457 236.742573 
L 330.562685 237.651078 
L 330.861912 238.108606 
L 332.657275 236.29593 
L 333.25573 237.885289 
L 334.751866 240.345928 
L 335.051093 241.062106 
L 335.350321 243.02422 
L 336.248002 244.386906 
L 336.54723 243.862146 
L 337.145684 241.878409 
L 337.444912 241.518331 
L 338.641821 244.381394 
L 338.941048 244.281683 
L 339.539502 243.219278 
L 339.83873 243.589546 
L 340.137957 245.082614 
L 341.93332 244.070074 
L 342.232548 244.676969 
L 342.531775 245.734371 
L 343.130229 245.807808 
L 343.429457 245.683431 
L 344.626366 246.675408 
L 345.823275 247.61141 
L 349.114775 247.060979 
L 351.80782 255.454821 
L 352.107047 255.731623 
L 353.004729 255.663239 
L 353.902411 253.095512 
L 355.09932 252.080208 
L 355.398547 251.001294 
L 355.997002 247.935163 
L 356.296229 247.347895 
L 358.39082 252.822309 
L 358.989274 257.625025 
L 359.886956 265.944438 
L 360.186183 263.613546 
L 360.784638 256.896873 
L 363.178456 254.545719 
L 365.572274 247.734727 
L 368.564547 254.571409 
L 373.052956 259.374012 
L 377.541364 253.568407 
L 378.738274 252.909042 
L 383.825137 241.965726 
L 388.014319 234.964654 
L 388.612773 233.068555 
L 392.801955 218.167399 
L 393.699637 207.988917 
L 393.998864 207.513597 
L 395.495 210.828832 
L 398.487273 216.220594 
L 398.487273 216.220594 
" style="fill:none;stroke:#2ca02c;stroke-linecap:square;stroke-width:1.5;"/>
   </g>
   <g id="line2d_20">
    <path clip-path="url(#p08204f5fa6)" d="M 73.832727 97.454296 
L 86.101045 93.296355 
L 97.770908 89.110205 
L 99.267044 88.569574 
L 100.463953 90.338314 
L 101.062408 90.411759 
L 101.361635 90.409116 
L 101.660863 90.697051 
L 102.857772 97.77704 
L 104.054681 102.095622 
L 105.25159 108.633182 
L 106.149271 111.206001 
L 106.448499 111.497171 
L 106.747726 110.874415 
L 108.54309 104.33168 
L 109.141544 103.28705 
L 110.63768 101.0883 
L 110.936908 100.616949 
L 111.236135 100.859801 
L 112.133817 103.059553 
L 112.433044 103.327885 
L 113.330726 102.956766 
L 114.527635 104.772373 
L 115.425317 104.762771 
L 115.724544 104.536707 
L 118.118362 106.223718 
L 120.212953 114.795266 
L 120.51218 115.378888 
L 121.709089 114.415002 
L 122.606771 112.309762 
L 123.504453 112.601637 
L 123.80368 112.551712 
L 125.000589 110.335395 
L 126.795952 106.619898 
L 127.09518 106.097789 
L 127.394407 106.232313 
L 128.890543 109.530526 
L 129.788225 111.777663 
L 130.685907 110.147119 
L 131.284361 109.986955 
L 131.882816 109.904594 
L 133.079725 110.997676 
L 134.276634 113.779582 
L 134.575861 113.766949 
L 134.875088 113.364896 
L 135.473543 111.671124 
L 135.77277 111.230264 
L 136.969679 108.542116 
L 137.268907 109.053165 
L 137.568134 109.217292 
L 137.867361 109.932195 
L 138.166588 110.162269 
L 139.06427 109.824273 
L 139.363497 109.938097 
L 139.961952 110.466966 
L 141.458088 112.402649 
L 142.35577 115.25859 
L 143.851906 120.110289 
L 145.946497 131.266876 
L 146.544952 132.798107 
L 147.143406 133.855713 
L 148.639542 133.669983 
L 149.237997 134.041716 
L 150.734133 137.294307 
L 153.127951 144.572435 
L 153.427179 144.96681 
L 154.025633 144.156107 
L 154.32486 144.176694 
L 155.222542 144.737686 
L 155.521769 145.10456 
L 155.820997 144.935977 
L 156.419451 144.250063 
L 157.915588 143.95807 
L 160.309406 146.268668 
L 161.805542 149.783323 
L 162.403996 151.068247 
L 163.002451 153.200485 
L 163.301678 154.623043 
L 164.19936 162.112508 
L 164.797815 167.301534 
L 165.097042 167.737807 
L 167.49086 157.944725 
L 168.687769 154.565199 
L 169.585451 154.521162 
L 169.884678 154.776498 
L 173.475405 161.842794 
L 175.869223 169.777374 
L 176.766905 174.266579 
L 177.963814 169.069796 
L 178.263041 168.389001 
L 178.861496 167.89471 
L 179.160723 168.608103 
L 181.255314 178.972185 
L 181.554541 179.474973 
L 184.247587 169.739369 
L 185.145268 167.220938 
L 186.04295 166.200495 
L 186.342177 165.370018 
L 187.539086 159.833539 
L 188.735995 156.272836 
L 190.830586 145.188457 
L 192.326723 142.048706 
L 193.224404 140.246706 
L 194.122086 141.680455 
L 195.618222 135.021192 
L 196.216677 133.521809 
L 197.114359 131.956883 
L 198.012041 130.632253 
L 198.311268 130.844479 
L 198.909722 131.954309 
L 199.20895 131.758733 
L 199.807404 131.061671 
L 200.106631 131.069812 
L 202.201222 140.349096 
L 202.799677 142.895981 
L 203.098904 142.01191 
L 203.697359 139.834737 
L 204.59504 137.637309 
L 204.894268 137.252552 
L 208.484995 141.070479 
L 209.681904 142.274787 
L 210.579586 144.222933 
L 210.878813 144.548493 
L 212.674176 144.075979 
L 213.272631 143.550697 
L 214.46954 142.359928 
L 215.067994 142.3342 
L 217.461813 142.58161 
L 218.658722 138.618269 
L 218.957949 139.088131 
L 219.855631 141.96588 
L 221.351767 141.89694 
L 221.650994 141.982929 
L 221.950221 141.810948 
L 222.249449 142.008878 
L 222.548676 142.770469 
L 223.745585 147.384096 
L 224.044812 147.087183 
L 227.037085 146.3607 
L 228.233994 145.906224 
L 228.533221 146.535158 
L 229.73013 155.442313 
L 230.927039 167.299038 
L 232.123948 172.308719 
L 234.218539 182.76775 
L 235.116221 191.045959 
L 235.415448 193.945668 
L 236.31313 184.445786 
L 236.612357 183.686223 
L 237.510039 186.478903 
L 237.809266 187.461542 
L 238.108494 188.014047 
L 239.006175 184.534189 
L 240.203084 181.798825 
L 242.297675 164.777886 
L 242.596902 163.937433 
L 243.793811 168.174061 
L 244.392266 172.271842 
L 244.691493 173.347624 
L 245.888402 171.686744 
L 246.18763 171.62759 
L 246.786084 172.597292 
L 247.085311 172.110632 
L 247.384539 171.344263 
L 247.982993 170.576278 
L 248.28222 170.517717 
L 248.581448 170.772615 
L 249.479129 172.679839 
L 250.676038 176.508043 
L 251.274493 180.164172 
L 251.57372 182.179306 
L 251.872948 182.640908 
L 253.069857 182.396628 
L 253.668311 183.562264 
L 253.967538 184.209785 
L 255.164447 188.863867 
L 255.463675 188.89388 
L 256.660584 190.925999 
L 257.558265 190.821541 
L 257.857493 190.708863 
L 258.755175 193.512942 
L 259.054402 194.033165 
L 259.353629 194.202454 
L 259.652856 194.607216 
L 260.251311 194.594162 
L 261.44822 198.779804 
L 262.046674 201.423366 
L 262.645129 201.84557 
L 263.542811 203.82727 
L 264.141265 207.288792 
L 264.440492 209.174657 
L 265.038947 211.518374 
L 266.834311 222.605554 
L 267.432765 223.581984 
L 268.330447 225.467206 
L 269.826583 234.800785 
L 270.724265 238.178013 
L 271.621947 243.423831 
L 272.519629 247.505641 
L 273.118083 250.136317 
L 273.41731 250.181906 
L 274.015765 250.84111 
L 274.314992 251.334213 
L 275.511901 257.196208 
L 275.811128 256.739152 
L 276.110356 257.019254 
L 277.008037 257.472267 
L 277.905719 258.321528 
L 278.204946 258.089751 
L 278.504174 258.033146 
L 279.102628 257.569372 
L 280.00031 257.930941 
L 280.299537 259.795835 
L 280.897992 264.906923 
L 281.197219 265.24079 
L 282.094901 265.507527 
L 282.394128 266.182581 
L 282.992583 266.879759 
L 283.29181 267.032563 
L 284.787946 259.906876 
L 285.685628 261.956863 
L 287.181764 259.403467 
L 287.480992 259.481928 
L 287.780219 259.689433 
L 288.079446 260.087555 
L 289.276355 263.243552 
L 290.772491 257.579918 
L 291.9694 251.735453 
L 294.063991 238.857668 
L 294.961673 234.580566 
L 295.560128 233.612994 
L 296.457809 232.416329 
L 297.056264 230.757771 
L 297.355491 230.55689 
L 297.654718 229.978329 
L 298.253173 227.464137 
L 298.851627 224.973582 
L 299.749309 226.01574 
L 300.048537 225.671289 
L 300.646991 222.954272 
L 300.946218 221.379898 
L 301.245446 221.03596 
L 303.938491 230.763484 
L 304.237718 232.529134 
L 304.536945 233.129817 
L 305.1354 229.771455 
L 306.033082 224.441808 
L 307.229991 220.357448 
L 308.4269 219.090587 
L 309.025354 218.021584 
L 309.324582 217.987223 
L 309.923036 218.317631 
L 310.521491 218.565576 
L 310.820718 218.466636 
L 312.616081 216.357553 
L 312.915309 216.376252 
L 314.112218 217.637769 
L 314.411445 217.789857 
L 317.10449 216.781194 
L 317.403718 216.616196 
L 321.892127 224.11928 
L 322.191354 224.619273 
L 322.490581 224.781185 
L 323.089036 223.540415 
L 323.388263 223.295155 
L 323.68749 223.349091 
L 324.585172 222.056791 
L 324.884399 222.625108 
L 326.97899 232.471469 
L 327.278217 233.364122 
L 327.577445 233.604049 
L 327.876672 233.654602 
L 328.475126 235.973411 
L 329.372808 235.756929 
L 329.971263 236.365415 
L 330.27049 236.751652 
L 330.569717 237.674217 
L 330.868944 238.101435 
L 332.664308 236.317567 
L 333.262762 237.896847 
L 334.758899 240.357503 
L 335.058126 241.108219 
L 335.357353 243.070336 
L 336.255035 244.397049 
L 336.554262 243.838831 
L 337.152717 241.855101 
L 337.451944 241.535103 
L 338.648853 244.39824 
L 338.94808 244.269195 
L 339.546535 243.206797 
L 339.845762 243.62617 
L 340.144989 245.078636 
L 341.940353 244.066119 
L 342.23958 244.704922 
L 342.538808 245.73523 
L 343.137262 245.808675 
L 343.436489 245.67646 
L 345.231853 247.196867 
L 345.830307 247.610213 
L 349.121807 247.072871 
L 351.814853 255.476785 
L 352.11408 255.730344 
L 353.011762 255.641724 
L 353.909443 253.089538 
L 355.106353 252.074251 
L 355.704807 249.432114 
L 356.004034 247.899136 
L 356.303262 247.366262 
L 358.397852 252.840703 
L 358.996307 257.690195 
L 359.893989 266.009621 
L 360.492443 260.172731 
L 360.79167 256.889949 
L 363.185489 254.534223 
L 365.579307 247.751089 
L 368.571579 254.578911 
L 373.059988 259.364628 
L 373.059988 259.364628 
" style="fill:none;stroke:#d62728;stroke-dasharray:5.55,2.4;stroke-dashoffset:0;stroke-width:1.5;"/>
   </g>
   <g id="patch_3">
    <path d="M 57.6 307.584 
L 57.6 41.472 
" style="fill:none;stroke:#000000;stroke-linecap:square;stroke-linejoin:miter;stroke-width:0.8;"/>
   </g>
   <g id="patch_4">
    <path d="M 414.72 307.584 
L 414.72 41.472 
" style="fill:none;stroke:#000000;stroke-linecap:square;stroke-linejoin:miter;stroke-width:0.8;"/>
   </g>
   <g id="patch_5">
    <path d="M 57.6 307.584 
L 414.72 307.584 
" style="fill:none;stroke:#000000;stroke-linecap:square;stroke-linejoin:miter;stroke-width:0.8;"/>
   </g>
   <g id="patch_6">
    <path d="M 57.6 41.472 
L 414.72 41.472 
" style="fill:none;stroke:#000000;stroke-linecap:square;stroke-linejoin:miter;stroke-width:0.8;"/>
   </g>
   <g id="text_17">
    <!-- 10.170000 -->
    <g transform="translate(203.713125 35.472)scale(0.12 -0.12)">
     <defs>
      <path d="M 525 4666 
L 3525 4666 
L 3525 4397 
L 1831 0 
L 1172 0 
L 2766 4134 
L 525 4134 
L 525 4666 
z
" id="DejaVuSans-37" transform="scale(0.015625)"/>
     </defs>
     <use xlink:href="#DejaVuSans-31"/>
     <use x="63.623047" xlink:href="#DejaVuSans-30"/>
     <use x="127.246094" xlink:href="#DejaVuSans-2e"/>
     <use x="159.033203" xlink:href="#DejaVuSans-31"/>
     <use x="222.65625" xlink:href="#DejaVuSans-37"/>
     <use x="286.279297" xlink:href="#DejaVuSans-30"/>
     <use x="349.902344" xlink:href="#DejaVuSans-30"/>
     <use x="413.525391" xlink:href="#DejaVuSans-30"/>
     <use x="477.148438" xlink:href="#DejaVuSans-30"/>
    </g>
   </g>
  </g>
 </g>
 <defs>
  <clipPath id="p08204f5fa6">
   <rect height="266.112" width="357.12" x="57.6" y="41.472"/>
  </clipPath>
 </defs>
</svg>
