<?xml version="1.0" encoding="utf-8" standalone="no"?>
<!DOCTYPE svg PUBLIC "-//W3C//DTD SVG 1.1//EN"
  "http://www.w3.org/Graphics/SVG/1.1/DTD/svg11.dtd">
<svg height="524.16pt" version="1.1" viewBox="0 0 889.2 524.16" width="889.2pt" xmlns="http://www.w3.org/2000/svg" xmlns:xlink="http://www.w3.org/1999/xlink">
 <metadata>
  <rdf:RDF xmlns:cc="http://creativecommons.org/ns#" xmlns:dc="http://purl.org/dc/elements/1.1/" xmlns:rdf="http://www.w3.org/1999/02/22-rdf-syntax-ns#">
   <cc:Work>
    <dc:type rdf:resource="http://purl.org/dc/dcmitype/StillImage"/>
    <dc:date>2022-06-10T11:52:08.780039</dc:date>
    <dc:format>image/svg+xml</dc:format>
    <dc:creator>
     <cc:Agent>
      <dc:title>Matplotlib v3.4.3, https://matplotlib.org/</dc:title>
     </cc:Agent>
    </dc:creator>
   </cc:Work>
  </rdf:RDF>
 </metadata>
 <defs>
  <style type="text/css">*{stroke-linecap:butt;stroke-linejoin:round;}</style>
 </defs>
 <g id="figure_1">
  <g id="patch_1">
   <path d="M 0 524.16 
L 889.2 524.16 
L 889.2 0 
L 0 0 
z
" style="fill:#ffffff;"/>
  </g>
  <g id="axes_1">
   <g id="patch_2">
    <path d="M 111.15 466.5024 
L 800.28 466.5024 
L 800.28 62.8992 
L 111.15 62.8992 
z
" style="fill:#ffffff;"/>
   </g>
   <g id="matplotlib.axis_1">
    <g id="xtick_1">
     <g id="line2d_1">
      <defs>
       <path d="M 0 0 
L 0 3.5 
" id="m45577f5fe1" style="stroke:#000000;stroke-width:0.8;"/>
      </defs>
      <g>
       <use style="stroke:#000000;stroke-width:0.8;" x="117.180364" xlink:href="#m45577f5fe1" y="466.5024"/>
      </g>
     </g>
     <g id="text_1">
      <!-- −15 -->
      <g transform="translate(106.62802 481.100838)scale(0.1 -0.1)">
       <defs>
        <path d="M 678 2272 
L 4684 2272 
L 4684 1741 
L 678 1741 
L 678 2272 
z
" id="DejaVuSans-2212" transform="scale(0.015625)"/>
        <path d="M 794 531 
L 1825 531 
L 1825 4091 
L 703 3866 
L 703 4441 
L 1819 4666 
L 2450 4666 
L 2450 531 
L 3481 531 
L 3481 0 
L 794 0 
L 794 531 
z
" id="DejaVuSans-31" transform="scale(0.015625)"/>
        <path d="M 691 4666 
L 3169 4666 
L 3169 4134 
L 1269 4134 
L 1269 2991 
Q 1406 3038 1543 3061 
Q 1681 3084 1819 3084 
Q 2600 3084 3056 2656 
Q 3513 2228 3513 1497 
Q 3513 744 3044 326 
Q 2575 -91 1722 -91 
Q 1428 -91 1123 -41 
Q 819 9 494 109 
L 494 744 
Q 775 591 1075 516 
Q 1375 441 1709 441 
Q 2250 441 2565 725 
Q 2881 1009 2881 1497 
Q 2881 1984 2565 2268 
Q 2250 2553 1709 2553 
Q 1456 2553 1204 2497 
Q 953 2441 691 2322 
L 691 4666 
z
" id="DejaVuSans-35" transform="scale(0.015625)"/>
       </defs>
       <use xlink:href="#DejaVuSans-2212"/>
       <use x="83.789062" xlink:href="#DejaVuSans-31"/>
       <use x="147.412109" xlink:href="#DejaVuSans-35"/>
      </g>
     </g>
    </g>
    <g id="xtick_2">
     <g id="line2d_2">
      <g>
       <use style="stroke:#000000;stroke-width:0.8;" x="210.296229" xlink:href="#m45577f5fe1" y="466.5024"/>
      </g>
     </g>
     <g id="text_2">
      <!-- −10 -->
      <g transform="translate(199.743886 481.100838)scale(0.1 -0.1)">
       <defs>
        <path d="M 2034 4250 
Q 1547 4250 1301 3770 
Q 1056 3291 1056 2328 
Q 1056 1369 1301 889 
Q 1547 409 2034 409 
Q 2525 409 2770 889 
Q 3016 1369 3016 2328 
Q 3016 3291 2770 3770 
Q 2525 4250 2034 4250 
z
M 2034 4750 
Q 2819 4750 3233 4129 
Q 3647 3509 3647 2328 
Q 3647 1150 3233 529 
Q 2819 -91 2034 -91 
Q 1250 -91 836 529 
Q 422 1150 422 2328 
Q 422 3509 836 4129 
Q 1250 4750 2034 4750 
z
" id="DejaVuSans-30" transform="scale(0.015625)"/>
       </defs>
       <use xlink:href="#DejaVuSans-2212"/>
       <use x="83.789062" xlink:href="#DejaVuSans-31"/>
       <use x="147.412109" xlink:href="#DejaVuSans-30"/>
      </g>
     </g>
    </g>
    <g id="xtick_3">
     <g id="line2d_3">
      <g>
       <use style="stroke:#000000;stroke-width:0.8;" x="303.412094" xlink:href="#m45577f5fe1" y="466.5024"/>
      </g>
     </g>
     <g id="text_3">
      <!-- −5 -->
      <g transform="translate(296.041001 481.100838)scale(0.1 -0.1)">
       <use xlink:href="#DejaVuSans-2212"/>
       <use x="83.789062" xlink:href="#DejaVuSans-35"/>
      </g>
     </g>
    </g>
    <g id="xtick_4">
     <g id="line2d_4">
      <g>
       <use style="stroke:#000000;stroke-width:0.8;" x="396.52796" xlink:href="#m45577f5fe1" y="466.5024"/>
      </g>
     </g>
     <g id="text_4">
      <!-- 0 -->
      <g transform="translate(393.34671 481.100838)scale(0.1 -0.1)">
       <use xlink:href="#DejaVuSans-30"/>
      </g>
     </g>
    </g>
    <g id="xtick_5">
     <g id="line2d_5">
      <g>
       <use style="stroke:#000000;stroke-width:0.8;" x="489.643825" xlink:href="#m45577f5fe1" y="466.5024"/>
      </g>
     </g>
     <g id="text_5">
      <!-- 5 -->
      <g transform="translate(486.462575 481.100838)scale(0.1 -0.1)">
       <use xlink:href="#DejaVuSans-35"/>
      </g>
     </g>
    </g>
    <g id="xtick_6">
     <g id="line2d_6">
      <g>
       <use style="stroke:#000000;stroke-width:0.8;" x="582.75969" xlink:href="#m45577f5fe1" y="466.5024"/>
      </g>
     </g>
     <g id="text_6">
      <!-- 10 -->
      <g transform="translate(576.39719 481.100838)scale(0.1 -0.1)">
       <use xlink:href="#DejaVuSans-31"/>
       <use x="63.623047" xlink:href="#DejaVuSans-30"/>
      </g>
     </g>
    </g>
    <g id="xtick_7">
     <g id="line2d_7">
      <g>
       <use style="stroke:#000000;stroke-width:0.8;" x="675.875555" xlink:href="#m45577f5fe1" y="466.5024"/>
      </g>
     </g>
     <g id="text_7">
      <!-- 15 -->
      <g transform="translate(669.513055 481.100838)scale(0.1 -0.1)">
       <use xlink:href="#DejaVuSans-31"/>
       <use x="63.623047" xlink:href="#DejaVuSans-35"/>
      </g>
     </g>
    </g>
    <g id="xtick_8">
     <g id="line2d_8">
      <g>
       <use style="stroke:#000000;stroke-width:0.8;" x="768.99142" xlink:href="#m45577f5fe1" y="466.5024"/>
      </g>
     </g>
     <g id="text_8">
      <!-- 20 -->
      <g transform="translate(762.62892 481.100838)scale(0.1 -0.1)">
       <defs>
        <path d="M 1228 531 
L 3431 531 
L 3431 0 
L 469 0 
L 469 531 
Q 828 903 1448 1529 
Q 2069 2156 2228 2338 
Q 2531 2678 2651 2914 
Q 2772 3150 2772 3378 
Q 2772 3750 2511 3984 
Q 2250 4219 1831 4219 
Q 1534 4219 1204 4116 
Q 875 4013 500 3803 
L 500 4441 
Q 881 4594 1212 4672 
Q 1544 4750 1819 4750 
Q 2544 4750 2975 4387 
Q 3406 4025 3406 3419 
Q 3406 3131 3298 2873 
Q 3191 2616 2906 2266 
Q 2828 2175 2409 1742 
Q 1991 1309 1228 531 
z
" id="DejaVuSans-32" transform="scale(0.015625)"/>
       </defs>
       <use xlink:href="#DejaVuSans-32"/>
       <use x="63.623047" xlink:href="#DejaVuSans-30"/>
      </g>
     </g>
    </g>
   </g>
   <g id="matplotlib.axis_2">
    <g id="ytick_1">
     <g id="line2d_9">
      <defs>
       <path d="M 0 0 
L -3.5 0 
" id="m1ace65af1b" style="stroke:#000000;stroke-width:0.8;"/>
      </defs>
      <g>
       <use style="stroke:#000000;stroke-width:0.8;" x="111.15" xlink:href="#m1ace65af1b" y="401.815528"/>
      </g>
     </g>
     <g id="text_9">
      <!-- −3 -->
      <g transform="translate(89.407812 405.614746)scale(0.1 -0.1)">
       <defs>
        <path d="M 2597 2516 
Q 3050 2419 3304 2112 
Q 3559 1806 3559 1356 
Q 3559 666 3084 287 
Q 2609 -91 1734 -91 
Q 1441 -91 1130 -33 
Q 819 25 488 141 
L 488 750 
Q 750 597 1062 519 
Q 1375 441 1716 441 
Q 2309 441 2620 675 
Q 2931 909 2931 1356 
Q 2931 1769 2642 2001 
Q 2353 2234 1838 2234 
L 1294 2234 
L 1294 2753 
L 1863 2753 
Q 2328 2753 2575 2939 
Q 2822 3125 2822 3475 
Q 2822 3834 2567 4026 
Q 2313 4219 1838 4219 
Q 1578 4219 1281 4162 
Q 984 4106 628 3988 
L 628 4550 
Q 988 4650 1302 4700 
Q 1616 4750 1894 4750 
Q 2613 4750 3031 4423 
Q 3450 4097 3450 3541 
Q 3450 3153 3228 2886 
Q 3006 2619 2597 2516 
z
" id="DejaVuSans-33" transform="scale(0.015625)"/>
       </defs>
       <use xlink:href="#DejaVuSans-2212"/>
       <use x="83.789062" xlink:href="#DejaVuSans-33"/>
      </g>
     </g>
    </g>
    <g id="ytick_2">
     <g id="line2d_10">
      <g>
       <use style="stroke:#000000;stroke-width:0.8;" x="111.15" xlink:href="#m1ace65af1b" y="334.010529"/>
      </g>
     </g>
     <g id="text_10">
      <!-- −2 -->
      <g transform="translate(89.407812 337.809748)scale(0.1 -0.1)">
       <use xlink:href="#DejaVuSans-2212"/>
       <use x="83.789062" xlink:href="#DejaVuSans-32"/>
      </g>
     </g>
    </g>
    <g id="ytick_3">
     <g id="line2d_11">
      <g>
       <use style="stroke:#000000;stroke-width:0.8;" x="111.15" xlink:href="#m1ace65af1b" y="266.205531"/>
      </g>
     </g>
     <g id="text_11">
      <!-- −1 -->
      <g transform="translate(89.407812 270.00475)scale(0.1 -0.1)">
       <use xlink:href="#DejaVuSans-2212"/>
       <use x="83.789062" xlink:href="#DejaVuSans-31"/>
      </g>
     </g>
    </g>
    <g id="ytick_4">
     <g id="line2d_12">
      <g>
       <use style="stroke:#000000;stroke-width:0.8;" x="111.15" xlink:href="#m1ace65af1b" y="198.400532"/>
      </g>
     </g>
     <g id="text_12">
      <!-- 0 -->
      <g transform="translate(97.7875 202.199751)scale(0.1 -0.1)">
       <use xlink:href="#DejaVuSans-30"/>
      </g>
     </g>
    </g>
    <g id="ytick_5">
     <g id="line2d_13">
      <g>
       <use style="stroke:#000000;stroke-width:0.8;" x="111.15" xlink:href="#m1ace65af1b" y="130.595534"/>
      </g>
     </g>
     <g id="text_13">
      <!-- 1 -->
      <g transform="translate(97.7875 134.394753)scale(0.1 -0.1)">
       <use xlink:href="#DejaVuSans-31"/>
      </g>
     </g>
    </g>
   </g>
   <g id="line2d_14">
    <defs>
     <path d="M 0 3 
C 0.795609 3 1.55874 2.683901 2.12132 2.12132 
C 2.683901 1.55874 3 0.795609 3 0 
C 3 -0.795609 2.683901 -1.55874 2.12132 -2.12132 
C 1.55874 -2.683901 0.795609 -3 0 -3 
C -0.795609 -3 -1.55874 -2.683901 -2.12132 -2.12132 
C -2.683901 -1.55874 -3 -0.795609 -3 0 
C -3 0.795609 -2.683901 1.55874 -2.12132 2.12132 
C -1.55874 2.683901 -0.795609 3 0 3 
z
" id="mb1b0d198ee" style="stroke:#1f77b4;"/>
    </defs>
    <g clip-path="url(#p65b4ca7bab)">
     <use style="fill:#1f77b4;stroke:#1f77b4;" x="484.441756" xlink:href="#mb1b0d198ee" y="116.179311"/>
     <use style="fill:#1f77b4;stroke:#1f77b4;" x="525.592886" xlink:href="#mb1b0d198ee" y="255.5069"/>
     <use style="fill:#1f77b4;stroke:#1f77b4;" x="512.999879" xlink:href="#mb1b0d198ee" y="216.315035"/>
     <use style="fill:#1f77b4;stroke:#1f77b4;" x="399.473879" xlink:href="#mb1b0d198ee" y="216.889136"/>
     <use style="fill:#1f77b4;stroke:#1f77b4;" x="578.518385" xlink:href="#mb1b0d198ee" y="263.645506"/>
     <use style="fill:#1f77b4;stroke:#1f77b4;" x="475.105906" xlink:href="#mb1b0d198ee" y="109.132907"/>
     <use style="fill:#1f77b4;stroke:#1f77b4;" x="751.082014" xlink:href="#mb1b0d198ee" y="192.34948"/>
     <use style="fill:#1f77b4;stroke:#1f77b4;" x="768.955909" xlink:href="#mb1b0d198ee" y="169.356583"/>
     <use style="fill:#1f77b4;stroke:#1f77b4;" x="490.262927" xlink:href="#mb1b0d198ee" y="125.34082"/>
     <use style="fill:#1f77b4;stroke:#1f77b4;" x="764.025129" xlink:href="#mb1b0d198ee" y="188.439083"/>
     <use style="fill:#1f77b4;stroke:#1f77b4;" x="603.524933" xlink:href="#mb1b0d198ee" y="275.140869"/>
     <use style="fill:#1f77b4;stroke:#1f77b4;" x="559.334708" xlink:href="#mb1b0d198ee" y="254.072668"/>
     <use style="fill:#1f77b4;stroke:#1f77b4;" x="554.71984" xlink:href="#mb1b0d198ee" y="245.763565"/>
     <use style="fill:#1f77b4;stroke:#1f77b4;" x="684.525292" xlink:href="#mb1b0d198ee" y="185.577473"/>
     <use style="fill:#1f77b4;stroke:#1f77b4;" x="501.261047" xlink:href="#mb1b0d198ee" y="209.185161"/>
     <use style="fill:#1f77b4;stroke:#1f77b4;" x="474.548765" xlink:href="#mb1b0d198ee" y="110.091246"/>
     <use style="fill:#1f77b4;stroke:#1f77b4;" x="490.15753" xlink:href="#mb1b0d198ee" y="152.857177"/>
     <use style="fill:#1f77b4;stroke:#1f77b4;" x="404.116854" xlink:href="#mb1b0d198ee" y="199.938937"/>
     <use style="fill:#1f77b4;stroke:#1f77b4;" x="503.68626" xlink:href="#mb1b0d198ee" y="215.079968"/>
     <use style="fill:#1f77b4;stroke:#1f77b4;" x="716.664824" xlink:href="#mb1b0d198ee" y="197.038496"/>
     <use style="fill:#1f77b4;stroke:#1f77b4;" x="425.189353" xlink:href="#mb1b0d198ee" y="248.730247"/>
     <use style="fill:#1f77b4;stroke:#1f77b4;" x="635.052162" xlink:href="#mb1b0d198ee" y="398.120121"/>
     <use style="fill:#1f77b4;stroke:#1f77b4;" x="721.891229" xlink:href="#mb1b0d198ee" y="221.924651"/>
     <use style="fill:#1f77b4;stroke:#1f77b4;" x="500.289732" xlink:href="#mb1b0d198ee" y="191.737086"/>
     <use style="fill:#1f77b4;stroke:#1f77b4;" x="676.364463" xlink:href="#mb1b0d198ee" y="191.631806"/>
     <use style="fill:#1f77b4;stroke:#1f77b4;" x="636.723445" xlink:href="#mb1b0d198ee" y="386.888863"/>
     <use style="fill:#1f77b4;stroke:#1f77b4;" x="425.515466" xlink:href="#mb1b0d198ee" y="230.547842"/>
     <use style="fill:#1f77b4;stroke:#1f77b4;" x="712.446059" xlink:href="#mb1b0d198ee" y="206.379542"/>
     <use style="fill:#1f77b4;stroke:#1f77b4;" x="428.423931" xlink:href="#mb1b0d198ee" y="261.958644"/>
     <use style="fill:#1f77b4;stroke:#1f77b4;" x="602.576811" xlink:href="#mb1b0d198ee" y="260.919891"/>
     <use style="fill:#1f77b4;stroke:#1f77b4;" x="569.108996" xlink:href="#mb1b0d198ee" y="210.650417"/>
     <use style="fill:#1f77b4;stroke:#1f77b4;" x="465.739608" xlink:href="#mb1b0d198ee" y="149.469662"/>
     <use style="fill:#1f77b4;stroke:#1f77b4;" x="438.236745" xlink:href="#mb1b0d198ee" y="210.276791"/>
     <use style="fill:#1f77b4;stroke:#1f77b4;" x="760.168462" xlink:href="#mb1b0d198ee" y="228.378996"/>
     <use style="fill:#1f77b4;stroke:#1f77b4;" x="415.75252" xlink:href="#mb1b0d198ee" y="242.58378"/>
     <use style="fill:#1f77b4;stroke:#1f77b4;" x="596.924319" xlink:href="#mb1b0d198ee" y="261.892346"/>
     <use style="fill:#1f77b4;stroke:#1f77b4;" x="566.256598" xlink:href="#mb1b0d198ee" y="224.864665"/>
     <use style="fill:#1f77b4;stroke:#1f77b4;" x="500.592429" xlink:href="#mb1b0d198ee" y="180.448004"/>
     <use style="fill:#1f77b4;stroke:#1f77b4;" x="462.91812" xlink:href="#mb1b0d198ee" y="158.210088"/>
     <use style="fill:#1f77b4;stroke:#1f77b4;" x="601.00402" xlink:href="#mb1b0d198ee" y="299.627764"/>
     <use style="fill:#1f77b4;stroke:#1f77b4;" x="534.700976" xlink:href="#mb1b0d198ee" y="297.276398"/>
     <use style="fill:#1f77b4;stroke:#1f77b4;" x="729.572092" xlink:href="#mb1b0d198ee" y="239.219988"/>
     <use style="fill:#1f77b4;stroke:#1f77b4;" x="637.904301" xlink:href="#mb1b0d198ee" y="448.1568"/>
     <use style="fill:#1f77b4;stroke:#1f77b4;" x="551.859881" xlink:href="#mb1b0d198ee" y="278.82048"/>
     <use style="fill:#1f77b4;stroke:#1f77b4;" x="450.373342" xlink:href="#mb1b0d198ee" y="181.380685"/>
     <use style="fill:#1f77b4;stroke:#1f77b4;" x="628.350403" xlink:href="#mb1b0d198ee" y="340.632663"/>
     <use style="fill:#1f77b4;stroke:#1f77b4;" x="721.440662" xlink:href="#mb1b0d198ee" y="200.16585"/>
     <use style="fill:#1f77b4;stroke:#1f77b4;" x="592.061837" xlink:href="#mb1b0d198ee" y="257.273851"/>
     <use style="fill:#1f77b4;stroke:#1f77b4;" x="486.511634" xlink:href="#mb1b0d198ee" y="125.745297"/>
     <use style="fill:#1f77b4;stroke:#1f77b4;" x="726.097383" xlink:href="#mb1b0d198ee" y="224.280382"/>
     <use style="fill:#1f77b4;stroke:#1f77b4;" x="560.74614" xlink:href="#mb1b0d198ee" y="202.496628"/>
     <use style="fill:#1f77b4;stroke:#1f77b4;" x="547.253731" xlink:href="#mb1b0d198ee" y="308.710793"/>
     <use style="fill:#1f77b4;stroke:#1f77b4;" x="670.954122" xlink:href="#mb1b0d198ee" y="223.976222"/>
     <use style="fill:#1f77b4;stroke:#1f77b4;" x="751.784883" xlink:href="#mb1b0d198ee" y="221.623218"/>
     <use style="fill:#1f77b4;stroke:#1f77b4;" x="431.981115" xlink:href="#mb1b0d198ee" y="207.734969"/>
     <use style="fill:#1f77b4;stroke:#1f77b4;" x="590.088032" xlink:href="#mb1b0d198ee" y="265.175506"/>
     <use style="fill:#1f77b4;stroke:#1f77b4;" x="401.571239" xlink:href="#mb1b0d198ee" y="219.424695"/>
     <use style="fill:#1f77b4;stroke:#1f77b4;" x="509.532931" xlink:href="#mb1b0d198ee" y="218.101472"/>
     <use style="fill:#1f77b4;stroke:#1f77b4;" x="658.204822" xlink:href="#mb1b0d198ee" y="274.297408"/>
     <use style="fill:#1f77b4;stroke:#1f77b4;" x="618.716198" xlink:href="#mb1b0d198ee" y="293.37893"/>
    </g>
   </g>
   <g id="line2d_15">
    <defs>
     <path d="M 0 3 
C 0.795609 3 1.55874 2.683901 2.12132 2.12132 
C 2.683901 1.55874 3 0.795609 3 0 
C 3 -0.795609 2.683901 -1.55874 2.12132 -2.12132 
C 1.55874 -2.683901 0.795609 -3 0 -3 
C -0.795609 -3 -1.55874 -2.683901 -2.12132 -2.12132 
C -2.683901 -1.55874 -3 -0.795609 -3 0 
C -3 0.795609 -2.683901 1.55874 -2.12132 2.12132 
C -1.55874 2.683901 -0.795609 3 0 3 
z
" id="me31cfcf940" style="stroke:#ff7f0e;"/>
    </defs>
    <g clip-path="url(#p65b4ca7bab)">
     <use style="fill:#ff7f0e;stroke:#ff7f0e;" x="234.720124" xlink:href="#me31cfcf940" y="112.140208"/>
     <use style="fill:#ff7f0e;stroke:#ff7f0e;" x="269.495192" xlink:href="#me31cfcf940" y="88.238053"/>
     <use style="fill:#ff7f0e;stroke:#ff7f0e;" x="221.26679" xlink:href="#me31cfcf940" y="138.989204"/>
     <use style="fill:#ff7f0e;stroke:#ff7f0e;" x="178.710141" xlink:href="#me31cfcf940" y="158.847688"/>
     <use style="fill:#ff7f0e;stroke:#ff7f0e;" x="217.960537" xlink:href="#me31cfcf940" y="149.909676"/>
     <use style="fill:#ff7f0e;stroke:#ff7f0e;" x="208.809254" xlink:href="#me31cfcf940" y="173.044037"/>
     <use style="fill:#ff7f0e;stroke:#ff7f0e;" x="180.576526" xlink:href="#me31cfcf940" y="146.68051"/>
     <use style="fill:#ff7f0e;stroke:#ff7f0e;" x="208.332988" xlink:href="#me31cfcf940" y="165.552594"/>
     <use style="fill:#ff7f0e;stroke:#ff7f0e;" x="281.341608" xlink:href="#me31cfcf940" y="125.643442"/>
     <use style="fill:#ff7f0e;stroke:#ff7f0e;" x="182.545813" xlink:href="#me31cfcf940" y="151.962592"/>
     <use style="fill:#ff7f0e;stroke:#ff7f0e;" x="238.042099" xlink:href="#me31cfcf940" y="110.017784"/>
     <use style="fill:#ff7f0e;stroke:#ff7f0e;" x="168.515931" xlink:href="#me31cfcf940" y="165.096698"/>
     <use style="fill:#ff7f0e;stroke:#ff7f0e;" x="198.108256" xlink:href="#me31cfcf940" y="156.093923"/>
     <use style="fill:#ff7f0e;stroke:#ff7f0e;" x="287.134049" xlink:href="#me31cfcf940" y="148.974229"/>
     <use style="fill:#ff7f0e;stroke:#ff7f0e;" x="221.519926" xlink:href="#me31cfcf940" y="142.15546"/>
     <use style="fill:#ff7f0e;stroke:#ff7f0e;" x="226.056147" xlink:href="#me31cfcf940" y="127.055288"/>
     <use style="fill:#ff7f0e;stroke:#ff7f0e;" x="254.002377" xlink:href="#me31cfcf940" y="90.470218"/>
     <use style="fill:#ff7f0e;stroke:#ff7f0e;" x="216.929753" xlink:href="#me31cfcf940" y="147.192491"/>
     <use style="fill:#ff7f0e;stroke:#ff7f0e;" x="216.235229" xlink:href="#me31cfcf940" y="161.13789"/>
     <use style="fill:#ff7f0e;stroke:#ff7f0e;" x="288.235856" xlink:href="#me31cfcf940" y="136.175206"/>
     <use style="fill:#ff7f0e;stroke:#ff7f0e;" x="229.46792" xlink:href="#me31cfcf940" y="112.184628"/>
     <use style="fill:#ff7f0e;stroke:#ff7f0e;" x="252.574527" xlink:href="#me31cfcf940" y="81.275331"/>
     <use style="fill:#ff7f0e;stroke:#ff7f0e;" x="227.571555" xlink:href="#me31cfcf940" y="131.451998"/>
     <use style="fill:#ff7f0e;stroke:#ff7f0e;" x="247.108374" xlink:href="#me31cfcf940" y="107.655896"/>
     <use style="fill:#ff7f0e;stroke:#ff7f0e;" x="281.542089" xlink:href="#me31cfcf940" y="127.850378"/>
     <use style="fill:#ff7f0e;stroke:#ff7f0e;" x="420.277923" xlink:href="#me31cfcf940" y="248.305998"/>
     <use style="fill:#ff7f0e;stroke:#ff7f0e;" x="410.683235" xlink:href="#me31cfcf940" y="247.317712"/>
     <use style="fill:#ff7f0e;stroke:#ff7f0e;" x="491.971693" xlink:href="#me31cfcf940" y="126.257108"/>
     <use style="fill:#ff7f0e;stroke:#ff7f0e;" x="430.7305" xlink:href="#me31cfcf940" y="240.410478"/>
     <use style="fill:#ff7f0e;stroke:#ff7f0e;" x="425.622795" xlink:href="#me31cfcf940" y="238.698231"/>
     <use style="fill:#ff7f0e;stroke:#ff7f0e;" x="396.550463" xlink:href="#me31cfcf940" y="221.248777"/>
     <use style="fill:#ff7f0e;stroke:#ff7f0e;" x="405.641268" xlink:href="#me31cfcf940" y="249.402438"/>
     <use style="fill:#ff7f0e;stroke:#ff7f0e;" x="409.06418" xlink:href="#me31cfcf940" y="246.505338"/>
     <use style="fill:#ff7f0e;stroke:#ff7f0e;" x="388.39199" xlink:href="#me31cfcf940" y="191.667726"/>
     <use style="fill:#ff7f0e;stroke:#ff7f0e;" x="384.931221" xlink:href="#me31cfcf940" y="179.149873"/>
     <use style="fill:#ff7f0e;stroke:#ff7f0e;" x="397.282245" xlink:href="#me31cfcf940" y="215.058045"/>
     <use style="fill:#ff7f0e;stroke:#ff7f0e;" x="376.851347" xlink:href="#me31cfcf940" y="183.477305"/>
     <use style="fill:#ff7f0e;stroke:#ff7f0e;" x="464.527079" xlink:href="#me31cfcf940" y="162.413895"/>
     <use style="fill:#ff7f0e;stroke:#ff7f0e;" x="476.5743" xlink:href="#me31cfcf940" y="143.319384"/>
     <use style="fill:#ff7f0e;stroke:#ff7f0e;" x="413.524396" xlink:href="#me31cfcf940" y="252.351923"/>
     <use style="fill:#ff7f0e;stroke:#ff7f0e;" x="383.67991" xlink:href="#me31cfcf940" y="185.038693"/>
     <use style="fill:#ff7f0e;stroke:#ff7f0e;" x="431.010053" xlink:href="#me31cfcf940" y="242.541246"/>
     <use style="fill:#ff7f0e;stroke:#ff7f0e;" x="473.243241" xlink:href="#me31cfcf940" y="131.025098"/>
     <use style="fill:#ff7f0e;stroke:#ff7f0e;" x="484.578889" xlink:href="#me31cfcf940" y="135.050297"/>
     <use style="fill:#ff7f0e;stroke:#ff7f0e;" x="380.069323" xlink:href="#me31cfcf940" y="181.211258"/>
     <use style="fill:#ff7f0e;stroke:#ff7f0e;" x="474.585547" xlink:href="#me31cfcf940" y="142.672175"/>
     <use style="fill:#ff7f0e;stroke:#ff7f0e;" x="493.831538" xlink:href="#me31cfcf940" y="151.814225"/>
     <use style="fill:#ff7f0e;stroke:#ff7f0e;" x="501.634326" xlink:href="#me31cfcf940" y="149.360206"/>
     <use style="fill:#ff7f0e;stroke:#ff7f0e;" x="496.540468" xlink:href="#me31cfcf940" y="152.097761"/>
     <use style="fill:#ff7f0e;stroke:#ff7f0e;" x="461.805156" xlink:href="#me31cfcf940" y="154.460665"/>
    </g>
   </g>
   <g id="line2d_16">
    <path clip-path="url(#p65b4ca7bab)" d="M 399.473879 224.995326 
L 403.907663 237.864661 
L 405.385591 241.620324 
L 406.494037 243.910082 
L 407.602483 245.715074 
L 408.710929 247.130956 
L 409.819376 248.249701 
L 411.297304 249.380391 
L 412.40575 249.968256 
L 413.514196 250.293647 
L 414.622642 250.332309 
L 415.731088 250.125755 
L 416.839534 249.726156 
L 418.317462 248.940881 
L 419.79539 247.913147 
L 422.012283 246.045536 
L 424.968139 243.561573 
L 426.446067 242.609626 
L 428.293477 241.44163 
L 429.401923 240.427124 
L 430.510369 239.015343 
L 431.618815 237.117411 
L 433.096743 233.95004 
L 434.944154 229.264132 
L 437.161046 222.929742 
L 442.703276 206.058359 
L 447.506543 191.684542 
L 450.831881 182.429241 
L 453.418255 175.853905 
L 456.004629 169.902934 
L 458.221522 165.35272 
L 460.068932 161.991282 
L 461.916342 159.061868 
L 464.502716 155.212928 
L 465.980644 152.425708 
L 468.567018 146.841593 
L 470.414429 142.99766 
L 471.892357 140.425718 
L 473.000803 138.975227 
L 473.739767 138.297645 
L 474.848213 137.638597 
L 478.912515 135.791039 
L 483.715782 132.973923 
L 485.19371 132.450697 
L 486.302156 132.301463 
L 487.04112 132.366204 
L 487.780084 132.58862 
L 488.519048 132.98791 
L 489.258012 133.583618 
L 489.996976 134.3957 
L 490.73594 135.44597 
L 491.474904 136.764984 
L 492.58335 139.304749 
L 494.800243 145.415089 
L 500.342473 161.086309 
L 501.820401 166.08128 
L 503.298329 172.066692 
L 505.884703 183.767089 
L 511.796416 210.972403 
L 515.121754 224.886556 
L 518.447092 237.861937 
L 522.141913 251.36798 
L 525.836733 264.063018 
L 528.792589 273.556873 
L 531.009482 279.945622 
L 532.856892 284.554656 
L 534.33482 287.644033 
L 535.443266 289.550121 
L 536.551712 291.081361 
L 537.660158 292.232606 
L 538.768604 292.997007 
L 539.507568 293.287415 
L 540.246532 293.398894 
L 540.985496 293.327925 
L 541.72446 293.070575 
L 542.463424 292.622495 
L 543.202389 291.978909 
L 544.310835 290.635432 
L 545.419281 288.820764 
L 546.527727 286.51311 
L 547.636173 283.68902 
L 549.114101 279.156709 
L 550.961511 272.511839 
L 553.178403 263.580621 
L 557.242706 247.049245 
L 559.090116 240.408153 
L 560.568044 235.806882 
L 561.67649 232.932365 
L 562.784936 230.591868 
L 563.893382 228.776012 
L 565.001828 227.477333 
L 565.740792 226.896086 
L 566.479756 226.54108 
L 567.21872 226.410736 
L 567.957685 226.502461 
L 568.696649 226.813912 
L 569.435613 227.342806 
L 570.544059 228.514861 
L 571.652505 230.072806 
L 573.130433 232.617216 
L 574.977843 236.296135 
L 579.411627 245.415941 
L 581.62852 249.295946 
L 583.845412 252.708312 
L 586.431786 256.228856 
L 589.387642 259.814293 
L 598.994175 271.010091 
L 602.319513 274.909432 
L 604.536406 277.566107 
L 606.383816 280.074593 
L 608.231226 282.951508 
L 610.078636 286.291855 
L 611.926046 290.193177 
L 613.403974 293.785916 
L 614.881902 297.85609 
L 616.359831 302.459723 
L 618.207241 309.053974 
L 620.054651 316.670951 
L 622.271543 326.984694 
L 625.227399 342.06221 
L 631.508594 374.713832 
L 632.986522 381.188388 
L 634.094968 385.331168 
L 635.203414 388.702688 
L 635.942378 390.45267 
L 636.681342 391.764974 
L 637.420306 392.605914 
L 637.789788 392.837523 
L 638.15927 392.936885 
L 638.528752 392.904729 
L 638.898234 392.745014 
L 639.637198 392.058581 
L 640.376163 390.908281 
L 641.115127 389.323806 
L 642.223573 386.195632 
L 643.332019 382.248274 
L 644.809947 375.864302 
L 646.287875 368.382942 
L 648.135285 357.777527 
L 650.352177 343.675859 
L 653.677516 320.905197 
L 658.480782 287.952752 
L 661.436638 269.424867 
L 664.023012 254.566077 
L 666.609387 240.959238 
L 669.195761 228.615569 
L 671.412653 219.066036 
L 673.629545 210.537168 
L 675.476955 204.318258 
L 676.954884 199.996953 
L 678.432812 196.272681 
L 679.91074 193.103109 
L 681.388668 190.446087 
L 682.866596 188.263274 
L 684.344524 186.519897 
L 685.822452 185.183601 
L 687.30038 184.219835 
L 688.778308 183.595028 
L 690.256237 183.278268 
L 691.734165 183.241087 
L 693.212093 183.457259 
L 694.690021 183.90261 
L 696.167949 184.554832 
L 698.015359 185.629787 
L 699.862769 186.959013 
L 702.079662 188.842653 
L 704.666036 191.372196 
L 707.621892 194.609657 
L 711.316712 199.030296 
L 715.011533 203.756717 
L 717.228425 206.915206 
L 719.814799 211.047734 
L 726.095994 221.457115 
L 727.573922 223.403906 
L 729.05185 224.955434 
L 730.160296 225.809698 
L 731.268742 226.390145 
L 732.377188 226.719635 
L 733.485634 226.820959 
L 734.59408 226.715855 
L 735.702526 226.425094 
L 737.180454 225.782875 
L 738.658383 224.890841 
L 740.505793 223.489503 
L 742.722685 221.492489 
L 746.048023 218.122377 
L 750.85129 213.228044 
L 756.024038 208.214308 
L 757.501966 206.431451 
L 758.979894 204.329961 
L 760.457822 201.818163 
L 762.305233 198.09617 
L 768.955909 183.934579 
L 768.955909 183.934579 
" style="fill:none;stroke:#2ca02c;stroke-linecap:square;stroke-width:1.5;"/>
   </g>
   <g id="line2d_17">
    <path clip-path="url(#p65b4ca7bab)" d="M 142.474091 182.946895 
L 146.538393 180.888137 
L 150.602696 178.589883 
L 154.666998 176.032794 
L 158.7313 173.198355 
L 162.795603 170.069813 
L 166.859905 166.633413 
L 170.554725 163.23213 
L 174.249546 159.519167 
L 177.574884 155.844443 
L 180.900222 152.066448 
L 182.008668 151.185722 
L 183.486596 150.35663 
L 184.964524 149.85864 
L 186.442453 149.669901 
L 187.920381 149.772499 
L 189.398309 150.151298 
L 190.876237 150.793822 
L 192.354165 151.690164 
L 193.832093 152.832899 
L 195.310021 154.217024 
L 197.157431 156.28284 
L 199.004842 158.715807 
L 203.438626 164.868764 
L 204.916554 166.471909 
L 206.025 167.362132 
L 207.133446 167.908684 
L 207.87241 168.047679 
L 208.611374 167.981505 
L 209.350338 167.678907 
L 210.089302 167.133293 
L 210.828267 166.360482 
L 211.936713 164.809445 
L 213.045159 162.833776 
L 214.523087 159.624871 
L 216.001015 155.86371 
L 220.434799 143.380069 
L 224.868584 131.336949 
L 228.932886 120.830929 
L 230.041332 118.357017 
L 231.149778 116.327481 
L 232.258224 114.688979 
L 233.36667 113.38333 
L 234.475116 112.35407 
L 235.953045 111.316636 
L 237.800455 110.377876 
L 241.495275 108.70399 
L 242.973203 107.698332 
L 244.081649 106.6763 
L 245.190095 105.352463 
L 246.298541 103.660869 
L 247.406988 101.535331 
L 248.884916 98.089284 
L 252.210254 89.987323 
L 253.3187 87.871194 
L 254.796628 85.613007 
L 256.274556 83.827162 
L 257.383002 82.791673 
L 258.491448 82.017567 
L 259.599895 81.507344 
L 260.708341 81.265077 
L 261.816787 81.296431 
L 262.925233 81.608686 
L 264.033679 82.210769 
L 265.142125 83.113287 
L 266.250571 84.328569 
L 267.359017 85.870713 
L 268.467463 87.755639 
L 269.575909 90.001141 
L 271.053837 93.554445 
L 272.901248 98.732196 
L 275.11814 105.700812 
L 282.877262 130.971379 
L 284.724673 135.948268 
L 286.202601 139.346024 
L 287.680529 142.123196 
L 290.266903 146.228171 
L 293.222759 150.559837 
L 296.178616 154.535978 
L 299.134472 158.176871 
L 302.090328 161.502357 
L 305.415666 164.890405 
L 308.741005 167.929711 
L 312.066343 170.644994 
L 315.391681 173.059405 
L 318.717019 175.194462 
L 322.042358 177.070015 
L 325.367696 178.704251 
L 329.062516 180.257128 
L 332.757337 181.552918 
L 336.452157 182.609775 
L 340.146977 183.443725 
L 344.21128 184.120365 
L 348.275582 184.560618 
L 352.339884 184.778657 
L 356.404187 184.786945 
L 360.837971 184.569997 
L 365.271755 184.130747 
L 370.075022 183.420602 
L 374.878288 182.486881 
L 379.681554 181.550204 
L 380.790001 181.594753 
L 381.898447 181.871972 
L 383.006893 182.438815 
L 384.115339 183.354418 
L 384.854303 184.20593 
L 385.962749 185.928228 
L 387.071195 188.137294 
L 388.549123 191.692829 
L 390.396533 196.85909 
L 392.982908 204.907123 
L 397.416692 218.863964 
L 403.328404 236.268795 
L 405.175815 241.12779 
L 406.284261 243.516813 
L 407.392707 245.40623 
L 408.501153 246.888447 
L 409.609599 248.057373 
L 411.087527 249.242846 
L 412.195973 249.875925 
L 413.304419 250.254063 
L 414.412865 250.345574 
L 415.521311 250.180979 
L 416.629757 249.815082 
L 418.107686 249.068248 
L 419.585614 248.071953 
L 421.433024 246.556332 
L 425.127844 243.445932 
L 426.605772 242.517592 
L 428.0837 241.59759 
L 429.192147 240.646529 
L 430.300593 239.3177 
L 431.409039 237.513946 
L 432.517485 235.262379 
L 433.995413 231.756784 
L 435.842823 226.76725 
L 438.798679 217.99925 
L 448.405212 189.107715 
L 451.361068 181.035975 
L 453.947443 174.583421 
L 456.533817 168.768418 
L 458.750709 164.348044 
L 460.598119 161.106176 
L 462.445529 158.301005 
L 464.292939 155.562213 
L 465.770868 152.850178 
L 467.98776 148.111927 
L 470.574134 142.692075 
L 472.052062 140.187794 
L 473.160508 138.808257 
L 473.899472 138.180382 
L 475.007918 137.567099 
L 478.333257 136.127268 
L 481.289113 134.309582 
L 483.506005 133.070415 
L 484.983933 132.505895 
L 486.092379 132.308978 
L 487.200825 132.400261 
L 487.939789 132.659267 
L 488.678753 133.099338 
L 489.417717 133.740104 
L 490.156682 134.601614 
L 490.895646 135.707131 
L 492.004092 137.893252 
L 493.112538 140.710986 
L 500.132696 160.434715 
L 501.610624 165.312799 
L 503.088553 171.16872 
L 505.305445 181.074161 
L 511.956121 211.664885 
L 511.956121 211.664885 
" style="fill:none;stroke:#d62728;stroke-dasharray:5.55,2.4;stroke-dashoffset:0;stroke-width:1.5;"/>
   </g>
   <g id="patch_3">
    <path d="M 111.15 466.5024 
L 111.15 62.8992 
" style="fill:none;stroke:#000000;stroke-linecap:square;stroke-linejoin:miter;stroke-width:0.8;"/>
   </g>
   <g id="patch_4">
    <path d="M 800.28 466.5024 
L 800.28 62.8992 
" style="fill:none;stroke:#000000;stroke-linecap:square;stroke-linejoin:miter;stroke-width:0.8;"/>
   </g>
   <g id="patch_5">
    <path d="M 111.15 466.5024 
L 800.28 466.5024 
" style="fill:none;stroke:#000000;stroke-linecap:square;stroke-linejoin:miter;stroke-width:0.8;"/>
   </g>
   <g id="patch_6">
    <path d="M 111.15 62.8992 
L 800.28 62.8992 
" style="fill:none;stroke:#000000;stroke-linecap:square;stroke-linejoin:miter;stroke-width:0.8;"/>
   </g>
   <g id="text_14">
    <!-- 13.800000 -->
    <g transform="translate(423.268125 56.8992)scale(0.12 -0.12)">
     <defs>
      <path d="M 684 794 
L 1344 794 
L 1344 0 
L 684 0 
L 684 794 
z
" id="DejaVuSans-2e" transform="scale(0.015625)"/>
      <path d="M 2034 2216 
Q 1584 2216 1326 1975 
Q 1069 1734 1069 1313 
Q 1069 891 1326 650 
Q 1584 409 2034 409 
Q 2484 409 2743 651 
Q 3003 894 3003 1313 
Q 3003 1734 2745 1975 
Q 2488 2216 2034 2216 
z
M 1403 2484 
Q 997 2584 770 2862 
Q 544 3141 544 3541 
Q 544 4100 942 4425 
Q 1341 4750 2034 4750 
Q 2731 4750 3128 4425 
Q 3525 4100 3525 3541 
Q 3525 3141 3298 2862 
Q 3072 2584 2669 2484 
Q 3125 2378 3379 2068 
Q 3634 1759 3634 1313 
Q 3634 634 3220 271 
Q 2806 -91 2034 -91 
Q 1263 -91 848 271 
Q 434 634 434 1313 
Q 434 1759 690 2068 
Q 947 2378 1403 2484 
z
M 1172 3481 
Q 1172 3119 1398 2916 
Q 1625 2713 2034 2713 
Q 2441 2713 2670 2916 
Q 2900 3119 2900 3481 
Q 2900 3844 2670 4047 
Q 2441 4250 2034 4250 
Q 1625 4250 1398 4047 
Q 1172 3844 1172 3481 
z
" id="DejaVuSans-38" transform="scale(0.015625)"/>
     </defs>
     <use xlink:href="#DejaVuSans-31"/>
     <use x="63.623047" xlink:href="#DejaVuSans-33"/>
     <use x="127.246094" xlink:href="#DejaVuSans-2e"/>
     <use x="159.033203" xlink:href="#DejaVuSans-38"/>
     <use x="222.65625" xlink:href="#DejaVuSans-30"/>
     <use x="286.279297" xlink:href="#DejaVuSans-30"/>
     <use x="349.902344" xlink:href="#DejaVuSans-30"/>
     <use x="413.525391" xlink:href="#DejaVuSans-30"/>
     <use x="477.148438" xlink:href="#DejaVuSans-30"/>
    </g>
   </g>
  </g>
 </g>
 <defs>
  <clipPath id="p65b4ca7bab">
   <rect height="403.6032" width="689.13" x="111.15" y="62.8992"/>
  </clipPath>
 </defs>
</svg>
