<?xml version="1.0" encoding="utf-8" standalone="no"?>
<!DOCTYPE svg PUBLIC "-//W3C//DTD SVG 1.1//EN"
  "http://www.w3.org/Graphics/SVG/1.1/DTD/svg11.dtd">
<svg height="524.16pt" version="1.1" viewBox="0 0 889.2 524.16" width="889.2pt" xmlns="http://www.w3.org/2000/svg" xmlns:xlink="http://www.w3.org/1999/xlink">
 <metadata>
  <rdf:RDF xmlns:cc="http://creativecommons.org/ns#" xmlns:dc="http://purl.org/dc/elements/1.1/" xmlns:rdf="http://www.w3.org/1999/02/22-rdf-syntax-ns#">
   <cc:Work>
    <dc:type rdf:resource="http://purl.org/dc/dcmitype/StillImage"/>
    <dc:date>2022-06-10T11:51:27.143049</dc:date>
    <dc:format>image/svg+xml</dc:format>
    <dc:creator>
     <cc:Agent>
      <dc:title>Matplotlib v3.4.3, https://matplotlib.org/</dc:title>
     </cc:Agent>
    </dc:creator>
   </cc:Work>
  </rdf:RDF>
 </metadata>
 <defs>
  <style type="text/css">*{stroke-linecap:butt;stroke-linejoin:round;}</style>
 </defs>
 <g id="figure_1">
  <g id="patch_1">
   <path d="M 0 524.16 
L 889.2 524.16 
L 889.2 0 
L 0 0 
z
" style="fill:#ffffff;"/>
  </g>
  <g id="axes_1">
   <g id="patch_2">
    <path d="M 111.15 466.5024 
L 800.28 466.5024 
L 800.28 62.8992 
L 111.15 62.8992 
z
" style="fill:#ffffff;"/>
   </g>
   <g id="matplotlib.axis_1">
    <g id="xtick_1">
     <g id="line2d_1">
      <defs>
       <path d="M 0 0 
L 0 3.5 
" id="m6cd078dc00" style="stroke:#000000;stroke-width:0.8;"/>
      </defs>
      <g>
       <use style="stroke:#000000;stroke-width:0.8;" x="195.306878" xlink:href="#m6cd078dc00" y="466.5024"/>
      </g>
     </g>
     <g id="text_1">
      <!-- 0 -->
      <g transform="translate(192.125628 481.100838)scale(0.1 -0.1)">
       <defs>
        <path d="M 2034 4250 
Q 1547 4250 1301 3770 
Q 1056 3291 1056 2328 
Q 1056 1369 1301 889 
Q 1547 409 2034 409 
Q 2525 409 2770 889 
Q 3016 1369 3016 2328 
Q 3016 3291 2770 3770 
Q 2525 4250 2034 4250 
z
M 2034 4750 
Q 2819 4750 3233 4129 
Q 3647 3509 3647 2328 
Q 3647 1150 3233 529 
Q 2819 -91 2034 -91 
Q 1250 -91 836 529 
Q 422 1150 422 2328 
Q 422 3509 836 4129 
Q 1250 4750 2034 4750 
z
" id="DejaVuSans-30" transform="scale(0.015625)"/>
       </defs>
       <use xlink:href="#DejaVuSans-30"/>
      </g>
     </g>
    </g>
    <g id="xtick_2">
     <g id="line2d_2">
      <g>
       <use style="stroke:#000000;stroke-width:0.8;" x="338.73281" xlink:href="#m6cd078dc00" y="466.5024"/>
      </g>
     </g>
     <g id="text_2">
      <!-- 5 -->
      <g transform="translate(335.55156 481.100838)scale(0.1 -0.1)">
       <defs>
        <path d="M 691 4666 
L 3169 4666 
L 3169 4134 
L 1269 4134 
L 1269 2991 
Q 1406 3038 1543 3061 
Q 1681 3084 1819 3084 
Q 2600 3084 3056 2656 
Q 3513 2228 3513 1497 
Q 3513 744 3044 326 
Q 2575 -91 1722 -91 
Q 1428 -91 1123 -41 
Q 819 9 494 109 
L 494 744 
Q 775 591 1075 516 
Q 1375 441 1709 441 
Q 2250 441 2565 725 
Q 2881 1009 2881 1497 
Q 2881 1984 2565 2268 
Q 2250 2553 1709 2553 
Q 1456 2553 1204 2497 
Q 953 2441 691 2322 
L 691 4666 
z
" id="DejaVuSans-35" transform="scale(0.015625)"/>
       </defs>
       <use xlink:href="#DejaVuSans-35"/>
      </g>
     </g>
    </g>
    <g id="xtick_3">
     <g id="line2d_3">
      <g>
       <use style="stroke:#000000;stroke-width:0.8;" x="482.158743" xlink:href="#m6cd078dc00" y="466.5024"/>
      </g>
     </g>
     <g id="text_3">
      <!-- 10 -->
      <g transform="translate(475.796243 481.100838)scale(0.1 -0.1)">
       <defs>
        <path d="M 794 531 
L 1825 531 
L 1825 4091 
L 703 3866 
L 703 4441 
L 1819 4666 
L 2450 4666 
L 2450 531 
L 3481 531 
L 3481 0 
L 794 0 
L 794 531 
z
" id="DejaVuSans-31" transform="scale(0.015625)"/>
       </defs>
       <use xlink:href="#DejaVuSans-31"/>
       <use x="63.623047" xlink:href="#DejaVuSans-30"/>
      </g>
     </g>
    </g>
    <g id="xtick_4">
     <g id="line2d_4">
      <g>
       <use style="stroke:#000000;stroke-width:0.8;" x="625.584675" xlink:href="#m6cd078dc00" y="466.5024"/>
      </g>
     </g>
     <g id="text_4">
      <!-- 15 -->
      <g transform="translate(619.222175 481.100838)scale(0.1 -0.1)">
       <use xlink:href="#DejaVuSans-31"/>
       <use x="63.623047" xlink:href="#DejaVuSans-35"/>
      </g>
     </g>
    </g>
    <g id="xtick_5">
     <g id="line2d_5">
      <g>
       <use style="stroke:#000000;stroke-width:0.8;" x="769.010607" xlink:href="#m6cd078dc00" y="466.5024"/>
      </g>
     </g>
     <g id="text_5">
      <!-- 20 -->
      <g transform="translate(762.648107 481.100838)scale(0.1 -0.1)">
       <defs>
        <path d="M 1228 531 
L 3431 531 
L 3431 0 
L 469 0 
L 469 531 
Q 828 903 1448 1529 
Q 2069 2156 2228 2338 
Q 2531 2678 2651 2914 
Q 2772 3150 2772 3378 
Q 2772 3750 2511 3984 
Q 2250 4219 1831 4219 
Q 1534 4219 1204 4116 
Q 875 4013 500 3803 
L 500 4441 
Q 881 4594 1212 4672 
Q 1544 4750 1819 4750 
Q 2544 4750 2975 4387 
Q 3406 4025 3406 3419 
Q 3406 3131 3298 2873 
Q 3191 2616 2906 2266 
Q 2828 2175 2409 1742 
Q 1991 1309 1228 531 
z
" id="DejaVuSans-32" transform="scale(0.015625)"/>
       </defs>
       <use xlink:href="#DejaVuSans-32"/>
       <use x="63.623047" xlink:href="#DejaVuSans-30"/>
      </g>
     </g>
    </g>
   </g>
   <g id="matplotlib.axis_2">
    <g id="ytick_1">
     <g id="line2d_6">
      <defs>
       <path d="M 0 0 
L -3.5 0 
" id="mf810db6156" style="stroke:#000000;stroke-width:0.8;"/>
      </defs>
      <g>
       <use style="stroke:#000000;stroke-width:0.8;" x="111.15" xlink:href="#mf810db6156" y="414.837797"/>
      </g>
     </g>
     <g id="text_6">
      <!-- −3 -->
      <g transform="translate(89.407812 418.637016)scale(0.1 -0.1)">
       <defs>
        <path d="M 678 2272 
L 4684 2272 
L 4684 1741 
L 678 1741 
L 678 2272 
z
" id="DejaVuSans-2212" transform="scale(0.015625)"/>
        <path d="M 2597 2516 
Q 3050 2419 3304 2112 
Q 3559 1806 3559 1356 
Q 3559 666 3084 287 
Q 2609 -91 1734 -91 
Q 1441 -91 1130 -33 
Q 819 25 488 141 
L 488 750 
Q 750 597 1062 519 
Q 1375 441 1716 441 
Q 2309 441 2620 675 
Q 2931 909 2931 1356 
Q 2931 1769 2642 2001 
Q 2353 2234 1838 2234 
L 1294 2234 
L 1294 2753 
L 1863 2753 
Q 2328 2753 2575 2939 
Q 2822 3125 2822 3475 
Q 2822 3834 2567 4026 
Q 2313 4219 1838 4219 
Q 1578 4219 1281 4162 
Q 984 4106 628 3988 
L 628 4550 
Q 988 4650 1302 4700 
Q 1616 4750 1894 4750 
Q 2613 4750 3031 4423 
Q 3450 4097 3450 3541 
Q 3450 3153 3228 2886 
Q 3006 2619 2597 2516 
z
" id="DejaVuSans-33" transform="scale(0.015625)"/>
       </defs>
       <use xlink:href="#DejaVuSans-2212"/>
       <use x="83.789062" xlink:href="#DejaVuSans-33"/>
      </g>
     </g>
    </g>
    <g id="ytick_2">
     <g id="line2d_7">
      <g>
       <use style="stroke:#000000;stroke-width:0.8;" x="111.15" xlink:href="#mf810db6156" y="347.352892"/>
      </g>
     </g>
     <g id="text_7">
      <!-- −2 -->
      <g transform="translate(89.407812 351.152111)scale(0.1 -0.1)">
       <use xlink:href="#DejaVuSans-2212"/>
       <use x="83.789062" xlink:href="#DejaVuSans-32"/>
      </g>
     </g>
    </g>
    <g id="ytick_3">
     <g id="line2d_8">
      <g>
       <use style="stroke:#000000;stroke-width:0.8;" x="111.15" xlink:href="#mf810db6156" y="279.867987"/>
      </g>
     </g>
     <g id="text_8">
      <!-- −1 -->
      <g transform="translate(89.407812 283.667206)scale(0.1 -0.1)">
       <use xlink:href="#DejaVuSans-2212"/>
       <use x="83.789062" xlink:href="#DejaVuSans-31"/>
      </g>
     </g>
    </g>
    <g id="ytick_4">
     <g id="line2d_9">
      <g>
       <use style="stroke:#000000;stroke-width:0.8;" x="111.15" xlink:href="#mf810db6156" y="212.383083"/>
      </g>
     </g>
     <g id="text_9">
      <!-- 0 -->
      <g transform="translate(97.7875 216.182301)scale(0.1 -0.1)">
       <use xlink:href="#DejaVuSans-30"/>
      </g>
     </g>
    </g>
    <g id="ytick_5">
     <g id="line2d_10">
      <g>
       <use style="stroke:#000000;stroke-width:0.8;" x="111.15" xlink:href="#mf810db6156" y="144.898178"/>
      </g>
     </g>
     <g id="text_10">
      <!-- 1 -->
      <g transform="translate(97.7875 148.697397)scale(0.1 -0.1)">
       <use xlink:href="#DejaVuSans-31"/>
      </g>
     </g>
    </g>
    <g id="ytick_6">
     <g id="line2d_11">
      <g>
       <use style="stroke:#000000;stroke-width:0.8;" x="111.15" xlink:href="#mf810db6156" y="77.413273"/>
      </g>
     </g>
     <g id="text_11">
      <!-- 2 -->
      <g transform="translate(97.7875 81.212492)scale(0.1 -0.1)">
       <use xlink:href="#DejaVuSans-32"/>
      </g>
     </g>
    </g>
   </g>
   <g id="line2d_12">
    <defs>
     <path d="M 0 3 
C 0.795609 3 1.55874 2.683901 2.12132 2.12132 
C 2.683901 1.55874 3 0.795609 3 0 
C 3 -0.795609 2.683901 -1.55874 2.12132 -2.12132 
C 1.55874 -2.683901 0.795609 -3 0 -3 
C -0.795609 -3 -1.55874 -2.683901 -2.12132 -2.12132 
C -2.683901 -1.55874 -3 -0.795609 -3 0 
C -3 0.795609 -2.683901 1.55874 -2.12132 2.12132 
C -1.55874 2.683901 -0.795609 3 0 3 
z
" id="mf84ffd9e23" style="stroke:#1f77b4;"/>
    </defs>
    <g clip-path="url(#pb100803360)">
     <use style="fill:#1f77b4;stroke:#1f77b4;" x="330.720089" xlink:href="#mf84ffd9e23" y="88.87084"/>
     <use style="fill:#1f77b4;stroke:#1f77b4;" x="394.104981" xlink:href="#mf84ffd9e23" y="239.659518"/>
     <use style="fill:#1f77b4;stroke:#1f77b4;" x="374.708032" xlink:href="#mf84ffd9e23" y="197.24373"/>
     <use style="fill:#1f77b4;stroke:#1f77b4;" x="199.844464" xlink:href="#mf84ffd9e23" y="197.865057"/>
     <use style="fill:#1f77b4;stroke:#1f77b4;" x="475.625881" xlink:href="#mf84ffd9e23" y="248.467606"/>
     <use style="fill:#1f77b4;stroke:#1f77b4;" x="316.340122" xlink:href="#mf84ffd9e23" y="81.2448"/>
     <use style="fill:#1f77b4;stroke:#1f77b4;" x="741.424832" xlink:href="#mf84ffd9e23" y="171.306769"/>
     <use style="fill:#1f77b4;stroke:#1f77b4;" x="768.955909" xlink:href="#mf84ffd9e23" y="146.422476"/>
     <use style="fill:#1f77b4;stroke:#1f77b4;" x="339.686411" xlink:href="#mf84ffd9e23" y="98.785976"/>
     <use style="fill:#1f77b4;stroke:#1f77b4;" x="761.361052" xlink:href="#mf84ffd9e23" y="167.074702"/>
     <use style="fill:#1f77b4;stroke:#1f77b4;" x="514.143349" xlink:href="#mf84ffd9e23" y="260.908577"/>
     <use style="fill:#1f77b4;stroke:#1f77b4;" x="446.077353" xlink:href="#mf84ffd9e23" y="238.107307"/>
     <use style="fill:#1f77b4;stroke:#1f77b4;" x="438.969093" xlink:href="#mf84ffd9e23" y="229.114697"/>
     <use style="fill:#1f77b4;stroke:#1f77b4;" x="638.907824" xlink:href="#mf84ffd9e23" y="163.977696"/>
     <use style="fill:#1f77b4;stroke:#1f77b4;" x="356.626763" xlink:href="#mf84ffd9e23" y="189.527353"/>
     <use style="fill:#1f77b4;stroke:#1f77b4;" x="315.48196" xlink:href="#mf84ffd9e23" y="82.281971"/>
     <use style="fill:#1f77b4;stroke:#1f77b4;" x="339.524068" xlink:href="#mf84ffd9e23" y="128.565829"/>
     <use style="fill:#1f77b4;stroke:#1f77b4;" x="206.996017" xlink:href="#mf84ffd9e23" y="179.520534"/>
     <use style="fill:#1f77b4;stroke:#1f77b4;" x="360.362309" xlink:href="#mf84ffd9e23" y="195.907066"/>
     <use style="fill:#1f77b4;stroke:#1f77b4;" x="688.412195" xlink:href="#mf84ffd9e23" y="176.381502"/>
     <use style="fill:#1f77b4;stroke:#1f77b4;" x="239.453889" xlink:href="#mf84ffd9e23" y="232.325418"/>
     <use style="fill:#1f77b4;stroke:#1f77b4;" x="562.704592" xlink:href="#mf84ffd9e23" y="394.004103"/>
     <use style="fill:#1f77b4;stroke:#1f77b4;" x="696.462403" xlink:href="#mf84ffd9e23" y="203.314794"/>
     <use style="fill:#1f77b4;stroke:#1f77b4;" x="355.130651" xlink:href="#mf84ffd9e23" y="170.643999"/>
     <use style="fill:#1f77b4;stroke:#1f77b4;" x="626.337737" xlink:href="#mf84ffd9e23" y="170.530059"/>
     <use style="fill:#1f77b4;stroke:#1f77b4;" x="565.278863" xlink:href="#mf84ffd9e23" y="381.848962"/>
     <use style="fill:#1f77b4;stroke:#1f77b4;" x="239.956199" xlink:href="#mf84ffd9e23" y="212.647327"/>
     <use style="fill:#1f77b4;stroke:#1f77b4;" x="681.914051" xlink:href="#mf84ffd9e23" y="186.490943"/>
     <use style="fill:#1f77b4;stroke:#1f77b4;" x="244.436094" xlink:href="#mf84ffd9e23" y="246.641983"/>
     <use style="fill:#1f77b4;stroke:#1f77b4;" x="512.682962" xlink:href="#mf84ffd9e23" y="245.517782"/>
     <use style="fill:#1f77b4;stroke:#1f77b4;" x="461.132642" xlink:href="#mf84ffd9e23" y="191.11314"/>
     <use style="fill:#1f77b4;stroke:#1f77b4;" x="301.913257" xlink:href="#mf84ffd9e23" y="124.899657"/>
     <use style="fill:#1f77b4;stroke:#1f77b4;" x="259.550725" xlink:href="#mf84ffd9e23" y="190.70878"/>
     <use style="fill:#1f77b4;stroke:#1f77b4;" x="755.420645" xlink:href="#mf84ffd9e23" y="210.300072"/>
     <use style="fill:#1f77b4;stroke:#1f77b4;" x="224.918379" xlink:href="#mf84ffd9e23" y="225.673342"/>
     <use style="fill:#1f77b4;stroke:#1f77b4;" x="503.976455" xlink:href="#mf84ffd9e23" y="246.570231"/>
     <use style="fill:#1f77b4;stroke:#1f77b4;" x="456.739107" xlink:href="#mf84ffd9e23" y="206.496653"/>
     <use style="fill:#1f77b4;stroke:#1f77b4;" x="355.596895" xlink:href="#mf84ffd9e23" y="158.426277"/>
     <use style="fill:#1f77b4;stroke:#1f77b4;" x="297.567333" xlink:href="#mf84ffd9e23" y="134.35907"/>
     <use style="fill:#1f77b4;stroke:#1f77b4;" x="510.260399" xlink:href="#mf84ffd9e23" y="287.409765"/>
     <use style="fill:#1f77b4;stroke:#1f77b4;" x="408.134131" xlink:href="#mf84ffd9e23" y="284.864975"/>
     <use style="fill:#1f77b4;stroke:#1f77b4;" x="708.2932" xlink:href="#mf84ffd9e23" y="222.032845"/>
     <use style="fill:#1f77b4;stroke:#1f77b4;" x="567.09773" xlink:href="#mf84ffd9e23" y="448.1568"/>
     <use style="fill:#1f77b4;stroke:#1f77b4;" x="434.563911" xlink:href="#mf84ffd9e23" y="264.890874"/>
     <use style="fill:#1f77b4;stroke:#1f77b4;" x="278.244669" xlink:href="#mf84ffd9e23" y="159.43568"/>
     <use style="fill:#1f77b4;stroke:#1f77b4;" x="552.381905" xlink:href="#mf84ffd9e23" y="331.787726"/>
     <use style="fill:#1f77b4;stroke:#1f77b4;" x="695.768396" xlink:href="#mf84ffd9e23" y="179.766113"/>
     <use style="fill:#1f77b4;stroke:#1f77b4;" x="496.486796" xlink:href="#mf84ffd9e23" y="241.571819"/>
     <use style="fill:#1f77b4;stroke:#1f77b4;" x="333.908311" xlink:href="#mf84ffd9e23" y="99.223725"/>
     <use style="fill:#1f77b4;stroke:#1f77b4;" x="702.941121" xlink:href="#mf84ffd9e23" y="205.864307"/>
     <use style="fill:#1f77b4;stroke:#1f77b4;" x="448.251374" xlink:href="#mf84ffd9e23" y="182.288621"/>
     <use style="fill:#1f77b4;stroke:#1f77b4;" x="427.46908" xlink:href="#mf84ffd9e23" y="297.239963"/>
     <use style="fill:#1f77b4;stroke:#1f77b4;" x="618.004214" xlink:href="#mf84ffd9e23" y="205.535127"/>
     <use style="fill:#1f77b4;stroke:#1f77b4;" x="742.507458" xlink:href="#mf84ffd9e23" y="202.988565"/>
     <use style="fill:#1f77b4;stroke:#1f77b4;" x="249.915208" xlink:href="#mf84ffd9e23" y="187.957868"/>
     <use style="fill:#1f77b4;stroke:#1f77b4;" x="493.446554" xlink:href="#mf84ffd9e23" y="250.123463"/>
     <use style="fill:#1f77b4;stroke:#1f77b4;" x="203.075018" xlink:href="#mf84ffd9e23" y="200.609191"/>
     <use style="fill:#1f77b4;stroke:#1f77b4;" x="369.367908" xlink:href="#mf84ffd9e23" y="199.177119"/>
     <use style="fill:#1f77b4;stroke:#1f77b4;" x="598.366526" xlink:href="#mf84ffd9e23" y="259.995734"/>
     <use style="fill:#1f77b4;stroke:#1f77b4;" x="537.542383" xlink:href="#mf84ffd9e23" y="280.646902"/>
    </g>
   </g>
   <g id="line2d_13">
    <defs>
     <path d="M 0 3 
C 0.795609 3 1.55874 2.683901 2.12132 2.12132 
C 2.683901 1.55874 3 0.795609 3 0 
C 3 -0.795609 2.683901 -1.55874 2.12132 -2.12132 
C 1.55874 -2.683901 0.795609 -3 0 -3 
C -0.795609 -3 -1.55874 -2.683901 -2.12132 -2.12132 
C -2.683901 -1.55874 -3 -0.795609 -3 0 
C -3 0.795609 -2.683901 1.55874 -2.12132 2.12132 
C -1.55874 2.683901 -0.795609 3 0 3 
z
" id="m40ed3fc46a" style="stroke:#ff7f0e;"/>
    </defs>
    <g clip-path="url(#pb100803360)">
     <use style="fill:#ff7f0e;stroke:#ff7f0e;" x="284.560225" xlink:href="#m40ed3fc46a" y="134.113618"/>
     <use style="fill:#ff7f0e;stroke:#ff7f0e;" x="338.124099" xlink:href="#m40ed3fc46a" y="93.928963"/>
     <use style="fill:#ff7f0e;stroke:#ff7f0e;" x="263.838117" xlink:href="#m40ed3fc46a" y="179.252543"/>
     <use style="fill:#ff7f0e;stroke:#ff7f0e;" x="198.288309" xlink:href="#m40ed3fc46a" y="212.638919"/>
     <use style="fill:#ff7f0e;stroke:#ff7f0e;" x="258.745511" xlink:href="#m40ed3fc46a" y="197.612202"/>
     <use style="fill:#ff7f0e;stroke:#ff7f0e;" x="244.649832" xlink:href="#m40ed3fc46a" y="236.506029"/>
     <use style="fill:#ff7f0e;stroke:#ff7f0e;" x="201.163093" xlink:href="#m40ed3fc46a" y="192.183281"/>
     <use style="fill:#ff7f0e;stroke:#ff7f0e;" x="243.916242" xlink:href="#m40ed3fc46a" y="223.911304"/>
     <use style="fill:#ff7f0e;stroke:#ff7f0e;" x="356.371078" xlink:href="#m40ed3fc46a" y="156.815453"/>
     <use style="fill:#ff7f0e;stroke:#ff7f0e;" x="204.196378" xlink:href="#m40ed3fc46a" y="201.063594"/>
     <use style="fill:#ff7f0e;stroke:#ff7f0e;" x="289.677047" xlink:href="#m40ed3fc46a" y="130.545367"/>
     <use style="fill:#ff7f0e;stroke:#ff7f0e;" x="182.586216" xlink:href="#m40ed3fc46a" y="223.144846"/>
     <use style="fill:#ff7f0e;stroke:#ff7f0e;" x="228.167136" xlink:href="#m40ed3fc46a" y="208.009249"/>
     <use style="fill:#ff7f0e;stroke:#ff7f0e;" x="365.293149" xlink:href="#m40ed3fc46a" y="196.039515"/>
     <use style="fill:#ff7f0e;stroke:#ff7f0e;" x="264.228022" xlink:href="#m40ed3fc46a" y="184.5757"/>
     <use style="fill:#ff7f0e;stroke:#ff7f0e;" x="271.215141" xlink:href="#m40ed3fc46a" y="159.189069"/>
     <use style="fill:#ff7f0e;stroke:#ff7f0e;" x="314.260589" xlink:href="#m40ed3fc46a" y="97.681713"/>
     <use style="fill:#ff7f0e;stroke:#ff7f0e;" x="257.157799" xlink:href="#m40ed3fc46a" y="193.044031"/>
     <use style="fill:#ff7f0e;stroke:#ff7f0e;" x="256.088028" xlink:href="#m40ed3fc46a" y="216.48924"/>
     <use style="fill:#ff7f0e;stroke:#ff7f0e;" x="366.990256" xlink:href="#m40ed3fc46a" y="174.52161"/>
     <use style="fill:#ff7f0e;stroke:#ff7f0e;" x="276.47028" xlink:href="#m40ed3fc46a" y="134.188297"/>
     <use style="fill:#ff7f0e;stroke:#ff7f0e;" x="312.061278" xlink:href="#m40ed3fc46a" y="82.223134"/>
     <use style="fill:#ff7f0e;stroke:#ff7f0e;" x="273.549318" xlink:href="#m40ed3fc46a" y="166.580882"/>
     <use style="fill:#ff7f0e;stroke:#ff7f0e;" x="303.641788" xlink:href="#m40ed3fc46a" y="126.574526"/>
     <use style="fill:#ff7f0e;stroke:#ff7f0e;" x="356.679879" xlink:href="#m40ed3fc46a" y="160.525785"/>
     <use style="fill:#ff7f0e;stroke:#ff7f0e;" x="570.374035" xlink:href="#m40ed3fc46a" y="363.037542"/>
     <use style="fill:#ff7f0e;stroke:#ff7f0e;" x="555.595383" xlink:href="#m40ed3fc46a" y="361.376022"/>
     <use style="fill:#ff7f0e;stroke:#ff7f0e;" x="680.803615" xlink:href="#m40ed3fc46a" y="157.847157"/>
     <use style="fill:#ff7f0e;stroke:#ff7f0e;" x="586.474092" xlink:href="#m40ed3fc46a" y="349.76348"/>
     <use style="fill:#ff7f0e;stroke:#ff7f0e;" x="578.606717" xlink:href="#m40ed3fc46a" y="346.884825"/>
     <use style="fill:#ff7f0e;stroke:#ff7f0e;" x="533.826739" xlink:href="#m40ed3fc46a" y="317.548546"/>
     <use style="fill:#ff7f0e;stroke:#ff7f0e;" x="547.829264" xlink:href="#m40ed3fc46a" y="364.880895"/>
     <use style="fill:#ff7f0e;stroke:#ff7f0e;" x="553.10156" xlink:href="#m40ed3fc46a" y="360.010247"/>
     <use style="fill:#ff7f0e;stroke:#ff7f0e;" x="521.260282" xlink:href="#m40ed3fc46a" y="267.816449"/>
     <use style="fill:#ff7f0e;stroke:#ff7f0e;" x="515.929676" xlink:href="#m40ed3fc46a" y="246.771251"/>
     <use style="fill:#ff7f0e;stroke:#ff7f0e;" x="534.953901" xlink:href="#m40ed3fc46a" y="307.140596"/>
     <use style="fill:#ff7f0e;stroke:#ff7f0e;" x="503.484283" xlink:href="#m40ed3fc46a" y="254.046592"/>
     <use style="fill:#ff7f0e;stroke:#ff7f0e;" x="638.530803" xlink:href="#m40ed3fc46a" y="218.634478"/>
     <use style="fill:#ff7f0e;stroke:#ff7f0e;" x="657.087082" xlink:href="#m40ed3fc46a" y="186.532506"/>
     <use style="fill:#ff7f0e;stroke:#ff7f0e;" x="559.97161" xlink:href="#m40ed3fc46a" y="369.839611"/>
     <use style="fill:#ff7f0e;stroke:#ff7f0e;" x="514.002287" xlink:href="#m40ed3fc46a" y="256.671621"/>
     <use style="fill:#ff7f0e;stroke:#ff7f0e;" x="586.904686" xlink:href="#m40ed3fc46a" y="353.345757"/>
     <use style="fill:#ff7f0e;stroke:#ff7f0e;" x="651.956268" xlink:href="#m40ed3fc46a" y="165.863171"/>
     <use style="fill:#ff7f0e;stroke:#ff7f0e;" x="669.416513" xlink:href="#m40ed3fc46a" y="172.630396"/>
     <use style="fill:#ff7f0e;stroke:#ff7f0e;" x="508.440917" xlink:href="#m40ed3fc46a" y="250.23688"/>
     <use style="fill:#ff7f0e;stroke:#ff7f0e;" x="654.023816" xlink:href="#m40ed3fc46a" y="185.44441"/>
     <use style="fill:#ff7f0e;stroke:#ff7f0e;" x="683.668325" xlink:href="#m40ed3fc46a" y="200.814158"/>
     <use style="fill:#ff7f0e;stroke:#ff7f0e;" x="695.686924" xlink:href="#m40ed3fc46a" y="196.688425"/>
     <use style="fill:#ff7f0e;stroke:#ff7f0e;" x="687.840878" xlink:href="#m40ed3fc46a" y="201.290842"/>
     <use style="fill:#ff7f0e;stroke:#ff7f0e;" x="634.338239" xlink:href="#m40ed3fc46a" y="205.263391"/>
    </g>
   </g>
   <g id="line2d_14">
    <path clip-path="url(#pb100803360)" d="M 199.844464 202.523937 
L 201.551798 200.623231 
L 203.259132 199.113466 
L 204.966467 197.988265 
L 206.10469 197.457607 
L 207.242913 197.122856 
L 208.381135 196.992637 
L 209.519358 197.054029 
L 210.657581 197.291813 
L 212.364916 197.947143 
L 214.07225 198.918531 
L 215.779584 200.160194 
L 218.05603 202.160267 
L 220.332476 204.462223 
L 223.747144 208.269751 
L 228.300036 213.655942 
L 235.698485 222.876172 
L 237.405819 224.542479 
L 239.113153 225.830398 
L 240.251376 226.429736 
L 241.389599 226.785468 
L 242.527822 226.853361 
L 243.666045 226.586598 
L 244.804268 225.935892 
L 245.942491 224.874202 
L 247.080714 223.451187 
L 248.788048 220.772027 
L 250.495382 217.617239 
L 252.771828 212.857493 
L 255.048274 207.454626 
L 257.32472 201.396341 
L 261.3085 190.024593 
L 269.845172 165.542069 
L 273.25984 156.437039 
L 276.105397 149.40073 
L 277.812732 145.786257 
L 279.520066 142.677847 
L 281.2274 140.006689 
L 282.934735 137.737587 
L 284.642069 135.838659 
L 286.349403 134.270426 
L 288.625849 132.566379 
L 291.471406 130.789721 
L 294.316964 128.965931 
L 296.024298 127.627154 
L 297.731632 125.96334 
L 299.438967 123.869494 
L 301.146301 121.27542 
L 302.853635 118.116502 
L 304.56097 114.350685 
L 306.837415 108.623686 
L 310.821196 98.4173 
L 312.52853 94.664684 
L 314.235864 91.542086 
L 315.943199 88.977792 
L 317.081421 87.584745 
L 318.219644 86.443783 
L 319.357867 85.546837 
L 320.49609 84.886603 
L 321.634313 84.456635 
L 322.772536 84.251325 
L 323.910759 84.265886 
L 325.048982 84.496346 
L 326.187205 84.939531 
L 327.325427 85.593062 
L 328.46365 86.455343 
L 329.601873 87.525558 
L 331.309208 89.520885 
L 333.016542 91.987527 
L 334.723876 94.933836 
L 336.431211 98.390268 
L 338.138545 102.410606 
L 339.845879 107.010453 
L 342.122325 113.841616 
L 344.967882 123.194805 
L 349.520774 139.131571 
L 354.073665 154.936163 
L 356.919223 164.096698 
L 359.195668 170.790945 
L 361.472114 176.720638 
L 363.74856 181.848158 
L 366.025006 186.304517 
L 372.854343 199.03806 
L 376.838123 206.96636 
L 380.821903 215.416283 
L 385.374795 225.587268 
L 391.065909 238.873509 
L 401.879027 264.346343 
L 404.155473 269.067285 
L 406.431918 273.278928 
L 408.139253 276.019593 
L 409.846587 278.343222 
L 411.553921 280.234658 
L 413.261256 281.685464 
L 414.399479 282.40224 
L 415.537702 282.913777 
L 416.675924 283.215127 
L 417.814147 283.300654 
L 418.95237 283.164027 
L 420.090593 282.798198 
L 421.228816 282.19538 
L 422.367039 281.347036 
L 423.505262 280.24385 
L 424.643485 278.875707 
L 425.781708 277.231665 
L 426.91993 275.299932 
L 428.627265 271.843037 
L 430.334599 267.769905 
L 432.611045 261.559643 
L 434.887491 254.676911 
L 443.424162 227.959443 
L 445.700608 221.795801 
L 447.407942 217.676259 
L 449.115277 214.154761 
L 450.822611 211.316515 
L 451.960834 209.794903 
L 453.099057 208.56279 
L 454.23728 207.615098 
L 455.375503 206.947511 
L 456.513726 206.55647 
L 457.651948 206.439156 
L 458.790171 206.593469 
L 459.928394 207.018037 
L 461.066617 207.712213 
L 462.20484 208.67143 
L 463.343063 209.869684 
L 465.050397 212.045535 
L 466.757732 214.581912 
L 469.034177 218.346072 
L 475.863515 229.97833 
L 478.139961 233.235553 
L 480.416406 236.073777 
L 482.692852 238.542706 
L 484.969298 240.687442 
L 487.245744 242.548894 
L 489.522189 244.164154 
L 492.367747 245.887933 
L 495.213304 247.342695 
L 499.766195 249.375711 
L 503.180864 250.699279 
L 510.010201 253.17192 
L 511.717536 254.00327 
L 513.42487 255.117077 
L 514.563093 256.113943 
L 515.701316 257.380011 
L 516.839539 258.97486 
L 517.977762 260.897922 
L 519.685096 264.338065 
L 521.39243 268.365046 
L 523.668876 274.494059 
L 525.945322 281.295626 
L 529.359991 292.300621 
L 544.156888 341.100727 
L 546.433334 347.710749 
L 548.140668 351.990685 
L 549.848003 355.624576 
L 552.124448 359.832221 
L 556.67734 367.618888 
L 558.953786 371.18988 
L 560.66112 373.498544 
L 561.799343 374.767259 
L 562.937566 375.741658 
L 564.075789 376.362909 
L 565.214012 376.594209 
L 566.352235 376.402 
L 567.490457 375.759284 
L 568.62868 374.694344 
L 569.766903 373.316223 
L 571.474238 370.899737 
L 573.750683 367.306839 
L 582.287355 353.052369 
L 583.994689 349.622848 
L 585.132912 346.927954 
L 586.271135 343.804378 
L 587.409358 340.170236 
L 589.116692 333.781948 
L 590.824027 326.471855 
L 593.100472 315.684731 
L 597.653364 292.507512 
L 601.068033 275.617475 
L 604.482701 259.946824 
L 607.328259 247.956999 
L 609.604704 239.152782 
L 611.88115 231.124529 
L 614.157596 223.950159 
L 615.86493 219.18141 
L 617.572265 214.981418 
L 619.279599 211.389541 
L 620.986933 208.413697 
L 622.125156 206.768646 
L 623.263379 205.393298 
L 624.401602 204.287291 
L 625.539825 203.450995 
L 626.678048 202.88522 
L 627.816271 202.568868 
L 629.523605 202.432128 
L 634.645608 202.506485 
L 635.783831 202.234209 
L 636.922054 201.750304 
L 638.060277 201.016144 
L 639.1985 199.997683 
L 640.336722 198.72263 
L 642.044057 196.439339 
L 644.320503 192.950515 
L 648.873394 185.849138 
L 650.580728 183.625463 
L 651.718951 182.404317 
L 652.857174 181.436489 
L 654.564509 180.327693 
L 665.946737 173.970741 
L 667.654072 173.305317 
L 669.361406 172.861266 
L 671.06874 172.693024 
L 672.206963 172.75975 
L 673.345186 172.98772 
L 674.483409 173.393035 
L 675.621632 173.992338 
L 676.759855 174.802855 
L 677.898078 175.842445 
L 679.036301 177.129639 
L 680.174524 178.683695 
L 681.881858 181.531482 
L 685.296527 187.64138 
L 687.003861 190.255986 
L 688.711195 192.45636 
L 690.41853 194.290941 
L 692.694975 196.374833 
L 698.38609 201.338931 
L 702.938981 205.395258 
L 705.215427 207.119703 
L 706.922762 208.17175 
L 708.630096 208.954619 
L 710.33743 209.435636 
L 712.044765 209.636831 
L 713.752099 209.586291 
L 715.459433 209.31062 
L 717.166768 208.835099 
L 719.443213 207.93172 
L 721.719659 206.770203 
L 724.565216 205.033979 
L 727.979885 202.660759 
L 739.362114 194.462903 
L 742.207671 192.827956 
L 747.898786 189.791254 
L 750.175231 188.277952 
L 751.882566 186.907673 
L 753.5899 185.271992 
L 755.297234 183.312115 
L 757.004569 180.991998 
L 759.281015 177.489019 
L 765.54124 167.52077 
L 767.817686 164.391944 
L 768.955909 163.021697 
L 768.955909 163.021697 
" style="fill:none;stroke:#2ca02c;stroke-linecap:square;stroke-width:1.5;"/>
   </g>
   <g id="line2d_15">
    <path clip-path="url(#pb100803360)" d="M 142.474091 227.260944 
L 148.734317 228.229842 
L 153.85632 228.804257 
L 157.8401 229.050124 
L 161.254769 229.074382 
L 164.669437 228.881468 
L 167.514995 228.518605 
L 170.360552 227.936137 
L 173.206109 227.095446 
L 175.482555 226.207608 
L 177.759001 225.101195 
L 180.035446 223.748212 
L 182.311892 222.117682 
L 184.588338 220.185465 
L 186.864784 217.982221 
L 189.710341 214.920477 
L 193.12501 210.912058 
L 198.816124 203.796846 
L 201.09257 201.098222 
L 202.799904 199.480855 
L 204.507238 198.253626 
L 205.645461 197.64918 
L 206.783684 197.233159 
L 207.921907 197.021242 
L 209.06013 197.007188 
L 210.198353 197.175603 
L 211.336576 197.511571 
L 213.04391 198.2982 
L 214.751244 199.382455 
L 216.458579 200.719277 
L 218.735025 202.819727 
L 221.580582 205.817375 
L 226.133473 211.040964 
L 228.979031 214.514496 
L 234.670145 221.731272 
L 236.377479 223.577821 
L 238.084814 225.105563 
L 239.223037 225.897966 
L 240.36126 226.475352 
L 241.499482 226.805315 
L 242.637705 226.842956 
L 243.775928 226.541374 
L 244.914151 225.850857 
L 246.052374 224.751606 
L 247.190597 223.296943 
L 248.897931 220.581214 
L 250.605266 217.401818 
L 252.881711 212.611722 
L 255.158157 207.17699 
L 257.434603 201.091375 
L 261.987494 188.050193 
L 269.385943 166.811558 
L 272.800612 157.628062 
L 275.646169 150.468945 
L 277.353503 146.70375 
L 279.060838 143.469367 
L 280.768172 140.684237 
L 282.475506 138.31025 
L 284.182841 136.314724 
L 285.890175 134.663596 
L 287.597509 133.291455 
L 289.873955 131.759202 
L 294.426847 128.887298 
L 296.134181 127.531102 
L 297.841515 125.842402 
L 299.54885 123.71829 
L 301.256184 121.089802 
L 302.963518 117.892535 
L 304.670853 114.089076 
L 306.947299 108.336239 
L 310.931079 98.158119 
L 312.638413 94.445351 
L 314.345747 91.360562 
L 316.053082 88.83212 
L 317.191305 87.463736 
L 318.329528 86.346674 
L 319.46775 85.472884 
L 320.605973 84.835148 
L 321.744196 84.4271 
L 322.882419 84.243211 
L 324.020642 84.278776 
L 325.158865 84.529898 
L 326.297088 84.993481 
L 327.435311 85.667222 
L 328.573534 86.549599 
L 329.711756 87.639873 
L 331.419091 89.665385 
L 333.126425 92.16258 
L 334.833759 95.140396 
L 336.541094 98.631428 
L 338.248428 102.690019 
L 339.955762 107.323418 
L 342.232208 114.188066 
L 345.077765 123.569301 
L 349.630657 139.520587 
L 354.183549 155.303513 
L 357.029106 164.434479 
L 359.305552 171.096219 
L 361.581997 176.985641 
L 363.858443 182.077518 
L 366.134889 186.506855 
L 372.395115 198.157086 
L 376.378895 206.024172 
L 380.362675 214.418733 
L 384.915567 224.540282 
L 390.606681 237.783042 
L 401.98891 264.583911 
L 404.265356 269.28337 
L 406.541802 273.466954 
L 408.249136 276.182035 
L 409.95647 278.47804 
L 411.663805 280.341405 
L 413.371139 281.763488 
L 414.509362 282.460648 
L 415.647585 282.95212 
L 416.785808 283.232891 
L 417.92403 283.297259 
L 419.062253 283.138824 
L 420.200476 282.750467 
L 421.338699 282.124332 
L 422.476922 281.251804 
L 423.615145 280.123494 
L 424.753368 278.729205 
L 425.891591 277.057918 
L 427.029814 275.097756 
L 428.737148 271.598333 
L 430.444482 267.489114 
L 432.720928 261.240985 
L 435.566485 252.530113 
L 442.395823 230.94667 
L 444.672268 224.496027 
L 446.948714 218.733221 
L 448.656049 215.034502 
L 450.363383 212.01369 
L 451.501606 210.373664 
L 452.639829 209.025404 
L 453.778052 207.96352 
L 454.916274 207.183393 
L 456.054497 206.681157 
L 457.19272 206.453698 
L 458.330943 206.498627 
L 459.469166 206.814276 
L 460.607389 207.399707 
L 461.745612 208.253839 
L 462.883835 209.359529 
L 464.591169 211.420498 
L 466.298503 213.870147 
L 468.574949 217.561597 
L 476.542509 230.996858 
L 478.818955 234.123614 
L 481.095401 236.846704 
L 483.371847 239.214413 
L 485.648292 241.270552 
L 487.924738 243.054855 
L 490.201184 244.603342 
L 493.046741 246.256769 
L 496.46141 247.924152 
L 501.014301 249.884104 
L 504.42897 251.126073 
L 508.981862 252.731883 
L 511.258307 253.760931 
L 512.965642 254.777725 
L 514.103865 255.683004 
L 515.242088 256.832511 
L 516.380311 258.290363 
L 517.518533 260.084311 
L 519.225868 263.351375 
L 520.933202 267.229187 
L 522.640536 271.62936 
L 524.916982 278.15338 
L 527.762539 287.067156 
L 538.006545 320.760134 
L 544.266771 341.438708 
L 546.543217 348.005882 
L 548.250551 352.242482 
L 549.957886 355.840878 
L 552.234332 360.025623 
L 556.787223 367.799836 
L 559.063669 371.350017 
L 560.771003 373.631963 
L 561.909226 374.875258 
L 563.047449 375.817696 
L 564.185672 376.402792 
L 565.323895 376.594615 
L 566.462118 376.359972 
L 567.600341 375.673328 
L 568.738563 374.573124 
L 570.445898 372.392289 
L 572.722344 368.969814 
L 576.137012 363.312805 
L 582.96635 351.761768 
L 584.673684 348.061874 
L 585.811907 345.12186 
L 586.95013 341.701078 
L 588.657464 335.600489 
L 590.364798 328.515657 
L 592.641244 317.934527 
L 596.055913 300.702837 
L 600.608804 277.822076 
L 604.023473 261.976613 
L 606.86903 249.820748 
L 609.714588 238.746844 
L 611.991033 230.757953 
L 614.267479 223.626913 
L 615.974813 218.893531 
L 617.682148 214.731591 
L 619.389482 211.179556 
L 621.096816 208.243099 
L 622.235039 206.624121 
L 623.373262 205.274779 
L 624.511485 204.194782 
L 625.649708 203.38457 
L 626.787931 202.844642 
L 627.926154 202.549405 
L 629.633488 202.433068 
L 634.755491 202.488371 
L 635.893714 202.197333 
L 637.031937 201.690963 
L 638.17016 200.930576 
L 639.308383 199.884877 
L 641.015717 197.861056 
L 642.723051 195.438173 
L 646.13772 190.028761 
L 648.983277 185.694454 
L 650.690612 183.497345 
L 651.828835 182.299699 
L 652.967057 181.355097 
L 654.674392 180.264491 
L 662.641952 175.688492 
L 665.487509 174.180528 
L 667.763955 173.269489 
L 669.471289 172.841565 
L 671.178624 172.692869 
L 672.316847 172.774474 
L 673.455069 173.018854 
L 674.593292 173.442162 
L 675.731515 174.061094 
L 676.869738 174.892937 
L 678.007961 175.95561 
L 679.146184 177.267716 
L 680.284407 178.848582 
L 681.991741 181.730954 
L 685.40641 187.820899 
L 687.113744 190.410639 
L 688.821078 192.584075 
L 690.528413 194.39937 
L 692.804859 196.469076 
L 698.495973 201.440147 
L 703.048865 205.485237 
L 705.32531 207.194419 
L 707.032645 208.230845 
L 708.739979 208.99457 
L 710.447313 209.456701 
L 711.585536 209.608604 
L 711.585536 209.608604 
" style="fill:none;stroke:#d62728;stroke-dasharray:5.55,2.4;stroke-dashoffset:0;stroke-width:1.5;"/>
   </g>
   <g id="patch_3">
    <path d="M 111.15 466.5024 
L 111.15 62.8992 
" style="fill:none;stroke:#000000;stroke-linecap:square;stroke-linejoin:miter;stroke-width:0.8;"/>
   </g>
   <g id="patch_4">
    <path d="M 800.28 466.5024 
L 800.28 62.8992 
" style="fill:none;stroke:#000000;stroke-linecap:square;stroke-linejoin:miter;stroke-width:0.8;"/>
   </g>
   <g id="patch_5">
    <path d="M 111.15 466.5024 
L 800.28 466.5024 
" style="fill:none;stroke:#000000;stroke-linecap:square;stroke-linejoin:miter;stroke-width:0.8;"/>
   </g>
   <g id="patch_6">
    <path d="M 111.15 62.8992 
L 800.28 62.8992 
" style="fill:none;stroke:#000000;stroke-linecap:square;stroke-linejoin:miter;stroke-width:0.8;"/>
   </g>
   <g id="text_12">
    <!-- 2.000000 -->
    <g transform="translate(427.085625 56.8992)scale(0.12 -0.12)">
     <defs>
      <path d="M 684 794 
L 1344 794 
L 1344 0 
L 684 0 
L 684 794 
z
" id="DejaVuSans-2e" transform="scale(0.015625)"/>
     </defs>
     <use xlink:href="#DejaVuSans-32"/>
     <use x="63.623047" xlink:href="#DejaVuSans-2e"/>
     <use x="95.410156" xlink:href="#DejaVuSans-30"/>
     <use x="159.033203" xlink:href="#DejaVuSans-30"/>
     <use x="222.65625" xlink:href="#DejaVuSans-30"/>
     <use x="286.279297" xlink:href="#DejaVuSans-30"/>
     <use x="349.902344" xlink:href="#DejaVuSans-30"/>
     <use x="413.525391" xlink:href="#DejaVuSans-30"/>
    </g>
   </g>
  </g>
 </g>
 <defs>
  <clipPath id="pb100803360">
   <rect height="403.6032" width="689.13" x="111.15" y="62.8992"/>
  </clipPath>
 </defs>
</svg>
