<?xml version="1.0" encoding="utf-8" standalone="no"?>
<!DOCTYPE svg PUBLIC "-//W3C//DTD SVG 1.1//EN"
  "http://www.w3.org/Graphics/SVG/1.1/DTD/svg11.dtd">
<svg height="524.16pt" version="1.1" viewBox="0 0 889.2 524.16" width="889.2pt" xmlns="http://www.w3.org/2000/svg" xmlns:xlink="http://www.w3.org/1999/xlink">
 <metadata>
  <rdf:RDF xmlns:cc="http://creativecommons.org/ns#" xmlns:dc="http://purl.org/dc/elements/1.1/" xmlns:rdf="http://www.w3.org/1999/02/22-rdf-syntax-ns#">
   <cc:Work>
    <dc:type rdf:resource="http://purl.org/dc/dcmitype/StillImage"/>
    <dc:date>2022-06-02T11:57:40.024746</dc:date>
    <dc:format>image/svg+xml</dc:format>
    <dc:creator>
     <cc:Agent>
      <dc:title>Matplotlib v3.4.3, https://matplotlib.org/</dc:title>
     </cc:Agent>
    </dc:creator>
   </cc:Work>
  </rdf:RDF>
 </metadata>
 <defs>
  <style type="text/css">*{stroke-linecap:butt;stroke-linejoin:round;}</style>
 </defs>
 <g id="figure_1">
  <g id="patch_1">
   <path d="M 0 524.16 
L 889.2 524.16 
L 889.2 0 
L 0 0 
z
" style="fill:#ffffff;"/>
  </g>
  <g id="axes_1">
   <g id="patch_2">
    <path d="M 111.15 466.5024 
L 800.28 466.5024 
L 800.28 62.8992 
L 111.15 62.8992 
z
" style="fill:#ffffff;"/>
   </g>
   <g id="matplotlib.axis_1">
    <g id="xtick_1">
     <g id="line2d_1">
      <defs>
       <path d="M 0 0 
L 0 3.5 
" id="m41f74a5231" style="stroke:#000000;stroke-width:0.8;"/>
      </defs>
      <g>
       <use style="stroke:#000000;stroke-width:0.8;" x="158.136136" xlink:href="#m41f74a5231" y="466.5024"/>
      </g>
     </g>
     <g id="text_1">
      <!-- −750 -->
      <g transform="translate(144.402543 481.100838)scale(0.1 -0.1)">
       <defs>
        <path d="M 678 2272 
L 4684 2272 
L 4684 1741 
L 678 1741 
L 678 2272 
z
" id="DejaVuSans-2212" transform="scale(0.015625)"/>
        <path d="M 525 4666 
L 3525 4666 
L 3525 4397 
L 1831 0 
L 1172 0 
L 2766 4134 
L 525 4134 
L 525 4666 
z
" id="DejaVuSans-37" transform="scale(0.015625)"/>
        <path d="M 691 4666 
L 3169 4666 
L 3169 4134 
L 1269 4134 
L 1269 2991 
Q 1406 3038 1543 3061 
Q 1681 3084 1819 3084 
Q 2600 3084 3056 2656 
Q 3513 2228 3513 1497 
Q 3513 744 3044 326 
Q 2575 -91 1722 -91 
Q 1428 -91 1123 -41 
Q 819 9 494 109 
L 494 744 
Q 775 591 1075 516 
Q 1375 441 1709 441 
Q 2250 441 2565 725 
Q 2881 1009 2881 1497 
Q 2881 1984 2565 2268 
Q 2250 2553 1709 2553 
Q 1456 2553 1204 2497 
Q 953 2441 691 2322 
L 691 4666 
z
" id="DejaVuSans-35" transform="scale(0.015625)"/>
        <path d="M 2034 4250 
Q 1547 4250 1301 3770 
Q 1056 3291 1056 2328 
Q 1056 1369 1301 889 
Q 1547 409 2034 409 
Q 2525 409 2770 889 
Q 3016 1369 3016 2328 
Q 3016 3291 2770 3770 
Q 2525 4250 2034 4250 
z
M 2034 4750 
Q 2819 4750 3233 4129 
Q 3647 3509 3647 2328 
Q 3647 1150 3233 529 
Q 2819 -91 2034 -91 
Q 1250 -91 836 529 
Q 422 1150 422 2328 
Q 422 3509 836 4129 
Q 1250 4750 2034 4750 
z
" id="DejaVuSans-30" transform="scale(0.015625)"/>
       </defs>
       <use xlink:href="#DejaVuSans-2212"/>
       <use x="83.789062" xlink:href="#DejaVuSans-37"/>
       <use x="147.412109" xlink:href="#DejaVuSans-35"/>
       <use x="211.035156" xlink:href="#DejaVuSans-30"/>
      </g>
     </g>
    </g>
    <g id="xtick_2">
     <g id="line2d_2">
      <g>
       <use style="stroke:#000000;stroke-width:0.8;" x="236.446364" xlink:href="#m41f74a5231" y="466.5024"/>
      </g>
     </g>
     <g id="text_2">
      <!-- −500 -->
      <g transform="translate(222.71277 481.100838)scale(0.1 -0.1)">
       <use xlink:href="#DejaVuSans-2212"/>
       <use x="83.789062" xlink:href="#DejaVuSans-35"/>
       <use x="147.412109" xlink:href="#DejaVuSans-30"/>
       <use x="211.035156" xlink:href="#DejaVuSans-30"/>
      </g>
     </g>
    </g>
    <g id="xtick_3">
     <g id="line2d_3">
      <g>
       <use style="stroke:#000000;stroke-width:0.8;" x="314.756591" xlink:href="#m41f74a5231" y="466.5024"/>
      </g>
     </g>
     <g id="text_3">
      <!-- −250 -->
      <g transform="translate(301.022997 481.100838)scale(0.1 -0.1)">
       <defs>
        <path d="M 1228 531 
L 3431 531 
L 3431 0 
L 469 0 
L 469 531 
Q 828 903 1448 1529 
Q 2069 2156 2228 2338 
Q 2531 2678 2651 2914 
Q 2772 3150 2772 3378 
Q 2772 3750 2511 3984 
Q 2250 4219 1831 4219 
Q 1534 4219 1204 4116 
Q 875 4013 500 3803 
L 500 4441 
Q 881 4594 1212 4672 
Q 1544 4750 1819 4750 
Q 2544 4750 2975 4387 
Q 3406 4025 3406 3419 
Q 3406 3131 3298 2873 
Q 3191 2616 2906 2266 
Q 2828 2175 2409 1742 
Q 1991 1309 1228 531 
z
" id="DejaVuSans-32" transform="scale(0.015625)"/>
       </defs>
       <use xlink:href="#DejaVuSans-2212"/>
       <use x="83.789062" xlink:href="#DejaVuSans-32"/>
       <use x="147.412109" xlink:href="#DejaVuSans-35"/>
       <use x="211.035156" xlink:href="#DejaVuSans-30"/>
      </g>
     </g>
    </g>
    <g id="xtick_4">
     <g id="line2d_4">
      <g>
       <use style="stroke:#000000;stroke-width:0.8;" x="393.066818" xlink:href="#m41f74a5231" y="466.5024"/>
      </g>
     </g>
     <g id="text_4">
      <!-- 0 -->
      <g transform="translate(389.885568 481.100838)scale(0.1 -0.1)">
       <use xlink:href="#DejaVuSans-30"/>
      </g>
     </g>
    </g>
    <g id="xtick_5">
     <g id="line2d_5">
      <g>
       <use style="stroke:#000000;stroke-width:0.8;" x="471.377045" xlink:href="#m41f74a5231" y="466.5024"/>
      </g>
     </g>
     <g id="text_5">
      <!-- 250 -->
      <g transform="translate(461.833295 481.100838)scale(0.1 -0.1)">
       <use xlink:href="#DejaVuSans-32"/>
       <use x="63.623047" xlink:href="#DejaVuSans-35"/>
       <use x="127.246094" xlink:href="#DejaVuSans-30"/>
      </g>
     </g>
    </g>
    <g id="xtick_6">
     <g id="line2d_6">
      <g>
       <use style="stroke:#000000;stroke-width:0.8;" x="549.687273" xlink:href="#m41f74a5231" y="466.5024"/>
      </g>
     </g>
     <g id="text_6">
      <!-- 500 -->
      <g transform="translate(540.143523 481.100838)scale(0.1 -0.1)">
       <use xlink:href="#DejaVuSans-35"/>
       <use x="63.623047" xlink:href="#DejaVuSans-30"/>
       <use x="127.246094" xlink:href="#DejaVuSans-30"/>
      </g>
     </g>
    </g>
    <g id="xtick_7">
     <g id="line2d_7">
      <g>
       <use style="stroke:#000000;stroke-width:0.8;" x="627.9975" xlink:href="#m41f74a5231" y="466.5024"/>
      </g>
     </g>
     <g id="text_7">
      <!-- 750 -->
      <g transform="translate(618.45375 481.100838)scale(0.1 -0.1)">
       <use xlink:href="#DejaVuSans-37"/>
       <use x="63.623047" xlink:href="#DejaVuSans-35"/>
       <use x="127.246094" xlink:href="#DejaVuSans-30"/>
      </g>
     </g>
    </g>
    <g id="xtick_8">
     <g id="line2d_8">
      <g>
       <use style="stroke:#000000;stroke-width:0.8;" x="706.307727" xlink:href="#m41f74a5231" y="466.5024"/>
      </g>
     </g>
     <g id="text_8">
      <!-- 1000 -->
      <g transform="translate(693.582727 481.100838)scale(0.1 -0.1)">
       <defs>
        <path d="M 794 531 
L 1825 531 
L 1825 4091 
L 703 3866 
L 703 4441 
L 1819 4666 
L 2450 4666 
L 2450 531 
L 3481 531 
L 3481 0 
L 794 0 
L 794 531 
z
" id="DejaVuSans-31" transform="scale(0.015625)"/>
       </defs>
       <use xlink:href="#DejaVuSans-31"/>
       <use x="63.623047" xlink:href="#DejaVuSans-30"/>
       <use x="127.246094" xlink:href="#DejaVuSans-30"/>
       <use x="190.869141" xlink:href="#DejaVuSans-30"/>
      </g>
     </g>
    </g>
    <g id="xtick_9">
     <g id="line2d_9">
      <g>
       <use style="stroke:#000000;stroke-width:0.8;" x="784.617955" xlink:href="#m41f74a5231" y="466.5024"/>
      </g>
     </g>
     <g id="text_9">
      <!-- 1250 -->
      <g transform="translate(771.892955 481.100838)scale(0.1 -0.1)">
       <use xlink:href="#DejaVuSans-31"/>
       <use x="63.623047" xlink:href="#DejaVuSans-32"/>
       <use x="127.246094" xlink:href="#DejaVuSans-35"/>
       <use x="190.869141" xlink:href="#DejaVuSans-30"/>
      </g>
     </g>
    </g>
   </g>
   <g id="matplotlib.axis_2">
    <g id="ytick_1">
     <g id="line2d_10">
      <defs>
       <path d="M 0 0 
L -3.5 0 
" id="m78f6228c9d" style="stroke:#000000;stroke-width:0.8;"/>
      </defs>
      <g>
       <use style="stroke:#000000;stroke-width:0.8;" x="111.15" xlink:href="#m78f6228c9d" y="448.1568"/>
      </g>
     </g>
     <g id="text_10">
      <!-- 0.000 -->
      <g transform="translate(75.521875 451.956019)scale(0.1 -0.1)">
       <defs>
        <path d="M 684 794 
L 1344 794 
L 1344 0 
L 684 0 
L 684 794 
z
" id="DejaVuSans-2e" transform="scale(0.015625)"/>
       </defs>
       <use xlink:href="#DejaVuSans-30"/>
       <use x="63.623047" xlink:href="#DejaVuSans-2e"/>
       <use x="95.410156" xlink:href="#DejaVuSans-30"/>
       <use x="159.033203" xlink:href="#DejaVuSans-30"/>
       <use x="222.65625" xlink:href="#DejaVuSans-30"/>
      </g>
     </g>
    </g>
    <g id="ytick_2">
     <g id="line2d_11">
      <g>
       <use style="stroke:#000000;stroke-width:0.8;" x="111.15" xlink:href="#m78f6228c9d" y="401.44376"/>
      </g>
     </g>
     <g id="text_11">
      <!-- 0.001 -->
      <g transform="translate(75.521875 405.242979)scale(0.1 -0.1)">
       <use xlink:href="#DejaVuSans-30"/>
       <use x="63.623047" xlink:href="#DejaVuSans-2e"/>
       <use x="95.410156" xlink:href="#DejaVuSans-30"/>
       <use x="159.033203" xlink:href="#DejaVuSans-30"/>
       <use x="222.65625" xlink:href="#DejaVuSans-31"/>
      </g>
     </g>
    </g>
    <g id="ytick_3">
     <g id="line2d_12">
      <g>
       <use style="stroke:#000000;stroke-width:0.8;" x="111.15" xlink:href="#m78f6228c9d" y="354.73072"/>
      </g>
     </g>
     <g id="text_12">
      <!-- 0.002 -->
      <g transform="translate(75.521875 358.529939)scale(0.1 -0.1)">
       <use xlink:href="#DejaVuSans-30"/>
       <use x="63.623047" xlink:href="#DejaVuSans-2e"/>
       <use x="95.410156" xlink:href="#DejaVuSans-30"/>
       <use x="159.033203" xlink:href="#DejaVuSans-30"/>
       <use x="222.65625" xlink:href="#DejaVuSans-32"/>
      </g>
     </g>
    </g>
    <g id="ytick_4">
     <g id="line2d_13">
      <g>
       <use style="stroke:#000000;stroke-width:0.8;" x="111.15" xlink:href="#m78f6228c9d" y="308.01768"/>
      </g>
     </g>
     <g id="text_13">
      <!-- 0.003 -->
      <g transform="translate(75.521875 311.816899)scale(0.1 -0.1)">
       <defs>
        <path d="M 2597 2516 
Q 3050 2419 3304 2112 
Q 3559 1806 3559 1356 
Q 3559 666 3084 287 
Q 2609 -91 1734 -91 
Q 1441 -91 1130 -33 
Q 819 25 488 141 
L 488 750 
Q 750 597 1062 519 
Q 1375 441 1716 441 
Q 2309 441 2620 675 
Q 2931 909 2931 1356 
Q 2931 1769 2642 2001 
Q 2353 2234 1838 2234 
L 1294 2234 
L 1294 2753 
L 1863 2753 
Q 2328 2753 2575 2939 
Q 2822 3125 2822 3475 
Q 2822 3834 2567 4026 
Q 2313 4219 1838 4219 
Q 1578 4219 1281 4162 
Q 984 4106 628 3988 
L 628 4550 
Q 988 4650 1302 4700 
Q 1616 4750 1894 4750 
Q 2613 4750 3031 4423 
Q 3450 4097 3450 3541 
Q 3450 3153 3228 2886 
Q 3006 2619 2597 2516 
z
" id="DejaVuSans-33" transform="scale(0.015625)"/>
       </defs>
       <use xlink:href="#DejaVuSans-30"/>
       <use x="63.623047" xlink:href="#DejaVuSans-2e"/>
       <use x="95.410156" xlink:href="#DejaVuSans-30"/>
       <use x="159.033203" xlink:href="#DejaVuSans-30"/>
       <use x="222.65625" xlink:href="#DejaVuSans-33"/>
      </g>
     </g>
    </g>
    <g id="ytick_5">
     <g id="line2d_14">
      <g>
       <use style="stroke:#000000;stroke-width:0.8;" x="111.15" xlink:href="#m78f6228c9d" y="261.30464"/>
      </g>
     </g>
     <g id="text_14">
      <!-- 0.004 -->
      <g transform="translate(75.521875 265.103859)scale(0.1 -0.1)">
       <defs>
        <path d="M 2419 4116 
L 825 1625 
L 2419 1625 
L 2419 4116 
z
M 2253 4666 
L 3047 4666 
L 3047 1625 
L 3713 1625 
L 3713 1100 
L 3047 1100 
L 3047 0 
L 2419 0 
L 2419 1100 
L 313 1100 
L 313 1709 
L 2253 4666 
z
" id="DejaVuSans-34" transform="scale(0.015625)"/>
       </defs>
       <use xlink:href="#DejaVuSans-30"/>
       <use x="63.623047" xlink:href="#DejaVuSans-2e"/>
       <use x="95.410156" xlink:href="#DejaVuSans-30"/>
       <use x="159.033203" xlink:href="#DejaVuSans-30"/>
       <use x="222.65625" xlink:href="#DejaVuSans-34"/>
      </g>
     </g>
    </g>
    <g id="ytick_6">
     <g id="line2d_15">
      <g>
       <use style="stroke:#000000;stroke-width:0.8;" x="111.15" xlink:href="#m78f6228c9d" y="214.5916"/>
      </g>
     </g>
     <g id="text_15">
      <!-- 0.005 -->
      <g transform="translate(75.521875 218.390819)scale(0.1 -0.1)">
       <use xlink:href="#DejaVuSans-30"/>
       <use x="63.623047" xlink:href="#DejaVuSans-2e"/>
       <use x="95.410156" xlink:href="#DejaVuSans-30"/>
       <use x="159.033203" xlink:href="#DejaVuSans-30"/>
       <use x="222.65625" xlink:href="#DejaVuSans-35"/>
      </g>
     </g>
    </g>
    <g id="ytick_7">
     <g id="line2d_16">
      <g>
       <use style="stroke:#000000;stroke-width:0.8;" x="111.15" xlink:href="#m78f6228c9d" y="167.87856"/>
      </g>
     </g>
     <g id="text_16">
      <!-- 0.006 -->
      <g transform="translate(75.521875 171.677779)scale(0.1 -0.1)">
       <defs>
        <path d="M 2113 2584 
Q 1688 2584 1439 2293 
Q 1191 2003 1191 1497 
Q 1191 994 1439 701 
Q 1688 409 2113 409 
Q 2538 409 2786 701 
Q 3034 994 3034 1497 
Q 3034 2003 2786 2293 
Q 2538 2584 2113 2584 
z
M 3366 4563 
L 3366 3988 
Q 3128 4100 2886 4159 
Q 2644 4219 2406 4219 
Q 1781 4219 1451 3797 
Q 1122 3375 1075 2522 
Q 1259 2794 1537 2939 
Q 1816 3084 2150 3084 
Q 2853 3084 3261 2657 
Q 3669 2231 3669 1497 
Q 3669 778 3244 343 
Q 2819 -91 2113 -91 
Q 1303 -91 875 529 
Q 447 1150 447 2328 
Q 447 3434 972 4092 
Q 1497 4750 2381 4750 
Q 2619 4750 2861 4703 
Q 3103 4656 3366 4563 
z
" id="DejaVuSans-36" transform="scale(0.015625)"/>
       </defs>
       <use xlink:href="#DejaVuSans-30"/>
       <use x="63.623047" xlink:href="#DejaVuSans-2e"/>
       <use x="95.410156" xlink:href="#DejaVuSans-30"/>
       <use x="159.033203" xlink:href="#DejaVuSans-30"/>
       <use x="222.65625" xlink:href="#DejaVuSans-36"/>
      </g>
     </g>
    </g>
    <g id="ytick_8">
     <g id="line2d_17">
      <g>
       <use style="stroke:#000000;stroke-width:0.8;" x="111.15" xlink:href="#m78f6228c9d" y="121.16552"/>
      </g>
     </g>
     <g id="text_17">
      <!-- 0.007 -->
      <g transform="translate(75.521875 124.964738)scale(0.1 -0.1)">
       <use xlink:href="#DejaVuSans-30"/>
       <use x="63.623047" xlink:href="#DejaVuSans-2e"/>
       <use x="95.410156" xlink:href="#DejaVuSans-30"/>
       <use x="159.033203" xlink:href="#DejaVuSans-30"/>
       <use x="222.65625" xlink:href="#DejaVuSans-37"/>
      </g>
     </g>
    </g>
    <g id="ytick_9">
     <g id="line2d_18">
      <g>
       <use style="stroke:#000000;stroke-width:0.8;" x="111.15" xlink:href="#m78f6228c9d" y="74.45248"/>
      </g>
     </g>
     <g id="text_18">
      <!-- 0.008 -->
      <g transform="translate(75.521875 78.251698)scale(0.1 -0.1)">
       <defs>
        <path d="M 2034 2216 
Q 1584 2216 1326 1975 
Q 1069 1734 1069 1313 
Q 1069 891 1326 650 
Q 1584 409 2034 409 
Q 2484 409 2743 651 
Q 3003 894 3003 1313 
Q 3003 1734 2745 1975 
Q 2488 2216 2034 2216 
z
M 1403 2484 
Q 997 2584 770 2862 
Q 544 3141 544 3541 
Q 544 4100 942 4425 
Q 1341 4750 2034 4750 
Q 2731 4750 3128 4425 
Q 3525 4100 3525 3541 
Q 3525 3141 3298 2862 
Q 3072 2584 2669 2484 
Q 3125 2378 3379 2068 
Q 3634 1759 3634 1313 
Q 3634 634 3220 271 
Q 2806 -91 2034 -91 
Q 1263 -91 848 271 
Q 434 634 434 1313 
Q 434 1759 690 2068 
Q 947 2378 1403 2484 
z
M 1172 3481 
Q 1172 3119 1398 2916 
Q 1625 2713 2034 2713 
Q 2441 2713 2670 2916 
Q 2900 3119 2900 3481 
Q 2900 3844 2670 4047 
Q 2441 4250 2034 4250 
Q 1625 4250 1398 4047 
Q 1172 3844 1172 3481 
z
" id="DejaVuSans-38" transform="scale(0.015625)"/>
       </defs>
       <use xlink:href="#DejaVuSans-30"/>
       <use x="63.623047" xlink:href="#DejaVuSans-2e"/>
       <use x="95.410156" xlink:href="#DejaVuSans-30"/>
       <use x="159.033203" xlink:href="#DejaVuSans-30"/>
       <use x="222.65625" xlink:href="#DejaVuSans-38"/>
      </g>
     </g>
    </g>
   </g>
   <g id="line2d_19">
    <path clip-path="url(#p10cf4e3e9b)" d="M 142.474091 448.1568 
L 338.437604 448.049352 
L 339.126734 448.052735 
L 339.878512 448.151884 
L 343.574755 448.156443 
L 344.201236 448.047282 
L 344.451829 447.696225 
L 344.702422 446.926725 
L 345.328904 443.736239 
L 345.579496 442.528552 
L 346.957756 424.894997 
L 347.333645 414.345121 
L 347.584238 412.765305 
L 347.646886 412.754454 
L 347.709535 412.896401 
L 347.834831 414.946807 
L 348.461313 428.068196 
L 348.962498 433.484243 
L 349.463684 430.996286 
L 349.526332 430.929769 
L 349.58898 431.156902 
L 350.27811 442.55858 
L 350.591351 444.995353 
L 350.653999 444.741645 
L 350.841944 444.497071 
L 350.904592 444.640925 
L 351.155185 443.853055 
L 351.531074 440.212001 
L 351.719018 440.007214 
L 351.781666 439.650124 
L 352.157555 424.263169 
L 352.533445 401.066861 
L 353.159926 347.957895 
L 354.099649 257.807759 
L 354.600835 167.164094 
L 354.663483 181.671646 
L 355.916446 430.81313 
L 356.167039 444.697256 
L 356.292335 446.804294 
L 356.417632 445.358668 
L 356.605576 441.767417 
L 356.668225 442.456517 
L 357.044114 445.703591 
L 357.16941 445.958524 
L 357.232058 445.702166 
L 357.357355 442.389843 
L 357.733244 419.833267 
L 358.046485 385.412449 
L 358.798263 305.003561 
L 358.986207 299.099692 
L 359.111504 301.425873 
L 359.299448 312.407889 
L 359.612689 347.92922 
L 359.92593 319.301224 
L 360.239171 341.989849 
L 360.301819 339.997521 
L 360.61506 309.246438 
L 360.677708 309.480335 
L 360.928301 314.102846 
L 361.30419 323.124089 
L 361.366838 324.448401 
L 361.554783 316.621484 
L 361.617431 316.262808 
L 361.742727 318.218715 
L 361.868024 312.353543 
L 362.243913 293.83037 
L 362.306561 294.188995 
L 362.431857 296.602743 
L 362.619802 283.906825 
L 362.870395 244.11674 
L 363.622173 81.2448 
L 363.684821 81.497224 
L 363.747469 85.87811 
L 363.935414 154.619261 
L 364.436599 343.955798 
L 364.812488 417.048675 
L 365.125729 432.602245 
L 366.1281 444.911509 
L 366.441341 446.619097 
L 366.81723 447.56922 
L 367.318415 447.749994 
L 367.882249 448.025289 
L 368.947268 448.134961 
L 372.392918 448.118427 
L 372.643511 447.955255 
L 372.831455 447.586623 
L 373.082048 446.434443 
L 373.332641 441.960308 
L 373.583234 432.413725 
L 373.896475 408.463645 
L 374.773549 323.603621 
L 374.836197 325.357514 
L 375.024142 335.954005 
L 375.149438 353.06418 
L 375.525327 393.788154 
L 375.901216 403.747018 
L 376.214457 405.674657 
L 376.527698 411.748269 
L 376.778291 415.650123 
L 377.091532 418.081829 
L 377.15418 418.14662 
L 377.342125 420.662706 
L 377.467421 422.362963 
L 377.655365 421.522093 
L 377.718014 421.509768 
L 377.780662 421.148942 
L 378.219199 390.725924 
L 379.284218 310.90246 
L 379.346866 313.247838 
L 379.660107 319.437374 
L 379.722755 319.679868 
L 379.785404 319.346211 
L 379.848052 319.494901 
L 380.098645 321.312978 
L 380.161293 320.961429 
L 380.223941 319.913038 
L 380.411885 333.669816 
L 380.537182 339.448041 
L 380.59983 338.711579 
L 380.913071 350.88961 
L 381.226312 368.485044 
L 381.414256 364.791901 
L 381.539553 359.405102 
L 381.664849 351.771133 
L 381.97809 360.236057 
L 382.166035 379.734548 
L 382.729868 399.970781 
L 382.855165 400.712338 
L 382.917813 400.48708 
L 382.980461 399.800392 
L 383.105757 404.648128 
L 383.606943 423.16326 
L 384.108128 431.667801 
L 384.233425 433.319914 
L 384.922555 443.723283 
L 384.985203 443.898551 
L 385.047851 443.86176 
L 385.173147 443.764013 
L 385.361092 443.031626 
L 385.42374 442.659728 
L 385.736981 446.756235 
L 385.924925 447.536553 
L 386.11287 447.449232 
L 386.175518 447.326086 
L 386.238166 447.424009 
L 386.551407 447.874376 
L 386.927296 448.117408 
L 387.616426 448.152745 
L 388.054964 448.033553 
L 388.18026 447.691348 
L 388.618797 445.736598 
L 388.744094 446.155077 
L 388.806742 446.034119 
L 388.932038 445.422051 
L 388.994686 445.70055 
L 389.182631 447.29819 
L 389.370575 447.843072 
L 389.809113 448.112015 
L 390.498243 448.120673 
L 390.874132 448.075555 
L 391.062076 448.063434 
L 391.375317 448.11919 
L 392.878874 448.121087 
L 395.76069 448.156675 
L 473.005898 448.033263 
L 473.381787 447.667299 
L 473.757676 446.907129 
L 474.070917 445.714067 
L 474.384158 444.347553 
L 474.697399 443.787249 
L 475.323881 442.036796 
L 476.326252 437.656872 
L 476.451548 437.67352 
L 476.576845 437.977126 
L 476.764789 439.515593 
L 477.391271 447.645274 
L 478.017753 447.569499 
L 478.330994 447.476132 
L 478.706883 447.482456 
L 479.020124 447.23911 
L 479.270716 447.927808 
L 479.333365 447.877859 
L 480.085143 447.361874 
L 480.398384 447.443228 
L 480.586328 447.674016 
L 480.962217 448.089956 
L 481.338106 448.143665 
L 485.34759 448.156057 
L 694.592517 448.01172 
L 695.156351 447.625116 
L 696.284018 446.743348 
L 696.659907 446.760745 
L 697.286389 447.173432 
L 697.662278 447.447264 
L 698.100815 447.774487 
L 698.414056 447.93336 
L 698.602001 447.717295 
L 698.789945 448.134661 
L 703.551207 448.1568 
L 706.620968 448.048309 
L 706.996857 447.797538 
L 707.24745 447.402023 
L 707.435395 446.54576 
L 707.748635 443.071085 
L 707.811284 443.188092 
L 708.061876 446.167418 
L 708.249821 446.503969 
L 708.813655 445.52918 
L 709.189544 445.238253 
L 709.31484 444.520878 
L 709.377488 443.690657 
L 709.440136 443.895085 
L 709.690729 443.5976 
L 709.816025 442.193775 
L 709.941322 437.124925 
L 710.129266 407.580236 
L 710.191915 413.425065 
L 710.317211 423.176932 
L 710.379859 416.421143 
L 710.442507 396.981393 
L 710.567804 418.917552 
L 710.630452 415.033016 
L 710.943693 447.341386 
L 711.131637 447.902078 
L 711.444878 448.058513 
L 712.635194 448.152364 
L 712.885786 448.041418 
L 713.073731 447.558842 
L 713.261675 445.971526 
L 713.512268 444.511369 
L 713.825509 442.16396 
L 714.264046 436.972926 
L 715.704955 417.813827 
L 715.955547 416.628605 
L 716.080844 416.472426 
L 716.20614 416.658378 
L 716.644677 417.902343 
L 716.707325 417.874435 
L 716.832622 416.957542 
L 717.333807 433.461445 
L 717.647048 438.980708 
L 717.834993 440.146137 
L 717.897641 439.828515 
L 718.022937 429.09921 
L 718.148234 404.065747 
L 718.210882 411.117199 
L 718.398826 446.553377 
L 718.586771 448.047105 
L 718.774715 447.368531 
L 719.087956 444.969406 
L 719.463845 439.463138 
L 719.526494 437.769665 
L 719.589142 438.219566 
L 719.65179 438.232086 
L 719.902383 440.121066 
L 720.027679 440.983132 
L 720.090327 440.691084 
L 720.152975 441.033751 
L 720.403568 444.183465 
L 720.716809 445.458337 
L 721.531235 447.54795 
L 721.907125 448.07502 
L 722.220365 448.155599 
L 731.868185 448.13043 
L 732.369371 447.956919 
L 732.807908 447.562096 
L 734.248816 445.957874 
L 734.436761 445.980632 
L 735.000595 446.877374 
L 735.251187 447.996365 
L 735.439132 448.101047 
L 735.877669 448.053676 
L 736.065614 448.106031 
L 737.318577 448.1568 
L 741.01482 448.058956 
L 741.265413 447.730889 
L 741.578654 446.797415 
L 742.017191 445.448973 
L 742.142487 445.39118 
L 742.267784 445.60128 
L 743.08221 448.156799 
L 743.646044 448.156633 
L 743.708692 446.39575 
L 743.77134 446.599782 
L 743.896636 448.149464 
L 744.084581 448.045201 
L 744.272525 447.622376 
L 744.523118 446.361826 
L 744.961655 443.631787 
L 745.274896 442.845054 
L 745.462841 441.459814 
L 745.650785 439.200584 
L 745.83873 440.680298 
L 745.901378 440.551484 
L 745.964026 440.053952 
L 746.151971 441.17444 
L 746.214619 441.110858 
L 746.402564 441.665037 
L 747.154342 448.046714 
L 747.404935 448.126425 
L 747.780824 448.083272 
L 747.90612 447.974159 
L 748.031416 447.143854 
L 748.156713 443.497807 
L 748.532602 425.809285 
L 748.657898 422.330834 
L 748.720546 423.090561 
L 749.409676 431.247561 
L 750.224103 446.180523 
L 750.599992 447.790667 
L 750.66264 447.811436 
L 751.038529 447.259473 
L 751.289122 447.142518 
L 751.539715 447.791191 
L 751.727659 447.894478 
L 751.978252 447.712893 
L 752.228845 447.090424 
L 752.73003 445.578187 
L 752.980623 445.248595 
L 753.231215 444.508828 
L 753.41916 442.988841 
L 753.607105 447.888744 
L 753.795049 448.141888 
L 753.920345 447.921485 
L 754.10829 446.204988 
L 754.233586 446.586139 
L 754.421531 446.663074 
L 754.672124 446.140839 
L 754.922716 447.800014 
L 755.611846 448.14509 
L 756.990106 448.1568 
L 765.071722 448.062601 
L 765.322315 447.684161 
L 765.698204 446.501195 
L 766.011445 444.317893 
L 766.262037 438.141433 
L 766.575278 423.727352 
L 767.640297 361.801207 
L 768.078835 351.928385 
L 768.454724 347.448419 
L 768.767965 328.949145 
L 768.955909 323.794362 
L 768.955909 323.794362 
" style="fill:none;stroke:#1f77b4;stroke-linecap:square;stroke-width:1.5;"/>
   </g>
   <g id="patch_3">
    <path d="M 111.15 466.5024 
L 111.15 62.8992 
" style="fill:none;stroke:#000000;stroke-linecap:square;stroke-linejoin:miter;stroke-width:0.8;"/>
   </g>
   <g id="patch_4">
    <path d="M 800.28 466.5024 
L 800.28 62.8992 
" style="fill:none;stroke:#000000;stroke-linecap:square;stroke-linejoin:miter;stroke-width:0.8;"/>
   </g>
   <g id="patch_5">
    <path d="M 111.15 466.5024 
L 800.28 466.5024 
" style="fill:none;stroke:#000000;stroke-linecap:square;stroke-linejoin:miter;stroke-width:0.8;"/>
   </g>
   <g id="patch_6">
    <path d="M 111.15 62.8992 
L 800.28 62.8992 
" style="fill:none;stroke:#000000;stroke-linecap:square;stroke-linejoin:miter;stroke-width:0.8;"/>
   </g>
   <g id="text_19">
    <!-- 265.9 -->
    <g transform="translate(476.3889 434.142888)scale(0.1 -0.1)">
     <defs>
      <path d="M 703 97 
L 703 672 
Q 941 559 1184 500 
Q 1428 441 1663 441 
Q 2288 441 2617 861 
Q 2947 1281 2994 2138 
Q 2813 1869 2534 1725 
Q 2256 1581 1919 1581 
Q 1219 1581 811 2004 
Q 403 2428 403 3163 
Q 403 3881 828 4315 
Q 1253 4750 1959 4750 
Q 2769 4750 3195 4129 
Q 3622 3509 3622 2328 
Q 3622 1225 3098 567 
Q 2575 -91 1691 -91 
Q 1453 -91 1209 -44 
Q 966 3 703 97 
z
M 1959 2075 
Q 2384 2075 2632 2365 
Q 2881 2656 2881 3163 
Q 2881 3666 2632 3958 
Q 2384 4250 1959 4250 
Q 1534 4250 1286 3958 
Q 1038 3666 1038 3163 
Q 1038 2656 1286 2365 
Q 1534 2075 1959 2075 
z
" id="DejaVuSans-39" transform="scale(0.015625)"/>
     </defs>
     <use xlink:href="#DejaVuSans-32"/>
     <use x="63.623047" xlink:href="#DejaVuSans-36"/>
     <use x="127.246094" xlink:href="#DejaVuSans-35"/>
     <use x="190.869141" xlink:href="#DejaVuSans-2e"/>
     <use x="222.65625" xlink:href="#DejaVuSans-39"/>
    </g>
   </g>
   <g id="text_20">
    <!-- -93.0 -->
    <g transform="translate(363.935414 74.45248)scale(0.1 -0.1)">
     <defs>
      <path d="M 313 2009 
L 1997 2009 
L 1997 1497 
L 313 1497 
L 313 2009 
z
" id="DejaVuSans-2d" transform="scale(0.015625)"/>
     </defs>
     <use xlink:href="#DejaVuSans-2d"/>
     <use x="36.083984" xlink:href="#DejaVuSans-39"/>
     <use x="99.707031" xlink:href="#DejaVuSans-33"/>
     <use x="163.330078" xlink:href="#DejaVuSans-2e"/>
     <use x="195.117188" xlink:href="#DejaVuSans-30"/>
    </g>
   </g>
   <g id="text_21">
    <!-- pg0804 -->
    <g transform="translate(432.826875 56.8992)scale(0.12 -0.12)">
     <defs>
      <path d="M 1159 525 
L 1159 -1331 
L 581 -1331 
L 581 3500 
L 1159 3500 
L 1159 2969 
Q 1341 3281 1617 3432 
Q 1894 3584 2278 3584 
Q 2916 3584 3314 3078 
Q 3713 2572 3713 1747 
Q 3713 922 3314 415 
Q 2916 -91 2278 -91 
Q 1894 -91 1617 61 
Q 1341 213 1159 525 
z
M 3116 1747 
Q 3116 2381 2855 2742 
Q 2594 3103 2138 3103 
Q 1681 3103 1420 2742 
Q 1159 2381 1159 1747 
Q 1159 1113 1420 752 
Q 1681 391 2138 391 
Q 2594 391 2855 752 
Q 3116 1113 3116 1747 
z
" id="DejaVuSans-70" transform="scale(0.015625)"/>
      <path d="M 2906 1791 
Q 2906 2416 2648 2759 
Q 2391 3103 1925 3103 
Q 1463 3103 1205 2759 
Q 947 2416 947 1791 
Q 947 1169 1205 825 
Q 1463 481 1925 481 
Q 2391 481 2648 825 
Q 2906 1169 2906 1791 
z
M 3481 434 
Q 3481 -459 3084 -895 
Q 2688 -1331 1869 -1331 
Q 1566 -1331 1297 -1286 
Q 1028 -1241 775 -1147 
L 775 -588 
Q 1028 -725 1275 -790 
Q 1522 -856 1778 -856 
Q 2344 -856 2625 -561 
Q 2906 -266 2906 331 
L 2906 616 
Q 2728 306 2450 153 
Q 2172 0 1784 0 
Q 1141 0 747 490 
Q 353 981 353 1791 
Q 353 2603 747 3093 
Q 1141 3584 1784 3584 
Q 2172 3584 2450 3431 
Q 2728 3278 2906 2969 
L 2906 3500 
L 3481 3500 
L 3481 434 
z
" id="DejaVuSans-67" transform="scale(0.015625)"/>
     </defs>
     <use xlink:href="#DejaVuSans-70"/>
     <use x="63.476562" xlink:href="#DejaVuSans-67"/>
     <use x="126.953125" xlink:href="#DejaVuSans-30"/>
     <use x="190.576172" xlink:href="#DejaVuSans-38"/>
     <use x="254.199219" xlink:href="#DejaVuSans-30"/>
     <use x="317.822266" xlink:href="#DejaVuSans-34"/>
    </g>
   </g>
  </g>
 </g>
 <defs>
  <clipPath id="p10cf4e3e9b">
   <rect height="403.6032" width="689.13" x="111.15" y="62.8992"/>
  </clipPath>
 </defs>
</svg>
